<svg width="24" height="24" viewBox="0 0 24 24" fill="none" xmlns="http://www.w3.org/2000/svg">
<g clip-path="url(#clip0_32_198)">
<path d="M21 5.24817C17.8678 6.08817 15.3961 6.74817 12 6.74817C8.60391 6.74817 6.1322 6.08817 3.00001 5.24817L2.25001 7.6388C4.50001 8.60114 6.78329 9.28692 9.15001 10.1325L6.75001 23.2482L9.39376 23.9982L11.5313 15.7482H12.4688L14.6063 23.9982L17.25 23.2482L14.85 10.1325C17.2153 9.36989 19.5 8.60114 21.75 7.68567L21 5.24817ZM12 5.24817C11.4808 5.24817 10.9733 5.09422 10.5416 4.80578C10.11 4.51734 9.7735 4.10737 9.57482 3.62772C9.37614 3.14806 9.32416 2.62026 9.42545 2.11106C9.52673 1.60186 9.77674 1.13413 10.1439 0.767015C10.511 0.399902 10.9787 0.149895 11.4879 0.0486088C11.9971 -0.0526775 12.5249 -0.000693664 13.0046 0.197986C13.4842 0.396666 13.8942 0.733119 14.1826 1.1648C14.4711 1.59648 14.625 2.10399 14.625 2.62317C14.6243 3.31914 14.3475 3.98638 13.8553 4.4785C13.3632 4.97063 12.696 5.24743 12 5.24817Z" fill="#666666"/>
</g>
<defs>
<clipPath id="clip0_32_198">
<rect width="24" height="24" fill="white"/>
</clipPath>
</defs>
</svg>
