<svg width="24" height="24" viewBox="0 0 24 24" fill="none" xmlns="http://www.w3.org/2000/svg">
<g clip-path="url(#clip0_32_195)">
<path d="M12 4.49634C13.0356 4.49634 13.875 3.65687 13.875 2.62134C13.875 1.5858 13.0356 0.746338 12 0.746338C10.9645 0.746338 10.125 1.5858 10.125 2.62134C10.125 3.65687 10.9645 4.49634 12 4.49634Z" stroke="#666666" stroke-width="1.5" stroke-linejoin="round"/>
<path d="M9.57336 12.8606C9.7093 12.014 9.77023 11.1956 9.54992 10.6298C9.36242 10.1432 8.95461 9.8709 8.46242 9.68527L4.12508 8.28184C3.56258 8.09434 3.03711 7.78027 3.00008 7.15965C2.9532 6.36277 3.65633 5.84715 4.35945 6.03465C4.35945 6.03465 8.48445 7.49434 12.0001 7.49434C15.5157 7.49434 19.5938 6.04121 19.5938 6.04121C20.4376 5.80684 21.0001 6.46309 21.0001 7.15637C21.0001 7.82246 20.4845 8.05684 19.8751 8.27856L15.7501 9.77434C15.3751 9.91496 14.7657 10.1962 14.5313 10.6265C14.2501 11.1304 14.297 12.0107 14.4329 12.8573L14.7095 14.2462L16.463 21.929C16.5943 22.5454 16.1677 23.1215 15.5537 23.2293C14.9396 23.3372 14.4376 22.9181 14.2557 22.3218L12.4951 16.8876C12.4104 16.627 12.3354 16.3634 12.2701 16.0968L12.0001 14.9962L11.7516 16.0111C11.6729 16.3345 11.5823 16.6545 11.4798 16.9711L9.75008 22.3172C9.56258 22.9195 9.07039 23.3367 8.45633 23.2293C7.84227 23.122 7.40633 22.4986 7.54414 21.929L9.2968 14.2495L9.57336 12.8606Z" stroke="#666666" stroke-width="1.5" stroke-linejoin="round"/>
</g>
<defs>
<clipPath id="clip0_32_195">
<rect width="24" height="24" fill="white"/>
</clipPath>
</defs>
</svg>
