<svg width="24" height="24" viewBox="0 0 24 24" fill="none" xmlns="http://www.w3.org/2000/svg">
<g clip-path="url(#clip0_32_200)">
<path d="M12 5.24817C11.4808 5.24817 10.9733 5.09422 10.5416 4.80578C10.1099 4.51734 9.77348 4.10737 9.5748 3.62771C9.37612 3.14806 9.32414 2.62026 9.42542 2.11106C9.52671 1.60186 9.77672 1.13413 10.1438 0.767015C10.5109 0.399902 10.9787 0.149895 11.4879 0.0486088C11.9971 -0.0526774 12.5249 -0.000693664 13.0045 0.197986C13.4842 0.396666 13.8942 0.733119 14.1826 1.1648C14.471 1.59648 14.625 2.10399 14.625 2.62317C14.6242 3.31914 14.3474 3.98638 13.8553 4.4785C13.3632 4.97063 12.696 5.24743 12 5.24817Z" fill="#666666"/>
<path d="M20.25 5.28646L20.2289 5.29208L20.2092 5.29818C20.1624 5.3113 20.1155 5.32536 20.0686 5.33989C19.1963 5.59583 14.9625 6.78927 11.9799 6.78927C9.20815 6.78927 5.35736 5.75802 4.12549 5.40786C4.00289 5.36046 3.87769 5.32008 3.75049 5.28693C2.85986 5.05255 2.25049 5.95724 2.25049 6.78411C2.25049 7.60302 2.98643 7.99302 3.72939 8.27286V8.28599L8.19283 9.68005C8.64893 9.8549 8.7708 10.0335 8.83033 10.1882C9.02393 10.6846 8.86924 11.6676 8.8144 12.0107L8.54252 14.1201L7.03361 22.379C7.02893 22.4015 7.02471 22.4244 7.02096 22.4479L7.01018 22.5074C6.90143 23.2644 7.45736 23.999 8.51018 23.999C9.42893 23.999 9.8344 23.3647 10.0102 22.5018C10.186 21.6388 11.3227 15.1157 11.9789 15.1157C12.6352 15.1157 13.9871 22.5018 13.9871 22.5018C14.1628 23.3647 14.5683 23.999 15.4871 23.999C16.5427 23.999 17.0986 23.2611 16.9871 22.5018C16.9775 22.4379 16.9656 22.3744 16.9514 22.3115L15.4219 14.121L15.1505 12.0116C14.9541 10.783 15.1121 10.3771 15.1655 10.2819C15.1669 10.2797 15.1682 10.2773 15.1692 10.2749C15.2199 10.1811 15.4505 9.97115 15.9886 9.76911L20.1736 8.30615C20.1993 8.2993 20.2247 8.29116 20.2496 8.28177C20.9996 8.00052 21.7496 7.61146 21.7496 6.78505C21.7496 5.95864 21.1406 5.05255 20.25 5.28646Z" fill="#666666"/>
</g>
<defs>
<clipPath id="clip0_32_200">
<rect width="24" height="24" fill="white"/>
</clipPath>
</defs>
</svg>
