<svg width="24" height="24" viewBox="0 0 24 24" fill="none" xmlns="http://www.w3.org/2000/svg">
<path d="M12.0001 2.24731C6.62402 2.24731 2.25011 6.62122 2.25011 11.9973C2.25011 17.3734 6.62402 21.7473 12.0001 21.7473C17.3762 21.7473 21.7501 17.3734 21.7501 11.9973C21.7501 6.62122 17.3762 2.24731 12.0001 2.24731ZM15.7501 12.7473H12.7501V15.7473C12.7501 15.9462 12.6711 16.137 12.5304 16.2776C12.3898 16.4183 12.199 16.4973 12.0001 16.4973C11.8012 16.4973 11.6104 16.4183 11.4698 16.2776C11.3291 16.137 11.2501 15.9462 11.2501 15.7473V12.7473H8.25011C8.0512 12.7473 7.86044 12.6683 7.71978 12.5276C7.57913 12.387 7.50011 12.1962 7.50011 11.9973C7.50011 11.7984 7.57913 11.6076 7.71978 11.467C7.86044 11.3263 8.0512 11.2473 8.25011 11.2473H11.2501V8.24731C11.2501 8.0484 11.3291 7.85764 11.4698 7.71698C11.6104 7.57633 11.8012 7.49731 12.0001 7.49731C12.199 7.49731 12.3898 7.57633 12.5304 7.71698C12.6711 7.85764 12.7501 8.0484 12.7501 8.24731V11.2473H15.7501C15.949 11.2473 16.1398 11.3263 16.2804 11.467C16.4211 11.6076 16.5001 11.7984 16.5001 11.9973C16.5001 12.1962 16.4211 12.387 16.2804 12.5276C16.1398 12.6683 15.949 12.7473 15.7501 12.7473Z" fill="#666666"/>
</svg>
