<svg width="24" height="24" viewBox="0 0 24 24" fill="none" xmlns="http://www.w3.org/2000/svg">
<path d="M19.1119 10.4955C18.9525 10.4955 18.4186 10.5002 18.2682 10.5095L15.226 10.5892C15.2102 10.5902 15.1944 10.5868 15.1804 10.5793C15.1664 10.5719 15.1548 10.5607 15.1467 10.547L9.07269 3.16236C9.03584 3.11359 8.98884 3.07341 8.93494 3.04459C8.88104 3.01578 8.82152 2.99902 8.7605 2.99548H7.50003L10.9219 10.5424C10.9301 10.5596 10.9336 10.5787 10.9321 10.5978C10.9307 10.6168 10.9243 10.6352 10.9136 10.651C10.9029 10.6669 10.8883 10.6796 10.8712 10.6881C10.8541 10.6966 10.835 10.7005 10.816 10.6994L5.11175 10.7838C5.05239 10.7856 4.99344 10.7733 4.93969 10.7481C4.88594 10.7228 4.83889 10.6853 4.80237 10.6385L3.068 8.52908C2.92737 8.34627 2.66394 8.24783 2.43472 8.24783H1.55065C1.49019 8.24783 1.49909 8.30455 1.5155 8.36173L2.4455 11.7095C2.5158 11.8888 2.5158 12.0881 2.4455 12.2674L1.51456 15.6049C1.4869 15.6963 1.49019 15.7455 1.59753 15.7455H2.43753C2.81909 15.7455 2.87112 15.6958 3.06612 15.4502L4.83331 13.308C4.87015 13.2615 4.91726 13.2242 4.97093 13.199C5.02461 13.1738 5.0834 13.1614 5.14269 13.1627L10.7996 13.2892C10.8202 13.2897 10.8403 13.2952 10.8583 13.3052C10.8763 13.3153 10.8916 13.3295 10.9028 13.3468C10.914 13.3641 10.9209 13.3838 10.9227 13.4044C10.9246 13.4249 10.9214 13.4455 10.9135 13.4645L7.50003 20.9955H8.74878C8.80968 20.9919 8.86908 20.9752 8.9229 20.9465C8.97672 20.9178 9.02366 20.8777 9.0605 20.8291L15.1472 13.4486C15.1655 13.4205 15.241 13.4064 15.2733 13.4064L18.2686 13.4861C18.4233 13.4955 18.9525 13.5002 19.1124 13.5002C21.1875 13.5002 22.5 12.9297 22.5 11.9955C22.5 11.0613 21.1932 10.4955 19.1119 10.4955Z" stroke="#666666" stroke-width="1.5" stroke-linecap="round" stroke-linejoin="round"/>
</svg>
