<svg width="24" height="24" viewBox="0 0 24 24" fill="none" xmlns="http://www.w3.org/2000/svg">
<path d="M19.1118 9.74817C18.9843 9.74817 18.435 9.75192 18.2367 9.7627L15.5287 9.83395L9.28403 2.24817H6.33981L9.83622 9.96426L5.27481 10.0318L3.19919 7.49817H0.756533L1.72263 11.9129C1.72966 11.9382 1.7381 11.963 1.74747 11.9874C1.74816 11.9897 1.74816 11.9921 1.74747 11.9944C1.73786 12.0186 1.72957 12.0434 1.72263 12.0685L0.743408 16.4982H3.1706L5.30106 13.92L9.83716 14.0218L6.33935 21.7482H9.29247L15.5268 14.1661L18.2348 14.2383C18.4359 14.2491 18.9848 14.2529 19.1095 14.2529C20.2509 14.2529 21.1847 14.0963 21.885 13.7869C23.0728 13.2638 23.25 12.4416 23.25 11.9982C23.25 10.5891 21.7031 9.74817 19.1118 9.74817Z" fill="#666666"/>
</svg>
