<svg width="24" height="24" viewBox="0 0 24 24" fill="none" xmlns="http://www.w3.org/2000/svg">
<g clip-path="url(#clip0_32_220)">
<path d="M8.74784 21.7482H7.50003C7.37465 21.7481 7.25128 21.7167 7.14121 21.6566C7.03113 21.5966 6.93786 21.5099 6.86992 21.4046C6.80199 21.2992 6.76155 21.1784 6.75232 21.0534C6.74308 20.9284 6.76534 20.803 6.81706 20.6888L9.83862 14.0208L5.30159 13.92L3.64691 15.9249C3.33144 16.3215 3.07972 16.4982 2.43753 16.4982H1.59753C1.46453 16.5025 1.33246 16.4746 1.21251 16.417C1.09256 16.3594 0.988268 16.2737 0.908467 16.1672C0.796904 16.0168 0.687217 15.7618 0.794092 15.398L1.72315 12.0699C1.73019 12.045 1.73862 12.0202 1.748 11.9958C1.74847 11.9935 1.74847 11.9911 1.748 11.9888C1.73832 11.9644 1.73002 11.9396 1.72315 11.9143L0.793154 8.56504C0.692373 8.20833 0.802529 7.95895 0.913154 7.81223C0.98744 7.71366 1.08382 7.6339 1.19454 7.57935C1.30526 7.52481 1.42723 7.497 1.55065 7.49817H2.43753C2.91706 7.49817 3.38253 7.71333 3.65628 8.06067L5.27675 10.0318L9.83862 9.96426L6.818 3.30801C6.76621 3.19385 6.74386 3.06852 6.753 2.9435C6.76214 2.81847 6.80247 2.69772 6.87031 2.5923C6.93815 2.48688 7.03133 2.40015 7.14134 2.34003C7.25135 2.27992 7.37467 2.24833 7.50003 2.24817H8.76144C8.93742 2.25171 9.11034 2.29484 9.26737 2.37437C9.42439 2.45389 9.56149 2.56777 9.66847 2.70754L15.5302 9.83254L18.2382 9.76129C18.4364 9.75051 18.9858 9.74676 19.1128 9.74676C21.7032 9.74817 23.25 10.5891 23.25 11.9982C23.25 12.4416 23.0728 13.2638 21.8874 13.7869C21.1875 14.0963 20.2538 14.2529 19.1119 14.2529C18.9863 14.2529 18.4383 14.2491 18.2372 14.2383L15.5297 14.1661L9.65347 21.2911C9.5464 21.4303 9.40942 21.5436 9.25267 21.6227C9.09592 21.7018 8.92339 21.7447 8.74784 21.7482Z" fill="#666666"/>
</g>
<defs>
<clipPath id="clip0_32_220">
<rect width="24" height="24" fill="white"/>
</clipPath>
</defs>
</svg>
