<svg width="24" height="24" viewBox="0 0 24 24" fill="none" xmlns="http://www.w3.org/2000/svg">
<path d="M19.5033 12.749C19.5033 11.2657 19.0635 9.81562 18.2394 8.58225C17.4153 7.34888 16.2439 6.38758 14.8735 5.81993C13.503 5.25227 11.995 5.10375 10.5402 5.39313C9.08531 5.68252 7.74894 6.39683 6.70004 7.44572C5.65115 8.49462 4.93684 9.83099 4.64745 11.2858C4.35806 12.7407 4.50659 14.2487 5.07425 15.6192C5.6419 16.9896 6.6032 18.1609 7.83657 18.985C9.06994 19.8092 10.52 20.249 12.0033 20.249C13.9925 20.249 15.9001 19.4589 17.3066 18.0523C18.7132 16.6458 19.5033 14.7381 19.5033 12.749ZM6.66194 4.27449C6.26837 3.93771 5.76806 3.7515 5.25006 3.74902L5.11928 3.75277C3.92162 3.82496 3.00006 4.87402 3.00334 6.13965C3.00334 6.75887 3.22178 7.04762 3.51334 7.41606C3.53145 7.43973 3.55433 7.45935 3.58049 7.47364C3.60665 7.48793 3.63551 7.49658 3.66522 7.49902H3.70647C3.72969 7.49861 3.75251 7.49285 3.77316 7.48221C3.79381 7.47156 3.81173 7.4563 3.82553 7.43762L6.67412 4.63965C6.69845 4.61505 6.71745 4.58571 6.72995 4.55345C6.74245 4.5212 6.74818 4.48671 6.74678 4.45215C6.7456 4.4183 6.73746 4.38505 6.72286 4.35448C6.70826 4.32392 6.68752 4.29669 6.66194 4.27449V4.27449ZM17.3382 4.27449C17.7318 3.93771 18.2321 3.7515 18.7501 3.74902L18.8808 3.75277C20.0785 3.82496 21.0001 4.87402 20.9968 6.13965C20.9968 6.75887 20.7783 7.04762 20.4868 7.41606C20.4686 7.43964 20.4457 7.45917 20.4196 7.47338C20.3934 7.48759 20.3646 7.49616 20.3349 7.49856H20.2937C20.2704 7.49814 20.2476 7.49239 20.227 7.48174C20.2063 7.47109 20.1884 7.45583 20.1746 7.43715L17.326 4.63965C17.3017 4.61505 17.2827 4.58571 17.2702 4.55345C17.2577 4.5212 17.2519 4.48671 17.2533 4.45215C17.2545 4.4183 17.2627 4.38505 17.2773 4.35448C17.2919 4.32392 17.3126 4.29669 17.3382 4.27449V4.27449Z" stroke="#666666" stroke-width="1.5" stroke-miterlimit="10"/>
<path d="M12.0033 7.49902V12.749H8.25325M19.5033 20.249L17.6283 18.374M4.50325 20.249L6.37825 18.374" stroke="#666666" stroke-width="1.5" stroke-linecap="round" stroke-linejoin="round"/>
</svg>
