<svg width="24" height="24" viewBox="0 0 24 24" fill="none" xmlns="http://www.w3.org/2000/svg">
<path d="M18.9276 3.00554L18.7743 3.00085H18.75C18.0595 3.00085 17.4117 3.27789 16.8506 3.70398C16.2895 4.13007 16.125 4.50039 16.125 4.50039L20.25 8.53164C20.25 8.53164 20.7773 8.26398 21.0754 7.88242C21.3736 7.50085 21.7448 7.03492 21.7467 6.14289C21.75 4.47929 20.5125 3.10117 18.9276 3.00554ZM5.0723 3.00554L5.22558 3.00085H5.24995C5.94042 3.00085 6.58823 3.27789 7.14933 3.70398C7.71042 4.13007 7.87495 4.50039 7.87495 4.50039L3.74995 8.53164C3.74995 8.53164 3.22261 8.26398 2.92448 7.88242C2.62636 7.50085 2.25511 7.03492 2.25323 6.14101C2.24995 4.47929 3.48745 3.10117 5.0723 3.00554Z" fill="#666666"/>
<path d="M18.3422 18.0253C18.3417 18.0248 18.3415 18.0241 18.3415 18.0234C18.3415 18.0227 18.3417 18.022 18.3422 18.0215C19.9219 16.1222 20.6719 13.5084 20.0156 10.7423C19.3763 8.04606 16.6092 5.31934 13.9059 4.71137C8.53125 3.50293 3.75328 7.57731 3.75328 12.7472C3.7514 14.6752 4.42812 16.5424 5.66485 18.0215C5.66531 18.022 5.66556 18.0227 5.66556 18.0234C5.66556 18.0241 5.66531 18.0248 5.66485 18.0253L3.42188 20.2472C3.42142 20.2477 3.42116 20.2483 3.42116 20.249C3.42116 20.2497 3.42142 20.2504 3.42188 20.2509L4.5 21.3061C4.50052 21.3065 4.50119 21.3068 4.50188 21.3068C4.50257 21.3068 4.50324 21.3065 4.50375 21.3061L6.72703 19.0856C6.72755 19.0851 6.72822 19.0849 6.72891 19.0849C6.7296 19.0849 6.73027 19.0851 6.73078 19.0856C8.21098 20.3206 10.0776 20.9971 12.0054 20.9971C13.9332 20.9971 15.7998 20.3206 17.28 19.0856H17.2833L19.5 21.3061C19.5005 21.3065 19.5012 21.3068 19.5019 21.3068C19.5026 21.3068 19.5032 21.3065 19.5038 21.3061L20.625 20.2472L18.3422 18.0253ZM12.7533 13.4972H7.50329H7.5V12.0018L7.50235 11.9995H11.2523V6.74715H12.7523L12.7533 13.4972Z" fill="#666666"/>
</svg>
