<svg width="24" height="24" viewBox="0 0 24 24" fill="none" xmlns="http://www.w3.org/2000/svg">
<path d="M7.19955 5.17867C7.29809 5.08115 7.37536 4.96427 7.42649 4.83541C7.47762 4.70654 7.50149 4.56848 7.4966 4.42992C7.49171 4.29137 7.45817 4.15534 7.39809 4.03039C7.33801 3.90545 7.25269 3.79431 7.14752 3.70398C6.61825 3.25228 5.94583 3.00311 5.25002 3.00085L5.09674 3.00507H5.07424C3.48752 3.10164 2.25002 4.47976 2.2533 6.14148C2.2533 7.0321 2.6283 7.50367 2.92455 7.88101C3.00768 7.98651 3.11189 8.07351 3.23054 8.13646C3.34918 8.19942 3.47965 8.23694 3.61361 8.24664C3.6258 8.24664 3.64642 8.24898 3.70736 8.24898C3.82786 8.2488 3.94708 8.22425 4.05784 8.1768C4.16861 8.12936 4.26863 8.05999 4.35189 7.97289L7.19955 5.17867ZM18.9277 3.00601L18.7744 3.00132H18.75C18.0536 3.00314 17.3804 3.25233 16.8506 3.70445C16.7456 3.79477 16.6604 3.90586 16.6004 4.03072C16.5405 4.15557 16.507 4.2915 16.5021 4.42994C16.4972 4.56837 16.521 4.70632 16.572 4.8351C16.6231 4.96387 16.7002 5.08069 16.7986 5.1782L19.6472 7.97429C19.7306 8.06171 19.831 8.13129 19.9421 8.17883C20.0532 8.22637 20.1728 8.25087 20.2936 8.25085C20.3536 8.25085 20.3742 8.25085 20.3874 8.24851C20.5212 8.23875 20.6516 8.2012 20.7702 8.13825C20.8887 8.07529 20.9929 7.98832 21.076 7.88289C21.3741 7.50554 21.7453 7.03539 21.7472 6.14335C21.75 4.47976 20.5125 3.10164 18.9277 3.00601Z" fill="#666666"/>
<path d="M12.0033 4.49731C7.45638 4.49731 3.75326 8.1981 3.75326 12.7473C3.75165 14.6761 4.42886 16.544 5.66623 18.0236L3.9731 19.7172C3.9018 19.7864 3.84498 19.8692 3.80596 19.9606C3.76693 20.0521 3.74647 20.1503 3.74576 20.2498C3.74506 20.3492 3.76412 20.4477 3.80185 20.5397C3.83958 20.6317 3.89522 20.7152 3.96553 20.7855C4.03584 20.8558 4.11942 20.9114 4.21142 20.9491C4.30341 20.9868 4.40198 21.0058 4.50139 21.005C4.6008 21.0043 4.69907 20.9838 4.79049 20.9447C4.8819 20.9057 4.96464 20.8488 5.03388 20.7775L6.72701 19.0843C8.2074 20.3203 10.0747 20.9974 12.0033 20.9974C13.9318 20.9974 15.7991 20.3203 17.2795 19.0843L18.9731 20.7775C19.0423 20.8488 19.1251 20.9057 19.2165 20.9447C19.3079 20.9838 19.4062 21.0043 19.5056 21.005C19.605 21.0058 19.7036 20.9868 19.7956 20.9491C19.8876 20.9114 19.9711 20.8558 20.0415 20.7855C20.1118 20.7152 20.1674 20.6317 20.2051 20.5397C20.2429 20.4477 20.2619 20.3492 20.2612 20.2498C20.2605 20.1503 20.2401 20.0521 20.201 19.9606C20.162 19.8692 20.1052 19.7864 20.0339 19.7172L18.3403 18.0236C19.5779 16.5441 20.2551 14.6762 20.2533 12.7473C20.2533 8.20044 16.5525 4.49731 12.0033 4.49731ZM12.7533 12.7473C12.7533 12.9462 12.6742 13.137 12.5336 13.2776C12.3929 13.4183 12.2022 13.4973 12.0033 13.4973H8.25326C8.05435 13.4973 7.86358 13.4183 7.72293 13.2776C7.58227 13.137 7.50326 12.9462 7.50326 12.7473C7.50326 12.5484 7.58227 12.3576 7.72293 12.217C7.86358 12.0763 8.05435 11.9973 8.25326 11.9973H11.2533V7.49732C11.2533 7.2984 11.3323 7.10764 11.4729 6.96698C11.6136 6.82633 11.8043 6.74731 12.0033 6.74731C12.2022 6.74731 12.3929 6.82633 12.5336 6.96698C12.6742 7.10764 12.7533 7.2984 12.7533 7.49732V12.7473Z" fill="#666666"/>
</svg>
