<svg width="24" height="24" viewBox="0 0 24 24" fill="none" xmlns="http://www.w3.org/2000/svg">
<path d="M17.25 4.50085H6.74995C6.55104 4.50085 6.36028 4.42184 6.21962 4.28118C6.07897 4.14053 5.99995 3.94977 5.99995 3.75085C5.99995 3.55194 6.07897 3.36118 6.21962 3.22052C6.36028 3.07987 6.55104 3.00085 6.74995 3.00085H17.25C17.4489 3.00085 17.6396 3.07987 17.7803 3.22052C17.9209 3.36118 18 3.55194 18 3.75085C18 3.94977 17.9209 4.14053 17.7803 4.28118C17.6396 4.42184 17.4489 4.50085 17.25 4.50085ZM18.75 6.75085H5.24995C5.05104 6.75085 4.86028 6.67184 4.71962 6.53118C4.57897 6.39053 4.49995 6.19977 4.49995 6.00085C4.49995 5.80194 4.57897 5.61118 4.71962 5.47052C4.86028 5.32987 5.05104 5.25085 5.24995 5.25085H18.75C18.9489 5.25085 19.1396 5.32987 19.2803 5.47052C19.4209 5.61118 19.5 5.80194 19.5 6.00085C19.5 6.19977 19.4209 6.39053 19.2803 6.53118C19.1396 6.67184 18.9489 6.75085 18.75 6.75085ZM19.6467 21.0009H4.35324C3.7956 21.0002 3.26098 20.7784 2.86668 20.3841C2.47237 19.9898 2.25057 19.4552 2.24995 18.8976V9.60414C2.25057 9.0465 2.47237 8.51188 2.86668 8.11758C3.26098 7.72327 3.7956 7.50148 4.35324 7.50085H19.6467C20.2043 7.50148 20.7389 7.72327 21.1332 8.11758C21.5275 8.51188 21.7493 9.0465 21.75 9.60414V18.8976C21.7493 19.4552 21.5275 19.9898 21.1332 20.3841C20.7389 20.7784 20.2043 21.0002 19.6467 21.0009Z" fill="#666666"/>
</svg>
