<svg width="24" height="24" viewBox="0 0 24 24" fill="none" xmlns="http://www.w3.org/2000/svg">
<path d="M11.9999 2.24915C6.62385 2.24915 2.24995 6.62305 2.24995 11.9991C2.24995 17.3752 6.62385 21.7491 11.9999 21.7491C17.376 21.7491 21.7499 17.3752 21.7499 11.9991C21.7499 6.62305 17.376 2.24915 11.9999 2.24915ZM11.9999 17.2449C11.8145 17.2449 11.6333 17.1899 11.4791 17.0869C11.3249 16.9839 11.2048 16.8375 11.1338 16.6662C11.0629 16.4949 11.0443 16.3064 11.0805 16.1245C11.1166 15.9427 11.2059 15.7756 11.337 15.6445C11.4681 15.5134 11.6352 15.4241 11.817 15.3879C11.9989 15.3518 12.1874 15.3703 12.3587 15.4413C12.53 15.5122 12.6764 15.6324 12.7795 15.7866C12.8825 15.9408 12.9374 16.122 12.9374 16.3074C12.9374 16.5561 12.8387 16.7945 12.6629 16.9703C12.487 17.1462 12.2486 17.2449 11.9999 17.2449ZM13.0181 7.81602L12.749 13.5348C12.749 13.7337 12.67 13.9244 12.5293 14.0651C12.3887 14.2058 12.1979 14.2848 11.999 14.2848C11.8001 14.2848 11.6093 14.2058 11.4687 14.0651C11.328 13.9244 11.249 13.7337 11.249 13.5348L10.9799 7.81883V7.81649C10.9741 7.67911 10.996 7.54196 11.0445 7.4133C11.093 7.28463 11.1671 7.16711 11.2622 7.06782C11.3573 6.96853 11.4716 6.88951 11.598 6.83553C11.7245 6.78155 11.8606 6.75373 11.9981 6.75373C12.1356 6.75373 12.2717 6.78155 12.3981 6.83553C12.5246 6.88951 12.6388 6.96853 12.7339 7.06782C12.8291 7.16711 12.9031 7.28463 12.9516 7.4133C13.0001 7.54196 13.0221 7.67911 13.0162 7.81649L13.0181 7.81602Z" fill="#666666"/>
</svg>
