<svg width="24" height="24" viewBox="0 0 24 24" fill="none" xmlns="http://www.w3.org/2000/svg">
<path d="M12 3.74548C11.5941 3.74548 11.2229 4.09048 11.25 4.49548L11.625 14.6205C11.625 14.7199 11.6646 14.8153 11.7349 14.8857C11.8052 14.956 11.9006 14.9955 12 14.9955C12.0995 14.9955 12.1949 14.956 12.2652 14.8857C12.3355 14.8153 12.375 14.7199 12.375 14.6205L12.75 4.49548C12.7772 4.09048 12.406 3.74548 12 3.74548Z" stroke="#666666" stroke-width="1.5" stroke-linecap="round" stroke-linejoin="round"/>
<path d="M12 20.2455C12.4143 20.2455 12.75 19.9097 12.75 19.4955C12.75 19.0813 12.4143 18.7455 12 18.7455C11.5858 18.7455 11.25 19.0813 11.25 19.4955C11.25 19.9097 11.5858 20.2455 12 20.2455Z" stroke="#666666" stroke-width="1.5" stroke-linecap="round" stroke-linejoin="round"/>
</svg>
