<svg width="24" height="24" viewBox="0 0 24 24" fill="none" xmlns="http://www.w3.org/2000/svg">
<path d="M12.0001 3.74548C11.5941 3.74548 11.2229 4.09048 11.2501 4.49548L11.6251 14.6205C11.6251 14.7199 11.6646 14.8153 11.7349 14.8857C11.8052 14.956 11.9006 14.9955 12.0001 14.9955C12.0995 14.9955 12.1949 14.956 12.2652 14.8857C12.3356 14.8153 12.3751 14.7199 12.3751 14.6205L12.7501 4.49548C12.7773 4.09048 12.406 3.74548 12.0001 3.74548Z" stroke="#666666" stroke-width="1.5" stroke-linecap="round" stroke-linejoin="round"/>
<path d="M11.9999 20.2455C12.4141 20.2455 12.7499 19.9097 12.7499 19.4955C12.7499 19.0813 12.4141 18.7455 11.9999 18.7455C11.5857 18.7455 11.2499 19.0813 11.2499 19.4955C11.2499 19.9097 11.5857 20.2455 11.9999 20.2455Z" stroke="#666666" stroke-width="1.5" stroke-linecap="round" stroke-linejoin="round"/>
</svg>
