<svg width="24" height="24" viewBox="0 0 24 24" fill="none" xmlns="http://www.w3.org/2000/svg">
<path d="M21 12.0009C21 7.0321 16.9688 3.00085 12 3.00085C7.0313 3.00085 3.00005 7.0321 3.00005 12.0009C3.00005 16.9696 7.0313 21.0009 12 21.0009C16.9688 21.0009 21 16.9696 21 12.0009Z" stroke="#666666" stroke-width="1.5" stroke-miterlimit="10"/>
<path d="M11.7309 7.7848L12 13.5012L12.2686 7.7848C12.2703 7.74826 12.2644 7.71176 12.2515 7.67754C12.2386 7.64332 12.2188 7.61209 12.1934 7.58577C12.168 7.55944 12.1375 7.53857 12.1038 7.52444C12.07 7.5103 12.0338 7.5032 11.9972 7.50355V7.50355C11.961 7.50389 11.9253 7.51151 11.8922 7.52596C11.8591 7.5404 11.8292 7.56138 11.8043 7.58763C11.7795 7.61388 11.7602 7.64487 11.7476 7.67875C11.735 7.71262 11.7293 7.74869 11.7309 7.7848V7.7848Z" stroke="#666666" stroke-width="1.5" stroke-linecap="round" stroke-linejoin="round"/>
<path d="M12 17.2437C11.8145 17.2437 11.6333 17.1887 11.4791 17.0857C11.3249 16.9826 11.2048 16.8362 11.1338 16.6649C11.0629 16.4936 11.0443 16.3051 11.0805 16.1233C11.1166 15.9414 11.2059 15.7744 11.337 15.6432C11.4682 15.5121 11.6352 15.4228 11.8171 15.3867C11.9989 15.3505 12.1874 15.3691 12.3587 15.44C12.53 15.511 12.6765 15.6311 12.7795 15.7853C12.8825 15.9395 12.9375 16.1207 12.9375 16.3062C12.9375 16.5548 12.8387 16.7933 12.6629 16.9691C12.4871 17.1449 12.2486 17.2437 12 17.2437Z" fill="#666666"/>
</svg>
