<svg width="24" height="24" viewBox="0 0 24 24" fill="none" xmlns="http://www.w3.org/2000/svg">
<g clip-path="url(#clip0_32_255)">
<path d="M17.7487 17.746C22.6468 12.8479 24.0437 6.30337 20.8687 3.12841C17.6938 -0.0465544 11.1493 1.35032 6.25118 6.24841C1.35309 11.1465 -0.0437813 17.691 3.13118 20.866C6.30615 24.0409 12.8506 22.6441 17.7487 17.746Z" stroke="#666666" stroke-width="1.5" stroke-linecap="round" stroke-linejoin="round"/>
<path d="M10.9547 15.134L8.86457 13.0439M15.6582 8.34043L8.34191 15.6567L15.6582 8.34043ZM13.0454 13.0439L10.9547 10.9532L13.0454 13.0439ZM15.1355 10.9532L13.0454 8.86308L15.1355 10.9532ZM21.4069 9.90793L14.0907 2.59167L21.4069 9.90793ZM9.90941 21.4054L2.59316 14.0892L9.90941 21.4054Z" stroke="#666666" stroke-width="1.5" stroke-linecap="round" stroke-linejoin="round"/>
</g>
<defs>
<clipPath id="clip0_32_255">
<rect width="24" height="24" fill="white" transform="translate(0 -0.00390625)"/>
</clipPath>
</defs>
</svg>
