<svg width="24" height="24" viewBox="0 0 24 24" fill="none" xmlns="http://www.w3.org/2000/svg">
<path d="M5.7216 5.71818C3.64176 7.79802 2.59457 10.4343 2.06535 12.5282L11.4685 21.9294C13.5624 21.4021 16.1986 20.3549 18.2785 18.2732C20.3583 16.1915 21.4055 13.5571 21.9347 11.4632L12.5316 2.0638C10.4377 2.59114 7.80145 3.63833 5.7216 5.71818ZM14.093 8.85599L15.1407 7.81115C15.2814 7.6835 15.4658 7.61487 15.6557 7.61948C15.8456 7.62409 16.0264 7.70159 16.1607 7.83591C16.2951 7.97023 16.3726 8.15109 16.3772 8.341C16.3818 8.5309 16.3132 8.7153 16.1855 8.85599L15.1407 9.90365L15.6638 10.4272C15.8025 10.566 15.8805 10.7542 15.8805 10.9504C15.8805 11.1466 15.8025 11.3347 15.6638 11.4735C15.5251 11.6122 15.3369 11.6902 15.1407 11.6902C14.9445 11.6902 14.7563 11.6122 14.6175 11.4735L14.0944 10.9504L13.0463 11.9966L13.5694 12.5197C13.7082 12.6585 13.7861 12.8467 13.7861 13.0429C13.7861 13.2391 13.7082 13.4272 13.5694 13.566C13.4307 13.7047 13.2425 13.7827 13.0463 13.7827C12.8501 13.7827 12.6619 13.7047 12.5232 13.566L12 13.0429L10.9538 14.0896L11.4769 14.6127C11.5456 14.6814 11.6001 14.763 11.6373 14.8527C11.6745 14.9425 11.6936 15.0387 11.6936 15.1358C11.6936 15.233 11.6745 15.3292 11.6373 15.4189C11.6001 15.5087 11.5456 15.5903 11.4769 15.659C11.4082 15.7277 11.3267 15.7822 11.2369 15.8193C11.1471 15.8565 11.0509 15.8756 10.9538 15.8756C10.8566 15.8756 10.7604 15.8565 10.6707 15.8193C10.5809 15.7822 10.4994 15.7277 10.4307 15.659L9.90707 15.1372L8.85942 16.1821C8.71873 16.3097 8.53433 16.3784 8.34442 16.3738C8.15452 16.3691 7.97366 16.2916 7.83934 16.1573C7.70501 16.023 7.62752 15.8421 7.62291 15.6522C7.6183 15.4623 7.68693 15.2779 7.81457 15.1372L8.85942 14.0896L8.33629 13.566C8.19755 13.4272 8.11961 13.2391 8.11961 13.0429C8.11961 12.8467 8.19755 12.6585 8.33629 12.5197C8.47503 12.381 8.66321 12.3031 8.85942 12.3031C9.05563 12.3031 9.2438 12.381 9.38254 12.5197L9.90567 13.0429L10.9538 11.9966L10.4307 11.4735C10.362 11.4048 10.3075 11.3232 10.2703 11.2335C10.2331 11.1437 10.214 11.0475 10.214 10.9504C10.214 10.8532 10.2331 10.757 10.2703 10.6673C10.3075 10.5775 10.362 10.4959 10.4307 10.4272C10.4994 10.3585 10.5809 10.304 10.6707 10.2669C10.7604 10.2297 10.8566 10.2106 10.9538 10.2106C11.0509 10.2106 11.1471 10.2297 11.2369 10.2669C11.3267 10.304 11.4082 10.3585 11.4769 10.4272L12 10.9504L13.0463 9.90365L12.5232 9.38052C12.3844 9.24178 12.3065 9.05361 12.3065 8.85739C12.3065 8.66118 12.3844 8.47301 12.5232 8.33427C12.6619 8.19553 12.8501 8.11758 13.0463 8.11758C13.2425 8.11758 13.4307 8.19553 13.5694 8.33427L14.093 8.85599ZM22.3393 9.35427C22.6819 6.79818 22.5268 3.71708 21.4018 2.59443C20.2768 1.47177 17.198 1.31474 14.6419 1.65693C14.5243 1.67286 14.4 1.69068 14.2711 1.71083L22.2868 9.72646C22.3055 9.59615 22.3233 9.47193 22.3393 9.35427ZM1.66082 14.639C1.31817 17.1951 1.47332 20.2761 2.59832 21.3988C3.38301 22.184 5.12535 22.4966 6.97692 22.4966C7.77318 22.4953 8.56849 22.4416 9.3577 22.3358C9.47536 22.3199 9.59957 22.3021 9.72848 22.2819L1.71285 14.2663C1.69457 14.3971 1.67676 14.5213 1.66082 14.639Z" fill="#666666"/>
</svg>
