<svg width="24" height="24" viewBox="0 0 24 24" fill="none" xmlns="http://www.w3.org/2000/svg">
<path d="M5.66722 5.64956C3.56956 7.73831 2.513 10.3863 1.98097 12.4886L11.4642 21.9311C13.576 21.4014 16.2352 20.3496 18.3328 18.2608C20.4305 16.1721 21.4871 13.5241 22.0191 11.4213L12.5358 1.97925C10.4241 2.50894 7.76487 3.56316 5.66722 5.64956ZM15.6985 7.22597L16.7541 8.27691L15.1707 9.85331L16.2263 10.9043L15.1664 11.9538L14.1094 10.9043L13.0557 11.9538L14.1094 13.0061L13.0542 14.0571L12 13.0061L10.9444 14.0571L12 15.108L10.9444 16.1589L9.89066 15.108L8.30722 16.6844L7.25019 15.6335L8.83362 14.0571L7.778 13.0061L8.83362 11.9538L9.89066 13.0061L10.9444 11.9538L9.89066 10.9043L10.9458 9.85331L12 10.9043L13.0557 9.85331L12 8.80238L13.0557 7.75144L14.1094 8.80238L15.6985 7.22597ZM22.4288 9.30113C22.7743 6.73425 21.75 2.253 21.75 2.253C21.75 2.253 17.2435 1.22737 14.6653 1.57144C14.5463 1.58691 14.4211 1.60519 14.2903 1.62487L22.3749 9.67378C22.395 9.54441 22.4128 9.41972 22.4288 9.30113ZM1.57128 14.6093C1.22581 17.1761 2.25237 21.7507 2.25237 21.7507C2.25237 21.7507 5.06487 22.5007 6.93331 22.5007C7.73646 22.4993 8.53864 22.4453 9.33472 22.3389C9.45378 22.3235 9.57894 22.3052 9.70972 22.285L1.62519 14.2366C1.60503 14.366 1.58722 14.4907 1.57128 14.6093Z" fill="#666666"/>
</svg>
