<svg width="24" height="24" viewBox="0 0 24 24" fill="none" xmlns="http://www.w3.org/2000/svg">
<g clip-path="url(#clip0_32_268)">
<path d="M21.0939 5.99915C20.7587 5.99925 20.4281 6.0775 20.1285 6.22768C19.8288 6.37785 19.5683 6.59582 19.3676 6.86427C19.1669 7.13272 19.0315 7.44427 18.9723 7.77417C18.913 8.10407 18.9315 8.44325 19.0262 8.76477L15.6807 12.1098C15.2395 11.9628 14.7626 11.9628 14.3213 12.1098L11.8412 9.62962C11.9228 9.31115 11.9305 8.97825 11.8637 8.65635C11.797 8.33445 11.6575 8.03208 11.4559 7.77236C11.2544 7.51264 10.9961 7.30244 10.7008 7.15784C10.4056 7.01325 10.0812 6.93807 9.75244 6.93807C9.42369 6.93807 9.09929 7.01325 8.80404 7.15784C8.5088 7.30244 8.25052 7.51264 8.04897 7.77236C7.84742 8.03208 7.70792 8.33445 7.64114 8.65635C7.57437 8.97825 7.58208 9.31115 7.66369 9.62962L3.51572 13.7748C3.05521 13.6385 2.5624 13.6595 2.11518 13.8346C1.66797 14.0097 1.29186 14.3288 1.04631 14.7416C0.800756 15.1543 0.699766 15.6371 0.759301 16.1137C0.818836 16.5903 1.0355 17.0334 1.37504 17.373C1.71459 17.7127 2.15765 17.9295 2.6342 17.9892C3.11074 18.0489 3.59358 17.948 4.00641 17.7026C4.41924 17.4572 4.7385 17.0812 4.91373 16.634C5.08896 16.1869 5.11017 15.6941 4.974 15.2335L9.06947 11.1385C9.51066 11.2856 9.98766 11.2856 10.4288 11.1385L12.9095 13.6191C12.8279 13.9376 12.8201 14.2705 12.8869 14.5924C12.9537 14.9143 13.0932 15.2167 13.2948 15.4764C13.4963 15.7361 13.7546 15.9463 14.0498 16.0909C14.3451 16.2355 14.6695 16.3107 14.9982 16.3107C15.327 16.3107 15.6514 16.2355 15.9466 16.0909C16.2419 15.9463 16.5001 15.7361 16.7017 15.4764C16.9033 15.2167 17.0427 14.9143 17.1095 14.5924C17.1763 14.2705 17.1686 13.9376 17.087 13.6191L20.4845 10.2235C20.7811 10.311 21.093 10.3337 21.3992 10.29C21.7053 10.2463 21.9985 10.1373 22.2588 9.97037C22.5191 9.80341 22.7404 9.58241 22.9078 9.32237C23.0752 9.06233 23.1846 8.76933 23.2288 8.46325C23.2729 8.15718 23.2507 7.84519 23.1637 7.54845C23.0766 7.25171 22.9268 6.97716 22.7243 6.74344C22.5218 6.50972 22.2714 6.32229 21.9901 6.19387C21.7087 6.06544 21.4031 5.99904 21.0939 5.99915Z" fill="#666666"/>
</g>
<defs>
<clipPath id="clip0_32_268">
<rect width="24" height="24" fill="white" transform="translate(0.00012207 -0.00390625)"/>
</clipPath>
</defs>
</svg>
