<svg width="24" height="24" viewBox="0 0 24 24" fill="none" xmlns="http://www.w3.org/2000/svg">
<path d="M21.375 5.99915C21.0697 5.99922 20.769 6.07384 20.4991 6.21652C20.2293 6.35919 19.9983 6.56561 19.8263 6.81784C19.6543 7.07006 19.5465 7.36047 19.5123 7.66382C19.478 7.96717 19.5184 8.2743 19.6298 8.55852L15.6843 12.504C15.2445 12.3309 14.7554 12.3309 14.3156 12.504L11.4951 9.68352C11.6068 9.39924 11.6473 9.09198 11.6132 8.78846C11.5791 8.48493 11.4713 8.19434 11.2993 7.94195C11.1273 7.68956 10.8962 7.48302 10.6262 7.34027C10.3562 7.19753 10.0554 7.12292 9.74995 7.12292C9.44452 7.12292 9.14371 7.19753 8.87368 7.34027C8.60366 7.48302 8.37259 7.68956 8.20058 7.94195C8.02856 8.19434 7.92081 8.48493 7.88669 8.78846C7.85257 9.09198 7.89311 9.39924 8.0048 9.68352L3.30933 14.379C2.90832 14.2217 2.46538 14.2072 2.05499 14.3381C1.64459 14.469 1.29177 14.7372 1.05584 15.0976C0.819918 15.458 0.71528 15.8886 0.759522 16.3171C0.803765 16.7456 0.994191 17.1457 1.29878 17.4503C1.60337 17.7549 2.00355 17.9453 2.43202 17.9896C2.8605 18.0338 3.29115 17.9292 3.65155 17.6933C4.01195 17.4573 4.28013 17.1045 4.41099 16.6941C4.54185 16.2837 4.52742 15.8408 4.37011 15.4398L9.06558 10.7443C9.5054 10.9174 9.9945 10.9174 10.4343 10.7443L13.2548 13.5648C13.1431 13.8491 13.1026 14.1563 13.1367 14.4598C13.1708 14.7634 13.2786 15.054 13.4506 15.3063C13.6226 15.5587 13.8537 15.7653 14.1237 15.908C14.3937 16.0508 14.6945 16.1254 15 16.1254C15.3054 16.1254 15.6062 16.0508 15.8762 15.908C16.1463 15.7653 16.3773 15.5587 16.5493 15.3063C16.7213 15.054 16.8291 14.7634 16.8632 14.4598C16.8973 14.1563 16.8568 13.8491 16.7451 13.5648L20.6906 9.6193C20.9473 9.72017 21.2232 9.76314 21.4984 9.74516C21.7737 9.72717 22.0416 9.64868 22.283 9.51527C22.5245 9.38186 22.7335 9.19682 22.8952 8.97335C23.0569 8.74988 23.1673 8.49348 23.2186 8.22244C23.2698 7.95139 23.2606 7.67238 23.1916 7.4053C23.1226 7.13822 22.9956 6.88965 22.8195 6.67731C22.6434 6.46497 22.4227 6.2941 22.173 6.17687C21.9233 6.05965 21.6508 5.99897 21.375 5.99915Z" fill="#666666"/>
</svg>
