<svg width="24" height="24" viewBox="0 0 24 24" fill="none" xmlns="http://www.w3.org/2000/svg">
<path d="M3.74987 15.0009L8.62487 10.1259M16.1249 13.1259L20.2499 9.00085L16.1249 13.1259ZM10.8749 10.1259L13.8749 13.1259L10.8749 10.1259Z" stroke="#666666" stroke-width="1.5" stroke-linecap="round" stroke-linejoin="round"/>
<path d="M21.3749 8.99731C21.9963 8.99731 22.4999 8.49363 22.4999 7.87231C22.4999 7.25099 21.9963 6.74731 21.3749 6.74731C20.7536 6.74731 20.2499 7.25099 20.2499 7.87231C20.2499 8.49363 20.7536 8.99731 21.3749 8.99731Z" stroke="#666666" stroke-width="1.5" stroke-linecap="round" stroke-linejoin="round"/>
<path d="M15 15.375C15.6214 15.375 16.125 14.8713 16.125 14.25C16.125 13.6287 15.6214 13.125 15 13.125C14.3787 13.125 13.875 13.6287 13.875 14.25C13.875 14.8713 14.3787 15.375 15 15.375Z" stroke="#666666" stroke-width="1.5" stroke-linecap="round" stroke-linejoin="round"/>
<path d="M9.74998 10.1241C10.3713 10.1241 10.875 9.62047 10.875 8.99915C10.875 8.37783 10.3713 7.87415 9.74998 7.87415C9.12866 7.87415 8.62498 8.37783 8.62498 8.99915C8.62498 9.62047 9.12866 10.1241 9.74998 10.1241Z" stroke="#666666" stroke-width="1.5" stroke-linecap="round" stroke-linejoin="round"/>
<path d="M2.62493 17.25C3.24625 17.25 3.74993 16.7463 3.74993 16.125C3.74993 15.5037 3.24625 15 2.62493 15C2.00361 15 1.49993 15.5037 1.49993 16.125C1.49993 16.7463 2.00361 17.25 2.62493 17.25Z" stroke="#666666" stroke-width="1.5" stroke-linecap="round" stroke-linejoin="round"/>
</svg>
