<svg width="24" height="24" viewBox="0 0 24 24" fill="none" xmlns="http://www.w3.org/2000/svg">
<path d="M11.7441 6.05033L8.56593 2.8722C6.74607 3.56478 5.17296 4.78237 4.04625 6.37048H11.6119C11.6489 6.37042 11.6852 6.35937 11.7159 6.33874C11.7467 6.3181 11.7707 6.2888 11.7849 6.25454C11.799 6.22028 11.8027 6.1826 11.7954 6.14625C11.7882 6.1099 11.7703 6.07652 11.7441 6.05033ZM7.86187 7.87048H3.17015C2.30706 9.71016 2.04231 11.7741 2.41312 13.772L7.99406 8.19064C8.02028 8.16445 8.03816 8.13107 8.04542 8.09472C8.05268 8.05837 8.049 8.02069 8.03486 7.98643C8.02071 7.95217 7.99673 7.92287 7.96594 7.90223C7.93515 7.88159 7.89894 7.87055 7.86187 7.87048ZM16.125 7.85736V3.16236C14.2847 2.30194 12.2214 2.0384 10.2239 2.40861L15.8048 7.98955C15.831 8.01577 15.8644 8.03364 15.9008 8.0409C15.9371 8.04817 15.9748 8.04449 16.0091 8.03035C16.0433 8.0162 16.0726 7.99222 16.0933 7.96143C16.1139 7.93064 16.1249 7.89442 16.125 7.85736ZM21.5869 10.2189L16.0059 15.8003C15.9797 15.8265 15.9618 15.8599 15.9546 15.8962C15.9473 15.9326 15.951 15.9703 15.9651 16.0045C15.9793 16.0388 16.0033 16.0681 16.0341 16.0887C16.0648 16.1094 16.1011 16.1204 16.1381 16.1205H20.8298C21.6929 14.2808 21.9577 12.2169 21.5869 10.2189ZM17.9452 11.7395L21.1247 8.56048C20.434 6.73792 19.2155 5.16269 17.625 4.03611V11.6074C17.6251 11.6444 17.6361 11.6806 17.6567 11.7114C17.6774 11.7422 17.7067 11.7662 17.7409 11.7803C17.7752 11.7945 17.8129 11.7982 17.8492 11.7909C17.8856 11.7836 17.919 11.7658 17.9452 11.7395ZM10.3912 16.016C10.4611 16.083 10.5541 16.1205 10.6509 16.1205H13.4475C13.4972 16.1205 13.5465 16.1105 13.5923 16.0913C13.6382 16.0721 13.6798 16.0439 13.7147 16.0085L16.02 13.6647C16.0892 13.5945 16.1279 13.4998 16.1278 13.4013L16.125 10.5508C16.125 10.5012 16.1151 10.452 16.096 10.4063C16.0768 10.3605 16.0488 10.3189 16.0134 10.2841L13.6697 7.97548C13.5993 7.90621 13.5045 7.86747 13.4058 7.86767L10.5539 7.87048C10.5043 7.87051 10.4551 7.88038 10.4094 7.89953C10.3636 7.91868 10.322 7.94673 10.2872 7.98205L7.97859 10.3258C7.90931 10.3961 7.87057 10.491 7.87078 10.5897L7.87359 13.4388C7.8736 13.4892 7.88378 13.5391 7.90351 13.5855C7.92324 13.6319 7.95213 13.6738 7.98843 13.7088L10.3912 16.016ZM12.2559 17.9406L15.4341 21.1188C17.2539 20.4262 18.827 19.2086 19.9537 17.6205H12.3881C12.3511 17.6205 12.3148 17.6316 12.2841 17.6522C12.2533 17.6729 12.2293 17.7022 12.2151 17.7364C12.201 17.7707 12.1973 17.8084 12.2046 17.8447C12.2118 17.8811 12.2297 17.9144 12.2559 17.9406ZM7.875 16.1336V20.8286C9.71531 21.689 11.7786 21.9526 13.7761 21.5824L8.19515 16.0014C8.16896 15.9752 8.13558 15.9573 8.09923 15.9501C8.06288 15.9428 8.0252 15.9465 7.99094 15.9606C7.95668 15.9748 7.92738 15.9987 7.90674 16.0295C7.88611 16.0603 7.87506 16.0965 7.875 16.1336ZM6.05484 12.2514L2.87531 15.431C3.56616 17.2533 4.78461 18.8284 6.375 19.9549V12.3836C6.37493 12.3465 6.36389 12.3103 6.34325 12.2795C6.32261 12.2487 6.29331 12.2248 6.25905 12.2106C6.22479 12.1965 6.18711 12.1928 6.15076 12.2001C6.11441 12.2073 6.08103 12.2252 6.05484 12.2514Z" fill="#666666"/>
</svg>
