<svg width="24" height="24" viewBox="0 0 24 24" fill="none" xmlns="http://www.w3.org/2000/svg">
<path d="M21 11.9982C21 7.02942 16.9687 2.99817 12 2.99817C7.03122 2.99817 2.99997 7.02942 2.99997 11.9982C2.99997 16.9669 7.03122 20.9982 12 20.9982C16.9687 20.9982 21 16.9669 21 11.9982Z" stroke="#666666" stroke-width="1.5" stroke-miterlimit="10"/>
<path d="M9.9783 3.22803L16.875 10.1247M16.875 4.43365V13.8747V4.43365ZM20.7717 9.97803L13.875 16.8747L20.7717 9.97803ZM19.5661 16.8747H10.125H19.5661ZM14.0217 20.7715L7.27173 14.0215L14.0217 20.7715ZM7.12501 19.4998V10.1247V19.4998ZM3.22829 14.0215L9.9783 7.27147L3.22829 14.0215ZM4.43392 7.12475H13.5H4.43392Z" stroke="#666666" stroke-width="1.5" stroke-linecap="round" stroke-linejoin="round"/>
</svg>
