<svg width="24" height="24" viewBox="0 0 24 24" fill="none" xmlns="http://www.w3.org/2000/svg">
<path d="M10.125 2.24548L16.1949 8.25392V2.24548H10.125ZM8.50641 2.73205L3.75001 6.27673H12L8.50641 2.73205ZM15.75 16.1205H21.75V10.1205L15.75 16.1205ZM21.2813 8.52673L17.7188 3.74548V11.9955L21.2813 8.52673ZM2.25001 7.77673V13.7767L8.25001 7.77673H2.25001ZM15.4688 21.2767L20.25 17.7142H12L15.4688 21.2767ZM2.71876 15.4642L6.28126 20.2455V11.9955L2.71876 15.4642ZM16.1949 10.4074L13.5909 7.80767H10.4091L7.80516 10.4074V13.5836L10.4124 16.1861C10.433 16.1861 10.4536 16.1833 10.4747 16.1833H13.5909L16.1949 13.5836V10.4074ZM7.78032 15.7497L7.78126 21.7455H13.7813L7.78032 15.7497Z" fill="#666666"/>
</svg>
