<svg width="24" height="24" viewBox="0 0 24 24" fill="none" xmlns="http://www.w3.org/2000/svg">
<path d="M7.12505 2.24548H2.62505C2.41794 2.24548 2.25005 2.41338 2.25005 2.62048V7.12048C2.25005 7.32759 2.41794 7.49548 2.62505 7.49548H7.12505C7.33216 7.49548 7.50005 7.32759 7.50005 7.12048V2.62048C7.50005 2.41338 7.33216 2.24548 7.12505 2.24548Z" fill="#666666"/>
<path d="M14.25 2.24548H9.74997C9.54286 2.24548 9.37497 2.41338 9.37497 2.62048V7.12048C9.37497 7.32759 9.54286 7.49548 9.74997 7.49548H14.25C14.4571 7.49548 14.625 7.32759 14.625 7.12048V2.62048C14.625 2.41338 14.4571 2.24548 14.25 2.24548Z" fill="#666666"/>
<path d="M21.375 2.24548H16.875C16.6679 2.24548 16.5 2.41338 16.5 2.62048V7.12048C16.5 7.32759 16.6679 7.49548 16.875 7.49548H21.375C21.5821 7.49548 21.75 7.32759 21.75 7.12048V2.62048C21.75 2.41338 21.5821 2.24548 21.375 2.24548Z" fill="#666666"/>
<path d="M7.12505 9.37134H2.62505C2.41794 9.37134 2.25005 9.53923 2.25005 9.74634V14.2463C2.25005 14.4534 2.41794 14.6213 2.62505 14.6213H7.12505C7.33216 14.6213 7.50005 14.4534 7.50005 14.2463V9.74634C7.50005 9.53923 7.33216 9.37134 7.12505 9.37134Z" fill="#666666"/>
<path d="M14.25 9.37134H9.74997C9.54286 9.37134 9.37497 9.53923 9.37497 9.74634V14.2463C9.37497 14.4534 9.54286 14.6213 9.74997 14.6213H14.25C14.4571 14.6213 14.625 14.4534 14.625 14.2463V9.74634C14.625 9.53923 14.4571 9.37134 14.25 9.37134Z" fill="#666666"/>
<path d="M21.375 9.37134H16.875C16.6679 9.37134 16.5 9.53923 16.5 9.74634V14.2463C16.5 14.4534 16.6679 14.6213 16.875 14.6213H21.375C21.5821 14.6213 21.75 14.4534 21.75 14.2463V9.74634C21.75 9.53923 21.5821 9.37134 21.375 9.37134Z" fill="#666666"/>
<path d="M7.12505 16.4973H2.62505C2.41794 16.4973 2.25005 16.6652 2.25005 16.8723V21.3723C2.25005 21.5794 2.41794 21.7473 2.62505 21.7473H7.12505C7.33216 21.7473 7.50005 21.5794 7.50005 21.3723V16.8723C7.50005 16.6652 7.33216 16.4973 7.12505 16.4973Z" fill="#666666"/>
<path d="M14.25 16.4973H9.74997C9.54286 16.4973 9.37497 16.6652 9.37497 16.8723V21.3723C9.37497 21.5794 9.54286 21.7473 9.74997 21.7473H14.25C14.4571 21.7473 14.625 21.5794 14.625 21.3723V16.8723C14.625 16.6652 14.4571 16.4973 14.25 16.4973Z" fill="#666666"/>
<path d="M21.375 16.4973H16.875C16.6679 16.4973 16.5 16.6652 16.5 16.8723V21.3723C16.5 21.5794 16.6679 21.7473 16.875 21.7473H21.375C21.5821 21.7473 21.75 21.5794 21.75 21.3723V16.8723C21.75 16.6652 21.5821 16.4973 21.375 16.4973Z" fill="#666666"/>
</svg>
