<svg width="24" height="24" viewBox="0 0 24 24" fill="none" xmlns="http://www.w3.org/2000/svg">
<path d="M6.75002 4.87317C6.75002 3.83764 5.91055 2.99817 4.87502 2.99817C3.83949 2.99817 3.00002 3.83764 3.00002 4.87317C3.00002 5.9087 3.83949 6.74817 4.87502 6.74817C5.91055 6.74817 6.75002 5.9087 6.75002 4.87317Z" stroke="#666666" stroke-width="1.5" stroke-miterlimit="10"/>
<path d="M13.8749 4.87317C13.8749 3.83764 13.0355 2.99817 11.9999 2.99817C10.9644 2.99817 10.1249 3.83764 10.1249 4.87317C10.1249 5.9087 10.9644 6.74817 11.9999 6.74817C13.0355 6.74817 13.8749 5.9087 13.8749 4.87317Z" stroke="#666666" stroke-width="1.5" stroke-miterlimit="10"/>
<path d="M21 4.87317C21 3.83764 20.1605 2.99817 19.125 2.99817C18.0895 2.99817 17.25 3.83764 17.25 4.87317C17.25 5.9087 18.0895 6.74817 19.125 6.74817C20.1605 6.74817 21 5.9087 21 4.87317Z" stroke="#666666" stroke-width="1.5" stroke-miterlimit="10"/>
<path d="M6.75002 11.9991C6.75002 10.9636 5.91055 10.1241 4.87502 10.1241C3.83949 10.1241 3.00002 10.9636 3.00002 11.9991C3.00002 13.0347 3.83949 13.8741 4.87502 13.8741C5.91055 13.8741 6.75002 13.0347 6.75002 11.9991Z" stroke="#666666" stroke-width="1.5" stroke-miterlimit="10"/>
<path d="M13.8749 11.9991C13.8749 10.9636 13.0355 10.1241 11.9999 10.1241C10.9644 10.1241 10.1249 10.9636 10.1249 11.9991C10.1249 13.0347 10.9644 13.8741 11.9999 13.8741C13.0355 13.8741 13.8749 13.0347 13.8749 11.9991Z" stroke="#666666" stroke-width="1.5" stroke-miterlimit="10"/>
<path d="M21 11.9991C21 10.9636 20.1605 10.1241 19.125 10.1241C18.0895 10.1241 17.25 10.9636 17.25 11.9991C17.25 13.0347 18.0895 13.8741 19.125 13.8741C20.1605 13.8741 21 13.0347 21 11.9991Z" stroke="#666666" stroke-width="1.5" stroke-miterlimit="10"/>
<path d="M6.75002 19.125C6.75002 18.0895 5.91055 17.25 4.87502 17.25C3.83949 17.25 3.00002 18.0895 3.00002 19.125C3.00002 20.1605 3.83949 21 4.87502 21C5.91055 21 6.75002 20.1605 6.75002 19.125Z" stroke="#666666" stroke-width="1.5" stroke-miterlimit="10"/>
<path d="M13.8749 19.125C13.8749 18.0895 13.0355 17.25 11.9999 17.25C10.9644 17.25 10.1249 18.0895 10.1249 19.125C10.1249 20.1605 10.9644 21 11.9999 21C13.0355 21 13.8749 20.1605 13.8749 19.125Z" stroke="#666666" stroke-width="1.5" stroke-miterlimit="10"/>
<path d="M21 19.125C21 18.0895 20.1605 17.25 19.125 17.25C18.0895 17.25 17.25 18.0895 17.25 19.125C17.25 20.1605 18.0895 21 19.125 21C20.1605 21 21 20.1605 21 19.125Z" stroke="#666666" stroke-width="1.5" stroke-miterlimit="10"/>
</svg>
