<svg width="24" height="24" viewBox="0 0 24 24" fill="none" xmlns="http://www.w3.org/2000/svg">
<path d="M4.87511 7.49548C4.35594 7.49548 3.84842 7.34153 3.41674 7.05309C2.98506 6.76465 2.64861 6.35468 2.44993 5.87503C2.25125 5.39537 2.19927 4.86757 2.30055 4.35837C2.40184 3.84917 2.65185 3.38144 3.01896 3.01433C3.38607 2.64722 3.8538 2.39721 4.363 2.29592C4.8722 2.19464 5.4 2.24662 5.87966 2.4453C6.35932 2.64398 6.76928 2.98043 7.05772 3.41211C7.34616 3.84379 7.50011 4.35131 7.50011 4.87048C7.49937 5.56645 7.22257 6.2337 6.73045 6.72582C6.23833 7.21794 5.57108 7.49474 4.87511 7.49548ZM12.0001 7.49548C11.4809 7.49548 10.9734 7.34153 10.5417 7.05309C10.1101 6.76465 9.77361 6.35468 9.57493 5.87503C9.37625 5.39537 9.32427 4.86757 9.42555 4.35837C9.52684 3.84917 9.77685 3.38144 10.144 3.01433C10.5111 2.64722 10.9788 2.39721 11.488 2.29592C11.9972 2.19464 12.525 2.24662 13.0047 2.4453C13.4843 2.64398 13.8943 2.98043 14.1827 3.41211C14.4712 3.84379 14.6251 4.35131 14.6251 4.87048C14.6244 5.56645 14.3476 6.2337 13.8554 6.72582C13.3633 7.21794 12.6961 7.49474 12.0001 7.49548ZM19.1251 7.49548C18.6059 7.49548 18.0984 7.34153 17.6667 7.05309C17.2351 6.76465 16.8986 6.35468 16.6999 5.87503C16.5013 5.39537 16.4493 4.86757 16.5506 4.35837C16.6518 3.84917 16.9018 3.38144 17.269 3.01433C17.6361 2.64722 18.1038 2.39721 18.613 2.29592C19.1222 2.19464 19.65 2.24662 20.1297 2.4453C20.6093 2.64398 21.0193 2.98043 21.3077 3.41211C21.5962 3.84379 21.7501 4.35131 21.7501 4.87048C21.7494 5.56645 21.4726 6.2337 20.9804 6.72582C20.4883 7.21794 19.8211 7.49474 19.1251 7.49548ZM4.87511 14.6205C4.35594 14.6205 3.84842 14.4665 3.41674 14.1781C2.98506 13.8897 2.64861 13.4797 2.44993 13C2.25125 12.5204 2.19927 11.9926 2.30055 11.4834C2.40184 10.9742 2.65185 10.5064 3.01896 10.1393C3.38607 9.77222 3.8538 9.52221 4.363 9.42092C4.8722 9.31964 5.4 9.37162 5.87966 9.5703C6.35932 9.76898 6.76928 10.1054 7.05772 10.5371C7.34616 10.9688 7.50011 11.4763 7.50011 11.9955C7.49937 12.6914 7.22257 13.3587 6.73045 13.8508C6.23833 14.3429 5.57108 14.6197 4.87511 14.6205ZM12.0001 14.6205C11.4809 14.6205 10.9734 14.4665 10.5417 14.1781C10.1101 13.8897 9.77361 13.4797 9.57493 13C9.37625 12.5204 9.32427 11.9926 9.42555 11.4834C9.52684 10.9742 9.77685 10.5064 10.144 10.1393C10.5111 9.77222 10.9788 9.52221 11.488 9.42092C11.9972 9.31964 12.525 9.37162 13.0047 9.5703C13.4843 9.76898 13.8943 10.1054 14.1827 10.5371C14.4712 10.9688 14.6251 11.4763 14.6251 11.9955C14.6244 12.6914 14.3476 13.3587 13.8554 13.8508C13.3633 14.3429 12.6961 14.6197 12.0001 14.6205ZM19.1251 14.6205C18.6059 14.6205 18.0984 14.4665 17.6667 14.1781C17.2351 13.8897 16.8986 13.4797 16.6999 13C16.5013 12.5204 16.4493 11.9926 16.5506 11.4834C16.6518 10.9742 16.9018 10.5064 17.269 10.1393C17.6361 9.77222 18.1038 9.52221 18.613 9.42092C19.1222 9.31964 19.65 9.37162 20.1297 9.5703C20.6093 9.76898 21.0193 10.1054 21.3077 10.5371C21.5962 10.9688 21.7501 11.4763 21.7501 11.9955C21.7494 12.6914 21.4726 13.3587 20.9804 13.8508C20.4883 14.3429 19.8211 14.6197 19.1251 14.6205ZM4.87511 21.7455C4.35594 21.7455 3.84842 21.5915 3.41674 21.3031C2.98506 21.0147 2.64861 20.6047 2.44993 20.125C2.25125 19.6454 2.19927 19.1176 2.30055 18.6084C2.40184 18.0992 2.65185 17.6314 3.01896 17.2643C3.38607 16.8972 3.8538 16.6472 4.363 16.5459C4.8722 16.4446 5.4 16.4966 5.87966 16.6953C6.35932 16.894 6.76928 17.2304 7.05772 17.6621C7.34616 18.0938 7.50011 18.6013 7.50011 19.1205C7.49937 19.8165 7.22257 20.4837 6.73045 20.9758C6.23833 21.4679 5.57108 21.7447 4.87511 21.7455ZM12.0001 21.7455C11.4809 21.7455 10.9734 21.5915 10.5417 21.3031C10.1101 21.0147 9.77361 20.6047 9.57493 20.125C9.37625 19.6454 9.32427 19.1176 9.42555 18.6084C9.52684 18.0992 9.77685 17.6314 10.144 17.2643C10.5111 16.8972 10.9788 16.6472 11.488 16.5459C11.9972 16.4446 12.525 16.4966 13.0047 16.6953C13.4843 16.894 13.8943 17.2304 14.1827 17.6621C14.4712 18.0938 14.6251 18.6013 14.6251 19.1205C14.6244 19.8165 14.3476 20.4837 13.8554 20.9758C13.3633 21.4679 12.6961 21.7447 12.0001 21.7455ZM19.1251 21.7455C18.6059 21.7455 18.0984 21.5915 17.6667 21.3031C17.2351 21.0147 16.8986 20.6047 16.6999 20.125C16.5013 19.6454 16.4493 19.1176 16.5506 18.6084C16.6518 18.0992 16.9018 17.6314 17.269 17.2643C17.6361 16.8972 18.1038 16.6472 18.613 16.5459C19.1222 16.4446 19.65 16.4966 20.1297 16.6953C20.6093 16.894 21.0193 17.2304 21.3077 17.6621C21.5962 18.0938 21.7501 18.6013 21.7501 19.1205C21.7494 19.8165 21.4726 20.4837 20.9804 20.9758C20.4883 21.4679 19.8211 21.7447 19.1251 21.7455Z" fill="#666666"/>
</svg>
