<svg width="24" height="24" viewBox="0 0 24 24" fill="none" xmlns="http://www.w3.org/2000/svg">
<path d="M3.00005 7.68384V19.1213C3.00005 19.8175 3.27661 20.4852 3.76889 20.9775C4.26117 21.4698 4.92885 21.7463 5.62505 21.7463H18.375C19.0712 21.7463 19.7389 21.4698 20.2312 20.9775C20.7235 20.4852 21 19.8175 21 19.1213V7.68384C21 7.63411 20.9803 7.58642 20.9451 7.55126C20.91 7.51609 20.8623 7.49634 20.8125 7.49634H3.18755C3.13782 7.49634 3.09013 7.51609 3.05496 7.55126C3.0198 7.58642 3.00005 7.63411 3.00005 7.68384ZM15.5157 14.7915L12.5302 17.7765C12.3896 17.917 12.1989 17.996 12 17.996C11.8012 17.996 11.6105 17.917 11.4699 17.7765L8.48442 14.7915C8.19895 14.506 8.1727 14.0415 8.44458 13.7424C8.51282 13.6673 8.59563 13.6067 8.68797 13.5645C8.78031 13.5223 8.88026 13.4992 8.98177 13.4968C9.08328 13.4943 9.18422 13.5125 9.2785 13.5502C9.37277 13.5879 9.4584 13.6444 9.5302 13.7162L11.25 15.4356V10.5174C11.25 10.1138 11.5604 9.76743 11.964 9.74728C12.0654 9.74239 12.1667 9.75814 12.2618 9.79358C12.357 9.82902 12.4439 9.88341 12.5174 9.95344C12.5909 10.0235 12.6494 10.1077 12.6894 10.201C12.7294 10.2943 12.75 10.3948 12.75 10.4963V15.4356L14.4699 13.7162C14.5417 13.6444 14.6273 13.5879 14.7216 13.5502C14.8159 13.5125 14.9168 13.4943 15.0183 13.4968C15.1198 13.4992 15.2198 13.5223 15.3121 13.5645C15.4045 13.6067 15.4873 13.6673 15.5555 13.7424C15.8274 14.041 15.8011 14.506 15.5157 14.7915Z" fill="#666666"/>
<path d="M21 2.24548H2.99999C2.17157 2.24548 1.49999 2.91706 1.49999 3.74548V4.49548C1.49999 5.32391 2.17157 5.99548 2.99999 5.99548H21C21.8284 5.99548 22.5 5.32391 22.5 4.49548V3.74548C22.5 2.91706 21.8284 2.24548 21 2.24548Z" fill="#666666"/>
</svg>
