<svg width="24" height="24" viewBox="0 0 24 24" fill="none" xmlns="http://www.w3.org/2000/svg">
<path d="M21.9374 2.24548H2.06243C1.75177 2.24548 1.49993 2.49732 1.49993 2.80798V5.43298C1.49993 5.74364 1.75177 5.99548 2.06243 5.99548H21.9374C22.2481 5.99548 22.4999 5.74364 22.4999 5.43298V2.80798C22.4999 2.49732 22.2481 2.24548 21.9374 2.24548Z" fill="#666666"/>
<path d="M2.99998 7.49634V20.6213C2.99998 20.9197 3.11851 21.2059 3.32949 21.4168C3.54047 21.6278 3.82662 21.7463 4.12498 21.7463H19.875C20.1734 21.7463 20.4595 21.6278 20.6705 21.4168C20.8815 21.2059 21 20.9197 21 20.6213V7.49634H2.99998ZM12 18.3071L7.93686 14.2463L8.99999 13.1832L11.25 15.4356V9.74634H12.75V15.4356L15.0033 13.1823L16.0631 14.2435L12 18.3071Z" fill="#666666"/>
</svg>
