<svg width="24" height="24" viewBox="0 0 24 24" fill="none" xmlns="http://www.w3.org/2000/svg">
<path d="M3.75009 7.12231V19.1223C3.75158 19.6191 3.9496 20.0952 4.30091 20.4465C4.65222 20.7978 5.12827 20.9958 5.62509 20.9973H18.3751C18.8719 20.9958 19.348 20.7978 19.6993 20.4465C20.0506 20.0952 20.2486 19.6191 20.2501 19.1223V7.12231" stroke="#666666" stroke-width="1.5" stroke-linecap="round" stroke-linejoin="round"/>
<path d="M20.4375 2.99817H3.56253C2.83766 2.99817 2.25003 3.5858 2.25003 4.31067V5.43567C2.25003 6.16054 2.83766 6.74817 3.56253 6.74817H20.4375C21.1624 6.74817 21.75 6.16054 21.75 5.43567V4.31067C21.75 3.5858 21.1624 2.99817 20.4375 2.99817Z" stroke="#666666" stroke-width="1.5" stroke-linejoin="round"/>
<path d="M15 14.2482L12 17.2482L9.00001 14.2482M12 16.2118V10.4982" stroke="#666666" stroke-width="1.5" stroke-linecap="round" stroke-linejoin="round"/>
</svg>
