<svg width="24" height="24" viewBox="0 0 24 24" fill="none" xmlns="http://www.w3.org/2000/svg">
<path d="M11.4886 15.3587V13.6094C14.1637 13.6094 15.45 14.2408 16.5782 15.4225C16.8314 15.6873 17.2814 15.4844 17.2481 15.1211C16.9926 12.2406 15.6478 9.63249 11.4886 9.63249V7.88311C11.4883 7.80696 11.4657 7.73256 11.4236 7.6691C11.3815 7.60563 11.3218 7.55587 11.2517 7.52596C11.1817 7.49606 11.1044 7.48731 11.0295 7.50079C10.9545 7.51428 10.8852 7.54942 10.83 7.60186L6.8709 11.3397C6.83273 11.3756 6.80232 11.419 6.78153 11.4671C6.76074 11.5152 6.75002 11.5671 6.75002 11.6195C6.75002 11.6719 6.76074 11.7238 6.78153 11.7719C6.80232 11.8201 6.83273 11.8634 6.8709 11.8994L10.8281 15.6386C10.8831 15.6916 10.9525 15.7272 11.0277 15.7411C11.1028 15.755 11.1804 15.7465 11.2507 15.7167C11.3211 15.6869 11.3811 15.6371 11.4234 15.5734C11.4657 15.5098 11.4883 15.4351 11.4886 15.3587Z" fill="#666666"/>
<path d="M12 2.99646C7.03127 2.99646 3.00002 7.02771 3.00002 11.9965C3.00002 16.9652 7.03127 20.9965 12 20.9965C16.9688 20.9965 21 16.9652 21 11.9965C21 7.02771 16.9688 2.99646 12 2.99646Z" stroke="#666666" stroke-width="1.5" stroke-miterlimit="10"/>
</svg>
