<svg width="24" height="24" viewBox="0 0 24 24" fill="none" xmlns="http://www.w3.org/2000/svg">
<path d="M21.75 11.9973C21.75 6.61278 17.3845 2.24731 12 2.24731C6.61546 2.24731 2.24999 6.61278 2.24999 11.9973C2.24999 17.3818 6.61546 21.7473 12 21.7473C17.3845 21.7473 21.75 17.3818 21.75 11.9973ZM11.782 16.2798C11.7121 16.2104 11.6565 16.128 11.6184 16.0371C11.5804 15.9463 11.5606 15.8488 11.5602 15.7503C11.5598 15.6518 11.5788 15.5542 11.6161 15.463C11.6535 15.3719 11.7084 15.289 11.7778 15.219L14.2303 12.7473H7.96874C7.76983 12.7473 7.57906 12.6683 7.43841 12.5276C7.29776 12.387 7.21874 12.1962 7.21874 11.9973C7.21874 11.7984 7.29776 11.6076 7.43841 11.467C7.57906 11.3263 7.76983 11.2473 7.96874 11.2473H14.2303L11.7778 8.7756C11.7084 8.70561 11.6535 8.62264 11.6162 8.53142C11.5789 8.44021 11.5599 8.34255 11.5604 8.244C11.5608 8.14545 11.5806 8.04796 11.6187 7.95708C11.6569 7.8662 11.7125 7.78372 11.7825 7.71435C11.8525 7.64497 11.9354 7.59006 12.0267 7.55275C12.1179 7.51544 12.2155 7.49646 12.3141 7.4969C12.5131 7.49778 12.7036 7.57768 12.8437 7.71903L16.5651 11.469C16.7045 11.6095 16.7828 11.7994 16.7828 11.9973C16.7828 12.1952 16.7045 12.3851 16.5651 12.5256L12.8437 16.2756C12.7744 16.3457 12.6918 16.4014 12.6009 16.4395C12.5099 16.4777 12.4124 16.4975 12.3138 16.4979C12.2151 16.4983 12.1174 16.4792 12.0262 16.4418C11.9349 16.4044 11.852 16.3493 11.782 16.2798Z" fill="#666666"/>
</svg>
