<svg width="24" height="24" viewBox="0 0 24 24" fill="none" xmlns="http://www.w3.org/2000/svg">
<path d="M2.25008 11.9973C2.25008 17.3818 6.61555 21.7473 12.0001 21.7473C17.3846 21.7473 21.7501 17.3818 21.7501 11.9973C21.7501 6.61278 17.3846 2.24731 12.0001 2.24731C6.61555 2.24731 2.25008 6.61278 2.25008 11.9973ZM6.75008 15.1225C7.00555 12.242 8.35039 9.63388 12.5096 9.63388V7.8845C12.5103 7.80881 12.5331 7.73497 12.575 7.67197C12.617 7.60898 12.6764 7.55956 12.746 7.52974C12.8155 7.49993 12.8923 7.491 12.9668 7.50405C13.0414 7.51711 13.1106 7.55157 13.1659 7.60325L17.1291 11.3411C17.1673 11.377 17.1977 11.4204 17.2185 11.4685C17.2393 11.5166 17.25 11.5685 17.25 11.6209C17.25 11.6733 17.2393 11.7252 17.2185 11.7733C17.1977 11.8215 17.1673 11.8648 17.1291 11.9008L13.172 15.64C13.1166 15.6917 13.0475 15.7261 12.9729 15.7392C12.8984 15.7522 12.8216 15.7433 12.7521 15.7135C12.6825 15.6837 12.6231 15.6342 12.5811 15.5712C12.5392 15.5083 12.5164 15.4344 12.5157 15.3587V13.6108C9.84055 13.6108 8.5543 14.2422 7.42601 15.4239C7.16867 15.6887 6.71961 15.4858 6.75008 15.1225Z" fill="#666666"/>
</svg>
