<svg width="24" height="24" viewBox="0 0 24 24" fill="none" xmlns="http://www.w3.org/2000/svg">
<path d="M12 21.7463C17.3845 21.7463 21.75 17.3809 21.75 11.9963C21.75 6.61181 17.3845 2.24634 12 2.24634C6.61542 2.24634 2.24995 6.61181 2.24995 11.9963C2.24995 17.3809 6.61542 21.7463 12 21.7463ZM7.71745 11.7784C7.78682 11.7084 7.86929 11.6528 7.96015 11.6148C8.051 11.5767 8.14847 11.5569 8.24697 11.5565C8.34548 11.5561 8.4431 11.5752 8.53425 11.6125C8.62541 11.6498 8.70831 11.7048 8.77824 11.7742L11.25 14.2267V7.96509C11.25 7.76618 11.329 7.57541 11.4696 7.43476C11.6103 7.29411 11.801 7.21509 12 7.21509C12.1989 7.21509 12.3896 7.29411 12.5303 7.43476C12.6709 7.57541 12.75 7.76618 12.75 7.96509V14.2267L15.2217 11.7742C15.363 11.634 15.5542 11.5558 15.7533 11.5567C15.9523 11.5576 16.1428 11.6375 16.2829 11.7788C16.423 11.9202 16.5013 12.1114 16.5004 12.3104C16.4995 12.5095 16.4196 12.7 16.2782 12.8401L12.5282 16.5615C12.3878 16.7009 12.1979 16.7791 12 16.7791C11.802 16.7791 11.6122 16.7009 11.4717 16.5615L7.72167 12.8401C7.65159 12.7707 7.59589 12.6882 7.55774 12.5972C7.51959 12.5063 7.49975 12.4087 7.49936 12.3101C7.49897 12.2115 7.51803 12.1138 7.55545 12.0225C7.59288 11.9313 7.64793 11.8483 7.71745 11.7784Z" fill="#666666"/>
</svg>
