<svg width="24" height="24" viewBox="0 0 24 24" fill="none" xmlns="http://www.w3.org/2000/svg">
<path d="M21.0001 20.6227C20.8862 20.6227 20.7737 20.5968 20.6713 20.5468C20.5689 20.4969 20.4792 20.4242 20.4091 20.3344C19.3375 18.9624 18.3433 17.9035 16.9722 17.1938C15.7033 16.539 14.1095 16.1972 12.0001 16.1335V19.8727C11.9997 20.0191 11.9564 20.1622 11.8756 20.2843C11.7949 20.4063 11.6801 20.5021 11.5456 20.5598C11.411 20.6175 11.2625 20.6345 11.1184 20.6088C10.9743 20.583 10.8408 20.5157 10.7345 20.4151L2.48452 12.5401C2.4112 12.47 2.35285 12.3859 2.31298 12.2926C2.27311 12.1994 2.25256 12.0991 2.25256 11.9977C2.25256 11.8963 2.27311 11.796 2.31298 11.7028C2.35285 11.6096 2.4112 11.5254 2.48452 11.4554L10.7345 3.58037C10.8408 3.47972 10.9743 3.41238 11.1184 3.38667C11.2625 3.36095 11.411 3.37797 11.5456 3.43563C11.6801 3.49329 11.7949 3.58907 11.8756 3.71116C11.9564 3.83325 11.9997 3.97632 12.0001 4.12271V7.88959C15.4755 8.04943 18.0648 9.33849 19.7041 11.7272C21.062 13.7058 21.7501 16.4461 21.7501 19.8727C21.7501 20.0716 21.6711 20.2624 21.5305 20.403C21.3898 20.5437 21.1991 20.6227 21.0001 20.6227Z" fill="#666666"/>
</svg>
