<svg width="24" height="24" viewBox="0 0 24 24" fill="none" xmlns="http://www.w3.org/2000/svg">
<path d="M12.0001 2.24817C6.61558 2.24817 2.25011 6.61364 2.25011 11.9982C2.25011 17.3827 6.61558 21.7482 12.0001 21.7482C17.3846 21.7482 21.7501 17.3827 21.7501 11.9982C21.7501 6.61364 17.3846 2.24817 12.0001 2.24817ZM16.5784 15.4247C15.4501 14.243 14.1639 13.6116 11.4887 13.6116V15.361C11.4884 15.4371 11.4658 15.5115 11.4237 15.575C11.3817 15.6385 11.3219 15.6882 11.2519 15.7181C11.1818 15.748 11.1046 15.7568 11.0296 15.7433C10.9547 15.7298 10.8853 15.6947 10.8301 15.6422L6.87105 11.9044C6.83289 11.8685 6.80247 11.8251 6.78169 11.777C6.7609 11.7289 6.75018 11.677 6.75018 11.6246C6.75018 11.5722 6.7609 11.5203 6.78169 11.4722C6.80247 11.424 6.83289 11.3807 6.87105 11.3447L10.8282 7.60551C10.8835 7.55307 10.9528 7.51793 11.0278 7.50444C11.1027 7.49096 11.18 7.49971 11.25 7.52961C11.32 7.55952 11.3798 7.60928 11.4219 7.67274C11.464 7.73621 11.4865 7.81061 11.4868 7.88676V9.63614C15.6461 9.63614 16.9909 12.2443 17.2464 15.1247C17.2806 15.4866 16.8315 15.6896 16.5784 15.4247Z" fill="#666666"/>
</svg>
