<svg width="24" height="24" viewBox="0 0 24 24" fill="none" xmlns="http://www.w3.org/2000/svg">
<path d="M2.25001 11.9963C2.25001 17.3809 6.61548 21.7463 12 21.7463C17.3845 21.7463 21.75 17.3809 21.75 11.9963C21.75 6.61181 17.3845 2.24634 12 2.24634C6.61548 2.24634 2.25001 6.61181 2.25001 11.9963ZM12.218 7.71384C12.2879 7.78321 12.3435 7.86567 12.3816 7.95653C12.4196 8.04739 12.4394 8.14485 12.4398 8.24335C12.4402 8.34186 12.4212 8.43948 12.3839 8.53063C12.3465 8.62179 12.2916 8.7047 12.2222 8.77462L9.7697 11.2463H16.0313C16.2302 11.2463 16.4209 11.3254 16.5616 11.466C16.7022 11.6067 16.7813 11.7974 16.7813 11.9963C16.7813 12.1953 16.7022 12.386 16.5616 12.5267C16.4209 12.6673 16.2302 12.7463 16.0313 12.7463H9.7697L12.2222 15.2181C12.2916 15.288 12.3465 15.371 12.3838 15.4622C12.4211 15.5534 12.4401 15.6511 12.4396 15.7497C12.4392 15.8482 12.4194 15.9457 12.3813 16.0366C12.3431 16.1275 12.2875 16.2099 12.2175 16.2793C12.1475 16.3487 12.0645 16.4036 11.9733 16.4409C11.8821 16.4782 11.7845 16.4972 11.6859 16.4968C11.5874 16.4963 11.4899 16.4765 11.399 16.4384C11.3081 16.4003 11.2256 16.3446 11.1563 16.2746L7.43485 12.5246C7.29545 12.3841 7.21722 12.1942 7.21722 11.9963C7.21722 11.7984 7.29545 11.6085 7.43485 11.4681L11.1563 7.71806C11.2256 7.64798 11.3082 7.59227 11.3991 7.55412C11.4901 7.51597 11.5876 7.49614 11.6862 7.49575C11.7849 7.49535 11.8826 7.51441 11.9738 7.55184C12.0651 7.58926 12.148 7.64431 12.218 7.71384Z" fill="#666666"/>
</svg>
