<svg width="24" height="24" viewBox="0 0 24 24" fill="none" xmlns="http://www.w3.org/2000/svg">
<path d="M12.5114 15.3601V13.6107C9.83625 13.6107 8.55 14.2421 7.42172 15.4238C7.16859 15.6887 6.71859 15.4857 6.75187 15.1224C7.00734 12.242 8.35219 9.63384 12.5114 9.63384V7.88446C12.5121 7.80877 12.5349 7.73493 12.5768 7.67193C12.6188 7.60894 12.6782 7.55952 12.7478 7.5297C12.8173 7.49989 12.8941 7.49096 12.9686 7.50401C13.0432 7.51706 13.1124 7.55153 13.1677 7.60321L17.1291 11.341C17.1672 11.377 17.1976 11.4203 17.2184 11.4685C17.2392 11.5166 17.2499 11.5684 17.2499 11.6209C17.2499 11.6733 17.2392 11.7252 17.2184 11.7733C17.1976 11.8214 17.1672 11.8648 17.1291 11.9007L13.1719 15.6399C13.1168 15.6929 13.0474 15.7286 12.9723 15.7425C12.8972 15.7563 12.8196 15.7479 12.7493 15.7181C12.6789 15.6882 12.6189 15.6384 12.5766 15.5748C12.5343 15.5112 12.5116 15.4365 12.5114 15.3601Z" fill="#666666"/>
<path d="M2.99998 11.9955C2.99998 16.9642 7.03124 20.9955 12 20.9955C16.9687 20.9955 21 16.9642 21 11.9955C21 7.02673 16.9687 2.99548 12 2.99548C7.03124 2.99548 2.99998 7.02673 2.99998 11.9955Z" stroke="#666666" stroke-width="1.5" stroke-miterlimit="10"/>
</svg>
