<svg width="24" height="24" viewBox="0 0 24 24" fill="none" xmlns="http://www.w3.org/2000/svg">
<path d="M2.75585 20.5796C2.6082 20.5288 2.48011 20.4331 2.38944 20.306C2.29877 20.1789 2.25005 20.0266 2.25007 19.8704C2.25007 16.4439 2.93819 13.7035 4.29616 11.725C5.93679 9.33433 8.52476 8.04714 12.0001 7.88729V4.12042C12.0001 3.97356 12.0432 3.82994 12.1241 3.70736C12.205 3.58479 12.3201 3.48867 12.4551 3.43091C12.5901 3.37316 12.7392 3.35632 12.8837 3.38248C13.0282 3.40864 13.1618 3.47665 13.268 3.57807L21.518 11.4531C21.5914 11.5231 21.6497 11.6073 21.6896 11.7005C21.7294 11.7937 21.75 11.894 21.75 11.9954C21.75 12.0968 21.7294 12.1971 21.6896 12.2904C21.6497 12.3836 21.5914 12.4677 21.518 12.5378L13.268 20.4128C13.1618 20.5142 13.0282 20.5822 12.8837 20.6084C12.7392 20.6345 12.5901 20.6177 12.4551 20.5599C12.3201 20.5022 12.205 20.406 12.1241 20.2835C12.0432 20.1609 12.0001 20.0173 12.0001 19.8704V16.1312C9.89069 16.195 8.29694 16.5367 7.02804 17.1925C5.65694 17.9012 4.66273 18.9601 3.59116 20.3331C3.49503 20.4562 3.36287 20.5462 3.21313 20.5906C3.06338 20.6349 2.90352 20.6314 2.75585 20.5806V20.5796Z" fill="#666666"/>
</svg>
