<svg width="24" height="24" viewBox="0 0 24 24" fill="none" xmlns="http://www.w3.org/2000/svg">
<path d="M12 2.24915C6.61548 2.24915 2.25001 6.61461 2.25001 11.9991C2.25001 17.3837 6.61548 21.7491 12 21.7491C17.3845 21.7491 21.75 17.3837 21.75 11.9991C21.75 6.61461 17.3845 2.24915 12 2.24915ZM16.2825 12.2171C16.2131 12.2871 16.1307 12.3426 16.0398 12.3807C15.949 12.4188 15.8515 12.4386 15.753 12.439C15.6545 12.4393 15.5569 12.4203 15.4657 12.383C15.3746 12.3457 15.2917 12.2907 15.2217 12.2213L12.75 9.76883V16.0304C12.75 16.2293 12.671 16.4201 12.5303 16.5607C12.3897 16.7014 12.1989 16.7804 12 16.7804C11.8011 16.7804 11.6103 16.7014 11.4697 16.5607C11.329 16.4201 11.25 16.2293 11.25 16.0304V9.76883L8.77829 12.2213C8.7083 12.2907 8.62533 12.3456 8.53412 12.3829C8.44291 12.4202 8.34524 12.4392 8.24669 12.4388C8.14815 12.4383 8.05065 12.4185 7.95977 12.3804C7.8689 12.3423 7.78641 12.2866 7.71704 12.2166C7.64766 12.1467 7.59275 12.0637 7.55544 11.9725C7.51813 11.8813 7.49916 11.7836 7.49959 11.6851C7.50003 11.5865 7.51987 11.489 7.55798 11.3981C7.5961 11.3073 7.65174 11.2248 7.72173 11.1554L11.4717 7.43399C11.6122 7.29459 11.8021 7.21636 12 7.21636C12.1979 7.21636 12.3878 7.29459 12.5283 7.43399L16.2783 11.1554C16.3484 11.2248 16.4041 11.3073 16.4422 11.3982C16.4804 11.4892 16.5002 11.5868 16.5006 11.6854C16.501 11.784 16.4819 11.8817 16.4445 11.973C16.4071 12.0642 16.352 12.1472 16.2825 12.2171Z" fill="#666666"/>
</svg>
