<svg width="24" height="24" viewBox="0 0 24 24" fill="none" xmlns="http://www.w3.org/2000/svg">
<path d="M21.0038 12.0018C21.0038 7.03308 16.9726 3.00183 12.0038 3.00183C7.03505 3.00183 3.0038 7.03308 3.0038 12.0018C3.0038 16.9706 7.03505 21.0018 12.0038 21.0018C16.9726 21.0018 21.0038 16.972 21.0038 12.0018Z" stroke="#666666" stroke-width="1.5" stroke-miterlimit="10"/>
<path d="M14.1005 16.7913C13.1241 17.1392 12.5044 17.2409 11.5603 17.2409C8.69296 17.2409 6.57327 14.8938 6.82593 11.9984C7.07859 9.10291 9.60937 6.75635 12.4753 6.75635C15.7059 6.75635 17.4811 8.8915 17.2317 11.7509C17.0442 13.8856 15.6942 14.5006 14.9869 14.3759C14.3212 14.2563 13.7719 13.6484 13.8736 12.4845L14.137 10.391C13.7817 9.96119 12.8194 9.54729 11.7966 9.70947C10.8642 9.85432 9.79687 10.684 9.68249 11.9965C9.56812 13.309 10.3617 14.3796 11.5542 14.3796C12.7467 14.3796 13.7977 13.5176 13.9303 11.9965" stroke="#666666" stroke-width="1.3125" stroke-miterlimit="10" stroke-linecap="round"/>
</svg>
