<svg width="24" height="24" viewBox="0 0 24 24" fill="none" xmlns="http://www.w3.org/2000/svg">
<path d="M11.9747 2.28516C6.59162 2.28516 2.22474 6.64969 2.22474 12.0352C2.22474 17.4206 6.58974 21.7852 11.9747 21.7852C17.3597 21.7852 21.7247 17.4202 21.7247 12.0352C21.7247 6.65016 17.3583 2.28516 11.9747 2.28516ZM17.8257 11.813C17.6921 13.3425 17.0387 14.1427 16.5132 14.5439C15.9877 14.9452 15.3568 15.1214 14.8126 15.0239C14.5603 14.9788 14.3195 14.8843 14.1038 14.7461C13.8881 14.6078 13.7017 14.4284 13.5554 14.2181C13.0038 14.7546 12.2622 15.0507 11.4929 15.0417C11.1532 15.0443 10.8167 14.9754 10.5054 14.8395C10.1941 14.7036 9.91486 14.5037 9.68584 14.2528C9.1524 13.6706 8.88896 12.8297 8.96771 11.9452C9.10834 10.3045 10.4166 9.255 11.6335 9.06328C12.9085 8.86219 14.0818 9.36984 14.5819 9.97547L14.7624 10.1939L14.4652 12.5555C14.4094 13.2277 14.619 13.6561 15.0413 13.732C15.1533 13.7517 15.421 13.7259 15.7149 13.5009C16.0299 13.2595 16.4246 12.7509 16.5165 11.6977C16.6266 10.4536 16.3126 9.39188 15.6141 8.62781C14.888 7.83563 13.7818 7.41656 12.4158 7.41656C9.88459 7.41656 7.64349 9.49922 7.4199 12.0572C7.31302 13.2853 7.68568 14.4328 8.4699 15.2883C9.23678 16.1255 10.3126 16.5886 11.5008 16.5886C12.3915 16.5886 12.9357 16.4925 13.8202 16.177C13.9842 16.1186 14.1647 16.1277 14.3219 16.2023C14.4792 16.277 14.6004 16.411 14.6588 16.575C14.7172 16.739 14.7081 16.9195 14.6335 17.0767C14.5589 17.234 14.4248 17.3552 14.2608 17.4136C13.238 17.7778 12.5415 17.9011 11.5008 17.9011C9.94084 17.9011 8.52099 17.2889 7.5024 16.1775C6.46881 15.0473 5.97287 13.5445 6.11256 11.9452C6.24896 10.3828 6.9774 8.91563 8.16427 7.81453C9.35115 6.71344 10.8629 6.10406 12.4158 6.10406C14.1596 6.10406 15.6001 6.67031 16.5816 7.74141C17.5233 8.76844 17.9649 10.2141 17.8257 11.813Z" fill="#666666"/>
<path d="M11.8393 10.3587C11.1441 10.4679 10.3599 11.1012 10.2765 12.0584C10.2296 12.5768 10.3702 13.0531 10.6547 13.3648C10.7608 13.4816 10.8905 13.5744 11.0353 13.6371C11.1801 13.6997 11.3365 13.7307 11.4943 13.7281C12.4463 13.7281 13.1222 13.0278 13.2169 11.944C13.2198 11.9113 13.2251 11.8789 13.2329 11.847L13.3829 10.654C12.9182 10.3794 12.3725 10.275 11.8393 10.3587Z" fill="#666666"/>
</svg>
