<svg width="24" height="24" viewBox="0 0 24 24" fill="none" xmlns="http://www.w3.org/2000/svg">
<path d="M12.0192 2.28516C6.6356 2.28516 2.26919 6.64969 2.26919 12.0352C2.26919 17.4206 6.63419 21.7852 12.0192 21.7852C17.4042 21.7852 21.7692 17.4202 21.7692 12.0352C21.7692 6.65016 17.4023 2.28516 12.0192 2.28516ZM17.8697 11.813C17.7361 13.3425 17.0831 14.1427 16.5572 14.5439C16.0312 14.9452 15.3998 15.1223 14.8542 15.0248C14.5993 14.9788 14.3561 14.8825 14.1388 14.7415C13.9215 14.6005 13.7345 14.4176 13.5886 14.2036C13.3202 14.473 13.0006 14.6861 12.6486 14.8302C12.2967 14.9743 11.9195 15.0465 11.5392 15.0427C11.1995 15.0453 10.8631 14.9764 10.5517 14.8405C10.2404 14.7046 9.96116 14.5047 9.73216 14.2538C9.19825 13.6716 8.93528 12.8306 9.01357 11.9461C9.15653 10.3055 10.4629 9.25594 11.6793 9.06422C12.9548 8.86313 14.1281 9.37078 14.6283 9.97641L14.8083 10.1948L14.5111 12.5564C14.4553 13.2286 14.6653 13.657 15.0872 13.733C15.1992 13.7527 15.4673 13.7269 15.7612 13.5019C16.0762 13.2605 16.4709 12.7519 16.5628 11.6986C16.6715 10.4541 16.3589 9.39281 15.659 8.62875C14.9325 7.83656 13.8262 7.4175 12.4603 7.4175C9.92903 7.4175 7.68794 9.50016 7.46482 12.0581C7.35747 13.2863 7.73013 14.4338 8.51435 15.2892C9.28122 16.1255 10.3593 16.5886 11.5448 16.5886C12.4354 16.5886 12.9797 16.4925 13.8647 16.177L14.4843 15.9572L14.9245 17.1933L14.3062 17.4136C13.2834 17.7778 12.5868 17.9011 11.5462 17.9011C9.98622 17.9011 8.56638 17.2889 7.54778 16.1775C6.51232 15.0473 6.01872 13.5445 6.15794 11.9452C6.29435 10.3828 7.02325 8.91563 8.20966 7.81453C9.39607 6.71344 10.9083 6.10406 12.4612 6.10406C14.205 6.10406 15.6459 6.67031 16.6275 7.74141C17.5673 8.76844 18.0093 10.2141 17.8697 11.813Z" fill="#666666"/>
<path d="M11.8833 10.3592C11.1881 10.4684 10.4044 11.1017 10.3205 12.0589C10.2736 12.5773 10.4142 13.0535 10.6992 13.3653C10.8052 13.4821 10.935 13.575 11.0797 13.6376C11.2245 13.7003 11.381 13.7313 11.5388 13.7285C12.4622 13.7285 13.1231 13.0353 13.2638 11.9196L13.3458 11.2685H13.35L13.4274 10.654C12.9625 10.3794 12.4167 10.275 11.8833 10.3587V10.3592Z" fill="#666666"/>
</svg>
