<svg width="24" height="24" viewBox="0 0 24 24" fill="none" xmlns="http://www.w3.org/2000/svg">
<path d="M15 11.9171C14.789 14.3077 13.1194 15.6671 11.2242 15.6671C9.32904 15.6671 8.06764 13.9881 8.24998 11.9171C8.43232 9.84618 9.98998 8.16711 11.8851 8.16711C13.7803 8.16711 15.1819 9.85461 15 11.9171V11.9171Z" stroke="#666666" stroke-width="1.5" stroke-linecap="round" stroke-linejoin="round"/>
<path d="M14.9893 19.4893C13.6505 20.0518 12.773 20.1689 11.273 20.1689C6.71678 20.1689 3.35115 16.4752 3.75006 11.9189C4.14897 7.3627 8.17084 3.66895 12.7271 3.66895C17.8594 3.66895 20.6808 7.03129 20.2843 11.5313C19.9885 14.8908 17.8416 15.8588 16.7176 15.6596C15.6601 15.4721 14.7872 14.5149 14.9485 12.683L15.346 8.17129" stroke="#666666" stroke-width="1.5" stroke-linecap="round" stroke-linejoin="round"/>
</svg>
