<svg width="24" height="24" viewBox="0 0 24 24" fill="none" xmlns="http://www.w3.org/2000/svg">
<path d="M19.1064 5.42442C17.6031 3.78379 15.3812 2.91614 12.6803 2.91614C10.2897 2.91614 7.96044 3.84426 6.12622 5.52989C4.292 7.21551 3.167 9.45989 2.95606 11.85C2.74278 14.2721 3.49091 16.5511 5.06263 18.2672C6.62685 19.9754 8.81591 20.9161 11.2262 20.9161C12.7506 20.9161 13.7392 20.8055 15.2331 20.1779L15.9245 19.8872L15.3433 18.5044L14.6518 18.7941C13.3792 19.3285 12.5997 19.4152 11.2262 19.4152C9.24153 19.4152 7.44575 18.6474 6.16888 17.2533C4.8845 15.8508 4.27419 13.9786 4.45044 11.9808C4.81794 7.80895 8.50981 4.4152 12.6803 4.4152C14.949 4.4152 16.7889 5.11411 18.0001 6.43692C19.1537 7.69645 19.6689 9.43317 19.4903 11.4596C19.3361 13.2104 18.6578 14.0724 18.1159 14.4877C17.6003 14.8833 17.0847 14.9649 16.8034 14.9147C15.9747 14.768 15.5439 13.9557 15.6508 12.7449L16.1162 7.62989L14.6204 7.49723L14.5267 8.54208C14.177 8.18416 13.759 7.90014 13.2974 7.70688C12.8359 7.51363 12.3402 7.41508 11.8398 7.41708C10.7242 7.41708 9.65825 7.88911 8.83981 8.74692C8.05372 9.56864 7.56341 10.6711 7.45935 11.851C7.3445 13.1574 7.72888 14.3982 8.5145 15.256C8.85252 15.6258 9.26463 15.9204 9.72401 16.1204C10.1834 16.3205 10.6797 16.4215 11.1808 16.4171C11.8158 16.4241 12.4447 16.2922 13.0234 16.0308C13.6022 15.7693 14.1168 15.3846 14.5314 14.9035C14.7286 15.2903 15.0127 15.6262 15.3614 15.8849C15.7101 16.1436 16.114 16.3181 16.5414 16.3946C17.3331 16.5352 18.2631 16.2685 19.0295 15.6816C20.4447 14.5974 20.8745 12.8602 20.9861 11.5941C21.1979 9.17067 20.5314 6.98161 19.1064 5.42442ZM13.1842 14.1432C12.6385 14.6478 11.9207 14.925 11.1775 14.918C10.8845 14.9231 10.5937 14.8656 10.3247 14.7494C10.0557 14.6331 9.81458 14.4608 9.61747 14.244C9.11544 13.6955 8.87216 12.8719 8.95044 11.9836C9.10185 10.2643 10.3703 8.91801 11.8384 8.91801C12.1551 8.91674 12.4685 8.98211 12.7582 9.10987C13.048 9.23763 13.3076 9.42492 13.5203 9.65958C14.0298 10.216 14.2797 11.0129 14.2061 11.85C14.1226 12.8007 13.7687 13.591 13.1842 14.1413V14.1432Z" fill="#666666"/>
</svg>
