<svg width="24" height="24" viewBox="0 0 24 24" fill="none" xmlns="http://www.w3.org/2000/svg">
<path d="M15.0001 11.918C14.7891 14.3086 13.1194 15.668 11.2243 15.668C9.32911 15.668 8.0677 13.9889 8.25005 11.918C8.43239 9.84703 9.99005 8.16797 11.8852 8.16797C13.7804 8.16797 15.1819 9.85547 15.0001 11.918V11.918Z" stroke="#666666" stroke-width="1.5" stroke-linecap="round" stroke-linejoin="round"/>
<path d="M14.9892 19.4856C13.6505 20.0481 12.773 20.1653 11.273 20.1653C6.7167 20.1653 3.35108 16.4715 3.74998 11.9153C4.14889 7.35903 8.17077 3.66528 12.727 3.66528C17.8594 3.66528 20.6808 7.02763 20.2842 11.5276C19.9884 14.8872 17.8415 15.8551 16.7175 15.6559C15.66 15.4684 14.7872 14.5112 14.9484 12.6793L15.3459 8.16763" stroke="#666666" stroke-width="1.5" stroke-linecap="round" stroke-linejoin="round"/>
</svg>
