<svg width="24" height="24" viewBox="0 0 24 24" fill="none" xmlns="http://www.w3.org/2000/svg">
<path d="M10.1287 8.99747V15.7404C10.1365 16.2335 10.3378 16.7038 10.6893 17.0497C11.0407 17.3956 11.5141 17.5895 12.0072 17.5895C12.5003 17.5895 12.9737 17.3956 13.3252 17.0497C13.6766 16.7038 13.8779 16.2335 13.8857 15.7404L13.8918 6.90216C13.8969 6.48072 13.8183 6.06246 13.6606 5.67162C13.5029 5.28078 13.2691 4.92514 12.9729 4.62531C12.6767 4.32548 12.3239 4.08743 11.935 3.92496C11.5461 3.76249 11.1288 3.67883 10.7074 3.67883C10.2859 3.67883 9.86862 3.76249 9.47972 3.92496C9.09082 4.08743 8.73804 4.32548 8.44183 4.62531C8.14562 4.92514 7.91187 5.28078 7.75413 5.67162C7.59639 6.06246 7.5178 6.48072 7.52291 6.90216V15.8C7.51432 16.3933 7.62377 16.9824 7.84488 17.533C8.066 18.0837 8.39437 18.5849 8.81091 19.0075C9.22745 19.4301 9.72385 19.7657 10.2712 19.9948C10.8186 20.2238 11.4061 20.3418 11.9995 20.3418C12.5929 20.3418 13.1803 20.2238 13.7277 19.9948C14.2751 19.7657 14.7715 19.4301 15.188 19.0075C15.6046 18.5849 15.9329 18.0837 16.1541 17.533C16.3752 16.9824 16.4846 16.3933 16.476 15.8V7.48528" stroke="#666666" stroke-width="1.5" stroke-miterlimit="10" stroke-linecap="round"/>
</svg>
