<svg width="24" height="24" viewBox="0 0 24 24" fill="none" xmlns="http://www.w3.org/2000/svg">
<path d="M10.1288 8.99798V15.7269C10.1366 16.22 10.3379 16.6902 10.6894 17.0361C11.0408 17.3821 11.5142 17.576 12.0073 17.576C12.5005 17.576 12.9738 17.3821 13.3253 17.0361C13.6767 16.6902 13.8781 16.22 13.8859 15.7269L13.8919 6.88861C13.8971 6.46717 13.8185 6.04891 13.6607 5.65807C13.503 5.26723 13.2692 4.91159 12.973 4.61176C12.6768 4.31193 12.324 4.07388 11.9351 3.91141C11.5462 3.74894 11.129 3.66528 10.7075 3.66528C10.286 3.66528 9.86874 3.74894 9.47985 3.91141C9.09095 4.07388 8.73817 4.31193 8.44196 4.61176C8.14575 4.91159 7.912 5.26723 7.75426 5.65807C7.59652 6.04891 7.51793 6.46717 7.52304 6.88861V15.7864C7.54006 16.9625 8.01918 18.0846 8.85685 18.9102C9.69452 19.7358 10.8234 20.1987 11.9996 20.1987C13.1758 20.1987 14.3047 19.7358 15.1424 18.9102C15.98 18.0846 16.4591 16.9625 16.4762 15.7864V7.47173" stroke="#666666" stroke-width="1.5" stroke-miterlimit="10" stroke-linecap="square"/>
</svg>
