<svg width="24" height="24" viewBox="0 0 24 24" fill="none" xmlns="http://www.w3.org/2000/svg">
<path d="M18.8968 4.49915H7.35335C7.05446 4.49951 6.75908 4.56354 6.48686 4.68696C6.21465 4.81038 5.97184 4.99036 5.7746 5.21493C5.74043 5.25388 5.71043 5.2963 5.68507 5.34149L1.50007 11.6124C1.42981 11.7292 1.39268 11.8629 1.39268 11.9991C1.39268 12.1354 1.42981 12.2691 1.50007 12.3859L5.67898 18.647C5.70526 18.6952 5.73669 18.7405 5.77273 18.782C5.96992 19.0069 6.21282 19.1873 6.48522 19.3109C6.75762 19.4346 7.05326 19.4988 7.35241 19.4991H18.8968C19.4544 19.4985 19.989 19.2767 20.3833 18.8824C20.7777 18.4881 20.9995 17.9535 21.0001 17.3959V6.60243C20.9995 6.04479 20.7777 5.51018 20.3833 5.11587C19.989 4.72156 19.4544 4.49977 18.8968 4.49915ZM16.3126 14.5773C16.3839 14.6466 16.4407 14.7293 16.4797 14.8207C16.5187 14.9122 16.5392 15.0105 16.5399 15.1099C16.5406 15.2093 16.5215 15.3078 16.4838 15.3998C16.4461 15.4918 16.3905 15.5753 16.3201 15.6456C16.2498 15.7159 16.1662 15.7715 16.0743 15.8092C15.9823 15.8469 15.8837 15.8659 15.7843 15.8652C15.6849 15.8644 15.5866 15.8439 15.4952 15.8048C15.4038 15.7658 15.321 15.7089 15.2518 15.6376L12.7346 13.1241L10.2188 15.639C10.078 15.7798 9.88707 15.8589 9.68796 15.8589C9.48885 15.8589 9.29789 15.7798 9.1571 15.639C9.01631 15.4982 8.93721 15.3072 8.93721 15.1081C8.93721 14.909 9.01631 14.7181 9.1571 14.5773L11.6719 12.0615L9.15523 9.54477C9.0145 9.40373 8.93556 9.21256 8.93578 9.01332C8.936 8.81407 9.01536 8.62308 9.1564 8.48235C9.29744 8.34162 9.48861 8.26268 9.68785 8.2629C9.88709 8.26312 10.0781 8.34248 10.2188 8.48352L12.7355 11.0007L15.2513 8.48352C15.392 8.34279 15.5829 8.26373 15.7819 8.26373C15.981 8.26373 16.1718 8.34279 16.3126 8.48352C16.4533 8.62425 16.5324 8.81512 16.5324 9.01415C16.5324 9.21317 16.4533 9.40404 16.3126 9.54477L13.7954 12.0615L16.3126 14.5773Z" fill="#666666"/>
</svg>
