<svg width="24" height="24" viewBox="0 0 24 24" fill="none" xmlns="http://www.w3.org/2000/svg">
<path d="M6.33705 18.2851C6.46367 18.4302 6.61986 18.5465 6.79514 18.6262C6.97043 18.706 7.16074 18.7472 7.3533 18.7473H18.8967C19.2552 18.7457 19.5984 18.6026 19.8519 18.3492C20.1053 18.0957 20.2484 17.7525 20.25 17.394V6.6006C20.2484 6.24218 20.1053 5.8989 19.8519 5.64545C19.5984 5.39201 19.2552 5.24892 18.8967 5.24731H7.3533C7.16092 5.24749 6.97079 5.28873 6.79561 5.36827C6.62044 5.44782 6.46427 5.56383 6.33752 5.70856L2.17174 11.9973L6.33705 18.2837V18.2851Z" stroke="#666666" stroke-width="1.5" stroke-linejoin="round"/>
<path d="M15.7815 15.1096L9.68723 9.01538M15.7815 9.01538L9.68723 15.1096L15.7815 9.01538ZM15.7815 15.1096L9.68723 9.01538L15.7815 15.1096ZM15.7815 9.01538L9.68723 15.1096L15.7815 9.01538Z" stroke="#666666" stroke-width="1.5" stroke-linecap="round" stroke-linejoin="round"/>
</svg>
