<svg width="24" height="24" viewBox="0 0 24 24" fill="none" xmlns="http://www.w3.org/2000/svg">
<path d="M21.5625 7.49817H17.4375V6.93567C17.4364 5.51719 16.8816 4.15517 15.8914 3.13958C14.9011 2.12399 13.5535 1.53506 12.1355 1.49817H11.8645C10.4465 1.53506 9.09894 2.12399 8.10865 3.13958C7.11837 4.15517 6.56362 5.51719 6.56251 6.93567V7.49817H2.43751C2.38778 7.49817 2.34009 7.51792 2.30493 7.55309C2.26976 7.58825 2.25001 7.63594 2.25001 7.68567V21.7482C2.25001 21.9471 2.32903 22.1378 2.46968 22.2785C2.61033 22.4192 2.8011 22.4982 3.00001 22.4982H21C21.1989 22.4982 21.3897 22.4192 21.5303 22.2785C21.671 22.1378 21.75 21.9471 21.75 21.7482V7.68567C21.75 7.63594 21.7303 7.58825 21.6951 7.55309C21.6599 7.51792 21.6122 7.49817 21.5625 7.49817ZM8.43751 6.98254C8.43751 5.02129 10.0036 3.39379 11.9649 3.37317C12.4355 3.36902 12.9023 3.45808 13.3384 3.63521C13.7744 3.81234 14.1711 4.07404 14.5056 4.40521C14.84 4.73638 15.1056 5.13048 15.287 5.56479C15.4684 5.99909 15.562 6.465 15.5625 6.93567V7.49817H8.43751V6.98254ZM10.8192 18.8007L7.94251 15.4388L9.08204 14.4633L10.7813 16.4471L14.8833 11.319L16.0552 12.2565L10.8192 18.8007Z" fill="#666666"/>
</svg>
