<svg width="24" height="24" viewBox="0 0 24 24" fill="none" xmlns="http://www.w3.org/2000/svg">
<path d="M7.50002 8.25098V6.75098C7.50002 5.5575 7.97413 4.41291 8.81804 3.569C9.66195 2.72508 10.8065 2.25098 12 2.25098V2.25098C13.1935 2.25098 14.3381 2.72508 15.182 3.569C16.0259 4.41291 16.5 5.5575 16.5 6.75098V8.25098M3.75002 8.25098C3.55111 8.25098 3.36034 8.32999 3.21969 8.47065C3.07904 8.6113 3.00002 8.80206 3.00002 9.00098V19.126C3.00002 20.5435 4.20752 21.751 5.62502 21.751H18.375C19.7925 21.751 21 20.6021 21 19.1846V9.00098C21 8.80206 20.921 8.6113 20.7804 8.47065C20.6397 8.32999 20.4489 8.25098 20.25 8.25098H3.75002Z" stroke="#666666" stroke-width="1.5" stroke-linecap="round" stroke-linejoin="round"/>
<path d="M7.50005 10.4991V11.2491C7.50005 12.4426 7.97415 13.5872 8.81807 14.4311C9.66198 15.275 10.8066 15.7491 12 15.7491C13.1935 15.7491 14.3381 15.275 15.182 14.4311C16.0259 13.5872 16.5 12.4426 16.5 11.2491V10.4991" stroke="#666666" stroke-width="1.5" stroke-linecap="round" stroke-linejoin="round"/>
</svg>
