<svg width="24" height="24" viewBox="0 0 24 24" fill="none" xmlns="http://www.w3.org/2000/svg">
<path d="M21.3118 7.93879C21.1728 7.79877 21.0073 7.68773 20.8251 7.61209C20.6428 7.53646 20.4474 7.49774 20.2501 7.49817H17.2501V6.74817C17.2501 5.35578 16.6969 4.02042 15.7124 3.03586C14.7278 2.05129 13.3925 1.49817 12.0001 1.49817C10.6077 1.49817 9.27233 2.05129 8.28776 3.03586C7.30319 4.02042 6.75007 5.35578 6.75007 6.74817V7.49817H3.75007C3.35224 7.49817 2.97071 7.65621 2.68941 7.93751C2.4081 8.21881 2.25007 8.60034 2.25007 8.99817V19.1232C2.25007 20.9513 3.79694 22.4982 5.62507 22.4982H18.3751C19.2594 22.4984 20.1087 22.1527 20.7413 21.5349C21.0597 21.2311 21.3132 20.866 21.4866 20.4616C21.66 20.0572 21.7496 19.6218 21.7501 19.1818V8.99817C21.7507 8.80138 21.7123 8.60643 21.637 8.42459C21.5618 8.24275 21.4513 8.07763 21.3118 7.93879ZM15.5855 12.8419L11.3855 18.0919C11.3166 18.1781 11.2294 18.248 11.1303 18.2966C11.0312 18.3452 10.9226 18.3714 10.8123 18.3732H10.8001C10.6917 18.3732 10.5847 18.3497 10.4863 18.3044C10.3879 18.2591 10.3005 18.193 10.2301 18.1107L8.43007 16.0069C8.36605 15.9321 8.3174 15.8453 8.2869 15.7517C8.2564 15.658 8.24464 15.5593 8.25231 15.4611C8.25997 15.3629 8.28689 15.2672 8.33155 15.1794C8.37621 15.0916 8.43772 15.0134 8.51257 14.9494C8.58742 14.8854 8.67415 14.8368 8.76781 14.8063C8.86146 14.7758 8.96021 14.764 9.05841 14.7717C9.15661 14.7793 9.25233 14.8062 9.34012 14.8509C9.42792 14.8956 9.50605 14.9571 9.57007 15.0319L10.7813 16.4471L14.4146 11.9044C14.5389 11.749 14.7199 11.6494 14.9177 11.6274C15.1155 11.6054 15.3139 11.6629 15.4693 11.7872C15.6247 11.9116 15.7243 12.0925 15.7463 12.2903C15.7683 12.4881 15.7108 12.6865 15.5865 12.8419H15.5855ZM15.7501 7.49817H8.25007V6.74817C8.25007 5.75361 8.64516 4.79978 9.34842 4.09652C10.0517 3.39326 11.0055 2.99817 12.0001 2.99817C12.9946 2.99817 13.9485 3.39326 14.6517 4.09652C15.355 4.79978 15.7501 5.75361 15.7501 6.74817V7.49817Z" fill="#666666"/>
</svg>
