<svg width="24" height="24" viewBox="0 0 24 24" fill="none" xmlns="http://www.w3.org/2000/svg">
<path d="M7.50006 8.25098V6.75098C7.50006 5.5575 7.97417 4.41291 8.81808 3.569C9.662 2.72508 10.8066 2.25098 12.0001 2.25098V2.25098C13.1935 2.25098 14.3381 2.72508 15.182 3.569C16.026 4.41291 16.5001 5.5575 16.5001 6.75098V8.25098M3.75006 8.25098C3.55115 8.25098 3.36039 8.32999 3.21973 8.47065C3.07908 8.6113 3.00006 8.80206 3.00006 9.00098V19.126C3.00006 20.5435 4.20756 21.751 5.62506 21.751H18.3751C19.7926 21.751 21.0001 20.6021 21.0001 19.1846V9.00098C21.0001 8.80206 20.921 8.6113 20.7804 8.47065C20.6397 8.32999 20.449 8.25098 20.2501 8.25098H3.75006Z" stroke="#666666" stroke-width="1.5" stroke-linecap="round" stroke-linejoin="round"/>
</svg>
