<svg width="24" height="24" viewBox="0 0 24 24" fill="none" xmlns="http://www.w3.org/2000/svg">
<path d="M21.3123 7.93794C21.1731 7.79795 21.0076 7.68692 20.8253 7.61129C20.643 7.53566 20.4475 7.49692 20.2501 7.49731H17.2501V6.74731C17.2501 5.35493 16.697 4.01957 15.7124 3.035C14.7278 2.05044 13.3925 1.49731 12.0001 1.49731C10.6077 1.49731 9.27233 2.05044 8.28777 3.035C7.3032 4.01957 6.75008 5.35493 6.75008 6.74731V7.49731H3.75008C3.35225 7.49731 2.97072 7.65535 2.68942 7.93666C2.40811 8.21796 2.25008 8.59949 2.25008 8.99731V19.1223C2.25008 20.9504 3.79695 22.4973 5.62508 22.4973H18.3751C19.2594 22.4976 20.1087 22.1519 20.7413 21.534C21.0597 21.2303 21.3133 20.8652 21.4866 20.4608C21.66 20.0563 21.7496 19.6209 21.7501 19.1809V8.99731C21.7507 8.80057 21.7123 8.60566 21.6371 8.42383C21.562 8.242 21.4516 8.07686 21.3123 7.93794ZM15.0001 15.7473H12.7501V17.9973C12.7501 18.1962 12.6711 18.387 12.5304 18.5276C12.3898 18.6683 12.199 18.7473 12.0001 18.7473C11.8012 18.7473 11.6104 18.6683 11.4697 18.5276C11.3291 18.387 11.2501 18.1962 11.2501 17.9973V15.7473H9.00008C8.80117 15.7473 8.6104 15.6683 8.46975 15.5276C8.3291 15.387 8.25008 15.1962 8.25008 14.9973C8.25008 14.7984 8.3291 14.6076 8.46975 14.467C8.6104 14.3263 8.80117 14.2473 9.00008 14.2473H11.2501V11.9973C11.2501 11.7984 11.3291 11.6076 11.4697 11.467C11.6104 11.3263 11.8012 11.2473 12.0001 11.2473C12.199 11.2473 12.3898 11.3263 12.5304 11.467C12.6711 11.6076 12.7501 11.7984 12.7501 11.9973V14.2473H15.0001C15.199 14.2473 15.3898 14.3263 15.5304 14.467C15.6711 14.6076 15.7501 14.7984 15.7501 14.9973C15.7501 15.1962 15.6711 15.387 15.5304 15.5276C15.3898 15.6683 15.199 15.7473 15.0001 15.7473ZM15.7501 7.49731H8.25008V6.74731C8.25008 5.75275 8.64517 4.79893 9.34843 4.09566C10.0517 3.3924 11.0055 2.99731 12.0001 2.99731C12.9946 2.99731 13.9485 3.3924 14.6517 4.09566C15.355 4.79893 15.7501 5.75275 15.7501 6.74731V7.49731Z" fill="#666666"/>
</svg>
