<svg width="24" height="24" viewBox="0 0 24 24" fill="none" xmlns="http://www.w3.org/2000/svg">
<path d="M7.49999 8.24548V6.74548C7.49999 5.55201 7.97409 4.40742 8.818 3.5635C9.66192 2.71959 10.8065 2.24548 12 2.24548V2.24548C13.1935 2.24548 14.3381 2.71959 15.182 3.5635C16.0259 4.40742 16.5 5.55201 16.5 6.74548V8.24548M12 11.9955V17.9955V11.9955ZM15 14.9955H8.99999H15ZM3.74998 8.24548C3.55107 8.24548 3.36031 8.3245 3.21965 8.46515C3.079 8.60581 2.99998 8.79657 2.99998 8.99548V19.1205C2.99998 20.538 4.20748 21.7455 5.62498 21.7455H18.375C19.7925 21.7455 21 20.5966 21 19.1791V8.99548C21 8.79657 20.921 8.60581 20.7803 8.46515C20.6397 8.3245 20.4489 8.24548 20.25 8.24548H3.74998Z" stroke="#666666" stroke-width="1.5" stroke-linecap="round" stroke-linejoin="round"/>
</svg>
