<svg width="24" height="24" viewBox="0 0 24 24" fill="none" xmlns="http://www.w3.org/2000/svg">
<path d="M21.3118 7.93879C21.1728 7.79877 21.0074 7.68773 20.8251 7.61209C20.6429 7.53646 20.4474 7.49774 20.2501 7.49817H17.2501V6.74817C17.2501 5.35578 16.697 4.02042 15.7124 3.03586C14.7279 2.05129 13.3925 1.49817 12.0001 1.49817C10.6077 1.49817 9.27237 2.05129 8.28781 3.03586C7.30324 4.02042 6.75012 5.35578 6.75012 6.74817V7.49817H3.75011C3.35229 7.49817 2.97076 7.65621 2.68945 7.93751C2.40815 8.21881 2.25011 8.60034 2.25011 8.99817V19.1232C2.25011 20.9513 3.79699 22.4982 5.62511 22.4982H18.3751C19.2594 22.4984 20.1087 22.1527 20.7414 21.5349C21.0598 21.2311 21.3133 20.866 21.4867 20.4616C21.66 20.0572 21.7497 19.6218 21.7501 19.1818V8.99817C21.7507 8.80138 21.7123 8.60643 21.6371 8.42459C21.5618 8.24275 21.4513 8.07763 21.3118 7.93879ZM8.25012 6.74817C8.25012 5.75361 8.6452 4.79978 9.34847 4.09652C10.0517 3.39326 11.0056 2.99817 12.0001 2.99817C12.9947 2.99817 13.9485 3.39326 14.6518 4.09652C15.355 4.79978 15.7501 5.75361 15.7501 6.74817V7.49817H8.25012V6.74817ZM17.2501 11.2482C17.2501 12.6406 16.697 13.9759 15.7124 14.9605C14.7279 15.945 13.3925 16.4982 12.0001 16.4982C10.6077 16.4982 9.27237 15.945 8.28781 14.9605C7.30324 13.9759 6.75012 12.6406 6.75012 11.2482V10.4982C6.75012 10.2993 6.82913 10.1085 6.96979 9.96784C7.11044 9.82719 7.3012 9.74817 7.50012 9.74817C7.69903 9.74817 7.88979 9.82719 8.03045 9.96784C8.1711 10.1085 8.25012 10.2993 8.25012 10.4982V11.2482C8.25012 12.2427 8.6452 13.1966 9.34847 13.8998C10.0517 14.6031 11.0056 14.9982 12.0001 14.9982C12.9947 14.9982 13.9485 14.6031 14.6518 13.8998C15.355 13.1966 15.7501 12.2427 15.7501 11.2482V10.4982C15.7501 10.2993 15.8291 10.1085 15.9698 9.96784C16.1104 9.82719 16.3012 9.74817 16.5001 9.74817C16.699 9.74817 16.8898 9.82719 17.0304 9.96784C17.1711 10.1085 17.2501 10.2993 17.2501 10.4982V11.2482Z" fill="#666666"/>
</svg>
