<svg width="24" height="24" viewBox="0 0 24 24" fill="none" xmlns="http://www.w3.org/2000/svg">
<path d="M21.3123 7.93879C21.1731 7.7988 21.0076 7.68778 20.8253 7.61215C20.643 7.53652 20.4475 7.49778 20.2501 7.49817H17.2501V6.74817C17.2501 5.35578 16.697 4.02042 15.7124 3.03586C14.7278 2.05129 13.3925 1.49817 12.0001 1.49817C10.6077 1.49817 9.27233 2.05129 8.28777 3.03586C7.3032 4.02042 6.75008 5.35578 6.75008 6.74817V7.49817H3.75008C3.35225 7.49817 2.97072 7.65621 2.68942 7.93751C2.40811 8.21881 2.25008 8.60034 2.25008 8.99817V19.1232C2.25008 20.9513 3.79695 22.4982 5.62508 22.4982H18.3751C19.2594 22.4984 20.1087 22.1527 20.7413 21.5349C21.0597 21.2311 21.3133 20.866 21.4866 20.4616C21.66 20.0572 21.7496 19.6218 21.7501 19.1818V8.99817C21.7507 8.80143 21.7123 8.60651 21.6371 8.42469C21.562 8.24286 21.4516 8.07772 21.3123 7.93879ZM15.0001 15.7482H9.00008C8.80117 15.7482 8.6104 15.6692 8.46975 15.5285C8.3291 15.3878 8.25008 15.1971 8.25008 14.9982C8.25008 14.7993 8.3291 14.6085 8.46975 14.4678C8.6104 14.3272 8.80117 14.2482 9.00008 14.2482H15.0001C15.199 14.2482 15.3898 14.3272 15.5304 14.4678C15.6711 14.6085 15.7501 14.7993 15.7501 14.9982C15.7501 15.1971 15.6711 15.3878 15.5304 15.5285C15.3898 15.6692 15.199 15.7482 15.0001 15.7482ZM15.7501 7.49817H8.25008V6.74817C8.25008 5.75361 8.64517 4.79978 9.34843 4.09652C10.0517 3.39326 11.0055 2.99817 12.0001 2.99817C12.9946 2.99817 13.9485 3.39326 14.6517 4.09652C15.355 4.79978 15.7501 5.75361 15.7501 6.74817V7.49817Z" fill="#666666"/>
</svg>
