<svg width="24" height="24" viewBox="0 0 24 24" fill="none" xmlns="http://www.w3.org/2000/svg">
<path d="M14.9999 12.3741L10.7999 17.6241L8.99992 15.5204" stroke="#666666" stroke-width="1.5" stroke-linecap="round" stroke-linejoin="round"/>
<path d="M7.49997 8.25098V6.75098C7.49997 5.5575 7.97408 4.41291 8.81799 3.569C9.6619 2.72508 10.8065 2.25098 12 2.25098V2.25098C13.1934 2.25098 14.338 2.72508 15.182 3.569C16.0259 4.41291 16.5 5.5575 16.5 6.75098V8.25098M3.74997 8.25098C3.55106 8.25098 3.36029 8.32999 3.21964 8.47065C3.07899 8.6113 2.99997 8.80206 2.99997 9.00098V19.126C2.99997 20.5435 4.20747 21.751 5.62497 21.751H18.375C19.7925 21.751 21 20.6021 21 19.1846V9.00098C21 8.80206 20.921 8.6113 20.7803 8.47065C20.6396 8.32999 20.4489 8.25098 20.25 8.25098H3.74997Z" stroke="#666666" stroke-width="1.5" stroke-linecap="round" stroke-linejoin="round"/>
</svg>
