<svg width="24" height="24" viewBox="0 0 24 24" fill="none" xmlns="http://www.w3.org/2000/svg">
<path d="M17.4374 7.49463V6.93213C17.4363 5.51365 16.8816 4.15163 15.8913 3.13604C14.901 2.12045 13.5534 1.53152 12.1354 1.49463H11.8645C10.4465 1.53152 9.09888 2.12045 8.10859 3.13604C7.11831 4.15163 6.56356 5.51365 6.56245 6.93213V7.49463H2.43745C2.38772 7.49463 2.34003 7.51438 2.30486 7.54955C2.2697 7.58471 2.24995 7.6324 2.24995 7.68213V21.7446C2.24995 21.9435 2.32896 22.1343 2.46962 22.275C2.61027 22.4156 2.80103 22.4946 2.99995 22.4946H20.9999C21.1989 22.4946 21.3896 22.4156 21.5303 22.275C21.6709 22.1343 21.7499 21.9435 21.7499 21.7446V7.68213C21.7499 7.6324 21.7302 7.58471 21.695 7.54955C21.6599 7.51438 21.6122 7.49463 21.5624 7.49463H17.4374ZM15.5624 7.49463H8.43745V6.979C8.43745 5.01775 10.0035 3.39025 11.9648 3.36963C12.4354 3.36548 12.9023 3.45454 13.3383 3.63167C13.7744 3.8088 14.1711 4.0705 14.5055 4.40167C14.8399 4.73284 15.1055 5.12694 15.2869 5.56124C15.4683 5.99555 15.562 6.46146 15.5624 6.93213V7.49463Z" fill="#666666"/>
</svg>
