<svg width="24" height="24" viewBox="0 0 24 24" fill="none" xmlns="http://www.w3.org/2000/svg">
<path d="M7.49999 8.25098V6.75098C7.49999 5.5575 7.97409 4.41291 8.818 3.569C9.66192 2.72508 10.8065 2.25098 12 2.25098V2.25098C13.1935 2.25098 14.3381 2.72508 15.182 3.569C16.0259 4.41291 16.5 5.5575 16.5 6.75098V8.25098M15 15.001H8.99999H15ZM3.74998 8.25098C3.55107 8.25098 3.36031 8.32999 3.21965 8.47065C3.079 8.6113 2.99998 8.80206 2.99998 9.00098V19.126C2.99998 20.5435 4.20748 21.751 5.62498 21.751H18.375C19.7925 21.751 21 20.6021 21 19.1846V9.00098C21 8.80206 20.921 8.6113 20.7803 8.47065C20.6397 8.32999 20.4489 8.25098 20.25 8.25098H3.74998Z" stroke="#666666" stroke-width="1.5" stroke-linecap="round" stroke-linejoin="round"/>
</svg>
