<svg width="24" height="24" viewBox="0 0 24 24" fill="none" xmlns="http://www.w3.org/2000/svg">
<path d="M21.5625 7.49731H17.4375V6.93481C17.4364 5.51633 16.8817 4.15431 15.8914 3.13872C14.9011 2.12313 13.5535 1.5342 12.1355 1.49731H11.8645C10.4465 1.5342 9.09895 2.12313 8.10866 3.13872C7.11838 4.15431 6.56362 5.51633 6.56252 6.93481V7.49731H2.43752C2.38779 7.49731 2.3401 7.51707 2.30493 7.55223C2.26977 7.5874 2.25002 7.63509 2.25002 7.68481V21.7473C2.25002 21.9462 2.32903 22.137 2.46969 22.2776C2.61034 22.4183 2.8011 22.4973 3.00002 22.4973H21C21.1989 22.4973 21.3897 22.4183 21.5303 22.2776C21.671 22.137 21.75 21.9462 21.75 21.7473V7.68481C21.75 7.63509 21.7303 7.5874 21.6951 7.55223C21.6599 7.51707 21.6122 7.49731 21.5625 7.49731ZM8.43752 6.98169C8.43752 5.02044 10.0036 3.39294 11.9649 3.37231C12.4355 3.36817 12.9023 3.45723 13.3384 3.63436C13.7744 3.81149 14.1711 4.07318 14.5056 4.40436C14.84 4.73553 15.1056 5.12963 15.287 5.56393C15.4684 5.99823 15.562 6.46415 15.5625 6.93481V7.49731H8.43752V6.98169ZM15.75 15.7473H12.75V18.7473H11.25V15.7473H8.25002V14.2473H11.25V11.2473H12.75V14.2473H15.75V15.7473Z" fill="#666666"/>
</svg>
