<svg width="24" height="24" viewBox="0 0 24 24" fill="none" xmlns="http://www.w3.org/2000/svg">
<path d="M21.5626 7.49817H17.4376V6.93567C17.4364 5.51719 16.8817 4.15517 15.8914 3.13958C14.9011 2.12399 13.5535 1.53506 12.1355 1.49817H11.8646C10.4466 1.53506 9.09898 2.12399 8.1087 3.13958C7.11841 4.15517 6.56366 5.51719 6.56255 6.93567V7.49817H2.43755C2.38782 7.49817 2.34013 7.51792 2.30497 7.55309C2.26981 7.58825 2.25005 7.63594 2.25005 7.68567V21.7482C2.25005 21.9471 2.32907 22.1378 2.46972 22.2785C2.61037 22.4192 2.80114 22.4982 3.00005 22.4982H21.0001C21.199 22.4982 21.3897 22.4192 21.5304 22.2785C21.671 22.1378 21.7501 21.9471 21.7501 21.7482V7.68567C21.7501 7.63594 21.7303 7.58825 21.6951 7.55309C21.66 7.51792 21.6123 7.49817 21.5626 7.49817ZM8.43755 6.98254C8.43755 5.02129 10.0036 3.39379 11.9649 3.37317C12.4355 3.36902 12.9024 3.45808 13.3384 3.63521C13.7745 3.81234 14.1712 4.07404 14.5056 4.40521C14.8401 4.73638 15.1056 5.13048 15.287 5.56479C15.4684 5.99909 15.5621 6.465 15.5626 6.93567V7.49817H8.43755V6.98254ZM17.2501 11.2482C17.2501 12.6406 16.6969 13.9759 15.7124 14.9605C14.7278 15.945 13.3924 16.4982 12.0001 16.4982C10.6077 16.4982 9.27231 15.945 8.28774 14.9605C7.30318 13.9759 6.75005 12.6406 6.75005 11.2482V9.74817H8.25005V11.2482C8.25005 12.2427 8.64514 13.1966 9.3484 13.8998C10.0517 14.6031 11.0055 14.9982 12.0001 14.9982C12.9946 14.9982 13.9484 14.6031 14.6517 13.8998C15.355 13.1966 15.7501 12.2427 15.7501 11.2482V9.74817H17.2501V11.2482Z" fill="#666666"/>
</svg>
