<svg width="24" height="24" viewBox="0 0 24 24" fill="none" xmlns="http://www.w3.org/2000/svg">
<path d="M21.3117 7.93525C21.1727 7.79523 21.0073 7.68419 20.825 7.60855C20.6428 7.53292 20.4473 7.4942 20.25 7.49463H17.25V6.74463C17.25 5.35224 16.6969 4.01688 15.7123 3.03232C14.7278 2.04775 13.3924 1.49463 12 1.49463C10.6076 1.49463 9.27227 2.04775 8.2877 3.03232C7.30313 4.01688 6.75001 5.35224 6.75001 6.74463V7.49463H3.75001C3.35218 7.49463 2.97065 7.65267 2.68935 7.93397C2.40804 8.21527 2.25001 8.5968 2.25001 8.99463V19.1196C2.25001 20.9478 3.79688 22.4946 5.62501 22.4946H18.375C19.2593 22.4949 20.1086 22.1492 20.7413 21.5313C21.0596 21.2276 21.3132 20.8625 21.4866 20.4581C21.6599 20.0536 21.7496 19.6183 21.75 19.1782V8.99463C21.7506 8.79784 21.7122 8.60289 21.637 8.42105C21.5617 8.23921 21.4512 8.07409 21.3117 7.93525ZM8.25001 6.74463C8.25001 5.75007 8.6451 4.79624 9.34836 4.09298C10.0516 3.38972 11.0054 2.99463 12 2.99463C12.9946 2.99463 13.9484 3.38972 14.6517 4.09298C15.3549 4.79624 15.75 5.75007 15.75 6.74463V7.49463H8.25001V6.74463Z" fill="#666666"/>
</svg>
