<svg width="24" height="24" viewBox="0 0 24 24" fill="none" xmlns="http://www.w3.org/2000/svg">
<path d="M18.328 14.4026C19.8632 12.23 20.512 9.63874 20.1562 7.10515C19.522 2.60514 15.3459 -0.541576 10.8459 0.0931118C6.34586 0.727799 3.19867 4.89921 3.83101 9.39921C4.18586 11.9253 5.52414 14.2348 7.59836 15.9026C8.85977 16.917 10.2979 17.5948 11.632 17.84L11.2401 19.9601C11.2292 20.0187 11.2324 20.079 11.2495 20.1361C11.2666 20.1931 11.297 20.2453 11.3382 20.2883C11.3794 20.3312 11.4303 20.3638 11.4866 20.3832C11.5429 20.4026 11.603 20.4083 11.662 20.3998L13.078 20.2025C13.8234 21.8839 15.0304 23.0375 16.7535 23.7181L17.451 23.9937L18.0027 22.5992L17.3052 22.3231C16.0701 21.8347 15.2202 21.0969 14.6334 19.9831L15.6571 19.8392C15.716 19.831 15.7721 19.8088 15.8207 19.7746C15.8694 19.7404 15.9092 19.6952 15.9369 19.6426C15.9646 19.5899 15.9794 19.5315 15.98 19.4721C15.9807 19.4126 15.9672 19.3538 15.9407 19.3006L14.9802 17.3712C16.198 16.768 17.3938 15.7222 18.328 14.4026ZM10.7896 15.1367C8.85555 14.3717 7.21305 12.6664 6.50289 10.6864L6.24977 9.98046L7.66164 9.47421L7.91477 10.1801C8.59445 12.0758 10.1305 13.2631 11.3413 13.7426L12.0388 14.0183L11.4871 15.4133L10.7896 15.1367Z" fill="#666666"/>
</svg>
