<svg width="24" height="24" viewBox="0 0 24 24" fill="none" xmlns="http://www.w3.org/2000/svg">
<path d="M19.4114 7.2084C20.1404 12.3918 16.2118 16.7367 13.2441 17.1543C10.2764 17.572 5.29973 14.459 4.57223 9.29434C4.43529 8.32011 4.49159 7.32844 4.7379 6.37596C4.98422 5.42349 5.41572 4.52885 6.00778 3.74314C6.59984 2.95742 7.34086 2.29602 8.18854 1.79668C9.03621 1.29735 9.97393 0.969866 10.9482 0.832933C11.9224 0.695999 12.9141 0.752295 13.8665 0.998608C14.819 1.24492 15.7137 1.67643 16.4994 2.26849C17.2851 2.86055 17.9465 3.60157 18.4458 4.44924C18.9452 5.29691 19.2726 6.23464 19.4096 7.20887L19.4114 7.2084Z" stroke="#666666" stroke-width="1.5" stroke-miterlimit="10"/>
<path d="M11.0653 14.4383C9.52635 13.8289 7.92088 12.418 7.20885 10.4324M17.2359 23.2382C15.697 22.6288 14.2682 21.3603 13.5562 19.3752" stroke="#666666" stroke-width="1.5" stroke-miterlimit="10" stroke-linecap="round"/>
<path d="M12.502 17.2577L12.0721 19.5831L15.0398 19.1659L13.9856 17.0491L12.502 17.2577Z" stroke="#666666" stroke-width="1.5" stroke-linecap="round" stroke-linejoin="round"/>
</svg>
