<svg width="24" height="24" viewBox="0 0 24 24" fill="none" xmlns="http://www.w3.org/2000/svg">
<path d="M18.3281 14.4018C19.8633 12.2291 20.512 9.63787 20.1562 7.10427C20.0053 6.03252 19.6448 5.00099 19.0953 4.06858C18.5457 3.13616 17.8179 2.32112 16.9533 1.66999C16.0888 1.01886 15.1045 0.544393 14.0566 0.273682C13.0086 0.00297099 11.9177 -0.0586831 10.8459 0.0922397C6.34592 0.724584 3.19873 4.90068 3.83108 9.40068C4.18592 11.9268 5.5242 14.2363 7.59842 15.9041C8.75061 16.8266 10.0505 17.4744 11.2837 17.7641C11.377 17.7865 11.4581 17.8438 11.5104 17.9242C11.5627 18.0046 11.5823 18.102 11.565 18.1963L11.3367 19.4329C11.3035 19.6011 11.328 19.7757 11.4061 19.9283C11.4695 20.0501 11.5651 20.1521 11.6824 20.2232C11.7998 20.2944 11.9344 20.332 12.0717 20.3319C12.1067 20.332 12.1416 20.3295 12.1762 20.3244L13.0111 20.2072C13.031 20.2045 13.0512 20.2082 13.0689 20.2178C13.0865 20.2274 13.1006 20.2424 13.109 20.2607C13.8928 21.9627 15.24 23.2536 16.9598 23.9338C17.054 23.971 17.1547 23.9888 17.2558 23.986C17.357 23.9832 17.4566 23.96 17.5486 23.9178C17.6406 23.8755 17.723 23.8151 17.791 23.7401C17.859 23.6651 17.9111 23.5771 17.9442 23.4815C18.0769 23.098 17.8673 22.6813 17.4905 22.5308C16.3138 22.0608 15.333 21.2027 14.7108 20.099C14.7029 20.0857 14.6984 20.0706 14.6978 20.0552C14.6971 20.0397 14.7003 20.0243 14.707 20.0104C14.7138 19.9965 14.7238 19.9845 14.7363 19.9754C14.7489 19.9663 14.7634 19.9604 14.7787 19.9583L15.1256 19.9115C15.3071 19.8881 15.4745 19.8012 15.5981 19.6663C15.6981 19.5544 15.7623 19.4151 15.7822 19.2663C15.8022 19.1176 15.7771 18.9662 15.7101 18.8319L15.1448 17.6961C15.1019 17.6099 15.0938 17.5104 15.1222 17.4183C15.1507 17.3262 15.2135 17.2486 15.2976 17.2016C16.4034 16.5843 17.475 15.6079 18.3281 14.4018ZM11.0672 15.1883C10.9728 15.1883 10.8793 15.1705 10.7915 15.1358C8.85748 14.3708 7.21498 12.6655 6.50483 10.6855C6.47022 10.5925 6.45441 10.4936 6.45833 10.3944C6.46225 10.2952 6.48581 10.1978 6.52764 10.1078C6.56948 10.0178 6.62876 9.93703 6.70205 9.87011C6.77534 9.80319 6.86118 9.75149 6.9546 9.71799C7.04802 9.68449 7.14716 9.66987 7.24628 9.67497C7.34539 9.68007 7.44251 9.70479 7.532 9.74769C7.62148 9.7906 7.70157 9.85084 7.76761 9.92492C7.83364 9.99901 7.88432 10.0855 7.9167 10.1793C8.59639 12.0749 10.1325 13.2622 11.3433 13.7418C11.5056 13.8059 11.6405 13.9248 11.7247 14.0778C11.8089 14.2307 11.837 14.4083 11.8043 14.5798C11.7716 14.7513 11.6801 14.906 11.5455 15.0173C11.4109 15.1285 11.2418 15.1894 11.0672 15.1893V15.1883Z" fill="#666666"/>
</svg>
