<svg width="24" height="24" viewBox="0 0 24 24" fill="none" xmlns="http://www.w3.org/2000/svg">
<path d="M19.4246 4.57064C18.4513 3.58774 17.2935 2.80684 16.0175 2.27278C14.7415 1.73873 13.3726 1.46205 11.9894 1.45865C10.6061 1.45525 9.23588 1.72518 7.95729 2.25295C6.6787 2.78071 5.517 3.55591 4.53891 4.534C3.56081 5.51209 2.78562 6.6738 2.25785 7.95238C1.73009 9.23097 1.46015 10.6012 1.46356 11.9845C1.46696 13.3677 1.74364 14.7366 2.27769 16.0126C2.81174 17.2886 3.59265 18.4464 4.57554 19.4197C5.54881 20.4026 6.70669 21.1835 7.98266 21.7176C9.25863 22.2516 10.6276 22.5283 12.0108 22.5317C13.394 22.5351 14.7643 22.2652 16.0429 21.7374C17.3214 21.2096 18.4832 20.4344 19.4612 19.4563C20.4393 18.4783 21.2145 17.3165 21.7423 16.038C22.2701 14.7594 22.54 13.3891 22.5366 12.0059C22.5332 10.6226 22.2565 9.25373 21.7225 7.97775C21.1884 6.70178 20.4075 5.5439 19.4246 4.57064ZM20.2501 11.9952C20.2518 13.7945 19.6622 15.5446 18.572 16.9761L7.01914 5.42329C8.4506 4.33303 10.2007 3.74341 12.0001 3.74517C16.5493 3.74517 20.2501 7.44829 20.2501 11.9952ZM3.75007 11.9952C3.74831 10.1958 4.33794 8.4457 5.4282 7.01423L16.981 18.567C15.5496 19.6573 13.7995 20.2469 12.0001 20.2452C7.4532 20.2452 3.75007 16.5444 3.75007 11.9952Z" fill="#666666"/>
</svg>
