<svg width="24" height="24" viewBox="0 0 24 24" fill="none" xmlns="http://www.w3.org/2000/svg">
<path d="M1.29895 15.7994C0.947727 16.1509 0.750443 16.6276 0.750443 17.1245C0.750443 17.6215 0.947727 18.0981 1.29895 18.4497L5.54817 22.6989C5.89974 23.0501 6.37637 23.2474 6.87332 23.2474C7.37028 23.2474 7.8469 23.0501 8.19848 22.6989L11.7188 19.1786L4.81926 12.279L1.29895 15.7994ZM23.25 6.89311C23.2508 6.64596 23.2024 6.40113 23.1079 6.17278C23.0134 5.94443 22.8745 5.7371 22.6993 5.5628L18.4336 1.29717C18.0808 0.944545 17.6024 0.74646 17.1036 0.74646C16.6047 0.74646 16.1263 0.944545 15.7735 1.29717L12.375 4.69842L19.2994 11.6228L22.6993 8.22295C22.8745 8.04873 23.0133 7.84148 23.1079 7.61321C23.2024 7.38494 23.2507 7.14018 23.25 6.89311ZM12.7997 18.1005L18.2372 12.663L11.333 5.76342L5.89551 11.2009L12.7997 18.1005ZM13.7199 11.4676C13.8248 11.3627 13.9584 11.2912 14.1039 11.2622C14.2494 11.2333 14.4002 11.2481 14.5373 11.3048C14.6744 11.3616 14.7915 11.4577 14.874 11.5811C14.9564 11.7044 15.0004 11.8494 15.0004 11.9978C15.0004 12.1462 14.9564 12.2912 14.874 12.4145C14.7915 12.5379 14.6744 12.634 14.5373 12.6908C14.4002 12.7475 14.2494 12.7623 14.1039 12.7333C13.9584 12.7044 13.8248 12.6329 13.7199 12.528C13.5793 12.3873 13.5004 12.1966 13.5004 11.9978C13.5004 11.799 13.5793 11.6083 13.7199 11.4676ZM11.4699 9.21764C11.5748 9.1127 11.7084 9.04122 11.8539 9.01224C11.9994 8.98326 12.1502 8.99809 12.2873 9.05484C12.4244 9.11159 12.5415 9.20772 12.624 9.33107C12.7064 9.45441 12.7504 9.59944 12.7504 9.7478C12.7504 9.89615 12.7064 10.0412 12.624 10.1645C12.5415 10.2879 12.4244 10.384 12.2873 10.4408C12.1502 10.4975 11.9994 10.5123 11.8539 10.4833C11.7084 10.4544 11.5748 10.3829 11.4699 10.278C11.3293 10.1373 11.2504 9.94662 11.2504 9.7478C11.2504 9.54897 11.3293 9.35828 11.4699 9.21764ZM11.4699 13.7176C11.5748 13.6127 11.7084 13.5412 11.8539 13.5122C11.9994 13.4833 12.1502 13.4981 12.2873 13.5548C12.4244 13.6116 12.5415 13.7077 12.624 13.8311C12.7064 13.9544 12.7504 14.0994 12.7504 14.2478C12.7504 14.3962 12.7064 14.5412 12.624 14.6645C12.5415 14.7879 12.4244 14.884 12.2873 14.9408C12.1502 14.9975 11.9994 15.0123 11.8539 14.9833C11.7084 14.9544 11.5748 14.8829 11.4699 14.778C11.3293 14.6373 11.2504 14.4466 11.2504 14.2478C11.2504 14.049 11.3293 13.8583 11.4699 13.7176ZM10.2802 11.4676C10.3851 11.5725 10.4566 11.7061 10.4856 11.8516C10.5146 11.9971 10.4998 12.148 10.443 12.285C10.3862 12.4221 10.2901 12.5393 10.1668 12.6217C10.0434 12.7041 9.8984 12.7481 9.75004 12.7481C9.60169 12.7481 9.45666 12.7041 9.33331 12.6217C9.20997 12.5393 9.11384 12.4221 9.05709 12.285C9.00033 12.148 8.98551 11.9971 9.01449 11.8516C9.04347 11.7061 9.11495 11.5725 9.21989 11.4676C9.36053 11.3271 9.55122 11.2481 9.75004 11.2481C9.94887 11.2481 10.1396 11.3271 10.2802 11.4676Z" fill="#666666"/>
</svg>
