<svg width="24" height="24" viewBox="0 0 24 24" fill="none" xmlns="http://www.w3.org/2000/svg">
<path d="M12.9281 7.35668C12.8584 7.28702 12.7757 7.23176 12.6847 7.19406C12.5937 7.15636 12.4962 7.13695 12.3977 7.13695C12.2992 7.13695 12.2016 7.15636 12.1106 7.19406C12.0196 7.23176 11.9369 7.28702 11.8673 7.35668L7.49198 11.732C7.42232 11.8016 7.36706 11.8843 7.32935 11.9753C7.29165 12.0663 7.27225 12.1639 7.27225 12.2624C7.27225 12.3609 7.29165 12.4584 7.32935 12.5494C7.36706 12.6404 7.42232 12.7231 7.49198 12.7928L11.2045 16.5053C11.2741 16.5749 11.3568 16.6302 11.4478 16.6679C11.5388 16.7056 11.6364 16.725 11.7349 16.725C11.8334 16.725 11.9309 16.7056 12.0219 16.6679C12.1129 16.6302 12.1956 16.5749 12.2653 16.5053L16.6406 12.13C16.7102 12.0603 16.7655 11.9776 16.8032 11.8866C16.8409 11.7956 16.8603 11.6981 16.8603 11.5996C16.8603 11.5011 16.8409 11.4035 16.8032 11.3125C16.7655 11.2215 16.7102 11.1388 16.6406 11.0692L12.9281 7.35668ZM10.2801 12.5275C10.1752 12.6324 10.0416 12.7039 9.8961 12.7329C9.7506 12.7618 9.59977 12.747 9.4627 12.6903C9.32563 12.6335 9.20846 12.5374 9.12603 12.414C9.0436 12.2907 8.9996 12.1457 8.9996 11.9973C8.9996 11.849 9.0436 11.7039 9.12603 11.5806C9.20846 11.4572 9.32563 11.3611 9.4627 11.3044C9.59977 11.2476 9.7506 11.2328 9.8961 11.2618C10.0416 11.2907 10.1752 11.3622 10.2801 11.4672C10.4206 11.6078 10.4996 11.7985 10.4996 11.9973C10.4996 12.1961 10.4206 12.3868 10.2801 12.5275ZM12.5301 14.7775C12.4252 14.8824 12.2916 14.9539 12.1461 14.9829C12.0006 15.0118 11.8498 14.997 11.7127 14.9403C11.5756 14.8835 11.4585 14.7874 11.376 14.664C11.2936 14.5407 11.2496 14.3957 11.2496 14.2473C11.2496 14.099 11.2936 13.9539 11.376 13.8306C11.4585 13.7072 11.5756 13.6111 11.7127 13.5544C11.8498 13.4976 12.0006 13.4828 12.1461 13.5118C12.2916 13.5407 12.4252 13.6122 12.5301 13.7172C12.6707 13.8578 12.7496 14.0485 12.7496 14.2473C12.7496 14.4461 12.6707 14.6368 12.5301 14.7775ZM12.5301 10.2775C12.4252 10.3824 12.2916 10.4539 12.1461 10.4829C12.0006 10.5118 11.8498 10.497 11.7127 10.4403C11.5756 10.3835 11.4585 10.2874 11.376 10.164C11.2936 10.0407 11.2496 9.89567 11.2496 9.74731C11.2496 9.59895 11.2936 9.45393 11.376 9.33058C11.4585 9.20723 11.5756 9.1111 11.7127 9.05435C11.8498 8.9976 12.0006 8.98278 12.1461 9.01176C12.2916 9.04074 12.4252 9.11222 12.5301 9.21715C12.6707 9.35779 12.7496 9.54848 12.7496 9.74731C12.7496 9.94614 12.6707 10.1368 12.5301 10.2775ZM14.7801 12.5275C14.6752 12.6324 14.5416 12.7039 14.3961 12.7329C14.2506 12.7618 14.0998 12.747 13.9627 12.6903C13.8256 12.6335 13.7085 12.5374 13.626 12.414C13.5436 12.2907 13.4996 12.1457 13.4996 11.9973C13.4996 11.849 13.5436 11.7039 13.626 11.5806C13.7085 11.4572 13.8256 11.3611 13.9627 11.3044C14.0998 11.2476 14.2506 11.2328 14.3961 11.2618C14.5416 11.2907 14.6752 11.3622 14.7801 11.4672C14.9207 11.6078 14.9996 11.7985 14.9996 11.9973C14.9996 12.1961 14.9207 12.3868 14.7801 12.5275ZM21.8254 2.17184C20.9085 1.25949 19.6677 0.747314 18.3742 0.747314C17.0808 0.747314 15.8399 1.25949 14.9231 2.17184L11.6531 5.44793C11.623 5.47815 11.6042 5.5177 11.5997 5.56005C11.5951 5.60241 11.6051 5.64505 11.628 5.68096C11.651 5.71687 11.6854 5.7439 11.7258 5.75761C11.7661 5.77132 11.8099 5.77088 11.8499 5.75637C12.0246 5.68618 12.2099 5.64593 12.3979 5.63731C12.6935 5.63655 12.9863 5.69441 13.2594 5.80754C13.5325 5.92066 13.7804 6.08681 13.9889 6.29637L17.7009 10.0084C17.9104 10.2169 18.0766 10.4648 18.1897 10.7379C18.3028 11.011 18.3607 11.3038 18.3599 11.5993C18.3514 11.7874 18.3111 11.9727 18.2409 12.1473C18.2264 12.1874 18.2259 12.2312 18.2396 12.2715C18.2534 12.3118 18.2804 12.3463 18.3163 12.3692C18.3522 12.3921 18.3948 12.4021 18.4372 12.3976C18.4796 12.393 18.5191 12.3742 18.5493 12.3442L21.8254 9.07418C22.7378 8.15731 23.2499 6.91647 23.2499 5.62301C23.2499 4.32955 22.7378 3.08871 21.8254 2.17184Z" fill="#666666"/>
<path d="M11.9223 18.1276C11.6269 18.1282 11.3344 18.0706 11.0614 17.958C10.7884 17.8453 10.5403 17.68 10.3313 17.4714L6.61928 13.7575C6.43698 13.5754 6.28744 13.3632 6.17725 13.1303C5.96209 12.6756 6.11209 11.9584 6.2935 11.4006C6.30551 11.3607 6.30389 11.318 6.2889 11.2791C6.27391 11.2402 6.2464 11.2074 6.21071 11.1859C6.17503 11.1645 6.1332 11.1555 6.09183 11.1604C6.05046 11.1653 6.0119 11.1838 5.98225 11.2131L2.36209 14.8244C1.44679 15.7397 0.932571 16.9811 0.932571 18.2755C0.932571 19.57 1.44679 20.8114 2.36209 21.7267C3.2774 22.642 4.51883 23.1562 5.81327 23.1562C7.10771 23.1562 8.34913 22.642 9.26444 21.7267L12.6746 18.3105C12.7048 18.2802 12.7237 18.2406 12.7283 18.1982C12.7328 18.1557 12.7228 18.113 12.6998 18.077C12.6768 18.041 12.6422 18.014 12.6017 18.0003C12.5612 17.9867 12.5173 17.9873 12.4773 18.002C12.2813 18.0761 12.0835 18.1276 11.9223 18.1276Z" fill="#666666"/>
</svg>
