<svg width="24" height="24" viewBox="0 0 24 24" fill="none" xmlns="http://www.w3.org/2000/svg">
<g clip-path="url(#clip0_32_467)">
<path d="M15.4537 2.70003L2.70494 15.4488C1.09183 17.0619 1.09183 19.6773 2.70494 21.2904L2.70527 21.2908C4.31838 22.9039 6.93375 22.9039 8.54686 21.2908L21.2957 8.54195C22.9088 6.92884 22.9088 4.31347 21.2957 2.70036L21.2953 2.70003C19.6822 1.08692 17.0669 1.08692 15.4537 2.70003Z" stroke="#666666" stroke-width="1.5" stroke-linecap="round" stroke-linejoin="round"/>
<path d="M17.1703 10.5404L13.458 6.82812C12.8722 6.24233 11.9224 6.24233 11.3366 6.82812L6.96142 11.2033C6.37563 11.7891 6.37563 12.7389 6.96142 13.3247L10.6737 17.037C11.2595 17.6228 12.2093 17.6228 12.795 17.037L17.1703 12.6617C17.7561 12.076 17.7561 11.1262 17.1703 10.5404Z" stroke="#666666" stroke-width="1.5" stroke-linecap="round" stroke-linejoin="round"/>
<path d="M12.0001 10.4946C12.4143 10.4946 12.7501 10.1588 12.7501 9.74463C12.7501 9.33042 12.4143 8.99463 12.0001 8.99463C11.5859 8.99463 11.2501 9.33042 11.2501 9.74463C11.2501 10.1588 11.5859 10.4946 12.0001 10.4946Z" fill="#666666"/>
<path d="M14.25 12.7483C14.6642 12.7483 15 12.4125 15 11.9983C15 11.5841 14.6642 11.2483 14.25 11.2483C13.8358 11.2483 13.5 11.5841 13.5 11.9983C13.5 12.4125 13.8358 12.7483 14.25 12.7483Z" fill="#666666"/>
<path d="M9.74999 12.7483C10.1642 12.7483 10.5 12.4125 10.5 11.9983C10.5 11.5841 10.1642 11.2483 9.74999 11.2483C9.33578 11.2483 8.99999 11.5841 8.99999 11.9983C8.99999 12.4125 9.33578 12.7483 9.74999 12.7483Z" fill="#666666"/>
<path d="M12.0001 14.9973C12.4143 14.9973 12.7501 14.6615 12.7501 14.2473C12.7501 13.8331 12.4143 13.4973 12.0001 13.4973C11.5859 13.4973 11.2501 13.8331 11.2501 14.2473C11.2501 14.6615 11.5859 14.9973 12.0001 14.9973Z" fill="#666666"/>
</g>
<defs>
<clipPath id="clip0_32_467">
<rect width="24" height="24" fill="white"/>
</clipPath>
</defs>
</svg>
