<svg width="24" height="24" viewBox="0 0 24 24" fill="none" xmlns="http://www.w3.org/2000/svg">
<g clip-path="url(#clip0_32_480)">
<path d="M1.49998 1.49548V21.7455C1.49998 21.9444 1.57899 22.1352 1.71965 22.2758C1.8603 22.4165 2.05106 22.4955 2.24998 22.4955H22.5" stroke="#666666" stroke-width="1.5" stroke-linecap="round" stroke-linejoin="round"/>
<path d="M7.31259 10.4965H5.43759C4.91982 10.4965 4.50009 10.9162 4.50009 11.434V18.559C4.50009 19.0767 4.91982 19.4965 5.43759 19.4965H7.31259C7.83036 19.4965 8.25009 19.0767 8.25009 18.559V11.434C8.25009 10.9162 7.83036 10.4965 7.31259 10.4965Z" stroke="#666666" stroke-width="1.5" stroke-linecap="round" stroke-linejoin="round"/>
<path d="M14.0624 8.24731H12.1874C11.6697 8.24731 11.2499 8.66705 11.2499 9.18481V18.5598C11.2499 19.0776 11.6697 19.4973 12.1874 19.4973H14.0624C14.5802 19.4973 14.9999 19.0776 14.9999 18.5598V9.18481C14.9999 8.66705 14.5802 8.24731 14.0624 8.24731Z" stroke="#666666" stroke-width="1.5" stroke-linecap="round" stroke-linejoin="round"/>
<path d="M20.7956 5.25H18.9206C18.4029 5.25 17.9831 5.66973 17.9831 6.1875V18.5625C17.9831 19.0803 18.4029 19.5 18.9206 19.5H20.7956C21.3134 19.5 21.7331 19.0803 21.7331 18.5625V6.1875C21.7331 5.66973 21.3134 5.25 20.7956 5.25Z" stroke="#666666" stroke-width="1.5" stroke-linecap="round" stroke-linejoin="round"/>
</g>
<defs>
<clipPath id="clip0_32_480">
<rect width="24" height="24" fill="white"/>
</clipPath>
</defs>
</svg>
