<svg width="24" height="24" viewBox="0 0 24 24" fill="none" xmlns="http://www.w3.org/2000/svg">
<path d="M22.4999 23.2473H2.24993C1.85211 23.2473 1.47058 23.0893 1.18927 22.808C0.907967 22.5267 0.749931 22.1451 0.749931 21.7473V1.49731C0.749931 1.2984 0.828949 1.10764 0.969601 0.966984C1.11025 0.826332 1.30102 0.747314 1.49993 0.747314C1.69884 0.747314 1.88961 0.826332 2.03026 0.966984C2.17091 1.10764 2.24993 1.2984 2.24993 1.49731V21.7473H22.4999C22.6988 21.7473 22.8896 21.8263 23.0303 21.967C23.1709 22.1076 23.2499 22.2984 23.2499 22.4973C23.2499 22.6962 23.1709 22.887 23.0303 23.0277C22.8896 23.1683 22.6988 23.2473 22.4999 23.2473Z" fill="#666666"/>
<path d="M7.31255 20.2473H5.43755C4.98999 20.2473 4.56077 20.0695 4.2443 19.7531C3.92784 19.4366 3.75005 19.0074 3.75005 18.5598V11.4348C3.75005 10.9873 3.92784 10.558 4.2443 10.2416C4.56077 9.92511 4.98999 9.74732 5.43755 9.74732H7.31255C7.7601 9.74732 8.18932 9.92511 8.50579 10.2416C8.82226 10.558 9.00005 10.9873 9.00005 11.4348V18.5598C9.00005 19.0074 8.82226 19.4366 8.50579 19.7531C8.18932 20.0695 7.7601 20.2473 7.31255 20.2473ZM14.0625 20.2473H12.1875C11.74 20.2473 11.3108 20.0695 10.9943 19.7531C10.6778 19.4366 10.5 19.0074 10.5 18.5598V9.18482C10.5 8.73726 10.6778 8.30804 10.9943 7.99157C11.3108 7.6751 11.74 7.49731 12.1875 7.49731H14.0625C14.5101 7.49731 14.9393 7.6751 15.2558 7.99157C15.5723 8.30804 15.75 8.73726 15.75 9.18482V18.5598C15.75 19.0074 15.5723 19.4366 15.2558 19.7531C14.9393 20.0695 14.5101 20.2473 14.0625 20.2473ZM20.7957 20.2473H18.9207C18.4731 20.2473 18.0439 20.0695 17.7274 19.7531C17.411 19.4366 17.2332 19.0074 17.2332 18.5598V6.18481C17.2332 5.73726 17.411 5.30804 17.7274 4.99157C18.0439 4.6751 18.4731 4.49731 18.9207 4.49731H20.7957C21.2432 4.49731 21.6725 4.6751 21.9889 4.99157C22.3054 5.30804 22.4832 5.73726 22.4832 6.18481V18.5598C22.4832 19.0074 22.3054 19.4366 21.9889 19.7531C21.6725 20.0695 21.2432 20.2473 20.7957 20.2473Z" fill="#666666"/>
</svg>
