<svg width="24" height="24" viewBox="0 0 24 24" fill="none" xmlns="http://www.w3.org/2000/svg">
<path d="M2.25005 11.9973H21.7501" stroke="#666666" stroke-width="1.5" stroke-linecap="round" stroke-linejoin="round"/>
<path d="M19.4999 6.74829C19.4999 6.33408 19.1642 5.99829 18.7499 5.99829C18.3357 5.99829 17.9999 6.33408 17.9999 6.74829V17.2483C17.9999 17.6625 18.3357 17.9983 18.7499 17.9983C19.1642 17.9983 19.4999 17.6625 19.4999 17.2483V6.74829Z" stroke="#666666" stroke-width="1.5" stroke-linecap="round" stroke-linejoin="round"/>
<path d="M6 6.74829C6 6.33408 5.66421 5.99829 5.25 5.99829C4.83578 5.99829 4.5 6.33408 4.5 6.74829V17.2483C4.5 17.6625 4.83578 17.9983 5.25 17.9983C5.66421 17.9983 6 17.6625 6 17.2483V6.74829Z" stroke="#666666" stroke-width="1.5" stroke-linecap="round" stroke-linejoin="round"/>
<path d="M2.25002 9.37048C2.25002 9.16338 2.08213 8.99548 1.87502 8.99548C1.66792 8.99548 1.50002 9.16338 1.50002 9.37048V14.6205C1.50002 14.8276 1.66792 14.9955 1.87502 14.9955C2.08213 14.9955 2.25002 14.8276 2.25002 14.6205V9.37048Z" stroke="#666666" stroke-width="1.5" stroke-linecap="round" stroke-linejoin="round"/>
<path d="M22.5001 9.37048C22.5001 9.16338 22.3322 8.99548 22.1251 8.99548C21.918 8.99548 21.7501 9.16338 21.7501 9.37048V14.6205C21.7501 14.8276 21.918 14.9955 22.1251 14.9955C22.3322 14.9955 22.5001 14.8276 22.5001 14.6205V9.37048Z" stroke="#666666" stroke-width="1.5" stroke-linecap="round" stroke-linejoin="round"/>
</svg>
