<svg width="24" height="24" viewBox="0 0 24 24" fill="none" xmlns="http://www.w3.org/2000/svg">
<path d="M21.8906 8.24558C21.6598 8.23808 21.4308 8.28763 21.2238 8.38984C21.0167 8.49205 20.8381 8.64376 20.7037 8.83152C20.6923 8.84786 20.676 8.86015 20.6571 8.86659C20.6383 8.87302 20.6179 8.87328 20.5988 8.86733C20.5798 8.86137 20.5632 8.84951 20.5514 8.83346C20.5396 8.81741 20.5332 8.79801 20.5331 8.77808V7.06012C20.5331 6.08746 19.7672 5.26902 18.795 5.24605C18.5573 5.24005 18.3209 5.28167 18.0996 5.36846C17.8783 5.45526 17.6766 5.58547 17.5064 5.75142C17.3362 5.91738 17.201 6.11572 17.1086 6.33477C17.0163 6.55381 16.9687 6.78912 16.9687 7.02683V10.8706C16.9687 10.8954 16.9589 10.9193 16.9413 10.9369C16.9237 10.9545 16.8998 10.9643 16.875 10.9643H7.12498C7.10012 10.9643 7.07627 10.9545 7.05869 10.9369C7.04111 10.9193 7.03123 10.8954 7.03123 10.8706V7.06012C7.03123 6.08746 6.26529 5.26902 5.29311 5.24605C5.05562 5.2403 4.81939 5.28211 4.59831 5.36902C4.37723 5.45593 4.17576 5.58618 4.00577 5.75211C3.83577 5.91804 3.70069 6.1163 3.60846 6.33521C3.51623 6.55413 3.46872 6.78928 3.46873 7.02683V8.77902C3.46868 8.79895 3.46229 8.81835 3.45047 8.8344C3.43865 8.85045 3.42202 8.86231 3.403 8.86827C3.38398 8.87422 3.36356 8.87396 3.34469 8.86752C3.32583 8.86108 3.30951 8.8488 3.2981 8.83246C3.16366 8.64426 2.98479 8.4922 2.77739 8.38981C2.57 8.28742 2.34052 8.23788 2.10935 8.24558C1.34529 8.26949 0.749979 8.91637 0.749979 9.6809V14.3084C0.749979 15.0729 1.34717 15.7198 2.10935 15.7437C2.34012 15.7512 2.56917 15.7017 2.77621 15.5995C2.98324 15.4972 3.16186 15.3455 3.29623 15.1578C3.30736 15.1405 3.32386 15.1273 3.3432 15.1204C3.36253 15.1134 3.38363 15.1129 3.40323 15.1191C3.42284 15.1253 3.43987 15.1378 3.45171 15.1546C3.46354 15.1714 3.46952 15.1916 3.46873 15.2121V16.9311C3.46873 17.9018 4.23467 18.7221 5.20686 18.7456C5.44438 18.7513 5.68065 18.7095 5.90176 18.6226C6.12287 18.5356 6.32436 18.4053 6.49436 18.2394C6.66436 18.0734 6.79944 17.8751 6.89164 17.6561C6.98384 17.4371 7.0313 17.2019 7.03123 16.9643V13.1206C7.03123 13.0957 7.04111 13.0719 7.05869 13.0543C7.07627 13.0367 7.10012 13.0268 7.12498 13.0268H16.875C16.8998 13.0268 16.9237 13.0367 16.9413 13.0543C16.9589 13.0719 16.9687 13.0957 16.9687 13.1206V16.9311C16.9687 17.9037 17.7347 18.7221 18.7069 18.7451C18.9443 18.7509 19.1806 18.7091 19.4017 18.6222C19.6227 18.5352 19.8242 18.405 19.9942 18.2391C20.1642 18.0731 20.2993 17.8749 20.3915 17.656C20.4837 17.437 20.5312 17.2019 20.5312 16.9643V15.2121C20.5313 15.1922 20.5377 15.1728 20.5495 15.1568C20.5613 15.1407 20.5779 15.1289 20.597 15.1229C20.616 15.1169 20.6364 15.1172 20.6553 15.1236C20.6741 15.1301 20.6905 15.1424 20.7019 15.1587C20.8363 15.3469 21.0152 15.499 21.2226 15.6014C21.43 15.7037 21.6594 15.7533 21.8906 15.7456C22.6547 15.7217 23.25 15.0748 23.25 14.3103V9.68183C23.25 8.9173 22.6528 8.27043 21.8906 8.24558Z" fill="#666666"/>
</svg>
