<svg width="24" height="24" viewBox="0 0 24 24" fill="none" xmlns="http://www.w3.org/2000/svg">
<path d="M19.6468 4.49731H19.6407L17.9977 4.51278L6.00008 4.49731H5.99258L4.27039 4.51278C3.13742 4.51513 2.25008 5.4381 2.25008 6.61606V17.41C2.25008 18.5889 3.1407 19.5128 4.27508 19.5128H4.28211L6.00289 19.4973L17.9991 19.5128H18.0071L19.651 19.4973C20.208 19.4957 20.7416 19.2735 21.135 18.8792C21.5284 18.485 21.7496 17.951 21.7501 17.394V6.6006C21.7495 6.04296 21.5277 5.50834 21.1334 5.11404C20.739 4.71973 20.2044 4.49793 19.6468 4.49731ZM6.75008 14.9973C6.75008 15.1962 6.67106 15.387 6.53041 15.5276C6.38975 15.6683 6.19899 15.7473 6.00008 15.7473C5.80116 15.7473 5.6104 15.6683 5.46975 15.5276C5.32909 15.387 5.25008 15.1962 5.25008 14.9973V8.99732C5.25008 8.7984 5.32909 8.60764 5.46975 8.46699C5.6104 8.32633 5.80116 8.24731 6.00008 8.24731C6.19899 8.24731 6.38975 8.32633 6.53041 8.46699C6.67106 8.60764 6.75008 8.7984 6.75008 8.99732V14.9973ZM9.75008 16.4973C9.75008 16.6962 9.67106 16.887 9.53041 17.0276C9.38975 17.1683 9.19899 17.2473 9.00008 17.2473C8.80116 17.2473 8.6104 17.1683 8.46975 17.0276C8.32909 16.887 8.25008 16.6962 8.25008 16.4973V7.49731C8.25008 7.2984 8.32909 7.10764 8.46975 6.96698C8.6104 6.82633 8.80116 6.74731 9.00008 6.74731C9.19899 6.74731 9.38975 6.82633 9.53041 6.96698C9.67106 7.10764 9.75008 7.2984 9.75008 7.49731V16.4973ZM12.7501 15.7473C12.7501 15.9462 12.6711 16.137 12.5304 16.2776C12.3898 16.4183 12.199 16.4973 12.0001 16.4973C11.8012 16.4973 11.6104 16.4183 11.4697 16.2776C11.3291 16.137 11.2501 15.9462 11.2501 15.7473V8.24731C11.2501 8.0484 11.3291 7.85764 11.4697 7.71698C11.6104 7.57633 11.8012 7.49731 12.0001 7.49731C12.199 7.49731 12.3898 7.57633 12.5304 7.71698C12.6711 7.85764 12.7501 8.0484 12.7501 8.24731V15.7473ZM15.7501 16.4973C15.7501 16.6962 15.6711 16.887 15.5304 17.0276C15.3898 17.1683 15.199 17.2473 15.0001 17.2473C14.8012 17.2473 14.6104 17.1683 14.4697 17.0276C14.3291 16.887 14.2501 16.6962 14.2501 16.4973V7.49731C14.2501 7.2984 14.3291 7.10764 14.4697 6.96698C14.6104 6.82633 14.8012 6.74731 15.0001 6.74731C15.199 6.74731 15.3898 6.82633 15.5304 6.96698C15.6711 7.10764 15.7501 7.2984 15.7501 7.49731V16.4973ZM18.7501 14.9973C18.7501 15.1962 18.6711 15.387 18.5304 15.5276C18.3898 15.6683 18.199 15.7473 18.0001 15.7473C17.8012 15.7473 17.6104 15.6683 17.4697 15.5276C17.3291 15.387 17.2501 15.1962 17.2501 14.9973V8.99732C17.2501 8.7984 17.3291 8.60764 17.4697 8.46699C17.6104 8.32633 17.8012 8.24731 18.0001 8.24731C18.199 8.24731 18.3898 8.32633 18.5304 8.46699C18.6711 8.60764 18.7501 8.7984 18.7501 8.99732V14.9973Z" fill="#666666"/>
</svg>
