<svg width="24" height="24" viewBox="0 0 24 24" fill="none" xmlns="http://www.w3.org/2000/svg">
<path d="M5.99998 9V15M18 18.7655L19.6467 18.75C20.0051 18.7484 20.3484 18.6053 20.6018 18.3519C20.8553 18.0984 20.9984 17.7551 21 17.3967V6.60328C20.9984 6.24486 20.8553 5.90158 20.6018 5.64814C20.3484 5.3947 20.0051 5.2516 19.6467 5.25L18 5.26547V18.7655ZM5.99998 5.25L4.27498 5.26547C3.53061 5.26547 2.99998 5.87484 2.99998 6.61875V17.4127C2.99998 18.1566 3.53061 18.7655 4.27498 18.7655L5.99998 18.75V5.25ZM18 9V15V9ZM15 7.5V16.5V7.5ZM12 8.25V15.75V8.25ZM8.99999 7.5V16.5V7.5Z" stroke="#666666" stroke-width="1.5" stroke-linecap="round" stroke-linejoin="round"/>
</svg>
