<svg width="24" height="24" viewBox="0 0 24 24" fill="none" xmlns="http://www.w3.org/2000/svg">
<path d="M18.9093 10.2052L18.0847 13.0444M13.7929 5.08875L10.9537 5.91328L13.7929 5.08875ZM14.8654 7.31578L12.4513 9.02203L14.8654 7.31578ZM16.6822 9.13265L14.976 11.5467L16.6822 9.13265Z" stroke="#666666" stroke-width="1.5" stroke-linecap="round" stroke-linejoin="round"/>
<path d="M12 20.9973C16.9705 20.9973 21 16.9679 21 11.9973C21 7.02675 16.9705 2.99731 12 2.99731C7.02941 2.99731 2.99997 7.02675 2.99997 11.9973C2.99997 16.9679 7.02941 20.9973 12 20.9973Z" stroke="#666666" stroke-width="1.5" stroke-linecap="round" stroke-linejoin="round"/>
<path d="M20.2941 11.9544C18.1254 11.78 16.0933 10.8259 14.5739 9.26864C13.0545 7.7114 12.1506 5.65646 12.0296 3.48413M5.08785 13.7948L5.91238 10.9555M7.31488 14.8673L9.02113 12.4532M9.13176 16.6841L11.5458 14.9779M10.2043 18.9112L13.0435 18.0866M11.9532 20.3244C11.7853 18.1506 10.834 16.1115 9.27604 14.5862C7.71805 13.0609 5.65932 12.1531 3.48238 12.0313" stroke="#666666" stroke-width="1.5" stroke-linecap="round" stroke-linejoin="round"/>
</svg>
