<svg width="24" height="24" viewBox="0 0 24 24" fill="none" xmlns="http://www.w3.org/2000/svg">
<path d="M20.8126 13.8581L20.7906 12.6361C20.1713 12.6216 19.5548 12.5473 18.9498 12.4144L18.7154 13.2277C18.6931 13.3123 18.654 13.3916 18.6006 13.4609C18.5471 13.5302 18.4803 13.5881 18.4041 13.6312C18.3279 13.6743 18.2439 13.7017 18.1569 13.7119C18.07 13.722 17.9819 13.7146 17.8979 13.6902C17.8138 13.6658 17.7355 13.6248 17.6675 13.5697C17.5995 13.5145 17.5433 13.4463 17.502 13.3691C17.4608 13.2919 17.4355 13.2072 17.4275 13.12C17.4195 13.0329 17.429 12.945 17.4554 12.8616L17.6898 12.0469C17.1015 11.8311 16.5356 11.5587 16 11.2336L15.5106 11.9259C15.4101 12.0681 15.2573 12.1645 15.0858 12.194C14.9142 12.2235 14.738 12.1837 14.5958 12.0832C14.4537 11.9827 14.3572 11.8299 14.3277 11.6584C14.2982 11.4868 14.3381 11.3106 14.4386 11.1684L14.9265 10.478C14.4104 10.0592 13.9391 9.58788 13.5203 9.07171L12.8303 9.56109C12.7599 9.61083 12.6804 9.64622 12.5963 9.66523C12.5123 9.68424 12.4253 9.68651 12.3403 9.67191C12.2554 9.65731 12.1741 9.62612 12.1013 9.58012C12.0284 9.53412 11.9653 9.47422 11.9155 9.40382C11.8658 9.33343 11.8304 9.25394 11.8114 9.16987C11.7924 9.0858 11.7901 8.99881 11.8047 8.91387C11.8342 8.74232 11.9306 8.58951 12.0728 8.48906L12.7637 8.00062C12.4377 7.46507 12.1649 6.89894 11.949 6.31031L11.1372 6.54468C11.0544 6.56872 10.9677 6.57622 10.882 6.56676C10.7964 6.55729 10.7134 6.53105 10.6379 6.48953C10.5624 6.448 10.4958 6.39201 10.4419 6.32474C10.388 6.25748 10.3479 6.18026 10.3239 6.0975C10.2998 6.01473 10.2923 5.92804 10.3018 5.84238C10.3113 5.75672 10.3375 5.67376 10.379 5.59824C10.4206 5.52272 10.4766 5.45612 10.5438 5.40224C10.6111 5.34836 10.6883 5.30825 10.7711 5.28421L11.582 5.04984C11.4722 4.54697 11.4027 4.03612 11.3743 3.52218C11.369 3.42843 11.3653 3.33468 11.3631 3.24093L10.509 3.22546C10.3371 3.22227 10.1733 3.15172 10.0529 3.029C9.9324 2.90627 9.86494 2.74117 9.86497 2.56921C8.13684 2.95226 6.54559 3.79852 5.26189 5.01723C3.97819 6.23594 3.05048 7.78111 2.57825 9.48703C2.7662 9.49876 2.94287 9.58078 3.07313 9.71678C3.2034 9.85278 3.27774 10.0328 3.28137 10.2211L3.302 11.3662C3.37606 11.3686 3.45012 11.3714 3.52372 11.3756C4.03766 11.404 4.54851 11.4734 5.05137 11.5833L5.28575 10.7723C5.33429 10.6052 5.44725 10.4642 5.59977 10.3803C5.75229 10.2964 5.93188 10.2766 6.09903 10.3252C6.26618 10.3737 6.40719 10.4867 6.49106 10.6392C6.57492 10.7917 6.59476 10.9713 6.54622 11.1384L6.31184 11.9503C6.89951 12.1663 7.4647 12.4392 7.99934 12.765L8.4845 12.0741C8.58495 11.9319 8.73776 11.8355 8.90931 11.806C9.08086 11.7765 9.2571 11.8163 9.39926 11.9168C9.54142 12.0172 9.63786 12.1701 9.66735 12.3416C9.69684 12.5132 9.65698 12.6894 9.55653 12.8316L9.0695 13.522C9.32755 13.7315 9.5746 13.9541 9.80966 14.1891C10.0447 14.424 10.2674 14.6711 10.4767 14.9292L11.1672 14.4412C11.3094 14.3408 11.4858 14.301 11.6574 14.3306C11.8291 14.3601 11.9819 14.4567 12.0824 14.599C12.1828 14.7413 12.2227 14.9176 12.1931 15.0893C12.1635 15.2609 12.0669 15.4138 11.9247 15.5142L11.2328 16.0031C11.5581 16.5386 11.8308 17.1044 12.047 17.6925L12.8617 17.4558C13.0288 17.4072 13.2084 17.4271 13.3609 17.5109C13.5135 17.5948 13.6264 17.7358 13.675 17.903C13.7235 18.0701 13.7037 18.2497 13.6198 18.4022C13.5359 18.5547 13.3949 18.6677 13.2278 18.7162L12.4145 18.9506C12.5439 19.5405 12.6177 20.1413 12.6348 20.745L13.4912 20.7605C13.6901 20.764 13.8793 20.8464 14.0174 20.9895C14.1555 21.1327 14.2311 21.3248 14.2276 21.5236C14.2273 21.5422 14.2261 21.5609 14.2239 21.5794C15.9541 21.1674 17.5386 20.29 18.806 19.0421C20.0734 17.7942 20.9753 16.2235 21.414 14.4998C21.2521 14.4863 21.101 14.4132 20.9899 14.2946C20.8788 14.1761 20.8157 14.0206 20.8126 13.8581Z" fill="#666666"/>
<path d="M14.1324 2.63109C14.1299 2.80343 14.0597 2.96788 13.937 3.08892C13.8143 3.20996 13.6489 3.27786 13.4766 3.27797H13.4649L12.6769 3.26391C12.6792 3.32531 12.6816 3.38672 12.6849 3.44813C12.708 3.86264 12.7619 4.27487 12.8461 4.68141L13.6097 4.45922C13.7714 4.4255 13.9399 4.45402 14.0815 4.53907C14.2231 4.62412 14.3275 4.75945 14.3737 4.91805C14.4199 5.07665 14.4046 5.24684 14.3309 5.39465C14.2571 5.54247 14.1303 5.65703 13.9758 5.71547L13.2131 5.93719C13.3836 6.38704 13.5927 6.82132 13.838 7.23516L14.4867 6.77672C14.6289 6.67627 14.8051 6.63641 14.9767 6.6659C15.1482 6.69539 15.3011 6.79182 15.4015 6.93398C15.502 7.07615 15.5418 7.25239 15.5123 7.42394C15.4828 7.59549 15.3864 7.7483 15.2442 7.84875L14.5946 8.30766C14.7586 8.50547 14.9324 8.69594 15.1158 8.87906C15.2986 9.06235 15.4908 9.23531 15.6877 9.39938L16.1461 8.75063C16.1961 8.68023 16.2595 8.62039 16.3327 8.57449C16.4058 8.5286 16.4873 8.49756 16.5724 8.48316C16.6576 8.46875 16.7447 8.47125 16.8289 8.49052C16.913 8.50979 16.9926 8.54545 17.063 8.59547C17.1334 8.64548 17.1932 8.70887 17.2391 8.78202C17.285 8.85517 17.3161 8.93663 17.3305 9.02177C17.3449 9.10691 17.3424 9.19406 17.3231 9.27823C17.3038 9.3624 17.2682 9.44195 17.2181 9.51234L16.7606 10.1592C17.1744 10.4043 17.6085 10.6134 18.0581 10.7841L18.2813 10.0209C18.3298 9.85379 18.4428 9.71277 18.5953 9.62891C18.7478 9.54504 18.9274 9.5252 19.0946 9.57375C19.2617 9.6223 19.4027 9.73526 19.4866 9.88778C19.5704 10.0403 19.5903 10.2199 19.5417 10.387L19.32 11.1492C19.7977 11.2486 20.2831 11.3059 20.7708 11.3203L20.7633 10.8984C20.7603 10.7245 20.8265 10.5564 20.9474 10.4312C21.0682 10.3061 21.2339 10.234 21.4078 10.2309H21.4196C21.4603 10.2312 21.5009 10.2352 21.541 10.2427C21.1835 8.38414 20.2929 6.66981 18.9778 5.30882C17.6627 3.94783 15.9799 2.99902 14.1347 2.57812C14.1319 2.59688 14.1328 2.61375 14.1324 2.63109ZM9.77065 21.4444C9.77422 21.2455 9.85662 21.0563 9.99973 20.9182C10.1428 20.7801 10.3349 20.7045 10.5338 20.708L11.3194 20.7216C11.3026 20.2496 11.2458 19.78 11.1497 19.3177L10.3875 19.5389C10.3047 19.5629 10.218 19.5704 10.1323 19.561C10.0466 19.5515 9.96364 19.5252 9.8881 19.4837C9.81256 19.4421 9.74594 19.3861 9.69204 19.3188C9.63815 19.2515 9.59804 19.1743 9.574 19.0915C9.54997 19.0087 9.54247 18.922 9.55195 18.8363C9.56142 18.7506 9.58768 18.6676 9.62923 18.5921C9.67078 18.5165 9.7268 18.4499 9.79409 18.396C9.86138 18.3421 9.93863 18.302 10.0214 18.278L10.7813 18.0577C10.6108 17.608 10.4017 17.1738 10.1564 16.7602L9.50955 17.2177C9.43916 17.2674 9.35966 17.3028 9.2756 17.3218C9.19153 17.3408 9.10454 17.3431 9.0196 17.3285C8.93465 17.3139 8.85342 17.2827 8.78053 17.2367C8.70764 17.1907 8.64452 17.1308 8.59479 17.0604C8.54505 16.99 8.50966 16.9105 8.49065 16.8264C8.47163 16.7424 8.46936 16.6554 8.48396 16.5704C8.49857 16.4855 8.52976 16.4043 8.57576 16.3314C8.62176 16.2585 8.68166 16.1954 8.75205 16.1456L9.4008 15.6872C9.23674 15.4894 9.06377 15.2981 8.88049 15.1153C8.69721 14.9325 8.50549 14.7581 8.30908 14.5941L7.85018 15.2438C7.74972 15.3859 7.59692 15.4823 7.42536 15.5118C7.25381 15.5413 7.07757 15.5015 6.93541 15.401C6.79325 15.3006 6.69682 15.1478 6.66732 14.9762C6.63783 14.8047 6.67769 14.6284 6.77814 14.4863L7.23658 13.8375C6.82284 13.592 6.38855 13.3829 5.93861 13.2127L5.71877 13.9753C5.67022 14.1425 5.55724 14.2836 5.40468 14.3675C5.25211 14.4514 5.07246 14.4713 4.90525 14.4227C4.73804 14.3742 4.59697 14.2612 4.51306 14.1086C4.42915 13.9561 4.40928 13.7764 4.45783 13.6092L4.67955 12.8456C4.27306 12.7612 3.86081 12.7073 3.44627 12.6844C3.40455 12.682 3.36236 12.6806 3.32064 12.6788L3.32814 13.1752C3.33166 13.374 3.25605 13.5661 3.11795 13.7092C2.97986 13.8523 2.79058 13.9347 2.59174 13.9383H2.57814C2.51583 13.938 2.45379 13.93 2.39346 13.9144C2.74671 15.7739 3.63356 17.4903 4.94578 18.8543C6.25801 20.2183 7.93888 21.1709 9.7833 21.5958C9.77388 21.5459 9.76964 21.4951 9.77065 21.4444Z" fill="#666666"/>
</svg>
