<svg width="24" height="24" viewBox="0 0 24 24" fill="none" xmlns="http://www.w3.org/2000/svg">
<path d="M14.1637 2.63229C14.1613 2.78608 14.1045 2.93405 14.0034 3.04994L13.9983 3.29041L12.6993 3.26369C12.6993 3.32463 12.7036 3.38604 12.7068 3.44697C12.7299 3.86153 12.7839 4.27378 12.8686 4.68025L14.0273 4.34369L14.3934 5.60369L13.2351 5.94025C13.4056 6.3902 13.6148 6.82449 13.8604 7.23822L14.8575 6.5351L15.615 7.60666L14.617 8.31213C14.7811 8.50994 14.9547 8.70041 15.1378 8.88354C15.3211 9.06682 15.5128 9.23979 15.7097 9.40385L16.4461 8.36229L17.5176 9.11979L16.7812 10.1581C17.195 10.403 17.6291 10.6119 18.0787 10.7824L18.4298 9.57307L19.6903 9.93916L19.3387 11.1499C19.8171 11.2498 20.3034 11.3073 20.7918 11.322L20.7726 10.1656L21.5887 10.152C21.2303 8.2874 20.3352 6.56806 19.0134 5.20501C17.6915 3.84197 16.0005 2.89453 14.1478 2.479C14.1593 2.52927 14.1646 2.58074 14.1637 2.63229ZM10.0312 20.6998L11.3395 20.7228C11.3229 20.2508 11.2661 19.7812 11.1698 19.3188L10.0383 19.647L9.67216 18.387L10.8023 18.0589C10.6318 17.6091 10.4228 17.175 10.1775 16.7613L9.2245 17.4354L8.467 16.3639L9.42185 15.6884C9.25825 15.4906 9.08481 15.2993 8.902 15.1165C8.71919 14.9337 8.527 14.7593 8.3306 14.5953L7.67856 15.5178L6.60934 14.7603L7.26091 13.8387C6.84701 13.5932 6.41256 13.3841 5.96247 13.2139L5.66388 14.2423L4.40341 13.8762L4.70247 12.8449C4.29578 12.7611 3.88337 12.7078 3.46872 12.6856C3.39419 12.6814 3.31966 12.6781 3.24466 12.6762L3.26341 13.7234L2.43325 13.7384C2.77787 15.6461 3.68366 17.4076 5.03479 18.7977C6.38593 20.1879 8.12099 21.1434 10.0181 21.5421L10.0312 20.6998Z" fill="#666666"/>
<path d="M20.8431 14.1853L20.8173 12.6356C20.197 12.6209 19.5796 12.5465 18.9737 12.4134L18.6095 13.6757L17.3466 13.3101L17.7137 12.0445C17.1253 11.8286 16.5592 11.5563 16.0234 11.2312L15.2565 12.3164L14.1849 11.5589L14.9504 10.4756C14.4341 10.0569 13.9628 9.58564 13.5441 9.06933L12.504 9.80386L11.7465 8.73183L12.7857 7.9973C12.4599 7.46165 12.1871 6.89554 11.971 6.30699L10.764 6.65761L10.3979 5.39714L11.604 5.04699C11.5415 4.75918 11.4918 4.46793 11.4549 4.17324H11.4329L11.3963 3.51699L11.3809 3.23574L10.5399 3.22074C10.5118 3.22012 10.4838 3.21761 10.456 3.21324L10.1584 3.20714L10.1612 3.09136C10.0773 3.02917 10.0095 2.94786 9.96332 2.85419C9.91717 2.76051 9.89405 2.65718 9.89586 2.55277C9.89625 2.52657 9.89828 2.50043 9.90196 2.47449C8.04068 2.89024 6.34219 3.84273 5.01678 5.21405C3.69137 6.58537 2.79724 8.31529 2.44508 10.1896L3.19977 10.1765L3.22086 11.3568L3.54102 11.3746L4.19727 11.4107V11.4332C4.49165 11.4698 4.7829 11.5195 5.07102 11.5823L5.38415 10.5042L6.64227 10.8726L6.32821 11.9507C6.91684 12.1666 7.48297 12.4395 8.01852 12.7654L8.69961 11.8017L9.77211 12.5601L9.09383 13.5211C9.6103 13.9395 10.0816 14.4108 10.5001 14.9273L11.4985 14.2242L12.256 15.2957L11.2548 16.0012C11.5797 16.5371 11.8519 17.1031 12.0676 17.6915L13.2521 17.3479L13.6182 18.607L12.4351 18.9506C12.5649 19.5408 12.6389 20.1419 12.6563 20.7459L14.0354 20.7707L14.0218 21.5432C15.8456 21.1604 17.5214 20.2627 18.8507 18.9566C20.1799 17.6506 21.1069 15.9908 21.5218 14.174L20.8431 14.1853Z" fill="#666666"/>
</svg>
