<svg width="24" height="24" viewBox="0 0 24 24" fill="none" xmlns="http://www.w3.org/2000/svg">
<path d="M12.0001 20.9973C16.9706 20.9973 21.0001 16.9679 21.0001 11.9973C21.0001 7.02675 16.9706 2.99731 12.0001 2.99731C7.0295 2.99731 3.00006 7.02675 3.00006 11.9973C3.00006 16.9679 7.0295 20.9973 12.0001 20.9973Z" stroke="#666666" stroke-width="1.5" stroke-linecap="round" stroke-linejoin="round"/>
<path d="M20.2941 11.9544C18.1254 11.78 16.0933 10.8259 14.5739 9.26864C13.0544 7.7114 12.1506 5.65646 12.0295 3.48413M11.9531 20.3244C11.7853 18.1506 10.834 16.1115 9.27599 14.5862C7.718 13.0609 5.65927 12.1531 3.48233 12.0313M5.63624 5.63522L18.3637 18.3627M5.63624 18.3627L18.3637 5.63522" stroke="#666666" stroke-width="1.5" stroke-linecap="round" stroke-linejoin="round"/>
</svg>
