<svg width="24" height="24" viewBox="0 0 24 24" fill="none" xmlns="http://www.w3.org/2000/svg">
<path d="M12 10.9385L13.6149 9.32361C12.0973 7.56017 11.2635 5.31031 11.2655 2.98376C11.2655 2.74939 11.2744 2.51267 11.2908 2.28064C9.21325 2.42704 7.23786 3.23773 5.65642 4.59298L12 10.9385ZM14.6785 8.26002L18.3436 4.59298C16.7851 3.25706 14.8432 2.44963 12.7969 2.28673C12.7777 2.51642 12.7669 2.74892 12.7669 2.98376C12.765 4.91238 13.4417 6.78018 14.6785 8.26002ZM15.7392 9.3208C17.2189 10.5581 19.0867 11.2353 21.0155 11.2338C21.2499 11.2338 21.4842 11.223 21.7125 11.2038C21.5499 9.15702 20.7425 7.21455 19.4063 5.65564L15.7392 9.3208ZM8.2608 14.6777C6.7812 13.4403 4.91335 12.7631 2.98455 12.7647C2.74955 12.7647 2.5172 12.7747 2.28752 12.7947C2.45012 14.8415 3.25757 16.7839 4.59377 18.3428L8.2608 14.6777ZM12 13.06L10.3852 14.6749C11.9028 16.4383 12.7365 18.6882 12.7345 21.0147C12.7345 21.2491 12.7256 21.4858 12.7092 21.7178C14.7868 21.5715 16.7622 20.7608 18.3436 19.4055L12 13.06ZM21.0155 12.7338C18.6889 12.7357 16.4391 11.902 14.6756 10.3844L13.0608 11.9992L19.4063 18.3428C20.7625 16.7618 21.5742 14.7863 21.7214 12.7085C21.4866 12.7249 21.2517 12.7338 21.0155 12.7338ZM10.9392 11.9992L4.59377 5.65564C3.23741 7.23666 2.4257 9.21211 2.27861 11.29C2.51299 11.2736 2.74736 11.2647 2.98174 11.2647C5.30828 11.2628 7.55814 12.0965 9.32158 13.6141L10.9392 11.9992ZM5.65642 19.4055C7.21495 20.7414 9.15689 21.5488 11.2031 21.7117C11.2228 21.4821 11.2328 21.2497 11.2331 21.0147C11.2348 19.0859 10.5575 17.2181 9.32017 15.7385L5.65642 19.4055Z" fill="#666666"/>
</svg>
