<svg width="24" height="24" viewBox="0 0 24 24" fill="none" xmlns="http://www.w3.org/2000/svg">
<path d="M12.0001 10.9385L13.6149 9.32361C12.0974 7.56017 11.2636 5.31031 11.2656 2.98376C11.2656 2.74939 11.2745 2.51267 11.2909 2.28064C9.21333 2.42704 7.23794 3.23773 5.6565 4.59298L12.0001 10.9385ZM14.6785 8.26002L18.3437 4.59298C16.7852 3.25706 14.8432 2.44963 12.797 2.28673C12.7778 2.51642 12.767 2.74892 12.767 2.98376C12.765 4.91238 13.4417 6.78018 14.6785 8.26002ZM15.7393 9.3208C17.219 10.5581 19.0868 11.2353 21.0156 11.2338C21.2499 11.2338 21.4843 11.223 21.7126 11.2038C21.55 9.15702 20.7425 7.21455 19.4063 5.65564L15.7393 9.3208ZM8.26088 14.6777C6.78128 13.4403 4.91343 12.7631 2.98463 12.7647C2.74963 12.7647 2.51728 12.7747 2.2876 12.7947C2.4502 14.8415 3.25765 16.7839 4.59385 18.3428L8.26088 14.6777ZM12.0001 13.06L10.3853 14.6749C11.9028 16.4383 12.7366 18.6882 12.7346 21.0147C12.7346 21.2491 12.7257 21.4858 12.7093 21.7178C14.7869 21.5715 16.7623 20.7608 18.3437 19.4055L12.0001 13.06ZM21.0156 12.7338C18.689 12.7357 16.4392 11.902 14.6757 10.3844L13.0609 11.9992L19.4063 18.3428C20.7626 16.7618 21.5743 14.7863 21.7215 12.7085C21.4867 12.7249 21.2518 12.7338 21.0156 12.7338ZM10.9393 11.9992L4.59385 5.65564C3.23749 7.23666 2.42578 9.21211 2.27869 11.29C2.51307 11.2736 2.74744 11.2647 2.98182 11.2647C5.30836 11.2628 7.55822 12.0965 9.32166 13.6141L10.9393 11.9992ZM5.6565 19.4055C7.21503 20.7414 9.15697 21.5488 11.2032 21.7117C11.2229 21.4821 11.2329 21.2497 11.2332 21.0147C11.2348 19.0859 10.5576 17.2181 9.32025 15.7385L5.6565 19.4055Z" fill="#666666"/>
</svg>
