<svg width="24" height="24" viewBox="0 0 24 24" fill="none" xmlns="http://www.w3.org/2000/svg">
<path d="M3.2063 8.99646C2.95422 8.9962 2.71227 9.09558 2.53315 9.27295C2.35403 9.45031 2.25227 9.69127 2.25005 9.94334C2.24902 10.0307 2.26168 10.1177 2.28755 10.2011L4.71098 18.7465C4.82331 19.1456 5.06335 19.497 5.39437 19.7467C5.72539 19.9965 6.12914 20.1308 6.5438 20.1293H17.4563C17.8718 20.1296 18.2761 19.995 18.6084 19.7456C18.9406 19.4961 19.1828 19.1455 19.2985 18.7465L21.7219 10.2011L21.75 9.94334C21.7478 9.69127 21.6461 9.45031 21.4669 9.27295C21.2878 9.09558 21.0459 8.9962 20.7938 8.99646H3.2063ZM12.2682 16.4997C11.8786 16.4978 11.4983 16.3805 11.1753 16.1626C10.8523 15.9448 10.601 15.6361 10.4533 15.2756C10.3055 14.9151 10.2679 14.5189 10.3451 14.137C10.4223 13.7551 10.6109 13.4046 10.8871 13.1298C11.1632 12.855 11.5146 12.6682 11.8969 12.5929C12.2792 12.5176 12.6752 12.5572 13.0349 12.7068C13.3947 12.8563 13.7021 13.1091 13.9184 13.4331C14.1346 13.7572 14.25 14.1381 14.25 14.5277C14.2476 15.0517 14.0377 15.5533 13.6662 15.9229C13.2948 16.2925 12.7921 16.4999 12.2682 16.4997V16.4997Z" stroke="#666666" stroke-width="1.5" stroke-linejoin="round"/>
<path d="M7.50005 8.99732L12 2.99731L16.5 8.99732" stroke="#666666" stroke-width="1.5" stroke-linejoin="round"/>
</svg>
