<svg width="24" height="24" viewBox="0 0 24 24" fill="none" xmlns="http://www.w3.org/2000/svg">
<path d="M19.8802 8.99732H16.8751L12.6001 3.29731C12.5302 3.20417 12.4396 3.12856 12.3355 3.07649C12.2313 3.02442 12.1165 2.99731 12.0001 2.99731C11.8836 2.99731 11.7688 3.02442 11.6647 3.07649C11.5605 3.12856 11.4699 3.20417 11.4001 3.29731L7.12508 8.99732H4.11992C3.71566 8.99669 3.32765 9.15643 3.041 9.4415C2.75435 9.72656 2.59247 10.1137 2.59086 10.5179C2.58998 10.6609 2.61069 10.8031 2.65226 10.9398L4.82117 18.587C4.96221 19.0854 5.26215 19.5241 5.6754 19.8364C6.08864 20.1487 6.59257 20.3175 7.11055 20.3172H16.8896C17.4076 20.3156 17.9112 20.1464 18.3252 19.835C18.7392 19.5236 19.0413 19.0866 19.1865 18.5893L21.3582 10.9318C21.3682 10.8956 21.3754 10.8586 21.3798 10.8212L21.4046 10.5901C21.4074 10.566 21.4088 10.5418 21.4088 10.5175C21.4071 10.1134 21.2452 9.72645 20.9587 9.4415C20.6722 9.15655 20.2843 8.99682 19.8802 8.99732ZM12.0001 4.99747L15.0001 8.99732H9.00008L12.0001 4.99747ZM12.0001 16.4818C11.6509 16.4802 11.3101 16.3751 11.0206 16.1799C10.7311 15.9847 10.5059 15.7082 10.3734 15.3851C10.241 15.0621 10.2072 14.707 10.2763 14.3648C10.3455 14.0225 10.5144 13.7084 10.7619 13.4621C11.0094 13.2158 11.3243 13.0483 11.6668 12.9808C12.0094 12.9133 12.3643 12.9488 12.6867 13.0828C13.0091 13.2168 13.2846 13.4433 13.4785 13.7337C13.6723 14.0242 13.7757 14.3655 13.7757 14.7147C13.7731 15.1838 13.5849 15.6329 13.2521 15.9637C12.9194 16.2945 12.4693 16.4801 12.0001 16.48V16.4818Z" fill="#666666"/>
</svg>
