<svg width="24" height="24" viewBox="0 0 24 24" fill="none" xmlns="http://www.w3.org/2000/svg">
<path d="M15.8999 10.1973L11.9999 4.99747L8.09995 10.1973L6.89995 9.29732L11.3999 3.29731C11.4698 3.20417 11.5604 3.12856 11.6645 3.07649C11.7687 3.02442 11.8835 2.99731 11.9999 2.99731C12.1164 2.99731 12.2312 3.02442 12.3354 3.07649C12.4395 3.12856 12.5301 3.20417 12.5999 3.29731L17.0999 9.29732L15.8999 10.1973Z" fill="#666666"/>
<path d="M20.6996 8.99646H3.30051C3.21558 8.99643 3.13175 9.01563 3.0553 9.05262C2.97886 9.08962 2.91178 9.14344 2.8591 9.21005C2.80642 9.27667 2.76951 9.35434 2.75114 9.43726C2.73276 9.52017 2.7334 9.60617 2.75301 9.6888L5.27769 20.3402H18.7224L21.2471 9.6888C21.2667 9.60617 21.2673 9.52017 21.2489 9.43726C21.2306 9.35434 21.1937 9.27667 21.141 9.21005C21.0883 9.14344 21.0212 9.08962 20.9448 9.05262C20.8683 9.01563 20.7845 8.99643 20.6996 8.99646ZM12 16.4805C11.6507 16.4789 11.3097 16.3737 11.0201 16.1784C10.7304 15.983 10.5052 15.7062 10.3727 15.383C10.2403 15.0597 10.2067 14.7044 10.276 14.362C10.3453 14.0196 10.5146 13.7054 10.7624 13.4592C11.0101 13.2129 11.3253 13.0456 11.6682 12.9783C12.011 12.911 12.366 12.9469 12.6885 13.0813C13.011 13.2157 13.2864 13.4426 13.4799 13.7334C13.6735 14.0242 13.7766 14.3659 13.7761 14.7152C13.7734 15.1844 13.5851 15.6335 13.2523 15.9643C12.9195 16.2951 12.4693 16.4807 12 16.4805Z" fill="#666666"/>
</svg>
