<svg width="24" height="24" viewBox="0 0 24 24" fill="none" xmlns="http://www.w3.org/2000/svg">
<path d="M2.25002 15.107V8.89133C2.25052 8.52225 2.39735 8.16843 2.65833 7.90746C2.91931 7.64648 3.27313 7.49964 3.64221 7.49915H10.0847L11.2285 5.99915H3.64221C2.87542 6.00001 2.14029 6.305 1.59808 6.84721C1.05588 7.38941 0.750891 8.12454 0.750023 8.89133V15.107C0.750891 15.8737 1.05588 16.6089 1.59808 17.1511C2.14029 17.6933 2.87542 17.9983 3.64221 17.9991H8.18206C8.16741 17.8849 8.17152 17.769 8.19424 17.656L8.20127 17.6209L8.21112 17.5866L8.51581 16.4991H3.64221C3.27313 16.4987 2.91931 16.3518 2.65833 16.0908C2.39735 15.8299 2.25052 15.476 2.25002 15.107ZM18.1078 5.99915H13.4841C13.4979 6.1116 13.4936 6.22554 13.4714 6.33665L13.4644 6.37133L13.4546 6.40555L13.148 7.49915H18.1078C18.4769 7.49964 18.8307 7.64648 19.0917 7.90746C19.3527 8.16843 19.4995 8.52225 19.5 8.89133V15.107C19.4995 15.476 19.3527 15.8299 19.0917 16.0908C18.8307 16.3518 18.4769 16.4987 18.1078 16.4991H11.5781L10.4335 17.9991H18.1078C18.8746 17.9983 19.6098 17.6933 20.152 17.1511C20.6942 16.6089 20.9992 15.8737 21 15.107V8.89133C20.9992 8.12454 20.6942 7.38941 20.152 6.84721C19.6098 6.305 18.8746 6.00001 18.1078 5.99915Z" fill="#666666"/>
<path d="M7.62424 13.7879C7.41627 13.7879 7.21224 13.7312 7.03414 13.6238C6.85605 13.5164 6.71064 13.3625 6.61361 13.1785C6.51324 12.9898 6.46638 12.7773 6.47811 12.5639C6.48985 12.3504 6.55972 12.1443 6.68018 11.9677L6.69471 11.9462L6.71018 11.9256L9.26346 8.57727H4.20424C3.9556 8.57727 3.71714 8.67604 3.54133 8.85186C3.36551 9.02767 3.26674 9.26613 3.26674 9.51477V14.4835C3.26674 14.7322 3.36551 14.9706 3.54133 15.1464C3.71714 15.3223 3.9556 15.421 4.20424 15.421H8.81768L9.27611 13.787L7.62424 13.7879Z" fill="#666666"/>
<path d="M12.9408 13.1621L14.2097 11.4985C14.2275 11.4714 14.2398 11.4409 14.2458 11.409C14.2477 11.3988 14.2489 11.3884 14.2495 11.3781C14.2509 11.3578 14.2496 11.3375 14.2458 11.3176C14.2403 11.2885 14.2295 11.2607 14.2139 11.2356C14.2037 11.2192 14.1914 11.2042 14.1773 11.191C14.1704 11.1844 14.1628 11.1785 14.1548 11.1732C14.1389 11.162 14.1214 11.1533 14.1028 11.1474C14.0829 11.1411 14.0622 11.138 14.0414 11.1381H11.1529L11.7211 9.11259L11.8725 8.57353L12.1636 7.53477L12.1875 7.44853L12.5526 6.14727C12.5541 6.13876 12.5549 6.13014 12.555 6.12149V6.11399C12.555 6.11165 12.555 6.10181 12.5526 6.09618C12.5503 6.09056 12.5526 6.09196 12.5526 6.08962C12.5508 6.08232 12.5481 6.07524 12.5447 6.06852C12.541 6.06218 12.5369 6.05608 12.5325 6.05024L12.5283 6.04556C12.5246 6.04172 12.5207 6.03812 12.5165 6.03477L12.5119 6.03102C12.506 6.02683 12.4999 6.02307 12.4936 6.01977C12.4874 6.0169 12.481 6.0147 12.4744 6.01321H12.4467C12.4397 6.01252 12.4326 6.01252 12.4256 6.01321C12.4188 6.01478 12.4122 6.01713 12.4059 6.02024L12.3998 6.02352L12.3858 6.03337L12.3806 6.03806C12.3743 6.0438 12.3686 6.05025 12.3637 6.05728L11.52 7.16493L10.904 7.97212L10.4423 8.57353L7.45591 12.4899C7.44805 12.5019 7.44115 12.5144 7.43529 12.5274C7.42779 12.5437 7.42229 12.5609 7.41888 12.5785C7.41485 12.5984 7.41359 12.6188 7.41513 12.639C7.4167 12.6732 7.42595 12.7065 7.44217 12.7366C7.4584 12.7667 7.4812 12.7928 7.50888 12.8129C7.51699 12.8183 7.52545 12.8231 7.5342 12.8274C7.56181 12.8408 7.59211 12.8477 7.62279 12.8476H10.5112L9.11341 17.836C9.11274 17.8448 9.11274 17.8535 9.11341 17.8623V17.8693C9.11386 17.8753 9.1148 17.8813 9.11623 17.8871C9.11596 17.8893 9.11596 17.8915 9.11623 17.8937C9.1181 17.901 9.12078 17.9081 9.1242 17.9148C9.12788 17.921 9.13195 17.9269 9.13638 17.9326L9.1406 17.9373L9.15232 17.9485C9.15408 17.9495 9.15566 17.9508 9.15701 17.9523C9.16272 17.9565 9.16884 17.9601 9.17529 17.9631C9.18152 17.9657 9.18794 17.9679 9.19451 17.9696H9.2006C9.20575 17.9701 9.21092 17.9701 9.21607 17.9696H9.22216C9.22927 17.9694 9.23634 17.9684 9.24326 17.9668C9.24992 17.965 9.25636 17.9625 9.26248 17.9593L9.26857 17.956L9.28263 17.9462L9.28779 17.942C9.29413 17.9362 9.29979 17.9298 9.30466 17.9227L10.3978 16.4954L11.2195 15.4173L12.9408 13.1621Z" fill="#666666"/>
<path d="M14.9766 12.0427L14.9551 12.0709L12.399 15.421H17.5459C17.7945 15.421 18.033 15.3223 18.2088 15.1464C18.3846 14.9706 18.4834 14.7322 18.4834 14.4835V9.51477C18.4834 9.26613 18.3846 9.02767 18.2088 8.85186C18.033 8.67604 17.7945 8.57727 17.5459 8.57727H12.8462L12.3896 10.2052H14.0415C14.2475 10.205 14.4498 10.2605 14.6268 10.3659C14.8038 10.4713 14.949 10.6226 15.047 10.8038C15.1488 10.9909 15.1982 11.2019 15.19 11.4147C15.1817 11.6275 15.1161 11.8342 15.0001 12.0127L14.9766 12.0427ZM22.5001 9.4993C22.3012 9.4993 22.1104 9.57832 21.9698 9.71897C21.8291 9.85962 21.7501 10.0504 21.7501 10.2493V13.749C21.7501 13.9479 21.8291 14.1387 21.9698 14.2793C22.1104 14.42 22.3012 14.499 22.5001 14.499C22.699 14.499 22.8898 14.42 23.0304 14.2793C23.1711 14.1387 23.2501 13.9479 23.2501 13.749V10.2493C23.2501 10.0504 23.1711 9.85962 23.0304 9.71897C22.8898 9.57832 22.699 9.4993 22.5001 9.4993Z" fill="#666666"/>
</svg>
