<svg width="24" height="24" viewBox="0 0 24 24" fill="none" xmlns="http://www.w3.org/2000/svg">
<path d="M18.1077 6.74915H3.6421C2.45901 6.74915 1.49992 7.70824 1.49992 8.89133V15.107C1.49992 16.2901 2.45901 17.2491 3.6421 17.2491H18.1077C19.2908 17.2491 20.2499 16.2901 20.2499 15.107V8.89133C20.2499 7.70824 19.2908 6.74915 18.1077 6.74915Z" stroke="#666666" stroke-width="1.5" stroke-miterlimit="10" stroke-linecap="square"/>
<path d="M11.0624 9.32275H4.20413C4.10058 9.32275 4.01663 9.4067 4.01663 9.51025V14.4851C4.01663 14.5887 4.10058 14.6726 4.20413 14.6726H11.0624C11.166 14.6726 11.2499 14.5887 11.2499 14.4851V9.51025C11.2499 9.4067 11.166 9.32275 11.0624 9.32275Z" fill="#666666" stroke="#666666" stroke-width="1.5" stroke-miterlimit="10" stroke-linecap="square"/>
<path d="M22.5 10.2467V13.7464" stroke="#666666" stroke-width="1.5" stroke-miterlimit="10" stroke-linecap="round"/>
</svg>
