<svg width="24" height="24" viewBox="0 0 24 24" fill="none" xmlns="http://www.w3.org/2000/svg">
<path d="M18.1077 6.74829H3.64212C2.45902 6.74829 1.49993 7.70738 1.49993 8.89048V15.1061C1.49993 16.2892 2.45902 17.2483 3.64212 17.2483H18.1077C19.2908 17.2483 20.2499 16.2892 20.2499 15.1061V8.89048C20.2499 7.70738 19.2908 6.74829 18.1077 6.74829Z" stroke="#666666" stroke-width="1.5" stroke-miterlimit="10" stroke-linecap="square"/>
<path d="M17.5463 9.3219H4.20428C4.10073 9.3219 4.01678 9.40585 4.01678 9.5094V14.4847C4.01678 14.5883 4.10073 14.6722 4.20428 14.6722H17.5463C17.6499 14.6722 17.7338 14.5883 17.7338 14.4847V9.5094C17.7338 9.40585 17.6499 9.3219 17.5463 9.3219Z" fill="#666666" stroke="#666666" stroke-width="1.5" stroke-miterlimit="10" stroke-linecap="square"/>
<path d="M22.5 10.2504V13.7501" stroke="#666666" stroke-width="1.5" stroke-miterlimit="10" stroke-linecap="round"/>
</svg>
