<svg width="24" height="24" viewBox="0 0 24 24" fill="none" xmlns="http://www.w3.org/2000/svg">
<path d="M18.1078 6.74829H3.64213C2.45903 6.74829 1.49994 7.70738 1.49994 8.89048V15.1061C1.49994 16.2892 2.45903 17.2483 3.64213 17.2483H18.1078C19.2909 17.2483 20.2499 16.2892 20.2499 15.1061V8.89048C20.2499 7.70738 19.2909 6.74829 18.1078 6.74829Z" stroke="#666666" stroke-width="1.5" stroke-miterlimit="10" stroke-linecap="square"/>
<path d="M17.5462 9.3219H4.20416C4.10061 9.3219 4.01666 9.40585 4.01666 9.5094V14.4847C4.01666 14.5883 4.10061 14.6722 4.20416 14.6722H17.5462C17.6497 14.6722 17.7337 14.5883 17.7337 14.4847V9.5094C17.7337 9.40585 17.6497 9.3219 17.5462 9.3219Z" fill="#666666" stroke="#666666" stroke-width="1.5" stroke-miterlimit="10" stroke-linecap="square"/>
<path d="M22.5 10.2504V13.7501" stroke="#666666" stroke-width="1.5" stroke-miterlimit="10" stroke-linecap="round"/>
</svg>
