<svg width="24" height="24" viewBox="0 0 24 24" fill="none" xmlns="http://www.w3.org/2000/svg">
<path d="M14.3756 11.1372H11.2584L11.977 8.57314L12.2784 7.49876L12.4631 6.84251L12.6642 6.12392C12.6656 6.11711 12.6665 6.11022 12.667 6.10329V6.09438C12.6673 6.09079 12.6673 6.08719 12.667 6.0836C12.6673 6.07986 12.6673 6.0761 12.667 6.07235V6.06579C12.667 6.0611 12.6638 6.05688 12.6619 6.0522V6.04985C12.6535 6.03175 12.6404 6.01629 12.6238 6.00513C12.6073 5.99398 12.588 5.98756 12.5681 5.98657H12.5634C12.5467 5.98711 12.5302 5.99164 12.5156 5.99979C12.5009 6.00794 12.4884 6.01948 12.4791 6.03345L11.8931 6.83735L11.0109 8.03501L10.6191 8.57314L8.95922 10.8513L7.5 12.8547H10.6144L9.20813 17.8703C9.20673 17.8778 9.20579 17.8853 9.20531 17.8928V17.8975C9.20485 17.9028 9.20485 17.9081 9.20531 17.9135C9.20509 17.9148 9.20509 17.9163 9.20531 17.9177C9.20613 17.9227 9.20723 17.9277 9.20859 17.9327V17.9355C9.2103 17.9407 9.2125 17.9457 9.21516 17.9505C9.22263 17.964 9.23282 17.9758 9.24508 17.9851C9.25734 17.9945 9.27142 18.0012 9.28641 18.0049H9.31312C9.33567 18.0043 9.35735 17.996 9.37453 17.9814L9.37734 17.9791C9.38472 17.9728 9.39133 17.9658 9.39703 17.958L10.4672 16.4988L11.0766 15.6634L14.3756 11.1372Z" fill="#666666"/>
<path d="M13.5835 6.30264L13.5769 6.33732L13.5671 6.37154L13.2521 7.49654H19.5469V16.4956H11.6274L10.5338 17.9956H21.0469V5.99561H13.5999C13.6094 6.0982 13.6039 6.20163 13.5835 6.30264ZM2.29693 7.49561H10.2418L11.3344 5.99561H0.796928V17.9956H8.27302C8.26291 17.8912 8.26828 17.7858 8.28896 17.683L8.29599 17.6478L8.30537 17.6136L8.61896 16.4956H2.29693V7.49561Z" fill="#666666"/>
<path d="M12.4105 15.425H18.5301V8.57373H12.9505L12.4944 10.2003H16.2187L15.133 11.69L12.4105 15.425ZM7.49991 13.7928H5.65726L6.74241 12.3031L9.45882 8.57373H3.31351V15.425H8.91976L9.37773 13.7928H7.49991ZM21.7968 9.49951H23.2968V14.4997H21.7968V9.49951Z" fill="#666666"/>
</svg>
