<svg width="24" height="24" viewBox="0 0 24 24" fill="none" xmlns="http://www.w3.org/2000/svg">
<g clip-path="url(#clip0_32_541)">
<path d="M2.24995 15.1034V8.88779C2.25044 8.51871 2.39728 8.16489 2.65826 7.90392C2.91924 7.64294 3.27306 7.4961 3.64213 7.49561H10.0846L11.2284 5.99561H3.64213C2.87534 5.99647 2.14021 6.30146 1.59801 6.84367C1.05581 7.38587 0.750815 8.121 0.749947 8.88779V15.1034C0.750815 15.8702 1.05581 16.6053 1.59801 17.1475C2.14021 17.6897 2.87534 17.9947 3.64213 17.9956H8.18198C8.16733 17.8813 8.17145 17.7654 8.19417 17.6525L8.2012 17.6173L8.21104 17.5831L8.51573 16.4956H3.64213C3.27306 16.4951 2.91924 16.3483 2.65826 16.0873C2.39728 15.8263 2.25044 15.4725 2.24995 15.1034ZM18.1078 5.99561H13.484C13.4978 6.10806 13.4935 6.222 13.4714 6.33311L13.4643 6.36779L13.4545 6.40201L13.1479 7.49561H18.1078C18.4768 7.4961 18.8307 7.64294 19.0916 7.90392C19.3526 8.16489 19.4995 8.51871 19.5 8.88779V15.1034C19.4995 15.4725 19.3526 15.8263 19.0916 16.0873C18.8307 16.3483 18.4768 16.4951 18.1078 16.4956H11.5781L10.4334 17.9956H18.1078C18.8745 17.9947 19.6097 17.6897 20.1519 17.1475C20.6941 16.6053 20.9991 15.8702 21 15.1034V8.88779C20.9991 8.121 20.6941 7.38587 20.1519 6.84367C19.6097 6.30146 18.8745 5.99647 18.1078 5.99561Z" fill="#666666"/>
<path d="M7.62431 13.7888C7.41634 13.7888 7.21231 13.7321 7.03421 13.6247C6.85611 13.5173 6.71071 13.3633 6.61368 13.1794C6.51331 12.9907 6.46645 12.7781 6.47818 12.5647C6.48991 12.3513 6.55979 12.1452 6.68025 11.9686L6.69478 11.947L6.71025 11.9264L9.26353 8.57812H4.20431C3.95567 8.57812 3.71721 8.6769 3.54139 8.85271C3.36558 9.02853 3.26681 9.26698 3.26681 9.51563V14.4844C3.26681 14.733 3.36558 14.9715 3.54139 15.1473C3.71721 15.3231 3.95567 15.4219 4.20431 15.4219H8.81775L9.27618 13.7878L7.62431 13.7888Z" fill="#666666"/>
<path d="M12.9408 13.163L14.2097 11.4994C14.2276 11.4722 14.2399 11.4418 14.2458 11.4098C14.2478 11.3996 14.249 11.3893 14.2496 11.3789C14.2509 11.3587 14.2497 11.3384 14.2458 11.3184C14.2404 11.2894 14.2296 11.2616 14.214 11.2364C14.2037 11.22 14.1915 11.2051 14.1774 11.1919C14.1704 11.1853 14.1629 11.1793 14.1549 11.1741C14.139 11.1628 14.1214 11.1541 14.1029 11.1483C14.083 11.142 14.0623 11.1388 14.0415 11.1389H11.153L11.7211 9.11344L11.8725 8.57438L12.1636 7.53563L12.1875 7.44938L12.5527 6.14813C12.5542 6.13961 12.5549 6.13099 12.555 6.12235V6.11485C12.555 6.1125 12.555 6.10266 12.5527 6.09704C12.5504 6.09141 12.5527 6.09282 12.5527 6.09047C12.5508 6.08317 12.5482 6.0761 12.5447 6.06938C12.5411 6.06304 12.537 6.05693 12.5325 6.0511L12.5283 6.04641C12.5246 6.04258 12.5207 6.03898 12.5166 6.03563L12.5119 6.03188C12.5061 6.02769 12.5 6.02393 12.4936 6.02063C12.4875 6.01775 12.481 6.01555 12.4744 6.01407H12.4468C12.4398 6.01338 12.4327 6.01338 12.4257 6.01407C12.4189 6.01563 12.4122 6.01799 12.406 6.0211L12.3999 6.02438L12.3858 6.03422L12.3807 6.03891C12.3743 6.04465 12.3687 6.0511 12.3638 6.05813L11.52 7.16579L10.9041 7.97297L10.4424 8.57438L7.45598 12.4908C7.44812 12.5027 7.44122 12.5153 7.43536 12.5283C7.42786 12.5446 7.42235 12.5618 7.41895 12.5794C7.41492 12.5993 7.41366 12.6196 7.4152 12.6399C7.41677 12.674 7.42601 12.7074 7.44224 12.7375C7.45847 12.7676 7.48127 12.7937 7.50895 12.8138C7.51706 12.8191 7.52552 12.824 7.53426 12.8283C7.56188 12.8416 7.59218 12.8485 7.62286 12.8484H10.5113L9.11348 17.8369C9.11281 17.8456 9.11281 17.8544 9.11348 17.8631V17.8702C9.11393 17.8762 9.11487 17.8821 9.1163 17.888C9.11603 17.8902 9.11603 17.8924 9.1163 17.8945C9.11817 17.9018 9.12084 17.9089 9.12426 17.9156C9.12794 17.9218 9.13202 17.9278 9.13645 17.9334L9.14067 17.9381L9.15239 17.9494C9.15415 17.9504 9.15573 17.9516 9.15708 17.9531C9.16279 17.9573 9.16891 17.961 9.17536 17.9639C9.18159 17.9666 9.18801 17.9688 9.19458 17.9705H9.20067C9.20582 17.9709 9.21099 17.9709 9.21614 17.9705H9.22223C9.22934 17.9702 9.2364 17.9693 9.24333 17.9677C9.24998 17.9659 9.25643 17.9633 9.26255 17.9602L9.26864 17.9569L9.2827 17.947L9.28786 17.9428C9.2942 17.9371 9.29986 17.9306 9.30473 17.9236L10.3979 16.4963L11.2196 15.4181L12.9408 13.163Z" fill="#666666"/>
<path d="M14.9766 12.0436L14.955 12.0717L12.3989 15.4219H17.5458C17.7944 15.4219 18.0329 15.3231 18.2087 15.1473C18.3845 14.9715 18.4833 14.733 18.4833 14.4844V9.51563C18.4833 9.26698 18.3845 9.02853 18.2087 8.85271C18.0329 8.6769 17.7944 8.57812 17.5458 8.57812H12.8461L12.3895 10.2061H14.0414C14.2474 10.2058 14.4497 10.2614 14.6267 10.3667C14.8037 10.4721 14.9489 10.6235 15.0469 10.8047C15.1487 10.9917 15.1981 11.2028 15.1899 11.4156C15.1816 11.6284 15.116 11.835 15 12.0136L14.9766 12.0436ZM22.5 9.50016C22.3011 9.50016 22.1103 9.57917 21.9697 9.71983C21.829 9.86048 21.75 10.0512 21.75 10.2502V13.7498C21.75 13.9488 21.829 14.1395 21.9697 14.2802C22.1103 14.4208 22.3011 14.4998 22.5 14.4998C22.6989 14.4998 22.8897 14.4208 23.0303 14.2802C23.171 14.1395 23.25 13.9488 23.25 13.7498V10.2502C23.25 10.0512 23.171 9.86048 23.0303 9.71983C22.8897 9.57917 22.6989 9.50016 22.5 9.50016Z" fill="#666666"/>
</g>
<defs>
<clipPath id="clip0_32_541">
<rect width="24" height="24" fill="white"/>
</clipPath>
</defs>
</svg>
