<svg width="24" height="24" viewBox="0 0 24 24" fill="none" xmlns="http://www.w3.org/2000/svg">
<path d="M20.8125 1.49829H5.99999C5.09155 1.49829 3.84843 1.70173 2.99483 2.65938C2.44546 3.27579 2.24999 4.0136 2.24999 4.49829C2.24997 4.67935 2.31545 4.85431 2.43434 4.99087C2.55324 5.12743 2.71752 5.21636 2.89686 5.24126C4.29843 5.43579 4.49999 5.5197 4.49999 6.37329V18.7483C4.50086 19.7426 4.89622 20.6959 5.5993 21.399C6.30237 22.1021 7.25569 22.4974 8.24999 22.4983H17.25C18.2441 22.4969 19.1972 22.1014 19.9001 21.3984C20.6031 20.6955 20.9986 19.7424 21 18.7483V4.49829C21 3.91001 21.3497 3.22095 21.4687 3.02829L21.4734 3.02173C21.4837 3.00532 21.4969 2.98798 21.51 2.97017C21.6037 2.83938 21.7486 2.64204 21.7486 2.36313C21.75 1.86345 21.323 1.49829 20.8125 1.49829ZM3.94264 3.89267C4.18827 3.47688 4.74749 3.00204 6.01874 3.00204H19.8201C19.6547 3.41407 19.5 3.94845 19.5 4.49829V7.49829H5.99999V6.37329C5.99999 4.62392 4.99921 4.11673 3.94264 3.89267Z" fill="#666666"/>
</svg>
