<svg width="24" height="24" viewBox="0 0 24 24" fill="none" xmlns="http://www.w3.org/2000/svg">
<path d="M21.2602 2.56235L21.7501 1.49829H6.01882C4.71851 1.49829 3.72194 1.80626 3.05116 2.41282C2.5496 2.87032 2.25007 3.50876 2.25007 4.12329V5.24829H3.00007C4.45319 5.24829 4.50007 6.03532 4.50007 6.88892V21.5608C4.50007 21.8094 4.59884 22.0479 4.77466 22.2237C4.95047 22.3995 5.18893 22.4983 5.43757 22.4983H20.0626C20.3112 22.4983 20.5497 22.3995 20.7255 22.2237C20.9013 22.0479 21.0001 21.8094 21.0001 21.5608V4.49829C21.0001 3.69392 21.1069 2.89798 21.2602 2.56235ZM19.5001 4.49829V7.49829H6.00007V6.46704C6.00007 4.77251 5.01569 4.07642 4.0421 3.9611C4.17194 3.27954 4.95476 3.00064 6.01882 3.00064H19.6088C19.5365 3.49658 19.5002 3.9971 19.5001 4.49829Z" fill="#666666"/>
</svg>
