<svg width="24" height="24" viewBox="0 0 24 24" fill="none" xmlns="http://www.w3.org/2000/svg">
<path d="M5.25004 8.25098H20.25M20.8688 2.25332L18.6563 2.25098H6.00004C3.45473 2.25098 3.00004 3.92441 3.00004 4.50098C4.42035 4.69785 5.25004 4.87598 5.25004 6.37598V18.751C5.25004 19.5466 5.56611 20.3097 6.12872 20.8723C6.69133 21.4349 7.45439 21.751 8.25004 21.751H17.25C18.0457 21.751 18.8088 21.4349 19.3714 20.8723C19.934 20.3097 20.25 19.5466 20.25 18.751V4.50098C20.25 3.61035 20.7891 2.70332 20.8407 2.62598C20.8969 2.53691 21 2.41973 21 2.36816C21 2.3166 20.986 2.25332 20.8688 2.25332Z" stroke="#666666" stroke-width="1.5" stroke-linecap="round" stroke-linejoin="round"/>
</svg>
