<svg width="24" height="24" viewBox="0 0 24 24" fill="none" xmlns="http://www.w3.org/2000/svg">
<path d="M20.2499 10.4973V4.49731C20.2499 4.2984 20.1709 4.10764 20.0303 3.96698C19.8896 3.82633 19.6989 3.74731 19.4999 3.74731H4.49994C4.30103 3.74731 4.11027 3.82633 3.96961 3.96698C3.82896 4.10764 3.74994 4.2984 3.74994 4.49731V10.4973C3.15321 10.4973 2.58091 10.7344 2.15895 11.1563C1.737 11.5783 1.49994 12.1506 1.49994 12.7473V20.2473H3.18744V18.7473H20.8124V20.2473H22.4999V12.7473C22.4999 12.1506 22.2629 11.5783 21.8409 11.1563C21.419 10.7344 20.8467 10.4973 20.2499 10.4973ZM11.2499 10.4973H5.62494V8.99732C5.62494 8.7984 5.70396 8.60764 5.84461 8.46699C5.98527 8.32633 6.17603 8.24732 6.37494 8.24732H10.4999C10.6989 8.24732 10.8896 8.32633 11.0303 8.46699C11.1709 8.60764 11.2499 8.7984 11.2499 8.99732V10.4973ZM12.7499 8.99732C12.7499 8.7984 12.829 8.60764 12.9696 8.46699C13.1103 8.32633 13.301 8.24732 13.4999 8.24732H17.6249C17.8239 8.24732 18.0146 8.32633 18.1553 8.46699C18.2959 8.60764 18.3749 8.7984 18.3749 8.99732V10.4973H12.7499V8.99732Z" fill="#666666"/>
</svg>
