<svg width="24" height="24" viewBox="0 0 24 24" fill="none" xmlns="http://www.w3.org/2000/svg">
<path d="M2.25005 19.5V14.25C2.2524 13.4551 2.56923 12.6934 3.13133 12.1313C3.69343 11.5692 4.45512 11.2524 5.25005 11.25H18.7501C19.545 11.2524 20.3067 11.5692 20.8688 12.1313C21.4309 12.6934 21.7477 13.4551 21.7501 14.25V19.5M18.0001 11.25H4.50005V6.375C4.50154 5.87818 4.69956 5.40212 5.05087 5.05081C5.40218 4.6995 5.87823 4.50148 6.37505 4.5H17.6251C18.1219 4.50148 18.5979 4.6995 18.9492 5.05081C19.3005 5.40212 19.4986 5.87818 19.5001 6.375V11.25H18.0001Z" stroke="#666666" stroke-width="1.5" stroke-linecap="round" stroke-linejoin="round"/>
<path d="M12.0001 11.2483V10.4983C12.0012 10.1008 12.1596 9.71992 12.4406 9.43886C12.7217 9.1578 13.1026 8.9994 13.5001 8.99829H17.2501C17.6475 8.9994 18.0284 9.1578 18.3095 9.43886C18.5905 9.71992 18.7489 10.1008 18.7501 10.4983V11.2483M2.25005 19.4983V19.1233C2.25092 18.8252 2.36972 18.5395 2.58051 18.3288C2.7913 18.118 3.07695 17.9992 3.37505 17.9983H20.6251C20.9232 17.9992 21.2088 18.118 21.4196 18.3288C21.6304 18.5395 21.7492 18.8252 21.7501 19.1233V19.4983H2.25005ZM5.25005 11.2483V10.4983C5.25116 10.1008 5.40956 9.71992 5.69062 9.43886C5.97169 9.1578 6.35257 8.9994 6.75005 8.99829H10.5001C10.8975 8.9994 11.2784 9.1578 11.5595 9.43886C11.8405 9.71992 11.9989 10.1008 12.0001 10.4983V11.2483H5.25005Z" stroke="#666666" stroke-width="1.5" stroke-linecap="round" stroke-linejoin="round"/>
</svg>
