<svg width="24" height="24" viewBox="0 0 24 24" fill="none" xmlns="http://www.w3.org/2000/svg">
<path d="M20.25 10.8114C19.7772 10.6038 19.2664 10.4969 18.75 10.4973H5.25001C4.73368 10.4968 4.22289 10.6036 3.75001 10.8109C3.08166 11.1032 2.51294 11.5838 2.11336 12.1941C1.71378 12.8044 1.50064 13.5179 1.50001 14.2473V19.4973C1.50001 19.6962 1.57902 19.887 1.71968 20.0276C1.86033 20.1683 2.05109 20.2473 2.25001 20.2473C2.44892 20.2473 2.63968 20.1683 2.78034 20.0276C2.92099 19.887 3.00001 19.6962 3.00001 19.4973V19.1223C3.00122 19.0232 3.04112 18.9286 3.11119 18.8585C3.18125 18.7884 3.27593 18.7485 3.37501 18.7473H20.625C20.7241 18.7485 20.8188 18.7884 20.8888 18.8585C20.9589 18.9286 20.9988 19.0232 21 19.1223V19.4973C21 19.6962 21.079 19.887 21.2197 20.0276C21.3603 20.1683 21.5511 20.2473 21.75 20.2473C21.9489 20.2473 22.1397 20.1683 22.2803 20.0276C22.421 19.887 22.5 19.6962 22.5 19.4973V14.2473C22.4993 13.5179 22.2861 12.8046 21.8865 12.1944C21.4869 11.5842 20.9183 11.1036 20.25 10.8114ZM17.625 3.74731H6.37501C5.67881 3.74731 5.01113 4.02388 4.51885 4.51616C4.02657 5.00844 3.75001 5.67612 3.75001 6.37232V9.74732C3.75003 9.77637 3.7568 9.80502 3.76979 9.83101C3.78278 9.857 3.80164 9.87962 3.82486 9.89707C3.84809 9.91453 3.87506 9.92635 3.90364 9.9316C3.93222 9.93684 3.96162 9.93538 3.98954 9.92732C4.39897 9.80757 4.82342 9.74695 5.25001 9.74732H5.44829C5.49457 9.74761 5.53932 9.73078 5.57394 9.70006C5.60855 9.66933 5.63058 9.6269 5.63579 9.58091C5.6767 9.21444 5.85116 8.87587 6.12586 8.62988C6.40057 8.38388 6.75626 8.24769 7.12501 8.24732H9.75001C10.119 8.24734 10.475 8.38338 10.75 8.62941C11.025 8.87544 11.1997 9.2142 11.2406 9.58091C11.2458 9.6269 11.2679 9.66933 11.3025 9.70006C11.3371 9.73078 11.3819 9.74761 11.4281 9.74732H12.5747C12.621 9.74761 12.6657 9.73078 12.7003 9.70006C12.735 9.66933 12.757 9.6269 12.7622 9.58091C12.8031 9.21468 12.9773 8.87631 13.2517 8.63034C13.5262 8.38438 13.8815 8.24803 14.25 8.24732H16.875C17.244 8.24734 17.6 8.38338 17.875 8.62941C18.15 8.87544 18.3247 9.2142 18.3656 9.58091C18.3708 9.6269 18.3929 9.66933 18.4275 9.70006C18.4621 9.73078 18.5069 9.74761 18.5531 9.74732H18.75C19.1766 9.74711 19.6011 9.80788 20.0105 9.92778C20.0384 9.93586 20.0679 9.93732 20.0965 9.93204C20.1251 9.92677 20.1521 9.91491 20.1753 9.8974C20.1986 9.87989 20.2174 9.85722 20.2304 9.83117C20.2433 9.80512 20.2501 9.77641 20.25 9.74732V6.37232C20.25 5.67612 19.9734 5.00844 19.4812 4.51616C18.9889 4.02388 18.3212 3.74731 17.625 3.74731Z" fill="#666666"/>
</svg>
