<svg width="24" height="24" viewBox="0 0 24 24" fill="none" xmlns="http://www.w3.org/2000/svg">
<g clip-path="url(#clip0_32_596)">
<path d="M18.375 9.74564H17.25V9.47657C17.6282 9.0489 17.8764 8.52209 17.9653 7.95816C18.0542 7.39423 17.9801 6.81663 17.7519 6.29335C17.5236 5.77007 17.1507 5.32288 16.6768 5.0044C16.203 4.68592 15.6481 4.50941 15.0774 4.49564C14.8381 3.66034 14.3935 2.89825 13.7841 2.27892C13.3078 1.79148 12.7386 1.4046 12.1101 1.14122C11.4815 0.877848 10.8065 0.743327 10.125 0.745635C8.72301 0.745635 7.4166 1.32126 6.42192 2.37126C5.93372 2.21571 5.41067 2.20643 4.91727 2.34458C4.42387 2.48272 3.98168 2.76225 3.64523 3.14868C3.30878 3.53512 3.09278 4.01157 3.02386 4.51929C2.95494 5.02702 3.03612 5.54381 3.25738 6.00595C2.90231 6.3211 2.62722 6.71613 2.45479 7.15847C2.28236 7.60081 2.21753 8.0778 2.26565 8.55012C2.31376 9.02244 2.47344 9.47655 2.73153 9.87504C2.98961 10.2735 3.33871 10.605 3.75004 10.842V20.6206C3.75079 21.3166 4.02759 21.9838 4.51971 22.476C5.01183 22.9681 5.67908 23.2449 6.37504 23.2456H14.625C15.321 23.2449 15.9883 22.9681 16.4804 22.476C16.9725 21.9838 17.2493 21.3166 17.25 20.6206V20.2456H18.375C19.2698 20.2446 20.1277 19.8887 20.7604 19.256C21.3932 18.6233 21.7491 17.7654 21.75 16.8706V13.1206C21.7491 12.2258 21.3932 11.368 20.7604 10.7352C20.1277 10.1025 19.2698 9.74663 18.375 9.74564ZM8.25004 19.4956C8.25004 19.6945 8.17102 19.8853 8.03037 20.026C7.88972 20.1666 7.69895 20.2456 7.50004 20.2456C7.30113 20.2456 7.11036 20.1666 6.96971 20.026C6.82906 19.8853 6.75004 19.6945 6.75004 19.4956V11.9956C6.75004 11.7967 6.82906 11.606 6.96971 11.4653C7.11036 11.3247 7.30113 11.2456 7.50004 11.2456C7.69895 11.2456 7.88972 11.3247 8.03037 11.4653C8.17102 11.606 8.25004 11.7967 8.25004 11.9956V19.4956ZM11.25 19.4956C11.25 19.6945 11.171 19.8853 11.0304 20.026C10.8897 20.1666 10.699 20.2456 10.5 20.2456C10.3011 20.2456 10.1104 20.1666 9.96971 20.026C9.82906 19.8853 9.75004 19.6945 9.75004 19.4956V11.9956C9.75004 11.7967 9.82906 11.606 9.96971 11.4653C10.1104 11.3247 10.3011 11.2456 10.5 11.2456C10.699 11.2456 10.8897 11.3247 11.0304 11.4653C11.171 11.606 11.25 11.7967 11.25 11.9956V19.4956ZM14.25 19.4956C14.25 19.6945 14.171 19.8853 14.0304 20.026C13.8897 20.1666 13.699 20.2456 13.5 20.2456C13.3011 20.2456 13.1104 20.1666 12.9697 20.026C12.8291 19.8853 12.75 19.6945 12.75 19.4956V11.9956C12.75 11.7967 12.8291 11.606 12.9697 11.4653C13.1104 11.3247 13.3011 11.2456 13.5 11.2456C13.699 11.2456 13.8897 11.3247 14.0304 11.4653C14.171 11.606 14.25 11.7967 14.25 11.9956V19.4956ZM15 8.99564C14.6096 8.99564 14.0368 8.75282 13.7489 8.46548C13.6084 8.32481 13.4177 8.24573 13.2188 8.24564H7.50004C7.34639 8.24598 7.19656 8.29351 7.07081 8.38179C6.94505 8.47007 6.84944 8.59484 6.79692 8.73923C6.47676 9.61485 5.69067 9.74564 5.25004 9.74564C4.85222 9.74564 4.47069 9.5876 4.18938 9.3063C3.90808 9.02499 3.75004 8.64346 3.75004 8.24564C3.75004 7.84781 3.90808 7.46628 4.18938 7.18498C4.47069 6.90367 4.85222 6.74564 5.25004 6.74564C5.25426 6.74564 5.67754 6.76157 6.01879 7.01751C6.09758 7.07661 6.18725 7.1196 6.28266 7.14405C6.37807 7.16849 6.47736 7.1739 6.57486 7.15997C6.67236 7.14604 6.76616 7.11305 6.85091 7.06287C6.93566 7.01269 7.0097 6.9463 7.06879 6.86751C7.12789 6.78872 7.17088 6.69906 7.19533 6.60365C7.21977 6.50824 7.22518 6.40895 7.21125 6.31144C7.19732 6.21394 7.16433 6.12014 7.11415 6.03539C7.06397 5.95064 6.99758 5.87661 6.91879 5.81751C6.43284 5.46315 5.8512 5.26382 5.25004 5.24564C5.02924 5.24577 4.80914 5.27045 4.59379 5.31923C4.51937 5.14808 4.4887 4.9611 4.50454 4.77514C4.52039 4.58918 4.58224 4.41009 4.68454 4.25399C4.78684 4.09789 4.92636 3.9697 5.09055 3.88095C5.25473 3.79221 5.43841 3.74571 5.62504 3.74564C5.80222 3.74478 5.97706 3.78618 6.13504 3.8664C6.29303 3.94662 6.42961 4.06334 6.53348 4.20689C6.618 4.32347 6.69189 4.4474 6.75426 4.5772C6.77461 4.76833 6.86757 4.94436 7.01395 5.06894C7.16033 5.19352 7.34895 5.25714 7.54088 5.24668C7.73281 5.23621 7.9134 5.15245 8.04536 5.0127C8.17733 4.87294 8.25059 4.68785 8.25004 4.49564C8.25004 4.17829 8.08082 3.78454 7.74567 3.32376C7.7241 3.29423 7.69879 3.26517 7.6777 3.23657C8.36207 2.59438 9.21754 2.24563 10.125 2.24563C10.6073 2.24425 11.085 2.3397 11.5297 2.52635C11.9744 2.71299 12.3771 2.98702 12.7139 3.3322C13.1352 3.76444 13.4462 4.29177 13.6207 4.86959C13.7951 5.44741 13.8278 6.05874 13.7161 6.65189C13.6977 6.74865 13.6985 6.8481 13.7186 6.94455C13.7386 7.041 13.7774 7.13256 13.8328 7.21401C13.8882 7.29545 13.9592 7.36518 14.0415 7.41921C14.1239 7.47324 14.2161 7.51052 14.3129 7.52892C14.3592 7.53763 14.4063 7.54202 14.4535 7.54204C14.6279 7.54187 14.7967 7.48093 14.931 7.36971C15.0654 7.2585 15.1567 7.10396 15.1894 6.93267C15.2465 6.63249 15.2773 6.32789 15.2813 6.02235C15.6479 6.09249 15.9752 6.2968 16.1992 6.59536C16.4233 6.89392 16.5279 7.26529 16.4928 7.63689C16.4576 8.0085 16.2852 8.35365 16.0091 8.60491C15.7331 8.85617 15.3733 8.99549 15 8.99564ZM20.25 16.8706C20.25 17.3679 20.0525 17.8448 19.7009 18.1965C19.3492 18.5481 18.8723 18.7456 18.375 18.7456H17.25V11.2456H18.375C18.8723 11.2456 19.3492 11.4432 19.7009 11.7948C20.0525 12.1464 20.25 12.6234 20.25 13.1206V16.8706Z" fill="#666666"/>
</g>
<defs>
<clipPath id="clip0_32_596">
<rect width="24" height="24" fill="white" transform="translate(0 -0.00390625)"/>
</clipPath>
</defs>
</svg>
