<svg width="24" height="24" viewBox="0 0 24 24" fill="none" xmlns="http://www.w3.org/2000/svg">
<g clip-path="url(#clip0_32_594)">
<path d="M20.9999 9.74564H17.2499V9.47657C17.6281 9.0489 17.8763 8.52209 17.9652 7.95816C18.0541 7.39423 17.98 6.81663 17.7518 6.29335C17.5235 5.77007 17.1506 5.32288 16.6768 5.0044C16.2029 4.68592 15.648 4.50941 15.0773 4.49564C14.838 3.66034 14.3934 2.89825 13.784 2.27892C13.3078 1.79148 12.7385 1.4046 12.11 1.14122C11.4814 0.877848 10.8064 0.743327 10.1249 0.745635C8.72292 0.745635 7.41651 1.32126 6.42182 2.37079C5.93379 2.21546 5.41099 2.20629 4.91781 2.34441C4.42463 2.48252 3.98263 2.76189 3.64626 3.14809C3.30988 3.53429 3.09383 4.01045 3.02472 4.51792C2.9556 5.02538 3.03645 5.54198 3.25729 6.00407C3.21042 6.04439 3.16776 6.08564 3.12463 6.12876C2.84493 6.4079 2.62355 6.7399 2.47339 7.10541C2.32322 7.47093 2.24727 7.86267 2.24995 8.25782C2.25031 8.66937 2.33717 9.07625 2.50489 9.45208C2.67261 9.8279 2.91746 10.1643 3.22354 10.4394C3.38476 10.586 3.56124 10.7148 3.74995 10.8238V22.4956C3.74995 22.6945 3.82896 22.8853 3.96962 23.026C4.11027 23.1666 4.30103 23.2456 4.49995 23.2456H16.4999C16.6989 23.2456 16.8896 23.1666 17.0303 23.026C17.1709 22.8853 17.2499 22.6945 17.2499 22.4956V20.2456H20.9999C21.1989 20.2456 21.3896 20.1666 21.5303 20.026C21.6709 19.8853 21.7499 19.6945 21.7499 19.4956V10.4956C21.7499 10.2967 21.6709 10.106 21.5303 9.96531C21.3896 9.82465 21.1989 9.74564 20.9999 9.74564ZM8.24995 20.2456H6.74995V11.2456H8.24995V20.2456ZM11.2499 20.2456H9.74995V11.2456H11.2499V20.2456ZM14.2499 20.2456H12.7499V11.2456H14.2499V20.2456ZM14.9999 8.99564C14.6095 8.99564 14.0367 8.75282 13.7489 8.46548L13.5295 8.24564H6.97448L6.79682 8.73923C6.52448 9.48923 5.91417 9.69595 5.4501 9.7372C5.23058 9.75691 5.00935 9.73098 4.80033 9.66103C4.59131 9.59109 4.39903 9.47865 4.23557 9.33079C4.08392 9.19499 3.96249 9.02885 3.87916 8.84312C3.79582 8.6574 3.75244 8.45623 3.75182 8.25267C3.75053 8.0551 3.78853 7.85924 3.86361 7.67649C3.93869 7.49374 4.04936 7.32774 4.18917 7.18814C4.19667 7.18017 4.20463 7.17314 4.2126 7.16517C4.49073 6.89584 4.86279 6.74537 5.24995 6.74564C5.25417 6.74564 5.67745 6.76157 6.0187 7.01751L6.6187 7.46751L7.5187 6.26751L6.9187 5.81751C6.43275 5.46315 5.8511 5.26382 5.24995 5.24564C5.02921 5.24593 4.80916 5.2703 4.5937 5.31829C4.48439 5.06442 4.47238 4.77919 4.55994 4.51703C4.6475 4.25486 4.82851 4.0341 5.06843 3.89687C5.30836 3.75964 5.59041 3.71553 5.86078 3.77297C6.13115 3.83041 6.37091 3.98537 6.53432 4.20829L6.5451 4.2247L6.56385 4.24626C6.66167 4.37398 6.74061 4.51512 6.79823 4.66532L7.06167 5.36845L8.46792 4.84157L8.20448 4.13845C8.09073 3.83936 7.93271 3.55905 7.73573 3.30689C7.71792 3.28251 7.6987 3.26001 7.67995 3.2361C8.36151 2.59485 9.21745 2.24563 10.1249 2.24563C10.6072 2.24425 11.0849 2.3397 11.5296 2.52635C11.9743 2.71299 12.377 2.98702 12.7139 3.3322C13.1351 3.76444 13.4461 4.29177 13.6206 4.86959C13.795 5.44741 13.8278 6.05874 13.716 6.65189L13.5754 7.38876L15.0487 7.67001L15.1893 6.93314C15.2465 6.6328 15.2772 6.32805 15.2812 6.02235C15.6478 6.09249 15.9751 6.2968 16.1991 6.59536C16.4232 6.89392 16.5278 7.26529 16.4927 7.63689C16.4575 8.0085 16.2851 8.35365 16.0091 8.60491C15.733 8.85617 15.3732 8.99549 14.9999 8.99564ZM20.2499 18.7456H17.2499V11.2456H20.2499V18.7456Z" fill="#666666"/>
</g>
<defs>
<clipPath id="clip0_32_594">
<rect width="24" height="24" fill="white" transform="translate(0.00012207 -0.00390625)"/>
</clipPath>
</defs>
</svg>
