<svg width="24" height="24" viewBox="0 0 24 24" fill="none" xmlns="http://www.w3.org/2000/svg">
<g clip-path="url(#clip0_32_589)">
<path d="M16.4999 9.37231V20.6223C16.4984 21.1191 16.3004 21.5952 15.9491 21.9465C15.5978 22.2978 15.1217 22.4958 14.6249 22.4973H6.3749C5.87808 22.4958 5.40202 22.2978 5.05071 21.9465C4.69941 21.5952 4.50138 21.1191 4.4999 20.6223V10.4973" stroke="#666666" stroke-width="1.5" stroke-linecap="round" stroke-linejoin="round"/>
<path d="M16.5001 10.4991H18.3751C19.0707 10.5011 19.7372 10.7783 20.229 11.2702C20.7209 11.762 20.9981 12.4286 21.0001 13.1241V16.8741C20.9981 17.5697 20.7209 18.2363 20.229 18.7281C19.7372 19.22 19.0707 19.4972 18.3751 19.4991H16.5001" stroke="#666666" stroke-width="1.5" stroke-miterlimit="10" stroke-linecap="round"/>
<path d="M15 5.24829C15.5967 5.24829 16.169 5.48534 16.591 5.9073C17.0129 6.32926 17.25 6.90155 17.25 7.49829C17.25 8.09503 17.0129 8.66733 16.591 9.08928C16.169 9.51124 15.5967 9.74829 15 9.74829C14.3789 9.74829 13.6261 9.40564 13.2187 8.99829H7.49999C7.12499 10.0295 6.23436 10.4983 5.24999 10.4983C4.65325 10.4983 4.08095 10.2612 3.65899 9.83928C3.23704 9.41733 2.99998 8.84503 2.99998 8.24829C2.99998 7.65155 3.23704 7.07926 3.65899 6.6573C4.08095 6.23534 4.65325 5.99829 5.24999 5.99829C5.68874 6.01673 6.11247 6.16341 6.46874 6.42017M10.5 11.9983V19.4983V11.9983ZM13.5 11.9983V19.4983V11.9983ZM7.49999 11.9983V19.4983V11.9983Z" stroke="#666666" stroke-width="1.5" stroke-linecap="round" stroke-linejoin="round"/>
<path d="M6.8359 3.03157C7.65105 2.10251 8.79246 1.49829 10.1251 1.49829C12.5804 1.49829 14.5314 3.50642 14.5314 5.96126C14.5315 6.24107 14.5053 6.52027 14.4531 6.79517M4.30605 6.20595C4.1222 6.02379 3.97805 5.80554 3.88267 5.56495C3.7873 5.32435 3.74277 5.06661 3.75188 4.80796C3.761 4.54931 3.82356 4.29534 3.93563 4.06206C4.04771 3.82877 4.20686 3.62121 4.40308 3.45244C4.5993 3.28368 4.82834 3.15737 5.07577 3.08146C5.3232 3.00554 5.58366 2.98168 5.84077 3.01136C6.09787 3.04105 6.34605 3.12364 6.56967 3.25393C6.79329 3.38423 6.98751 3.55941 7.14012 3.76845C7.14012 3.76845 7.50012 4.26392 7.50012 4.49829L4.30605 6.20595Z" stroke="#666666" stroke-width="1.5" stroke-miterlimit="10" stroke-linecap="round"/>
</g>
<defs>
<clipPath id="clip0_32_589">
<rect width="24" height="24" fill="white" transform="translate(0 -0.00390625)"/>
</clipPath>
</defs>
</svg>
