<svg width="24" height="24" viewBox="0 0 24 24" fill="none" xmlns="http://www.w3.org/2000/svg">
<path d="M18.1875 20.9957C17.3346 20.9957 16.5008 20.7427 15.7916 20.2689C15.0825 19.795 14.5297 19.1215 14.2033 18.3335C13.8769 17.5455 13.7915 16.6784 13.9579 15.8418C14.1243 15.0053 14.535 14.2369 15.1381 13.6338C15.7413 13.0306 16.5097 12.6199 17.3462 12.4535C18.1828 12.2871 19.0499 12.3725 19.8379 12.6989C20.6259 13.0253 21.2994 13.5781 21.7733 14.2873C22.2471 14.9964 22.5 15.8302 22.5 16.6832C22.4988 17.8265 22.0441 18.9227 21.2356 19.7312C20.4271 20.5397 19.3309 20.9944 18.1875 20.9957ZM18.1875 13.8707C17.6313 13.8707 17.0875 14.0356 16.625 14.3446C16.1625 14.6537 15.802 15.0929 15.5891 15.6069C15.3763 16.1208 15.3206 16.6863 15.4291 17.2318C15.5376 17.7774 15.8055 18.2786 16.1988 18.6719C16.5921 19.0652 17.0933 19.3331 17.6388 19.4416C18.1844 19.5501 18.7499 19.4944 19.2638 19.2816C19.7778 19.0687 20.217 18.7082 20.5261 18.2457C20.8351 17.7832 21 17.2394 21 16.6832C20.9992 15.9375 20.7026 15.2226 20.1753 14.6954C19.6481 14.1681 18.9332 13.8715 18.1875 13.8707ZM5.81254 20.9957C4.95961 20.9957 4.12583 20.7427 3.41664 20.2689C2.70746 19.795 2.15471 19.1215 1.82831 18.3335C1.50191 17.5455 1.4165 16.6784 1.5829 15.8418C1.7493 15.0053 2.16003 14.2369 2.76314 13.6338C3.36626 13.0306 4.13467 12.6199 4.97121 12.4535C5.80776 12.2871 6.67486 12.3725 7.46286 12.6989C8.25087 13.0253 8.92439 13.5781 9.39825 14.2873C9.87212 14.9964 10.125 15.8302 10.125 16.6832C10.1238 17.8265 9.66905 18.9227 8.86057 19.7312C8.05209 20.5397 6.95591 20.9944 5.81254 20.9957ZM5.81254 13.8707C5.25628 13.8707 4.71251 14.0356 4.25 14.3446C3.78749 14.6537 3.427 15.0929 3.21413 15.6069C3.00126 16.1208 2.94556 16.6863 3.05408 17.2318C3.1626 17.7774 3.43047 18.2786 3.8238 18.6719C4.21714 19.0652 4.71828 19.3331 5.26385 19.4416C5.80942 19.5501 6.37492 19.4944 6.88884 19.2816C7.40275 19.0687 7.84201 18.7082 8.15105 18.2457C8.46009 17.7832 8.62504 17.2394 8.62504 16.6832C8.62417 15.9375 8.32758 15.2226 7.80032 14.6954C7.27306 14.1681 6.5582 13.8715 5.81254 13.8707ZM15 5.99565C15.1976 5.99634 15.3934 5.95785 15.576 5.88242C15.7586 5.80699 15.9244 5.6961 16.0639 5.55618C16.2034 5.41626 16.3137 5.25008 16.3886 5.06724C16.4635 4.8844 16.5013 4.68853 16.5 4.49097C16.5022 4.29439 16.4652 4.09934 16.3911 3.91724C16.317 3.73514 16.2074 3.56964 16.0686 3.43041C15.9298 3.29118 15.7647 3.18102 15.5828 3.10637C15.4009 3.03172 15.206 2.99408 15.0094 2.99565C14.8124 2.99504 14.6173 3.03323 14.435 3.10804C14.2528 3.18285 14.0871 3.29283 13.9474 3.43168C13.8077 3.57053 13.6967 3.73554 13.6207 3.9173C13.5448 4.09905 13.5053 4.29398 13.5047 4.49097C13.5041 4.68795 13.5423 4.88312 13.6171 5.06535C13.6919 5.24757 13.8019 5.41328 13.9408 5.553C14.0796 5.69272 14.2446 5.80373 14.4264 5.87968C14.6081 5.95563 14.8031 5.99504 15 5.99565Z" fill="#666666"/>
<path d="M17.2289 8.99857H15.1776C15.144 8.99858 15.111 8.98953 15.082 8.97237C15.0531 8.95522 15.0293 8.93059 15.0131 8.90107L13.5253 6.17435C13.4205 5.97171 13.2694 5.79661 13.0843 5.66321C12.8992 5.52981 12.6853 5.44186 12.46 5.40649C12.2346 5.37112 12.004 5.38931 11.787 5.4596C11.5699 5.52988 11.3725 5.65029 11.2106 5.81107L7.93592 9.11107C7.66081 9.39187 7.50465 9.76799 7.49998 10.1611C7.49998 10.9767 8.09061 11.2673 8.36717 11.4314C9.70311 12.2011 10.6439 12.764 11.16 13.0767C11.1874 13.0934 11.2101 13.1169 11.2259 13.1449C11.2416 13.1728 11.2499 13.2044 11.25 13.2365V16.4765C11.25 16.8801 11.5603 17.2265 11.9639 17.2467C12.0652 17.2516 12.1665 17.2359 12.2616 17.2005C12.3566 17.1651 12.4435 17.1108 12.517 17.0409C12.5905 16.9709 12.6491 16.8868 12.6891 16.7936C12.7291 16.7004 12.7498 16.6 12.75 16.4986V12.4673C12.7501 12.3483 12.7218 12.2309 12.6675 12.1249C12.6132 12.019 12.5345 11.9274 12.4378 11.8579L10.7034 10.6106C10.6817 10.595 10.6635 10.575 10.6501 10.5518C10.6367 10.5286 10.6285 10.5028 10.6259 10.4762C10.6233 10.4495 10.6265 10.4226 10.6352 10.3973C10.6438 10.372 10.6579 10.3488 10.6762 10.3293L12.645 8.22982C12.6652 8.20822 12.6902 8.1917 12.718 8.1816C12.7458 8.17151 12.7755 8.16813 12.8049 8.17174C12.8342 8.17535 12.8623 8.18585 12.8868 8.20238C12.9113 8.21891 12.9316 8.241 12.9459 8.26685L13.9687 10.1128C14.0337 10.2298 14.1289 10.3273 14.2443 10.3951C14.3597 10.463 14.4911 10.4987 14.625 10.4986H17.25C17.3516 10.4987 17.4522 10.4782 17.5456 10.4382C17.639 10.3983 17.7234 10.3398 17.7935 10.2663C17.8636 10.1928 17.9181 10.1058 17.9536 10.0106C17.9891 9.91538 18.0049 9.81396 18 9.71247C17.9803 9.30888 17.6325 8.99857 17.2289 8.99857Z" fill="#666666"/>
</svg>
