<svg width="24" height="24" viewBox="0 0 24 24" fill="none" xmlns="http://www.w3.org/2000/svg">
<path d="M18.1874 13.4973C17.4829 13.4973 16.7941 13.7063 16.2082 14.0977C15.6224 14.4892 15.1658 15.0455 14.8961 15.6965C14.6265 16.3475 14.5559 17.0638 14.6934 17.7548C14.8309 18.4459 15.1702 19.0807 15.6684 19.5789C16.1666 20.0771 16.8014 20.4164 17.4924 20.5539C18.1835 20.6913 18.8998 20.6208 19.5508 20.3511C20.2017 20.0815 20.7581 19.6249 21.1496 19.039C21.541 18.4532 21.7499 17.7644 21.7499 17.0598C21.747 16.1159 21.3707 15.2115 20.7032 14.544C20.0358 13.8766 19.1314 13.5003 18.1874 13.4973V13.4973ZM5.81245 13.4973C5.10785 13.4973 4.41908 13.7063 3.83323 14.0977C3.24738 14.4892 2.79076 15.0455 2.52113 15.6965C2.25149 16.3475 2.18094 17.0638 2.3184 17.7548C2.45586 18.4459 2.79516 19.0807 3.29338 19.5789C3.79161 20.0771 4.42638 20.4164 5.11744 20.5539C5.8085 20.6913 6.5248 20.6208 7.17576 20.3511C7.82672 20.0815 8.38311 19.6249 8.77456 19.039C9.16601 18.4532 9.37495 17.7644 9.37495 17.0598C9.37198 16.1159 8.99569 15.2115 8.32824 14.544C7.66078 13.8766 6.75637 13.5003 5.81245 13.4973Z" stroke="#666666" stroke-width="1.5" stroke-miterlimit="10"/>
<path d="M11.9999 16.8706V12.8394L8.99992 10.8706L12.7499 6.74561L14.6249 10.1206H17.2499" stroke="#666666" stroke-width="1.5" stroke-linecap="round" stroke-linejoin="round"/>
<path d="M15.0001 6.37419C15.1976 6.37488 15.3934 6.33639 15.576 6.26096C15.7586 6.18553 15.9244 6.07464 16.0639 5.93472C16.2034 5.7948 16.3138 5.62862 16.3886 5.44578C16.4635 5.26294 16.5014 5.06707 16.5001 4.86951C16.5022 4.67293 16.4652 4.47788 16.3911 4.29578C16.3171 4.11368 16.2074 3.94818 16.0686 3.80895C15.9298 3.66972 15.7647 3.55956 15.5828 3.48491C15.4009 3.41026 15.206 3.37262 15.0094 3.37419C14.8125 3.37358 14.6173 3.41177 14.4351 3.48658C14.2528 3.56139 14.0871 3.67137 13.9474 3.81022C13.6652 4.09064 13.506 4.47168 13.5047 4.86951C13.5035 5.26733 13.6603 5.64936 13.9408 5.93154C14.2212 6.21372 14.6022 6.37295 15.0001 6.37419Z" fill="#666666"/>
</svg>
