<svg width="24" height="24" viewBox="0 0 24 24" fill="none" xmlns="http://www.w3.org/2000/svg">
<path d="M15.0001 8.99731L13.6172 6.18013C13.3276 5.52856 13.3276 5.52856 12.3751 5.52856C11.7535 5.52856 11.6832 5.52856 11.2969 5.87075L7.936 9.10981C7.54694 9.50591 7.50006 9.55278 7.50006 10.3567C7.50006 10.9506 7.67725 11.0415 8.36772 11.4301L11.2501 13.0286V17.2473H12.7501V11.9036C12.7501 11.9036 11.3907 11.1067 10.486 10.4973L12.7782 8.08325C13.6547 9.41919 14.0579 10.4973 14.5594 10.4973H18.0001V8.99731H15.0001Z" fill="#666666"/>
<path d="M18.1875 20.9957C17.3345 20.9957 16.5008 20.7427 15.7916 20.2689C15.0824 19.795 14.5297 19.1215 14.2032 18.3335C13.8768 17.5455 13.7914 16.6784 13.9578 15.8418C14.1242 15.0053 14.535 14.2369 15.1381 13.6338C15.7412 13.0306 16.5096 12.6199 17.3462 12.4535C18.1827 12.2871 19.0498 12.3725 19.8378 12.6989C20.6258 13.0253 21.2993 13.5781 21.7732 14.2873C22.2471 14.9964 22.5 15.8302 22.5 16.6832C22.4987 17.8265 22.044 18.9227 21.2355 19.7312C20.427 20.5397 19.3308 20.9944 18.1875 20.9957ZM18.1875 13.8707C17.6312 13.8707 17.0875 14.0356 16.6249 14.3446C16.1624 14.6537 15.8019 15.0929 15.5891 15.6069C15.3762 16.1208 15.3205 16.6863 15.429 17.2318C15.5375 17.7774 15.8054 18.2786 16.1987 18.6719C16.5921 19.0652 17.0932 19.3331 17.6388 19.4416C18.1844 19.5501 18.7499 19.4944 19.2638 19.2816C19.7777 19.0687 20.2169 18.7082 20.526 18.2457C20.835 17.7832 21 17.2394 21 16.6832C20.9991 15.9375 20.7025 15.2226 20.1753 14.6954C19.648 14.1681 18.9331 13.8715 18.1875 13.8707ZM5.81248 20.9957C4.95955 20.9957 4.12577 20.7427 3.41658 20.2689C2.7074 19.795 2.15465 19.1215 1.82825 18.3335C1.50185 17.5455 1.41644 16.6784 1.58284 15.8418C1.74924 15.0053 2.15997 14.2369 2.76308 13.6338C3.3662 13.0306 4.13461 12.6199 4.97115 12.4535C5.8077 12.2871 6.6748 12.3725 7.4628 12.6989C8.25081 13.0253 8.92433 13.5781 9.39819 14.2873C9.87206 14.9964 10.125 15.8302 10.125 16.6832C10.1237 17.8265 9.66899 18.9227 8.86051 19.7312C8.05203 20.5397 6.95584 20.9944 5.81248 20.9957ZM5.81248 13.8707C5.25622 13.8707 4.71245 14.0356 4.24994 14.3446C3.78742 14.6537 3.42694 15.0929 3.21407 15.6069C3.0012 16.1208 2.9455 16.6863 3.05402 17.2318C3.16254 17.7774 3.43041 18.2786 3.82374 18.6719C4.21708 19.0652 4.71822 19.3331 5.26379 19.4416C5.80936 19.5501 6.37486 19.4944 6.88878 19.2816C7.40269 19.0687 7.84195 18.7082 8.15099 18.2457C8.46003 17.7832 8.62498 17.2394 8.62498 16.6832C8.62411 15.9375 8.32752 15.2226 7.80026 14.6954C7.273 14.1681 6.55813 13.8715 5.81248 13.8707ZM15 5.99565C15.1975 5.99634 15.3933 5.95785 15.5759 5.88242C15.7585 5.80699 15.9243 5.6961 16.0638 5.55618C16.2033 5.41626 16.3137 5.25008 16.3885 5.06724C16.4634 4.8844 16.5013 4.68853 16.5 4.49097C16.5022 4.29439 16.4651 4.09934 16.3911 3.91724C16.317 3.73514 16.2073 3.56964 16.0686 3.43041C15.9298 3.29118 15.7646 3.18102 15.5827 3.10637C15.4009 3.03172 15.2059 2.99408 15.0094 2.99565C14.8124 2.99504 14.6172 3.03323 14.435 3.10804C14.2527 3.18285 14.087 3.29283 13.9473 3.43168C13.8076 3.57053 13.6966 3.73554 13.6206 3.9173C13.5447 4.09905 13.5053 4.29398 13.5047 4.49097C13.5041 4.68795 13.5422 4.88312 13.6171 5.06535C13.6919 5.24757 13.8018 5.41328 13.9407 5.553C14.0795 5.69272 14.2446 5.80373 14.4263 5.87968C14.6081 5.95563 14.803 5.99504 15 5.99565Z" fill="#666666"/>
</svg>
