<svg width="24" height="24" viewBox="0 0 24 24" fill="none" xmlns="http://www.w3.org/2000/svg">
<path d="M18.1875 7.53368C18.1924 7.40457 18.1706 7.27585 18.1234 7.15558C18.0762 7.03531 18.0047 6.92609 17.9133 6.83477L12.6633 1.58477C12.5322 1.45354 12.3651 1.36414 12.1832 1.32789C12.0013 1.29164 11.8127 1.31017 11.6413 1.38113C11.47 1.45209 11.3235 1.57229 11.2204 1.72653C11.1174 1.88076 11.0624 2.0621 11.0625 2.24758V9.95946L7.35936 6.78555C7.1696 6.63142 6.92714 6.5575 6.68367 6.57957C6.4402 6.60163 6.21497 6.71793 6.05602 6.90367C5.89706 7.0894 5.81694 7.32988 5.83274 7.57384C5.84855 7.8178 5.95902 8.04594 6.14061 8.20962L10.5595 11.9976L6.14061 15.7856C6.04348 15.8645 5.96312 15.962 5.90428 16.0724C5.84544 16.1829 5.80931 16.304 5.79802 16.4286C5.78672 16.5533 5.80049 16.6789 5.83852 16.7981C5.87655 16.9173 5.93806 17.0277 6.01942 17.1228C6.10079 17.2179 6.20037 17.2957 6.31229 17.3517C6.42421 17.4077 6.54621 17.4407 6.67109 17.4488C6.79597 17.4569 6.9212 17.4399 7.03941 17.3988C7.15762 17.3577 7.26641 17.2934 7.35936 17.2096L11.0625 14.0357V21.7476C11.0625 21.933 11.1175 22.1142 11.2205 22.2683C11.3236 22.4225 11.47 22.5426 11.6412 22.6135C11.8125 22.6845 12.001 22.703 12.1828 22.6669C12.3647 22.6307 12.5317 22.5415 12.6628 22.4104L17.9128 17.1604C18.0041 17.069 18.0756 16.9597 18.1227 16.8394C18.1698 16.7191 18.1915 16.5904 18.1865 16.4613C18.1814 16.3322 18.1498 16.2055 18.0935 16.0893C18.0372 15.973 17.9575 15.8696 17.8594 15.7856L13.4405 11.9976L17.8594 8.20962C17.9577 8.12567 18.0376 8.02228 18.0941 7.90596C18.1506 7.78963 18.1824 7.66288 18.1875 7.53368ZM15.8709 16.5506L12.9375 19.4845V14.0362L15.8709 16.5506ZM12.9375 9.95946V4.51071L15.8714 7.44461L12.9375 9.95946Z" fill="#666666"/>
</svg>
