<svg width="24" height="24" viewBox="0 0 24 24" fill="none" xmlns="http://www.w3.org/2000/svg">
<path d="M22.3955 11.5511C22.2956 11.2698 22.0566 11.1034 21.8067 10.9909L20.25 10.3773V4.31262C20.25 4.06398 20.1512 3.82553 19.9754 3.64971C19.7996 3.47389 19.5611 3.37512 19.3125 3.37512H15.75V1.87512C15.75 1.67621 15.671 1.48544 15.5303 1.34479C15.3897 1.20414 15.1989 1.12512 15 1.12512H8.99999C8.80108 1.12512 8.61032 1.20414 8.46966 1.34479C8.32901 1.48544 8.24999 1.67621 8.24999 1.87512V3.37512H4.68749C4.43885 3.37512 4.2004 3.47389 4.02458 3.64971C3.84877 3.82553 3.74999 4.06398 3.74999 4.31262V10.3811L2.19937 10.9932C1.94952 11.1057 1.70343 11.2745 1.60312 11.5557C1.50281 11.837 1.45499 12.1093 1.55624 12.4464L3.94921 19.4861H3.9989C5.59827 19.4861 6.9989 18.67 7.99781 17.432C8.99718 18.67 10.3969 19.4064 11.9962 19.4064C13.5956 19.4064 14.9962 18.6676 15.9952 17.4297C16.9945 18.6676 18.3942 19.4861 19.9936 19.4861H20.0433L22.4456 12.4468C22.5469 12.1656 22.4958 11.8328 22.3955 11.5511ZM12 7.12512L5.24999 9.78903V5.06262C5.24999 5.01289 5.26975 4.9652 5.30491 4.93004C5.34007 4.89488 5.38777 4.87512 5.43749 4.87512H18.5625C18.6122 4.87512 18.6599 4.89488 18.6951 4.93004C18.7302 4.9652 18.75 5.01289 18.75 5.06262V9.78575L12 7.12512Z" fill="#666666"/>
<path d="M16.1822 19.0773C13.733 20.777 10.2596 20.7765 7.81033 19.0773C7.81033 19.0773 5.67096 22.0304 3.37408 22.0304L3.99893 22.0773C5.39862 22.0773 6.74815 21.5274 7.99783 20.8777C9.23333 21.5183 10.6046 21.8526 11.9963 21.8526C13.3879 21.8526 14.7592 21.5183 15.9947 20.8777C17.2444 21.5279 18.5939 22.0777 19.9936 22.0777L20.6185 22.0309C18.3849 22.0304 16.1822 19.0773 16.1822 19.0773Z" fill="#666666"/>
</svg>
