<svg width="24" height="24" viewBox="0 0 24 24" fill="none" xmlns="http://www.w3.org/2000/svg">
<path d="M19.5 22.1786C19.5 22.121 19.4844 22.0644 19.455 22.0149C19.4255 21.9654 19.3833 21.9248 19.3326 21.8973C18.0637 21.2153 16.9064 20.1714 16.3973 19.6473C16.3217 19.568 16.2208 19.5175 16.1119 19.5046C16.0031 19.4917 15.8932 19.5171 15.8011 19.5765C13.4419 21.0962 10.5694 21.0972 8.20967 19.5789C8.11676 19.5189 8.00576 19.4933 7.89597 19.5067C7.78618 19.5201 7.68455 19.5715 7.60873 19.652C7.10389 20.1807 5.9592 21.2129 4.68233 21.8903C4.63156 21.9158 4.58815 21.9539 4.55624 22.0009C4.52433 22.0479 4.50496 22.1023 4.49998 22.1589C4.49618 22.2071 4.50349 22.2555 4.52137 22.3004C4.53924 22.3453 4.5672 22.3855 4.60308 22.4179C4.63895 22.4503 4.68179 22.474 4.72829 22.4872C4.77478 22.5004 4.82369 22.5027 4.87123 22.494C5.84858 22.2981 6.79311 21.8528 7.69311 21.377C7.75084 21.3466 7.81502 21.3305 7.88027 21.33C7.94551 21.3295 8.00992 21.3447 8.06811 21.3742C9.28661 21.9937 10.6342 22.3166 12.0012 22.3166C13.3681 22.3166 14.7157 21.9937 15.9342 21.3742C15.9931 21.3444 16.0582 21.3291 16.1242 21.3295C16.1901 21.33 16.255 21.3463 16.3134 21.377C17.2087 21.8458 18.1519 22.2953 19.1259 22.4926C19.172 22.5015 19.2194 22.5 19.2648 22.4882C19.3101 22.4764 19.3523 22.4547 19.3882 22.4245C19.4241 22.3944 19.4529 22.3567 19.4724 22.314C19.4919 22.2714 19.5016 22.225 19.5009 22.1781L19.5 22.1786ZM22.3458 11.574C22.1822 11.1807 21.8348 10.8761 21.3661 10.7139L20.25 10.2695V6.37512C20.25 5.57947 19.9339 4.81641 19.3713 4.2538C18.8087 3.69119 18.0456 3.37512 17.25 3.37512H15.75V3.00012C15.75 2.50284 15.5524 2.02593 15.2008 1.6743C14.8492 1.32267 14.3723 1.12512 13.875 1.12512H10.125C9.6277 1.12512 9.15079 1.32267 8.79916 1.6743C8.44753 2.02593 8.24998 2.50284 8.24998 3.00012V3.37512H6.74998C5.95433 3.37512 5.19127 3.69119 4.62866 4.2538C4.06605 4.81641 3.74998 5.57947 3.74998 6.37512V10.2728L2.64467 10.7129C2.17873 10.8676 1.81826 11.1817 1.65326 11.5773C1.53842 11.8534 1.40717 12.2804 1.59233 12.8176L1.59701 12.8317L3.7842 18.4304C3.86478 18.6361 4.00576 18.8126 4.18859 18.9366C4.37142 19.0606 4.58751 19.1263 4.80842 19.1251C4.83186 19.1251 4.8553 19.1251 4.88014 19.1228C6.34826 19.029 7.50514 18.3132 8.28326 17.6411C9.39467 18.6006 10.702 19.1251 12 19.1251C13.298 19.1251 14.5983 18.6001 15.7097 17.6392C16.4873 18.3123 17.6456 19.03 19.1133 19.1228C19.3456 19.1391 19.5771 19.0809 19.7741 18.9566C19.9711 18.8324 20.1234 18.6485 20.2087 18.4318L22.3955 12.8537C22.5492 12.4745 22.5314 12.0212 22.3458 11.574ZM12.6094 7.22872L12.5559 7.20997C12.1939 7.09605 11.8056 7.09605 11.4436 7.20997L11.4164 7.2184L5.50686 9.57294C5.4784 9.58427 5.4476 9.58846 5.41714 9.58514C5.38669 9.58181 5.35752 9.57108 5.33217 9.55387C5.30683 9.53667 5.28609 9.51352 5.27176 9.48644C5.25743 9.45937 5.24995 9.42919 5.24998 9.39856V6.37512C5.24998 5.9773 5.40802 5.59577 5.68932 5.31446C5.97063 5.03316 6.35216 4.87512 6.74998 4.87512H17.25C17.6478 4.87512 18.0293 5.03316 18.3106 5.31446C18.5919 5.59577 18.75 5.9773 18.75 6.37512V9.39575C18.75 9.42638 18.7425 9.45655 18.7282 9.48363C18.7139 9.5107 18.6931 9.53386 18.6678 9.55106C18.6425 9.56827 18.6133 9.579 18.5828 9.58232C18.5524 9.58565 18.5216 9.58146 18.4931 9.57012L12.6094 7.22872Z" fill="#666666"/>
</svg>
