<svg width="24" height="24" viewBox="0 0 24 24" fill="none" xmlns="http://www.w3.org/2000/svg">
<path d="M21.6529 12.2332C21.5591 12.0101 21.3384 11.8661 21.1059 11.7883L12.3318 8.29708C12.1155 8.22959 11.8838 8.22959 11.6676 8.29708L2.90195 11.7902C2.66758 11.8633 2.44117 12.0138 2.34836 12.2369C2.25555 12.4601 2.21054 12.6761 2.30148 12.9438L4.48258 18.529C4.51038 18.5976 4.55927 18.6557 4.6222 18.6948C4.68513 18.7339 4.75885 18.752 4.83273 18.7465C6.08383 18.6677 7.19102 18.0326 8.03805 17.223C8.10463 17.1605 8.19255 17.1256 8.28391 17.1256C8.37526 17.1256 8.46318 17.1605 8.52977 17.223C9.43539 18.0902 10.6405 18.7465 11.9999 18.7465C13.3593 18.7465 14.5574 18.0902 15.463 17.2211C15.5297 17.1586 15.6177 17.1237 15.7091 17.1237C15.8006 17.1237 15.8886 17.1586 15.9552 17.2211C16.8023 18.0311 17.9095 18.6677 19.1606 18.7465C19.2342 18.752 19.3077 18.7341 19.3706 18.6953C19.4334 18.6565 19.4823 18.5987 19.5102 18.5304L21.6993 12.9447C21.7921 12.7207 21.7457 12.4568 21.6529 12.2332V12.2332Z" stroke="#666666" stroke-width="1.5" stroke-miterlimit="10"/>
<path d="M19.5001 22.1782C19.5001 22.1207 19.4846 22.0642 19.4552 22.0147C19.4259 21.9652 19.3837 21.9245 19.3332 21.897C18.0639 21.2149 16.9065 20.171 16.3975 19.647C16.3218 19.5676 16.2209 19.5172 16.1121 19.5043C16.0032 19.4913 15.8933 19.5168 15.8012 19.5762C13.442 21.0959 10.5695 21.0968 8.2098 19.5785C8.11689 19.5185 8.00589 19.493 7.8961 19.5063C7.78631 19.5197 7.68468 19.5711 7.60886 19.6516C7.10402 20.1804 5.95933 21.2126 4.68246 21.8899C4.6318 21.9156 4.58849 21.9537 4.55659 22.0007C4.5247 22.0476 4.50526 22.102 4.50011 22.1585C4.49631 22.2067 4.50363 22.2551 4.5215 22.3C4.53938 22.3449 4.56733 22.3851 4.60321 22.4175C4.63908 22.4499 4.68192 22.4736 4.72842 22.4868C4.77491 22.5 4.82382 22.5024 4.87136 22.4937C5.84871 22.2977 6.79324 21.8524 7.69324 21.3766C7.75097 21.3462 7.81515 21.3301 7.8804 21.3296C7.94564 21.3291 8.01006 21.3443 8.06824 21.3738C9.28709 21.994 10.6353 22.3174 12.0028 22.3175C13.3704 22.3177 14.7186 21.9947 15.9376 21.3748C15.9965 21.3449 16.0616 21.3296 16.1276 21.3301C16.1935 21.3306 16.2584 21.3469 16.3168 21.3776C17.2121 21.8463 18.1553 22.2959 19.1293 22.4932C19.1752 22.5017 19.2224 22.5 19.2675 22.4881C19.3126 22.4761 19.3545 22.4543 19.3902 22.4242C19.4259 22.3942 19.4544 22.3565 19.4737 22.314C19.4931 22.2716 19.5027 22.2253 19.502 22.1787L19.5001 22.1782Z" fill="#666666"/>
<path d="M19.5001 10.9192V6.74732C19.4984 6.15111 19.2608 5.57982 18.8392 5.15824C18.4176 4.73666 17.8463 4.49905 17.2501 4.49732H6.75012C6.15392 4.49905 5.58262 4.73666 5.16104 5.15824C4.73946 5.57982 4.50185 6.15111 4.50012 6.74732V11.0598M12.0001 8.60357V18.5809M15.0001 4.49732V3.37231C14.9993 3.07421 14.8805 2.78857 14.6697 2.57778C14.4589 2.36698 14.1732 2.24818 13.8751 2.24731H10.1251C9.82702 2.24818 9.54137 2.36698 9.33058 2.57778C9.11979 2.78857 9.00099 3.07421 9.00012 3.37231V4.49732H15.0001Z" stroke="#666666" stroke-width="1.5" stroke-linecap="round" stroke-linejoin="round"/>
</svg>
