<svg width="24" height="24" viewBox="0 0 24 24" fill="none" xmlns="http://www.w3.org/2000/svg">
<path d="M12.0002 4.50098C13.0357 4.50098 13.8752 3.66151 13.8752 2.62598C13.8752 1.59044 13.0357 0.750977 12.0002 0.750977C10.9646 0.750977 10.1252 1.59044 10.1252 2.62598C10.1252 3.66151 10.9646 4.50098 12.0002 4.50098Z" stroke="#666666" stroke-width="1.5" stroke-miterlimit="10"/>
<path d="M9.34229 13.8564L7.91729 21.9282C7.89168 22.0738 7.895 22.223 7.92708 22.3674C7.95916 22.5117 8.01937 22.6482 8.10426 22.7692C8.18915 22.8903 8.29706 22.9934 8.42182 23.0727C8.54658 23.152 8.68574 23.2059 8.83136 23.2314C8.97641 23.2572 9.12515 23.2539 9.26895 23.2219C9.41274 23.1898 9.54875 23.1295 9.66908 23.0445C9.78941 22.9594 9.89167 22.8514 9.96995 22.7266C10.0482 22.6018 10.101 22.4627 10.1251 22.3173L11.1095 16.697V16.7064C11.1095 16.7064 11.3532 15.1829 11.9298 15.1829H12.0751C12.661 15.1829 12.8954 16.7064 12.8954 16.7064V16.7017L13.8798 22.322C13.932 22.6148 14.0984 22.8748 14.3423 23.0449C14.5863 23.215 14.8878 23.2812 15.1806 23.229C15.4734 23.1768 15.7334 23.0104 15.9035 22.7665C16.0736 22.5225 16.1398 22.221 16.0876 21.9282L14.6626 13.8564L14.4329 12.4642C14.297 11.6157 14.236 10.2329 14.4564 9.66575C14.6439 9.17825 15.1187 9.00012 15.5439 9.00012H19.8751C20.1735 9.00012 20.4596 8.8816 20.6706 8.67062C20.8816 8.45964 21.0001 8.17349 21.0001 7.87512C21.0001 7.57675 20.8816 7.29061 20.6706 7.07963C20.4596 6.86865 20.1735 6.75012 19.8751 6.75012H4.12511C3.82674 6.75012 3.54059 6.86865 3.32961 7.07963C3.11863 7.29061 3.00011 7.57675 3.00011 7.87512C3.00011 8.17349 3.11863 8.45964 3.32961 8.67062C3.54059 8.8816 3.82674 9.00012 4.12511 9.00012H8.46104C8.8937 9.00012 9.36104 9.17825 9.54854 9.66575C9.76886 10.2329 9.70792 11.6157 9.57198 12.4642L9.34229 13.8564Z" stroke="#666666" stroke-width="1.5" stroke-miterlimit="10"/>
</svg>
