<svg width="24" height="24" viewBox="0 0 24 24" fill="none" xmlns="http://www.w3.org/2000/svg">
<g clip-path="url(#clip0_32_629)">
<path d="M12.0001 5.24915C13.4498 5.24915 14.6251 4.07389 14.6251 2.62415C14.6251 1.1744 13.4498 -0.000854492 12.0001 -0.000854492C10.5503 -0.000854492 9.37506 1.1744 9.37506 2.62415C9.37506 4.07389 10.5503 5.24915 12.0001 5.24915Z" fill="#666666"/>
<path d="M20.4844 5.9997H3.51563C3.17997 5.9997 2.85805 6.13304 2.6207 6.37039C2.38335 6.60774 2.25001 6.92966 2.25001 7.26532C2.25001 7.60099 2.38335 7.9229 2.6207 8.16025C2.85805 8.39761 3.17997 8.53095 3.51563 8.53095H8.29126C8.61516 8.53095 8.99438 8.67579 9.20907 9.23407C9.45985 9.88235 9.33704 11.1344 9.18235 12.1042L8.97985 13.2503C8.98023 13.2533 8.97992 13.2563 8.97894 13.2592C8.97797 13.262 8.97635 13.2646 8.97423 13.2667L7.35235 22.4922C7.29353 22.8271 7.36975 23.1716 7.56433 23.4505C7.75892 23.7293 8.05602 23.9197 8.39063 23.98C8.55607 24.0093 8.72566 24.0054 8.88958 23.9686C9.05349 23.9317 9.20846 23.8627 9.34548 23.7655C9.4825 23.6683 9.59885 23.5448 9.68777 23.4023C9.77668 23.2598 9.8364 23.101 9.86345 22.9352L10.9842 16.5227C10.9842 16.5227 11.3438 14.9997 12 14.9997C12.667 14.9997 13.0191 16.5227 13.0191 16.5227L14.1399 22.9408C14.167 23.1081 14.2271 23.2683 14.3167 23.4121C14.4064 23.5559 14.5238 23.6804 14.662 23.7783C14.8003 23.8763 14.9567 23.9458 15.1221 23.9827C15.2874 24.0196 15.4585 24.0233 15.6253 23.9934C15.7921 23.9635 15.9513 23.9008 16.0936 23.8088C16.2359 23.7167 16.3585 23.5973 16.4541 23.4575C16.5498 23.3176 16.6167 23.1601 16.6509 22.9942C16.6851 22.8282 16.6859 22.6571 16.6533 22.4908L15.0309 13.2653C15.0313 13.2624 15.031 13.2594 15.0301 13.2566C15.0292 13.2537 15.0278 13.2511 15.0258 13.2489L14.8228 12.1028C14.6681 11.133 14.5453 9.88095 14.7961 9.23267C15.0099 8.67579 15.4013 8.52954 15.6999 8.52954H20.4844C20.82 8.52954 21.142 8.3962 21.3793 8.15885C21.6167 7.9215 21.75 7.59958 21.75 7.26392C21.75 6.92825 21.6167 6.60633 21.3793 6.36898C21.142 6.13163 20.82 5.99829 20.4844 5.99829V5.9997Z" fill="#666666"/>
</g>
<defs>
<clipPath id="clip0_32_629">
<rect width="24" height="24" fill="white"/>
</clipPath>
</defs>
</svg>
