<svg width="24" height="24" viewBox="0 0 24 24" fill="none" xmlns="http://www.w3.org/2000/svg">
<path d="M12.8147 17.2659C12.7768 16.8332 12.3994 16.4953 11.9452 16.4953C11.7494 16.4939 11.5589 16.5584 11.4042 16.6784C11.2495 16.7983 11.1396 16.9668 11.0921 17.1567L10.2389 21.2995C10.2108 21.4206 10.1961 21.5445 10.1954 21.6689C10.1954 22.6031 10.9772 23.2523 11.9452 23.2523C12.9132 23.2523 13.6955 22.6031 13.6955 21.6689C13.695 21.5192 13.6747 21.3702 13.635 21.2259L12.8147 17.2659ZM19.268 19.1189C19.1812 19.0428 19.0879 18.9746 18.9891 18.915L15.7299 16.6373C15.4125 16.4381 15.0736 16.4437 14.8275 16.6842C14.7201 16.7864 14.6519 16.923 14.6348 17.0703C14.6177 17.2176 14.6527 17.3663 14.7338 17.4904L17.1947 20.7248C17.2509 20.8032 17.3137 20.8768 17.3822 20.9446C17.8088 21.4214 18.7547 21.4476 19.2746 20.9446C19.7874 20.4332 19.7813 19.522 19.268 19.1189ZM21.7172 15.7448H18.4163C18.203 15.7448 18 15.9018 18 16.1273C18 16.3528 18.1383 16.4953 18.3244 16.5567L21.4383 17.52C21.8907 17.6254 22.5 17.2223 22.5 16.7189C22.5 16.0785 22.1438 15.7448 21.7172 15.7448ZM6.01035 16.1254C6.01035 15.891 5.79707 15.7429 5.56738 15.7429H2.26644C1.85066 15.7429 1.50004 16.192 1.50004 16.6954C1.50004 17.1989 2.0916 17.6254 2.54535 17.52L5.70613 16.5567C5.91191 16.4953 6.01035 16.3598 6.01035 16.1254ZM8.27582 16.641L5.01566 18.9089C4.91441 18.9658 4.82004 19.0342 4.73441 19.1128C4.61022 19.2283 4.51117 19.3681 4.44344 19.5236C4.37571 19.6791 4.34075 19.8469 4.34075 20.0165C4.34075 20.1861 4.37571 20.3539 4.44344 20.5094C4.51117 20.6649 4.61022 20.8048 4.73441 20.9203C4.99015 21.1618 5.32859 21.2964 5.68035 21.2964C6.03211 21.2964 6.37055 21.1618 6.62629 20.9203C6.69597 20.8536 6.75878 20.7801 6.81379 20.7009L9.2766 17.4848C9.44066 17.2232 9.41348 16.8993 9.18285 16.6851C9.06127 16.5717 8.90345 16.5051 8.7374 16.497C8.57135 16.4889 8.40781 16.54 8.27582 16.641Z" fill="#666666"/>
<path d="M17.2501 5.85921C17.2501 3.24827 14.9429 1.67983 12.8344 1.49702C12.7837 1.4926 12.7325 1.49857 12.6841 1.51457C12.6358 1.53058 12.5911 1.55627 12.553 1.5901C12.5149 1.62392 12.4841 1.66516 12.4624 1.71129C12.4408 1.75743 12.4287 1.80749 12.4271 1.85843C12.2808 5.42093 7.2999 7.04702 6.80818 10.2341C6.48006 12.3622 7.58865 13.6264 8.41646 14.255C8.50412 14.3216 8.60541 14.368 8.71309 14.3909C8.82078 14.4138 8.93219 14.4127 9.03937 14.3875C9.14655 14.3623 9.24684 14.3138 9.33307 14.2453C9.4193 14.1769 9.48934 14.0902 9.53818 13.9916C10.5929 11.8419 13.0224 11.0155 14.6813 9.96312C16.6913 8.68812 17.2501 7.31749 17.2501 5.85921V5.85921Z" stroke="#666666" stroke-width="1.5" stroke-miterlimit="10" stroke-linecap="round"/>
<path d="M16.521 8.37735C16.9242 9.04813 17.25 9.78735 17.25 10.6274C17.25 13.0892 15.2592 14.9914 12.8034 14.9914C11.6669 14.9923 10.5735 14.5559 9.74995 13.7727M11.25 4.48391C10.649 3.40579 9.8198 3.03079 8.47683 3.00126C8.42996 2.99864 8.38391 3.01434 8.3484 3.04504C8.31289 3.07574 8.2907 3.11904 8.28652 3.16579C8.24199 4.76985 6.74995 5.26813 6.74995 6.5947C6.74995 7.50267 7.00261 7.95407 7.55433 8.43595L11.25 4.48391Z" stroke="#666666" stroke-width="1.5" stroke-miterlimit="10" stroke-linecap="round"/>
</svg>
