<svg width="24" height="24" viewBox="0 0 24 24" fill="none" xmlns="http://www.w3.org/2000/svg">
<path d="M9.3699 15.7473L8.65506 15.4839C8.08839 15.2261 7.57854 14.8583 7.15506 14.402C6.50209 13.7036 5.78209 12.4937 6.05912 10.6937C6.30287 9.11263 8.131 7.21513 9.30943 6.10607C10.5863 4.90513 12.4032 3.01935 12.3165 1.45841L12.2813 0.747314H12.9929C15.3999 0.747314 18.0001 2.51075 18.0001 5.36028C18.0001 7.49638 16.9688 8.99825 14.7699 10.3712C14.3949 10.6056 13.9993 10.824 13.5783 11.0523C12.1426 11.8314 10.0491 13.3881 9.55975 15.0517L9.3699 15.7473ZM8.49334 5.32185C9.42193 4.45044 10.2615 3.6606 10.6697 2.79997C10.5835 2.74747 10.4944 2.69919 10.4026 2.65513C9.84615 2.38841 9.17912 2.26419 8.30443 2.26419H7.51037L7.53662 3.03716C7.55865 3.69622 7.25256 4.09232 6.8649 4.59388C6.45943 5.11888 6.00006 5.71325 6.00006 6.60669C6.00006 7.08622 6.06053 7.48607 6.19693 7.84232C6.30631 7.67638 6.42521 7.51028 6.55365 7.34403C7.12506 6.60669 7.82162 5.95278 8.49334 5.32185Z" fill="#666666"/>
<path d="M15.4847 11.2403C15.0482 11.5168 14.594 11.7625 14.1136 12.0236C12.5831 12.8528 11.1379 13.6379 10.6809 15.1848L10.6528 15.2786C11.3276 15.587 12.0609 15.7469 12.8029 15.7473C14.1932 15.7473 15.4959 15.2256 16.4704 14.2773C16.9575 13.8051 17.344 13.2392 17.6069 12.6138C17.8697 11.9884 18.0034 11.3163 18 10.6379C17.9964 10.1421 17.9078 9.65062 17.7379 9.18481C17.2059 9.94325 16.4657 10.6183 15.4847 11.2403ZM12.5962 16.8723H11.4037C11.3604 16.8724 11.3184 16.8874 11.2849 16.9149C11.2513 16.9424 11.2284 16.9807 11.22 17.0233L10.0312 23.0233C10.0258 23.0504 10.0265 23.0785 10.0332 23.1054C10.04 23.1322 10.0526 23.1573 10.0701 23.1787C10.0877 23.2001 10.1098 23.2174 10.1348 23.2293C10.1599 23.2411 10.1873 23.2473 10.215 23.2473H13.7896C13.8174 23.2473 13.8447 23.2411 13.8698 23.2293C13.8948 23.2174 13.9169 23.2001 13.9345 23.1787C13.9521 23.1573 13.9647 23.1322 13.9714 23.1054C13.9781 23.0785 13.9788 23.0504 13.9734 23.0233L12.7823 17.0233C12.7738 16.9803 12.7505 16.9417 12.7165 16.9142C12.6825 16.8866 12.64 16.8718 12.5962 16.8723ZM15.2662 16.6061L14.7337 17.1386C14.703 17.1692 14.6839 17.2096 14.6797 17.2527C14.6754 17.2959 14.6862 17.3392 14.7103 17.3753L17.4979 21.557C17.5133 21.5801 17.5336 21.5995 17.5574 21.6138C17.5812 21.6281 17.6079 21.637 17.6355 21.6397C17.6632 21.6424 17.6911 21.639 17.7172 21.6296C17.7433 21.6203 17.7671 21.6052 17.7867 21.5856L19.7132 19.659C19.7329 19.6394 19.7479 19.6157 19.7573 19.5895C19.7666 19.5634 19.7701 19.5355 19.7673 19.5079C19.7646 19.4803 19.7558 19.4536 19.7415 19.4298C19.7272 19.406 19.7078 19.3857 19.6847 19.3703L15.5029 16.5826C15.4669 16.5586 15.4235 16.5477 15.3804 16.552C15.3372 16.5563 15.2969 16.5754 15.2662 16.6061ZM18.1875 15.7473C18.1377 15.7473 18.09 15.7671 18.0549 15.8022C18.0197 15.8374 18 15.8851 18 15.9348V16.3384C17.9999 16.3828 18.0156 16.4258 18.0443 16.4597C18.073 16.4936 18.1127 16.5162 18.1565 16.5236L22.2815 17.2108C22.3084 17.2152 22.3359 17.2138 22.3621 17.2066C22.3884 17.1994 22.4127 17.1866 22.4335 17.169C22.4543 17.1514 22.471 17.1295 22.4825 17.1049C22.494 17.0802 22.4999 17.0533 22.5 17.0261V15.9348C22.5 15.8851 22.4802 15.8374 22.445 15.8022C22.4099 15.7671 22.3622 15.7473 22.3125 15.7473H18.1875ZM8.73371 16.6061L9.26621 17.1386C9.2969 17.1692 9.316 17.2096 9.32028 17.2527C9.32455 17.2959 9.31373 17.3392 9.28965 17.3753L6.50199 21.557C6.48661 21.5801 6.46629 21.5995 6.44249 21.6138C6.41869 21.6281 6.39202 21.637 6.36439 21.6397C6.33676 21.6424 6.30887 21.639 6.28273 21.6296C6.2566 21.6203 6.23286 21.6052 6.21324 21.5856L4.28668 19.659C4.26704 19.6394 4.25199 19.6157 4.24264 19.5895C4.23329 19.5634 4.22985 19.5355 4.23259 19.5079C4.23532 19.4803 4.24416 19.4536 4.25846 19.4298C4.27276 19.406 4.29216 19.3857 4.31527 19.3703L8.49699 16.5826C8.53307 16.5586 8.57638 16.5477 8.61955 16.552C8.66271 16.5563 8.70306 16.5754 8.73371 16.6061ZM5.81246 15.7473H1.68746C1.63773 15.7473 1.59004 15.7671 1.55488 15.8022C1.51972 15.8374 1.49996 15.8851 1.49996 15.9348V17.0261C1.5 17.0533 1.50596 17.0802 1.51743 17.1049C1.52891 17.1295 1.54562 17.1514 1.5664 17.169C1.58719 17.1866 1.61155 17.1994 1.6378 17.2066C1.66405 17.2138 1.69155 17.2152 1.7184 17.2108L5.8434 16.5236C5.88719 16.5162 5.92697 16.4936 5.95564 16.4597C5.98431 16.4258 6.00002 16.3828 5.99996 16.3384V15.9348C5.99996 15.8851 5.98021 15.8374 5.94504 15.8022C5.90988 15.7671 5.86219 15.7473 5.81246 15.7473Z" fill="#666666"/>
</svg>
