<svg width="24" height="24" viewBox="0 0 24 24" fill="none" xmlns="http://www.w3.org/2000/svg">
<path d="M12.8147 17.2651C12.7767 16.8324 12.3994 16.4945 11.9452 16.4945C11.7497 16.493 11.5593 16.5572 11.4047 16.6768C11.25 16.7964 11.1399 16.9644 11.0921 17.154L10.2389 21.2959C10.2107 21.4168 10.1961 21.5406 10.1953 21.6648C10.1953 22.599 10.9772 23.2477 11.9452 23.2477C12.9131 23.2477 13.6955 22.599 13.6955 21.6648C13.695 21.5151 13.6747 21.3661 13.635 21.2218L12.8147 17.2651ZM19.268 19.1176C19.1811 19.0415 19.0878 18.9731 18.9891 18.9132L15.7299 16.6384C15.4125 16.4396 15.0736 16.4448 14.8275 16.6852C14.7201 16.7874 14.652 16.9239 14.6348 17.0712C14.6177 17.2184 14.6527 17.3669 14.7338 17.491L17.1947 20.7254C17.2512 20.8036 17.3139 20.8772 17.3822 20.9452C17.8088 21.4215 18.7547 21.4477 19.2746 20.9452C19.7874 20.4315 19.7813 19.5207 19.268 19.1176ZM21.7172 15.7445H18.4163C18.203 15.7445 18 15.9015 18 16.1265C18 16.3515 18.1383 16.4945 18.3244 16.5559L21.4383 17.5191C21.8906 17.6227 22.5 17.2215 22.5 16.7185C22.5 16.0796 22.1438 15.7445 21.7172 15.7445ZM6.01034 16.1265C6.01034 15.8945 5.79705 15.7445 5.56737 15.7445H2.26643C1.85065 15.7445 1.50002 16.1935 1.50002 16.6965C1.50002 17.1995 2.09159 17.6227 2.54534 17.5191L5.70612 16.5559C5.9119 16.4945 6.01034 16.3571 6.01034 16.1265ZM8.2758 16.6407L5.01565 18.9076C4.91441 18.9644 4.82004 19.0326 4.7344 19.111C4.61021 19.2265 4.51115 19.3664 4.44342 19.5219C4.37569 19.6774 4.34073 19.8452 4.34073 20.0148C4.34073 20.1844 4.37569 20.3522 4.44342 20.5076C4.51115 20.6631 4.61021 20.803 4.7344 20.9185C4.99024 21.1598 5.32864 21.2943 5.68034 21.2943C6.03203 21.2943 6.37043 21.1598 6.62627 20.9185C6.69595 20.8518 6.75877 20.7784 6.81377 20.6991L9.27659 17.4821C9.44065 17.221 9.41346 16.8971 9.18284 16.6852C9.06132 16.5718 8.90352 16.5051 8.73747 16.4969C8.57142 16.4887 8.40785 16.5397 8.2758 16.6407ZM13.756 11.3598C14.2247 11.1057 14.6677 10.8657 15.083 10.6023C17.0733 9.34039 18 7.83664 18 5.86789C18 2.83695 15.3717 0.974139 12.8991 0.758514C12.5949 0.731795 12.196 0.738826 11.9658 0.940389C11.7356 1.14195 11.6902 1.52914 11.6775 1.8357C11.6128 3.41117 10.3472 4.60133 9.00565 5.86039C7.69315 7.0932 6.33705 8.36773 6.06612 10.126C5.6719 12.6891 7.08518 14.1905 7.96268 14.8571C8.22276 15.055 8.54055 15.1622 8.86737 15.1623C8.98433 15.1621 9.10089 15.1484 9.21471 15.1215C9.42938 15.0712 9.63018 14.9738 9.80261 14.8364C9.97504 14.699 10.1148 14.525 10.2117 14.327C10.9106 12.9024 12.3572 12.1182 13.756 11.3598Z" fill="#666666"/>
<path d="M6.55398 7.33717C7.12679 6.59842 7.8196 5.94592 8.49319 5.31451C9.42694 4.43701 10.2655 3.6467 10.6729 2.78982C10.0991 2.44436 9.39038 2.25732 8.49272 2.25732C7.65882 2.25732 7.53694 2.50014 7.53694 3.15076C7.53694 3.73951 7.23085 4.11357 6.86476 4.58748C6.45929 5.11201 5.99991 5.70592 5.99991 6.59982C5.99991 7.07936 6.06038 7.47967 6.19679 7.83592C6.30616 7.66967 6.42523 7.50342 6.55398 7.33717ZM15.4846 11.2358C15.0473 11.5133 14.594 11.7589 14.1135 12.019C12.7584 12.754 11.4787 13.4478 10.8848 14.6572C10.8572 14.7145 10.8278 14.771 10.7966 14.8264C10.7707 14.8725 10.7549 14.9236 10.7501 14.9763C10.7453 15.029 10.7518 15.0821 10.769 15.1321C10.7862 15.1822 10.8138 15.228 10.85 15.2666C10.8862 15.3052 10.9302 15.3357 10.979 15.3561C11.556 15.5951 12.1569 15.7437 12.8029 15.7437C14.1708 15.7528 15.4876 15.2248 16.4704 14.2733C16.9576 13.8006 17.3442 13.2344 17.607 12.6086C17.8699 11.9828 18.0035 11.3103 17.9999 10.6315C17.9996 10.3958 17.9787 10.1605 17.9376 9.92842C17.9255 9.85932 17.8942 9.795 17.8474 9.74277C17.8005 9.69054 17.74 9.6525 17.6726 9.63297C17.6052 9.61344 17.5337 9.6132 17.4662 9.63228C17.3987 9.65136 17.3379 9.689 17.2907 9.74092C16.8135 10.2786 16.2159 10.7722 15.4846 11.2358Z" fill="#666666"/>
</svg>
