<svg width="24" height="24" viewBox="0 0 24 24" fill="none" xmlns="http://www.w3.org/2000/svg">
<path d="M9.48005 3.46721C7.78645 2.65862 5.41926 2.26253 2.25004 2.24846C1.95115 2.2444 1.65813 2.33156 1.41004 2.49831C1.20641 2.63595 1.03973 2.82151 0.924639 3.03869C0.809554 3.25586 0.749597 3.49799 0.750044 3.74378V17.1547C0.750044 18.0613 1.39504 18.7452 2.25004 18.7452C5.58145 18.7452 8.92317 19.0564 10.9247 20.9483C10.9521 20.9743 10.9865 20.9917 11.0237 20.9983C11.0609 21.0049 11.0992 21.0004 11.1338 20.9854C11.1685 20.9705 11.198 20.9456 11.2186 20.914C11.2393 20.8824 11.2502 20.8454 11.25 20.8077V5.00565C11.2501 4.89904 11.2273 4.79365 11.1832 4.6966C11.139 4.59956 11.0745 4.51313 10.9941 4.44315C10.5356 4.0512 10.0263 3.72292 9.48005 3.46721ZM22.59 2.4969C22.3418 2.33057 22.0488 2.2439 21.75 2.24846C18.5808 2.26253 16.2136 2.65674 14.52 3.46721C13.9738 3.72246 13.4644 4.05009 13.0055 4.44128C12.9253 4.51138 12.8609 4.59785 12.8169 4.69487C12.7728 4.79189 12.75 4.89722 12.75 5.00378V20.8067C12.75 20.843 12.7607 20.8785 12.7808 20.9087C12.8008 20.939 12.8294 20.9626 12.8628 20.9767C12.8963 20.9907 12.9331 20.9946 12.9688 20.9878C13.0044 20.981 13.0373 20.9639 13.0632 20.9385C14.2665 19.7432 16.3782 18.7438 21.7519 18.7442C22.1497 18.7442 22.5313 18.5862 22.8126 18.3049C23.0939 18.0236 23.2519 17.6421 23.2519 17.2442V3.74424C23.2525 3.49797 23.1924 3.25536 23.0769 3.03782C22.9615 2.82028 22.7943 2.6345 22.59 2.4969Z" fill="#666666"/>
</svg>
