<svg width="24" height="24" viewBox="0 0 24 24" fill="none" xmlns="http://www.w3.org/2000/svg">
<path d="M18.75 22.501C18.5666 22.5015 18.3893 22.4348 18.2518 22.3135L12 16.7546L5.74831 22.3135C5.64013 22.4096 5.50642 22.4725 5.36333 22.4943C5.22024 22.5162 5.07388 22.4962 4.9419 22.4367C4.80993 22.3772 4.69799 22.2809 4.61958 22.1592C4.54118 22.0375 4.49966 21.8957 4.50003 21.751V4.50098C4.5009 3.70559 4.81725 2.94304 5.37967 2.38062C5.94209 1.81819 6.70465 1.50185 7.50003 1.50098H16.5C17.2954 1.50185 18.058 1.81819 18.6204 2.38062C19.1828 2.94304 19.4992 3.70559 19.5 4.50098V21.751C19.5 21.9499 19.421 22.1407 19.2804 22.2813C19.1397 22.422 18.9489 22.501 18.75 22.501Z" fill="#666666"/>
</svg>
