<svg width="24" height="24" viewBox="0 0 24 24" fill="none" xmlns="http://www.w3.org/2000/svg">
<path d="M12 7.49647V20.9965M12 7.49647C12.75 4.53584 15.5826 3.02412 21.75 2.99647C21.8486 2.99609 21.9462 3.01524 22.0374 3.0528C22.1286 3.09036 22.2114 3.14559 22.2811 3.21531C22.3508 3.28502 22.4061 3.36785 22.4436 3.45901C22.4812 3.55018 22.5003 3.64787 22.5 3.74647V17.2465C22.5 17.4454 22.4209 17.6361 22.2803 17.7768C22.1396 17.9175 21.9489 17.9965 21.75 17.9965C15.75 17.9965 13.432 19.2063 12 20.9965C10.5764 19.2152 8.24995 17.9965 2.24995 17.9965C1.78682 17.9965 1.49995 17.6191 1.49995 17.156V3.74647C1.49958 3.64787 1.51872 3.55018 1.55628 3.45901C1.59384 3.36785 1.64907 3.28502 1.71879 3.21531C1.78851 3.14559 1.87134 3.09036 1.9625 3.0528C2.05366 3.01524 2.15135 2.99609 2.24995 2.99647C8.4173 3.02412 11.25 4.53584 12 7.49647Z" stroke="#666666" stroke-width="1.5" stroke-linecap="round" stroke-linejoin="round"/>
</svg>
