<svg width="24" height="24" viewBox="0 0 24 24" fill="none" xmlns="http://www.w3.org/2000/svg">
<g clip-path="url(#clip0_32_654)">
<path d="M6.00001 3.74829V2.99829C6.00174 2.40209 6.23935 1.8308 6.66093 1.40921C7.08251 0.987631 7.6538 0.750022 8.25001 0.748291H18.75C19.3462 0.750022 19.9175 0.987631 20.3391 1.40921C20.7607 1.8308 20.9983 2.40209 21 2.99829V20.2483L17.25 17.2483" stroke="#666666" stroke-width="1.5" stroke-linejoin="round"/>
<path d="M15 4.49829H5.25004C4.65383 4.50002 4.08254 4.73763 3.66096 5.15921C3.23938 5.5808 3.00177 6.15209 3.00004 6.74829V23.2483L10.125 17.2483L17.25 23.2483V6.74829C17.2483 6.15209 17.0107 5.5808 16.5891 5.15921C16.1675 4.73763 15.5962 4.50002 15 4.49829V4.49829Z" stroke="#666666" stroke-width="1.5" stroke-linejoin="round"/>
</g>
<defs>
<clipPath id="clip0_32_654">
<rect width="24" height="24" fill="white"/>
</clipPath>
</defs>
</svg>
