<svg width="24" height="24" viewBox="0 0 24 24" fill="none" xmlns="http://www.w3.org/2000/svg">
<g clip-path="url(#clip0_32_660)">
<path d="M18.75 0.00012207H8.25002C7.5849 0.00067075 6.93875 0.221859 6.41282 0.629029C5.88689 1.0362 5.51091 1.60634 5.34377 2.25012H16.0313C16.9512 2.25012 17.8335 2.61558 18.484 3.2661C19.1346 3.91661 19.5 4.7989 19.5 5.71887V20.0106L20.5313 20.8356C20.6591 20.9379 20.8169 20.9956 20.9806 20.9999C21.1443 21.0041 21.3049 20.9546 21.4378 20.859C21.5361 20.7865 21.6156 20.6916 21.6699 20.5822C21.7242 20.4728 21.7517 20.3521 21.75 20.23V3.00012C21.75 2.20447 21.434 1.44141 20.8713 0.878802C20.3087 0.316193 19.5457 0.00012207 18.75 0.00012207V0.00012207Z" fill="#666666"/>
<path d="M15.0001 3.75012H5.25008C4.45443 3.75012 3.69137 4.06619 3.12876 4.6288C2.56615 5.19141 2.25008 5.95447 2.25008 6.75012V23.2323C2.24823 23.3539 2.27532 23.4742 2.32911 23.5832C2.3829 23.6923 2.46185 23.787 2.55945 23.8595C2.69504 23.958 2.85969 24.0082 3.02714 24.0021C3.1946 23.9961 3.35521 23.9342 3.48336 23.8262L10.1251 18.2308L16.7668 23.8239C16.8941 23.9311 17.0535 23.993 17.2198 23.9997C17.3862 24.0064 17.55 23.9576 17.6855 23.8609C17.7844 23.7885 17.8645 23.6936 17.9192 23.584C17.9739 23.4745 18.0016 23.3534 18.0001 23.2309V6.75012C18.0001 5.95447 17.684 5.19141 17.1214 4.6288C16.5588 4.06619 15.7957 3.75012 15.0001 3.75012Z" fill="#666666"/>
</g>
<defs>
<clipPath id="clip0_32_660">
<rect width="24" height="24" fill="white"/>
</clipPath>
</defs>
</svg>
