<svg width="24" height="24" viewBox="0 0 24 24" fill="none" xmlns="http://www.w3.org/2000/svg">
<path d="M12.0001 21.7491C17.3848 21.7491 21.7501 17.3839 21.7501 11.9991C21.7501 6.61437 17.3848 2.24915 12.0001 2.24915C6.61528 2.24915 2.25005 6.61437 2.25005 11.9991C2.25005 17.3839 6.61528 21.7491 12.0001 21.7491Z" stroke="#666666" stroke-width="1.5" stroke-miterlimit="10"/>
<path d="M13.4999 10.4983C14.1213 10.4983 14.6249 9.99461 14.6249 9.37329C14.6249 8.75197 14.1213 8.24829 13.4999 8.24829C12.8786 8.24829 12.3749 8.75197 12.3749 9.37329C12.3749 9.99461 12.8786 10.4983 13.4999 10.4983Z" fill="#666666"/>
<path d="M13.875 7.12231C14.4963 7.12231 15 6.61863 15 5.99731C15 5.37599 14.4963 4.87231 13.875 4.87231C13.2537 4.87231 12.75 5.37599 12.75 5.99731C12.75 6.61863 13.2537 7.12231 13.875 7.12231Z" fill="#666666"/>
<path d="M16.875 8.99731C17.4963 8.99731 18 8.49363 18 7.87231C18 7.25099 17.4963 6.74731 16.875 6.74731C16.2537 6.74731 15.75 7.25099 15.75 7.87231C15.75 8.49363 16.2537 8.99731 16.875 8.99731Z" fill="#666666"/>
</svg>
