<svg width="24" height="24" viewBox="0 0 24 24" fill="none" xmlns="http://www.w3.org/2000/svg">
<path d="M19.4246 4.57247C18.4513 3.58957 17.2934 2.80867 16.0174 2.27462C14.7415 1.74056 13.3725 1.46389 11.9893 1.46048C10.6061 1.45708 9.23582 1.72701 7.95723 2.25478C6.67864 2.78254 5.51693 3.55774 4.53884 4.53583C3.56075 5.51392 2.78556 6.67563 2.25779 7.95422C1.73003 9.2328 1.46009 10.6031 1.4635 11.9863C1.4669 13.3695 1.74358 14.7384 2.27763 16.0144C2.81168 17.2904 3.59259 18.4483 4.57548 19.4215C5.54875 20.4044 6.70662 21.1853 7.9826 21.7194C9.25857 22.2534 10.6275 22.5301 12.0107 22.5335C13.3939 22.5369 14.7642 22.267 16.0428 21.7392C17.3214 21.2115 18.4831 20.4363 19.4612 19.4582C20.4393 18.4801 21.2145 17.3184 21.7422 16.0398C22.27 14.7612 22.5399 13.3909 22.5365 12.0077C22.5331 10.6245 22.2565 9.25556 21.7224 7.97958C21.1883 6.70361 20.4074 5.54573 19.4246 4.57247ZM13.4063 10.7782C13.1467 10.7782 12.8929 10.7013 12.6771 10.5571C12.4612 10.4128 12.293 10.2078 12.1937 9.96802C12.0943 9.72819 12.0683 9.46429 12.119 9.20969C12.1696 8.95509 12.2946 8.72123 12.4782 8.53767C12.6617 8.35411 12.8956 8.22911 13.1502 8.17847C13.4048 8.12782 13.6687 8.15382 13.9085 8.25316C14.1484 8.3525 14.3534 8.52072 14.4976 8.73656C14.6418 8.9524 14.7188 9.20616 14.7188 9.46575C14.7188 9.81385 14.5805 10.1477 14.3343 10.3938C14.0882 10.64 13.7544 10.7782 13.4063 10.7782ZM13.7813 7.21575C13.5217 7.21575 13.2679 7.13877 13.0521 6.99455C12.8362 6.85033 12.668 6.64535 12.5687 6.40552C12.4693 6.16569 12.4433 5.90179 12.494 5.64719C12.5446 5.39259 12.6696 5.15873 12.8532 4.97517C13.0367 4.79161 13.2706 4.66661 13.5252 4.61597C13.7798 4.56532 14.0437 4.59132 14.2835 4.69066C14.5234 4.79 14.7284 4.95822 14.8726 5.17406C15.0168 5.3899 15.0938 5.64366 15.0938 5.90325C15.0938 6.25134 14.9555 6.58518 14.7093 6.83133C14.4632 7.07747 14.1294 7.21575 13.7813 7.21575ZM16.9688 9.27825C16.7092 9.27825 16.4554 9.20127 16.2396 9.05705C16.0237 8.91283 15.8555 8.70785 15.7562 8.46802C15.6568 8.22819 15.6308 7.96429 15.6815 7.70969C15.7321 7.45509 15.8571 7.22123 16.0407 7.03767C16.2242 6.85411 16.4581 6.72911 16.7127 6.67847C16.9673 6.62782 17.2312 6.65382 17.471 6.75316C17.7109 6.8525 17.9159 7.02072 18.0601 7.23656C18.2043 7.4524 18.2813 7.70616 18.2813 7.96575C18.2813 8.31385 18.143 8.64769 17.8968 8.89383C17.6507 9.13997 17.3169 9.27825 16.9688 9.27825Z" fill="#666666"/>
</svg>
