<svg width="24" height="24" viewBox="0 0 24 24" fill="none" xmlns="http://www.w3.org/2000/svg">
<path d="M19.4246 4.57247C18.4513 3.58957 17.2935 2.80867 16.0175 2.27462C14.7415 1.74056 13.3726 1.46389 11.9894 1.46048C10.6061 1.45708 9.23588 1.72701 7.95729 2.25478C6.6787 2.78254 5.517 3.55774 4.53891 4.53583C3.56081 5.51392 2.78562 6.67563 2.25785 7.95422C1.73009 9.2328 1.46015 10.6031 1.46356 11.9863C1.46696 13.3695 1.74364 14.7384 2.27769 16.0144C2.81174 17.2904 3.59265 18.4483 4.57554 19.4215C5.54881 20.4044 6.70669 21.1853 7.98266 21.7194C9.25863 22.2534 10.6276 22.5301 12.0108 22.5335C13.394 22.5369 14.7643 22.267 16.0429 21.7392C17.3214 21.2115 18.4832 20.4363 19.4612 19.4582C20.4393 18.4801 21.2145 17.3184 21.7423 16.0398C22.2701 14.7612 22.54 13.3909 22.5366 12.0077C22.5332 10.6245 22.2565 9.25556 21.7225 7.97958C21.1884 6.70361 20.4075 5.54573 19.4246 4.57247ZM13.5001 10.497C13.2776 10.497 13.0601 10.431 12.8751 10.3074C12.6901 10.1838 12.5459 10.0081 12.4607 9.80252C12.3756 9.59695 12.3533 9.37075 12.3967 9.15252C12.4401 8.93429 12.5472 8.73384 12.7046 8.5765C12.8619 8.41917 13.0624 8.31202 13.2806 8.26862C13.4988 8.22521 13.725 8.24749 13.9306 8.33263C14.1362 8.41778 14.3119 8.56198 14.4355 8.74698C14.5591 8.93199 14.6251 9.1495 14.6251 9.372C14.6251 9.67037 14.5066 9.95652 14.2956 10.1675C14.0846 10.3785 13.7984 10.497 13.5001 10.497ZM13.8751 7.122C13.6526 7.122 13.4351 7.05602 13.2501 6.9324C13.0651 6.80879 12.9209 6.63308 12.8357 6.42752C12.7506 6.22195 12.7283 5.99575 12.7717 5.77752C12.8151 5.55929 12.9222 5.35884 13.0796 5.2015C13.2369 5.04417 13.4374 4.93702 13.6556 4.89361C13.8738 4.85021 14.1 4.87248 14.3056 4.95763C14.5112 5.04278 14.6869 5.18698 14.8105 5.37198C14.9341 5.55699 15.0001 5.77449 15.0001 5.997C15.0001 6.29537 14.8816 6.58152 14.6706 6.79249C14.4596 7.00347 14.1734 7.122 13.8751 7.122ZM16.8751 8.997C16.6526 8.997 16.4351 8.93102 16.2501 8.8074C16.0651 8.68379 15.9209 8.50808 15.8357 8.30252C15.7506 8.09695 15.7283 7.87075 15.7717 7.65252C15.8151 7.43429 15.9222 7.23384 16.0796 7.0765C16.2369 6.91917 16.4374 6.81202 16.6556 6.76861C16.8738 6.72521 17.1 6.74749 17.3056 6.83263C17.5112 6.91778 17.6869 7.06198 17.8105 7.24698C17.9341 7.43199 18.0001 7.64949 18.0001 7.872C18.0001 8.17037 17.8816 8.45652 17.6706 8.66749C17.4596 8.87847 17.1734 8.997 16.8751 8.997Z" fill="#666666"/>
</svg>
