<svg width="24" height="24" viewBox="0 0 24 24" fill="none" xmlns="http://www.w3.org/2000/svg">
<g clip-path="url(#clip0_32_675)">
<path d="M15.75 13.4991H8.24996V11.9991H0.749962V21.1866C0.749962 21.3358 0.809225 21.4789 0.914714 21.5844C1.0202 21.6899 1.16328 21.7491 1.31246 21.7491H22.6875C22.8367 21.7491 22.9797 21.6899 23.0852 21.5844C23.1907 21.4789 23.25 21.3358 23.25 21.1866V11.9991H15.75V13.4991ZM23.25 5.81165C23.25 5.66246 23.1907 5.51939 23.0852 5.4139C22.9797 5.30841 22.8367 5.24915 22.6875 5.24915H18V2.62415C18 2.52469 17.9605 2.42931 17.8901 2.35898C17.8198 2.28865 17.7244 2.24915 17.625 2.24915H6.37496C6.27551 2.24915 6.18012 2.28865 6.1098 2.35898C6.03947 2.42931 5.99996 2.52469 5.99996 2.62415V5.24915H1.31246C1.16328 5.24915 1.0202 5.30841 0.914714 5.4139C0.809225 5.51939 0.749962 5.66246 0.749962 5.81165V10.4991H23.25V5.81165ZM16.125 5.24915H7.87496V4.12415H16.125V5.24915Z" fill="#666666"/>
</g>
<defs>
<clipPath id="clip0_32_675">
<rect width="24" height="24" fill="white"/>
</clipPath>
</defs>
</svg>
