<svg width="24" height="24" viewBox="0 0 24 24" fill="none" xmlns="http://www.w3.org/2000/svg">
<path d="M20.2499 5.99915H3.74993C2.50729 5.99915 1.49993 7.00651 1.49993 8.24915V18.7491C1.49993 19.9918 2.50729 20.9991 3.74993 20.9991H20.2499C21.4926 20.9991 22.4999 19.9918 22.4999 18.7491V8.24915C22.4999 7.00651 21.4926 5.99915 20.2499 5.99915Z" stroke="#666666" stroke-width="1.5" stroke-linejoin="round"/>
<path d="M14.9999 11.2473V12.3723C14.9999 12.4718 14.9604 12.5672 14.8901 12.6375C14.8198 12.7078 14.7244 12.7473 14.6249 12.7473H9.37493C9.27547 12.7473 9.18009 12.7078 9.10976 12.6375C9.03944 12.5672 8.99993 12.4718 8.99993 12.3723V11.2473M6.74993 5.99731V4.49731C6.74993 4.09949 6.90796 3.71796 7.18927 3.43665C7.47057 3.15535 7.8521 2.99731 8.24993 2.99731H15.7499C16.1478 2.99731 16.5293 3.15535 16.8106 3.43665C17.0919 3.71796 17.2499 4.09949 17.2499 4.49731V5.99731H6.74993ZM22.4999 11.2473H1.49993H22.4999Z" stroke="#666666" stroke-width="1.5" stroke-linecap="round" stroke-linejoin="round"/>
</svg>
