<svg width="24" height="24" viewBox="0 0 24 24" fill="none" xmlns="http://www.w3.org/2000/svg">
<path d="M23.25 8.24915C23.2492 7.45376 22.9328 6.69121 22.3704 6.12878C21.808 5.56636 21.0454 5.25001 20.25 5.24915H18V4.49915C17.9994 3.9026 17.7622 3.33066 17.3403 2.90884C16.9185 2.48702 16.3466 2.24977 15.75 2.24915H8.25002C7.65348 2.24977 7.08154 2.48702 6.65972 2.90884C6.2379 3.33066 6.00064 3.9026 6.00002 4.49915V5.24915H3.75002C2.95464 5.25001 2.19208 5.56636 1.62966 6.12878C1.06724 6.69121 0.750891 7.45376 0.750023 8.24915V10.4991H23.25V8.24915ZM16.5 5.24915H7.50002V4.49915C7.50002 4.30023 7.57904 4.10947 7.71969 3.96882C7.86035 3.82816 8.05111 3.74915 8.25002 3.74915H15.75C15.9489 3.74915 16.1397 3.82816 16.2804 3.96882C16.421 4.10947 16.5 4.30023 16.5 4.49915V5.24915ZM15.75 12.3741C15.75 12.6725 15.6315 12.9587 15.4205 13.1696C15.2095 13.3806 14.9234 13.4991 14.625 13.4991H9.37502C9.07666 13.4991 8.79051 13.3806 8.57953 13.1696C8.36855 12.9587 8.25002 12.6725 8.25002 12.3741V12.1866C8.25002 12.1369 8.23027 12.0892 8.19511 12.0541C8.15994 12.0189 8.11225 11.9991 8.06252 11.9991H0.750023V18.7491C0.750023 19.5448 1.06609 20.3079 1.6287 20.8705C2.19131 21.4331 2.95437 21.7491 3.75002 21.7491H20.25C21.0457 21.7491 21.8087 21.4331 22.3713 20.8705C22.934 20.3079 23.25 19.5448 23.25 18.7491V11.9991H15.9375C15.8878 11.9991 15.8401 12.0189 15.8049 12.0541C15.7698 12.0892 15.75 12.1369 15.75 12.1866V12.3741Z" fill="#666666"/>
</svg>
