<svg width="24" height="24" viewBox="0 0 24 24" fill="none" xmlns="http://www.w3.org/2000/svg">
<path d="M19.4999 2.99829H4.49995C3.25731 2.99829 2.24995 4.00565 2.24995 5.24829V18.7483C2.24995 19.9909 3.25731 20.9983 4.49995 20.9983H19.4999C20.7426 20.9983 21.7499 19.9909 21.7499 18.7483V5.24829C21.7499 4.00565 20.7426 2.99829 19.4999 2.99829Z" stroke="#666666" stroke-width="1.5" stroke-linejoin="round"/>
<path d="M18.6478 2.99829H5.35213C3.64167 2.99829 2.24995 4.41157 2.24995 6.14829V8.24829H2.99995C2.99995 7.49829 3.74995 6.74829 4.49995 6.74829H19.4999C20.2499 6.74829 20.9999 7.49829 20.9999 8.24829H21.7499V6.14829C21.7499 4.41157 20.3582 2.99829 18.6478 2.99829Z" fill="#666666"/>
</svg>
