<svg width="24" height="24" viewBox="0 0 24 24" fill="none" xmlns="http://www.w3.org/2000/svg">
<path d="M1.49998 2.99561V20.9956C1.49998 21.1945 1.57899 21.3853 1.71965 21.5259C1.8603 21.6666 2.05106 21.7456 2.24998 21.7456H21.75C21.9489 21.7456 22.1397 21.6666 22.2803 21.5259C22.421 21.3853 22.5 21.1945 22.5 20.9956V2.99561C22.5 2.79669 22.421 2.60593 22.2803 2.46528C22.1397 2.32462 21.9489 2.24561 21.75 2.24561H2.24998C2.05106 2.24561 1.8603 2.32462 1.71965 2.46528C1.57899 2.60593 1.49998 2.79669 1.49998 2.99561ZM20.625 20.0581H3.37498C3.32525 20.0581 3.27756 20.0384 3.24239 20.0032C3.20723 19.968 3.18748 19.9203 3.18748 19.8706V7.12061C3.18748 7.07088 3.20723 7.02319 3.24239 6.98802C3.27756 6.95286 3.32525 6.93311 3.37498 6.93311H20.625C20.6747 6.93311 20.7224 6.95286 20.7576 6.98802C20.7927 7.02319 20.8125 7.07088 20.8125 7.12061V19.8706C20.8125 19.9203 20.7927 19.968 20.7576 20.0032C20.7224 20.0384 20.6747 20.0581 20.625 20.0581Z" fill="#666666"/>
</svg>
