<svg width="24" height="24" viewBox="0 0 24 24" fill="none" xmlns="http://www.w3.org/2000/svg">
<path d="M19.5 2.24561H4.50004C3.70439 2.24561 2.94133 2.56168 2.37872 3.12429C1.81611 3.68689 1.50004 4.44996 1.50004 5.24561V18.7456C1.50004 19.5413 1.81611 20.3043 2.37872 20.8669C2.94133 21.4295 3.70439 21.7456 4.50004 21.7456H19.5C20.2957 21.7456 21.0588 21.4295 21.6214 20.8669C22.184 20.3043 22.5 19.5413 22.5 18.7456V5.24561C22.5 4.44996 22.184 3.68689 21.6214 3.12429C21.0588 2.56168 20.2957 2.24561 19.5 2.24561ZM20.625 6.74561H3.37504C3.27558 6.74561 3.1802 6.7061 3.10987 6.63577C3.03955 6.56544 3.00004 6.47006 3.00004 6.37061V5.24561C3.00115 4.84812 3.15954 4.46724 3.44061 4.18618C3.72167 3.90511 4.10256 3.74672 4.50004 3.74561H19.5C19.8975 3.74672 20.2784 3.90511 20.5595 4.18618C20.8405 4.46724 20.9989 4.84812 21 5.24561V6.37061C21 6.47006 20.9605 6.56544 20.8902 6.63577C20.8199 6.7061 20.7245 6.74561 20.625 6.74561Z" fill="#666666"/>
</svg>
