<svg width="24" height="24" viewBox="0 0 24 24" fill="none" xmlns="http://www.w3.org/2000/svg">
<path d="M21.2048 2.79244C20.8489 2.43652 20.3662 2.23657 19.8628 2.23657C19.3594 2.23657 18.8767 2.43652 18.5208 2.79244L8.62499 13.8132C9.70686 14.0335 10.7869 15.0924 10.9341 16.1223L21.2048 5.4765C21.5608 5.12057 21.7607 4.63783 21.7607 4.13447C21.7607 3.63112 21.5608 3.14837 21.2048 2.79244V2.79244ZM6.46874 15.7473C5.06811 15.7473 3.93749 16.8957 3.93749 18.3188C3.93749 19.4415 2.95874 20.0331 2.24999 20.0331C3.02624 21.0788 4.35093 21.7473 5.62499 21.7473C7.48968 21.7473 8.99999 20.2131 8.99999 18.3188C8.99999 16.8957 7.86936 15.7473 6.46874 15.7473Z" stroke="#666666" stroke-width="1.5" stroke-linecap="round" stroke-linejoin="round"/>
</svg>
