<svg width="24" height="24" viewBox="0 0 24 24" fill="none" xmlns="http://www.w3.org/2000/svg">
<path d="M10.9289 16.877C10.8506 16.8773 10.7727 16.8651 10.6983 16.8409C10.5644 16.7976 10.4454 16.7174 10.3548 16.6097C10.2643 16.5019 10.206 16.3709 10.1864 16.2315C10.0856 15.5284 9.25125 14.7099 8.46984 14.551C8.3408 14.5243 8.22108 14.4641 8.12271 14.3765C8.02434 14.2888 7.95081 14.1768 7.90951 14.0516C7.86822 13.9265 7.86061 13.7927 7.88747 13.6637C7.91433 13.5347 7.97469 13.4151 8.06249 13.3168L17.9573 2.2965C17.9662 2.28619 17.9756 2.27634 17.985 2.26697C18.4821 1.77128 19.1554 1.49292 19.8574 1.49292C20.5594 1.49292 21.2328 1.77128 21.7298 2.26697C22.2253 2.76279 22.5041 3.43479 22.5051 4.13575C22.506 4.83671 22.2291 5.50947 21.735 6.00666L11.4694 16.6473C11.3994 16.72 11.3154 16.7778 11.2226 16.8172C11.1297 16.8567 11.0298 16.877 10.9289 16.877ZM5.61984 22.502C4.11328 22.502 2.55187 21.7102 1.64249 20.4863C1.55961 20.3747 1.50937 20.2423 1.49739 20.1038C1.4854 19.9653 1.51214 19.8262 1.57461 19.7021C1.63709 19.5779 1.73285 19.4735 1.8512 19.4006C1.96955 19.3277 2.10583 19.2891 2.24484 19.2892C2.49515 19.2892 3.18234 19.0609 3.18234 18.3249C3.18234 16.4935 4.65421 15.0034 6.46359 15.0034C8.27296 15.0034 9.74484 16.4935 9.74484 18.3249C9.74484 20.6274 7.89421 22.502 5.61984 22.502Z" fill="#666666"/>
</svg>
