<svg width="24" height="24" viewBox="0 0 24 24" fill="none" xmlns="http://www.w3.org/2000/svg">
<path d="M12 8.99744V20.9974M17.3438 17.7162C18.698 18.8187 19.5 19.8757 19.5 21.7474L17.3438 17.7162ZM6.65628 17.7162C5.30207 18.8187 4.50003 19.8753 4.50003 21.7474L6.65628 17.7162ZM18 9.74744C19.3543 8.64494 19.5 7.11916 19.5 5.24744L18 9.74744ZM6.00003 9.65369C4.64582 8.55119 4.50003 7.11962 4.50003 5.24744L6.00003 9.65369ZM21.75 13.5035H18H21.75ZM6.00003 13.5035H2.25003H6.00003Z" stroke="#666666" stroke-width="1.5" stroke-linecap="round" stroke-linejoin="round"/>
<path d="M12 20.9989C8.70004 20.9989 6.00004 18.2989 6.00004 14.9989V10.4956C6.00004 7.44545 8.70004 5.99561 12 5.99561C15.3 5.99561 18 7.19561 18 10.4956V14.9989C18 18.2989 15.3 20.9989 12 20.9989Z" stroke="#666666" stroke-width="1.5" stroke-linecap="round" stroke-linejoin="round"/>
<path d="M8.4109 6.72311C8.31709 6.48785 8.26276 6.23872 8.25012 5.98576C8.25272 4.99461 8.64761 4.0448 9.34846 3.34394C10.0493 2.64309 10.9991 2.2482 11.9903 2.24561H12.01C13.0011 2.2482 13.9509 2.64309 14.6518 3.34394C15.3526 4.0448 15.7475 4.99461 15.7501 5.98576C15.7411 6.21605 15.6916 6.44295 15.6039 6.65608" stroke="#666666" stroke-width="1.5" stroke-linecap="round" stroke-linejoin="round"/>
</svg>
