<svg width="24" height="24" viewBox="0 0 24 24" fill="none" xmlns="http://www.w3.org/2000/svg">
<path d="M22.4999 14.2552V12.7552H18.7499V10.0866C20.129 8.77649 20.2499 7.05102 20.2499 5.24915V4.49915H18.7499V5.24915C18.7499 6.56165 18.6627 7.50618 18.2859 8.24165C17.2499 5.99915 15.2024 5.24915 11.9999 5.24915C10.1343 5.24915 8.4754 5.58008 7.29227 6.38915C6.59383 6.8668 6.11102 7.5568 5.75946 8.25102C5.34368 7.52586 5.24993 6.60008 5.24993 5.24915V4.49915H3.74993V5.24915C3.74993 7.00415 3.87133 8.6879 5.24993 9.9929V12.7552H1.49993V14.2552L5.24993 14.2491C5.24993 15.1398 5.42337 16.7377 5.73696 17.5159C4.52805 18.5973 3.74993 19.7949 3.74993 21.7491V22.4991H5.24993V21.7491C5.24993 20.4526 5.67649 19.6534 6.47665 18.8748C7.49993 20.9991 8.2968 21.7491 11.2499 21.7491V8.24915H12.7499V21.7491C15.7968 21.7491 16.4999 20.9991 17.5232 18.8748C18.3234 19.6534 18.7499 20.4531 18.7499 21.7491V22.4991H20.2499V21.7491C20.2499 19.7954 19.4718 18.5977 18.2629 17.5159C18.5765 16.7377 18.7499 15.1398 18.7499 14.2491L22.4999 14.2552Z" fill="#666666"/>
<path d="M12 1.49744C9.7472 1.49744 7.50002 1.49744 7.50002 5.43494C8.72439 4.77869 10.282 4.49744 12 4.49744C13.1292 4.49744 14.1605 4.62166 15.0652 4.87244C15.5691 5.01306 16.2211 5.28072 16.5 5.43494C16.5 1.49744 14.2528 1.49744 12 1.49744Z" fill="#666666"/>
</svg>
