<svg width="24" height="24" viewBox="0 0 24 24" fill="none" xmlns="http://www.w3.org/2000/svg">
<path d="M21.7288 12.7552H18.7499V10.4959C18.7499 10.3609 18.7457 10.2285 18.7373 10.0988C20.1234 8.79196 20.249 7.0693 20.2499 5.27071C20.2499 4.86712 19.9387 4.52071 19.5351 4.50149C19.4339 4.49674 19.3327 4.51255 19.2378 4.54796C19.1429 4.58337 19.0561 4.63765 18.9827 4.70752C18.9093 4.7774 18.8509 4.86141 18.8109 4.9545C18.7709 5.04759 18.7501 5.14782 18.7499 5.24915C18.7499 6.56165 18.6627 7.50618 18.2859 8.24165C17.3849 6.31274 15.2024 5.24587 11.9999 5.24587C10.1343 5.24587 8.52227 5.67383 7.33914 6.4829C6.64071 6.96055 6.11102 7.5568 5.75946 8.25102C5.34367 7.52962 5.24992 6.60852 5.24992 5.27071C5.24992 4.86712 4.94055 4.52071 4.53742 4.50008C4.4359 4.495 4.33441 4.51061 4.2391 4.54596C4.1438 4.58131 4.05667 4.63566 3.98302 4.70572C3.90937 4.77578 3.85073 4.86007 3.81066 4.95349C3.77059 5.04691 3.74992 5.1475 3.74992 5.24915C3.74992 7.01305 3.87227 8.70524 5.27055 10.0131C5.25711 10.1712 5.25024 10.3321 5.24992 10.4959V12.7552H2.27102C1.86742 12.7552 1.52102 13.0656 1.50086 13.4691C1.49597 13.5706 1.51175 13.6721 1.54725 13.7673C1.58274 13.8625 1.63721 13.9495 1.70735 14.023C1.77749 14.0965 1.86183 14.155 1.95526 14.1949C2.04869 14.2348 2.14926 14.2554 2.25086 14.2552H5.25086V14.9991C5.25017 15.8615 5.41552 16.716 5.73789 17.5159C4.53461 18.5916 3.75836 19.7804 3.74992 21.7182C3.74992 22.1279 4.06024 22.4823 4.46992 22.4987C4.57087 22.5027 4.67159 22.4863 4.76605 22.4505C4.8605 22.4146 4.94674 22.3601 5.01959 22.2901C5.09243 22.2201 5.15039 22.1361 5.18997 22.0431C5.22955 21.9502 5.24994 21.8502 5.24992 21.7491C5.24992 20.4526 5.67649 19.6534 6.47664 18.8748C7.39935 20.1882 8.75887 21.1309 10.3124 21.5345C10.4232 21.5631 10.5391 21.5659 10.6512 21.5429C10.7633 21.5198 10.8687 21.4713 10.9592 21.4012C11.0497 21.3311 11.1229 21.2413 11.1733 21.1385C11.2237 21.0358 11.2499 20.9228 11.2499 20.8084V9.02024C11.2499 8.61665 11.5602 8.27024 11.9638 8.25008C12.0652 8.2452 12.1666 8.26095 12.2617 8.29639C12.3569 8.33183 12.4438 8.38621 12.5173 8.45625C12.5908 8.52629 12.6493 8.61052 12.6893 8.70384C12.7293 8.79716 12.7499 8.89762 12.7499 8.99915V20.8084C12.7499 20.9228 12.7761 21.0358 12.8265 21.1385C12.8769 21.2413 12.9502 21.3311 13.0407 21.4012C13.1312 21.4713 13.2365 21.5198 13.3486 21.5429C13.4607 21.5659 13.5766 21.5631 13.6874 21.5345C15.2408 21.1306 16.6001 20.188 17.5227 18.8748C18.3196 19.6501 18.7457 20.446 18.7495 21.7318C18.7478 21.9257 18.82 22.113 18.9515 22.2556C19.083 22.3981 19.2638 22.4852 19.4573 22.4991C19.5593 22.505 19.6614 22.4899 19.7574 22.4548C19.8534 22.4197 19.9412 22.3654 20.0154 22.2952C20.0896 22.2249 20.1487 22.1403 20.189 22.0464C20.2294 21.9525 20.2501 21.8513 20.2499 21.7491C20.2499 19.7954 19.4718 18.5977 18.2629 17.5159C18.5853 16.716 18.7506 15.8615 18.7499 14.9991V14.2552H21.7499C21.8515 14.2554 21.9521 14.2348 22.0455 14.1949C22.139 14.155 22.2233 14.0965 22.2934 14.023C22.3636 13.9495 22.418 13.8625 22.4535 13.7673C22.489 13.6721 22.5048 13.5706 22.4999 13.4691C22.4802 13.0656 22.1324 12.7552 21.7288 12.7552Z" fill="#666666"/>
<path d="M15.0653 4.87244L15.0803 4.87666C15.7164 5.05478 16.2554 4.38212 15.9334 3.80556C15.5442 3.10632 14.9753 2.5237 14.2856 2.11792C13.5958 1.71214 12.8102 1.49794 12.01 1.49744H11.9903C11.1819 1.49798 10.3887 1.71655 9.69418 2.1301C8.99965 2.54365 8.42952 3.13688 8.04386 3.84728C7.72324 4.43697 8.2848 5.11291 8.92699 4.91884C9.85089 4.63759 10.8859 4.49416 12.0001 4.49416C13.1293 4.49416 14.1606 4.62166 15.0653 4.87244Z" fill="#666666"/>
</svg>
