<svg width="24" height="24" viewBox="0 0 24 24" fill="none" xmlns="http://www.w3.org/2000/svg">
<path d="M18.4626 8.90526C18.1807 9.18535 17.7994 9.34256 17.402 9.34256C17.0046 9.34256 16.6234 9.18535 16.3415 8.90526L15.096 7.65979C14.8157 7.37793 14.6583 6.99655 14.6583 6.59901C14.6583 6.20147 14.8157 5.82009 15.096 5.53823L17.9151 2.71776C17.9207 2.71239 17.9248 2.70573 17.9272 2.69836C17.9296 2.691 17.9301 2.68316 17.9287 2.67554C17.9273 2.66793 17.924 2.66078 17.9192 2.65473C17.9144 2.64869 17.9081 2.64393 17.901 2.64088C16.0813 1.86088 13.7221 2.25838 12.224 3.74573C10.7906 5.16838 10.709 7.30823 11.234 9.17573C11.3086 9.44118 11.3084 9.72207 11.2335 9.98742C11.1585 10.2528 11.0117 10.4923 10.8093 10.6795L2.99993 17.8115C2.76952 18.0158 2.58333 18.265 2.45281 18.5439C2.32229 18.8228 2.25019 19.1255 2.24095 19.4333C2.23171 19.7411 2.28553 20.0475 2.39908 20.3337C2.51264 20.6199 2.68354 20.8799 2.90128 21.0977C3.11902 21.3154 3.37899 21.4863 3.66522 21.5999C3.95144 21.7134 4.25787 21.7672 4.56566 21.758C4.87345 21.7487 5.17609 21.6766 5.45499 21.5461C5.73389 21.4156 5.98314 21.2294 6.18743 20.999L13.3996 13.1709C13.5844 12.9719 13.82 12.8269 14.0809 12.7515C14.3418 12.6761 14.6184 12.6731 14.8809 12.7429C16.7343 13.2393 18.8437 13.146 20.2584 11.7496C21.7813 10.2496 22.1099 7.59838 21.3716 6.08104C21.3683 6.07441 21.3635 6.06866 21.3575 6.06427C21.3515 6.05988 21.3446 6.05697 21.3373 6.05578C21.3299 6.05459 21.3224 6.05515 21.3154 6.05743C21.3083 6.0597 21.3019 6.06362 21.2966 6.06885L18.4626 8.90526Z" stroke="#666666" stroke-width="1.5" stroke-miterlimit="10" stroke-linecap="round"/>
<path d="M4.49999 20.2465C4.91421 20.2465 5.24999 19.9107 5.24999 19.4965C5.24999 19.0822 4.91421 18.7465 4.49999 18.7465C4.08578 18.7465 3.74999 19.0822 3.74999 19.4965C3.74999 19.9107 4.08578 20.2465 4.49999 20.2465Z" fill="#666666"/>
</svg>
