<svg width="24" height="24" viewBox="0 0 24 24" fill="none" xmlns="http://www.w3.org/2000/svg">
<path d="M22.0097 5.64683C21.9557 5.54179 21.8776 5.451 21.7819 5.38184C21.6861 5.31267 21.5754 5.2671 21.4587 5.24882C21.3421 5.23055 21.2227 5.24009 21.1104 5.27667C20.9981 5.31325 20.896 5.37584 20.8125 5.45933L17.9325 8.3412C17.7911 8.48053 17.6006 8.55863 17.4021 8.55863C17.2036 8.55863 17.0131 8.48053 16.8717 8.3412L15.6267 7.09433C15.557 7.02468 15.5018 6.942 15.4641 6.85099C15.4264 6.75999 15.407 6.66244 15.407 6.56394C15.407 6.46543 15.4264 6.36789 15.4641 6.27689C15.5018 6.18588 15.557 6.10319 15.6267 6.03355L18.4945 3.16527C18.5805 3.07931 18.6443 2.97374 18.6804 2.85765C18.7165 2.74156 18.7238 2.61844 18.7018 2.49888C18.6797 2.37933 18.629 2.26692 18.5538 2.17135C18.4787 2.07578 18.3814 1.9999 18.2705 1.95027C16.1044 0.981828 13.4006 1.48714 11.6958 3.17933C10.2473 4.61745 9.81561 6.86464 10.5122 9.3448C10.5497 9.47706 10.5499 9.61713 10.5128 9.74951C10.4757 9.88188 10.4026 10.0014 10.3017 10.0948L2.49796 17.2221C2.19394 17.4951 1.94873 17.8271 1.77726 18.198C1.6058 18.5688 1.51168 18.9707 1.50065 19.3791C1.48963 19.7876 1.56192 20.194 1.71312 20.5735C1.86432 20.9531 2.09126 21.2979 2.3801 21.5868C2.66894 21.8758 3.01362 22.1029 3.39312 22.2543C3.77261 22.4056 4.17897 22.4781 4.58739 22.4672C4.99582 22.4564 5.39775 22.3625 5.76868 22.1912C6.1396 22.0199 6.47174 21.7748 6.74483 21.4709L13.9486 13.6498C14.0406 13.5502 14.1581 13.4776 14.2884 13.4399C14.4187 13.4021 14.5568 13.4007 14.6878 13.4356C15.3939 13.6291 16.1223 13.7294 16.8544 13.7342C18.42 13.7342 19.7939 13.2275 20.7848 12.251C22.62 10.4431 22.8998 7.37652 22.0097 5.64683ZM4.66311 20.9576C4.35439 20.9913 4.04283 20.9284 3.77141 20.7774C3.49999 20.6265 3.28211 20.3951 3.14782 20.1151C3.01354 19.835 2.96948 19.5202 3.02173 19.2141C3.07397 18.908 3.21995 18.6256 3.4395 18.406C3.65906 18.1864 3.94137 18.0403 4.24748 17.9879C4.55359 17.9356 4.8684 17.9795 5.14847 18.1137C5.42853 18.2479 5.66005 18.4657 5.81106 18.7371C5.96208 19.0084 6.02514 19.32 5.99155 19.6287C5.95459 19.9684 5.80277 20.2853 5.5612 20.5269C5.31963 20.7686 5.00279 20.9205 4.66311 20.9576Z" fill="#666666"/>
</svg>
