<svg width="24" height="24" viewBox="0 0 24 24" fill="none" xmlns="http://www.w3.org/2000/svg">
<g clip-path="url(#clip0_32_713)">
<path d="M9.7501 21.7501H14.2501V23.2501H9.7501V21.7501ZM9.0001 19.5001H15.0001V21.0001H9.0001V19.5001ZM17.3167 2.93874C15.9071 1.52733 14.019 0.750143 12.0001 0.750143C11.0145 0.747794 10.0382 0.940184 9.1272 1.31626C8.21619 1.69234 7.38847 2.2447 6.69156 2.9416C5.99465 3.63851 5.44229 4.46624 5.06622 5.37724C4.69014 6.28824 4.49775 7.26457 4.5001 8.25015C4.5001 10.4355 5.33775 12.4797 6.79697 13.8583L7.00135 14.05C7.84557 14.8394 9.0001 15.9208 9.0001 16.8751V18.7501H11.2501V12.6147L9.17447 11.4376L10.0313 10.2058L12.0001 11.2501L13.9356 10.2006L14.8309 11.4044L12.7501 12.6231V18.7501H15.0001V16.8751C15.0001 15.9433 16.142 14.8628 16.9759 14.0734L17.206 13.855C18.707 12.422 19.5001 10.4819 19.5001 8.25015C19.5051 7.26448 19.3147 6.2876 18.9399 5.37594C18.5651 4.46429 18.0134 3.63593 17.3167 2.93874Z" fill="#666666"/>
</g>
<defs>
<clipPath id="clip0_32_713">
<rect width="24" height="24" fill="white" transform="translate(0 -0.00390625)"/>
</clipPath>
</defs>
</svg>
