<svg width="24" height="24" viewBox="0 0 24 24" fill="none" xmlns="http://www.w3.org/2000/svg">
<g clip-path="url(#clip0_32_710)">
<path d="M12.0001 17.9983V11.9983M14.2501 17.9983V16.8733C14.2501 15.5139 15.7285 14.2282 16.6876 13.3108C18.0394 12.0185 18.7501 10.2822 18.7501 8.24832C18.7501 4.49832 15.7627 1.49832 12.0001 1.49832C11.1129 1.49584 10.2341 1.66875 9.41403 2.00709C8.59396 2.34543 7.84887 2.84254 7.22158 3.46983C6.59429 4.09712 6.09718 4.84221 5.75884 5.66228C5.42049 6.48234 5.24759 7.3612 5.25006 8.24832C5.25006 10.2096 5.99116 12.0635 7.31256 13.3108C8.26647 14.2113 9.75007 15.4999 9.75007 16.8733V17.9983H14.2501ZM10.5001 22.4983H13.5001H10.5001ZM9.75007 20.2483H14.2501H9.75007Z" stroke="#666666" stroke-width="1.5" stroke-linecap="round" stroke-linejoin="round"/>
<path d="M13.7813 11.2474C13.7813 11.2474 12.773 11.9974 12.0001 11.9974C11.2271 11.9974 10.2188 11.2474 10.2188 11.2474" stroke="#666666" stroke-width="1.5" stroke-linecap="round" stroke-linejoin="round"/>
</g>
<defs>
<clipPath id="clip0_32_710">
<rect width="24" height="24" fill="white" transform="translate(0.00012207 -0.00390625)"/>
</clipPath>
</defs>
</svg>
