<svg width="24" height="24" viewBox="0 0 24 24" fill="none" xmlns="http://www.w3.org/2000/svg">
<g clip-path="url(#clip0_32_715)">
<path d="M13.5 21.7501H10.5C10.3011 21.7501 10.1103 21.8292 9.96969 21.9698C9.82904 22.1105 9.75002 22.3012 9.75002 22.5001C9.75002 22.6991 9.82904 22.8898 9.96969 23.0305C10.1103 23.1711 10.3011 23.2501 10.5 23.2501H13.5C13.6989 23.2501 13.8897 23.1711 14.0303 23.0305C14.171 22.8898 14.25 22.6991 14.25 22.5001C14.25 22.3012 14.171 22.1105 14.0303 21.9698C13.8897 21.8292 13.6989 21.7501 13.5 21.7501ZM14.25 19.5001H9.75002C9.55111 19.5001 9.36034 19.5792 9.21969 19.7198C9.07904 19.8605 9.00002 20.0512 9.00002 20.2501C9.00002 20.4491 9.07904 20.6398 9.21969 20.7805C9.36034 20.9211 9.55111 21.0001 9.75002 21.0001H14.25C14.4489 21.0001 14.6397 20.9211 14.7803 20.7805C14.921 20.6398 15 20.4491 15 20.2501C15 20.0512 14.921 19.8605 14.7803 19.7198C14.6397 19.5792 14.4489 19.5001 14.25 19.5001ZM17.3166 2.93874C15.9071 1.52733 14.0189 0.750143 12 0.750143C11.0144 0.747794 10.0381 0.940184 9.12712 1.31626C8.21611 1.69234 7.38839 2.2447 6.69148 2.9416C5.99457 3.63851 5.44221 4.46624 5.06614 5.37724C4.69006 6.28824 4.49767 7.26457 4.50002 8.25015C4.50002 10.4355 5.33767 12.4797 6.79689 13.8583L7.00127 14.05C7.84549 14.8394 9.00002 15.9208 9.00002 16.8751V18.0001C9.00002 18.1991 9.07904 18.3898 9.21969 18.5305C9.36034 18.6711 9.55111 18.7501 9.75002 18.7501H10.875C10.9745 18.7501 11.0699 18.7106 11.1402 18.6403C11.2105 18.57 11.25 18.4746 11.25 18.3751V12.8823C11.25 12.8065 11.2271 12.7324 11.1841 12.6699C11.1412 12.6074 11.0803 12.5594 11.0095 12.5322C10.5765 12.3555 10.165 12.1298 9.7833 11.8595C9.69751 11.8047 9.62378 11.7331 9.56658 11.6489C9.50938 11.5647 9.46992 11.4697 9.45059 11.3698C9.43127 11.2699 9.43249 11.167 9.45418 11.0676C9.47587 10.9682 9.51757 10.8742 9.57675 10.7913C9.63593 10.7085 9.71134 10.6386 9.7984 10.5859C9.88546 10.5332 9.98235 10.4987 10.0832 10.4846C10.184 10.4705 10.2866 10.4771 10.3848 10.504C10.4829 10.5308 10.5746 10.5774 10.6542 10.6408C11.0011 10.8864 11.6691 11.2501 12 11.2501C12.331 11.2501 12.9989 10.8855 13.3467 10.6408C13.5087 10.539 13.7034 10.5029 13.8911 10.5399C14.0788 10.5769 14.2452 10.6843 14.3563 10.84C14.4675 10.9957 14.5149 11.1879 14.489 11.3775C14.463 11.567 14.3656 11.7394 14.2167 11.8595C13.8349 12.1293 13.4235 12.3545 12.9905 12.5308C12.9197 12.558 12.8588 12.606 12.8159 12.6685C12.773 12.731 12.75 12.8051 12.75 12.8809V18.3751C12.75 18.4746 12.7895 18.57 12.8599 18.6403C12.9302 18.7106 13.0256 18.7501 13.125 18.7501H14.25C14.4489 18.7501 14.6397 18.6711 14.7803 18.5305C14.921 18.3898 15 18.1991 15 18.0001V16.8751C15 15.9433 16.1419 14.8628 16.9758 14.0734L17.206 13.855C18.7069 12.422 19.5 10.4819 19.5 8.25015C19.505 7.26448 19.3146 6.2876 18.9398 5.37594C18.5651 4.46429 18.0133 3.63593 17.3166 2.93874Z" fill="#666666"/>
</g>
<defs>
<clipPath id="clip0_32_715">
<rect width="24" height="24" fill="white" transform="translate(0 -0.00390625)"/>
</clipPath>
</defs>
</svg>
