<svg width="24" height="24" viewBox="0 0 24 24" fill="none" xmlns="http://www.w3.org/2000/svg">
<path d="M19.8751 1.49829H4.12506C3.82669 1.49829 3.54055 1.61682 3.32957 1.8278C3.11859 2.03877 3.00006 2.32492 3.00006 2.62329V19.4983C3.00009 19.7616 3.06941 20.0202 3.20106 20.2482C3.33271 20.4762 3.52205 20.6656 3.75006 20.7972V22.4983H7.12506V20.9983H16.8751V22.4983H20.2501V20.7972C20.4781 20.6656 20.6674 20.4762 20.7991 20.2482C20.9307 20.0202 21 19.7616 21.0001 19.4983V2.62329C21.0001 2.32492 20.8815 2.03877 20.6706 1.8278C20.4596 1.61682 20.1734 1.49829 19.8751 1.49829ZM8.24163 17.4109C8.21087 17.692 8.1013 17.9587 7.92555 18.1802C7.7498 18.4016 7.51504 18.5689 7.24831 18.6628C6.98159 18.7566 6.69378 18.7731 6.41807 18.7105C6.14236 18.6478 5.88998 18.5085 5.69002 18.3086C5.49006 18.1087 5.35067 17.8563 5.28793 17.5807C5.22518 17.305 5.24164 17.0171 5.33539 16.7504C5.42915 16.4836 5.59639 16.2488 5.81782 16.073C6.03926 15.8972 6.30588 15.7876 6.58694 15.7567C6.81 15.733 7.03554 15.7595 7.24703 15.8343C7.45853 15.909 7.65063 16.0302 7.80926 16.1887C7.9679 16.3473 8.08906 16.5394 8.16387 16.7509C8.23868 16.9624 8.26525 17.1879 8.24163 17.4109ZM11.2501 13.4983H4.50006V5.99829H11.2501V13.4983ZM12.0001 4.49829H4.52163L4.50006 2.99829H19.5001L19.4785 4.49829H12.0001ZM12.7501 5.99829H19.5001V13.4983H12.7501V5.99829ZM15.7585 17.0856C15.7893 16.8046 15.8988 16.5379 16.0746 16.3164C16.2503 16.0949 16.4851 15.9276 16.7518 15.8338C17.0185 15.74 17.3063 15.7234 17.5821 15.7861C17.8578 15.8488 18.1102 15.9881 18.3101 16.188C18.5101 16.3879 18.6495 16.6402 18.7122 16.9159C18.7749 17.1916 18.7585 17.4794 18.6647 17.7462C18.571 18.0129 18.4037 18.2478 18.1823 18.4236C17.9609 18.5994 17.6942 18.709 17.4132 18.7399C17.1901 18.7635 16.9646 18.737 16.7531 18.6623C16.5416 18.5875 16.3495 18.4664 16.1909 18.3078C16.0322 18.1492 15.9111 17.9572 15.8363 17.7457C15.7614 17.5342 15.7349 17.3087 15.7585 17.0856Z" fill="#666666"/>
</svg>
