<svg width="24" height="24" viewBox="0 0 24 24" fill="none" xmlns="http://www.w3.org/2000/svg">
<path d="M18.7499 5.24829H5.24989C4.42146 5.24829 3.74989 5.91986 3.74989 6.74829V12.7483C3.74989 13.5767 4.42146 14.2483 5.24989 14.2483H18.7499C19.5783 14.2483 20.2499 13.5767 20.2499 12.7483V6.74829C20.2499 5.91986 19.5783 5.24829 18.7499 5.24829Z" stroke="#666666" stroke-width="1.5" stroke-linecap="round" stroke-linejoin="round"/>
<path d="M18.7499 14.2491H5.24989C4.42146 14.2491 3.74989 14.9207 3.74989 15.7491V18.7491C3.74989 19.5776 4.42146 20.2491 5.24989 20.2491H18.7499C19.5783 20.2491 20.2499 19.5776 20.2499 18.7491V15.7491C20.2499 14.9207 19.5783 14.2491 18.7499 14.2491Z" stroke="#666666" stroke-width="1.5" stroke-linecap="round" stroke-linejoin="round"/>
<path d="M18.7499 5.24646H5.24989C4.85241 5.24535 4.47152 5.08695 4.19046 4.80589C3.90939 4.52483 3.751 4.14394 3.74989 3.74646V3.74646C3.751 3.34898 3.90939 2.96809 4.19046 2.68703C4.47152 2.40597 4.85241 2.24757 5.24989 2.24646H18.7499C19.1474 2.24757 19.5283 2.40597 19.8093 2.68703C20.0904 2.96809 20.2488 3.34898 20.2499 3.74646V3.74646C20.2488 4.14394 20.0904 4.52483 19.8093 4.80589C19.5283 5.08695 19.1474 5.24535 18.7499 5.24646V5.24646ZM6.74989 20.2465V21.2777C6.74989 21.402 6.7005 21.5213 6.6126 21.6092C6.52469 21.6971 6.40546 21.7465 6.28114 21.7465H4.96864C4.84432 21.7465 4.72509 21.6971 4.63718 21.6092C4.54927 21.5213 4.49989 21.402 4.49989 21.2777V20.2465H6.74989ZM19.4999 20.2465V21.2777C19.4999 21.402 19.4505 21.5213 19.3626 21.6092C19.2747 21.6971 19.1555 21.7465 19.0311 21.7465H17.7186C17.5943 21.7465 17.4751 21.6971 17.3872 21.6092C17.2993 21.5213 17.2499 21.402 17.2499 21.2777V20.2465H19.4999Z" stroke="#666666" stroke-width="1.5" stroke-linecap="round" stroke-linejoin="round"/>
<path d="M17.2499 17.9983C17.6642 17.9983 17.9999 17.6625 17.9999 17.2483C17.9999 16.8341 17.6642 16.4983 17.2499 16.4983C16.8357 16.4983 16.4999 16.8341 16.4999 17.2483C16.4999 17.6625 16.8357 17.9983 17.2499 17.9983Z" stroke="#666666" stroke-width="1.5" stroke-linejoin="round"/>
<path d="M6.74997 17.9983C7.16419 17.9983 7.49997 17.6625 7.49997 17.2483C7.49997 16.8341 7.16419 16.4983 6.74997 16.4983C6.33576 16.4983 5.99997 16.8341 5.99997 17.2483C5.99997 17.6625 6.33576 17.9983 6.74997 17.9983Z" stroke="#666666" stroke-width="1.5" stroke-linejoin="round"/>
<path d="M20.2499 3.74744V17.2474M11.9999 5.24744V14.2474V5.24744ZM3.74989 3.74744V17.2474V3.74744Z" stroke="#666666" stroke-width="1.5" stroke-linecap="round" stroke-linejoin="round"/>
</svg>
