<svg width="24" height="24" viewBox="0 0 24 24" fill="none" xmlns="http://www.w3.org/2000/svg">
<path d="M18.75 1.49829H5.24998C4.65325 1.49829 4.08095 1.73534 3.65899 2.1573C3.23704 2.57926 2.99998 3.15155 2.99998 3.74829V18.7483C2.99996 19.0646 3.06676 19.3774 3.19601 19.6661C3.32526 19.9548 3.51404 20.2129 3.74998 20.4236V21.2795C3.74998 21.6028 3.87839 21.9128 4.10695 22.1413C4.33551 22.3699 4.6455 22.4983 4.96873 22.4983H6.28123C6.60447 22.4983 6.91446 22.3699 7.14302 22.1413C7.37158 21.9128 7.49999 21.6028 7.49999 21.2795V20.9983H16.5V21.2795C16.5 21.6028 16.6284 21.9128 16.8569 22.1413C17.0855 22.3699 17.3955 22.4983 17.7187 22.4983H19.0312C19.3545 22.4983 19.6645 22.3699 19.893 22.1413C20.1216 21.9128 20.25 21.6028 20.25 21.2795V20.4236C20.4859 20.2129 20.6747 19.9548 20.804 19.6661C20.9332 19.3774 21 19.0646 21 18.7483V3.74829C21 3.15155 20.7629 2.57926 20.341 2.1573C19.919 1.73534 19.3467 1.49829 18.75 1.49829ZM6.91264 18.7399C6.60393 18.7735 6.2924 18.7104 6.02104 18.5594C5.74968 18.4084 5.53187 18.177 5.39767 17.8969C5.26346 17.6169 5.21948 17.3021 5.27178 16.996C5.32409 16.6899 5.47011 16.4076 5.68969 16.188C5.90927 15.9684 6.19159 15.8224 6.49769 15.7701C6.80379 15.7178 7.11858 15.7618 7.39861 15.896C7.67865 16.0302 7.91013 16.248 8.06112 16.5193C8.2121 16.7907 8.27515 17.1022 8.24155 17.4109C8.20457 17.7507 8.05268 18.0677 7.81101 18.3093C7.56935 18.551 7.2524 18.7029 6.91264 18.7399ZM11.0625 13.4983H5.24998C5.05107 13.4983 4.86031 13.4193 4.71965 13.2786C4.579 13.138 4.49998 12.9472 4.49998 12.7483V6.74829C4.49998 6.54938 4.579 6.35861 4.71965 6.21796C4.86031 6.07731 5.05107 5.99829 5.24998 5.99829H11.0625C11.1122 5.99829 11.1599 6.01805 11.1951 6.05321C11.2302 6.08837 11.25 6.13606 11.25 6.18579V13.3108C11.25 13.3605 11.2302 13.4082 11.1951 13.4434C11.1599 13.4785 11.1122 13.4983 11.0625 13.4983ZM12 4.49829H5.27155C4.86842 4.49829 4.52155 4.18892 4.50092 3.78626C4.49577 3.6847 4.51133 3.58315 4.54665 3.48779C4.58197 3.39243 4.63632 3.30525 4.70638 3.23155C4.77644 3.15785 4.86076 3.09916 4.95421 3.05906C5.04767 3.01896 5.14829 2.99829 5.24998 2.99829H18.7284C19.1315 2.99829 19.4784 3.30767 19.499 3.71032C19.5042 3.81188 19.4886 3.91343 19.4533 4.00879C19.418 4.10415 19.3637 4.19133 19.2936 4.26503C19.2235 4.33873 19.1392 4.39742 19.0458 4.43752C18.9523 4.47762 18.8517 4.49829 18.75 4.49829H12ZM12.9375 5.99829H18.75C18.9489 5.99829 19.1397 6.07731 19.2803 6.21796C19.421 6.35861 19.5 6.54938 19.5 6.74829V12.7483C19.5 12.9472 19.421 13.138 19.2803 13.2786C19.1397 13.4193 18.9489 13.4983 18.75 13.4983H12.9375C12.8878 13.4983 12.8401 13.4785 12.8049 13.4434C12.7697 13.4082 12.75 13.3605 12.75 13.3108V6.18579C12.75 6.13606 12.7697 6.08837 12.8049 6.05321C12.8401 6.01805 12.8878 5.99829 12.9375 5.99829ZM15.7584 17.4109C15.7248 17.1022 15.7879 16.7907 15.9389 16.5193C16.0898 16.248 16.3213 16.0302 16.6014 15.896C16.8814 15.7618 17.1962 15.7178 17.5023 15.7701C17.8084 15.8224 18.0907 15.9684 18.3103 16.188C18.5299 16.4076 18.6759 16.6899 18.7282 16.996C18.7805 17.3021 18.7365 17.6169 18.6023 17.8969C18.4681 18.177 18.2503 18.4084 17.9789 18.5594C17.7076 18.7104 17.396 18.7735 17.0873 18.7399C16.7476 18.7029 16.4306 18.551 16.189 18.3093C15.9473 18.0677 15.7954 17.7507 15.7584 17.4109Z" fill="#666666"/>
</svg>
