<svg width="24" height="24" viewBox="0 0 24 24" fill="none" xmlns="http://www.w3.org/2000/svg">
<g clip-path="url(#clip0_32_729)">
<path d="M8.25002 19.4983V22.4983V19.4983ZM3.75002 1.49829H12.75C13.1478 1.49829 13.5294 1.65633 13.8107 1.93763C14.092 2.21894 14.25 2.60047 14.25 2.99829V22.3108C14.25 22.3605 14.2303 22.4082 14.1951 22.4434C14.1599 22.4785 14.1122 22.4983 14.0625 22.4983H2.25002V2.99829C2.25002 2.60047 2.40805 2.21894 2.68936 1.93763C2.97066 1.65633 3.35219 1.49829 3.75002 1.49829V1.49829ZM15 8.99829H20.25C20.6478 8.99829 21.0294 9.15633 21.3107 9.43763C21.592 9.71894 21.75 10.1005 21.75 10.4983V22.4983H14.25V9.74829C14.25 9.54938 14.329 9.35861 14.4697 9.21796C14.6103 9.07731 14.8011 8.99829 15 8.99829Z" stroke="#666666" stroke-width="1.5" stroke-linecap="round" stroke-linejoin="round"/>
<path d="M4.59762 20.2411C4.44229 20.2614 4.2845 20.2326 4.14639 20.1587C4.00828 20.0847 3.89679 19.9694 3.82756 19.8289C3.75834 19.6883 3.73485 19.5297 3.7604 19.3751C3.78595 19.2206 3.85926 19.0779 3.97003 18.9671C4.0808 18.8563 4.22348 18.783 4.37803 18.7575C4.53259 18.7319 4.69126 18.7554 4.83179 18.8246C4.97232 18.8939 5.08764 19.0054 5.16157 19.1435C5.23551 19.2816 5.26434 19.4394 5.24403 19.5947C5.22259 19.7586 5.14759 19.9109 5.03069 20.0278C4.91379 20.1447 4.76154 20.2197 4.59762 20.2411ZM4.59762 16.4911C4.44229 16.5114 4.2845 16.4826 4.14639 16.4087C4.00828 16.3347 3.89679 16.2194 3.82756 16.0789C3.75834 15.9383 3.73485 15.7797 3.7604 15.6251C3.78595 15.4706 3.85926 15.3279 3.97003 15.2171C4.0808 15.1063 4.22348 15.033 4.37803 15.0075C4.53259 14.9819 4.69126 15.0054 4.83179 15.0746C4.97232 15.1439 5.08764 15.2554 5.16157 15.3935C5.23551 15.5316 5.26434 15.6894 5.24403 15.8447C5.22259 16.0086 5.14759 16.1609 5.03069 16.2778C4.91379 16.3947 4.76154 16.4697 4.59762 16.4911ZM4.59762 12.7411C4.44229 12.7614 4.2845 12.7326 4.14639 12.6587C4.00828 12.5847 3.89679 12.4694 3.82756 12.3289C3.75834 12.1883 3.73485 12.0297 3.7604 11.8751C3.78595 11.7206 3.85926 11.5779 3.97003 11.4671C4.0808 11.3563 4.22348 11.283 4.37803 11.2575C4.53259 11.2319 4.69126 11.2554 4.83179 11.3246C4.97232 11.3939 5.08764 11.5054 5.16157 11.6435C5.23551 11.7816 5.26434 11.9394 5.24403 12.0947C5.22259 12.2586 5.14759 12.4109 5.03069 12.5278C4.91379 12.6447 4.76154 12.7197 4.59762 12.7411ZM4.59762 8.9911C4.44229 9.01142 4.2845 8.98259 4.14639 8.90865C4.00828 8.83472 3.89679 8.7194 3.82756 8.57887C3.75834 8.43834 3.73485 8.27966 3.7604 8.12511C3.78595 7.97055 3.85926 7.82788 3.97003 7.71711C4.0808 7.60634 4.22348 7.53303 4.37803 7.50748C4.53259 7.48193 4.69126 7.50542 4.83179 7.57464C4.97232 7.64387 5.08764 7.75536 5.16157 7.89347C5.23551 8.03158 5.26434 8.18937 5.24403 8.3447C5.22259 8.50862 5.14759 8.66087 5.03069 8.77777C4.91379 8.89467 4.76154 8.96967 4.59762 8.9911ZM4.59762 5.2411C4.44229 5.26142 4.2845 5.23259 4.14639 5.15865C4.00828 5.08472 3.89679 4.96939 3.82756 4.82887C3.75834 4.68834 3.73485 4.52966 3.7604 4.37511C3.78595 4.22055 3.85926 4.07788 3.97003 3.96711C4.0808 3.85634 4.22348 3.78303 4.37803 3.75748C4.53259 3.73193 4.69126 3.75542 4.83179 3.82464C4.97232 3.89387 5.08764 4.00536 5.16157 4.14347C5.23551 4.28158 5.26434 4.43937 5.24403 4.5947C5.22259 4.75862 5.14759 4.91087 5.03069 5.02777C4.91379 5.14467 4.76154 5.21967 4.59762 5.2411ZM8.34762 16.4911C8.19229 16.5114 8.0345 16.4826 7.89639 16.4087C7.75828 16.3347 7.64679 16.2194 7.57756 16.0789C7.50834 15.9383 7.48485 15.7797 7.5104 15.6251C7.53596 15.4706 7.60926 15.3279 7.72003 15.2171C7.8308 15.1063 7.97348 15.033 8.12803 15.0075C8.28259 14.9819 8.44126 15.0054 8.58179 15.0746C8.72232 15.1439 8.83764 15.2554 8.91158 15.3935C8.98551 15.5316 9.01434 15.6894 8.99403 15.8447C8.97259 16.0086 8.89759 16.1609 8.78069 16.2778C8.66379 16.3947 8.51154 16.4697 8.34762 16.4911ZM8.34762 12.7411C8.19229 12.7614 8.0345 12.7326 7.89639 12.6587C7.75828 12.5847 7.64679 12.4694 7.57756 12.3289C7.50834 12.1883 7.48485 12.0297 7.5104 11.8751C7.53596 11.7206 7.60926 11.5779 7.72003 11.4671C7.8308 11.3563 7.97348 11.283 8.12803 11.2575C8.28259 11.2319 8.44126 11.2554 8.58179 11.3246C8.72232 11.3939 8.83764 11.5054 8.91158 11.6435C8.98551 11.7816 9.01434 11.9394 8.99403 12.0947C8.97259 12.2586 8.89759 12.4109 8.78069 12.5278C8.66379 12.6447 8.51154 12.7197 8.34762 12.7411ZM8.34762 8.9911C8.19229 9.01142 8.0345 8.98259 7.89639 8.90865C7.75828 8.83472 7.64679 8.7194 7.57756 8.57887C7.50834 8.43834 7.48485 8.27966 7.5104 8.12511C7.53596 7.97055 7.60926 7.82788 7.72003 7.71711C7.8308 7.60634 7.97348 7.53303 8.12803 7.50748C8.28259 7.48193 8.44126 7.50542 8.58179 7.57464C8.72232 7.64387 8.83764 7.75536 8.91158 7.89347C8.98551 8.03158 9.01434 8.18937 8.99403 8.3447C8.97259 8.50862 8.89759 8.66087 8.78069 8.77777C8.66379 8.89467 8.51154 8.96967 8.34762 8.9911ZM8.34762 5.2411C8.19229 5.26142 8.0345 5.23259 7.89639 5.15865C7.75828 5.08472 7.64679 4.96939 7.57756 4.82887C7.50834 4.68834 7.48485 4.52966 7.5104 4.37511C7.53596 4.22055 7.60926 4.07788 7.72003 3.96711C7.8308 3.85634 7.97348 3.78303 8.12803 3.75748C8.28259 3.73193 8.44126 3.75542 8.58179 3.82464C8.72232 3.89387 8.83764 4.00536 8.91158 4.14347C8.98551 4.28158 9.01434 4.43937 8.99403 4.5947C8.97259 4.75862 8.89759 4.91087 8.78069 5.02777C8.66379 5.14467 8.51154 5.21967 8.34762 5.2411ZM12.0976 20.2411C11.9423 20.2614 11.7845 20.2326 11.6464 20.1587C11.5083 20.0847 11.3968 19.9694 11.3276 19.8289C11.2583 19.6883 11.2349 19.5297 11.2604 19.3751C11.286 19.2206 11.3593 19.0779 11.47 18.9671C11.5808 18.8563 11.7235 18.783 11.878 18.7575C12.0326 18.7319 12.1913 18.7554 12.3318 18.8246C12.4723 18.8939 12.5876 19.0054 12.6616 19.1435C12.7355 19.2816 12.7643 19.4394 12.744 19.5947C12.7226 19.7586 12.6476 19.9109 12.5307 20.0278C12.4138 20.1447 12.2615 20.2197 12.0976 20.2411ZM12.0976 16.4911C11.9423 16.5114 11.7845 16.4826 11.6464 16.4087C11.5083 16.3347 11.3968 16.2194 11.3276 16.0789C11.2583 15.9383 11.2349 15.7797 11.2604 15.6251C11.286 15.4706 11.3593 15.3279 11.47 15.2171C11.5808 15.1063 11.7235 15.033 11.878 15.0075C12.0326 14.9819 12.1913 15.0054 12.3318 15.0746C12.4723 15.1439 12.5876 15.2554 12.6616 15.3935C12.7355 15.5316 12.7643 15.6894 12.744 15.8447C12.7226 16.0086 12.6476 16.1609 12.5307 16.2778C12.4138 16.3947 12.2615 16.4697 12.0976 16.4911ZM12.0976 12.7411C11.9423 12.7614 11.7845 12.7326 11.6464 12.6587C11.5083 12.5847 11.3968 12.4694 11.3276 12.3289C11.2583 12.1883 11.2349 12.0297 11.2604 11.8751C11.286 11.7206 11.3593 11.5779 11.47 11.4671C11.5808 11.3563 11.7235 11.283 11.878 11.2575C12.0326 11.2319 12.1913 11.2554 12.3318 11.3246C12.4723 11.3939 12.5876 11.5054 12.6616 11.6435C12.7355 11.7816 12.7643 11.9394 12.744 12.0947C12.7226 12.2586 12.6476 12.4109 12.5307 12.5278C12.4138 12.6447 12.2615 12.7197 12.0976 12.7411Z" fill="#666666"/>
<path d="M12.5314 8.77958C12.8234 8.4876 12.8222 8.01303 12.5287 7.71958C12.2353 7.42614 11.7607 7.42495 11.4687 7.71693C11.1768 8.00891 11.1779 8.48349 11.4714 8.77693C11.7648 9.07037 12.2394 9.07156 12.5314 8.77958Z" fill="#666666"/>
<path d="M12.0976 5.2411C11.9423 5.26142 11.7845 5.23259 11.6464 5.15865C11.5083 5.08472 11.3968 4.96939 11.3276 4.82887C11.2583 4.68834 11.2349 4.52966 11.2604 4.37511C11.286 4.22055 11.3593 4.07788 11.47 3.96711C11.5808 3.85634 11.7235 3.78303 11.878 3.75748C12.0326 3.73193 12.1913 3.75542 12.3318 3.82464C12.4723 3.89387 12.5876 4.00536 12.6616 4.14347C12.7355 4.28158 12.7643 4.43937 12.744 4.5947C12.7226 4.75862 12.6476 4.91087 12.5307 5.02777C12.4138 5.14467 12.2615 5.21967 12.0976 5.2411ZM18.7501 18.7472C18.6018 18.7472 18.4568 18.7912 18.3334 18.8736C18.2101 18.956 18.114 19.0731 18.0572 19.2102C18.0004 19.3472 17.9856 19.498 18.0145 19.6435C18.0435 19.789 18.1149 19.9226 18.2198 20.0275C18.3247 20.1324 18.4583 20.2038 18.6038 20.2328C18.7493 20.2617 18.9001 20.2469 19.0371 20.1901C19.1742 20.1333 19.2913 20.0372 19.3737 19.9139C19.4561 19.7905 19.5001 19.6455 19.5001 19.4972C19.5001 19.2983 19.4211 19.1075 19.2805 18.9669C19.1398 18.8262 18.949 18.7472 18.7501 18.7472ZM18.7501 14.9972C18.6018 14.9972 18.4568 15.0412 18.3334 15.1236C18.2101 15.206 18.114 15.3231 18.0572 15.4602C18.0004 15.5972 17.9856 15.748 18.0145 15.8935C18.0435 16.039 18.1149 16.1726 18.2198 16.2775C18.3247 16.3824 18.4583 16.4538 18.6038 16.4828C18.7493 16.5117 18.9001 16.4969 19.0371 16.4401C19.1742 16.3833 19.2913 16.2872 19.3737 16.1639C19.4561 16.0405 19.5001 15.8955 19.5001 15.7472C19.5001 15.5483 19.4211 15.3575 19.2805 15.2169C19.1398 15.0762 18.949 14.9972 18.7501 14.9972ZM18.7501 11.2472C18.6018 11.2472 18.4568 11.2912 18.3334 11.3736C18.2101 11.456 18.114 11.5731 18.0572 11.7102C18.0004 11.8472 17.9856 11.998 18.0145 12.1435C18.0435 12.289 18.1149 12.4226 18.2198 12.5275C18.3247 12.6324 18.4583 12.7038 18.6038 12.7328C18.7493 12.7617 18.9001 12.7469 19.0371 12.6901C19.1742 12.6333 19.2913 12.5372 19.3737 12.4139C19.4561 12.2905 19.5001 12.1455 19.5001 11.9972C19.5001 11.7983 19.4211 11.6075 19.2805 11.4669C19.1398 11.3262 18.949 11.2472 18.7501 11.2472ZM15.7501 18.7472C15.6018 18.7472 15.4568 18.7912 15.3334 18.8736C15.2101 18.956 15.114 19.0731 15.0572 19.2102C15.0004 19.3472 14.9856 19.498 15.0145 19.6435C15.0435 19.789 15.1149 19.9226 15.2198 20.0275C15.3247 20.1324 15.4583 20.2038 15.6038 20.2328C15.7493 20.2617 15.9001 20.2469 16.0371 20.1901C16.1742 20.1333 16.2913 20.0372 16.3737 19.9139C16.4561 19.7905 16.5001 19.6455 16.5001 19.4972C16.5001 19.2983 16.4211 19.1075 16.2805 18.9669C16.1398 18.8262 15.949 18.7472 15.7501 18.7472ZM15.7501 14.9972C15.6018 14.9972 15.4568 15.0412 15.3334 15.1236C15.2101 15.206 15.114 15.3231 15.0572 15.4602C15.0004 15.5972 14.9856 15.748 15.0145 15.8935C15.0435 16.039 15.1149 16.1726 15.2198 16.2775C15.3247 16.3824 15.4583 16.4538 15.6038 16.4828C15.7493 16.5117 15.9001 16.4969 16.0371 16.4401C16.1742 16.3833 16.2913 16.2872 16.3737 16.1639C16.4561 16.0405 16.5001 15.8955 16.5001 15.7472C16.5001 15.5483 16.4211 15.3575 16.2805 15.2169C16.1398 15.0762 15.949 14.9972 15.7501 14.9972ZM15.7501 11.2472C15.6018 11.2472 15.4568 11.2912 15.3334 11.3736C15.2101 11.456 15.114 11.5731 15.0572 11.7102C15.0004 11.8472 14.9856 11.998 15.0145 12.1435C15.0435 12.289 15.1149 12.4226 15.2198 12.5275C15.3247 12.6324 15.4583 12.7038 15.6038 12.7328C15.7493 12.7617 15.9001 12.7469 16.0371 12.6901C16.1742 12.6333 16.2913 12.5372 16.3737 12.4139C16.4561 12.2905 16.5001 12.1455 16.5001 11.9972C16.5001 11.7983 16.4211 11.6075 16.2805 11.4669C16.1398 11.3262 15.949 11.2472 15.7501 11.2472Z" fill="#666666"/>
</g>
<defs>
<clipPath id="clip0_32_729">
<rect width="24" height="24" fill="white" transform="translate(0.00012207 -0.00390625)"/>
</clipPath>
</defs>
</svg>
