<svg width="24" height="24" viewBox="0 0 24 24" fill="none" xmlns="http://www.w3.org/2000/svg">
<path d="M20.2499 8.25098H14.9999V3.00098C14.9999 2.40424 14.7629 1.83194 14.3409 1.40999C13.919 0.988029 13.3467 0.750977 12.7499 0.750977H3.74992C3.15318 0.750977 2.58088 0.988029 2.15893 1.40999C1.73697 1.83194 1.49992 2.40424 1.49992 3.00098V22.501C1.49992 22.6999 1.57893 22.8907 1.71959 23.0313C1.86024 23.172 2.051 23.251 2.24992 23.251H7.12492C7.22437 23.251 7.31976 23.2115 7.39008 23.1411C7.46041 23.0708 7.49992 22.9754 7.49992 22.876V19.5221C7.49992 19.1185 7.81023 18.7721 8.21382 18.7519C8.31523 18.747 8.41657 18.7628 8.51171 18.7982C8.60685 18.8337 8.6938 18.888 8.7673 18.9581C8.8408 19.0281 8.89932 19.1124 8.9393 19.2057C8.97929 19.299 8.99991 19.3995 8.99992 19.501V22.876C8.99992 22.9754 9.03943 23.0708 9.10975 23.1411C9.18008 23.2115 9.27546 23.251 9.37492 23.251H21.7499C21.9488 23.251 22.1396 23.172 22.2802 23.0313C22.4209 22.8907 22.4999 22.6999 22.4999 22.501V10.501C22.4999 9.90424 22.2629 9.33194 21.8409 8.90999C21.419 8.48803 20.8467 8.25098 20.2499 8.25098ZM4.59742 20.2449C4.44209 20.2652 4.28429 20.2364 4.14619 20.1624C4.00808 20.0885 3.89659 19.9732 3.82736 19.8327C3.75813 19.6921 3.73465 19.5334 3.7602 19.3789C3.78575 19.2243 3.85906 19.0817 3.96983 18.9709C4.0806 18.8601 4.22327 18.7868 4.37783 18.7613C4.53238 18.7357 4.69106 18.7592 4.83159 18.8284C4.97211 18.8976 5.08744 19.0091 5.16137 19.1472C5.2353 19.2854 5.26414 19.4431 5.24382 19.5985C5.22238 19.7624 5.14738 19.9147 5.03049 20.0316C4.91359 20.1484 4.76134 20.2234 4.59742 20.2449ZM4.59742 16.4949C4.44209 16.5152 4.28429 16.4864 4.14619 16.4124C4.00808 16.3385 3.89659 16.2232 3.82736 16.0827C3.75813 15.9421 3.73465 15.7834 3.7602 15.6289C3.78575 15.4743 3.85906 15.3317 3.96983 15.2209C4.0806 15.1101 4.22327 15.0368 4.37783 15.0113C4.53238 14.9857 4.69106 15.0092 4.83159 15.0784C4.97211 15.1476 5.08744 15.2591 5.16137 15.3972C5.2353 15.5354 5.26414 15.6931 5.24382 15.8485C5.22238 16.0124 5.14738 16.1647 5.03049 16.2815C4.91359 16.3984 4.76134 16.4734 4.59742 16.4949ZM4.59742 12.7449C4.44209 12.7652 4.28429 12.7364 4.14619 12.6624C4.00808 12.5885 3.89659 12.4732 3.82736 12.3326C3.75813 12.1921 3.73465 12.0334 3.7602 11.8789C3.78575 11.7243 3.85906 11.5817 3.96983 11.4709C4.0806 11.3601 4.22327 11.2868 4.37783 11.2613C4.53238 11.2357 4.69106 11.2592 4.83159 11.3284C4.97211 11.3976 5.08744 11.5091 5.16137 11.6472C5.2353 11.7854 5.26414 11.9431 5.24382 12.0985C5.22238 12.2624 5.14738 12.4146 5.03049 12.5315C4.91359 12.6484 4.76134 12.7234 4.59742 12.7449ZM4.59742 8.99488C4.44209 9.0152 4.28429 8.98637 4.14619 8.91243C4.00808 8.8385 3.89659 8.72318 3.82736 8.58265C3.75813 8.44212 3.73465 8.28344 3.7602 8.12889C3.78575 7.97433 3.85906 7.83166 3.96983 7.72089C4.0806 7.61012 4.22327 7.53681 4.37783 7.51126C4.53238 7.48571 4.69106 7.5092 4.83159 7.57842C4.97211 7.64765 5.08744 7.75914 5.16137 7.89725C5.2353 8.03536 5.26414 8.19315 5.24382 8.34848C5.22238 8.5124 5.14738 8.66465 5.03049 8.78155C4.91359 8.89845 4.76134 8.97345 4.59742 8.99488ZM4.59742 5.24488C4.44209 5.2652 4.28429 5.23637 4.14619 5.16243C4.00808 5.0885 3.89659 4.97317 3.82736 4.83265C3.75813 4.69212 3.73465 4.53344 3.7602 4.37889C3.78575 4.22433 3.85906 4.08166 3.96983 3.97089C4.0806 3.86012 4.22327 3.78681 4.37783 3.76126C4.53238 3.73571 4.69106 3.75919 4.83159 3.82842C4.97211 3.89765 5.08744 4.00914 5.16137 4.14725C5.2353 4.28535 5.26414 4.44315 5.24382 4.59848C5.22238 4.7624 5.14738 4.91465 5.03049 5.03155C4.91359 5.14845 4.76134 5.22345 4.59742 5.24488ZM8.34742 16.4949C8.19209 16.5152 8.03429 16.4864 7.89619 16.4124C7.75808 16.3385 7.64659 16.2232 7.57736 16.0827C7.50813 15.9421 7.48465 15.7834 7.5102 15.6289C7.53575 15.4743 7.60906 15.3317 7.71983 15.2209C7.8306 15.1101 7.97327 15.0368 8.12783 15.0113C8.28238 14.9857 8.44106 15.0092 8.58159 15.0784C8.72211 15.1476 8.83744 15.2591 8.91137 15.3972C8.9853 15.5354 9.01414 15.6931 8.99382 15.8485C8.97238 16.0124 8.89738 16.1647 8.78049 16.2815C8.66359 16.3984 8.51134 16.4734 8.34742 16.4949ZM8.34742 12.7449C8.19209 12.7652 8.03429 12.7364 7.89619 12.6624C7.75808 12.5885 7.64659 12.4732 7.57736 12.3326C7.50813 12.1921 7.48465 12.0334 7.5102 11.8789C7.53575 11.7243 7.60906 11.5817 7.71983 11.4709C7.8306 11.3601 7.97327 11.2868 8.12783 11.2613C8.28238 11.2357 8.44106 11.2592 8.58159 11.3284C8.72211 11.3976 8.83744 11.5091 8.91137 11.6472C8.9853 11.7854 9.01414 11.9431 8.99382 12.0985C8.97238 12.2624 8.89738 12.4146 8.78049 12.5315C8.66359 12.6484 8.51134 12.7234 8.34742 12.7449ZM8.34742 8.99488C8.19209 9.0152 8.03429 8.98637 7.89619 8.91243C7.75808 8.8385 7.64659 8.72318 7.57736 8.58265C7.50813 8.44212 7.48465 8.28344 7.5102 8.12889C7.53575 7.97433 7.60906 7.83166 7.71983 7.72089C7.8306 7.61012 7.97327 7.53681 8.12783 7.51126C8.28238 7.48571 8.44106 7.5092 8.58159 7.57842C8.72211 7.64765 8.83744 7.75914 8.91137 7.89725C8.9853 8.03536 9.01414 8.19315 8.99382 8.34848C8.97238 8.5124 8.89738 8.66465 8.78049 8.78155C8.66359 8.89845 8.51134 8.97345 8.34742 8.99488ZM8.34742 5.24488C8.19209 5.2652 8.03429 5.23637 7.89619 5.16243C7.75808 5.0885 7.64659 4.97317 7.57736 4.83265C7.50813 4.69212 7.48465 4.53344 7.5102 4.37889C7.53575 4.22433 7.60906 4.08166 7.71983 3.97089C7.8306 3.86012 7.97327 3.78681 8.12783 3.76126C8.28238 3.73571 8.44106 3.75919 8.58159 3.82842C8.72211 3.89765 8.83744 4.00914 8.91137 4.14725C8.9853 4.28535 9.01414 4.44315 8.99382 4.59848C8.97238 4.7624 8.89738 4.91465 8.78049 5.03155C8.66359 5.14845 8.51134 5.22345 8.34742 5.24488ZM12.0974 20.2449C11.9421 20.2652 11.7843 20.2364 11.6462 20.1624C11.5081 20.0885 11.3966 19.9732 11.3274 19.8327C11.2581 19.6921 11.2346 19.5334 11.2602 19.3789C11.2858 19.2243 11.3591 19.0817 11.4698 18.9709C11.5806 18.8601 11.7233 18.7868 11.8778 18.7613C12.0324 18.7357 12.1911 18.7592 12.3316 18.8284C12.4721 18.8976 12.5874 19.0091 12.6614 19.1472C12.7353 19.2854 12.7641 19.4431 12.7438 19.5985C12.7224 19.7624 12.6474 19.9147 12.5305 20.0316C12.4136 20.1484 12.2613 20.2234 12.0974 20.2449ZM12.0974 16.4949C11.9421 16.5152 11.7843 16.4864 11.6462 16.4124C11.5081 16.3385 11.3966 16.2232 11.3274 16.0827C11.2581 15.9421 11.2346 15.7834 11.2602 15.6289C11.2858 15.4743 11.3591 15.3317 11.4698 15.2209C11.5806 15.1101 11.7233 15.0368 11.8778 15.0113C12.0324 14.9857 12.1911 15.0092 12.3316 15.0784C12.4721 15.1476 12.5874 15.2591 12.6614 15.3972C12.7353 15.5354 12.7641 15.6931 12.7438 15.8485C12.7224 16.0124 12.6474 16.1647 12.5305 16.2815C12.4136 16.3984 12.2613 16.4734 12.0974 16.4949ZM12.0974 12.7449C11.9421 12.7652 11.7843 12.7364 11.6462 12.6624C11.5081 12.5885 11.3966 12.4732 11.3274 12.3326C11.2581 12.1921 11.2346 12.0334 11.2602 11.8789C11.2858 11.7243 11.3591 11.5817 11.4698 11.4709C11.5806 11.3601 11.7233 11.2868 11.8778 11.2613C12.0324 11.2357 12.1911 11.2592 12.3316 11.3284C12.4721 11.3976 12.5874 11.5091 12.6614 11.6472C12.7353 11.7854 12.7641 11.9431 12.7438 12.0985C12.7224 12.2624 12.6474 12.4146 12.5305 12.5315C12.4136 12.6484 12.2613 12.7234 12.0974 12.7449ZM12.0974 8.99488C11.9421 9.0152 11.7843 8.98637 11.6462 8.91243C11.5081 8.8385 11.3966 8.72318 11.3274 8.58265C11.2581 8.44212 11.2346 8.28344 11.2602 8.12889C11.2858 7.97433 11.3591 7.83166 11.4698 7.72089C11.5806 7.61012 11.7233 7.53681 11.8778 7.51126C12.0324 7.48571 12.1911 7.5092 12.3316 7.57842C12.4721 7.64765 12.5874 7.75914 12.6614 7.89725C12.7353 8.03536 12.7641 8.19315 12.7438 8.34848C12.7224 8.5124 12.6474 8.66465 12.5305 8.78155C12.4136 8.89845 12.2613 8.97345 12.0974 8.99488ZM12.0974 5.24488C11.9421 5.2652 11.7843 5.23637 11.6462 5.16243C11.5081 5.0885 11.3966 4.97317 11.3274 4.83265C11.2581 4.69212 11.2346 4.53344 11.2602 4.37889C11.2858 4.22433 11.3591 4.08166 11.4698 3.97089C11.5806 3.86012 11.7233 3.78681 11.8778 3.76126C12.0324 3.73571 12.1911 3.75919 12.3316 3.82842C12.4721 3.89765 12.5874 4.00914 12.6614 4.14725C12.7353 4.28535 12.7641 4.44315 12.7438 4.59848C12.7224 4.7624 12.6474 4.91465 12.5305 5.03155C12.4136 5.14845 12.2613 5.22345 12.0974 5.24488ZM20.8124 21.751H14.9999V9.75098H20.2499C20.4488 9.75098 20.6396 9.83 20.7802 9.97065C20.9209 10.1113 20.9999 10.3021 20.9999 10.501V21.5635C20.9999 21.6132 20.9802 21.6609 20.945 21.6961C20.9098 21.7312 20.8621 21.751 20.8124 21.751Z" fill="#666666"/>
<path d="M18.75 18.7483C18.6017 18.7483 18.4567 18.7923 18.3333 18.8747C18.21 18.9571 18.1139 19.0742 18.0571 19.2113C18.0003 19.3483 17.9855 19.4991 18.0144 19.6446C18.0434 19.7901 18.1148 19.9237 18.2197 20.0286C18.3246 20.1335 18.4582 20.2049 18.6037 20.2339C18.7492 20.2628 18.9 20.248 19.037 20.1912C19.1741 20.1344 19.2912 20.0383 19.3736 19.915C19.456 19.7916 19.5 19.6466 19.5 19.4983C19.5 19.2994 19.421 19.1086 19.2803 18.968C19.1397 18.8273 18.9489 18.7483 18.75 18.7483ZM18.75 14.9983C18.6017 14.9983 18.4567 15.0423 18.3333 15.1247C18.21 15.2071 18.1139 15.3242 18.0571 15.4613C18.0003 15.5983 17.9855 15.7491 18.0144 15.8946C18.0434 16.0401 18.1148 16.1737 18.2197 16.2786C18.3246 16.3835 18.4582 16.4549 18.6037 16.4839C18.7492 16.5128 18.9 16.498 19.037 16.4412C19.1741 16.3844 19.2912 16.2883 19.3736 16.165C19.456 16.0416 19.5 15.8966 19.5 15.7483C19.5 15.5494 19.421 15.3586 19.2803 15.218C19.1397 15.0773 18.9489 14.9983 18.75 14.9983ZM18.75 11.2483C18.6017 11.2483 18.4567 11.2923 18.3333 11.3747C18.21 11.4571 18.1139 11.5742 18.0571 11.7113C18.0003 11.8483 17.9855 11.9991 18.0144 12.1446C18.0434 12.2901 18.1148 12.4237 18.2197 12.5286C18.3246 12.6335 18.4582 12.7049 18.6037 12.7339C18.7492 12.7628 18.9 12.748 19.037 12.6912C19.1741 12.6344 19.2912 12.5383 19.3736 12.415C19.456 12.2916 19.5 12.1466 19.5 11.9983C19.5 11.7994 19.421 11.6086 19.2803 11.468C19.1397 11.3273 18.9489 11.2483 18.75 11.2483ZM15.75 18.7483C15.6017 18.7483 15.4567 18.7923 15.3333 18.8747C15.21 18.9571 15.1139 19.0742 15.0571 19.2113C15.0003 19.3483 14.9855 19.4991 15.0144 19.6446C15.0434 19.7901 15.1148 19.9237 15.2197 20.0286C15.3246 20.1335 15.4582 20.2049 15.6037 20.2339C15.7492 20.2628 15.9 20.248 16.037 20.1912C16.1741 20.1344 16.2912 20.0383 16.3736 19.915C16.456 19.7916 16.5 19.6466 16.5 19.4983C16.5 19.2994 16.421 19.1086 16.2803 18.968C16.1397 18.8273 15.9489 18.7483 15.75 18.7483ZM15.75 14.9983C15.6017 14.9983 15.4567 15.0423 15.3333 15.1247C15.21 15.2071 15.1139 15.3242 15.0571 15.4613C15.0003 15.5983 14.9855 15.7491 15.0144 15.8946C15.0434 16.0401 15.1148 16.1737 15.2197 16.2786C15.3246 16.3835 15.4582 16.4549 15.6037 16.4839C15.7492 16.5128 15.9 16.498 16.037 16.4412C16.1741 16.3844 16.2912 16.2883 16.3736 16.165C16.456 16.0416 16.5 15.8966 16.5 15.7483C16.5 15.5494 16.421 15.3586 16.2803 15.218C16.1397 15.0773 15.9489 14.9983 15.75 14.9983ZM15.75 11.2483C15.6017 11.2483 15.4567 11.2923 15.3333 11.3747C15.21 11.4571 15.1139 11.5742 15.0571 11.7113C15.0003 11.8483 14.9855 11.9991 15.0144 12.1446C15.0434 12.2901 15.1148 12.4237 15.2197 12.5286C15.3246 12.6335 15.4582 12.7049 15.6037 12.7339C15.7492 12.7628 15.9 12.748 16.037 12.6912C16.1741 12.6344 16.2912 12.5383 16.3736 12.415C16.456 12.2916 16.5 12.1466 16.5 11.9983C16.5 11.7994 16.421 11.6086 16.2803 11.468C16.1397 11.3273 15.9489 11.2483 15.75 11.2483Z" fill="#666666"/>
</svg>
