<svg width="24" height="24" viewBox="0 0 24 24" fill="none" xmlns="http://www.w3.org/2000/svg">
<g clip-path="url(#clip0_32_734)">
<path d="M14.9999 8.25012V0.750122H1.49991V23.2501H7.49991V18.7501H8.99991V23.2501H22.4999V8.25012H14.9999ZM5.24991 20.2501H3.74991V18.7501H5.24991V20.2501ZM5.24991 16.5001H3.74991V15.0001H5.24991V16.5001ZM5.24991 12.7501H3.74991V11.2501H5.24991V12.7501ZM5.24991 9.00012H3.74991V7.50012H5.24991V9.00012ZM5.24991 5.25012H3.74991V3.75012H5.24991V5.25012ZM11.2499 3.75012H12.7499V5.25012H11.2499V3.75012ZM8.99991 16.5001H7.49991V15.0001H8.99991V16.5001ZM8.99991 12.7501H7.49991V11.2501H8.99991V12.7501ZM8.99991 9.00012H7.49991V7.50012H8.99991V9.00012ZM8.99991 5.25012H7.49991V3.75012H8.99991V5.25012ZM12.7499 20.2501H11.2499V18.7501H12.7499V20.2501ZM12.7499 16.5001H11.2499V15.0001H12.7499V16.5001ZM12.7499 12.7501H11.2499V11.2501H12.7499V12.7501ZM12.7499 9.00012H11.2499V7.50012H12.7499V9.00012ZM20.9999 21.7501H14.9999V20.2501H16.4999V18.7501H14.9999V16.5001H16.4999V15.0001H14.9999V12.7501H16.4999V11.2501H14.9999V9.75012H20.9999V21.7501Z" fill="#666666"/>
<path d="M18 18.7474H19.5V20.2474H18V18.7474ZM18 14.9974H19.5V16.4974H18V14.9974ZM18 11.2474H19.5V12.7474H18V11.2474Z" fill="#666666"/>
</g>
<defs>
<clipPath id="clip0_32_734">
<rect width="24" height="24" fill="white" transform="translate(0 -0.00390625)"/>
</clipPath>
</defs>
</svg>
