<svg width="24" height="24" viewBox="0 0 24 24" fill="none" xmlns="http://www.w3.org/2000/svg">
<path d="M21.0001 3.00012H3.75007V14.9223C3.74966 15.0455 3.77373 15.1675 3.82088 15.2813C3.86804 15.3951 3.93734 15.4984 4.02476 15.5851L5.4146 16.9754C5.50149 17.0628 5.60486 17.1321 5.71871 17.1793C5.83257 17.2264 5.95465 17.2505 6.07788 17.2501H15.6723C15.7955 17.2505 15.9176 17.2264 16.0314 17.1793C16.1453 17.1321 16.2486 17.0628 16.3355 16.9754L17.7254 15.5851C17.8128 15.4984 17.8821 15.3951 17.9293 15.2813C17.9764 15.1675 18.0005 15.0455 18.0001 14.9223V9.00012H19.5001C19.6989 9.00003 19.8896 8.92095 20.0302 8.78028L21.5302 7.28028C21.6709 7.1397 21.75 6.949 21.7501 6.75012V3.75012C21.7501 3.55121 21.6711 3.36044 21.5304 3.21979C21.3897 3.07914 21.199 3.00012 21.0001 3.00012ZM20.2501 6.43934L19.1893 7.50012H18.0001V4.50012H20.2501V6.43934ZM2.25007 18.7501H19.5001V20.2501H2.25007V18.7501Z" fill="#666666"/>
</svg>
