<svg width="24" height="24" viewBox="0 0 24 24" fill="none" xmlns="http://www.w3.org/2000/svg">
<path d="M3.00004 19.4983H18.75M17.25 3.74829H20.25C20.449 3.74829 20.6397 3.82731 20.7804 3.96796C20.921 4.10861 21 4.29938 21 4.49829V6.09204C21 6.66391 20.7729 7.21237 20.3685 7.61674C19.9641 8.02112 19.4157 8.24829 18.8438 8.24829H17.25V3.74829ZM4.50004 3.74829H17.25V12.7483C17.25 13.2407 17.153 13.7284 16.9646 14.1834C16.7761 14.6383 16.4999 15.0517 16.1517 15.3999C15.8035 15.7482 15.3901 16.0244 14.9351 16.2128C14.4801 16.4013 13.9925 16.4983 13.5 16.4983H8.25004C7.25548 16.4983 6.30165 16.1032 5.59839 15.3999C4.89513 14.6967 4.50004 13.7429 4.50004 12.7483V3.74829Z" stroke="#666666" stroke-width="1.5" stroke-linecap="round" stroke-linejoin="round"/>
</svg>
