<svg width="24" height="24" viewBox="0 0 24 24" fill="none" xmlns="http://www.w3.org/2000/svg">
<path d="M20.25 3.00012H4.49999C4.30108 3.00012 4.11031 3.07914 3.96966 3.21979C3.82901 3.36044 3.74999 3.55121 3.74999 3.75012V12.7501C3.75135 13.9432 4.2259 15.087 5.06952 15.9306C5.91313 16.7742 7.05693 17.2488 8.24999 17.2501H13.5C14.693 17.2488 15.8368 16.7742 16.6805 15.9306C17.5241 15.087 17.9986 13.9432 18 12.7501V9.00012H18.8437C19.6143 8.99926 20.353 8.69278 20.8978 8.14794C21.4426 7.6031 21.7491 6.86439 21.75 6.09387V4.50012C21.75 4.1023 21.592 3.72077 21.3106 3.43946C21.0293 3.15816 20.6478 3.00012 20.25 3.00012ZM20.25 6.09387C20.25 6.46683 20.1018 6.82452 19.8381 7.08824C19.5744 7.35197 19.2167 7.50012 18.8437 7.50012H18V4.50012H20.25V6.09387ZM18.75 18.7501H2.99999C2.80108 18.7501 2.61031 18.8291 2.46966 18.9698C2.32901 19.1104 2.24999 19.3012 2.24999 19.5001C2.24999 19.699 2.32901 19.8898 2.46966 20.0305C2.61031 20.1711 2.80108 20.2501 2.99999 20.2501H18.75C18.9489 20.2501 19.1397 20.1711 19.2803 20.0305C19.421 19.8898 19.5 19.699 19.5 19.5001C19.5 19.3012 19.421 19.1104 19.2803 18.9698C19.1397 18.8291 18.9489 18.7501 18.75 18.7501Z" fill="#666666"/>
</svg>
