<svg width="24" height="24" viewBox="0 0 24 24" fill="none" xmlns="http://www.w3.org/2000/svg">
<path d="M17.25 2.24744H6.75003C5.9216 2.24744 5.25002 2.91901 5.25002 3.74744V20.2474C5.25002 21.0759 5.9216 21.7474 6.75003 21.7474H17.25C18.0785 21.7474 18.75 21.0759 18.75 20.2474V3.74744C18.75 2.91901 18.0785 2.24744 17.25 2.24744Z" stroke="#666666" stroke-width="1.5" stroke-linecap="round" stroke-linejoin="round"/>
<path d="M7.50039 5.24915H16.4999V8.24915H7.50039V5.24915Z" stroke="#666666" stroke-width="1.5" stroke-linecap="round" stroke-linejoin="round"/>
<path d="M7.87494 12.7501C8.49626 12.7501 8.99994 12.2464 8.99994 11.6251C8.99994 11.0038 8.49626 10.5001 7.87494 10.5001C7.25362 10.5001 6.74994 11.0038 6.74994 11.6251C6.74994 12.2464 7.25362 12.7501 7.87494 12.7501Z" fill="#666666"/>
<path d="M12 12.7501C12.6213 12.7501 13.125 12.2464 13.125 11.6251C13.125 11.0038 12.6213 10.5001 12 10.5001C11.3787 10.5001 10.875 11.0038 10.875 11.6251C10.875 12.2464 11.3787 12.7501 12 12.7501Z" fill="#666666"/>
<path d="M16.125 12.7501C16.7463 12.7501 17.25 12.2464 17.25 11.6251C17.25 11.0038 16.7463 10.5001 16.125 10.5001C15.5037 10.5001 15 11.0038 15 11.6251C15 12.2464 15.5037 12.7501 16.125 12.7501Z" fill="#666666"/>
<path d="M7.87494 16.4956C8.49626 16.4956 8.99994 15.9919 8.99994 15.3706C8.99994 14.7493 8.49626 14.2456 7.87494 14.2456C7.25362 14.2456 6.74994 14.7493 6.74994 15.3706C6.74994 15.9919 7.25362 16.4956 7.87494 16.4956Z" fill="#666666"/>
<path d="M12 16.4956C12.6213 16.4956 13.125 15.9919 13.125 15.3706C13.125 14.7493 12.6213 14.2456 12 14.2456C11.3787 14.2456 10.875 14.7493 10.875 15.3706C10.875 15.9919 11.3787 16.4956 12 16.4956Z" fill="#666666"/>
<path d="M7.87494 20.2456C8.49626 20.2456 8.99994 19.7419 8.99994 19.1206C8.99994 18.4993 8.49626 17.9956 7.87494 17.9956C7.25362 17.9956 6.74994 18.4993 6.74994 19.1206C6.74994 19.7419 7.25362 20.2456 7.87494 20.2456Z" fill="#666666"/>
<path d="M12 20.2456C12.6213 20.2456 13.125 19.7419 13.125 19.1206C13.125 18.4993 12.6213 17.9956 12 17.9956C11.3787 17.9956 10.875 18.4993 10.875 19.1206C10.875 19.7419 11.3787 20.2456 12 20.2456Z" fill="#666666"/>
<path d="M17.25 15.3706C17.25 14.7493 16.7463 14.2456 16.125 14.2456C15.5037 14.2456 15 14.7493 15 15.3706V19.1206C15 19.7419 15.5037 20.2456 16.125 20.2456C16.7463 20.2456 17.25 19.7419 17.25 19.1206V15.3706Z" fill="#666666"/>
</svg>
