<svg width="24" height="24" viewBox="0 0 24 24" fill="none" xmlns="http://www.w3.org/2000/svg">
<path d="M19.5001 3.74915C19.4995 3.1526 19.2623 2.58066 18.8404 2.15884C18.4186 1.73702 17.8467 1.49977 17.2501 1.49915H6.75012C6.15357 1.49977 5.58164 1.73702 5.15982 2.15884C4.73799 2.58066 4.50074 3.1526 4.50012 3.74915V20.2491C4.50074 20.8457 4.73799 21.4176 5.15982 21.8395C5.58164 22.2613 6.15357 22.4985 6.75012 22.4991H17.2501C17.8467 22.4985 18.4186 22.2613 18.8404 21.8395C19.2623 21.4176 19.4995 20.8457 19.5001 20.2491V3.74915ZM7.87512 20.2491C7.65262 20.2491 7.43511 20.1832 7.2501 20.0595C7.0651 19.9359 6.9209 19.7602 6.83576 19.5547C6.75061 19.3491 6.72833 19.1229 6.77174 18.9047C6.81515 18.6864 6.92229 18.486 7.07963 18.3287C7.23696 18.1713 7.43742 18.0642 7.65564 18.0208C7.87387 17.9774 8.10007 17.9996 8.30564 18.0848C8.51121 18.1699 8.68691 18.3141 8.81052 18.4991C8.93414 18.6841 9.00012 18.9016 9.00012 19.1241C9.00012 19.4225 8.8816 19.7087 8.67062 19.9196C8.45964 20.1306 8.17349 20.2491 7.87512 20.2491ZM7.87512 16.4991C7.65262 16.4991 7.43511 16.4332 7.2501 16.3095C7.0651 16.1859 6.9209 16.0102 6.83576 15.8047C6.75061 15.5991 6.72833 15.3729 6.77174 15.1547C6.81515 14.9364 6.92229 14.736 7.07963 14.5787C7.23696 14.4213 7.43742 14.3142 7.65564 14.2708C7.87387 14.2274 8.10007 14.2496 8.30564 14.3348C8.51121 14.4199 8.68691 14.5641 8.81052 14.7491C8.93414 14.9341 9.00012 15.1516 9.00012 15.3741C9.00012 15.6725 8.8816 15.9587 8.67062 16.1696C8.45964 16.3806 8.17349 16.4991 7.87512 16.4991ZM7.87512 12.7491C7.65262 12.7491 7.43511 12.6832 7.2501 12.5595C7.0651 12.4359 6.9209 12.2602 6.83576 12.0547C6.75061 11.8491 6.72833 11.6229 6.77174 11.4047C6.81515 11.1864 6.92229 10.986 7.07963 10.8287C7.23696 10.6713 7.43742 10.5642 7.65564 10.5208C7.87387 10.4774 8.10007 10.4996 8.30564 10.5848C8.51121 10.6699 8.68691 10.8141 8.81052 10.9991C8.93414 11.1841 9.00012 11.4016 9.00012 11.6241C9.00012 11.9225 8.8816 12.2087 8.67062 12.4196C8.45964 12.6306 8.17349 12.7491 7.87512 12.7491ZM12.0001 20.2491C11.7776 20.2491 11.5601 20.1832 11.3751 20.0595C11.1901 19.9359 11.0459 19.7602 10.9608 19.5547C10.8756 19.3491 10.8533 19.1229 10.8967 18.9047C10.9401 18.6864 11.0473 18.486 11.2046 18.3287C11.362 18.1713 11.5624 18.0642 11.7806 18.0208C11.9989 17.9774 12.2251 17.9996 12.4306 18.0848C12.6362 18.1699 12.8119 18.3141 12.9355 18.4991C13.0591 18.6841 13.1251 18.9016 13.1251 19.1241C13.1251 19.4225 13.0066 19.7087 12.7956 19.9196C12.5846 20.1306 12.2985 20.2491 12.0001 20.2491ZM12.0001 16.4991C11.7776 16.4991 11.5601 16.4332 11.3751 16.3095C11.1901 16.1859 11.0459 16.0102 10.9608 15.8047C10.8756 15.5991 10.8533 15.3729 10.8967 15.1547C10.9401 14.9364 11.0473 14.736 11.2046 14.5787C11.362 14.4213 11.5624 14.3142 11.7806 14.2708C11.9989 14.2274 12.2251 14.2496 12.4306 14.3348C12.6362 14.4199 12.8119 14.5641 12.9355 14.7491C13.0591 14.9341 13.1251 15.1516 13.1251 15.3741C13.1251 15.6725 13.0066 15.9587 12.7956 16.1696C12.5846 16.3806 12.2985 16.4991 12.0001 16.4991ZM12.0001 12.7491C11.7776 12.7491 11.5601 12.6832 11.3751 12.5595C11.1901 12.4359 11.0459 12.2602 10.9608 12.0547C10.8756 11.8491 10.8533 11.6229 10.8967 11.4047C10.9401 11.1864 11.0473 10.986 11.2046 10.8287C11.362 10.6713 11.5624 10.5642 11.7806 10.5208C11.9989 10.4774 12.2251 10.4996 12.4306 10.5848C12.6362 10.6699 12.8119 10.8141 12.9355 10.9991C13.0591 11.1841 13.1251 11.4016 13.1251 11.6241C13.1251 11.9225 13.0066 12.2087 12.7956 12.4196C12.5846 12.6306 12.2985 12.7491 12.0001 12.7491ZM17.2501 19.1241C17.2501 19.4225 17.1316 19.7087 16.9206 19.9196C16.7096 20.1306 16.4235 20.2491 16.1251 20.2491C15.8268 20.2491 15.5406 20.1306 15.3296 19.9196C15.1186 19.7087 15.0001 19.4225 15.0001 19.1241V15.3741C15.0001 15.0758 15.1186 14.7896 15.3296 14.5787C15.5406 14.3677 15.8268 14.2491 16.1251 14.2491C16.4235 14.2491 16.7096 14.3677 16.9206 14.5787C17.1316 14.7896 17.2501 15.0758 17.2501 15.3741V19.1241ZM16.1251 12.7491C15.9026 12.7491 15.6851 12.6832 15.5001 12.5595C15.3151 12.4359 15.1709 12.2602 15.0858 12.0547C15.0006 11.8491 14.9783 11.6229 15.0217 11.4047C15.0651 11.1864 15.1723 10.986 15.3296 10.8287C15.487 10.6713 15.6874 10.5642 15.9056 10.5208C16.1239 10.4774 16.3501 10.4996 16.5556 10.5848C16.7612 10.6699 16.9369 10.8141 17.0605 10.9991C17.1841 11.1841 17.2501 11.4016 17.2501 11.6241C17.2501 11.9225 17.1316 12.2087 16.9206 12.4196C16.7096 12.6306 16.4235 12.7491 16.1251 12.7491ZM17.0303 8.0293C16.8897 8.16998 16.699 8.24905 16.5001 8.24915H7.50012C7.30121 8.24915 7.11044 8.17013 6.96979 8.02948C6.82914 7.88882 6.75012 7.69806 6.75012 7.49915V4.49915C6.75012 4.30023 6.82914 4.10947 6.96979 3.96882C7.11044 3.82816 7.30121 3.74915 7.50012 3.74915H16.5001C16.699 3.74915 16.8898 3.82816 17.0305 3.96882C17.1711 4.10947 17.2501 4.30023 17.2501 4.49915V7.49915C17.25 7.69802 17.171 7.88872 17.0303 8.0293Z" fill="#666666"/>
</svg>
