<svg width="24" height="24" viewBox="0 0 24 24" fill="none" xmlns="http://www.w3.org/2000/svg">
<path d="M19.4999 2.24915C19.4999 2.05023 19.4209 1.85947 19.2803 1.71882C19.1396 1.57816 18.9488 1.49915 18.7499 1.49915H5.24992C5.051 1.49915 4.86024 1.57816 4.71959 1.71882C4.57893 1.85947 4.49992 2.05023 4.49992 2.24915V21.7491C4.49992 21.9481 4.57893 22.1388 4.71959 22.2795C4.86024 22.4201 5.051 22.4991 5.24992 22.4991H18.7499C18.9488 22.4991 19.1396 22.4201 19.2803 22.2795C19.4209 22.1388 19.4999 21.9481 19.4999 21.7491V2.24915ZM8.99992 20.2491H6.74992V17.9991H8.99992V20.2491ZM8.99992 16.4991H6.74992V14.2491H8.99992V16.4991ZM8.99992 12.7491H6.74992V10.4991H8.99992V12.7491ZM13.1249 20.2491H10.8749V17.9991H13.1249V20.2491ZM13.1249 16.4991H10.8749V14.2491H13.1249V16.4991ZM13.1249 12.7491H10.8749V10.4991H13.1249V12.7491ZM17.2499 20.2491H14.9999V14.2491H17.2499V20.2491ZM17.2499 12.7491H14.9999V10.4991H17.2499V12.7491ZM17.2499 8.24915H6.74992V3.74915H17.2499V8.24915Z" fill="#666666"/>
</svg>
