<svg width="24" height="24" viewBox="0 0 24 24" fill="none" xmlns="http://www.w3.org/2000/svg">
<path d="M22.4999 5.99908C22.4999 5.20343 22.1838 4.44037 21.6212 3.87776C21.0586 3.31515 20.2956 2.99908 19.4999 2.99908H18.7499V2.27017C18.7499 1.86658 18.4396 1.52017 18.036 1.50001C17.9346 1.49513 17.8333 1.51088 17.7381 1.54632C17.643 1.58176 17.556 1.63614 17.4825 1.70618C17.409 1.77622 17.3505 1.86045 17.3105 1.95377C17.2705 2.04709 17.2499 2.14755 17.2499 2.24908V2.99908H6.74991V2.27017C6.74991 1.86658 6.4396 1.52017 6.036 1.50001C5.9346 1.49513 5.83325 1.51088 5.73811 1.54632C5.64297 1.58176 5.55602 1.63614 5.48252 1.70618C5.40902 1.77622 5.35051 1.86045 5.31052 1.95377C5.27054 2.04709 5.24992 2.14755 5.24991 2.24908V2.99908H4.49991C3.70426 2.99908 2.9412 3.31515 2.37859 3.87776C1.81598 4.44037 1.49991 5.20343 1.49991 5.99908V6.56158C1.49991 6.61131 1.51966 6.659 1.55483 6.69416C1.58999 6.72932 1.63768 6.74908 1.68741 6.74908H22.3124C22.3621 6.74908 22.4098 6.72932 22.445 6.69416C22.4802 6.659 22.4999 6.61131 22.4999 6.56158V5.99908ZM1.49991 19.4991C1.49991 20.2947 1.81598 21.0578 2.37859 21.6204C2.9412 22.183 3.70426 22.4991 4.49991 22.4991H19.4999C20.2956 22.4991 21.0586 22.183 21.6212 21.6204C22.1838 21.0578 22.4999 20.2947 22.4999 19.4991V8.43658C22.4999 8.38685 22.4802 8.33916 22.445 8.30399C22.4098 8.26883 22.3621 8.24908 22.3124 8.24908H1.68741C1.63768 8.24908 1.58999 8.26883 1.55483 8.30399C1.51966 8.33916 1.49991 8.38685 1.49991 8.43658V19.4991Z" fill="#666666"/>
</svg>
