<svg width="24" height="24" viewBox="0 0 24 24" fill="none" xmlns="http://www.w3.org/2000/svg">
<path d="M19.4999 3.74915H4.49995C3.25731 3.74915 2.24995 4.7565 2.24995 5.99915V19.4991C2.24995 20.7418 3.25731 21.7491 4.49995 21.7491H19.4999C20.7426 21.7491 21.7499 20.7418 21.7499 19.4991V5.99915C21.7499 4.7565 20.7426 3.74915 19.4999 3.74915Z" stroke="#666666" stroke-width="1.5" stroke-linejoin="round"/>
<path d="M5.99995 2.24829V3.74829M17.9999 2.24829V3.74829M21.7499 7.49829H2.24995M14.2499 12.1858L16.2853 10.6858H16.4999V18.5608M7.21776 11.3856C7.42073 11.0425 7.98885 10.4983 8.99198 10.4983C10.1779 10.4983 11.2368 11.1442 11.2368 12.3686C11.2395 12.6056 11.1947 12.8408 11.1051 13.0602C11.0155 13.2797 10.8829 13.479 10.7151 13.6464C10.2028 14.1709 9.42088 14.3716 8.99385 14.3716C9.47667 14.3716 10.3621 14.5984 10.9415 15.1909C11.3128 15.5692 11.4843 16.1027 11.4843 16.6942C11.4843 18.0011 10.3814 18.7483 9.0412 18.7483C7.90823 18.7483 7.21307 17.9247 6.98432 17.537" stroke="#666666" stroke-width="1.5" stroke-linecap="round" stroke-linejoin="round"/>
</svg>
