<svg width="24" height="24" viewBox="0 0 24 24" fill="none" xmlns="http://www.w3.org/2000/svg">
<path d="M19.5 2.99554H18.75V2.26663C18.75 1.86304 18.4397 1.51663 18.0361 1.49647C17.9347 1.49159 17.8334 1.50734 17.7382 1.54278C17.6431 1.57822 17.5562 1.6326 17.4827 1.70264C17.4092 1.77268 17.3506 1.85691 17.3107 1.95023C17.2707 2.04355 17.25 2.14401 17.25 2.24554V2.99554H6.75004V2.26663C6.75004 1.86304 6.43973 1.51663 6.03613 1.49647C5.93473 1.49159 5.83338 1.50734 5.73824 1.54278C5.6431 1.57822 5.55615 1.6326 5.48265 1.70264C5.40915 1.77268 5.35064 1.85691 5.31065 1.95023C5.27067 2.04355 5.25005 2.14401 5.25004 2.24554V2.99554H4.50004C3.70439 2.99554 2.94133 3.31161 2.37872 3.87422C1.81611 4.43683 1.50004 5.19989 1.50004 5.99554V6.55804C1.50004 6.60777 1.51979 6.65546 1.55496 6.69062C1.59012 6.72578 1.63781 6.74554 1.68754 6.74554H22.3125C22.3623 6.74554 22.41 6.72578 22.4451 6.69062C22.4803 6.65546 22.5 6.60777 22.5 6.55804V5.99554C22.5 5.19989 22.184 4.43683 21.6214 3.87422C21.0588 3.31161 20.2957 2.99554 19.5 2.99554ZM22.3125 8.24554H1.68754C1.63781 8.24554 1.59012 8.26529 1.55496 8.30045C1.51979 8.33562 1.50004 8.38331 1.50004 8.43304V19.4955C1.50004 20.2912 1.81611 21.0542 2.37872 21.6169C2.94133 22.1795 3.70439 22.4955 4.50004 22.4955H19.5C20.2957 22.4955 21.0588 22.1795 21.6214 21.6169C22.184 21.0542 22.5 20.2912 22.5 19.4955V8.43304C22.5 8.38331 22.4803 8.33562 22.4451 8.30045C22.41 8.26529 22.3623 8.24554 22.3125 8.24554ZM11.2304 18.7971C10.6599 19.2476 9.8827 19.4955 9.04129 19.4955C7.73488 19.4955 6.76879 18.6443 6.33848 17.9158C6.23715 17.7445 6.20804 17.54 6.25753 17.3472C6.30702 17.1544 6.43107 16.9892 6.60238 16.8879C6.7737 16.7866 6.97824 16.7574 7.17102 16.8069C7.36381 16.8564 7.52903 16.9805 7.63035 17.1518C7.68098 17.238 8.15301 17.9955 9.04129 17.9955C9.82223 17.9955 10.7344 17.6538 10.7344 16.6915C10.7344 16.3985 10.6772 15.9907 10.4063 15.7127C10.006 15.303 9.33988 15.1188 8.99488 15.1188C8.79597 15.1188 8.6052 15.0398 8.46455 14.8991C8.3239 14.7585 8.24488 14.5677 8.24488 14.3688C8.24488 14.1699 8.3239 13.9791 8.46455 13.8385C8.6052 13.6978 8.79597 13.6188 8.99488 13.6188C9.22223 13.6188 9.81098 13.4969 10.1799 13.1196C10.2797 13.0214 10.3585 12.904 10.4114 12.7744C10.4644 12.6448 10.4904 12.5058 10.4879 12.3658C10.4879 11.2769 9.14582 11.2455 8.99301 11.2455C8.1802 11.2455 7.87738 11.7429 7.86473 11.764C7.816 11.8513 7.75029 11.9281 7.67146 11.9897C7.59264 12.0512 7.50229 12.0964 7.40573 12.1226C7.30918 12.1487 7.20837 12.1553 7.10924 12.1419C7.01011 12.1285 6.91466 12.0954 6.82851 12.0445C6.74237 11.9937 6.66726 11.9261 6.60762 11.8458C6.54797 11.7655 6.505 11.6741 6.48122 11.5769C6.45744 11.4798 6.45334 11.3788 6.46915 11.2801C6.48497 11.1813 6.52039 11.0867 6.57332 11.0018C6.93144 10.3924 7.75551 9.74554 8.99301 9.74554C9.76363 9.74554 10.4818 9.96913 11.0147 10.3746C11.6424 10.8527 11.9879 11.5596 11.9879 12.3658C11.99 12.7001 11.9259 13.0315 11.7992 13.3408C11.6726 13.6502 11.4859 13.9314 11.25 14.1682C11.1961 14.2235 11.1394 14.2751 11.0818 14.3252C11.2226 14.4269 11.3546 14.5403 11.4764 14.6641C11.9714 15.1704 12.233 15.8712 12.233 16.6915C12.2344 17.538 11.8777 18.2857 11.2304 18.7971ZM17.25 18.558C17.25 18.757 17.171 18.9477 17.0304 19.0884C16.8897 19.229 16.699 19.308 16.5 19.308C16.3011 19.308 16.1104 19.229 15.9697 19.0884C15.8291 18.9477 15.75 18.757 15.75 18.558V12.0091L14.6949 12.7868C14.6156 12.8453 14.5256 12.8876 14.4299 12.9112C14.3343 12.9349 14.235 12.9395 14.1375 12.9248C14.0401 12.9101 13.9466 12.8764 13.8622 12.8255C13.7778 12.7746 13.7043 12.7076 13.6458 12.6284C13.5873 12.5491 13.5451 12.459 13.5214 12.3634C13.4977 12.2678 13.4931 12.1684 13.5078 12.071C13.5225 11.9736 13.5562 11.88 13.6071 11.7957C13.658 11.7113 13.725 11.6378 13.8043 11.5793L15.8396 10.0793C15.9684 9.98431 16.1243 9.93306 16.2844 9.93304H16.5C16.699 9.93304 16.8897 10.0121 17.0304 10.1527C17.171 10.2934 17.25 10.4841 17.25 10.683V18.558Z" fill="#666666"/>
</svg>
