<svg width="24" height="24" viewBox="0 0 24 24" fill="none" xmlns="http://www.w3.org/2000/svg">
<path d="M22.4999 5.99554C22.4999 5.19989 22.1839 4.43683 21.6213 3.87422C21.0587 3.31161 20.2956 2.99554 19.4999 2.99554H18.7499V2.26663C18.7499 1.86304 18.4396 1.51663 18.036 1.49647C17.9346 1.49159 17.8333 1.50734 17.7382 1.54278C17.643 1.57822 17.5561 1.6326 17.4826 1.70264C17.4091 1.77268 17.3505 1.85691 17.3106 1.95023C17.2706 2.04355 17.25 2.14401 17.2499 2.24554V2.99554H6.74994V2.26663C6.74994 1.86304 6.43963 1.51663 6.03604 1.49647C5.93463 1.49159 5.83329 1.50734 5.73815 1.54278C5.64301 1.57822 5.55606 1.6326 5.48256 1.70264C5.40906 1.77268 5.35054 1.85691 5.31056 1.95023C5.27058 2.04355 5.24995 2.14401 5.24994 2.24554V2.99554H4.49994C3.7043 2.99554 2.94123 3.31161 2.37862 3.87422C1.81602 4.43683 1.49994 5.19989 1.49994 5.99554V6.55804C1.49994 6.60777 1.5197 6.65546 1.55486 6.69062C1.59003 6.72578 1.63772 6.74554 1.68744 6.74554H22.3124C22.3622 6.74554 22.4099 6.72578 22.445 6.69062C22.4802 6.65546 22.4999 6.60777 22.4999 6.55804V5.99554ZM1.49994 19.4955C1.49994 20.2912 1.81602 21.0542 2.37862 21.6169C2.94123 22.1795 3.7043 22.4955 4.49994 22.4955H19.4999C20.2956 22.4955 21.0587 22.1795 21.6213 21.6169C22.1839 21.0542 22.4999 20.2912 22.4999 19.4955V8.38616C22.4999 8.34887 22.4851 8.3131 22.4588 8.28673C22.4324 8.26035 22.3966 8.24554 22.3593 8.24554H1.64057C1.60327 8.24554 1.5675 8.26035 1.54113 8.28673C1.51476 8.3131 1.49994 8.34887 1.49994 8.38616V19.4955ZM17.6249 9.74554C17.8475 9.74554 18.065 9.81152 18.25 9.93513C18.435 10.0588 18.5792 10.2345 18.6643 10.44C18.7495 10.6456 18.7717 10.8718 18.7283 11.09C18.6849 11.3082 18.5778 11.5087 18.4204 11.666C18.2631 11.8234 18.0627 11.9305 17.8444 11.9739C17.6262 12.0173 17.4 11.9951 17.1944 11.9099C16.9889 11.8248 16.8132 11.6806 16.6895 11.4956C16.5659 11.3105 16.4999 11.093 16.4999 10.8705C16.4999 10.5722 16.6185 10.286 16.8295 10.075C17.0404 9.86406 17.3266 9.74554 17.6249 9.74554ZM17.6249 13.4955C17.8475 13.4955 18.065 13.5615 18.25 13.6851C18.435 13.8088 18.5792 13.9845 18.6643 14.19C18.7495 14.3956 18.7717 14.6218 18.7283 14.84C18.6849 15.0582 18.5778 15.2587 18.4204 15.416C18.2631 15.5734 18.0627 15.6805 17.8444 15.7239C17.6262 15.7673 17.4 15.7451 17.1944 15.6599C16.9889 15.5748 16.8132 15.4306 16.6895 15.2456C16.5659 15.0605 16.4999 14.843 16.4999 14.6205C16.4999 14.3222 16.6185 14.036 16.8295 13.825C17.0404 13.6141 17.3266 13.4955 17.6249 13.4955ZM13.8749 9.74554C14.0974 9.74554 14.315 9.81152 14.5 9.93513C14.685 10.0588 14.8292 10.2345 14.9143 10.44C14.9995 10.6456 15.0217 10.8718 14.9783 11.09C14.9349 11.3082 14.8278 11.5087 14.6704 11.666C14.5131 11.8234 14.3127 11.9305 14.0944 11.9739C13.8762 12.0173 13.65 11.9951 13.4444 11.9099C13.2389 11.8248 13.0632 11.6806 12.9395 11.4956C12.8159 11.3105 12.7499 11.093 12.7499 10.8705C12.7499 10.5722 12.8685 10.286 13.0795 10.075C13.2904 9.86406 13.5766 9.74554 13.8749 9.74554ZM13.8749 13.4955C14.0974 13.4955 14.315 13.5615 14.5 13.6851C14.685 13.8088 14.8292 13.9845 14.9143 14.19C14.9995 14.3956 15.0217 14.6218 14.9783 14.84C14.9349 15.0582 14.8278 15.2587 14.6704 15.416C14.5131 15.5734 14.3127 15.6805 14.0944 15.7239C13.8762 15.7673 13.65 15.7451 13.4444 15.6599C13.2389 15.5748 13.0632 15.4306 12.9395 15.2456C12.8159 15.0605 12.7499 14.843 12.7499 14.6205C12.7499 14.3222 12.8685 14.036 13.0795 13.825C13.2904 13.6141 13.5766 13.4955 13.8749 13.4955ZM13.8749 17.2455C14.0974 17.2455 14.315 17.3115 14.5 17.4351C14.685 17.5588 14.8292 17.7345 14.9143 17.94C14.9995 18.1456 15.0217 18.3718 14.9783 18.59C14.9349 18.8082 14.8278 19.0087 14.6704 19.166C14.5131 19.3234 14.3127 19.4305 14.0944 19.4739C13.8762 19.5173 13.65 19.4951 13.4444 19.4099C13.2389 19.3248 13.0632 19.1806 12.9395 18.9956C12.8159 18.8105 12.7499 18.593 12.7499 18.3705C12.7499 18.0722 12.8685 17.786 13.0795 17.575C13.2904 17.3641 13.5766 17.2455 13.8749 17.2455ZM10.1249 13.4955C10.3474 13.4955 10.565 13.5615 10.75 13.6851C10.935 13.8088 11.0792 13.9845 11.1643 14.19C11.2495 14.3956 11.2717 14.6218 11.2283 14.84C11.1849 15.0582 11.0778 15.2587 10.9204 15.416C10.7631 15.5734 10.5627 15.6805 10.3444 15.7239C10.1262 15.7673 9.89999 15.7451 9.69443 15.6599C9.48886 15.5748 9.31316 15.4306 9.18954 15.2456C9.06592 15.0605 8.99994 14.843 8.99994 14.6205C8.99994 14.3222 9.11847 14.036 9.32945 13.825C9.54043 13.6141 9.82658 13.4955 10.1249 13.4955ZM10.1249 17.2455C10.3474 17.2455 10.565 17.3115 10.75 17.4351C10.935 17.5588 11.0792 17.7345 11.1643 17.94C11.2495 18.1456 11.2717 18.3718 11.2283 18.59C11.1849 18.8082 11.0778 19.0087 10.9204 19.166C10.7631 19.3234 10.5627 19.4305 10.3444 19.4739C10.1262 19.5173 9.89999 19.4951 9.69443 19.4099C9.48886 19.3248 9.31316 19.1806 9.18954 18.9956C9.06592 18.8105 8.99994 18.593 8.99994 18.3705C8.99994 18.0722 9.11847 17.786 9.32945 17.575C9.54043 17.3641 9.82658 17.2455 10.1249 17.2455ZM6.37494 13.4955C6.59745 13.4955 6.81496 13.5615 6.99996 13.6851C7.18497 13.8088 7.32916 13.9845 7.41431 14.19C7.49946 14.3956 7.52174 14.6218 7.47833 14.84C7.43492 15.0582 7.32777 15.2587 7.17044 15.416C7.01311 15.5734 6.81265 15.6805 6.59442 15.7239C6.37619 15.7673 6.14999 15.7451 5.94443 15.6599C5.73886 15.5748 5.56316 15.4306 5.43954 15.2456C5.31592 15.0605 5.24994 14.843 5.24994 14.6205C5.24994 14.3222 5.36847 14.036 5.57945 13.825C5.79043 13.6141 6.07658 13.4955 6.37494 13.4955ZM6.37494 17.2455C6.59745 17.2455 6.81496 17.3115 6.99996 17.4351C7.18497 17.5588 7.32916 17.7345 7.41431 17.94C7.49946 18.1456 7.52174 18.3718 7.47833 18.59C7.43492 18.8082 7.32777 19.0087 7.17044 19.166C7.01311 19.3234 6.81265 19.4305 6.59442 19.4739C6.37619 19.5173 6.14999 19.4951 5.94443 19.4099C5.73886 19.3248 5.56316 19.1806 5.43954 18.9956C5.31592 18.8105 5.24994 18.593 5.24994 18.3705C5.24994 18.0722 5.36847 17.786 5.57945 17.575C5.79043 17.3641 6.07658 17.2455 6.37494 17.2455Z" fill="#666666"/>
</svg>
