<svg width="24" height="24" viewBox="0 0 24 24" fill="none" xmlns="http://www.w3.org/2000/svg">
<path d="M1.49998 21.3706C1.49998 21.669 1.6185 21.9551 1.82948 22.1661C2.04046 22.3771 2.32661 22.4956 2.62498 22.4956H21.375C21.6733 22.4956 21.9595 22.3771 22.1705 22.1661C22.3815 21.9551 22.5 21.669 22.5 21.3706V8.24561H1.49998V21.3706ZM16.0392 9.93311H17.25V19.3081H15.75V12.0092L14.0911 13.2317L13.2004 12.0242L16.0392 9.93311ZM10.4062 15.7128C10.0059 15.3031 9.33982 15.1189 8.99482 15.1189H8.24482V13.6189H8.99482C9.22217 13.6189 9.81091 13.497 10.1798 13.1197C10.2796 13.0215 10.3584 12.9041 10.4113 12.7745C10.4643 12.6449 10.4903 12.5059 10.4878 12.3659C10.4878 11.277 9.14576 11.2456 8.99295 11.2456C8.18013 11.2456 7.87732 11.7429 7.86467 11.764L7.48357 12.41L6.1917 11.6473L6.57326 11.0019C6.93138 10.3925 7.75545 9.74561 8.99295 9.74561C9.76357 9.74561 10.4817 9.9692 11.0147 10.3747C11.6423 10.8528 11.9878 11.5597 11.9878 12.3659C11.9899 12.7002 11.9258 13.0315 11.7992 13.3409C11.6725 13.6502 11.4859 13.9314 11.25 14.1683C11.1961 14.2236 11.1394 14.2751 11.0817 14.3253C11.2225 14.427 11.3545 14.5404 11.4764 14.6642C11.9714 15.1705 12.2329 15.8712 12.2329 16.6915C12.2329 17.5381 11.8762 18.2853 11.2289 18.7972C10.6584 19.2476 9.88123 19.4956 9.03982 19.4956C7.73342 19.4956 6.76732 18.6444 6.33701 17.9159L5.95591 17.27L7.24779 16.5073L7.63029 17.1519C7.68091 17.2381 8.15295 17.9956 9.04123 17.9956C9.82217 17.9956 10.7344 17.6539 10.7344 16.6915C10.7344 16.3986 10.6772 15.9908 10.4062 15.7128ZM21.375 2.99561H18.7537V1.49561H16.5037V2.99561H7.49623V1.49561H5.24623V2.99561H2.62498C2.4778 2.99437 2.33184 3.02227 2.19549 3.07769C2.05915 3.13311 1.93511 3.21497 1.83054 3.31854C1.72597 3.42211 1.64293 3.54534 1.58619 3.68115C1.52946 3.81696 1.50016 3.96264 1.49998 4.10982V6.74561H22.5V4.10982C22.4998 3.96264 22.4705 3.81696 22.4138 3.68115C22.357 3.54534 22.274 3.42211 22.1694 3.31854C22.0648 3.21497 21.9408 3.13311 21.8045 3.07769C21.6681 3.02227 21.5222 2.99437 21.375 2.99561Z" fill="#666666"/>
</svg>
