<svg width="24" height="24" viewBox="0 0 24 24" fill="none" xmlns="http://www.w3.org/2000/svg">
<path d="M1.50002 21.3706C1.50002 21.669 1.61855 21.9551 1.82953 22.1661C2.04051 22.3771 2.32665 22.4956 2.62502 22.4956H21.375C21.6734 22.4956 21.9595 22.3771 22.1705 22.1661C22.3815 21.9551 22.5 21.669 22.5 21.3706V8.24561H1.50002V21.3706ZM16.5 9.93311C16.5 9.88338 16.5198 9.83569 16.5549 9.80052C16.5901 9.76536 16.6378 9.74561 16.6875 9.74561H18.5625C18.6123 9.74561 18.6599 9.76536 18.6951 9.80052C18.7303 9.83569 18.75 9.88338 18.75 9.93311V11.8081C18.75 11.8578 18.7303 11.9055 18.6951 11.9407C18.6599 11.9759 18.6123 11.9956 18.5625 11.9956H16.6875C16.6378 11.9956 16.5901 11.9759 16.5549 11.9407C16.5198 11.9055 16.5 11.8578 16.5 11.8081V9.93311ZM16.5 13.6831C16.5 13.6334 16.5198 13.5857 16.5549 13.5505C16.5901 13.5154 16.6378 13.4956 16.6875 13.4956H18.5625C18.6123 13.4956 18.6599 13.5154 18.6951 13.5505C18.7303 13.5857 18.75 13.6334 18.75 13.6831V15.5581C18.75 15.6078 18.7303 15.6555 18.6951 15.6907C18.6599 15.7259 18.6123 15.7456 18.5625 15.7456H16.6875C16.6378 15.7456 16.5901 15.7259 16.5549 15.6907C16.5198 15.6555 16.5 15.6078 16.5 15.5581V13.6831ZM12.75 9.93311C12.75 9.88338 12.7698 9.83569 12.8049 9.80052C12.8401 9.76536 12.8878 9.74561 12.9375 9.74561H14.8125C14.8623 9.74561 14.9099 9.76536 14.9451 9.80052C14.9803 9.83569 15 9.88338 15 9.93311V11.8081C15 11.8578 14.9803 11.9055 14.9451 11.9407C14.9099 11.9759 14.8623 11.9956 14.8125 11.9956H12.9375C12.8878 11.9956 12.8401 11.9759 12.8049 11.9407C12.7698 11.9055 12.75 11.8578 12.75 11.8081V9.93311ZM12.75 13.6831C12.75 13.6334 12.7698 13.5857 12.8049 13.5505C12.8401 13.5154 12.8878 13.4956 12.9375 13.4956H14.8125C14.8623 13.4956 14.9099 13.5154 14.9451 13.5505C14.9803 13.5857 15 13.6334 15 13.6831V15.5581C15 15.6078 14.9803 15.6555 14.9451 15.6907C14.9099 15.7259 14.8623 15.7456 14.8125 15.7456H12.9375C12.8878 15.7456 12.8401 15.7259 12.8049 15.6907C12.7698 15.6555 12.75 15.6078 12.75 15.5581V13.6831ZM12.75 17.4331C12.75 17.3834 12.7698 17.3357 12.8049 17.3005C12.8401 17.2654 12.8878 17.2456 12.9375 17.2456H14.8125C14.8623 17.2456 14.9099 17.2654 14.9451 17.3005C14.9803 17.3357 15 17.3834 15 17.4331V19.3081C15 19.3578 14.9803 19.4055 14.9451 19.4407C14.9099 19.4759 14.8623 19.4956 14.8125 19.4956H12.9375C12.8878 19.4956 12.8401 19.4759 12.8049 19.4407C12.7698 19.4055 12.75 19.3578 12.75 19.3081V17.4331ZM9.00002 13.6831C9.00002 13.6334 9.01978 13.5857 9.05494 13.5505C9.0901 13.5154 9.1378 13.4956 9.18752 13.4956H11.0625C11.1123 13.4956 11.1599 13.5154 11.1951 13.5505C11.2303 13.5857 11.25 13.6334 11.25 13.6831V15.5581C11.25 15.6078 11.2303 15.6555 11.1951 15.6907C11.1599 15.7259 11.1123 15.7456 11.0625 15.7456H9.18752C9.1378 15.7456 9.0901 15.7259 9.05494 15.6907C9.01978 15.6555 9.00002 15.6078 9.00002 15.5581V13.6831ZM9.00002 17.4331C9.00002 17.3834 9.01978 17.3357 9.05494 17.3005C9.0901 17.2654 9.1378 17.2456 9.18752 17.2456H11.0625C11.1123 17.2456 11.1599 17.2654 11.1951 17.3005C11.2303 17.3357 11.25 17.3834 11.25 17.4331V19.3081C11.25 19.3578 11.2303 19.4055 11.1951 19.4407C11.1599 19.4759 11.1123 19.4956 11.0625 19.4956H9.18752C9.1378 19.4956 9.0901 19.4759 9.05494 19.4407C9.01978 19.4055 9.00002 19.3578 9.00002 19.3081V17.4331ZM5.25002 13.6831C5.25002 13.6334 5.26978 13.5857 5.30494 13.5505C5.3401 13.5154 5.3878 13.4956 5.43752 13.4956H7.31252C7.36225 13.4956 7.40994 13.5154 7.44511 13.5505C7.48027 13.5857 7.50002 13.6334 7.50002 13.6831V15.5581C7.50002 15.6078 7.48027 15.6555 7.44511 15.6907C7.40994 15.7259 7.36225 15.7456 7.31252 15.7456H5.43752C5.3878 15.7456 5.3401 15.7259 5.30494 15.6907C5.26978 15.6555 5.25002 15.6078 5.25002 15.5581V13.6831ZM5.25002 17.4331C5.25002 17.3834 5.26978 17.3357 5.30494 17.3005C5.3401 17.2654 5.3878 17.2456 5.43752 17.2456H7.31252C7.36225 17.2456 7.40994 17.2654 7.44511 17.3005C7.48027 17.3357 7.50002 17.3834 7.50002 17.4331V19.3081C7.50002 19.3578 7.48027 19.4055 7.44511 19.4407C7.40994 19.4759 7.36225 19.4956 7.31252 19.4956H5.43752C5.3878 19.4956 5.3401 19.4759 5.30494 19.4407C5.26978 19.4055 5.25002 19.3578 5.25002 19.3081V17.4331ZM21.375 2.99561H18.7538V1.49561H16.5038V2.99561H7.49627V1.49561H5.24627V2.99561H2.62502C2.47785 2.99437 2.33188 3.02227 2.19554 3.07769C2.05919 3.13311 1.93516 3.21497 1.83059 3.31854C1.72602 3.42211 1.64297 3.54534 1.58624 3.68115C1.5295 3.81696 1.5002 3.96264 1.50002 4.10982V6.74561H22.5V4.10982C22.4998 3.96264 22.4705 3.81696 22.4138 3.68115C22.3571 3.54534 22.274 3.42211 22.1695 3.31854C22.0649 3.21497 21.9409 3.13311 21.8045 3.07769C21.6682 3.02227 21.5222 2.99437 21.375 2.99561Z" fill="#666666"/>
</svg>
