<svg width="24" height="24" viewBox="0 0 24 24" fill="none" xmlns="http://www.w3.org/2000/svg">
<path d="M1.49999 21.3741C1.49999 21.6725 1.61852 21.9587 1.8295 22.1696C2.04048 22.3806 2.32662 22.4991 2.62499 22.4991H21.375C21.6734 22.4991 21.9595 22.3806 22.1705 22.1696C22.3815 21.9587 22.5 21.6725 22.5 21.3741V8.99915H1.49999V21.3741ZM22.5 4.11336C22.4998 3.96618 22.4705 3.8205 22.4138 3.68469C22.357 3.54888 22.274 3.42565 22.1694 3.32208C22.0649 3.21851 21.9408 3.13665 21.8045 3.08123C21.6681 3.02581 21.5222 2.99791 21.375 2.99915H18.7537V1.49915H16.5037V2.99915H7.49624V1.49915H5.24624V2.99915H2.62499C2.47782 2.99791 2.33185 3.02581 2.19551 3.08123C2.05916 3.13665 1.93513 3.21851 1.83056 3.32208C1.72599 3.42565 1.64294 3.54888 1.58621 3.68469C1.52947 3.8205 1.50017 3.96618 1.49999 4.11336V6.74915H22.5V4.11336Z" fill="#666666"/>
</svg>
