<svg width="24" height="24" viewBox="0 0 24 24" fill="none" xmlns="http://www.w3.org/2000/svg">
<path d="M19.5 3.74915H4.49999C3.25735 3.74915 2.24999 4.7565 2.24999 5.99915V19.4991C2.24999 20.7418 3.25735 21.7491 4.49999 21.7491H19.5C20.7426 21.7491 21.75 20.7418 21.75 19.4991V5.99915C21.75 4.7565 20.7426 3.74915 19.5 3.74915Z" stroke="#666666" stroke-width="1.5" stroke-linejoin="round"/>
<path d="M13.8751 11.9983C14.4964 11.9983 15.0001 11.4946 15.0001 10.8733C15.0001 10.252 14.4964 9.74829 13.8751 9.74829C13.2538 9.74829 12.7501 10.252 12.7501 10.8733C12.7501 11.4946 13.2538 11.9983 13.8751 11.9983Z" fill="#666666"/>
<path d="M17.625 11.9983C18.2463 11.9983 18.75 11.4946 18.75 10.8733C18.75 10.252 18.2463 9.74829 17.625 9.74829C17.0036 9.74829 16.5 10.252 16.5 10.8733C16.5 11.4946 17.0036 11.9983 17.625 11.9983Z" fill="#666666"/>
<path d="M13.8751 15.7483C14.4964 15.7483 15.0001 15.2446 15.0001 14.6233C15.0001 14.002 14.4964 13.4983 13.8751 13.4983C13.2538 13.4983 12.7501 14.002 12.7501 14.6233C12.7501 15.2446 13.2538 15.7483 13.8751 15.7483Z" fill="#666666"/>
<path d="M17.625 15.7483C18.2463 15.7483 18.75 15.2446 18.75 14.6233C18.75 14.002 18.2463 13.4983 17.625 13.4983C17.0036 13.4983 16.5 14.002 16.5 14.6233C16.5 15.2446 17.0036 15.7483 17.625 15.7483Z" fill="#666666"/>
<path d="M6.37496 15.7483C6.99628 15.7483 7.49996 15.2446 7.49996 14.6233C7.49996 14.002 6.99628 13.4983 6.37496 13.4983C5.75364 13.4983 5.24996 14.002 5.24996 14.6233C5.24996 15.2446 5.75364 15.7483 6.37496 15.7483Z" fill="#666666"/>
<path d="M10.125 15.7483C10.7463 15.7483 11.25 15.2446 11.25 14.6233C11.25 14.002 10.7463 13.4983 10.125 13.4983C9.50364 13.4983 8.99996 14.002 8.99996 14.6233C8.99996 15.2446 9.50364 15.7483 10.125 15.7483Z" fill="#666666"/>
<path d="M6.37496 19.4983C6.99628 19.4983 7.49996 18.9946 7.49996 18.3733C7.49996 17.752 6.99628 17.2483 6.37496 17.2483C5.75364 17.2483 5.24996 17.752 5.24996 18.3733C5.24996 18.9946 5.75364 19.4983 6.37496 19.4983Z" fill="#666666"/>
<path d="M10.125 19.4983C10.7463 19.4983 11.25 18.9946 11.25 18.3733C11.25 17.752 10.7463 17.2483 10.125 17.2483C9.50364 17.2483 8.99996 17.752 8.99996 18.3733C8.99996 18.9946 9.50364 19.4983 10.125 19.4983Z" fill="#666666"/>
<path d="M13.8751 19.4983C14.4964 19.4983 15.0001 18.9946 15.0001 18.3733C15.0001 17.752 14.4964 17.2483 13.8751 17.2483C13.2538 17.2483 12.7501 17.752 12.7501 18.3733C12.7501 18.9946 13.2538 19.4983 13.8751 19.4983Z" fill="#666666"/>
<path d="M18 2.24829V3.74829M5.99999 2.24829V3.74829V2.24829Z" stroke="#666666" stroke-width="1.5" stroke-linecap="round" stroke-linejoin="round"/>
<path d="M21.75 7.49915H2.24999" stroke="#666666" stroke-width="1.5" stroke-linejoin="round"/>
</svg>
