<svg width="24" height="24" viewBox="0 0 24 24" fill="none" xmlns="http://www.w3.org/2000/svg">
<path d="M22.4503 17.3501C22.2057 17.0895 21.3418 16.3189 19.7536 15.2994C18.1538 14.2709 16.9739 13.6297 16.6355 13.4801C16.6057 13.4669 16.5728 13.4621 16.5404 13.4661C16.5081 13.4701 16.4774 13.4829 16.4518 13.5031C15.9066 13.9283 14.9888 14.7092 14.9396 14.7514C14.6218 15.0237 14.6218 15.0237 14.3616 14.9389C13.9041 14.7889 12.4828 14.0342 11.2444 12.7929C10.006 11.5517 9.21238 10.0953 9.06238 9.63826C8.9766 9.37763 8.9766 9.37763 9.24988 9.05982C9.29207 9.0106 10.0735 8.09279 10.4986 7.5481C10.5188 7.52245 10.5316 7.49179 10.5356 7.45942C10.5397 7.42704 10.5348 7.39418 10.5216 7.36435C10.3721 7.02545 9.73082 5.84607 8.70238 4.24623C7.68144 2.65857 6.91175 1.79466 6.65113 1.54998C6.62721 1.52741 6.59765 1.51171 6.56556 1.50453C6.53347 1.49735 6.50004 1.49896 6.46878 1.50919C5.55776 1.82227 4.67876 2.22174 3.84378 2.70216C3.03773 3.17074 2.27461 3.70955 1.56331 4.31232C1.53848 4.33343 1.51987 4.3609 1.50946 4.39178C1.49906 4.42267 1.49726 4.4558 1.50425 4.48763C1.60222 4.9442 2.0705 6.85013 3.52363 9.49013C5.00628 12.1845 6.03378 13.565 8.21113 15.7348C10.3885 17.9047 11.8125 18.994 14.5097 20.4767C17.1497 21.9298 19.0566 22.3986 19.5122 22.4956C19.5441 22.5025 19.5773 22.5007 19.6083 22.4903C19.6392 22.4799 19.6668 22.4613 19.688 22.4365C20.2907 21.7253 20.8293 20.9621 21.2977 20.1561C21.778 19.3211 22.1775 18.4421 22.4907 17.5311C22.5007 17.5001 22.5022 17.4669 22.4951 17.4351C22.4881 17.4033 22.4726 17.374 22.4503 17.3501Z" fill="#666666"/>
</svg>
