<svg width="24" height="24" viewBox="0 0 24 24" fill="none" xmlns="http://www.w3.org/2000/svg">
<path d="M21.1406 17.529C20.3963 16.779 18.5935 15.6845 17.7188 15.2434C16.5797 14.6696 16.486 14.6227 15.5906 15.2879C14.9935 15.7318 14.5964 16.1284 13.8975 15.9793C13.1986 15.8302 11.6799 14.9898 10.35 13.6642C9.02018 12.3385 8.13096 10.7757 7.98143 10.0792C7.8319 9.38259 8.23502 8.99024 8.67471 8.39165C9.2944 7.5479 9.24752 7.40728 8.71783 6.26821C8.30487 5.38227 7.17846 3.59634 6.42565 2.85571C5.62034 2.06024 5.62034 2.20087 5.10143 2.41649C4.67898 2.59424 4.27369 2.8103 3.89065 3.06196C3.14065 3.56024 2.7244 3.97415 2.4333 4.59618C2.14221 5.21821 2.01143 6.67649 3.51471 9.40743C5.01799 12.1384 6.07268 13.5348 8.25565 15.7117C10.4386 17.8885 12.1172 19.059 14.5711 20.4352C17.6067 22.1354 18.7711 21.804 19.395 21.5134C20.0189 21.2227 20.4347 20.8102 20.9339 20.0602C21.1862 19.6778 21.4028 19.273 21.5808 18.8509C21.7969 18.3338 21.9375 18.3338 21.1406 17.529Z" stroke="#666666" stroke-width="1.5" stroke-miterlimit="10"/>
</svg>
