<svg width="24" height="24" viewBox="0 0 24 24" fill="none" xmlns="http://www.w3.org/2000/svg">
<path d="M21.375 6.74561H17.4844C17.3437 6.74561 17.1694 6.65467 17.0334 6.51123L15.7533 4.50545C15.2812 3.74561 15 3.74561 14.1562 3.74561H9.84373C8.99998 3.74561 8.7656 3.74561 8.2467 4.50545L6.96654 6.51123C6.86248 6.62467 6.71623 6.74561 6.56248 6.74561V5.99561C6.56248 5.89615 6.52297 5.80077 6.45264 5.73044C6.38232 5.66011 6.28693 5.62061 6.18748 5.62061H4.31248C4.21302 5.62061 4.11764 5.66011 4.04731 5.73044C3.97699 5.80077 3.93748 5.89615 3.93748 5.99561V6.74561H2.62498C2.32661 6.74561 2.04046 6.86413 1.82948 7.07511C1.6185 7.28609 1.49998 7.57224 1.49998 7.87061V19.1206C1.49998 19.419 1.6185 19.7051 1.82948 19.9161C2.04046 20.1271 2.32661 20.2456 2.62498 20.2456H21.375C21.6733 20.2456 21.9595 20.1271 22.1705 19.9161C22.3815 19.7051 22.5 19.419 22.5 19.1206V7.87061C22.5 7.57224 22.3815 7.28609 22.1705 7.07511C21.9595 6.86413 21.6733 6.74561 21.375 6.74561ZM12 17.2456C9.75842 17.2456 7.88623 15.6411 7.54685 13.4956H5.5017L8.24998 10.7473L10.9983 13.4956H9.09373C9.22016 13.9836 9.4674 14.432 9.81266 14.7993C10.1579 15.1666 10.5901 15.4411 11.0694 15.5975C11.5486 15.7539 12.0595 15.7872 12.555 15.6942C13.0505 15.6012 13.5146 15.385 13.9045 15.0655L15 16.0737L14.8275 16.2481C14.0255 16.8919 13.0284 17.2437 12 17.2456ZM15.75 14.7219L12.9895 11.9956H14.9062C14.7783 11.5065 14.5293 11.0575 14.1823 10.6899C13.8352 10.3223 13.4012 10.0479 12.9202 9.89217C12.4392 9.73639 11.9268 9.70418 11.4301 9.7985C10.9334 9.89281 10.4685 10.1106 10.0781 10.4319L8.99998 9.37061L9.14717 9.25576C9.95033 8.60287 10.9537 8.24619 11.9887 8.24561C14.2317 8.24561 16.0669 9.84826 16.4062 11.9956H18.5119L15.75 14.7219Z" fill="#666666"/>
</svg>
