<svg width="24" height="24" viewBox="0 0 24 24" fill="none" xmlns="http://www.w3.org/2000/svg">
<path d="M12 15.7491C13.6569 15.7491 15 14.406 15 12.7491C15 11.0923 13.6569 9.74915 12 9.74915C10.3432 9.74915 9.00002 11.0923 9.00002 12.7491C9.00002 14.406 10.3432 15.7491 12 15.7491Z" fill="#666666"/>
<path d="M20.25 6.74561H17.4844C17.3438 6.74561 17.1694 6.65467 17.0335 6.51123L15.8175 4.59217C15.7983 4.56171 15.7768 4.53273 15.7533 4.50545C15.3333 4.01561 14.7656 3.74561 14.1563 3.74561H9.84377C9.2344 3.74561 8.66674 4.01561 8.24674 4.50545C8.22322 4.53273 8.20175 4.56171 8.18252 4.59217L6.96659 6.51404C6.86252 6.62748 6.71627 6.74842 6.56252 6.74842V6.37342C6.56252 6.17451 6.48351 5.98374 6.34285 5.84309C6.2022 5.70244 6.01144 5.62342 5.81252 5.62342H4.68752C4.48861 5.62342 4.29785 5.70244 4.15719 5.84309C4.01654 5.98374 3.93752 6.17451 3.93752 6.37342V6.74842H3.75002C3.15348 6.74904 2.58154 6.98629 2.15972 7.40811C1.7379 7.82994 1.50064 8.40187 1.50002 8.99842V17.9956C1.50064 18.5922 1.7379 19.1641 2.15972 19.5859C2.58154 20.0077 3.15348 20.245 3.75002 20.2456H20.25C20.8466 20.245 21.4185 20.0077 21.8403 19.5859C22.2622 19.1641 22.4994 18.5922 22.5 17.9956V8.99561C22.4994 8.39906 22.2622 7.82712 21.8403 7.4053C21.4185 6.98348 20.8466 6.74623 20.25 6.74561ZM12 17.2456C11.11 17.2456 10.24 16.9817 9.49996 16.4872C8.75994 15.9928 8.18316 15.29 7.84257 14.4677C7.50197 13.6454 7.41286 12.7406 7.58649 11.8677C7.76012 10.9948 8.18871 10.193 8.81804 9.56363C9.44738 8.93429 10.2492 8.50571 11.1221 8.33207C11.995 8.15844 12.8998 8.24755 13.7221 8.58815C14.5444 8.92874 15.2472 9.50552 15.7416 10.2455C16.2361 10.9856 16.5 11.8556 16.5 12.7456C16.4987 13.9387 16.0241 15.0825 15.1805 15.9261C14.3369 16.7697 13.1931 17.2442 12 17.2456Z" fill="#666666"/>
</svg>
