<svg width="24" height="24" viewBox="0 0 24 24" fill="none" xmlns="http://www.w3.org/2000/svg">
<path d="M12 15.7491C13.6568 15.7491 15 14.406 15 12.7491C15 11.0923 13.6568 9.74915 12 9.74915C10.3431 9.74915 8.99996 11.0923 8.99996 12.7491C8.99996 14.406 10.3431 15.7491 12 15.7491Z" fill="#666666"/>
<path d="M21.375 6.74561H17.4843C17.3437 6.74561 17.1693 6.65467 17.0334 6.51123L15.7547 4.50498C15.2343 3.74561 15 3.74561 14.1562 3.74561H9.84371C8.99996 3.74561 8.71871 3.74561 8.24668 4.50545L6.96652 6.51123C6.86246 6.62467 6.71621 6.74561 6.56246 6.74561V5.99561C6.56246 5.89615 6.52295 5.80077 6.45263 5.73044C6.3823 5.66011 6.28692 5.62061 6.18746 5.62061H4.31246C4.21301 5.62061 4.11762 5.66011 4.0473 5.73044C3.97697 5.80077 3.93746 5.89615 3.93746 5.99561V6.74561H2.62496C2.32659 6.74561 2.04045 6.86413 1.82947 7.07511C1.61849 7.28609 1.49996 7.57224 1.49996 7.87061V19.1206C1.49996 19.419 1.61849 19.7051 1.82947 19.9161C2.04045 20.1271 2.32659 20.2456 2.62496 20.2456H21.375C21.6733 20.2456 21.9595 20.1271 22.1705 19.9161C22.3814 19.7051 22.5 19.419 22.5 19.1206V7.87061C22.5 7.57224 22.3814 7.28609 22.1705 7.07511C21.9595 6.86413 21.6733 6.74561 21.375 6.74561ZM12.2114 17.2409C11.3044 17.2835 10.4057 17.0507 9.6334 16.5732C8.86113 16.0956 8.2514 15.3955 7.88433 14.565C7.51726 13.7345 7.41002 12.8124 7.5767 11.9198C7.74338 11.0272 8.17619 10.206 8.81825 9.56389C9.46031 8.92183 10.2816 8.48903 11.1742 8.32234C12.0668 8.15566 12.9889 8.2629 13.8194 8.62997C14.6499 8.99704 15.3499 9.60677 15.8275 10.379C16.3051 11.1513 16.5379 12.05 16.4953 12.957C16.4416 14.0758 15.973 15.1345 15.1809 15.9266C14.3889 16.7186 13.3302 17.1872 12.2114 17.2409Z" fill="#666666"/>
</svg>
