<svg width="24" height="24" viewBox="0 0 24 24" fill="none" xmlns="http://www.w3.org/2000/svg">
<path d="M16.4316 6.96681L15.1838 4.99525C14.9209 4.68869 14.5604 4.49744 14.1563 4.49744H9.84383C9.43976 4.49744 9.0793 4.68869 8.81633 4.99525L7.56851 6.96681C7.30555 7.27384 6.96664 7.49744 6.56258 7.49744H3.75008C3.35225 7.49744 2.97072 7.65547 2.68942 7.93678C2.40811 8.21808 2.25008 8.59961 2.25008 8.99744V17.9974C2.25008 18.3953 2.40811 18.7768 2.68942 19.0581C2.97072 19.3394 3.35225 19.4974 3.75008 19.4974H20.2501C20.6479 19.4974 21.0294 19.3394 21.3107 19.0581C21.592 18.7768 21.7501 18.3953 21.7501 17.9974V8.99744C21.7501 8.59961 21.592 8.21808 21.3107 7.93678C21.0294 7.65547 20.6479 7.49744 20.2501 7.49744H17.4845C17.079 7.49744 16.6946 7.27384 16.4316 6.96681Z" stroke="#666666" stroke-width="1.5" stroke-linecap="round" stroke-linejoin="round"/>
<path d="M12 16.5001C14.0711 16.5001 15.75 14.8212 15.75 12.7501C15.75 10.6791 14.0711 9.00012 12 9.00012C9.92896 9.00012 8.25002 10.6791 8.25002 12.7501C8.25002 14.8212 9.92896 16.5001 12 16.5001Z" stroke="#666666" stroke-width="1.5" stroke-miterlimit="10"/>
<path d="M5.8125 7.40369V6.37244H4.6875V7.40369" stroke="#666666" stroke-width="1.5" stroke-linecap="round" stroke-linejoin="round"/>
</svg>
