<svg width="24" height="24" viewBox="0 0 24 24" fill="none" xmlns="http://www.w3.org/2000/svg">
<path d="M20.25 6.74561H17.4844C17.3438 6.74561 17.1694 6.65467 17.0335 6.51123L15.8175 4.59217C15.7983 4.56171 15.7768 4.53273 15.7533 4.50545C15.3333 4.01561 14.7657 3.74561 14.1563 3.74561H9.84379C9.23441 3.74561 8.66676 4.01561 8.24676 4.50545C8.22323 4.53273 8.20177 4.56171 8.18254 4.59217L6.9666 6.51404C6.86254 6.62748 6.71629 6.74842 6.56254 6.74842V6.37342C6.56254 6.17451 6.48352 5.98374 6.34287 5.84309C6.20222 5.70244 6.01145 5.62342 5.81254 5.62342H4.68754C4.48863 5.62342 4.29786 5.70244 4.15721 5.84309C4.01656 5.98374 3.93754 6.17451 3.93754 6.37342V6.74842H3.75004C3.15349 6.74904 2.58156 6.98629 2.15973 7.40811C1.73791 7.82994 1.50066 8.40187 1.50004 8.99842V17.9956C1.50066 18.5922 1.73791 19.1641 2.15973 19.5859C2.58156 20.0077 3.15349 20.245 3.75004 20.2456H20.25C20.8466 20.245 21.4185 20.0077 21.8403 19.5859C22.2622 19.1641 22.4994 18.5922 22.5 17.9956V8.99561C22.4994 8.39906 22.2622 7.82712 21.8403 7.4053C21.4185 6.98348 20.8466 6.74623 20.25 6.74561ZM14.8519 16.2284C14.2391 16.7295 13.505 17.0602 12.7237 17.1872C11.9423 17.3141 11.1413 17.2328 10.4014 16.9515C9.66146 16.6702 9.00877 16.1988 8.50911 15.5848C8.00945 14.9709 7.68047 14.236 7.55535 13.4544C7.39522 13.5087 7.22143 13.5073 7.06217 13.4505C6.90292 13.3936 6.76756 13.2846 6.67805 13.1411C6.58854 12.9977 6.55014 12.8282 6.56908 12.6601C6.58802 12.4921 6.66318 12.3354 6.78238 12.2155L7.71988 11.278C7.86052 11.1374 8.05121 11.0585 8.25004 11.0585C8.44887 11.0585 8.63956 11.1374 8.78019 11.278L9.7177 12.2155C9.82251 12.3203 9.89389 12.4539 9.9228 12.5994C9.95171 12.7448 9.93686 12.8956 9.88012 13.0326C9.82338 13.1696 9.72731 13.2867 9.60403 13.3691C9.48076 13.4515 9.33582 13.4955 9.18754 13.4956C9.15619 13.4952 9.12489 13.493 9.09379 13.489C9.21928 13.9778 9.46592 14.4272 9.81094 14.7955C10.1559 15.1637 10.5882 15.4392 11.0678 15.5963C11.5474 15.7534 12.0588 15.7871 12.5549 15.6943C13.0509 15.6015 13.5156 15.3853 13.906 15.0655C13.9823 15.0027 14.0702 14.9557 14.1647 14.9271C14.2593 14.8984 14.3585 14.8887 14.4568 14.8986C14.5551 14.9084 14.6505 14.9375 14.7374 14.9843C14.8244 15.0311 14.9013 15.0946 14.9637 15.1712C15.0261 15.2478 15.0727 15.3359 15.1009 15.4305C15.1292 15.5252 15.1384 15.6245 15.1282 15.7227C15.1179 15.821 15.0883 15.9162 15.0412 16.003C14.994 16.0898 14.9302 16.1664 14.8533 16.2284H14.8519ZM17.2177 13.2753L16.2802 14.2128C16.1396 14.3533 15.9489 14.4323 15.75 14.4323C15.5512 14.4323 15.3605 14.3533 15.2199 14.2128L14.2824 13.2753C14.1727 13.1653 14.0999 13.024 14.074 12.8709C14.0481 12.7178 14.0703 12.5604 14.1377 12.4205C14.205 12.2806 14.3141 12.165 14.45 12.0897C14.5858 12.0145 14.7416 11.9832 14.896 12.0003C14.7707 11.5106 14.5237 11.0606 14.1779 10.6919C13.8322 10.3232 13.3989 10.0479 12.9183 9.89142C12.4377 9.73496 11.9254 9.70246 11.4288 9.79694C10.9323 9.89142 10.4677 10.1098 10.0782 10.4319C10.0028 10.4985 9.91488 10.5493 9.81951 10.5813C9.72415 10.6132 9.62333 10.6257 9.52305 10.6179C9.42278 10.6101 9.3251 10.5822 9.23582 10.5359C9.14654 10.4896 9.06748 10.4258 9.00336 10.3483C8.93924 10.2708 8.89136 10.1812 8.86257 10.0849C8.83377 9.98849 8.82466 9.88732 8.83576 9.78736C8.84687 9.68739 8.87796 9.59068 8.9272 9.50298C8.97644 9.41528 9.04282 9.33838 9.12238 9.27686C9.73426 8.7709 10.4691 8.43583 11.2523 8.30568C12.0356 8.17552 12.8393 8.2549 13.5819 8.53577C14.3245 8.81664 14.9796 9.28898 15.4807 9.90487C15.9818 10.5208 16.311 11.2582 16.4349 12.0425C16.5951 11.9854 16.7699 11.9844 16.9308 12.0398C17.0916 12.0952 17.2288 12.2035 17.3199 12.3471C17.411 12.4907 17.4507 12.661 17.4323 12.8301C17.4138 12.9992 17.3385 13.157 17.2186 13.2776L17.2177 13.2753Z" fill="#666666"/>
</svg>
