<svg width="24" height="24" viewBox="0 0 24 24" fill="none" xmlns="http://www.w3.org/2000/svg">
<path d="M16.4315 6.96315L15.1837 4.99159C14.9207 4.68502 14.5603 4.49377 14.1562 4.49377H9.8437C9.43963 4.49377 9.07917 4.68502 8.8162 4.99159L7.56838 6.96315C7.30542 7.27018 6.96651 7.49378 6.56245 7.49378H3.74995C3.35212 7.49378 2.97059 7.65181 2.68929 7.93312C2.40798 8.21442 2.24995 8.59595 2.24995 8.99378V17.9938C2.24995 18.3916 2.40798 18.7731 2.68929 19.0544C2.97059 19.3357 3.35212 19.4938 3.74995 19.4938H20.2499C20.6478 19.4938 21.0293 19.3357 21.3106 19.0544C21.5919 18.7731 21.7499 18.3916 21.7499 17.9938V8.99378C21.7499 8.59595 21.5919 8.21442 21.3106 7.93312C21.0293 7.65181 20.6478 7.49378 20.2499 7.49378H17.4843C17.0789 7.49378 16.6945 7.27018 16.4315 6.96315Z" stroke="#666666" stroke-width="1.5" stroke-linecap="round" stroke-linejoin="round"/>
<path d="M8.25 12.1286V12.7525C8.25052 13.4625 8.45259 14.1578 8.83272 14.7575C9.21286 15.3572 9.75542 15.8366 10.3973 16.14C11.0392 16.4435 11.7541 16.5585 12.4588 16.4716C13.1634 16.3847 13.829 16.0996 14.378 15.6494M5.8125 7.40454V6.37329H4.6875V7.40454H5.8125ZM15.7388 13.368V12.7441C15.7384 12.0326 15.5357 11.3359 15.1543 10.7353C14.7728 10.1347 14.2284 9.65498 13.5845 9.35222C12.9406 9.04946 12.2239 8.93611 11.5181 9.02542C10.8122 9.11472 10.1463 9.403 9.59813 9.85657L15.7388 13.368Z" stroke="#666666" stroke-width="1.5" stroke-linecap="round" stroke-linejoin="round"/>
<path d="M16.6875 12.7465L15.75 13.684L14.8125 12.7465M9.18753 12.7465L8.25003 11.809L7.31253 12.7465H9.18753Z" stroke="#666666" stroke-width="1.5" stroke-linecap="round" stroke-linejoin="round"/>
</svg>
