<svg width="24" height="24" viewBox="0 0 24 24" fill="none" xmlns="http://www.w3.org/2000/svg">
<path d="M20.9851 10.3428C20.9743 10.293 20.9586 10.2443 20.9382 10.1975L18.6882 4.94752C18.6304 4.81296 18.5344 4.69828 18.4121 4.61764C18.2898 4.53701 18.1466 4.49395 18.0001 4.49377H6.0001C5.85327 4.49375 5.70967 4.53682 5.5871 4.61765C5.46453 4.69848 5.36838 4.8135 5.31056 4.94846L3.06056 10.1985C3.04017 10.2452 3.02447 10.2939 3.01369 10.3438C3.00418 10.3932 2.99963 10.4434 3.0001 10.4938V19.1188C3.0001 19.2182 3.0396 19.3136 3.10993 19.3839C3.18026 19.4543 3.27564 19.4938 3.3751 19.4938H4.8751C4.97455 19.4938 5.06993 19.4543 5.14026 19.3839C5.21059 19.3136 5.2501 19.2182 5.2501 19.1188V17.9938H18.7501V19.1188C18.7501 19.2182 18.7896 19.3136 18.8599 19.3839C18.9303 19.4543 19.0256 19.4938 19.1251 19.4938H20.6251C20.7246 19.4938 20.8199 19.4543 20.8903 19.3839C20.9606 19.3136 21.0001 19.2182 21.0001 19.1188V10.4938C21.0002 10.4431 20.9951 10.3925 20.9851 10.3428ZM6.7501 14.9938C6.45342 14.9938 6.16341 14.9058 5.91674 14.741C5.67007 14.5762 5.47781 14.3419 5.36428 14.0678C5.25075 13.7937 5.22104 13.4921 5.27892 13.2011C5.3368 12.9102 5.47966 12.6429 5.68944 12.4331C5.89921 12.2233 6.16649 12.0805 6.45746 12.0226C6.74843 11.9647 7.05003 11.9944 7.32412 12.108C7.59821 12.2215 7.83248 12.4137 7.9973 12.6604C8.16212 12.9071 8.2501 13.1971 8.2501 13.4938C8.2501 13.8916 8.09206 14.2731 7.81076 14.5544C7.52945 14.8357 7.14792 14.9938 6.7501 14.9938ZM17.2501 14.9938C16.9534 14.9938 16.6634 14.9058 16.4167 14.741C16.1701 14.5762 15.9778 14.3419 15.8643 14.0678C15.7507 13.7937 15.721 13.4921 15.7789 13.2011C15.8368 12.9102 15.9797 12.6429 16.1894 12.4331C16.3992 12.2233 16.6665 12.0805 16.9575 12.0226C17.2484 11.9647 17.55 11.9944 17.8241 12.108C18.0982 12.2215 18.3325 12.4137 18.4973 12.6604C18.6621 12.9071 18.7501 13.1971 18.7501 13.4938C18.7501 13.8916 18.5921 14.2731 18.3108 14.5544C18.0295 14.8357 17.6479 14.9938 17.2501 14.9938ZM4.88728 9.74378L6.49463 5.99377H17.5056L19.1129 9.74378H4.88728Z" fill="#666666"/>
</svg>
