<svg width="24" height="24" viewBox="0 0 24 24" fill="none" xmlns="http://www.w3.org/2000/svg">
<path d="M20.2499 17.251V18.751H18.7499V17.251M3.74989 10.501L5.52083 6.36895C5.80911 5.69629 6.54364 5.25098 7.36442 5.25098H16.6354C17.4561 5.25098 18.1907 5.69629 18.479 6.36895L20.2499 10.501H3.74989ZM3.74989 10.501H20.2499V17.251H3.74989V10.501ZM5.24989 17.251V18.751H3.74989V17.251H5.24989Z" stroke="#666666" stroke-width="1.5" stroke-linecap="round" stroke-linejoin="round"/>
<path d="M6.74997 14.251C7.16419 14.251 7.49997 13.9152 7.49997 13.501C7.49997 13.0868 7.16419 12.751 6.74997 12.751C6.33576 12.751 5.99997 13.0868 5.99997 13.501C5.99997 13.9152 6.33576 14.251 6.74997 14.251Z" stroke="#666666" stroke-width="1.5" stroke-linecap="round" stroke-linejoin="round"/>
<path d="M17.2499 14.251C17.6642 14.251 17.9999 13.9152 17.9999 13.501C17.9999 13.0868 17.6642 12.751 17.2499 12.751C16.8357 12.751 16.4999 13.0868 16.4999 13.501C16.4999 13.9152 16.8357 14.251 17.2499 14.251Z" stroke="#666666" stroke-width="1.5" stroke-linecap="round" stroke-linejoin="round"/>
</svg>
