<svg width="24" height="24" viewBox="0 0 24 24" fill="none" xmlns="http://www.w3.org/2000/svg">
<path d="M22.0176 10.9979C21.674 10.5418 20.3976 10.2277 19.8576 9.40691C19.3176 8.58613 18.8756 6.80863 17.5012 6.12566C16.1268 5.4427 13.5 5.25098 12 5.25098C10.5 5.25098 7.87495 5.43848 6.4987 6.12426C5.12245 6.81004 4.6823 8.58613 4.1423 9.40551C3.6023 10.2249 2.32589 10.5418 1.9823 10.9979C1.6387 11.4539 1.39683 14.3372 1.54401 15.751C1.6912 17.1647 1.96589 18.001 1.96589 18.001H5.99714C6.65714 18.001 6.87183 17.753 8.22183 17.626C9.70308 17.4854 11.1562 17.4385 12 17.4385C12.8437 17.4385 14.3437 17.4854 15.824 17.626C17.174 17.7539 17.3957 18.001 18.0487 18.001H22.0331C22.0331 18.001 22.3078 17.1647 22.455 15.751C22.6021 14.3372 22.3593 11.4539 22.0176 10.9979ZM18.75 18.001H21.375V18.751H18.75V18.001ZM2.62495 18.001H5.24995V18.751H2.62495V18.001Z" stroke="#666666" stroke-width="1.5" stroke-linecap="round" stroke-linejoin="round"/>
<path d="M17.0845 14.4894C16.8075 14.1692 15.9047 13.9021 14.7094 13.723C13.5141 13.5439 13.0781 13.4975 12.0094 13.4975C10.9406 13.4975 10.4545 13.5744 9.3089 13.723C8.16327 13.8716 7.30312 14.136 6.93421 14.4894C6.38061 15.0257 7.19155 15.6275 7.82812 15.7007C8.44499 15.771 9.67827 15.7452 12.0145 15.7452C14.3508 15.7452 15.5841 15.771 16.2009 15.7007C16.8366 15.6233 17.5894 15.0632 17.0845 14.4894ZM20.2298 11.3905C20.2272 11.3533 20.2109 11.3183 20.1841 11.2924C20.1573 11.2664 20.1218 11.2513 20.0845 11.2499C19.5309 11.2302 18.9689 11.2696 17.9719 11.5635C17.4632 11.712 16.9855 11.9511 16.5619 12.2694C16.455 12.3528 16.493 12.5783 16.627 12.6022C17.4488 12.6986 18.2755 12.7471 19.103 12.7475C19.5994 12.7475 20.1117 12.6069 20.2069 12.1644C20.2554 11.9093 20.2631 11.6481 20.2298 11.3905ZM3.77015 11.3905C3.77278 11.3533 3.78907 11.3183 3.81588 11.2924C3.8427 11.2664 3.87816 11.2513 3.91546 11.2499C4.46905 11.2302 5.03108 11.2696 6.02812 11.5635C6.53679 11.712 7.01445 11.9511 7.43812 12.2694C7.54499 12.3528 7.50702 12.5783 7.37296 12.6022C6.55116 12.6986 5.72445 12.7471 4.89702 12.7475C4.40062 12.7475 3.88827 12.6069 3.79312 12.1644C3.7446 11.9093 3.73685 11.6481 3.77015 11.3905Z" fill="#666666"/>
<path d="M3.65623 9.8916C3.65623 9.8916 5.82889 9.3291 12 9.3291C18.1711 9.3291 20.3437 9.8916 20.3437 9.8916M20.25 9.00098H21H20.25ZM2.99998 9.00098H3.74998H2.99998Z" stroke="#666666" stroke-width="1.5" stroke-linecap="round" stroke-linejoin="round"/>
</svg>
