<svg width="24" height="24" viewBox="0 0 24 24" fill="none" xmlns="http://www.w3.org/2000/svg">
<g clip-path="url(#clip0_32_826)">
<path d="M22.875 10.4938C22.7343 10.2594 21.3464 9.65987 21.3464 9.65987C21.5878 9.53518 21.7528 9.5094 21.7528 8.99378C21.7528 8.43128 21.75 8.24378 21.375 8.24378H20.1028C20.0976 8.23253 20.092 8.22081 20.0868 8.20909C19.2656 6.41565 19.1554 5.96237 17.9306 5.35206C16.2876 4.53502 13.2075 4.49377 12 4.49377C10.7925 4.49377 7.71231 4.53502 6.07074 5.35206C4.84449 5.96143 4.87496 6.27502 3.91449 8.20909C3.91449 8.21424 3.90465 8.22784 3.89574 8.24378H2.62215C2.24996 8.24378 2.24715 8.43128 2.24715 8.99378C2.24715 9.5094 2.41215 9.53518 2.65356 9.65987C2.65356 9.65987 1.31246 10.3063 1.12496 10.4938C0.937462 10.6813 0.749962 11.9938 0.749962 14.2438C0.749962 16.4938 0.937462 18.7438 0.937462 18.7438H1.49715C1.49715 19.4 1.59371 19.4938 1.87496 19.4938H5.62496C5.90621 19.4938 5.99996 19.4 5.99996 18.7438H18C18 19.4 18.0937 19.4938 18.375 19.4938H22.2187C22.4062 19.4938 22.5 19.3532 22.5 18.7438H23.0625C23.0625 18.7438 23.25 16.4469 23.25 14.2438C23.25 12.0407 23.0156 10.7282 22.875 10.4938ZM5.87153 12.6003C5.0178 12.6937 4.15971 12.7416 3.3009 12.7438C2.34371 12.7438 2.3109 12.8052 2.2434 12.2075C2.21801 11.934 2.22603 11.6584 2.26731 11.3867L2.29684 11.2438H2.43746C2.99996 11.2438 3.52824 11.2677 4.52574 11.5616C5.03308 11.7138 5.51027 11.9527 5.93621 12.2675C6.14059 12.4157 6.18746 12.5563 6.18746 12.5563L5.87153 12.6003ZM17.4572 15.9753L17.25 16.4938H6.74996C6.74996 16.4938 6.76824 16.4652 6.51559 15.9697C6.32809 15.6032 6.56246 15.3688 6.93324 15.2357C7.65137 14.9769 9.74996 14.2438 12 14.2438C14.25 14.2438 16.3903 14.8757 17.0859 15.2357C17.3437 15.3688 17.6639 15.4625 17.4572 15.9782V15.9753ZM5.41028 9.57549C5.25886 9.58423 5.10711 9.58533 4.95559 9.57878C5.07793 9.36128 5.1459 9.11893 5.26543 8.86581C5.64043 8.06893 6.06934 7.16706 6.83293 6.7869C7.93637 6.23752 10.2234 5.99002 12 5.99002C13.7765 5.99002 16.0636 6.23565 17.167 6.7869C17.9306 7.16706 18.3576 8.0694 18.7345 8.86581C18.855 9.12128 18.922 9.36549 19.0476 9.5844C18.9539 9.58956 18.8461 9.5844 18.5887 9.57549H5.41028ZM21.7097 12.2057C21.6093 12.7907 21.7031 12.7438 20.699 12.7438C19.8402 12.7416 18.9821 12.6937 18.1284 12.6003C17.9948 12.5764 17.9568 12.351 18.0637 12.2675C18.4875 11.9492 18.9653 11.71 19.4742 11.5616C20.4717 11.2677 21.0332 11.2283 21.5878 11.248C21.625 11.2494 21.6604 11.2646 21.6872 11.2905C21.7139 11.3165 21.7301 11.3514 21.7326 11.3886C21.7591 11.6615 21.7514 11.9366 21.7097 12.2075V12.2057Z" fill="#666666"/>
</g>
<defs>
<clipPath id="clip0_32_826">
<rect width="24" height="24" fill="white" transform="translate(0.00012207 -0.00390625)"/>
</clipPath>
</defs>
</svg>
