<svg width="24" height="24" viewBox="0 0 24 24" fill="none" xmlns="http://www.w3.org/2000/svg">
<path d="M23.1685 12.9416C22.9997 11.0474 22.7218 10.6785 22.6168 10.5397C22.3754 10.2191 21.9891 10.0096 21.5804 9.78971C21.5573 9.77749 21.5373 9.76006 21.5221 9.73881C21.5068 9.71755 21.4968 9.69305 21.4926 9.66723C21.4885 9.64141 21.4904 9.61498 21.4982 9.59003C21.5061 9.56508 21.5196 9.5423 21.5377 9.52346C21.6134 9.4467 21.6716 9.35445 21.7082 9.25306C21.7449 9.15167 21.7592 9.04355 21.7501 8.93612C21.7324 8.74562 21.6439 8.56871 21.5019 8.44047C21.3599 8.31223 21.175 8.24202 20.9837 8.24378H20.2524C20.2211 8.24396 20.1898 8.246 20.1587 8.24987C20.1373 8.24061 20.1152 8.23324 20.0926 8.22784C19.6594 7.31237 19.0665 6.05893 17.8374 5.44721C16.0144 4.54065 12.6563 4.49377 12.0001 4.49377C11.3438 4.49377 7.98568 4.54065 6.16506 5.44581C4.936 6.05752 4.34303 7.31096 3.9099 8.22643L3.90615 8.23393C3.88455 8.23697 3.86333 8.24231 3.84287 8.24987C3.81177 8.246 3.78046 8.24396 3.74912 8.24378H3.01646C2.82516 8.24202 2.64019 8.31223 2.49823 8.44047C2.35627 8.56871 2.26769 8.74562 2.25006 8.93612C2.24173 9.0433 2.25664 9.15101 2.29378 9.25189C2.33091 9.35277 2.38939 9.44445 2.46521 9.52065C2.48335 9.53948 2.49687 9.56227 2.50469 9.58722C2.51252 9.61217 2.51444 9.6386 2.5103 9.66442C2.50617 9.69024 2.49609 9.71474 2.48086 9.736C2.46563 9.75725 2.44567 9.77468 2.42256 9.7869C2.01381 10.0082 1.62568 10.2177 1.38615 10.5369C1.28115 10.6775 1.00365 11.0446 0.834432 12.9388C0.740682 14.0047 0.726619 15.1082 0.800213 15.8188C0.954432 17.2953 1.24365 18.1878 1.25584 18.2249C1.30022 18.3596 1.38191 18.479 1.49144 18.5692C1.60096 18.6594 1.73382 18.7167 1.87459 18.7344V18.7438C1.87459 18.9427 1.95361 19.1335 2.09426 19.2741C2.23491 19.4148 2.42568 19.4938 2.62459 19.4938H5.24959C5.4485 19.4938 5.63927 19.4148 5.77992 19.2741C5.92057 19.1335 5.99959 18.9427 5.99959 18.7438C6.40318 18.7438 6.68396 18.6716 6.98162 18.5947C7.41136 18.4789 7.85062 18.4019 8.29412 18.3646C9.72428 18.2282 11.1465 18.1813 12.0001 18.1813C12.8363 18.1813 14.3213 18.2282 15.7538 18.3646C16.1991 18.402 16.6401 18.4793 17.0715 18.5957C17.3565 18.6688 17.6269 18.7363 18.0015 18.7433C18.0015 18.9422 18.0805 19.133 18.2211 19.2736C18.3618 19.4143 18.5526 19.4933 18.7515 19.4933H21.3765C21.5754 19.4933 21.7661 19.4143 21.9068 19.2736C22.0474 19.133 22.1265 18.9422 22.1265 18.7433V18.7377C22.2676 18.7203 22.4008 18.6632 22.5107 18.573C22.6206 18.4828 22.7026 18.3632 22.7471 18.2282C22.7593 18.1911 23.0485 17.2986 23.2027 15.8221C23.2763 15.111 23.2632 14.0094 23.1685 12.9416ZM5.26553 8.86768C5.64053 8.07081 6.06943 7.16893 6.83303 6.78878C7.93646 6.2394 10.2235 5.9919 12.0001 5.9919C13.7766 5.9919 16.0637 6.23753 17.1671 6.78878C17.9307 7.16893 18.3577 8.07128 18.7346 8.86768L18.7815 8.9694C18.8089 9.02731 18.821 9.09127 18.8167 9.15519C18.8123 9.21911 18.7917 9.28086 18.7567 9.33454C18.7218 9.38822 18.6736 9.43205 18.6169 9.46184C18.5602 9.49163 18.4968 9.50639 18.4327 9.50471C16.8751 9.46253 13.5938 9.32753 12.0001 9.32753C10.4063 9.32753 7.12506 9.46581 5.56506 9.50799C5.50101 9.50967 5.43761 9.49491 5.38089 9.46512C5.32416 9.43533 5.27602 9.3915 5.24105 9.33782C5.20608 9.28414 5.18544 9.2224 5.18111 9.15848C5.17678 9.09455 5.1889 9.03059 5.21631 8.97268C5.23271 8.93799 5.25006 8.90284 5.26553 8.86768ZM5.82475 12.6003C5.0184 12.6974 4.2069 12.7453 3.39474 12.7438C2.89787 12.7438 2.38553 12.6032 2.29037 12.1607C2.22521 11.863 2.23224 11.6957 2.2674 11.5274C2.29693 11.3844 2.34381 11.2803 2.57818 11.2438C3.18756 11.15 3.52834 11.2677 4.52584 11.5616C5.18724 11.7561 5.66443 12.0153 5.93631 12.2207C6.07271 12.3219 6.00006 12.5863 5.82475 12.6003ZM16.2019 16.4441C15.5851 16.5144 14.3513 16.4886 12.0141 16.4886C9.67693 16.4886 8.44365 16.5144 7.82678 16.4441C7.19021 16.3733 6.37881 15.7714 6.93287 15.2352C7.30178 14.8817 8.1624 14.6174 9.3085 14.4688C10.4546 14.3202 10.9397 14.2438 12.0094 14.2438C13.0791 14.2438 13.5151 14.2907 14.7104 14.4692C15.9057 14.6478 16.809 14.9155 17.086 15.2357C17.5913 15.8094 16.838 16.3696 16.2019 16.4469V16.4441ZM21.7097 12.1602C21.616 12.6046 21.1004 12.7433 20.6054 12.7433C19.7777 12.7435 18.9506 12.6956 18.1285 12.5999C17.9851 12.5863 17.9185 12.3346 18.0638 12.2202C18.3315 12.0097 18.8138 11.7557 19.4743 11.5611C20.4718 11.2672 21.0469 11.1496 21.541 11.2475C21.6615 11.2714 21.7252 11.4008 21.7327 11.4819C21.7658 11.7077 21.758 11.9376 21.7097 12.1607V12.1602Z" fill="#666666"/>
</svg>
