<svg width="24" height="24" viewBox="0 0 24 24" fill="none" xmlns="http://www.w3.org/2000/svg">
<path d="M20.985 10.3483C20.9743 10.2987 20.9586 10.2504 20.9381 10.204L19.1672 6.07146C18.7589 5.11661 17.7656 4.49927 16.6354 4.49927H7.36451C6.23529 4.49927 5.24107 5.11661 4.83326 6.07146L3.06044 10.204C3.02015 10.2972 2.99957 10.3977 2.99998 10.4993V18.7493C2.99998 18.9482 3.07899 19.1389 3.21965 19.2796C3.3603 19.4203 3.55106 19.4993 3.74998 19.4993H5.24998C5.44889 19.4993 5.63965 19.4203 5.78031 19.2796C5.92096 19.1389 5.99998 18.9482 5.99998 18.7493V17.9993H18V18.7493C18 18.9482 18.079 19.1389 18.2196 19.2796C18.3603 19.4203 18.5511 19.4993 18.75 19.4993H20.25C20.4489 19.4993 20.6397 19.4203 20.7803 19.2796C20.921 19.1389 21 18.9482 21 18.7493V10.4993C21 10.4486 20.995 10.398 20.985 10.3483ZM6.74998 14.9993C6.4533 14.9993 6.16329 14.9113 5.91662 14.7465C5.66995 14.5817 5.47769 14.3474 5.36416 14.0733C5.25062 13.7992 5.22092 13.4976 5.2788 13.2066C5.33668 12.9157 5.47954 12.6484 5.68932 12.4386C5.89909 12.2288 6.16637 12.086 6.45734 12.0281C6.74831 11.9702 7.04991 11.9999 7.324 12.1135C7.59809 12.227 7.83236 12.4192 7.99718 12.6659C8.162 12.9126 8.24998 13.2026 8.24998 13.4993C8.24998 13.8971 8.09194 14.2786 7.81064 14.5599C7.52933 14.8412 7.1478 14.9993 6.74998 14.9993ZM17.25 14.9993C16.9533 14.9993 16.6633 14.9113 16.4166 14.7465C16.1699 14.5817 15.9777 14.3474 15.8642 14.0733C15.7506 13.7992 15.7209 13.4976 15.7788 13.2066C15.8367 12.9157 15.9795 12.6484 16.1893 12.4386C16.3991 12.2288 16.6664 12.086 16.9573 12.0281C17.2483 11.9702 17.5499 11.9999 17.824 12.1135C18.0981 12.227 18.3324 12.4192 18.4972 12.6659C18.662 12.9126 18.75 13.2026 18.75 13.4993C18.75 13.8971 18.5919 14.2786 18.3106 14.5599C18.0293 14.8412 17.6478 14.9993 17.25 14.9993ZM4.88716 9.74927L6.21045 6.66255C6.38013 6.26599 6.84373 5.99927 7.36451 5.99927H16.6354C17.1558 5.99927 17.6198 6.26599 17.7895 6.66255L19.1128 9.74927H4.88716Z" fill="#666666"/>
</svg>
