<svg width="24" height="24" viewBox="0 0 24 24" fill="none" xmlns="http://www.w3.org/2000/svg">
<path d="M1.50004 19.4965C1.50004 19.6954 1.57906 19.8861 1.71971 20.0268C1.86036 20.1674 2.05113 20.2465 2.25004 20.2465H21.75C21.949 20.2465 22.1397 20.1674 22.2804 20.0268C22.421 19.8861 22.5 19.6954 22.5 19.4965V10.4027H1.50004V19.4965ZM4.59379 13.0277C4.59379 12.9283 4.6333 12.8329 4.70362 12.7625C4.77395 12.6922 4.86933 12.6527 4.96879 12.6527H9.28129C9.38074 12.6527 9.47613 12.6922 9.54645 12.7625C9.61678 12.8329 9.65629 12.9283 9.65629 13.0277V16.0277C9.65629 16.1272 9.61678 16.2226 9.54645 16.2929C9.47613 16.3632 9.38074 16.4027 9.28129 16.4027H4.96879C4.86933 16.4027 4.77395 16.3632 4.70362 16.2929C4.6333 16.2226 4.59379 16.1272 4.59379 16.0277V13.0277ZM21.75 3.74646H2.25004C2.05113 3.74646 1.86036 3.82548 1.71971 3.96613C1.57906 4.10678 1.50004 4.29755 1.50004 4.49646V7.59021H22.5V4.49646C22.5 4.29755 22.421 4.10678 22.2804 3.96613C22.1397 3.82548 21.949 3.74646 21.75 3.74646Z" fill="#666666"/>
</svg>
