<svg width="24" height="24" viewBox="0 0 24 24" fill="none" xmlns="http://www.w3.org/2000/svg">
<path d="M1.49996 17.6215C1.49996 18.3177 1.77652 18.9853 2.26881 19.4776C2.76109 19.9699 3.42877 20.2465 4.12496 20.2465H19.875C20.5712 20.2465 21.2388 19.9699 21.7311 19.4776C22.2234 18.9853 22.5 18.3177 22.5 17.6215V10.4027H1.49996V17.6215ZM4.59371 14.059C4.59371 13.686 4.74187 13.3283 5.00559 13.0646C5.26932 12.8009 5.627 12.6527 5.99996 12.6527H8.24996C8.62292 12.6527 8.98061 12.8009 9.24433 13.0646C9.50805 13.3283 9.65621 13.686 9.65621 14.059V14.9965C9.65621 15.3694 9.50805 15.7271 9.24433 15.9908C8.98061 16.2546 8.62292 16.4027 8.24996 16.4027H5.99996C5.627 16.4027 5.26932 16.2546 5.00559 15.9908C4.74187 15.7271 4.59371 15.3694 4.59371 14.9965V14.059ZM19.875 3.74646H4.12496C3.42877 3.74646 2.76109 4.02302 2.26881 4.5153C1.77652 5.00759 1.49996 5.67527 1.49996 6.37146V7.59021H22.5V6.37146C22.5 5.67527 22.2234 5.00759 21.7311 4.5153C21.2388 4.02302 20.5712 3.74646 19.875 3.74646Z" fill="#666666"/>
</svg>
