<svg width="24" height="24" viewBox="0 0 24 24" fill="none" xmlns="http://www.w3.org/2000/svg">
<path d="M16.0514 11.1653L12.5765 15.3414C12.5061 15.426 12.418 15.4941 12.3184 15.5408C12.2187 15.5875 12.11 15.6118 12 15.6118C11.8899 15.6118 11.7812 15.5875 11.6816 15.5408C11.5819 15.4941 11.4938 15.426 11.4234 15.3414L7.94855 11.1653C7.85748 11.0558 7.79948 10.9226 7.78134 10.7813C7.76319 10.6401 7.78564 10.4966 7.84608 10.3676C7.90651 10.2386 8.00242 10.1295 8.12259 10.053C8.24275 9.97657 8.38221 9.9359 8.52465 9.93579H15.4753C15.6177 9.9359 15.7572 9.97657 15.8773 10.053C15.9975 10.1295 16.0934 10.2386 16.1538 10.3676C16.2143 10.4966 16.2367 10.6401 16.2186 10.7813C16.2004 10.9226 16.1424 11.0558 16.0514 11.1653Z" fill="#666666"/>
<path d="M21 11.9993C21 7.03052 16.9687 2.99927 12 2.99927C7.03122 2.99927 2.99997 7.03052 2.99997 11.9993C2.99997 16.968 7.03122 20.9993 12 20.9993C16.9687 20.9993 21 16.968 21 11.9993Z" stroke="#666666" stroke-width="1.5" stroke-miterlimit="10"/>
</svg>
