<svg width="24" height="24" viewBox="0 0 24 24" fill="none" xmlns="http://www.w3.org/2000/svg">
<path d="M2.25003 11.9956C2.25003 17.3801 6.6155 21.7456 12 21.7456C17.3846 21.7456 21.75 17.3801 21.75 11.9956C21.75 6.61107 17.3846 2.24561 12 2.24561C6.6155 2.24561 2.25003 6.61107 2.25003 11.9956ZM14.0625 8.52029V15.4709C14.0624 15.6134 14.0218 15.7528 13.9453 15.873C13.8688 15.9931 13.7597 16.0891 13.6307 16.1495C13.5018 16.2099 13.3582 16.2324 13.217 16.2142C13.0757 16.1961 12.9425 16.1381 12.833 16.047L8.65691 12.5722C8.57231 12.5018 8.50423 12.4136 8.45751 12.314C8.41079 12.2144 8.38657 12.1057 8.38657 11.9956C8.38657 11.8856 8.41079 11.7769 8.45751 11.6772C8.50423 11.5776 8.57231 11.4894 8.65691 11.419L12.833 7.9442C12.9425 7.85313 13.0757 7.79513 13.217 7.77698C13.3582 7.75884 13.5018 7.78129 13.6307 7.84172C13.7597 7.90216 13.8688 7.99807 13.9453 8.11823C14.0218 8.2384 14.0624 8.37786 14.0625 8.52029Z" fill="#666666"/>
</svg>
