<svg width="24" height="24" viewBox="0 0 24 24" fill="none" xmlns="http://www.w3.org/2000/svg">
<path d="M12.8329 7.94481L8.65682 11.4197C8.57222 11.49 8.50414 11.5782 8.45742 11.6778C8.4107 11.7775 8.38648 11.8862 8.38648 11.9962C8.38648 12.1063 8.4107 12.215 8.45742 12.3146C8.50414 12.4143 8.57222 12.5024 8.65682 12.5728L12.8329 16.0476C12.9424 16.1387 13.0756 16.1967 13.2169 16.2148C13.3582 16.233 13.5017 16.2105 13.6307 16.1501C13.7596 16.0897 13.8687 15.9938 13.9452 15.8736C14.0217 15.7534 14.0623 15.614 14.0624 15.4715V8.52091C14.0623 8.37847 14.0217 8.23902 13.9452 8.11885C13.8687 7.99868 13.7596 7.90277 13.6307 7.84234C13.5017 7.78191 13.3582 7.75945 13.2169 7.7776C13.0756 7.79574 12.9424 7.85375 12.8329 7.94481Z" fill="#666666"/>
<path d="M21.0001 11.9983C21.0001 7.02954 16.9688 2.99829 12.0001 2.99829C7.03133 2.99829 3.00008 7.02954 3.00008 11.9983C3.00008 16.967 7.03133 20.9983 12.0001 20.9983C16.9688 20.9983 21.0001 16.967 21.0001 11.9983Z" stroke="#666666" stroke-width="1.5" stroke-miterlimit="10"/>
</svg>
