<svg width="24" height="24" viewBox="0 0 24 24" fill="none" xmlns="http://www.w3.org/2000/svg">
<path d="M21.75 11.9965C21.75 6.61193 17.3845 2.24646 12 2.24646C6.61548 2.24646 2.25002 6.61193 2.25002 11.9965C2.25002 17.381 6.61548 21.7465 12 21.7465C17.3845 21.7465 21.75 17.381 21.75 11.9965ZM9.93752 15.4718V8.52115C9.93763 8.37871 9.97829 8.23926 10.0548 8.11909C10.1312 7.99892 10.2403 7.90301 10.3693 7.84258C10.4983 7.78215 10.6418 7.75969 10.7831 7.77784C10.9243 7.79599 11.0575 7.85399 11.167 7.94505L15.3431 11.4199C15.4277 11.4903 15.4958 11.5784 15.5425 11.6781C15.5893 11.7777 15.6135 11.8864 15.6135 11.9965C15.6135 12.1065 15.5893 12.2152 15.5425 12.3149C15.4958 12.4145 15.4277 12.5026 15.3431 12.573L11.167 16.0479C11.0575 16.1389 10.9243 16.1969 10.7831 16.2151C10.6418 16.2332 10.4983 16.2108 10.3693 16.1503C10.2403 16.0899 10.1312 15.994 10.0548 15.8738C9.97829 15.7537 9.93763 15.6142 9.93752 15.4718Z" fill="#666666"/>
</svg>
