<svg width="24" height="24" viewBox="0 0 24 24" fill="none" xmlns="http://www.w3.org/2000/svg">
<path d="M21.7501 11.9965C21.7501 6.61193 17.3846 2.24646 12.0001 2.24646C6.61554 2.24646 2.25007 6.61193 2.25007 11.9965C2.25007 17.381 6.61554 21.7465 12.0001 21.7465C17.3846 21.7465 21.7501 17.381 21.7501 11.9965ZM16.0515 11.1635L12.5766 15.3396C12.5062 15.4242 12.4181 15.4923 12.3185 15.539C12.2188 15.5857 12.1101 15.6099 12.0001 15.6099C11.89 15.6099 11.7813 15.5857 11.6817 15.539C11.582 15.4923 11.4939 15.4242 11.4235 15.3396L7.94866 11.1635C7.85759 11.054 7.79959 10.9208 7.78145 10.7795C7.7633 10.6382 7.78575 10.4947 7.84619 10.3657C7.90662 10.2368 8.00253 10.1277 8.1227 10.0512C8.24287 9.97474 8.38232 9.93407 8.52476 9.93396H15.4754C15.6178 9.93407 15.7573 9.97474 15.8774 10.0512C15.9976 10.1277 16.0935 10.2368 16.154 10.3657C16.2144 10.4947 16.2368 10.6382 16.2187 10.7795C16.2005 10.9208 16.1425 11.054 16.0515 11.1635Z" fill="#666666"/>
</svg>
