<svg width="24" height="24" viewBox="0 0 24 24" fill="none" xmlns="http://www.w3.org/2000/svg">
<path d="M12.0001 2.24744C6.61552 2.24744 2.25005 6.61291 2.25005 11.9974C2.25005 17.382 6.61552 21.7474 12.0001 21.7474C17.3846 21.7474 21.7501 17.382 21.7501 11.9974C21.7501 6.61291 17.3846 2.24744 12.0001 2.24744ZM15.4754 14.0599H8.52474C8.38231 14.0598 8.24285 14.0192 8.12268 13.9427C8.00251 13.8662 7.9066 13.7571 7.84617 13.6281C7.78574 13.4992 7.76328 13.3557 7.78143 13.2144C7.79958 13.0731 7.85758 12.9399 7.94865 12.8304L11.4235 8.65431C11.4939 8.56971 11.582 8.50163 11.6817 8.45491C11.7813 8.40819 11.89 8.38397 12.0001 8.38397C12.1101 8.38397 12.2188 8.40819 12.3184 8.45491C12.4181 8.50163 12.5062 8.56971 12.5766 8.65431L16.0515 12.8304C16.1425 12.9399 16.2005 13.0731 16.2187 13.2144C16.2368 13.3557 16.2144 13.4992 16.1539 13.6281C16.0935 13.7571 15.9976 13.8662 15.8774 13.9427C15.7573 14.0192 15.6178 14.0598 15.4754 14.0599Z" fill="#666666"/>
</svg>
