<svg width="24" height="24" viewBox="0 0 24 24" fill="none" xmlns="http://www.w3.org/2000/svg">
<path d="M11.167 16.0485L15.3431 12.5736C15.4277 12.5033 15.4958 12.4151 15.5425 12.3155C15.5893 12.2158 15.6135 12.1071 15.6135 11.9971C15.6135 11.887 15.5893 11.7783 15.5425 11.6787C15.4958 11.579 15.4277 11.4909 15.3431 11.4205L11.167 7.94567C11.0575 7.8546 10.9243 7.7966 10.7831 7.77845C10.6418 7.7603 10.4983 7.78276 10.3693 7.84319C10.2403 7.90362 10.1312 7.99953 10.0547 8.1197C9.97828 8.23987 9.93762 8.37933 9.93751 8.52176V15.4724C9.93762 15.6148 9.97828 15.7543 10.0547 15.8744C10.1312 15.9946 10.2403 16.0905 10.3693 16.151C10.4983 16.2114 10.6418 16.2338 10.7831 16.2157C10.9243 16.1976 11.0575 16.1396 11.167 16.0485Z" fill="#666666"/>
<path d="M21.0001 11.9993C21.0001 7.03052 16.9688 2.99927 12.0001 2.99927C7.03131 2.99927 3.00006 7.03052 3.00006 11.9993C3.00006 16.968 7.03131 20.9993 12.0001 20.9993C16.9688 20.9993 21.0001 16.968 21.0001 11.9993Z" stroke="#666666" stroke-width="1.5" stroke-miterlimit="10"/>
</svg>
