<svg width="24" height="24" viewBox="0 0 24 24" fill="none" xmlns="http://www.w3.org/2000/svg">
<path d="M16.0514 12.8327L12.5765 8.65657C12.5061 8.57197 12.418 8.50389 12.3183 8.45717C12.2187 8.41045 12.11 8.38623 11.9999 8.38623C11.8899 8.38623 11.7812 8.41045 11.6815 8.45717C11.5819 8.50389 11.4938 8.57197 11.4234 8.65657L7.94854 12.8327C7.85747 12.9422 7.79947 13.0754 7.78132 13.2166C7.76317 13.3579 7.78563 13.5014 7.84606 13.6304C7.90649 13.7594 8.0024 13.8685 8.12257 13.945C8.24274 14.0214 8.3822 14.0621 8.52463 14.0622H15.4753C15.6177 14.0621 15.7571 14.0214 15.8773 13.945C15.9975 13.8685 16.0934 13.7594 16.1538 13.6304C16.2143 13.5014 16.2367 13.3579 16.2186 13.2166C16.2004 13.0754 16.1424 12.9422 16.0514 12.8327Z" fill="#666666"/>
<path d="M21 11.9956C21 7.02686 16.9687 2.99561 12 2.99561C7.0312 2.99561 2.99995 7.02686 2.99995 11.9956C2.99995 16.9644 7.0312 20.9956 12 20.9956C16.9687 20.9956 21 16.9644 21 11.9956Z" stroke="#666666" stroke-width="1.5" stroke-miterlimit="10"/>
</svg>
