<svg width="24" height="24" viewBox="0 0 24 24" fill="none" xmlns="http://www.w3.org/2000/svg">
<path d="M8.25008 20.2483C8.66429 20.2483 9.00008 19.9125 9.00008 19.4983C9.00008 19.0841 8.66429 18.7483 8.25008 18.7483C7.83586 18.7483 7.50008 19.0841 7.50008 19.4983C7.50008 19.9125 7.83586 20.2483 8.25008 20.2483Z" stroke="#666666" stroke-width="1.5" stroke-linecap="round" stroke-linejoin="round"/>
<path d="M18.75 20.2483C19.1643 20.2483 19.5 19.9125 19.5 19.4983C19.5 19.0841 19.1643 18.7483 18.75 18.7483C18.3358 18.7483 18 19.0841 18 19.4983C18 19.9125 18.3358 20.2483 18.75 20.2483Z" stroke="#666666" stroke-width="1.5" stroke-linecap="round" stroke-linejoin="round"/>
<path d="M2.25002 3.74829H5.25002L7.50002 16.4983H19.5" stroke="#666666" stroke-width="1.5" stroke-linecap="round" stroke-linejoin="round"/>
<path d="M7.50016 13.4974H19.1927C19.2794 13.4975 19.3635 13.4675 19.4305 13.4125C19.4976 13.3576 19.5436 13.2811 19.5606 13.196L20.9106 6.44603C20.9215 6.3916 20.9202 6.33543 20.9068 6.28158C20.8933 6.22772 20.8681 6.17753 20.8329 6.13461C20.7977 6.09169 20.7534 6.05713 20.7032 6.0334C20.653 6.00968 20.5982 5.9974 20.5427 5.99744H6.00016" stroke="#666666" stroke-width="1.5" stroke-linecap="round" stroke-linejoin="round"/>
</svg>
