<svg width="24" height="24" viewBox="0 0 24 24" fill="none" xmlns="http://www.w3.org/2000/svg">
<path d="M8.24997 20.9956C9.0784 20.9956 9.74997 20.324 9.74997 19.4956C9.74997 18.6672 9.0784 17.9956 8.24997 17.9956C7.42154 17.9956 6.74997 18.6672 6.74997 19.4956C6.74997 20.324 7.42154 20.9956 8.24997 20.9956Z" fill="#666666"/>
<path d="M18.7501 20.9956C19.5785 20.9956 20.2501 20.324 20.2501 19.4956C20.2501 18.6672 19.5785 17.9956 18.7501 17.9956C17.9217 17.9956 17.2501 18.6672 17.2501 19.4956C17.2501 20.324 17.9217 20.9956 18.7501 20.9956Z" fill="#666666"/>
<path d="M7.8646 14.2456H20.1149L21.9149 5.24561H6.276L5.87897 2.99561H1.49991V4.49561H4.62085L6.87085 17.2456H20.2499V15.7456H8.12897L7.8646 14.2456Z" fill="#666666"/>
</svg>
