<svg width="24" height="24" viewBox="0 0 24 24" fill="none" xmlns="http://www.w3.org/2000/svg">
<path d="M8.24997 20.9965C9.0784 20.9965 9.74997 20.3249 9.74997 19.4965C9.74997 18.6681 9.0784 17.9965 8.24997 17.9965C7.42154 17.9965 6.74997 18.6681 6.74997 19.4965C6.74997 20.3249 7.42154 20.9965 8.24997 20.9965Z" fill="#666666"/>
<path d="M18.7501 20.9965C19.5785 20.9965 20.2501 20.3249 20.2501 19.4965C20.2501 18.6681 19.5785 17.9965 18.7501 17.9965C17.9217 17.9965 17.2501 18.6681 17.2501 19.4965C17.2501 20.3249 17.9217 20.9965 18.7501 20.9965Z" fill="#666666"/>
<path d="M21.4124 5.65808C21.307 5.5292 21.1743 5.4254 21.0238 5.35421C20.8733 5.28302 20.7089 5.24623 20.5424 5.24652H6.27601L5.98867 3.61621C5.95803 3.44255 5.86718 3.28524 5.73207 3.17191C5.59697 3.05858 5.42626 2.99648 5.24992 2.99652H2.24992C2.051 2.99652 1.86024 3.07554 1.71959 3.21619C1.57893 3.35684 1.49992 3.54761 1.49992 3.74652C1.49992 3.94543 1.57893 4.1362 1.71959 4.27685C1.86024 4.4175 2.051 4.49652 2.24992 4.49652H4.62085L6.76117 16.6268C6.79181 16.8005 6.88266 16.9578 7.01776 17.0711C7.15286 17.1845 7.32358 17.2466 7.49992 17.2465H19.4999C19.6988 17.2465 19.8896 17.1675 20.0302 17.0269C20.1709 16.8862 20.2499 16.6954 20.2499 16.4965C20.2499 16.2976 20.1709 16.1068 20.0302 15.9662C19.8896 15.8255 19.6988 15.7465 19.4999 15.7465H8.12898L7.8646 14.2465H19.1924C19.4525 14.2462 19.7045 14.156 19.9058 13.9912C20.107 13.8265 20.2451 13.5972 20.2968 13.3423L21.6468 6.5923C21.6793 6.42894 21.6752 6.2604 21.6346 6.09884C21.5941 5.93728 21.5182 5.78674 21.4124 5.65808Z" fill="#666666"/>
</svg>
