<svg width="24" height="24" viewBox="0 0 24 24" fill="none" xmlns="http://www.w3.org/2000/svg">
<path d="M20.9999 18.7456H2.99993C2.80102 18.7456 2.61025 18.6666 2.4696 18.5259C2.32895 18.3853 2.24993 18.1945 2.24993 17.9956C2.24993 17.7967 2.32895 17.6059 2.4696 17.4653C2.61025 17.3246 2.80102 17.2456 2.99993 17.2456H20.9999C21.1988 17.2456 21.3896 17.3246 21.5303 17.4653C21.6709 17.6059 21.7499 17.7967 21.7499 17.9956C21.7499 18.1945 21.6709 18.3853 21.5303 18.5259C21.3896 18.6666 21.1988 18.7456 20.9999 18.7456ZM19.4999 20.9956H4.49993C4.30102 20.9956 4.11025 20.9166 3.9696 20.7759C3.82895 20.6353 3.74993 20.4445 3.74993 20.2456C3.74993 20.0467 3.82895 19.8559 3.9696 19.7153C4.11025 19.5746 4.30102 19.4956 4.49993 19.4956H19.4999C19.6988 19.4956 19.8896 19.5746 20.0303 19.7153C20.1709 19.8559 20.2499 20.0467 20.2499 20.2456C20.2499 20.4445 20.1709 20.6353 20.0303 20.7759C19.8896 20.9166 19.6988 20.9956 19.4999 20.9956ZM1.49993 12.7456H0.749931V14.9956C0.749931 15.3934 0.907967 15.775 1.18927 16.0563C1.47058 16.3376 1.85211 16.4956 2.24993 16.4956H4.49993V15.7456C4.49906 14.9502 4.18271 14.1877 3.62029 13.6252C3.05787 13.0628 2.29531 12.7465 1.49993 12.7456Z" fill="#666666"/>
<path d="M22.4999 11.2465H23.2499V8.24652H22.4999C21.3069 8.24516 20.1631 7.77061 19.3195 6.927C18.4758 6.08338 18.0013 4.93958 17.9999 3.74652V2.99652H5.99993V3.74652C5.99857 4.93958 5.52402 6.08338 4.68041 6.927C3.83679 7.77061 2.69299 8.24516 1.49993 8.24652H0.749931V11.2465H1.49993C2.69299 11.2479 3.83679 11.7224 4.68041 12.566C5.52402 13.4097 5.99857 14.5535 5.99993 15.7465V16.4965H17.9999V15.7465C18.0013 14.5535 18.4758 13.4097 19.3195 12.566C20.1631 11.7224 21.3069 11.2479 22.4999 11.2465ZM11.9999 14.2465C11.1099 14.2465 10.2399 13.9826 9.49987 13.4881C8.75985 12.9937 8.18307 12.2909 7.84248 11.4686C7.50188 10.6463 7.41277 9.74153 7.5864 8.86862C7.76003 7.9957 8.18862 7.19388 8.81795 6.56454C9.44729 5.9352 10.2491 5.50662 11.122 5.33299C11.9949 5.15935 12.8997 5.24847 13.722 5.58906C14.5443 5.92966 15.2471 6.50643 15.7415 7.24646C16.236 7.98648 16.4999 8.85651 16.4999 9.74652C16.4986 10.9396 16.024 12.0834 15.1804 12.927C14.3368 13.7706 13.193 14.2452 11.9999 14.2465Z" fill="#666666"/>
<path d="M12 12.7465C13.6568 12.7465 15 11.4034 15 9.74652C15 8.08967 13.6568 6.74652 12 6.74652C10.3431 6.74652 8.99996 8.08967 8.99996 9.74652C8.99996 11.4034 10.3431 12.7465 12 12.7465Z" fill="#666666"/>
<path d="M19.4999 15.7465V16.4965H21.7499C22.1478 16.4965 22.5293 16.3385 22.8106 16.0572C23.0919 15.7759 23.2499 15.3943 23.2499 14.9965V12.7465H22.4999C21.7046 12.7474 20.942 13.0637 20.3796 13.6262C19.8172 14.1886 19.5008 14.9511 19.4999 15.7465ZM22.4999 6.74652H23.2499V4.49652C23.2499 4.0987 23.0919 3.71717 22.8106 3.43586C22.5293 3.15456 22.1478 2.99652 21.7499 2.99652H19.4999V3.74652C19.5008 4.5419 19.8172 5.30446 20.3796 5.86688C20.942 6.4293 21.7046 6.74565 22.4999 6.74652ZM4.49993 3.74652V2.99652H2.24993C1.85211 2.99652 1.47058 3.15456 1.18927 3.43586C0.907967 3.71717 0.749931 4.0987 0.749931 4.49652V6.74652H1.49993C2.29531 6.74565 3.05787 6.4293 3.62029 5.86688C4.18271 5.30446 4.49906 4.5419 4.49993 3.74652Z" fill="#666666"/>
</svg>
