<svg width="24" height="24" viewBox="0 0 24 24" fill="none" xmlns="http://www.w3.org/2000/svg">
<g clip-path="url(#clip0_32_909)">
<path d="M2.25002 17.2465H21.75V18.7465H2.25002V17.2465ZM3.75002 19.4965H20.25V20.9965H3.75002V19.4965ZM22.5 8.24652C21.307 8.24516 20.1632 7.77061 19.3195 6.92699C18.4759 6.08338 18.0014 4.93958 18 3.74652V2.99652H6.00002V3.74652C5.99865 4.93958 5.52411 6.08338 4.68049 6.92699C3.83687 7.77061 2.69307 8.24516 1.50002 8.24652H0.750015V11.2465H1.50002C2.69307 11.2479 3.83687 11.7224 4.68049 12.566C5.52411 13.4097 5.99865 14.5535 6.00002 15.7465V16.4965H18V15.7465C18.0014 14.5535 18.4759 13.4097 19.3195 12.566C20.1632 11.7224 21.307 11.2479 22.5 11.2465H23.25V8.24652H22.5ZM12 14.2465C11.11 14.2465 10.24 13.9826 9.49995 13.4881C8.75993 12.9937 8.18315 12.2909 7.84256 11.4686C7.50197 10.6463 7.41285 9.74153 7.58648 8.86862C7.76012 7.9957 8.1887 7.19388 8.81804 6.56454C9.44737 5.9352 10.2492 5.50662 11.1221 5.33299C11.995 5.15935 12.8998 5.24847 13.7221 5.58906C14.5444 5.92966 15.2472 6.50643 15.7416 7.24646C16.2361 7.98648 16.5 8.85651 16.5 9.74652C16.4987 10.9396 16.0241 12.0834 15.1805 12.927C14.3369 13.7706 13.1931 14.2452 12 14.2465Z" fill="#666666"/>
<path d="M4.50002 3.74652V2.99652H0.750015V6.74652H1.50002C2.2954 6.74565 3.05796 6.4293 3.62038 5.86688C4.1828 5.30446 4.49915 4.5419 4.50002 3.74652ZM1.50002 12.7465H0.750015V16.4965H4.50002V15.7465C4.49915 14.9511 4.1828 14.1886 3.62038 13.6262C3.05796 13.0637 2.2954 12.7474 1.50002 12.7465ZM22.5 6.74652H23.25V2.99652H19.5V3.74652C19.5009 4.5419 19.8172 5.30446 20.3797 5.86688C20.9421 6.4293 21.7046 6.74565 22.5 6.74652ZM19.5 15.7465V16.4965H23.25V12.7465H22.5C21.7046 12.7474 20.9421 13.0637 20.3797 13.6262C19.8172 14.1886 19.5009 14.9511 19.5 15.7465Z" fill="#666666"/>
<path d="M12 12.7465C13.6569 12.7465 15 11.4034 15 9.74652C15 8.08967 13.6569 6.74652 12 6.74652C10.3432 6.74652 9.00004 8.08967 9.00004 9.74652C9.00004 11.4034 10.3432 12.7465 12 12.7465Z" fill="#666666"/>
</g>
<defs>
<clipPath id="clip0_32_909">
<rect width="24" height="24" fill="white"/>
</clipPath>
</defs>
</svg>
