<svg width="24" height="24" viewBox="0 0 24 24" fill="none" xmlns="http://www.w3.org/2000/svg">
<g clip-path="url(#clip0_32_904)">
<path d="M2.25007 15.7474L21.7501 15.7474C22.1643 15.7474 22.5001 15.4117 22.5001 14.9974V4.49743C22.5001 4.08322 22.1643 3.74743 21.7501 3.74743L2.25007 3.74743C1.83585 3.74743 1.50007 4.08322 1.50007 4.49743V14.9974C1.50007 15.4117 1.83585 15.7474 2.25007 15.7474Z" stroke="#666666" stroke-width="1.5" stroke-linejoin="round"/>
<path d="M4.50004 20.2465H19.5M3.00004 17.9965H21H3.00004Z" stroke="#666666" stroke-width="1.5" stroke-linecap="round" stroke-linejoin="round"/>
<path d="M12 13.4984C14.071 13.4984 15.75 11.8194 15.75 9.74835C15.75 7.67728 14.071 5.99835 12 5.99835C9.92889 5.99835 8.24995 7.67728 8.24995 9.74835C8.24995 11.8194 9.92889 13.4984 12 13.4984Z" stroke="#666666" stroke-width="1.5" stroke-linecap="round" stroke-linejoin="round"/>
<path d="M1.49998 11.9992C1.99243 11.9992 2.48007 12.0962 2.93504 12.2847C3.39001 12.4731 3.80341 12.7493 4.15163 13.0976C4.49985 13.4458 4.77607 13.8592 4.96453 14.3141C5.15298 14.7691 5.24998 15.2568 5.24998 15.7492M22.5 7.49921C21.5054 7.49921 20.5516 7.10412 19.8483 6.40086C19.1451 5.6976 18.75 4.74377 18.75 3.74921L22.5 7.49921ZM1.49998 7.49921C1.99243 7.49921 2.48007 7.40221 2.93504 7.21376C3.39001 7.0253 3.80341 6.74908 4.15163 6.40086C4.49985 6.05264 4.77607 5.63924 4.96453 5.18427C5.15298 4.7293 5.24998 4.24166 5.24998 3.74921L1.49998 7.49921ZM22.5 11.9992C21.5054 11.9992 20.5516 12.3943 19.8483 13.0976C19.1451 13.8008 18.75 14.7546 18.75 15.7492L22.5 11.9992Z" stroke="#666666" stroke-width="1.5" stroke-linecap="round" stroke-linejoin="round"/>
</g>
<defs>
<clipPath id="clip0_32_904">
<rect width="24" height="24" fill="white"/>
</clipPath>
</defs>
</svg>
