<svg width="24" height="24" viewBox="0 0 24 24" fill="none" xmlns="http://www.w3.org/2000/svg">
<path d="M22.125 20.2492H19.875C19.5766 20.2492 19.2905 20.1307 19.0795 19.9197C18.8685 19.7087 18.75 19.4226 18.75 19.1242V4.87421C18.75 4.57584 18.8685 4.28969 19.0795 4.07871C19.2905 3.86773 19.5766 3.74921 19.875 3.74921H22.125C22.4234 3.74921 22.7095 3.86773 22.9205 4.07871C23.1315 4.28969 23.25 4.57584 23.25 4.87421V19.1242C23.25 19.4226 23.1315 19.7087 22.9205 19.9197C22.7095 20.1307 22.4234 20.2492 22.125 20.2492ZM16.125 20.2492H13.875C13.5766 20.2492 13.2905 20.1307 13.0795 19.9197C12.8685 19.7087 12.75 19.4226 12.75 19.1242V8.62421C12.75 8.32584 12.8685 8.03969 13.0795 7.82871C13.2905 7.61773 13.5766 7.49921 13.875 7.49921H16.125C16.4234 7.49921 16.7095 7.61773 16.9205 7.82871C17.1315 8.03969 17.25 8.32584 17.25 8.62421V19.1242C17.25 19.4226 17.1315 19.7087 16.9205 19.9197C16.7095 20.1307 16.4234 20.2492 16.125 20.2492ZM10.125 20.2492H7.87498C7.57661 20.2492 7.29046 20.1307 7.07949 19.9197C6.86851 19.7087 6.74998 19.4226 6.74998 19.1242V11.6242C6.74998 11.3258 6.86851 11.0397 7.07949 10.8287C7.29046 10.6177 7.57661 10.4992 7.87498 10.4992H10.125C10.4234 10.4992 10.7095 10.6177 10.9205 10.8287C11.1315 11.0397 11.25 11.3258 11.25 11.6242V19.1242C11.25 19.4226 11.1315 19.7087 10.9205 19.9197C10.7095 20.1307 10.4234 20.2492 10.125 20.2492ZM4.12498 20.2492H1.87498C1.57661 20.2492 1.29046 20.1307 1.07948 19.9197C0.868506 19.7087 0.749979 19.4226 0.749979 19.1242V14.6242C0.749979 14.3258 0.868506 14.0397 1.07948 13.8287C1.29046 13.6177 1.57661 13.4992 1.87498 13.4992H4.12498C4.42335 13.4992 4.7095 13.6177 4.92048 13.8287C5.13145 14.0397 5.24998 14.3258 5.24998 14.6242V19.1242C5.24998 19.4226 5.13145 19.7087 4.92048 19.9197C4.7095 20.1307 4.42335 20.2492 4.12498 20.2492Z" fill="#666666"/>
</svg>
