<svg width="24" height="24" viewBox="0 0 24 24" fill="none" xmlns="http://www.w3.org/2000/svg">
<path d="M22.125 4.49744H19.875C19.6679 4.49744 19.5 4.66533 19.5 4.87244V19.1224C19.5 19.3295 19.6679 19.4974 19.875 19.4974H22.125C22.3321 19.4974 22.5 19.3295 22.5 19.1224V4.87244C22.5 4.66533 22.3321 4.49744 22.125 4.49744Z" stroke="#666666" stroke-width="1.5" stroke-linejoin="round"/>
<path d="M16.1251 8.24744H13.8751C13.6679 8.24744 13.5001 8.41533 13.5001 8.62244V19.1224C13.5001 19.3295 13.6679 19.4974 13.8751 19.4974H16.1251C16.3322 19.4974 16.5001 19.3295 16.5001 19.1224V8.62244C16.5001 8.41533 16.3322 8.24744 16.1251 8.24744Z" stroke="#666666" stroke-width="1.5" stroke-linejoin="round"/>
<path d="M10.1251 11.2492H7.87511C7.668 11.2492 7.50011 11.4171 7.50011 11.6242V19.1242C7.50011 19.3313 7.668 19.4992 7.87511 19.4992H10.1251C10.3322 19.4992 10.5001 19.3313 10.5001 19.1242V11.6242C10.5001 11.4171 10.3322 11.2492 10.1251 11.2492Z" stroke="#666666" stroke-width="1.5" stroke-linejoin="round"/>
<path d="M4.12502 14.2465H1.87502C1.66792 14.2465 1.50002 14.4144 1.50002 14.6215V19.1215C1.50002 19.3286 1.66792 19.4965 1.87502 19.4965H4.12502C4.33213 19.4965 4.50002 19.3286 4.50002 19.1215V14.6215C4.50002 14.4144 4.33213 14.2465 4.12502 14.2465Z" stroke="#666666" stroke-width="1.5" stroke-linejoin="round"/>
</svg>
