<svg width="24" height="24" viewBox="0 0 24 24" fill="none" xmlns="http://www.w3.org/2000/svg">
<path d="M19.1249 2.24835H4.87491C3.98011 2.24934 3.12224 2.60524 2.48952 3.23796C1.8568 3.87068 1.5009 4.72855 1.49991 5.62335V14.6234C1.5009 15.5182 1.8568 16.376 2.48952 17.0087C3.12224 17.6415 3.98011 17.9974 4.87491 17.9984H5.99991V20.9984C5.99987 21.141 6.04049 21.2806 6.117 21.401C6.19351 21.5213 6.30274 21.6173 6.43189 21.6778C6.56104 21.7383 6.70476 21.7607 6.84618 21.7424C6.9876 21.724 7.12088 21.6658 7.23038 21.5744L11.519 17.9984H19.1249C20.0197 17.9974 20.8776 17.6415 21.5103 17.0087C22.143 16.376 22.4989 15.5182 22.4999 14.6234V5.62335C22.4989 4.72855 22.143 3.87068 21.5103 3.23796C20.8776 2.60524 20.0197 2.24934 19.1249 2.24835ZM7.49991 11.6234C7.20324 11.6234 6.91323 11.5354 6.66655 11.3706C6.41988 11.2057 6.22762 10.9715 6.11409 10.6974C6.00056 10.4233 5.97085 10.1217 6.02873 9.83072C6.08661 9.53975 6.22947 9.27247 6.43925 9.06269C6.64903 8.85291 6.9163 8.71005 7.20727 8.65217C7.49824 8.5943 7.79984 8.624 8.07393 8.73753C8.34802 8.85107 8.58229 9.04332 8.74711 9.29C8.91194 9.53667 8.99991 9.82668 8.99991 10.1234C8.99991 10.5212 8.84187 10.9027 8.56057 11.184C8.27926 11.4653 7.89773 11.6234 7.49991 11.6234ZM11.9999 11.6234C11.7032 11.6234 11.4132 11.5354 11.1666 11.3706C10.9199 11.2057 10.7276 10.9715 10.6141 10.6974C10.5006 10.4233 10.4709 10.1217 10.5287 9.83072C10.5866 9.53975 10.7295 9.27247 10.9392 9.06269C11.149 8.85291 11.4163 8.71005 11.7073 8.65217C11.9982 8.5943 12.2998 8.624 12.5739 8.73753C12.848 8.85107 13.0823 9.04332 13.2471 9.29C13.4119 9.53667 13.4999 9.82668 13.4999 10.1234C13.4999 10.5212 13.3419 10.9027 13.0606 11.184C12.7793 11.4653 12.3977 11.6234 11.9999 11.6234ZM16.4999 11.6234C16.2032 11.6234 15.9132 11.5354 15.6666 11.3706C15.4199 11.2057 15.2276 10.9715 15.1141 10.6974C15.0006 10.4233 14.9709 10.1217 15.0287 9.83072C15.0866 9.53975 15.2295 9.27247 15.4392 9.06269C15.649 8.85291 15.9163 8.71005 16.2073 8.65217C16.4982 8.5943 16.7998 8.624 17.0739 8.73753C17.348 8.85107 17.5823 9.04332 17.7471 9.29C17.9119 9.53667 17.9999 9.82668 17.9999 10.1234C17.9999 10.5212 17.8419 10.9027 17.5606 11.184C17.2793 11.4653 16.8977 11.6234 16.4999 11.6234Z" fill="#666666"/>
</svg>
