<svg width="24" height="24" viewBox="0 0 24 24" fill="none" xmlns="http://www.w3.org/2000/svg">
<path d="M3.60145 22.501C3.28264 22.4996 2.97743 22.3717 2.75274 22.1455C2.52806 21.9193 2.40223 21.6133 2.40286 21.2945C2.40565 21.1733 2.42456 21.053 2.45911 20.9368L3.32254 17.8135C3.35864 17.6982 3.31786 17.582 3.26489 17.4901L3.25457 17.4714C3.25082 17.4653 3.23301 17.4404 3.22036 17.4221C3.2077 17.4039 3.19317 17.3842 3.18004 17.3649L3.17114 17.3523C2.0809 15.6999 1.49983 13.7637 1.50004 11.784C1.49161 9.08448 2.5477 6.53401 4.47473 4.59901C6.46879 2.6012 9.13598 1.50104 11.9916 1.50104C14.4141 1.49984 16.7647 2.32384 18.6563 3.83729C20.5055 5.32557 21.7908 7.39979 22.2755 9.68166C22.4247 10.3749 22.4998 11.082 22.4996 11.791C22.4996 14.5534 21.4383 17.1479 19.5108 19.0974C17.5665 21.0662 14.9555 22.1471 12.1594 22.1471C11.175 22.1471 9.91551 21.8959 9.31083 21.7253C8.58333 21.5218 7.89379 21.2565 7.81786 21.2284C7.73749 21.1976 7.65219 21.1817 7.56614 21.1815C7.4728 21.1809 7.38032 21.1993 7.29426 21.2354L7.25442 21.2509L4.09129 22.3937C3.93594 22.4591 3.76992 22.4955 3.60145 22.501Z" fill="#666666"/>
</svg>
