<svg width="24" height="24" viewBox="0 0 24 24" fill="none" xmlns="http://www.w3.org/2000/svg">
<path d="M21 14.6426C21.0361 14.5906 21.0708 14.5367 21.1065 14.486C22.013 13.1386 22.4982 11.5519 22.5 9.92791C22.515 5.27322 18.5879 1.49744 13.7316 1.49744C9.49598 1.49744 5.96254 4.37978 5.13473 8.20619C5.01055 8.77328 4.94768 9.35207 4.94723 9.93259C4.94723 14.592 8.72348 18.469 13.5797 18.469C14.3518 18.469 15.3919 18.237 15.9624 18.0804C16.5329 17.9238 17.0982 17.7171 17.2444 17.6613C17.3907 17.6056 17.6194 17.5484 17.8018 17.6009L21.4308 18.6499C21.4627 18.6594 21.4966 18.6601 21.5289 18.6522C21.5612 18.6442 21.5908 18.6278 21.6146 18.6046C21.6385 18.5814 21.6558 18.5523 21.6646 18.5202C21.6735 18.4881 21.6737 18.4543 21.6652 18.4221L20.8346 15.2585C20.7769 15.0242 20.7694 14.9801 21 14.6426Z" fill="#666666"/>
<path d="M14.6503 19.4704C14.2896 19.5281 13.9252 19.5602 13.56 19.5665C11.5711 19.5665 9.69278 19.0415 8.16934 18.0571C7.19484 17.4589 6.34892 16.6731 5.68075 15.7452C4.45825 14.1247 3.79169 12.065 3.79169 9.90974C3.79169 9.76302 3.79684 9.62192 3.802 9.48036C3.80386 9.43861 3.79281 9.3973 3.77037 9.36205C3.74792 9.3268 3.71516 9.29932 3.67655 9.28334C3.63793 9.26736 3.59533 9.26366 3.55454 9.27275C3.51375 9.28183 3.47675 9.30326 3.44856 9.33411C2.32616 10.5622 1.64765 12.131 1.52139 13.7899C1.39512 15.4488 1.82839 17.1022 2.752 18.486C2.86778 18.6627 2.93341 18.7991 2.91325 18.8901L2.25278 22.2772C2.24669 22.3094 2.24914 22.3427 2.25991 22.3737C2.27067 22.4046 2.28936 22.4322 2.31412 22.4537C2.33888 22.4752 2.36884 22.4898 2.40101 22.4961C2.43318 22.5024 2.46644 22.5002 2.49747 22.4896L5.68497 21.3533C5.78163 21.3151 5.88488 21.2964 5.98881 21.2981C6.09274 21.2999 6.19529 21.3222 6.29059 21.3636C7.2445 21.7386 8.29966 21.9693 9.35481 21.9693C11.3858 21.9759 13.3422 21.2043 14.8218 19.813C14.8524 19.7832 14.8727 19.7445 14.8798 19.7024C14.8869 19.6604 14.8804 19.6171 14.8613 19.579C14.8422 19.5408 14.8115 19.5098 14.7735 19.4902C14.7356 19.4707 14.6924 19.4637 14.6503 19.4704Z" fill="#666666"/>
</svg>
