<svg width="24" height="24" viewBox="0 0 24 24" fill="none" xmlns="http://www.w3.org/2000/svg">
<path d="M22.2759 9.68166C21.7912 7.4012 20.5059 5.32557 18.6562 3.83729C16.7647 2.32384 14.414 1.49984 11.9915 1.50104C9.13592 1.50104 6.46873 2.6012 4.47467 4.59901C2.54763 6.53213 1.49154 9.08448 1.49998 11.784C1.50004 13.7632 2.0811 15.6989 3.17107 17.3509L3.37498 17.6345L2.24998 22.501L7.63123 21.1623C7.63123 21.1623 7.73904 21.1984 7.81873 21.2289C7.89842 21.2593 8.5842 21.5223 9.3117 21.7257C9.91638 21.8945 11.1745 22.1476 12.1603 22.1476C14.9564 22.1476 17.5673 21.0648 19.5117 19.0979C21.4387 17.1465 22.5 14.552 22.5 11.7896C22.5001 11.081 22.425 10.3744 22.2759 9.68166Z" fill="#666666"/>
</svg>
