<svg width="24" height="24" viewBox="0 0 24 24" fill="none" xmlns="http://www.w3.org/2000/svg">
<path d="M5.99998 21.7492V17.9992H2.62498C2.32661 17.9992 2.04046 17.8807 1.82948 17.6697C1.6185 17.4587 1.49998 17.1726 1.49998 16.8742V3.37421C1.49998 3.07584 1.6185 2.78969 1.82948 2.57871C2.04046 2.36773 2.32661 2.24921 2.62498 2.24921H21.375C21.6733 2.24921 21.9595 2.36773 22.1705 2.57871C22.3815 2.78969 22.5 3.07584 22.5 3.37421V16.8742C22.5 17.1726 22.3815 17.4587 22.1705 17.6697C21.9595 17.8807 21.6733 17.9992 21.375 17.9992H11.519L5.99998 21.7492Z" fill="#666666"/>
</svg>
