<svg width="24" height="24" viewBox="0 0 24 24" fill="none" xmlns="http://www.w3.org/2000/svg">
<path d="M19.125 2.99652H4.87495C4.17937 2.9985 3.51284 3.2757 3.02098 3.76755C2.52913 4.25941 2.25193 4.92594 2.24995 5.62152V14.6215C2.25193 15.3171 2.52913 15.9836 3.02098 16.4755C3.51284 16.9673 4.17937 17.2445 4.87495 17.2465H6.74995V20.9965L11.1431 17.3337C11.2105 17.2774 11.2957 17.2465 11.3835 17.2465H19.125C19.8205 17.2445 20.4871 16.9673 20.9789 16.4755C21.4708 15.9836 21.748 15.3171 21.75 14.6215V5.62152C21.748 4.92594 21.4708 4.25941 20.9789 3.76755C20.4871 3.2757 19.8205 2.9985 19.125 2.99652V2.99652Z" stroke="#666666" stroke-width="1.5" stroke-linejoin="round"/>
<path d="M7.49996 11.6215C8.32839 11.6215 8.99996 10.9499 8.99996 10.1215C8.99996 9.29309 8.32839 8.62152 7.49996 8.62152C6.67153 8.62152 5.99996 9.29309 5.99996 10.1215C5.99996 10.9499 6.67153 11.6215 7.49996 11.6215Z" fill="#666666"/>
<path d="M12 11.6215C12.8284 11.6215 13.5 10.9499 13.5 10.1215C13.5 9.29309 12.8284 8.62152 12 8.62152C11.1716 8.62152 10.5 9.29309 10.5 10.1215C10.5 10.9499 11.1716 11.6215 12 11.6215Z" fill="#666666"/>
<path d="M16.5 11.6215C17.3284 11.6215 18 10.9499 18 10.1215C18 9.29309 17.3284 8.62152 16.5 8.62152C15.6716 8.62152 15 9.29309 15 10.1215C15 10.9499 15.6716 11.6215 16.5 11.6215Z" fill="#666666"/>
</svg>
