<svg width="24" height="24" viewBox="0 0 24 24" fill="none" xmlns="http://www.w3.org/2000/svg">
<path d="M22.2759 9.68166C21.7912 7.4012 20.5059 5.32557 18.6562 3.83729C16.7646 2.32384 14.414 1.49984 11.9915 1.50104C9.13587 1.50104 6.46868 2.6012 4.47462 4.59901C2.54759 6.53213 1.49149 9.08448 1.49993 11.784C1.5 13.7632 2.08105 15.6989 3.17103 17.3509L3.37493 17.6345L2.24993 22.501L7.63118 21.1623C7.63118 21.1623 7.739 21.1984 7.81868 21.2289C7.89837 21.2593 8.58415 21.5223 9.31165 21.7257C9.91634 21.8945 11.1745 22.1476 12.1602 22.1476C14.9563 22.1476 17.5673 21.0648 19.5117 19.0979C21.4387 17.1465 22.4999 14.552 22.4999 11.7896C22.5001 11.081 22.425 10.3744 22.2759 9.68166ZM7.49993 13.501C7.20326 13.501 6.91325 13.4131 6.66658 13.2482C6.4199 13.0834 6.22764 12.8492 6.11411 12.5751C6.00058 12.301 5.97088 11.9994 6.02875 11.7084C6.08663 11.4174 6.22949 11.1502 6.43927 10.9404C6.64905 10.7306 6.91633 10.5877 7.2073 10.5299C7.49827 10.472 7.79987 10.5017 8.07396 10.6152C8.34805 10.7288 8.58231 10.921 8.74714 11.1677C8.91196 11.4144 8.99993 11.7044 8.99993 12.001C8.99993 12.3989 8.8419 12.7804 8.56059 13.0617C8.27929 13.343 7.89776 13.501 7.49993 13.501ZM11.9999 13.501C11.7033 13.501 11.4133 13.4131 11.1666 13.2482C10.9199 13.0834 10.7276 12.8492 10.6141 12.5751C10.5006 12.301 10.4709 11.9994 10.5288 11.7084C10.5866 11.4174 10.7295 11.1502 10.9393 10.9404C11.1491 10.7306 11.4163 10.5877 11.7073 10.5299C11.9983 10.472 12.2999 10.5017 12.574 10.6152C12.848 10.7288 13.0823 10.921 13.2471 11.1677C13.412 11.4144 13.4999 11.7044 13.4999 12.001C13.4999 12.3989 13.3419 12.7804 13.0606 13.0617C12.7793 13.343 12.3978 13.501 11.9999 13.501ZM16.4999 13.501C16.2033 13.501 15.9133 13.4131 15.6666 13.2482C15.4199 13.0834 15.2276 12.8492 15.1141 12.5751C15.0006 12.301 14.9709 11.9994 15.0288 11.7084C15.0866 11.4174 15.2295 11.1502 15.4393 10.9404C15.6491 10.7306 15.9163 10.5877 16.2073 10.5299C16.4983 10.472 16.7999 10.5017 17.074 10.6152C17.348 10.7288 17.5823 10.921 17.7471 11.1677C17.912 11.4144 17.9999 11.7044 17.9999 12.001C17.9999 12.3989 17.8419 12.7804 17.5606 13.0617C17.2793 13.343 16.8978 13.501 16.4999 13.501Z" fill="#666666"/>
</svg>
