<svg width="24" height="24" viewBox="0 0 24 24" fill="none" xmlns="http://www.w3.org/2000/svg">
<path d="M4.10066 17.8117C4.15691 17.6064 4.03363 17.3209 3.91598 17.1151C3.8795 17.0537 3.83976 16.9942 3.79691 16.937C2.78782 15.4067 2.24997 13.6139 2.25004 11.7808C2.23316 6.51905 6.59629 2.24921 11.9916 2.24921C16.6969 2.24921 20.625 5.50889 21.5424 9.83593C21.6801 10.4774 21.7497 11.1317 21.75 11.7878C21.75 17.057 17.5552 21.3939 12.1599 21.3939C11.3016 21.3939 10.1443 21.1783 9.51285 21.0016C8.88145 20.8248 8.25098 20.5905 8.08832 20.5276C7.9218 20.4637 7.74498 20.4308 7.5666 20.4306C7.37209 20.4299 7.17946 20.4687 7.00035 20.5445L3.82035 21.692C3.75086 21.7221 3.6772 21.7413 3.60191 21.7492C3.54236 21.749 3.48343 21.737 3.42854 21.7139C3.37365 21.6908 3.32388 21.6571 3.28212 21.6146C3.24036 21.5722 3.20743 21.5218 3.18524 21.4666C3.16305 21.4113 3.15204 21.3522 3.15285 21.2926C3.15676 21.2404 3.16619 21.1887 3.18098 21.1384L4.10066 17.8117Z" stroke="#666666" stroke-width="1.5" stroke-miterlimit="10" stroke-linecap="round"/>
<path d="M7.49999 13.4974C8.32842 13.4974 8.99999 12.8259 8.99999 11.9974C8.99999 11.169 8.32842 10.4974 7.49999 10.4974C6.67157 10.4974 5.99999 11.169 5.99999 11.9974C5.99999 12.8259 6.67157 13.4974 7.49999 13.4974Z" fill="#666666"/>
<path d="M12 13.4974C12.8284 13.4974 13.5 12.8259 13.5 11.9974C13.5 11.169 12.8284 10.4974 12 10.4974C11.1716 10.4974 10.5 11.169 10.5 11.9974C10.5 12.8259 11.1716 13.4974 12 13.4974Z" fill="#666666"/>
<path d="M16.5 13.4974C17.3285 13.4974 18.0001 12.8259 18.0001 11.9974C18.0001 11.169 17.3285 10.4974 16.5 10.4974C15.6716 10.4974 15 11.169 15 11.9974C15 12.8259 15.6716 13.4974 16.5 13.4974Z" fill="#666666"/>
</svg>
