<svg width="24" height="24" viewBox="0 0 24 24" fill="none" xmlns="http://www.w3.org/2000/svg">
<path d="M2.83307 18.2398C2.83307 18.2431 2.83307 18.2492 2.82932 18.2576C2.83073 18.252 2.83167 18.2459 2.83307 18.2398ZM20.6203 19.0099C20.4659 19.0066 20.3135 18.9748 20.1707 18.9162L17.5092 17.9726L17.4895 17.9646C17.4314 17.9404 17.3691 17.9283 17.3062 17.929C17.2482 17.9291 17.1908 17.9395 17.1365 17.9599C17.0718 17.9843 16.4892 18.2032 15.8779 18.371C15.5465 18.462 14.3929 18.7587 13.4671 18.7587C11.1009 18.7587 8.88839 17.8493 7.23792 16.1979C6.43162 15.3966 5.79229 14.4433 5.35691 13.3932C4.92153 12.3431 4.69877 11.217 4.70151 10.0803C4.70149 9.48794 4.7653 8.89734 4.89182 8.31869C5.30385 6.41463 6.39511 4.6826 7.96448 3.44369C9.57434 2.18089 11.5617 1.49549 13.6078 1.49744C16.0551 1.49744 18.3356 2.43494 20.0296 4.13088C21.6309 5.73728 22.5084 7.84947 22.5014 10.0779C22.5 11.7338 22.0055 13.3518 21.081 14.7256L21.0721 14.7387L21.0375 14.7856C21.0295 14.7963 21.0215 14.8067 21.014 14.8174L21.007 14.8301C20.9883 14.8618 20.9714 14.8945 20.9564 14.9281L21.6942 17.5503C21.7268 17.6584 21.7445 17.7706 21.7467 17.8835C21.7469 18.0315 21.7178 18.1781 21.6613 18.3148C21.6048 18.4516 21.5218 18.5758 21.4172 18.6804C21.3125 18.7851 21.1883 18.868 21.0515 18.9246C20.9148 18.9811 20.7682 19.0101 20.6203 19.0099Z" fill="#666666"/>
<path d="M14.0564 19.9393C14.008 19.8451 13.9398 19.7624 13.8566 19.6969C13.7734 19.6314 13.677 19.5846 13.5741 19.5596C13.3031 19.4879 12.9872 19.5001 12.7458 19.4823C10.4664 19.3238 8.32146 18.3455 6.70735 16.7283C5.27238 15.3014 4.3398 13.4469 4.05 11.4441C3.98438 10.9876 3.98438 10.8741 3.98438 10.8741C3.98435 10.7218 3.93793 10.5731 3.85131 10.4478C3.76469 10.3225 3.64197 10.2265 3.49948 10.1727C3.35698 10.1188 3.20147 10.1097 3.05363 10.1464C2.90579 10.1831 2.77263 10.2639 2.67188 10.3782C2.67188 10.3782 2.3025 10.7804 2.12813 11.184C1.63907 12.3108 1.43051 13.5394 1.52031 14.7645C1.61011 15.9895 1.99561 17.1746 2.64375 18.218C2.76563 18.421 2.76563 18.5148 2.73844 18.7257C2.61047 19.3871 2.38641 20.5538 2.26969 21.159C2.23104 21.3552 2.24542 21.5582 2.31133 21.7471C2.37725 21.9359 2.49232 22.1038 2.64469 22.2333L2.66625 22.2516C2.86782 22.4117 3.1176 22.4989 3.375 22.4991C3.51978 22.4993 3.66316 22.4707 3.79688 22.4152L6.30516 21.4473C6.39152 21.4144 6.48692 21.4144 6.57328 21.4473C7.56094 21.8148 8.58891 22.0098 9.56297 22.0098C10.7766 22.0109 11.9756 21.7442 13.0744 21.2288C13.3303 21.1088 13.7306 20.9785 13.965 20.7076C14.0537 20.6025 14.1096 20.4737 14.1259 20.3371C14.1421 20.2006 14.118 20.0623 14.0564 19.9393Z" fill="#666666"/>
</svg>
