<svg width="24" height="24" viewBox="0 0 24 24" fill="none" xmlns="http://www.w3.org/2000/svg">
<path d="M20.2032 15.0273C20.1563 14.8586 20.2594 14.6242 20.3579 14.4555C20.388 14.4052 20.4208 14.3567 20.4563 14.3101C21.2983 13.059 21.7487 11.5854 21.7501 10.0773C21.7641 5.75546 18.1172 2.24921 13.6079 2.24921C9.67504 2.24921 6.39379 4.92577 5.62504 8.4789C5.51004 9.00553 5.45189 9.54298 5.45161 10.082C5.45161 14.4086 8.95786 18.0086 13.4672 18.0086C14.1844 18.0086 15.15 17.793 15.6797 17.6476C16.2094 17.5023 16.7344 17.3101 16.8704 17.2586C17.0097 17.206 17.1574 17.1791 17.3063 17.1789C17.4688 17.1783 17.6298 17.2102 17.7797 17.2726L20.4375 18.2148C20.4958 18.2395 20.5574 18.2553 20.6204 18.2617C20.7198 18.2617 20.8152 18.2222 20.8855 18.1519C20.9559 18.0815 20.9954 17.9862 20.9954 17.8867C20.9921 17.8438 20.9842 17.8014 20.9719 17.7601L20.2032 15.0273Z" stroke="#666666" stroke-width="1.5" stroke-miterlimit="10" stroke-linecap="round"/>
<path d="M3.11528 10.876C2.50048 11.9805 2.20308 13.2335 2.25594 14.4965C2.3088 15.7594 2.70987 16.9832 3.41481 18.0324C3.52309 18.196 3.58403 18.3226 3.56528 18.4074C3.54653 18.4923 3.00606 21.3076 3.00606 21.3076C2.99306 21.3735 2.99799 21.4417 3.02034 21.505C3.04268 21.5683 3.08162 21.6245 3.13309 21.6676C3.20177 21.7223 3.28716 21.7518 3.37497 21.751C3.42189 21.7512 3.46833 21.7416 3.51137 21.7229L6.14622 20.6917C6.32756 20.6202 6.52986 20.6235 6.70872 20.701C7.59653 21.047 8.57809 21.2635 9.56012 21.2635C10.8779 21.2649 12.1726 20.9174 13.3125 20.2562" stroke="#666666" stroke-width="1.5" stroke-miterlimit="10" stroke-linecap="round"/>
</svg>
