<svg width="24" height="24" viewBox="0 0 24 24" fill="none" xmlns="http://www.w3.org/2000/svg">
<path d="M19.1249 2.99744H4.87495C4.17936 2.99942 3.51283 3.27661 3.02098 3.76847C2.52912 4.26032 2.25193 4.92685 2.24995 5.62244V14.6224C2.25193 15.318 2.52912 15.9846 3.02098 16.4764C3.51283 16.9683 4.17936 17.2455 4.87495 17.2474H6.74995V20.9974L11.1431 17.3346C11.2105 17.2783 11.2956 17.2474 11.3835 17.2474H19.1249C19.8205 17.2455 20.4871 16.9683 20.9789 16.4764C21.4708 15.9846 21.748 15.318 21.7499 14.6224V5.62244C21.748 4.92685 21.4708 4.26032 20.9789 3.76847C20.4871 3.27661 19.8205 2.99942 19.1249 2.99744V2.99744Z" stroke="#666666" stroke-width="1.5" stroke-linejoin="round"/>
</svg>
