<svg width="24" height="24" viewBox="0 0 24 24" fill="none" xmlns="http://www.w3.org/2000/svg">
<path d="M4.10117 17.8117C4.15696 17.6064 4.03367 17.3209 3.91602 17.1151C3.87938 17.0538 3.83964 16.9943 3.79696 16.937C2.78786 15.4067 2.25002 13.6139 2.25008 11.7808C2.23367 6.51905 6.5968 2.24921 11.9921 2.24921C16.6974 2.24921 20.6251 5.50889 21.5429 9.83593C21.6804 10.4775 21.7499 11.1317 21.7501 11.7878C21.7501 17.057 17.5552 21.3939 12.1599 21.3939C11.3021 21.3939 10.1443 21.1783 9.51289 21.0016C8.88149 20.8248 8.25102 20.5905 8.08836 20.5276C7.92201 20.4637 7.74533 20.4308 7.56711 20.4306C7.37245 20.4299 7.17965 20.4686 7.00039 20.5445L3.82086 21.692C3.7512 21.722 3.6774 21.7413 3.60196 21.7492C3.54242 21.749 3.48352 21.737 3.42865 21.7139C3.37379 21.6908 3.32405 21.6571 3.28233 21.6146C3.2406 21.5721 3.20772 21.5218 3.18558 21.4665C3.16345 21.4113 3.15249 21.3522 3.15336 21.2926C3.15727 21.2404 3.1667 21.1887 3.18149 21.1384L4.10117 17.8117Z" stroke="#666666" stroke-width="1.5" stroke-miterlimit="10" stroke-linecap="round"/>
</svg>
