<svg width="24" height="24" viewBox="0 0 24 24" fill="none" xmlns="http://www.w3.org/2000/svg">
<path d="M21.375 2.24835H2.62499C2.32662 2.24835 2.04048 2.36688 1.8295 2.57786C1.61852 2.78884 1.49999 3.07498 1.49999 3.37335V16.8734C1.49999 17.1717 1.61852 17.4579 1.8295 17.6688C2.04048 17.8798 2.32662 17.9984 2.62499 17.9984H5.99999V21.7484L11.5191 17.9984H21.375C21.6734 17.9984 21.9595 17.8798 22.1705 17.6688C22.3815 17.4579 22.5 17.1717 22.5 16.8734V3.37335C22.5 3.07498 22.3815 2.78884 22.1705 2.57786C21.9595 2.36688 21.6734 2.24835 21.375 2.24835ZM7.49999 11.6234C7.20332 11.6234 6.91331 11.5354 6.66664 11.3706C6.41996 11.2057 6.2277 10.9715 6.11417 10.6974C6.00064 10.4233 5.97094 10.1217 6.02881 9.83072C6.08669 9.53975 6.22955 9.27247 6.43933 9.06269C6.64911 8.85291 6.91639 8.71005 7.20736 8.65217C7.49833 8.5943 7.79993 8.624 8.07402 8.73753C8.34811 8.85106 8.58238 9.04332 8.7472 9.29C8.91202 9.53667 8.99999 9.82668 8.99999 10.1234C8.99999 10.5212 8.84196 10.9027 8.56065 11.184C8.27935 11.4653 7.89782 11.6234 7.49999 11.6234ZM12 11.6234C11.7033 11.6234 11.4133 11.5354 11.1666 11.3706C10.92 11.2057 10.7277 10.9715 10.6142 10.6974C10.5006 10.4233 10.4709 10.1217 10.5288 9.83072C10.5867 9.53975 10.7296 9.27247 10.9393 9.06269C11.1491 8.85291 11.4164 8.71005 11.7074 8.65217C11.9983 8.5943 12.2999 8.624 12.574 8.73753C12.8481 8.85106 13.0824 9.04332 13.2472 9.29C13.412 9.53667 13.5 9.82668 13.5 10.1234C13.5 10.5212 13.342 10.9027 13.0607 11.184C12.7793 11.4653 12.3978 11.6234 12 11.6234ZM16.5 11.6234C16.2033 11.6234 15.9133 11.5354 15.6666 11.3706C15.42 11.2057 15.2277 10.9715 15.1142 10.6974C15.0006 10.4233 14.9709 10.1217 15.0288 9.83072C15.0867 9.53975 15.2296 9.27247 15.4393 9.06269C15.6491 8.85291 15.9164 8.71005 16.2074 8.65217C16.4983 8.5943 16.7999 8.624 17.074 8.73753C17.3481 8.85106 17.5824 9.04332 17.7472 9.29C17.912 9.53667 18 9.82668 18 10.1234C18 10.5212 17.842 10.9027 17.5607 11.184C17.2793 11.4653 16.8978 11.6234 16.5 11.6234Z" fill="#666666"/>
</svg>
