<svg width="24" height="24" viewBox="0 0 24 24" fill="none" xmlns="http://www.w3.org/2000/svg">
<path d="M6.75004 21.7492C6.55113 21.7492 6.36036 21.6702 6.21971 21.5295C6.07906 21.3889 6.00004 21.1981 6.00004 20.9992V17.9992H4.87504C3.98024 17.9982 3.12237 17.6423 2.48965 17.0096C1.85693 16.3769 1.50103 15.519 1.50004 14.6242V5.62421C1.50103 4.72941 1.85693 3.87154 2.48965 3.23882C3.12237 2.6061 3.98024 2.2502 4.87504 2.24921H19.125C20.0198 2.2502 20.8777 2.6061 21.5104 3.23882C22.1431 3.87154 22.499 4.72941 22.5 5.62421V14.6242C22.499 15.519 22.1431 16.3769 21.5104 17.0096C20.8777 17.6423 20.0198 17.9982 19.125 17.9992H11.5191L7.23051 21.5753C7.09554 21.6875 6.92558 21.7491 6.75004 21.7492Z" fill="#666666"/>
</svg>
