<svg width="24" height="24" viewBox="0 0 24 24" fill="none" xmlns="http://www.w3.org/2000/svg">
<path d="M18.6562 3.83729C16.7647 2.32384 14.4141 1.49984 11.9916 1.50104C9.13593 1.50104 6.46874 2.6012 4.47468 4.59901C2.54765 6.53213 1.49156 9.08448 1.49999 11.784C1.50006 13.7632 2.08111 15.6989 3.17109 17.3509L3.17999 17.3635C3.19312 17.3828 3.20671 17.402 3.22031 17.4207C3.2339 17.4395 3.25078 17.4639 3.25453 17.4699L3.26484 17.4887C3.31781 17.5824 3.35859 17.6968 3.32249 17.8121L2.45906 20.9368C2.42451 21.053 2.4056 21.1733 2.40281 21.2945C2.40218 21.6133 2.52801 21.9193 2.7527 22.1455C2.97738 22.3717 3.28259 22.4996 3.6014 22.501C3.76987 22.4955 3.93589 22.4591 4.09124 22.3937L7.25484 21.2518L7.29468 21.2364C7.38074 21.2002 7.47322 21.1819 7.56656 21.1824C7.65261 21.1827 7.73791 21.1985 7.81828 21.2293C7.89421 21.2589 8.58375 21.5228 9.31125 21.7262C9.91593 21.8949 11.1741 22.1481 12.1598 22.1481C14.9559 22.1481 17.5669 21.0653 19.5112 19.0984C21.4387 17.1465 22.5 14.552 22.5 11.7896C22.5002 11.0806 22.4251 10.3735 22.2759 9.68026C21.7912 7.4012 20.5059 5.32557 18.6562 3.83729ZM7.49999 13.501C7.20332 13.501 6.91331 13.4131 6.66664 13.2482C6.41997 13.0834 6.22771 12.8492 6.11418 12.5751C6.00064 12.301 5.97094 11.9994 6.02882 11.7084C6.08669 11.4174 6.22956 11.1502 6.43934 10.9404C6.64911 10.7306 6.91639 10.5877 7.20736 10.5299C7.49833 10.472 7.79993 10.5017 8.07402 10.6152C8.34811 10.7288 8.58238 10.921 8.7472 11.1677C8.91202 11.4144 8.99999 11.7044 8.99999 12.001C8.99999 12.3989 8.84196 12.7804 8.56065 13.0617C8.27935 13.343 7.89782 13.501 7.49999 13.501ZM12 13.501C11.7033 13.501 11.4133 13.4131 11.1666 13.2482C10.92 13.0834 10.7277 12.8492 10.6142 12.5751C10.5006 12.301 10.4709 11.9994 10.5288 11.7084C10.5867 11.4174 10.7296 11.1502 10.9393 10.9404C11.1491 10.7306 11.4164 10.5877 11.7074 10.5299C11.9983 10.472 12.2999 10.5017 12.574 10.6152C12.8481 10.7288 13.0824 10.921 13.2472 11.1677C13.412 11.4144 13.5 11.7044 13.5 12.001C13.5 12.3989 13.342 12.7804 13.0607 13.0617C12.7794 13.343 12.3978 13.501 12 13.501ZM16.5 13.501C16.2033 13.501 15.9133 13.4131 15.6666 13.2482C15.42 13.0834 15.2277 12.8492 15.1142 12.5751C15.0006 12.301 14.9709 11.9994 15.0288 11.7084C15.0867 11.4174 15.2296 11.1502 15.4393 10.9404C15.6491 10.7306 15.9164 10.5877 16.2074 10.5299C16.4983 10.472 16.7999 10.5017 17.074 10.6152C17.3481 10.7288 17.5824 10.921 17.7472 11.1677C17.912 11.4144 18 11.7044 18 12.001C18 12.3989 17.842 12.7804 17.5607 13.0617C17.2794 13.343 16.8978 13.501 16.5 13.501Z" fill="#666666"/>
</svg>
