<svg width="24" height="24" viewBox="0 0 24 24" fill="none" xmlns="http://www.w3.org/2000/svg">
<path d="M12.1358 2.24743C6.65236 2.17336 2.1758 6.64993 2.24986 12.1334C2.32299 17.3923 6.60502 21.6743 11.8639 21.7474C17.3483 21.8224 21.8239 17.3459 21.7489 11.8624C21.6767 6.60258 17.3947 2.32055 12.1358 2.24743ZM11.3488 11.2695L13.7652 8.50384C13.8961 8.35403 14.0811 8.26236 14.2796 8.249C14.4781 8.23564 14.6738 8.30168 14.8236 8.43258C14.9734 8.56349 15.0651 8.74855 15.0784 8.94705C15.0918 9.14554 15.0258 9.34122 14.8949 9.49102L12.4785 12.2566C12.4136 12.3308 12.3348 12.3915 12.2466 12.4352C12.1583 12.479 12.0623 12.5049 11.964 12.5115C11.8657 12.5181 11.7671 12.5053 11.6737 12.4738C11.5804 12.4423 11.4942 12.3927 11.42 12.3279C11.3458 12.2631 11.2852 12.1843 11.2414 12.096C11.1977 12.0077 11.1718 11.9117 11.1652 11.8134C11.1586 11.7152 11.1714 11.6165 11.2029 11.5232C11.2344 11.4299 11.2839 11.3436 11.3488 11.2695ZM9.52721 15.5281C9.38657 15.6686 9.19588 15.7476 8.99705 15.7476C8.79822 15.7476 8.60753 15.6686 8.46689 15.5281L6.21924 13.2781C6.14961 13.2084 6.0944 13.1257 6.05675 13.0346C6.01909 12.9436 5.99973 12.8461 5.99978 12.7476C5.99982 12.6491 6.01926 12.5515 6.057 12.4605C6.09473 12.3696 6.15002 12.2869 6.21971 12.2173C6.28939 12.1477 6.3721 12.0924 6.46312 12.0548C6.55414 12.0171 6.65169 11.9978 6.75019 11.9978C6.8487 11.9979 6.94623 12.0173 7.03721 12.055C7.1282 12.0928 7.21087 12.1481 7.28049 12.2177L9.53049 14.4677C9.6706 14.6088 9.74896 14.7998 9.74834 14.9986C9.74773 15.1974 9.66819 15.3879 9.52721 15.5281ZM17.8147 9.49102L12.5703 15.491C12.5028 15.5684 12.42 15.6312 12.3272 15.6753C12.2344 15.7194 12.1335 15.7439 12.0308 15.7474H12.0055C11.9069 15.7474 11.8093 15.728 11.7183 15.6903C11.6272 15.6526 11.5445 15.5973 11.4749 15.5276L9.22767 13.2776C9.08707 13.1369 9.00813 12.946 9.00821 12.7471C9.0083 12.5482 9.08741 12.3574 9.22814 12.2168C9.36887 12.0762 9.5597 11.9973 9.75863 11.9973C9.95757 11.9974 10.1483 12.0765 10.2889 12.2173L11.6858 13.6156C11.7221 13.6519 11.7655 13.6804 11.8133 13.6992C11.861 13.7181 11.9122 13.7269 11.9635 13.7252C12.0148 13.7235 12.0653 13.7113 12.1117 13.6893C12.1581 13.6672 12.1995 13.6359 12.2333 13.5973L16.6864 8.50384C16.8173 8.35403 17.0024 8.26236 17.2009 8.249C17.3994 8.23564 17.5951 8.30168 17.7449 8.43258C17.8947 8.56349 17.9863 8.74855 17.9997 8.94705C18.0131 9.14554 17.947 9.34122 17.8161 9.49102H17.8147Z" fill="#666666"/>
</svg>
