<svg width="24" height="24" viewBox="0 0 24 24" fill="none" xmlns="http://www.w3.org/2000/svg">
<path d="M18.7501 2.24561H5.25005C4.45467 2.24647 3.69211 2.56282 3.12969 3.12524C2.56727 3.68767 2.25092 4.45022 2.25005 5.24561V18.7456C2.25092 19.541 2.56727 20.3035 3.12969 20.866C3.69211 21.4284 4.45467 21.7447 5.25005 21.7456H18.7501C19.5454 21.7447 20.308 21.4284 20.8704 20.866C21.4328 20.3035 21.7492 19.541 21.7501 18.7456V5.24561C21.7492 4.45022 21.4328 3.68767 20.8704 3.12524C20.308 2.56282 19.5454 2.24647 18.7501 2.24561ZM17.0743 8.72795L10.7743 16.228C10.7052 16.3103 10.6192 16.3768 10.5221 16.4229C10.4251 16.4691 10.3192 16.4939 10.2118 16.4956H10.1991C10.094 16.4956 9.99005 16.4734 9.89403 16.4306C9.79802 16.3878 9.71207 16.3253 9.64177 16.2472L6.94177 13.2472C6.8732 13.1744 6.81986 13.0887 6.78488 12.9951C6.74991 12.9015 6.734 12.8018 6.7381 12.7019C6.7422 12.602 6.76622 12.504 6.80875 12.4135C6.85129 12.3231 6.91147 12.242 6.98577 12.1752C7.06007 12.1083 7.14699 12.057 7.24141 12.0242C7.33584 11.9914 7.43586 11.9778 7.53561 11.9842C7.63536 11.9906 7.73283 12.0169 7.82227 12.0615C7.91171 12.1062 7.99134 12.1682 8.05646 12.244L10.1794 14.6028L15.9258 7.76326C16.0547 7.61424 16.2371 7.52192 16.4335 7.50627C16.6299 7.49062 16.8246 7.55289 16.9755 7.67962C17.1264 7.80635 17.2213 7.98737 17.2398 8.18353C17.2583 8.3797 17.1988 8.57526 17.0743 8.72795Z" fill="#666666"/>
</svg>
