<svg width="24" height="24" viewBox="0 0 24 24" fill="none" xmlns="http://www.w3.org/2000/svg">
<path d="M12.0001 2.24561C6.62398 2.24561 2.25008 6.61951 2.25008 11.9956C2.25008 17.3717 6.62398 21.7456 12.0001 21.7456C17.3762 21.7456 21.7501 17.3717 21.7501 11.9956C21.7501 6.61951 17.3762 2.24561 12.0001 2.24561ZM14.259 7.93717L15.3887 8.92436L11.9382 12.8665L10.8085 11.7856L14.259 7.93717ZM8.9968 16.0564L5.6893 12.7456L6.75008 11.6848L10.058 14.9956L8.9968 16.0564ZM12.0437 16.0934L8.69773 12.7456L9.75898 11.6853L11.9696 13.8983L17.1788 7.93717L18.3085 8.92436L12.0437 16.0934Z" fill="#666666"/>
</svg>
