<svg width="24" height="24" viewBox="0 0 24 24" fill="none" xmlns="http://www.w3.org/2000/svg">
<path d="M12 2.24561C6.62386 2.24561 2.24995 6.61951 2.24995 11.9956C2.24995 17.3717 6.62386 21.7456 12 21.7456C17.376 21.7456 21.75 17.3717 21.75 11.9956C21.75 6.61951 17.376 2.24561 12 2.24561ZM17.0742 8.72795L10.7742 16.228C10.7051 16.3103 10.6191 16.3768 10.522 16.4229C10.425 16.4691 10.3191 16.4939 10.2117 16.4956H10.199C10.0939 16.4956 9.98995 16.4734 9.89394 16.4306C9.79792 16.3878 9.71197 16.3253 9.64167 16.2472L6.94167 13.2472C6.8731 13.1744 6.81976 13.0887 6.78479 12.9951C6.74981 12.9015 6.7339 12.8018 6.738 12.7019C6.7421 12.602 6.76613 12.504 6.80866 12.4135C6.85119 12.3231 6.91138 12.242 6.98568 12.1752C7.05998 12.1083 7.14689 12.057 7.24132 12.0242C7.33574 11.9914 7.43577 11.9778 7.53552 11.9842C7.63527 11.9906 7.73273 12.0169 7.82217 12.0615C7.91162 12.1062 7.99124 12.1682 8.05636 12.244L10.1793 14.6028L15.9257 7.76326C16.0546 7.61424 16.237 7.52192 16.4334 7.50627C16.6298 7.49062 16.8245 7.55289 16.9754 7.67962C17.1263 7.80635 17.2212 7.98737 17.2397 8.18353C17.2582 8.3797 17.1987 8.57526 17.0742 8.72795Z" fill="#666666"/>
</svg>
