<svg width="24" height="24" viewBox="0 0 24 24" fill="none" xmlns="http://www.w3.org/2000/svg">
<path d="M12.0001 2.24652C6.61555 2.24652 2.25008 6.61199 2.25008 11.9965C2.25008 17.3811 6.61555 21.7465 12.0001 21.7465C17.3846 21.7465 21.7501 17.3811 21.7501 11.9965C21.7501 6.61199 17.3846 2.24652 12.0001 2.24652ZM13.6552 15.9664C13.7278 16.0353 13.7858 16.1181 13.8259 16.2098C13.866 16.3016 13.8873 16.4004 13.8886 16.5005C13.8899 16.6006 13.8711 16.6999 13.8334 16.7927C13.7957 16.8854 13.7398 16.9696 13.669 17.0404C13.5982 17.1112 13.514 17.1671 13.4212 17.2048C13.3285 17.2425 13.2292 17.2613 13.1291 17.26C13.029 17.2588 12.9301 17.2374 12.8384 17.1974C12.7467 17.1573 12.6639 17.0993 12.5949 17.0267L8.09492 12.5267C7.95437 12.386 7.87542 12.1953 7.87542 11.9965C7.87542 11.7977 7.95437 11.607 8.09492 11.4664L12.5949 6.96637C12.7367 6.83165 12.9255 6.75766 13.1211 6.76016C13.3167 6.76266 13.5035 6.84147 13.6418 6.97977C13.7801 7.11807 13.8589 7.30493 13.8614 7.5005C13.8639 7.69607 13.7899 7.88488 13.6552 8.02668L9.68586 11.9965L13.6552 15.9664Z" fill="#666666"/>
</svg>
