<svg width="24" height="24" viewBox="0 0 24 24" fill="none" xmlns="http://www.w3.org/2000/svg">
<path d="M2.25001 11.9984C2.25001 17.3829 6.61548 21.7484 12 21.7484C17.3845 21.7484 21.75 17.3829 21.75 11.9984C21.75 6.61382 17.3845 2.24835 12 2.24835C6.61548 2.24835 2.25001 6.61382 2.25001 11.9984ZM14.3142 11.9984L10.3449 8.02851C10.2101 7.88671 10.1361 7.6979 10.1386 7.50233C10.1412 7.30676 10.22 7.1199 10.3583 6.9816C10.4966 6.8433 10.6834 6.7645 10.879 6.76199C11.0746 6.75949 11.2634 6.83348 11.4052 6.9682L15.9052 11.4682C16.0457 11.6088 16.1247 11.7995 16.1247 11.9984C16.1247 12.1972 16.0457 12.3879 15.9052 12.5285L11.4052 17.0285C11.2634 17.1632 11.0746 17.2372 10.879 17.2347C10.6834 17.2322 10.4966 17.1534 10.3583 17.0151C10.22 16.8768 10.1412 16.6899 10.1386 16.4944C10.1361 16.2988 10.2101 16.11 10.3449 15.9682L14.3142 11.9984Z" fill="#666666"/>
</svg>
