<svg width="24" height="24" viewBox="0 0 24 24" fill="none" xmlns="http://www.w3.org/2000/svg">
<path d="M21.7501 11.9974C21.7501 6.61291 17.3846 2.24744 12.0001 2.24744C6.61558 2.24744 2.25011 6.61291 2.25011 11.9974C2.25011 17.382 6.61558 21.7474 12.0001 21.7474C17.3846 21.7474 21.7501 17.382 21.7501 11.9974ZM17.0303 10.6526L12.5303 15.1526C12.3896 15.2931 12.1989 15.3721 12.0001 15.3721C11.8013 15.3721 11.6106 15.2931 11.47 15.1526L6.96996 10.6526C6.83524 10.5108 6.76125 10.322 6.76375 10.1264C6.76626 9.93084 6.84506 9.74399 6.98336 9.60568C7.12166 9.46738 7.30852 9.38858 7.50409 9.38608C7.69966 9.38357 7.88847 9.45757 8.03027 9.59228L12.0001 13.5617L15.97 9.59228C16.1118 9.45757 16.3006 9.38357 16.4961 9.38608C16.6917 9.38858 16.8786 9.46738 17.0169 9.60568C17.1552 9.74399 17.234 9.93084 17.2365 10.1264C17.239 10.322 17.165 10.5108 17.0303 10.6526Z" fill="#666666"/>
</svg>
