<svg width="24" height="24" viewBox="0 0 24 24" fill="none" xmlns="http://www.w3.org/2000/svg">
<path d="M12 2.24835C6.61542 2.24835 2.24995 6.61382 2.24995 11.9984C2.24995 17.3829 6.61542 21.7484 12 21.7484C17.3845 21.7484 21.75 17.3829 21.75 11.9984C21.75 6.61382 17.3845 2.24835 12 2.24835ZM17.0301 14.4035C16.8895 14.5441 16.6988 14.623 16.5 14.623C16.3011 14.623 16.1104 14.5441 15.9698 14.4035L12 10.4341L8.03011 14.4035C7.88831 14.5382 7.6995 14.6122 7.50393 14.6097C7.30836 14.6072 7.1215 14.5284 6.9832 14.3901C6.8449 14.2518 6.7661 14.0649 6.76359 13.8694C6.76109 13.6738 6.83508 13.485 6.9698 13.3432L11.4698 8.8432C11.6104 8.70265 11.8011 8.6237 12 8.6237C12.1988 8.6237 12.3895 8.70265 12.5301 8.8432L17.0301 13.3432C17.1707 13.4838 17.2496 13.6745 17.2496 13.8734C17.2496 14.0722 17.1707 14.2629 17.0301 14.4035Z" fill="#666666"/>
</svg>
