<svg width="24" height="24" viewBox="0 0 24 24" fill="none" xmlns="http://www.w3.org/2000/svg">
<g clip-path="url(#clip0_32_1054)">
<path d="M19.6875 2.24835H16.5V1.31085C16.5 1.16167 16.4407 1.01859 16.3352 0.913105C16.2297 0.807615 16.0867 0.748352 15.9375 0.748352H8.06249C7.9133 0.748352 7.77023 0.807615 7.66474 0.913105C7.55925 1.01859 7.49999 1.16167 7.49999 1.31085V2.24835H4.31248C4.1633 2.24835 4.02023 2.30762 3.91474 2.4131C3.80925 2.51859 3.74998 2.66167 3.74998 2.81085V22.6859C3.74998 22.835 3.80925 22.9781 3.91474 23.0836C4.02023 23.1891 4.1633 23.2484 4.31248 23.2484H19.6875C19.8367 23.2484 19.9797 23.1891 20.0852 23.0836C20.1907 22.9781 20.25 22.835 20.25 22.6859V2.81085C20.25 2.66167 20.1907 2.51859 20.0852 2.4131C19.9797 2.30762 19.8367 2.24835 19.6875 2.24835ZM15.7439 5.24835H8.25608V3.74835H15.7439V5.24835Z" fill="#666666"/>
</g>
<defs>
<clipPath id="clip0_32_1054">
<rect width="24" height="24" fill="white" transform="translate(0.00012207 -0.00390625)"/>
</clipPath>
</defs>
</svg>
