<svg width="24" height="24" viewBox="0 0 24 24" fill="none" xmlns="http://www.w3.org/2000/svg">
<g clip-path="url(#clip0_32_1051)">
<path d="M15.7501 2.99744H17.2501C17.8468 2.99744 18.4191 3.23449 18.8411 3.65645C19.263 4.0784 19.5001 4.6507 19.5001 5.24744V20.2474C19.5001 20.8442 19.263 21.4165 18.8411 21.8384C18.4191 22.2604 17.8468 22.4974 17.2501 22.4974H6.75009C6.15335 22.4974 5.58106 22.2604 5.1591 21.8384C4.73714 21.4165 4.50009 20.8442 4.50009 20.2474V5.24744C4.50009 4.6507 4.73714 4.0784 5.1591 3.65645C5.58106 3.23449 6.15335 2.99744 6.75009 2.99744H8.25009" stroke="#666666" stroke-width="1.5" stroke-linejoin="round"/>
<path d="M14.5251 1.49658H9.4748C8.79834 1.49658 8.24995 2.04496 8.24995 2.72143V3.27174C8.24995 3.9482 8.79834 4.49658 9.4748 4.49658H14.5251C15.2016 4.49658 15.75 3.9482 15.75 3.27174V2.72143C15.75 2.04496 15.2016 1.49658 14.5251 1.49658Z" stroke="#666666" stroke-width="1.5" stroke-linejoin="round"/>
</g>
<defs>
<clipPath id="clip0_32_1051">
<rect width="24" height="24" fill="white" transform="translate(-0.00012207 -0.00390625)"/>
</clipPath>
</defs>
</svg>
