<svg width="24" height="24" viewBox="0 0 24 24" fill="none" xmlns="http://www.w3.org/2000/svg">
<g clip-path="url(#clip0_32_1056)">
<path d="M17.25 2.24835H16.7152C16.6399 2.24828 16.5663 2.22552 16.5041 2.18305C16.4419 2.14057 16.3939 2.08035 16.3665 2.01023C16.2224 1.63891 15.9695 1.31977 15.6409 1.09461C15.3124 0.869444 14.9235 0.748757 14.5252 0.748352H9.47489C9.0766 0.748757 8.68771 0.869444 8.35916 1.09461C8.03062 1.31977 7.77774 1.63891 7.63364 2.01023C7.60615 2.08035 7.55818 2.14057 7.49597 2.18305C7.43377 2.22552 7.36021 2.24828 7.28489 2.24835H6.75005C5.9544 2.24835 5.19133 2.56442 4.62873 3.12703C4.06612 3.68964 3.75005 4.4527 3.75005 5.24835V20.2484C3.75005 21.044 4.06612 21.8071 4.62873 22.3697C5.19133 22.9323 5.9544 23.2484 6.75005 23.2484H17.25C18.0457 23.2484 18.8088 22.9323 19.3714 22.3697C19.934 21.8071 20.25 21.044 20.25 20.2484V5.24835C20.25 4.4527 19.934 3.68964 19.3714 3.12703C18.8088 2.56442 18.0457 2.24835 17.25 2.24835ZM14.994 5.24835H9.00614C8.80723 5.24835 8.61646 5.16934 8.47581 5.02868C8.33516 4.88803 8.25614 4.69727 8.25614 4.49835C8.25614 4.29944 8.33516 4.10868 8.47581 3.96802C8.61646 3.82737 8.80723 3.74835 9.00614 3.74835H14.994C15.1929 3.74835 15.3836 3.82737 15.5243 3.96802C15.6649 4.10868 15.744 4.29944 15.744 4.49835C15.744 4.69727 15.6649 4.88803 15.5243 5.02868C15.3836 5.16934 15.1929 5.24835 14.994 5.24835Z" fill="#666666"/>
</g>
<defs>
<clipPath id="clip0_32_1056">
<rect width="24" height="24" fill="white" transform="translate(0 -0.00390625)"/>
</clipPath>
</defs>
</svg>
