<svg width="24" height="24" viewBox="0 0 24 24" fill="none" xmlns="http://www.w3.org/2000/svg">
<path d="M12 2.24927C6.62394 2.24927 2.25003 6.62317 2.25003 11.9993C2.25003 17.3754 6.62394 21.7493 12 21.7493C17.3761 21.7493 21.75 17.3754 21.75 11.9993C21.75 6.62317 17.3761 2.24927 12 2.24927ZM15.5302 14.4691C15.6028 14.5381 15.6608 14.6208 15.7009 14.7126C15.741 14.8043 15.7623 14.9031 15.7636 15.0032C15.7648 15.1033 15.7461 15.2027 15.7083 15.2954C15.6706 15.3881 15.6147 15.4724 15.5439 15.5432C15.4732 15.614 15.3889 15.6699 15.2962 15.7076C15.2035 15.7453 15.1041 15.7641 15.004 15.7628C14.9039 15.7615 14.8051 15.7402 14.7133 15.7001C14.6216 15.66 14.5388 15.602 14.4699 15.5294L12 13.0601L9.53019 15.5294C9.38839 15.6641 9.19958 15.7381 9.00401 15.7356C8.80844 15.7331 8.62158 15.6543 8.48328 15.516C8.34498 15.3777 8.26618 15.1909 8.26367 14.9953C8.26117 14.7997 8.33516 14.6109 8.46988 14.4691L10.9393 11.9993L8.46988 9.52942C8.33516 9.38763 8.26117 9.19882 8.26367 9.00324C8.26618 8.80767 8.34498 8.62082 8.48328 8.48252C8.62158 8.34421 8.80844 8.26541 9.00401 8.26291C9.19958 8.2604 9.38839 8.3344 9.53019 8.46911L12 10.9385L14.4699 8.46911C14.6117 8.3344 14.8005 8.2604 14.9961 8.26291C15.1916 8.26541 15.3785 8.34421 15.5168 8.48252C15.6551 8.62082 15.7339 8.80767 15.7364 9.00324C15.7389 9.19882 15.6649 9.38763 15.5302 9.52942L13.0608 11.9993L15.5302 14.4691Z" fill="#666666"/>
</svg>
