<svg width="24" height="24" viewBox="0 0 24 24" fill="none" xmlns="http://www.w3.org/2000/svg">
<path d="M13.5909 11.9976L18.044 7.54449C18.2554 7.33352 18.3743 7.04724 18.3745 6.74861C18.3748 6.44999 18.2564 6.16349 18.0454 5.95215C17.8345 5.7408 17.5482 5.62192 17.2496 5.62166C16.9509 5.6214 16.6644 5.73977 16.4531 5.95074L12 10.4039L7.54685 5.95074C7.33551 5.7394 7.04886 5.62067 6.74998 5.62067C6.45109 5.62067 6.16445 5.7394 5.9531 5.95074C5.74176 6.16209 5.62302 6.44873 5.62302 6.74762C5.62302 7.0465 5.74176 7.33315 5.9531 7.54449L10.4062 11.9976L5.9531 16.4507C5.74176 16.6621 5.62302 16.9487 5.62302 17.2476C5.62302 17.5465 5.74176 17.8332 5.9531 18.0445C6.16445 18.2558 6.45109 18.3746 6.74998 18.3746C7.04886 18.3746 7.33551 18.2558 7.54685 18.0445L12 13.5914L16.4531 18.0445C16.6644 18.2558 16.9511 18.3746 17.25 18.3746C17.5489 18.3746 17.8355 18.2558 18.0469 18.0445C18.2582 17.8332 18.3769 17.5465 18.3769 17.2476C18.3769 16.9487 18.2582 16.6621 18.0469 16.4507L13.5909 11.9976Z" fill="#666666"/>
</svg>
