<svg width="24" height="24" viewBox="0 0 24 24" fill="none" xmlns="http://www.w3.org/2000/svg">
<path d="M12.0001 2.24567C6.61554 2.24567 2.25007 6.61114 2.25007 11.9957C2.25007 17.3802 6.61554 21.7457 12.0001 21.7457C17.3846 21.7457 21.7501 17.3802 21.7501 11.9957C21.7501 6.61114 17.3846 2.24567 12.0001 2.24567ZM15.2813 15.3707H9.04929C7.57132 15.3707 6.35116 14.1716 6.37741 12.6936C6.40226 11.2058 7.48741 10.3522 8.78444 10.1483C8.84893 10.1381 8.90959 10.111 8.96028 10.0699C9.01098 10.0287 9.04993 9.97496 9.07319 9.91395C9.4721 8.86535 10.4827 7.87067 12.0001 7.87067C13.5549 7.87067 14.8993 8.92489 15.2879 10.693C15.3215 10.8453 15.3973 10.9851 15.5065 11.0964C15.6157 11.2077 15.7541 11.2861 15.9057 11.3225C16.7715 11.5293 17.6251 12.1461 17.6251 13.3082C17.6251 14.7275 16.5704 15.3707 15.2813 15.3707Z" fill="#666666"/>
</svg>
