<svg width="24" height="24" viewBox="0 0 24 24" fill="none" xmlns="http://www.w3.org/2000/svg">
<g clip-path="url(#clip0_32_1083)">
<path d="M19.8957 10.649C19.7552 10.617 19.6269 10.5452 19.5261 10.4422C19.4254 10.3392 19.3564 10.2094 19.3275 10.0682C18.9675 8.34885 18.1814 6.87369 17.0222 5.75572C15.673 4.45862 13.8716 3.73801 12 3.74666C10.336 3.74666 8.80128 4.29463 7.56191 5.33103C6.71557 6.04587 6.04242 6.94339 5.59315 7.95603C5.5447 8.06467 5.47109 8.16022 5.37842 8.2348C5.28575 8.30937 5.17667 8.36084 5.06019 8.38494C3.79456 8.64838 2.66628 9.19775 1.81737 9.9726C0.627685 11.0535 2.86102e-05 12.532 2.86102e-05 14.2467C2.86102e-05 15.9342 0.674091 17.4754 1.898 18.5868C3.0769 19.6574 4.6669 20.2467 6.37503 20.2467H18.5625C20.0799 20.2467 21.3858 19.8449 22.3402 19.0856C23.4263 18.2207 24 16.9368 24 15.3717C24 12.6731 22.0313 11.1257 19.8957 10.649ZM15.4332 10.2299L10.38 16.2299C10.3108 16.3121 10.2248 16.3784 10.1278 16.4244C10.0307 16.4704 9.92492 16.4951 9.81753 16.4967H9.80487C9.6999 16.4967 9.59609 16.4747 9.50017 16.432C9.40424 16.3894 9.31833 16.3271 9.248 16.2492L7.09644 13.8646C6.82597 13.5651 6.82362 13.0992 7.1105 12.8146C7.18252 12.743 7.26833 12.6868 7.36272 12.6494C7.45711 12.6119 7.55813 12.5941 7.65964 12.5968C7.76115 12.5996 7.86104 12.6229 7.95326 12.6654C8.04548 12.708 8.1281 12.7688 8.19613 12.8442L9.78519 14.6057L14.2852 9.26197C14.3487 9.18663 14.4263 9.12452 14.5138 9.0792C14.6013 9.03387 14.6968 9.00622 14.795 8.99782C14.8931 8.98942 14.992 9.00043 15.0859 9.03023C15.1798 9.06003 15.2669 9.10804 15.3422 9.1715C15.4176 9.23497 15.4797 9.31265 15.525 9.40012C15.5703 9.48759 15.598 9.58313 15.6064 9.68128C15.6148 9.77944 15.6038 9.87829 15.574 9.97218C15.5442 10.0661 15.4962 10.1532 15.4327 10.2285L15.4332 10.2299Z" fill="#666666"/>
</g>
<defs>
<clipPath id="clip0_32_1083">
<rect width="24" height="24" fill="white"/>
</clipPath>
</defs>
</svg>
