<svg width="24" height="24" viewBox="0 0 24 24" fill="none" xmlns="http://www.w3.org/2000/svg">
<g clip-path="url(#clip0_32_1105)">
<path d="M22.2028 9.84114C21.4266 9.26458 20.4357 8.86849 19.4128 8.71614C19.1025 6.87958 18.278 5.30974 17.0082 4.14817C15.6633 2.91536 13.8849 2.23755 12 2.23755C10.343 2.23755 8.81253 2.75692 7.57644 3.73989C6.6373 4.48765 5.90583 5.46396 5.45206 6.57536C4.04862 6.79099 2.77456 7.35724 1.8244 8.19489C0.630966 9.24724 2.86102e-05 10.6493 2.86102e-05 12.2501C2.86102e-05 13.8682 0.679248 15.3438 1.91206 16.4107C3.08956 17.4274 4.67487 17.9876 6.37503 17.9876H11.25V10.7983L9.00003 13.0483L7.93925 11.9876L12 7.92724L16.0608 11.9876L15 13.0483L12.75 10.7983V17.9876H18.5625C20.0316 17.9876 21.3708 17.5751 22.3336 16.8265C23.4239 15.978 24 14.764 24 13.3188C24 11.9154 23.3785 10.7121 22.2028 9.84114ZM11.25 17.9876H12.75V21.7568H11.25V17.9876Z" fill="#666666"/>
</g>
<defs>
<clipPath id="clip0_32_1105">
<rect width="24" height="24" fill="white" transform="translate(0 -0.00390625)"/>
</clipPath>
</defs>
</svg>
