<svg width="24" height="24" viewBox="0 0 24 24" fill="none" xmlns="http://www.w3.org/2000/svg">
<g clip-path="url(#clip0_32_1118)">
<path d="M4.69589 11.3024C4.85278 11.2788 4.99811 11.206 5.11079 11.0943C5.22348 10.9826 5.29767 10.8379 5.3226 10.6813C5.93432 6.82111 8.73464 4.49658 11.9999 4.49658C15.0323 4.49658 17.0526 6.48221 17.8556 8.57471C17.9028 8.69889 17.982 8.8084 18.0852 8.89218C18.1883 8.97597 18.3117 9.03106 18.4429 9.0519C21.0637 9.46815 23.25 11.2096 23.25 14.2466C23.25 17.3403 20.7187 19.4966 17.625 19.4966H5.43745C2.85932 19.4966 0.749947 18.2103 0.749947 15.3716C0.749947 12.8202 2.80729 11.5836 4.69589 11.3024Z" stroke="#666666" stroke-width="1.5" stroke-linejoin="round"/>
</g>
<defs>
<clipPath id="clip0_32_1118">
<rect width="24" height="24" fill="white"/>
</clipPath>
</defs>
</svg>
