<svg width="24" height="24" viewBox="0 0 24 24" fill="none" xmlns="http://www.w3.org/2000/svg">
<g clip-path="url(#clip0_32_1089)">
<path d="M22.1579 8.88025C21.5363 8.4851 20.7596 8.19775 19.9041 8.03978C19.76 8.01218 19.6271 7.94288 19.5219 7.84048C19.4168 7.73807 19.344 7.60706 19.3126 7.46369C18.9441 5.84603 18.1595 4.45759 17.0087 3.40525C15.6634 2.17478 13.8849 1.49744 12.0001 1.49744C10.343 1.49744 8.81258 2.01681 7.57648 2.99744C6.74164 3.66305 6.0692 4.50989 5.61008 5.47384C5.559 5.58254 5.48265 5.67743 5.3874 5.75058C5.29215 5.82373 5.18077 5.87301 5.06258 5.89431C3.79086 6.124 2.69398 6.58244 1.85586 7.23963C0.642264 8.1926 7.62939e-05 9.53931 7.62939e-05 11.1349C7.62939e-05 14.2943 2.6218 16.4974 6.37508 16.4974H11.2501V10.5185C11.2501 10.1149 11.5604 9.76853 11.964 9.74838C12.0654 9.74349 12.1667 9.75924 12.2619 9.79468C12.357 9.83012 12.444 9.88451 12.5175 9.95454C12.591 10.0246 12.6495 10.1088 12.6895 10.2021C12.7294 10.2954 12.7501 10.3959 12.7501 10.4974V16.4974H18.5626C21.9676 16.4974 24.0001 14.8924 24.0001 12.2037C24.0001 10.7951 23.3631 9.64572 22.1579 8.88025ZM11.2501 19.939L9.52977 18.2215C9.38829 18.0844 9.19853 18.0085 9.00152 18.0101C8.80451 18.0118 8.61606 18.0909 8.4769 18.2303C8.33774 18.3698 8.25905 18.5584 8.25783 18.7554C8.25661 18.9525 8.33297 19.142 8.47039 19.2832L11.4704 22.2781C11.611 22.4183 11.8015 22.4971 12.0001 22.4971C12.1987 22.4971 12.3892 22.4183 12.5298 22.2781L15.5298 19.2832C15.6672 19.142 15.7435 18.9525 15.7423 18.7554C15.7411 18.5584 15.6624 18.3698 15.5233 18.2303C15.3841 18.0909 15.1956 18.0118 14.9986 18.0101C14.8016 18.0085 14.6119 18.0844 14.4704 18.2215L12.7501 19.939V16.4974H11.2501V19.939Z" fill="#666666"/>
</g>
<defs>
<clipPath id="clip0_32_1089">
<rect width="24" height="24" fill="white"/>
</clipPath>
</defs>
</svg>
