<svg width="24" height="24" viewBox="0 0 24 24" fill="none" xmlns="http://www.w3.org/2000/svg">
<g clip-path="url(#clip0_32_1122)">
<path d="M17.625 20.2484H5.43755C3.9202 20.2484 2.61427 19.8467 1.65989 19.0873C0.573796 18.2225 4.57764e-05 16.9386 4.57764e-05 15.3734C4.57764e-05 12.6748 1.9688 11.1275 4.10442 10.6508C4.2449 10.6188 4.37319 10.547 4.47394 10.444C4.57469 10.341 4.64364 10.2111 4.67255 10.07C5.03255 8.35062 5.81864 6.87546 6.97786 5.75749C8.3271 4.46039 10.1285 3.73978 12 3.74843C13.6641 3.74843 15.1988 4.2964 16.4382 5.3328C17.2854 6.04739 17.9593 6.94493 18.4093 7.9578C18.4577 8.06653 18.5312 8.16217 18.6239 8.23683C18.7166 8.31149 18.8257 8.36303 18.9422 8.38718C20.2079 8.65015 21.3361 9.19952 22.1851 9.9739C23.3724 11.0553 24.0001 12.5337 24.0001 14.2484C24.0001 15.9359 23.326 17.4772 22.1021 18.5886C20.9232 19.6592 19.3332 20.2484 17.625 20.2484Z" fill="#666666"/>
</g>
<defs>
<clipPath id="clip0_32_1122">
<rect width="24" height="24" fill="white"/>
</clipPath>
</defs>
</svg>
