<svg width="24" height="24" viewBox="0 0 24 24" fill="none" xmlns="http://www.w3.org/2000/svg">
<g clip-path="url(#clip0_32_1107)">
<path d="M22.2028 9.84114C21.5465 9.35458 20.7403 8.99739 19.889 8.80474C19.7492 8.77329 19.6213 8.70274 19.5201 8.60131C19.419 8.49989 19.3487 8.37177 19.3176 8.23192C18.952 6.60302 18.165 5.20614 17.0081 4.14771C15.6632 2.91536 13.8848 2.23755 12 2.23755C10.3429 2.23755 8.81245 2.75692 7.57636 3.73989C6.73862 4.40714 6.06429 5.25686 5.6048 6.22427C5.55498 6.33012 5.48109 6.42285 5.38903 6.49504C5.29698 6.56724 5.18931 6.6169 5.07464 6.64005C3.82073 6.89317 2.6887 7.43083 1.82433 8.19255C0.630888 9.24724 -4.95911e-05 10.6493 -4.95911e-05 12.2501C-4.95911e-05 13.8682 0.679169 15.3438 1.91198 16.4107C3.08948 17.4274 4.6748 17.9876 6.37495 17.9876H11.25V10.7983L9.53011 12.5182C9.45831 12.59 9.37268 12.6464 9.2784 12.6842C9.18413 12.7219 9.08318 12.7401 8.98167 12.7376C8.88017 12.7351 8.78021 12.7121 8.68787 12.6699C8.59553 12.6276 8.51273 12.5671 8.44448 12.4919C8.17261 12.1933 8.19886 11.7279 8.48433 11.4424L11.4698 8.45739C11.6104 8.31685 11.8011 8.2379 12 8.2379C12.1988 8.2379 12.3895 8.31685 12.5301 8.45739L15.5156 11.4415C15.81 11.7363 15.8268 12.2196 15.5339 12.5154C15.4644 12.5856 15.3817 12.6413 15.2905 12.6795C15.1994 12.7176 15.1017 12.7374 15.0029 12.7377C14.9041 12.7379 14.8062 12.7187 14.7149 12.681C14.6236 12.6433 14.5406 12.588 14.4707 12.5182L12.75 10.7983V17.9876H18.5625C20.0315 17.9876 21.3707 17.5751 22.3335 16.8265C23.4239 15.978 24 14.764 24 13.3188C24 11.9154 23.3784 10.7121 22.2028 9.84114ZM11.25 21.0072C11.25 21.2062 11.329 21.3969 11.4696 21.5376C11.6103 21.6782 11.801 21.7572 12 21.7572C12.1989 21.7572 12.3896 21.6782 12.5303 21.5376C12.6709 21.3969 12.75 21.2062 12.75 21.0072V17.9876H11.25V21.0072Z" fill="#666666"/>
</g>
<defs>
<clipPath id="clip0_32_1107">
<rect width="24" height="24" fill="white" transform="translate(0 -0.00390625)"/>
</clipPath>
</defs>
</svg>
