<svg width="24" height="24" viewBox="0 0 24 24" fill="none" xmlns="http://www.w3.org/2000/svg">
<path d="M15.6507 11.2733C15.5723 11.261 15.4999 11.2241 15.4438 11.168C15.3877 11.1119 15.3508 11.0395 15.3385 10.9611C15.0319 9.03223 13.6322 7.87067 12.0001 7.87067C10.4827 7.87067 9.47209 8.86535 9.07131 9.91348C9.04804 9.97449 9.00909 10.0283 8.9584 10.0694C8.9077 10.1106 8.84705 10.1376 8.78256 10.1479C7.48553 10.3518 6.40037 11.2054 6.37553 12.6932C6.35115 14.1711 7.57131 15.3702 9.0474 15.3702H15.2813C16.5704 15.3702 17.6251 14.7271 17.6251 13.3077C17.6251 12.0318 16.5938 11.4135 15.6507 11.2733Z" fill="#666666"/>
<path d="M21 11.9984C21 7.0296 16.9687 2.99835 12 2.99835C7.03122 2.99835 2.99997 7.0296 2.99997 11.9984C2.99997 16.9671 7.03122 20.9984 12 20.9984C16.9687 20.9984 21 16.9671 21 11.9984Z" stroke="#666666" stroke-width="1.5" stroke-miterlimit="10"/>
</svg>
