<svg width="24" height="24" viewBox="0 0 24 24" fill="none" xmlns="http://www.w3.org/2000/svg">
<g clip-path="url(#clip0_32_1096)">
<path d="M20.9999 21.7465C20.9014 21.7467 20.8039 21.7273 20.7129 21.6896C20.6219 21.6518 20.5393 21.5965 20.4698 21.5267L2.46977 3.52665C2.33505 3.38485 2.26106 3.19604 2.26356 3.00047C2.26607 2.8049 2.34487 2.61804 2.48317 2.47974C2.62147 2.34144 2.80833 2.26264 3.0039 2.26013C3.19947 2.25763 3.38828 2.33162 3.53008 2.46634L21.5301 20.4663C21.6349 20.5712 21.7063 20.7048 21.7352 20.8503C21.7641 20.9957 21.7492 21.1465 21.6925 21.2835C21.6358 21.4205 21.5397 21.5376 21.4164 21.62C21.2932 21.7024 21.1482 21.7464 20.9999 21.7465ZM1.81492 9.22056C0.62758 10.3034 -7.62939e-05 11.7818 -7.62939e-05 13.4965C-7.62939e-05 15.184 0.673986 16.7252 1.89789 17.8367C3.0768 18.9073 4.6668 19.4965 6.37493 19.4965H15.4124C15.4866 19.4966 15.5592 19.4746 15.6209 19.4334C15.6826 19.3922 15.7308 19.3336 15.7592 19.265C15.7876 19.1965 15.795 19.121 15.7805 19.0483C15.766 18.9755 15.7302 18.9086 15.6777 18.8562L4.72867 7.90712C4.68057 7.85892 4.62025 7.82472 4.55418 7.80821C4.48812 7.79169 4.4188 7.79347 4.35367 7.81337C3.37492 8.1129 2.50305 8.59243 1.81492 9.22056ZM22.3401 18.3354C23.4262 17.4706 23.9999 16.1867 23.9999 14.6215C23.9999 11.9229 22.0312 10.3756 19.8956 9.89884C19.7551 9.86683 19.6268 9.79503 19.526 9.69204C19.4253 9.58904 19.3563 9.45921 19.3274 9.31806C18.9674 7.59868 18.1813 6.12353 17.0221 5.00556C15.6729 3.70846 13.8715 2.98784 11.9999 2.99649C10.5412 2.99649 9.1818 3.41837 8.03336 4.21993C7.98788 4.25104 7.94981 4.2918 7.92187 4.33929C7.89393 4.38679 7.8768 4.43986 7.87169 4.49473C7.86659 4.5496 7.87365 4.60491 7.89235 4.65675C7.91106 4.70858 7.94096 4.75565 7.97993 4.79462L21.6412 18.4559C21.7032 18.5179 21.785 18.5562 21.8724 18.5642C21.9597 18.5722 22.0471 18.5493 22.1193 18.4995C22.1952 18.447 22.2688 18.3923 22.3401 18.3354Z" fill="#666666"/>
</g>
<defs>
<clipPath id="clip0_32_1096">
<rect width="24" height="24" fill="white" transform="translate(-0.00012207 -0.00390625)"/>
</clipPath>
</defs>
</svg>
