<svg width="24" height="24" viewBox="0 0 24 24" fill="none" xmlns="http://www.w3.org/2000/svg">
<path d="M1.93922 2.99623L2.99991 1.93555L22.0606 20.9962L21 22.0569L1.93922 2.99623ZM1.815 9.9703C0.627656 11.0531 0 12.5315 0 14.2462C0 15.9337 0.674063 17.475 1.89797 18.5864C3.07688 19.657 4.66688 20.2462 6.375 20.2462H17.0681L5.18016 8.35827C3.86719 8.61092 2.69156 9.17061 1.815 9.9703ZM22.3402 19.0851C23.4263 18.2203 24 16.9364 24 15.3712C24 12.472 21.7294 10.9022 19.418 10.56C19.1123 8.62967 18.2906 6.97873 17.0222 5.75717C15.6733 4.45939 13.8718 3.73809 12 3.74623C10.5717 3.74623 9.23906 4.1503 8.1061 4.91811L22.3008 19.1147C22.3125 19.1048 22.3275 19.0955 22.3402 19.0851Z" fill="#666666"/>
</svg>
