<svg width="24" height="24" viewBox="0 0 24 24" fill="none" xmlns="http://www.w3.org/2000/svg">
<g clip-path="url(#clip0_32_1100)">
<path d="M18.5625 20.2476H6.37505C4.66692 20.2476 3.07692 19.6583 1.89802 18.5877C0.674109 17.4763 4.57764e-05 15.9351 4.57764e-05 14.2476C4.57764e-05 12.5329 0.627702 11.0544 1.81505 9.97163C2.74927 9.11897 4.0238 8.53913 5.44223 8.31366C5.88551 7.15662 6.61477 6.13078 7.56192 5.33194C8.8013 4.29553 10.336 3.74757 12 3.74757C13.8719 3.73942 15.6733 4.46072 17.0222 5.7585C18.2907 6.98007 19.1124 8.631 19.418 10.5613C21.7294 10.9035 24.0001 12.4733 24.0001 15.3726C24.0001 16.9377 23.4263 18.2216 22.3402 19.0865C21.3858 19.8458 20.0799 20.2476 18.5625 20.2476Z" fill="#666666"/>
</g>
<defs>
<clipPath id="clip0_32_1100">
<rect width="24" height="24" fill="white" transform="translate(0 -0.00390625)"/>
</clipPath>
</defs>
</svg>
