<svg width="24" height="24" viewBox="0 0 24 24" fill="none" xmlns="http://www.w3.org/2000/svg">
<g clip-path="url(#clip0_32_1109)">
<path d="M18.5625 20.2476H6.37501C4.66689 20.2476 3.07689 19.6583 1.89798 18.5877C0.674074 17.4763 1.14441e-05 15.9351 1.14441e-05 14.2476C1.14441e-05 12.5329 0.627668 11.0544 1.81501 9.97163C2.66392 9.19678 3.79408 8.64741 5.05783 8.38397C5.17431 8.35987 5.28339 8.3084 5.37606 8.23383C5.46873 8.15925 5.54234 8.0637 5.59079 7.95507C6.04074 6.94219 6.7147 6.04465 7.56189 5.33007C8.80126 4.29553 10.336 3.74757 12 3.74757C13.8719 3.73942 15.6733 4.46072 17.0222 5.7585C18.1814 6.8746 18.9675 8.34975 19.3275 10.071C19.3564 10.2122 19.4254 10.342 19.5261 10.445C19.6269 10.548 19.7552 10.6198 19.8956 10.6518C22.0313 11.1266 24 12.674 24 15.3726C24 16.9377 23.4263 18.2216 22.3402 19.0865C21.3858 19.8458 20.0799 20.2476 18.5625 20.2476Z" fill="#666666"/>
</g>
<defs>
<clipPath id="clip0_32_1109">
<rect width="24" height="24" fill="white" transform="translate(0 -0.00390625)"/>
</clipPath>
</defs>
</svg>
