<svg width="24" height="24" viewBox="0 0 24 24" fill="none" xmlns="http://www.w3.org/2000/svg">
<g clip-path="url(#clip0_32_1087)">
<path d="M22.1578 8.88025C21.4191 8.4115 20.4605 8.09322 19.4114 7.96431C19.0997 6.1315 18.2761 4.56494 17.0081 3.40525C15.6633 2.17478 13.8849 1.49744 12 1.49744C10.343 1.49744 8.81251 2.01681 7.57642 2.99744C6.63838 3.74458 5.90747 4.71967 5.45345 5.82962C4.01579 6.03212 2.78157 6.51447 1.85767 7.23587C0.642199 8.19259 1.14441e-05 9.53931 1.14441e-05 11.1349C1.14441e-05 14.2943 2.62126 16.4974 6.37501 16.4974H11.25V9.74744H12.75V16.4974H18.5625C21.9675 16.4974 24 14.8924 24 12.2037C24 10.7951 23.363 9.64572 22.1578 8.88025ZM11.25 19.6578L8.99908 17.3881L7.93923 18.4662L12 22.4974L16.0608 18.4662L15.001 17.3881L12.75 19.6578V16.4974H11.25V19.6578Z" fill="#666666"/>
</g>
<defs>
<clipPath id="clip0_32_1087">
<rect width="24" height="24" fill="white"/>
</clipPath>
</defs>
</svg>
