<svg width="24" height="24" viewBox="0 0 24 24" fill="none" xmlns="http://www.w3.org/2000/svg">
<path d="M15.9375 22.5006H4.96875C3.58594 22.5006 2.39438 22.1336 1.52203 21.4394C0.526406 20.6463 0 19.4702 0 18.0381C0 16.6581 0.566719 15.4952 1.64063 14.6753C2.20781 14.2413 2.91563 13.9173 3.67172 13.7355C3.80842 13.7017 3.93284 13.63 4.03074 13.5288C4.12865 13.4276 4.19607 13.3009 4.22531 13.1631C4.56047 11.6378 5.26828 10.3277 6.30328 9.33109C7.53131 8.14986 9.17109 7.4933 10.875 7.50062C12.3905 7.50062 13.7883 7.99984 14.9175 8.9439C15.67 9.57821 16.2727 10.3713 16.6823 11.2661C16.7307 11.3719 16.803 11.4651 16.8934 11.5383C16.9838 11.6115 17.09 11.6627 17.2036 11.688C18.3286 11.9327 19.3327 12.4277 20.092 13.1205C21.1767 14.11 21.75 15.4609 21.75 17.0256C21.75 18.5655 21.1345 19.9727 20.0156 20.9875C18.9427 21.9634 17.4938 22.5006 15.9375 22.5006ZM23.9311 9.83453C23.9843 9.71586 24.0064 9.5856 23.9953 9.45603C23.9843 9.32645 23.9404 9.20183 23.8678 9.09391C23.769 8.95065 23.6234 8.84621 23.4561 8.79849C23.2887 8.75077 23.11 8.76274 22.9505 8.83234C22.4489 9.05031 21.803 9.16844 21.0792 9.17359C18.487 9.19234 16.327 7.06422 16.327 4.47156C16.327 3.73328 16.4433 3.07281 16.6636 2.56094C16.7182 2.4371 16.739 2.30097 16.7238 2.16647C16.7085 2.03198 16.6578 1.90394 16.5769 1.79547C16.4754 1.66189 16.332 1.56621 16.1697 1.52372C16.0074 1.48123 15.8355 1.49439 15.6816 1.56109C13.8708 2.34953 12.5794 3.97562 12.1533 5.8989C12.1479 5.9235 12.1475 5.94892 12.1522 5.97366C12.1568 5.99841 12.1664 6.02196 12.1804 6.04291C12.1943 6.06386 12.2124 6.08179 12.2334 6.09563C12.2544 6.10946 12.278 6.11892 12.3028 6.12344C13.621 6.35568 14.8547 6.93108 15.8798 7.79172C16.6298 8.42066 17.2594 9.18047 17.738 10.0342C17.8351 10.2069 17.9954 10.3353 18.1852 10.3923C19.305 10.7284 20.2992 11.2783 21.1031 12.0114C21.2419 12.1386 21.3744 12.2702 21.5006 12.4061C21.5312 12.4386 21.5723 12.4591 21.6166 12.464C21.661 12.4689 21.7056 12.4579 21.7425 12.4328C22.7051 11.7934 23.4646 10.8918 23.9311 9.83453Z" fill="#666666"/>
</svg>
