<svg width="24" height="24" viewBox="0 0 24 24" fill="none" xmlns="http://www.w3.org/2000/svg">
<g clip-path="url(#clip0_32_1114)">
<path d="M15.9376 22.4984H4.96889C3.58608 22.4984 2.39451 22.1313 1.52217 21.4371C0.526544 20.644 0.000137329 19.4679 0.000137329 18.0359C0.000137329 16.6559 0.566856 15.4929 1.64076 14.673C2.32279 14.1513 3.20686 13.7885 4.13451 13.6418C4.41858 11.9112 5.16201 10.4294 6.30436 9.32929C7.53208 8.14811 9.17149 7.4914 10.8751 7.49835C12.3906 7.49835 13.7884 7.99757 14.9176 8.94163C15.7686 9.65949 16.4266 10.5788 16.8315 11.6159C18.1056 11.8259 19.2498 12.3509 20.0922 13.1196C21.1769 14.1077 21.7501 15.4587 21.7501 17.0234C21.7501 18.5632 21.1347 19.9704 20.0158 20.9852C18.9428 21.9612 17.4939 22.4984 15.9376 22.4984ZM17.8853 10.3076C19.1275 10.6324 20.229 11.2132 21.1033 12.011C21.2248 12.1223 21.3415 12.2369 21.4534 12.3551C22.6445 11.4926 23.5848 10.2494 24.0001 9.00913C23.2389 9.34054 22.345 9.47085 21.4619 9.47085C18.0203 9.47085 16.0276 7.4782 16.0276 4.03663C16.0276 3.15351 16.158 2.2596 16.4894 1.49835C14.5951 2.13257 12.6925 3.99163 12.1525 6.0982C13.5261 6.31209 14.8151 6.89759 15.88 7.79132C16.7098 8.48771 17.3916 9.3433 17.8853 10.3076Z" fill="#666666"/>
</g>
<defs>
<clipPath id="clip0_32_1114">
<rect width="24" height="24" fill="white" transform="translate(0 -0.00390625)"/>
</clipPath>
</defs>
</svg>
