<svg width="24" height="24" viewBox="0 0 24 24" fill="none" xmlns="http://www.w3.org/2000/svg">
<g clip-path="url(#clip0_32_1111)">
<path d="M18.202 12.7466C20.4403 12.7466 22.41 11.4449 23.25 9.51596C22.5839 9.80565 21.8016 9.91955 21.0291 9.91955C19.5831 9.91955 18.1963 9.34514 17.1739 8.32269C16.1514 7.30023 15.577 5.91349 15.577 4.46752C15.577 3.69502 15.6909 2.91268 15.9806 2.24658C14.0517 3.08658 12.75 5.05627 12.75 7.29455C12.7496 7.7398 12.8038 8.18341 12.9112 8.61549" stroke="#666666" stroke-width="1.5" stroke-linecap="round" stroke-linejoin="round"/>
<path d="M4.24731 14.3838C4.40398 14.3595 4.54899 14.2864 4.66168 14.1748C4.77438 14.0633 4.84901 13.9191 4.87496 13.7627C5.44168 10.3207 7.95137 8.25018 10.875 8.25018C13.5904 8.25018 15.404 10.0197 16.1343 11.8942C16.1813 12.0144 16.2587 12.1202 16.359 12.2014C16.4592 12.2825 16.5789 12.3361 16.7062 12.3569C19.05 12.7389 21 14.3041 21 17.0252C21 19.8096 18.7218 21.7502 15.9375 21.7502H4.96871C2.6484 21.7502 0.749962 20.5924 0.749962 18.0377C0.749962 15.7657 2.56262 14.6524 4.24731 14.3838V14.3838Z" stroke="#666666" stroke-width="1.5" stroke-linejoin="round"/>
</g>
<defs>
<clipPath id="clip0_32_1111">
<rect width="24" height="24" fill="white" transform="translate(0.00012207 -0.00390625)"/>
</clipPath>
</defs>
</svg>
