<svg width="24" height="24" viewBox="0 0 24 24" fill="none" xmlns="http://www.w3.org/2000/svg">
<path d="M12 2.24567C6.61548 2.24567 2.25001 6.61114 2.25001 11.9957C2.25001 17.3802 6.61548 21.7457 12 21.7457C17.3845 21.7457 21.75 17.3802 21.75 11.9957C21.75 6.61114 17.3845 2.24567 12 2.24567ZM15.2813 15.3707H9.18751C7.64063 15.3707 6.37501 14.2925 6.37501 12.7457C6.37501 11.1421 7.59376 10.2613 9.00001 10.1207C9.34126 9.00035 10.3828 7.87067 12 7.87067C13.7109 7.87067 15.1664 9.14707 15.375 11.2457C16.3824 11.2982 17.625 11.9061 17.625 13.3082C17.625 14.7275 16.5703 15.3707 15.2813 15.3707Z" fill="#666666"/>
</svg>
