<svg width="24" height="24" viewBox="0 0 24 24" fill="none" xmlns="http://www.w3.org/2000/svg">
<g clip-path="url(#clip0_32_1120)">
<path d="M17.625 20.2484H5.43749C3.92014 20.2484 2.6142 19.8467 1.65983 19.0873C0.573735 18.2225 -1.52588e-05 16.9386 -1.52588e-05 15.3734C-1.52588e-05 12.4742 2.27061 10.9044 4.58202 10.5622C4.88764 8.63186 5.70702 6.98092 6.9778 5.75936C8.32674 4.46158 10.1281 3.74027 12 3.74842C13.6641 3.74842 15.1987 4.29639 16.4381 5.3328C17.3853 6.13164 18.1145 7.15747 18.5578 8.31451C19.9762 8.53998 21.2508 9.11983 22.185 9.97201C23.3723 11.0553 24 12.5337 24 14.2484C24 15.9359 23.3259 17.4772 22.102 18.5886C20.9231 19.6592 19.3331 20.2484 17.625 20.2484Z" fill="#666666"/>
</g>
<defs>
<clipPath id="clip0_32_1120">
<rect width="24" height="24" fill="white"/>
</clipPath>
</defs>
</svg>
