<svg width="24" height="24" viewBox="0 0 24 24" fill="none" xmlns="http://www.w3.org/2000/svg">
<g clip-path="url(#clip0_32_1081)">
<path d="M19.4179 10.5604C19.1123 8.63009 18.2906 6.97915 17.0222 5.75759C15.6732 4.45981 13.8718 3.7385 12 3.74665C10.3359 3.74665 8.80122 4.29462 7.56184 5.33103C6.61469 6.12987 5.88543 7.1557 5.44215 8.31274C4.02372 8.53821 2.74919 9.11806 1.81497 9.97071C0.627622 11.0535 -3.43323e-05 12.532 -3.43323e-05 14.2467C-3.43323e-05 15.9342 0.674028 17.4754 1.89793 18.5868C3.07684 19.6574 4.66684 20.2467 6.37497 20.2467H18.5625C20.0798 20.2467 21.3858 19.8449 22.3401 19.0856C23.4262 18.2207 24 16.9368 24 15.3717C24 12.4724 21.7293 10.9026 19.4179 10.5604ZM9.8259 16.8885L6.58122 13.2932L7.69497 12.2882L9.78653 14.6067L14.7689 8.69103L15.9159 9.65712L9.8259 16.8885Z" fill="#666666"/>
</g>
<defs>
<clipPath id="clip0_32_1081">
<rect width="24" height="24" fill="white"/>
</clipPath>
</defs>
</svg>
