<svg width="24" height="24" viewBox="0 0 24 24" fill="none" xmlns="http://www.w3.org/2000/svg">
<path d="M7.5 18.2326C7.2616 18.2328 7.03129 18.1461 6.85219 17.9888L0.852185 12.7388C0.746658 12.6464 0.662093 12.5326 0.604156 12.4048C0.546218 12.2771 0.516245 12.1385 0.516245 11.9982C0.516245 11.8579 0.546218 11.7193 0.604156 11.5916C0.662093 11.4638 0.746658 11.35 0.852185 11.2576L6.85219 6.00757C7.04867 5.83563 7.30542 5.7488 7.56593 5.76616C7.82644 5.78352 8.06939 5.90366 8.24133 6.10015C8.41326 6.29664 8.5001 6.55338 8.48274 6.81389C8.46538 7.07441 8.34524 7.31735 8.14875 7.48929L2.99484 11.9982L8.14828 16.5071C8.29911 16.639 8.40611 16.8137 8.455 17.008C8.50389 17.2023 8.49233 17.4069 8.42186 17.5944C8.3514 17.782 8.22539 17.9435 8.06066 18.0576C7.89594 18.1716 7.70034 18.2327 7.5 18.2326ZM16.5 18.2326C16.2996 18.2327 16.104 18.1718 15.9392 18.0578C15.7744 17.9438 15.6483 17.7822 15.5777 17.5946C15.5072 17.4071 15.4956 17.2024 15.5445 17.0081C15.5934 16.8138 15.7004 16.639 15.8512 16.5071L21.0052 11.9982L15.8517 7.48929C15.6552 7.31735 15.5351 7.07441 15.5177 6.81389C15.5004 6.55338 15.5872 6.29664 15.7591 6.10015C15.9311 5.90366 16.174 5.78352 16.4345 5.76616C16.695 5.7488 16.9518 5.83563 17.1483 6.00757L23.1483 11.2576C23.2538 11.35 23.3384 11.4638 23.3963 11.5916C23.4542 11.7193 23.4842 11.8579 23.4842 11.9982C23.4842 12.1385 23.4542 12.2771 23.3963 12.4048C23.3384 12.5326 23.2538 12.6464 23.1483 12.7388L17.1483 17.9888C16.9691 18.1463 16.7386 18.233 16.5 18.2326Z" fill="#666666"/>
</svg>
