<svg width="24" height="24" viewBox="0 0 24 24" fill="none" xmlns="http://www.w3.org/2000/svg">
<g clip-path="url(#clip0_32_1138)">
<path d="M7.49989 18.2345C7.26149 18.2348 7.03119 18.1481 6.85208 17.9908L0.852076 12.7408C0.746549 12.6484 0.661984 12.5345 0.604046 12.4068C0.546109 12.2791 0.516136 12.1404 0.516136 12.0002C0.516136 11.8599 0.546109 11.7213 0.604046 11.5935C0.661984 11.4658 0.746549 11.3519 0.852076 11.2595L6.85208 6.00954C7.04856 5.8376 7.30531 5.75077 7.56582 5.76813C7.82633 5.78549 8.06928 5.90563 8.24122 6.10212C8.41315 6.29861 8.49999 6.55535 8.48263 6.81586C8.46527 7.07638 8.34513 7.31932 8.14864 7.49126L2.99473 12.0002L8.14817 16.5091C8.299 16.6409 8.406 16.8157 8.45489 17.01C8.50378 17.2043 8.49222 17.4088 8.42175 17.5964C8.35129 17.7839 8.22528 17.9455 8.06056 18.0595C7.89583 18.1736 7.70023 18.2346 7.49989 18.2345ZM16.4999 18.2345C16.2995 18.2347 16.1038 18.1737 15.939 18.0597C15.7742 17.9457 15.6482 17.7842 15.5776 17.5966C15.5071 17.409 15.4955 17.2044 15.5444 17.0101C15.5933 16.8158 15.7003 16.641 15.8511 16.5091L21.005 12.0002L15.8516 7.49126C15.6551 7.31932 15.535 7.07638 15.5176 6.81586C15.5003 6.55535 15.5871 6.29861 15.759 6.10212C15.931 5.90563 16.1739 5.78549 16.4344 5.76813C16.6949 5.75077 16.9517 5.8376 17.1482 6.00954L23.1482 11.2595C23.2537 11.3519 23.3383 11.4658 23.3962 11.5935C23.4541 11.7213 23.4841 11.8599 23.4841 12.0002C23.4841 12.1404 23.4541 12.2791 23.3962 12.4068C23.3383 12.5345 23.2537 12.6484 23.1482 12.7408L17.1482 17.9908C16.969 18.1483 16.7385 18.235 16.4999 18.2345ZM9.74989 20.4845C9.59659 20.4845 9.44542 20.4487 9.30842 20.3799C9.17142 20.3111 9.05238 20.2113 8.96078 20.0884C8.86919 19.9654 8.80756 19.8228 8.78082 19.6719C8.75408 19.5209 8.76297 19.3658 8.80676 19.2189L13.3068 4.21891C13.3407 4.09163 13.3998 3.97244 13.4806 3.86841C13.5614 3.76438 13.6622 3.67762 13.7772 3.61328C13.8921 3.54894 14.0188 3.50832 14.1497 3.49383C14.2806 3.47934 14.4131 3.49127 14.5394 3.52892C14.6656 3.56658 14.783 3.62918 14.8846 3.71303C14.9862 3.79687 15.0699 3.90025 15.1308 4.01705C15.1917 4.13384 15.2286 4.26168 15.2392 4.39297C15.2498 4.52427 15.2339 4.65636 15.1925 4.78141L10.6925 19.7814C10.632 19.9845 10.5076 20.1625 10.3378 20.2892C10.1679 20.4159 9.96176 20.4844 9.74989 20.4845Z" fill="#666666"/>
</g>
<defs>
<clipPath id="clip0_32_1138">
<rect width="24" height="24" fill="white"/>
</clipPath>
</defs>
</svg>
