<svg width="24" height="24" viewBox="0 0 24 24" fill="none" xmlns="http://www.w3.org/2000/svg">
<g clip-path="url(#clip0_32_1140)">
<path d="M12 13.218C12.6731 13.218 13.2187 12.6724 13.2187 11.9993C13.2187 11.3262 12.6731 10.7805 12 10.7805C11.3269 10.7805 10.7812 11.3262 10.7812 11.9993C10.7812 12.6724 11.3269 13.218 12 13.218Z" fill="#666666"/>
<path d="M16.2187 13.218C16.8918 13.218 17.4375 12.6724 17.4375 11.9993C17.4375 11.3262 16.8918 10.7805 16.2187 10.7805C15.5456 10.7805 15 11.3262 15 11.9993C15 12.6724 15.5456 13.218 16.2187 13.218Z" fill="#666666"/>
<path d="M7.78123 13.218C8.45433 13.218 8.99998 12.6724 8.99998 11.9993C8.99998 11.3262 8.45433 10.7805 7.78123 10.7805C7.10814 10.7805 6.56248 11.3262 6.56248 11.9993C6.56248 12.6724 7.10814 13.218 7.78123 13.218Z" fill="#666666"/>
<path d="M7.50004 17.2466L1.50004 11.9966L7.50004 6.74658M16.5 17.2466L22.5 11.9966L16.5 6.74658" stroke="#666666" stroke-width="1.5" stroke-linecap="round" stroke-linejoin="round"/>
</g>
<defs>
<clipPath id="clip0_32_1140">
<rect width="24" height="24" fill="white"/>
</clipPath>
</defs>
</svg>
