<svg width="24" height="24" viewBox="0 0 24 24" fill="none" xmlns="http://www.w3.org/2000/svg">
<path d="M12 13.218C12.6731 13.218 13.2188 12.6724 13.2188 11.9993C13.2188 11.3262 12.6731 10.7805 12 10.7805C11.3269 10.7805 10.7813 11.3262 10.7813 11.9993C10.7813 12.6724 11.3269 13.218 12 13.218Z" fill="#666666" stroke="#666666" stroke-width="0.46875" stroke-miterlimit="10" stroke-linecap="square"/>
<path d="M16.2188 13.218C16.8919 13.218 17.4375 12.6724 17.4375 11.9993C17.4375 11.3262 16.8919 10.7805 16.2188 10.7805C15.5457 10.7805 15 11.3262 15 11.9993C15 12.6724 15.5457 13.218 16.2188 13.218Z" fill="#666666" stroke="#666666" stroke-width="0.46875" stroke-miterlimit="10" stroke-linecap="square"/>
<path d="M7.7813 13.218C8.45439 13.218 9.00005 12.6724 9.00005 11.9993C9.00005 11.3262 8.45439 10.7805 7.7813 10.7805C7.1082 10.7805 6.56255 11.3262 6.56255 11.9993C6.56255 12.6724 7.1082 13.218 7.7813 13.218Z" fill="#666666" stroke="#666666" stroke-width="0.46875" stroke-miterlimit="10" stroke-linecap="square"/>
<path d="M7.49996 17.2466L1.49996 11.9966L7.49996 6.74658M16.5 17.2466L22.5 11.9966L16.5 6.74658" stroke="#666666" stroke-width="1.96875" stroke-miterlimit="10" stroke-linecap="square"/>
</svg>
