<svg width="24" height="24" viewBox="0 0 24 24" fill="none" xmlns="http://www.w3.org/2000/svg">
<path d="M21.4079 11.3551L20.1854 11.1583C20.1064 11.145 20.0338 11.1068 19.9782 11.0492C19.9225 10.9917 19.8867 10.9179 19.876 10.8386C19.8526 10.6886 19.8291 10.5381 19.7963 10.3928C19.7805 10.3148 19.7896 10.2337 19.8224 10.1612C19.8552 10.0887 19.9101 10.0283 19.9791 9.98873L21.0615 9.38779C21.1434 9.3459 21.2072 9.27552 21.2409 9.18988C21.2745 9.10424 21.2757 9.00926 21.2443 8.92279L21.0568 8.40716C21.0254 8.32046 20.963 8.24848 20.8816 8.20518C20.8002 8.16188 20.7056 8.15033 20.6162 8.17279L19.4026 8.40716C19.3237 8.42244 19.2419 8.41196 19.1695 8.37727C19.097 8.34259 19.0375 8.28553 18.9999 8.21451C18.9296 8.08326 18.8546 7.95185 18.7749 7.82029C18.7328 7.75188 18.7134 7.67196 18.7193 7.59186C18.7251 7.51177 18.7561 7.43556 18.8077 7.37404L19.6182 6.43935C19.681 6.37247 19.7172 6.28486 19.7198 6.19312C19.7224 6.10137 19.6912 6.01186 19.6323 5.94154L19.2812 5.51966C19.2227 5.44871 19.1398 5.40214 19.0488 5.38905C18.9577 5.37596 18.8651 5.39729 18.789 5.44888L17.7254 6.08779C17.657 6.1283 17.5775 6.14605 17.4984 6.13847C17.4193 6.13089 17.3447 6.09837 17.2852 6.0456C17.1727 5.94669 17.0555 5.84826 16.9383 5.75404C16.876 5.70451 16.8311 5.63644 16.81 5.55967C16.7889 5.48289 16.7928 5.40141 16.8212 5.32701L17.2618 4.16685C17.2993 4.08268 17.3045 3.98765 17.2764 3.8999C17.2483 3.81214 17.1889 3.7378 17.1094 3.69107L16.6313 3.41404C16.5515 3.36872 16.4579 3.35424 16.3681 3.37334C16.2784 3.39243 16.1987 3.44377 16.1443 3.51763L15.3643 4.49451C15.3207 4.55599 15.2577 4.60099 15.1854 4.62225C15.1131 4.64351 15.0358 4.63979 14.9658 4.61169C14.9658 4.61169 14.7033 4.50388 14.5065 4.43779C14.431 4.41262 14.3654 4.36408 14.3193 4.2992C14.2732 4.23431 14.249 4.15644 14.2501 4.07685L14.2688 2.83701C14.2743 2.74479 14.2459 2.65374 14.1889 2.58103C14.1319 2.50832 14.0503 2.45898 13.9594 2.44232L13.4162 2.34857C13.3252 2.33282 13.2317 2.35086 13.1531 2.39929C13.0745 2.44773 13.0164 2.52321 12.9896 2.61154L12.5865 3.78576C12.5606 3.86144 12.5112 3.92688 12.4455 3.9725C12.3798 4.01812 12.3013 4.04155 12.2213 4.03935H11.7619C11.6821 4.04104 11.6038 4.01741 11.5382 3.97186C11.4726 3.9263 11.4231 3.86116 11.3968 3.78576L10.9937 2.61154C10.9669 2.52321 10.9087 2.44773 10.8302 2.39929C10.7516 2.35086 10.658 2.33282 10.5671 2.34857L10.0238 2.44232C9.93295 2.45898 9.85132 2.50832 9.79432 2.58103C9.73733 2.65374 9.70892 2.74479 9.71444 2.83701L9.73319 4.07685C9.73432 4.15663 9.70998 4.2347 9.6637 4.29969C9.61742 4.36469 9.55161 4.41323 9.47584 4.43826C9.36803 4.48044 9.13366 4.56997 9.02116 4.61216C8.88991 4.65904 8.73522 4.62154 8.60866 4.47576L7.83475 3.52232C7.78004 3.44876 7.70027 3.3978 7.61053 3.37906C7.5208 3.36031 7.4273 3.37509 7.34772 3.4206L6.86959 3.69763C6.78998 3.74348 6.73014 3.81715 6.70159 3.90446C6.67303 3.99178 6.67777 4.08657 6.71491 4.1706L7.15553 5.33076C7.18341 5.40521 7.1871 5.48657 7.16606 5.56324C7.14502 5.63991 7.10033 5.70799 7.03834 5.75779C6.92116 5.85154 6.80397 5.95044 6.69147 6.04935C6.63204 6.10212 6.55738 6.13464 6.47827 6.14222C6.39916 6.1498 6.31968 6.13205 6.25131 6.09154L5.20319 5.44279C5.12666 5.39243 5.03435 5.37183 4.94368 5.38487C4.853 5.39791 4.77024 5.44369 4.711 5.51357L4.35991 5.93544C4.30092 6.00576 4.26978 6.09528 4.27237 6.18702C4.27496 6.27877 4.31111 6.36638 4.37397 6.43326L5.18444 7.36794C5.23714 7.42893 5.26878 7.50526 5.27469 7.58564C5.2806 7.66602 5.26046 7.74616 5.21725 7.81419C5.13756 7.93919 5.06256 8.0706 4.99225 8.20841C4.95402 8.27888 4.89449 8.33546 4.82218 8.37006C4.74986 8.40466 4.66845 8.41552 4.58959 8.40107L3.376 8.16669C3.28659 8.14489 3.19229 8.15672 3.11104 8.19994C3.02979 8.24316 2.96726 8.31474 2.93537 8.40107L2.74787 8.91669C2.71641 9.00316 2.71763 9.09815 2.75129 9.18379C2.78496 9.26942 2.84876 9.3398 2.93069 9.38169L4.01163 9.9831C4.08142 10.0219 4.13687 10.0822 4.16979 10.1549C4.20271 10.2277 4.21135 10.3091 4.19444 10.3872C4.16631 10.5372 4.13819 10.6829 4.11475 10.8329C4.1035 10.9121 4.06751 10.9856 4.01195 11.043C3.95638 11.1004 3.88407 11.1388 3.80538 11.1526L2.58287 11.3495C2.4919 11.3607 2.40806 11.4045 2.34688 11.4727C2.28569 11.541 2.2513 11.6291 2.25006 11.7208V12.2701C2.24893 12.3625 2.2825 12.4519 2.34413 12.5206C2.40577 12.5894 2.49097 12.6325 2.58287 12.6414L3.80538 12.8383C3.88431 12.8515 3.95692 12.8897 4.01259 12.9473C4.06825 13.0048 4.10405 13.0786 4.11475 13.1579C4.13819 13.3079 4.16163 13.4584 4.19444 13.6037C4.2103 13.6817 4.20117 13.7628 4.16836 13.8353C4.13554 13.9079 4.0807 13.9682 4.01163 14.0078L2.92928 14.6097C2.84735 14.6516 2.78356 14.7219 2.74989 14.8076C2.71622 14.8932 2.71501 14.9882 2.74647 15.0747L2.93397 15.5903C2.96533 15.677 3.02777 15.749 3.10918 15.7923C3.19058 15.8356 3.28516 15.8471 3.37459 15.8247L4.58819 15.5903C4.66709 15.575 4.74881 15.5855 4.8213 15.6202C4.8938 15.6549 4.95323 15.7119 4.99084 15.7829C5.06116 15.9142 5.13616 16.0456 5.21584 16.1772C5.25792 16.2456 5.27739 16.3255 5.2715 16.4056C5.26561 16.4857 5.23466 16.5619 5.18303 16.6234L4.37256 17.559C4.3097 17.6259 4.27356 17.7135 4.27096 17.8053C4.26837 17.897 4.29952 17.9865 4.3585 18.0569L4.70959 18.4787C4.7681 18.5497 4.85097 18.5963 4.94199 18.6093C5.03302 18.6224 5.12565 18.6011 5.20178 18.5495L6.26538 17.9106C6.33375 17.8701 6.41322 17.8523 6.49233 17.8599C6.57144 17.8675 6.6461 17.9 6.70553 17.9528C6.81803 18.0517 6.93522 18.1501 7.05241 18.2444C7.11474 18.2939 7.15969 18.362 7.18076 18.4387C7.20183 18.5155 7.19792 18.597 7.16959 18.6714L6.72897 19.8315C6.69207 19.9158 6.68745 20.0107 6.71597 20.0982C6.74449 20.1857 6.80417 20.2596 6.88366 20.3059L7.36178 20.5829C7.44158 20.6283 7.53522 20.6427 7.62497 20.6236C7.71473 20.6046 7.79437 20.5532 7.84881 20.4794L8.63584 19.5119C8.73428 19.39 8.89366 19.3384 9.02022 19.39C9.17959 19.4556 9.28741 19.4931 9.48428 19.5592C9.56005 19.5842 9.62585 19.6328 9.67214 19.6978C9.71842 19.7628 9.74276 19.8408 9.74163 19.9206L9.72288 21.1604C9.71735 21.2527 9.74577 21.3437 9.80276 21.4164C9.85975 21.4891 9.94138 21.5385 10.0323 21.5551L10.5755 21.6489C10.6665 21.6646 10.76 21.6466 10.8386 21.5982C10.9172 21.5497 10.9753 21.4742 11.0021 21.3859L11.4052 20.214C11.4311 20.1384 11.4805 20.0729 11.5462 20.0273C11.6119 19.9817 11.6904 19.9583 11.7704 19.9604H12.2298C12.3096 19.9588 12.3879 19.9824 12.4535 20.0279C12.5191 20.0735 12.5686 20.1386 12.5949 20.214L12.998 21.3859C13.0248 21.4742 13.083 21.5497 13.1615 21.5982C13.2401 21.6466 13.3337 21.6646 13.4246 21.6489L13.9679 21.5551C14.0587 21.5385 14.1404 21.4891 14.1974 21.4164C14.2544 21.3437 14.2828 21.2527 14.2773 21.1604L14.2585 19.9206C14.2574 19.8408 14.2817 19.7628 14.328 19.6978C14.3743 19.6328 14.4401 19.5842 14.5158 19.5592C14.7127 19.4931 14.844 19.4415 14.9658 19.3947C15.0877 19.3478 15.2377 19.3478 15.3549 19.4931L16.1518 20.4747C16.2065 20.5488 16.2866 20.6002 16.3767 20.619C16.4669 20.6378 16.5609 20.6228 16.6407 20.5769L17.1188 20.2998C17.1988 20.254 17.259 20.1801 17.2876 20.0924C17.3162 20.0048 17.3111 19.9096 17.2735 19.8254L16.8329 18.6653C16.805 18.5908 16.8014 18.5093 16.8224 18.4326C16.8434 18.3559 16.8881 18.2877 16.9501 18.2378C17.0673 18.144 17.1844 18.0456 17.2969 17.9467C17.3564 17.8939 17.431 17.8614 17.5101 17.8538C17.5893 17.8462 17.6687 17.864 17.7371 17.9045L18.7969 18.5453C18.8735 18.5956 18.9658 18.6162 19.0565 18.6032C19.1471 18.5902 19.2299 18.5444 19.2891 18.4745L19.6402 18.0526C19.6992 17.9823 19.7304 17.8928 19.7278 17.8011C19.7252 17.7093 19.689 17.6217 19.6262 17.5548L18.8157 16.6201C18.763 16.5592 18.7313 16.4828 18.7254 16.4024C18.7195 16.3221 18.7397 16.2419 18.7829 16.1739C18.8626 16.0473 18.9376 15.9159 19.0079 15.7797C19.0461 15.7092 19.1056 15.6526 19.178 15.618C19.2503 15.5834 19.3317 15.5726 19.4105 15.587L20.6241 15.8214C20.7135 15.8432 20.8078 15.8314 20.8891 15.7881C20.9703 15.7449 21.0329 15.6733 21.0648 15.587L21.2523 15.0714C21.2837 14.9849 21.2825 14.8899 21.2488 14.8043C21.2152 14.7187 21.1514 14.6483 21.0694 14.6064L19.9871 14.0054C19.9173 13.9666 19.8619 13.9064 19.8289 13.8336C19.796 13.7609 19.7874 13.6794 19.8043 13.6014C19.8324 13.4514 19.8605 13.3056 19.884 13.1556C19.8952 13.0765 19.9312 13.003 19.9868 12.9455C20.0423 12.8881 20.1147 12.8498 20.1933 12.8359L21.4158 12.639C21.5068 12.6278 21.5907 12.5841 21.6518 12.5158C21.713 12.4475 21.7474 12.3594 21.7487 12.2678V11.7175C21.7436 11.6266 21.7066 11.5405 21.6443 11.4742C21.5819 11.408 21.4982 11.3658 21.4079 11.3551ZM12.0001 5.24872C13.4972 5.24809 14.952 5.74585 16.135 6.66351C17.318 7.58118 18.1619 8.86653 18.5335 10.3169C18.5611 10.4275 18.5632 10.5429 18.5396 10.6544C18.5159 10.7659 18.4671 10.8706 18.3969 10.9604C18.3267 11.0503 18.237 11.1229 18.1345 11.1729C18.0321 11.2228 17.9195 11.2488 17.8055 11.2487H12.8724C12.7399 11.2487 12.6098 11.2137 12.4953 11.147C12.3807 11.0804 12.2859 10.9847 12.2204 10.8695L9.77819 6.5706C9.72132 6.47066 9.6882 6.35898 9.68137 6.24419C9.67455 6.1294 9.69421 6.01458 9.73884 5.90861C9.78347 5.80263 9.85187 5.70834 9.93875 5.63301C10.0256 5.55769 10.1287 5.50335 10.2399 5.47419C10.8145 5.32346 11.4061 5.24767 12.0001 5.24872ZM5.25006 11.9987C5.24922 11.0949 5.42989 10.2002 5.78137 9.36749C6.13284 8.53482 6.64795 7.78122 7.29616 7.15138C7.37801 7.07035 7.47742 7.00926 7.58669 6.97285C7.69596 6.93643 7.81214 6.92567 7.92624 6.9414C8.04034 6.95713 8.14928 6.99893 8.24462 7.06355C8.33995 7.12817 8.41913 7.21388 8.476 7.31404L10.9248 11.6237C10.9895 11.737 11.0235 11.8652 11.0235 11.9957C11.0235 12.1261 10.9895 12.2543 10.9248 12.3676L8.45584 16.6661C8.39853 16.7659 8.31899 16.8513 8.22339 16.9154C8.12779 16.9796 8.0187 17.0209 7.90456 17.0362C7.79043 17.0514 7.67432 17.0401 7.56524 17.0033C7.45616 16.9664 7.35703 16.9049 7.27553 16.8236C6.63365 16.1947 6.12384 15.444 5.77602 14.6155C5.4282 13.787 5.24938 12.8973 5.25006 11.9987ZM12.0001 18.7487C11.3957 18.7503 10.7939 18.6723 10.2099 18.5167C10.0987 18.4871 9.99579 18.4324 9.90914 18.3567C9.82248 18.281 9.75441 18.1864 9.71018 18.0802C9.66595 17.9739 9.64675 17.859 9.65407 17.7441C9.6614 17.6293 9.69504 17.5177 9.75241 17.4179L12.2171 13.1265C12.283 13.0124 12.3779 12.9176 12.4921 12.8517C12.6063 12.7859 12.7359 12.7513 12.8677 12.7515H17.8079C17.9218 12.7516 18.0343 12.7775 18.1367 12.8275C18.2391 12.8775 18.3288 12.9502 18.3989 13.04C18.4691 13.1298 18.5178 13.2345 18.5415 13.346C18.5651 13.4574 18.563 13.5729 18.5354 13.6834C18.163 15.1334 17.3186 16.4183 16.1353 17.3354C14.952 18.2526 13.4972 18.7498 12.0001 18.7487Z" fill="#666666"/>
</svg>
