<svg width="24" height="24" viewBox="0 0 24 24" fill="none" xmlns="http://www.w3.org/2000/svg">
<path d="M21.75 11.7117C21.7436 11.5948 21.6961 11.4838 21.6158 11.3985C21.5355 11.3133 21.4276 11.2591 21.3112 11.2458L20.1093 11.0513C20.0553 11.0424 20.0055 11.0163 19.9675 10.9769C19.9295 10.9374 19.9053 10.8867 19.8984 10.8324C19.8754 10.6847 19.8515 10.5314 19.8187 10.3861C19.8081 10.3333 19.8143 10.2784 19.8364 10.2293C19.8585 10.1801 19.8954 10.1391 19.942 10.1119L21.0098 9.51893C21.1158 9.46489 21.1983 9.37375 21.2415 9.26286C21.2847 9.15197 21.2857 9.02907 21.2442 8.91753L21.059 8.40659C21.0184 8.29467 20.938 8.20165 20.833 8.14535C20.7281 8.08905 20.6062 8.07341 20.4904 8.10143L19.2928 8.33581C19.2392 8.34546 19.184 8.33791 19.135 8.31425C19.086 8.29059 19.0457 8.25203 19.02 8.20409C18.9501 8.07331 18.8742 7.94018 18.795 7.8094C18.7662 7.76281 18.7527 7.70839 18.7564 7.65375C18.7601 7.59912 18.7808 7.54701 18.8156 7.50472L19.6125 6.58456C19.6934 6.49753 19.7398 6.38404 19.7432 6.26527C19.7465 6.1465 19.7066 6.03056 19.6307 5.93909L19.2829 5.52143C19.2073 5.42976 19.1003 5.36943 18.9827 5.35211C18.8651 5.33479 18.7453 5.36172 18.6464 5.42768L17.5978 6.05722C17.5513 6.08507 17.4971 6.09724 17.4431 6.09192C17.3892 6.0866 17.3384 6.06408 17.2982 6.02768C17.1825 5.92597 17.0662 5.828 16.9528 5.73753C16.9101 5.70388 16.8793 5.65752 16.8648 5.60517C16.8503 5.55283 16.8529 5.49722 16.8722 5.44643L17.3062 4.30268C17.3535 4.19355 17.359 4.07086 17.3218 3.95791C17.2845 3.84497 17.2071 3.74963 17.1042 3.69003L16.6317 3.41581C16.5286 3.35639 16.4073 3.33707 16.2909 3.36155C16.1744 3.38603 16.0712 3.45258 16.0007 3.54847L15.2343 4.5094C15.2069 4.55139 15.1656 4.58244 15.1177 4.59717C15.0697 4.6119 15.0181 4.60937 14.9718 4.59003C14.9428 4.57831 14.7014 4.4794 14.5134 4.41659C14.4618 4.39979 14.417 4.36693 14.3855 4.32282C14.3539 4.2787 14.3373 4.22566 14.3381 4.17143L14.3564 2.9494C14.3629 2.83008 14.3257 2.71246 14.2518 2.61859C14.1778 2.52471 14.0722 2.461 13.9547 2.4394L13.4179 2.34565C13.301 2.32545 13.1807 2.34839 13.0794 2.4102C12.9781 2.47202 12.9027 2.56851 12.8672 2.68175L12.4687 3.84471C12.4509 3.89651 12.4168 3.94115 12.3715 3.97198C12.3262 4.00282 12.2722 4.01819 12.2175 4.01581H11.7604C11.7062 4.01671 11.6531 4.0006 11.6086 3.96974C11.564 3.93888 11.5302 3.89483 11.512 3.84378L11.1154 2.68737C11.0805 2.57331 11.0053 2.47588 10.9037 2.41332C10.8022 2.35076 10.6813 2.32737 10.5637 2.34753L10.0265 2.44128C9.90966 2.46261 9.8045 2.52565 9.73062 2.61867C9.65673 2.7117 9.61913 2.82839 9.62481 2.94706L9.64356 4.17331C9.64393 4.22835 9.62652 4.28203 9.59392 4.32638C9.56132 4.37072 9.51526 4.40335 9.46262 4.4194C9.35574 4.46112 9.12231 4.54972 9.01684 4.58956C8.92309 4.62331 8.82043 4.58628 8.73559 4.49112L7.9734 3.55362C7.90355 3.45778 7.80087 3.391 7.68494 3.36602C7.56901 3.34103 7.44793 3.35959 7.34481 3.41815L6.87324 3.69143C6.7692 3.75115 6.69094 3.84727 6.65355 3.96125C6.61616 4.07524 6.62229 4.19904 6.67074 4.30878L7.10434 5.44972C7.12325 5.50061 7.12574 5.55616 7.11144 5.60854C7.09715 5.66093 7.0668 5.70751 7.02465 5.74175C6.91074 5.8355 6.79403 5.92925 6.67778 6.03331C6.63786 6.06942 6.58743 6.09181 6.53388 6.09721C6.48032 6.10261 6.42644 6.09073 6.38012 6.06331L5.34371 5.42159C5.24423 5.35676 5.12448 5.3305 5.00699 5.34777C4.8895 5.36503 4.78237 5.42462 4.70574 5.51534L4.35887 5.93253C4.28189 6.02334 4.2411 6.13934 4.2443 6.25834C4.2475 6.37734 4.29446 6.49099 4.37621 6.57753L5.17731 7.49628C5.21284 7.53772 5.23407 7.5895 5.23787 7.64396C5.24167 7.69842 5.22783 7.75265 5.1984 7.79862C5.11824 7.92612 5.04184 8.06018 4.97246 8.19425C4.94651 8.24247 4.90595 8.28124 4.8566 8.30499C4.80726 8.32873 4.75165 8.33624 4.69778 8.32643L3.50199 8.09534C3.38622 8.0674 3.26421 8.08307 3.15925 8.13936C3.05429 8.19564 2.97372 8.2886 2.93293 8.4005L2.74543 8.9105C2.70388 9.02217 2.7048 9.14522 2.74801 9.25627C2.79121 9.36731 2.8737 9.45862 2.97981 9.51284L4.04762 10.1058C4.09564 10.1323 4.13373 10.1737 4.15614 10.2238C4.17855 10.2738 4.18406 10.3298 4.17184 10.3833L4.16106 10.4414C4.13621 10.5727 4.11418 10.6969 4.09215 10.8291C4.0847 10.8828 4.06046 10.9327 4.02291 10.9718C3.98536 11.0108 3.93642 11.037 3.88309 11.0466L2.6784 11.2411C2.56072 11.2557 2.45235 11.3126 2.37352 11.4011C2.29469 11.4897 2.25077 11.604 2.24996 11.7225V12.2653C2.24928 12.3844 2.29281 12.4996 2.37213 12.5884C2.45145 12.6773 2.56092 12.7335 2.67934 12.7463L3.88309 12.9403C3.93718 12.9491 3.98697 12.9752 4.02499 13.0147C4.06302 13.0541 4.08724 13.1049 4.09403 13.1592C4.11699 13.3074 4.1409 13.4602 4.17371 13.6055C4.18429 13.6584 4.17809 13.7132 4.15599 13.7624C4.13388 13.8115 4.09698 13.8525 4.05043 13.8797L2.98309 14.4736C2.87706 14.5277 2.79459 14.6188 2.75138 14.7297C2.70816 14.8406 2.70721 14.9635 2.74871 15.075L2.93621 15.586C2.97691 15.6978 3.05739 15.7908 3.16227 15.8471C3.26715 15.9034 3.38909 15.919 3.50481 15.8911L4.70246 15.6591C4.75602 15.6494 4.81125 15.657 4.86026 15.6807C4.90926 15.7043 4.94952 15.7429 4.97528 15.7908C5.04559 15.9221 5.12153 16.0552 5.20028 16.1855C5.22918 16.232 5.24275 16.2865 5.23905 16.3412C5.23535 16.3958 5.21457 16.448 5.17965 16.4902L4.38278 17.4108C4.301 17.497 4.2535 17.6101 4.24919 17.7289C4.24487 17.8476 4.28404 17.9639 4.35934 18.0558L4.70668 18.4735C4.78235 18.5651 4.88933 18.6255 5.00693 18.6428C5.12452 18.6601 5.24436 18.6332 5.34324 18.5672L6.39184 17.9377C6.43833 17.9098 6.49255 17.8977 6.54648 17.903C6.60042 17.9083 6.65121 17.9308 6.69137 17.9672C6.80762 18.0689 6.92574 18.1669 7.03684 18.2574C7.07948 18.291 7.11028 18.3374 7.12478 18.3897C7.13928 18.4421 7.13671 18.4977 7.11746 18.5485L6.6834 19.6922C6.63613 19.8013 6.63059 19.924 6.66784 20.037C6.70508 20.1499 6.78252 20.2453 6.88543 20.3049L7.35934 20.5786C7.46227 20.6381 7.58351 20.6574 7.69984 20.633C7.81617 20.6087 7.91942 20.5422 7.98981 20.4464L8.76559 19.4925C8.83074 19.4114 8.93434 19.3753 9.01121 19.4063C9.17387 19.4738 9.28309 19.5117 9.47668 19.5764C9.52825 19.5933 9.5731 19.6261 9.60471 19.6702C9.63632 19.7143 9.65305 19.7673 9.65246 19.8216L9.63371 21.0427C9.62739 21.162 9.66465 21.2795 9.73856 21.3733C9.81248 21.4671 9.91799 21.5309 10.0354 21.5527L10.5722 21.6464C10.6891 21.6667 10.8095 21.6438 10.9108 21.582C11.0121 21.5202 11.0875 21.4236 11.1229 21.3103L11.5214 20.1492C11.5396 20.0977 11.5738 20.0533 11.619 20.0225C11.6642 19.9918 11.718 19.9762 11.7726 19.9782H12.2297C12.2839 19.9772 12.337 19.9933 12.3816 20.0241C12.4262 20.055 12.4599 20.0991 12.4781 20.1502L12.8751 21.3066C12.9059 21.407 12.968 21.4949 13.0523 21.5574C13.1367 21.6199 13.2389 21.6537 13.3439 21.6539C13.3719 21.654 13.3998 21.6515 13.4273 21.6464L13.965 21.5527C14.0817 21.5313 14.1868 21.4682 14.2606 21.3752C14.3344 21.2821 14.3719 21.1655 14.3662 21.0469L14.3475 19.8207C14.3471 19.7666 14.3639 19.7139 14.3955 19.6701C14.4271 19.6262 14.4719 19.5936 14.5232 19.5769C14.7032 19.5164 14.8293 19.4677 14.9409 19.425L14.969 19.4138C15.1125 19.3641 15.1814 19.4203 15.2254 19.4752L16.0106 20.4422C16.081 20.5379 16.1841 20.6042 16.3003 20.6286C16.4166 20.653 16.5377 20.6337 16.6406 20.5744L17.1126 20.3011C17.2159 20.2415 17.2935 20.1459 17.3308 20.0326C17.3681 19.9194 17.3623 19.7964 17.3147 19.6871L16.8815 18.5461C16.8624 18.4953 16.8598 18.4397 16.874 18.3873C16.8882 18.3349 16.9186 18.2883 16.9607 18.2541C17.0747 18.1603 17.1914 18.0666 17.3076 17.9625C17.3478 17.9263 17.3985 17.9039 17.4524 17.8987C17.5062 17.8935 17.5603 17.9057 17.6067 17.9335L18.6562 18.5616C18.7557 18.6264 18.8755 18.6527 18.9929 18.6354C19.1104 18.6182 19.2176 18.5586 19.2942 18.4678L19.6411 18.0507C19.718 17.9599 19.7588 17.844 19.7556 17.7251C19.7524 17.6061 19.7054 17.4926 19.6237 17.4061L18.824 16.4841C18.7885 16.4426 18.7673 16.3909 18.7635 16.3364C18.7597 16.282 18.7735 16.2277 18.8029 16.1817C18.8831 16.0547 18.9595 15.9207 19.0289 15.7861C19.055 15.738 19.0956 15.6994 19.1449 15.6757C19.1942 15.652 19.2497 15.6443 19.3036 15.6539L20.4979 15.8869C20.6137 15.9148 20.7357 15.8992 20.8407 15.8429C20.9456 15.7866 21.0262 15.6936 21.067 15.5817L21.2522 15.0717C21.2937 14.9601 21.2927 14.8372 21.2495 14.7262C21.2063 14.6152 21.1238 14.524 21.0178 14.4699L19.949 13.876C19.9017 13.8492 19.8642 13.8079 19.8422 13.7582C19.8201 13.7084 19.8147 13.6529 19.8267 13.5999L19.8375 13.5413C19.8623 13.41 19.8843 13.2863 19.9064 13.1541C19.9138 13.1004 19.9381 13.0505 19.9756 13.0114C20.0132 12.9724 20.0621 12.9462 20.1154 12.9366L21.3201 12.7425C21.4381 12.7282 21.5468 12.6713 21.6259 12.5827C21.705 12.494 21.7491 12.3795 21.75 12.2607V11.7117ZM8.04324 16.9308C7.30361 16.3356 6.70724 15.5818 6.29822 14.7251C5.88921 13.8684 5.67801 12.9306 5.68027 11.9813C5.68252 11.0319 5.89815 10.0952 6.31122 9.24043C6.7243 8.38565 7.32424 7.63466 8.06668 7.043L10.8792 11.9935L8.04324 16.9308ZM12 18.3296C11.2226 18.3303 10.4518 18.1864 9.72699 17.9053L12.5625 12.9708H18.2447C17.7754 16.0017 15.1542 18.3296 12 18.3296ZM12.5653 11.0217L9.75512 6.07643C10.4718 5.80254 11.2327 5.66241 12 5.663C15.1542 5.663 17.7754 7.99081 18.2447 11.0217H12.5653Z" fill="#666666"/>
</svg>
