<svg width="24" height="24" viewBox="0 0 24 24" fill="none" xmlns="http://www.w3.org/2000/svg">
<path d="M21.75 11.7117C21.7437 11.5948 21.6962 11.4838 21.6159 11.3985C21.5356 11.3133 21.4277 11.2591 21.3113 11.2458L20.1094 11.0513C20.0553 11.0424 20.0056 11.0163 19.9676 10.9769C19.9296 10.9374 19.9053 10.8867 19.8985 10.8324C19.8755 10.6847 19.8516 10.5314 19.8188 10.3861C19.8082 10.3333 19.8144 10.2784 19.8365 10.2293C19.8586 10.1801 19.8955 10.1391 19.9421 10.1119L21.0099 9.51893C21.1159 9.46489 21.1984 9.37375 21.2416 9.26286C21.2848 9.15197 21.2857 9.02907 21.2442 8.91753L21.0591 8.40659C21.0185 8.29467 20.938 8.20165 20.8331 8.14535C20.7282 8.08905 20.6062 8.07341 20.4905 8.10143L19.2928 8.33581C19.2393 8.34538 19.1841 8.3378 19.1351 8.31415C19.0861 8.2905 19.0458 8.25198 19.02 8.20409C18.9502 8.07331 18.8742 7.94018 18.795 7.8094C18.7663 7.76281 18.7528 7.70839 18.7565 7.65375C18.7602 7.59912 18.7809 7.54701 18.8157 7.50472L19.6125 6.58409C19.6935 6.49718 19.74 6.38376 19.7433 6.26504C19.7467 6.14632 19.7067 6.03045 19.6308 5.93909L19.283 5.52143C19.2073 5.42976 19.1003 5.36943 18.9827 5.35211C18.8652 5.33479 18.7453 5.36172 18.6464 5.42768L17.5978 6.05722C17.5513 6.08507 17.4971 6.09724 17.4432 6.09192C17.3893 6.0866 17.3385 6.06408 17.2983 6.02768C17.1825 5.92597 17.0639 5.828 16.9528 5.73753C16.9102 5.70388 16.8794 5.65752 16.8649 5.60517C16.8504 5.55283 16.853 5.49722 16.8722 5.44643L17.3063 4.30268C17.3535 4.19355 17.3591 4.07086 17.3218 3.95791C17.2846 3.84497 17.2072 3.74963 17.1042 3.69003L16.6313 3.41393C16.5283 3.35455 16.407 3.33524 16.2907 3.35972C16.1743 3.3842 16.0711 3.45074 16.0008 3.54659L15.2344 4.5094C15.2068 4.55125 15.1655 4.58219 15.1176 4.5969C15.0697 4.61162 15.0182 4.60919 14.9719 4.59003C14.9433 4.57831 14.7014 4.4794 14.5135 4.41659C14.4619 4.39979 14.4171 4.36693 14.3855 4.32282C14.354 4.2787 14.3374 4.22566 14.3382 4.17143L14.3564 2.9494C14.363 2.83008 14.3258 2.71246 14.2518 2.61859C14.1779 2.52471 14.0722 2.461 13.9547 2.4394L13.418 2.34565C13.3011 2.32545 13.1808 2.34839 13.0794 2.4102C12.9781 2.47202 12.9027 2.56851 12.8672 2.68175L12.4688 3.84471C12.4507 3.89634 12.4165 3.94081 12.3713 3.9716C12.3261 4.00239 12.2722 4.01789 12.2175 4.01581H11.7605C11.7062 4.01692 11.653 4.0009 11.6084 3.97001C11.5638 3.93912 11.5301 3.89495 11.5121 3.84378L11.1155 2.68737C11.0806 2.57331 11.0053 2.47588 10.9038 2.41332C10.8022 2.35076 10.6813 2.32737 10.5638 2.34753L10.0261 2.44128C9.90933 2.46271 9.80429 2.52579 9.7305 2.61881C9.65671 2.71182 9.61917 2.82846 9.62487 2.94706L9.64362 4.17331C9.64399 4.22835 9.62658 4.28203 9.59398 4.32638C9.56138 4.37072 9.51533 4.40335 9.46268 4.4194C9.35534 4.46112 9.12237 4.55018 9.01643 4.58956C8.92268 4.62331 8.82049 4.58628 8.73799 4.49112L7.97581 3.55362C7.90588 3.45718 7.80276 3.39 7.68629 3.36499C7.56982 3.33999 7.44822 3.35892 7.34487 3.41815L6.87331 3.69143C6.76926 3.75115 6.691 3.84727 6.65361 3.96125C6.61622 4.07524 6.62235 4.19904 6.67081 4.30878L7.1044 5.44972C7.12331 5.50061 7.1258 5.55616 7.11151 5.60854C7.09721 5.66093 7.06686 5.70751 7.02471 5.74175C6.91081 5.8355 6.79409 5.92925 6.67784 6.03331C6.63792 6.06942 6.58749 6.09181 6.53394 6.09721C6.48038 6.10261 6.4265 6.09073 6.38018 6.06331L5.34377 5.42159C5.24426 5.35685 5.12453 5.33066 5.00708 5.34792C4.88962 5.36518 4.78249 5.42471 4.70581 5.51534L4.3594 5.93206C4.28245 6.02279 4.24168 6.13872 4.24488 6.25764C4.24808 6.37656 4.29503 6.49013 4.37674 6.57659L5.17737 7.49628C5.2129 7.53772 5.23414 7.5895 5.23794 7.64396C5.24173 7.69842 5.22789 7.75265 5.19846 7.79862C5.11831 7.92612 5.0419 8.06018 4.97252 8.19425C4.94657 8.24247 4.90601 8.28124 4.85666 8.30499C4.80732 8.32873 4.75172 8.33624 4.69784 8.32643L3.50205 8.09534C3.38628 8.0674 3.26427 8.08307 3.15931 8.13936C3.05435 8.19564 2.97378 8.2886 2.93299 8.4005L2.74549 8.9105C2.70405 9.02218 2.70502 9.14519 2.74822 9.25621C2.79141 9.36723 2.87384 9.45854 2.97987 9.51284L4.04768 10.1058C4.0957 10.1323 4.13379 10.1737 4.1562 10.2238C4.17861 10.2738 4.18412 10.3298 4.1719 10.3833L4.16065 10.4428C4.13627 10.5736 4.11377 10.6974 4.09221 10.8291C4.08476 10.8828 4.06052 10.9327 4.02297 10.9718C3.98542 11.0108 3.93648 11.037 3.88315 11.0466L2.67893 11.2411C2.56116 11.2556 2.45269 11.3124 2.37376 11.401C2.29483 11.4896 2.25085 11.6039 2.25002 11.7225V12.2653C2.24934 12.3844 2.29287 12.4996 2.37219 12.5884C2.45151 12.6773 2.56098 12.7335 2.6794 12.7463L3.88315 12.9403C3.93724 12.9491 3.98703 12.9752 4.02505 13.0147C4.06308 13.0541 4.0873 13.1049 4.09409 13.1592C4.11705 13.3074 4.14096 13.4602 4.17377 13.6055C4.18435 13.6584 4.17815 13.7132 4.15605 13.7624C4.13395 13.8115 4.09704 13.8525 4.05049 13.8797L2.98315 14.4736C2.87712 14.5277 2.79465 14.6188 2.75144 14.7297C2.70822 14.8406 2.70728 14.9635 2.74877 15.075L2.93627 15.586C2.97697 15.6978 3.05745 15.7908 3.16233 15.8471C3.26721 15.9034 3.38915 15.919 3.50487 15.8911L4.70252 15.6591C4.75608 15.6494 4.81135 15.6569 4.86037 15.6806C4.90939 15.7042 4.94964 15.7428 4.97534 15.7908C5.04565 15.9221 5.12112 16.0547 5.20034 16.1855C5.22925 16.232 5.24281 16.2865 5.23911 16.3412C5.23541 16.3958 5.21463 16.448 5.17971 16.4902L4.38284 17.4103C4.30094 17.4966 4.25336 17.6098 4.24904 17.7286C4.24473 17.8475 4.28397 17.9638 4.3594 18.0558L4.70674 18.4735C4.78235 18.5652 4.88934 18.6256 5.00697 18.643C5.12459 18.6603 5.24446 18.6333 5.34331 18.5672L6.3919 17.9377C6.43839 17.9098 6.49261 17.8977 6.54654 17.903C6.60048 17.9083 6.65127 17.9308 6.69143 17.9672C6.80768 18.0689 6.92581 18.1669 7.0369 18.2574C7.0795 18.2911 7.11031 18.3374 7.12488 18.3897C7.13946 18.442 7.13705 18.4976 7.11799 18.5485L6.68346 19.6922C6.63619 19.8013 6.63065 19.924 6.6679 20.037C6.70514 20.1499 6.78258 20.2453 6.88549 20.3049L7.3594 20.5786C7.46233 20.6381 7.58357 20.6574 7.6999 20.633C7.81623 20.6087 7.91948 20.5422 7.98987 20.4464L8.76565 19.4925C8.83127 19.4114 8.9344 19.3753 9.01081 19.4063C9.17393 19.4738 9.28315 19.5117 9.47674 19.5764C9.52831 19.5933 9.57316 19.6261 9.60477 19.6702C9.63639 19.7143 9.65311 19.7673 9.65252 19.8216L9.63378 21.0427C9.62745 21.162 9.66471 21.2795 9.73863 21.3733C9.81254 21.4671 9.91805 21.5309 10.0355 21.5527L10.5722 21.6464C10.6892 21.6668 10.8096 21.644 10.9109 21.5821C11.0123 21.5203 11.0877 21.4237 11.123 21.3103L11.5214 20.1492C11.5395 20.0976 11.5736 20.0531 11.6188 20.0223C11.6641 19.9915 11.718 19.976 11.7727 19.9782H12.2297C12.284 19.977 12.3372 19.993 12.3818 20.0239C12.4265 20.0548 12.4602 20.099 12.4782 20.1502L12.8752 21.3066C12.9059 21.407 12.9681 21.4949 13.0524 21.5574C13.1368 21.6199 13.2389 21.6537 13.3439 21.6539C13.3719 21.654 13.3998 21.6515 13.4274 21.6464L13.965 21.5527C14.0818 21.5313 14.1869 21.4682 14.2606 21.3752C14.3344 21.2821 14.372 21.1655 14.3663 21.0469L14.3475 19.8207C14.3472 19.7666 14.364 19.7139 14.3956 19.6701C14.4272 19.6262 14.4719 19.5936 14.5233 19.5769C14.7033 19.5164 14.8299 19.4677 14.941 19.4246L14.9691 19.4138C15.1144 19.3636 15.1847 19.4246 15.2255 19.4752L16.0107 20.4422C16.081 20.5379 16.1842 20.6042 16.3004 20.6286C16.4166 20.653 16.5378 20.6337 16.6407 20.5744L17.1127 20.3011C17.2159 20.2415 17.2936 20.1459 17.3309 20.0326C17.3681 19.9194 17.3624 19.7964 17.3147 19.6871L16.8816 18.5461C16.8625 18.4953 16.8598 18.4397 16.8741 18.3873C16.8883 18.3349 16.9186 18.2883 16.9608 18.2541C17.0747 18.1603 17.1914 18.0666 17.3077 17.9625C17.3479 17.9263 17.3986 17.9039 17.4524 17.8987C17.5063 17.8935 17.5604 17.9057 17.6067 17.9335L18.6563 18.5616C18.7558 18.6264 18.8755 18.6527 18.993 18.6354C19.1105 18.6182 19.2176 18.5586 19.2942 18.4678L19.6411 18.0507C19.7181 17.9599 19.7588 17.844 19.7556 17.7251C19.7524 17.6061 19.7055 17.4926 19.6238 17.4061L18.8241 16.4841C18.7886 16.4426 18.7673 16.3909 18.7635 16.3364C18.7597 16.282 18.7736 16.2277 18.803 16.1817C18.8832 16.0547 18.9596 15.9207 19.0289 15.7861C19.055 15.738 19.0956 15.6993 19.1449 15.6756C19.1942 15.6518 19.2498 15.6443 19.3036 15.6539L20.498 15.8869C20.6138 15.9148 20.7358 15.8992 20.8407 15.8429C20.9457 15.7866 21.0263 15.6936 21.0671 15.5817L21.2522 15.0717C21.2936 14.9601 21.2926 14.8372 21.2494 14.7263C21.2062 14.6153 21.1238 14.5241 21.0178 14.4699L19.9491 13.876C19.9017 13.8492 19.8643 13.8079 19.8422 13.7582C19.8202 13.7084 19.8148 13.6529 19.8267 13.5999L19.838 13.5403C19.8624 13.4096 19.8849 13.2858 19.9064 13.1541C19.9139 13.1004 19.9381 13.0505 19.9757 13.0114C20.0132 12.9724 20.0622 12.9462 20.1155 12.9366L21.3197 12.7425C21.4378 12.7283 21.5466 12.6715 21.6258 12.5828C21.705 12.4941 21.7492 12.3796 21.75 12.2607V11.7117ZM8.51018 16.118C8.45177 16.2196 8.37009 16.3058 8.27185 16.3697C8.17361 16.4336 8.06162 16.4732 7.94509 16.4854C7.82855 16.4976 7.71078 16.4819 7.60147 16.4397C7.49216 16.3975 7.39442 16.33 7.31627 16.2427C6.26025 15.075 5.67716 13.5558 5.6808 11.9815C5.68444 10.4071 6.27455 8.89059 7.33596 7.72784C7.41451 7.64056 7.51267 7.5732 7.62236 7.5313C7.73205 7.4894 7.85012 7.47416 7.96685 7.48684C8.08358 7.49952 8.19563 7.53976 8.29376 7.60423C8.39189 7.66871 8.4733 7.75558 8.53127 7.85768L10.6711 11.6241C10.7354 11.7364 10.7692 11.8636 10.7692 11.993C10.7692 12.1224 10.7354 12.2496 10.6711 12.3619L8.51018 16.118ZM12 18.3296C11.554 18.3297 11.1091 18.2825 10.673 18.1889C10.5594 18.1636 10.4533 18.1118 10.3635 18.0378C10.2736 17.9637 10.2024 17.8696 10.1557 17.763C10.109 17.6563 10.0881 17.5402 10.0947 17.4239C10.1012 17.3077 10.1351 17.1946 10.1935 17.0939L12.3497 13.3439C12.4146 13.2309 12.5081 13.1371 12.6209 13.0718C12.7336 13.0065 12.8616 12.9722 12.9919 12.9722H17.311C17.4273 12.972 17.5421 12.9993 17.6459 13.0517C17.7498 13.1041 17.8398 13.1803 17.9087 13.274C17.9777 13.3677 18.0236 13.4764 18.0427 13.5911C18.0618 13.7059 18.0536 13.8236 18.0188 13.9346C17.1989 16.4808 14.8125 18.3296 12 18.3296ZM12.3521 10.6467L10.2188 6.89018C10.161 6.78931 10.1277 6.67625 10.1217 6.56014C10.1156 6.44402 10.137 6.32812 10.184 6.2218C10.2311 6.11548 10.3025 6.02171 10.3925 5.94809C10.4825 5.87447 10.5885 5.82305 10.7021 5.798C11.1289 5.70805 11.5639 5.66281 12 5.663C14.8125 5.663 17.1989 7.51175 18.0174 10.0594C18.0522 10.1704 18.0604 10.2881 18.0413 10.4028C18.0222 10.5176 17.9763 10.6262 17.9073 10.7199C17.8384 10.8137 17.7484 10.8898 17.6445 10.9423C17.5406 10.9947 17.4259 11.0219 17.3096 11.0217H12.9971C12.866 11.022 12.7371 10.9874 12.6238 10.9215C12.5105 10.8556 12.4167 10.7608 12.3521 10.6467Z" fill="#666666"/>
</svg>
