<svg width="24" height="24" viewBox="0 0 24 24" fill="none" xmlns="http://www.w3.org/2000/svg">
<path d="M11.8931 9.49286C11.9245 9.51464 11.9618 9.5263 12 9.5263C12.0382 9.5263 12.0754 9.51464 12.1068 9.49286C12.9769 8.89757 13.9684 8.50294 15.0096 8.33749C16.0508 8.17204 17.1157 8.23989 18.1275 8.53614C18.1561 8.54477 18.1864 8.54642 18.2158 8.54095C18.2452 8.53548 18.2729 8.52304 18.2966 8.50469C18.3202 8.48634 18.3391 8.46259 18.3517 8.43545C18.3642 8.4083 18.3701 8.37854 18.3689 8.34864C18.225 4.96145 15.4218 2.24927 12 2.24927C8.57809 2.24927 5.77496 4.96145 5.63105 8.35005C5.62978 8.37994 5.63568 8.40971 5.64826 8.43685C5.66084 8.464 5.67974 8.48774 5.70337 8.5061C5.727 8.52445 5.75468 8.53688 5.7841 8.54236C5.81351 8.54783 5.84381 8.54618 5.87246 8.53755C6.88423 8.2413 7.94917 8.17345 8.99035 8.3389C10.0315 8.50435 11.023 8.89897 11.8931 9.49427V9.49286ZM18.9989 9.96302C18.7881 11.0529 18.3265 12.0788 17.6506 12.9594C16.9746 13.84 16.1029 14.551 15.1045 15.0363C15.0719 15.0518 15.0445 15.0764 15.0256 15.107C15.0066 15.1377 14.9969 15.1732 14.9976 15.2093C14.9976 15.2641 15 15.319 15 15.3743C15.0004 16.3383 14.8047 17.2923 14.4248 18.1782C14.0448 19.0642 13.4885 19.8636 12.7898 20.5277C12.7689 20.5474 12.7528 20.5717 12.7428 20.5986C12.7328 20.6255 12.7291 20.6544 12.732 20.683C12.7349 20.7116 12.7443 20.7391 12.7595 20.7635C12.7747 20.7878 12.7954 20.8084 12.8198 20.8235C13.8154 21.4301 14.9591 21.7505 16.125 21.7493C19.5032 21.7493 22.4109 18.9236 22.5 15.5458C22.5304 14.391 22.2467 13.2496 21.679 12.2434C21.1113 11.2373 20.2811 10.4042 19.2768 9.83317C19.2507 9.81819 19.2214 9.80971 19.1914 9.80845C19.1613 9.80718 19.1314 9.81317 19.1041 9.8259C19.0769 9.83864 19.0531 9.85774 19.0348 9.88161C19.0164 9.90547 19.0041 9.93339 18.9989 9.96302Z" fill="#666666"/>
<path d="M18.308 9.54363C18.3147 9.4999 18.3057 9.45522 18.2826 9.41747C18.2596 9.37973 18.2239 9.35136 18.1819 9.33738C17.2997 9.03653 16.3622 8.93303 15.4356 9.0342C14.509 9.13536 13.6159 9.43872 12.8194 9.92285C12.7952 9.938 12.7747 9.9585 12.7596 9.98277C12.7444 10.0071 12.7351 10.0345 12.7322 10.0629C12.7293 10.0914 12.7329 10.1201 12.7429 10.1469C12.7528 10.1738 12.7687 10.198 12.7894 10.2177C13.865 11.2412 14.5939 12.5752 14.8739 14.0333C14.8795 14.0628 14.892 14.0905 14.9105 14.1142C14.929 14.1378 14.9529 14.1567 14.9802 14.1692C15.0074 14.1817 15.0373 14.1874 15.0673 14.186C15.0973 14.1845 15.1264 14.1759 15.1524 14.1608C15.9941 13.6809 16.7156 13.0158 17.2623 12.2159C17.809 11.4159 18.1666 10.5022 18.308 9.54363ZM9.00004 15.3716C9.00004 15.3163 9.00004 15.2614 9.00238 15.2066C9.00309 15.1705 8.99338 15.1351 8.97443 15.1044C8.95547 15.0737 8.92807 15.0491 8.89551 15.0336C7.89709 14.5484 7.02538 13.8373 6.34943 12.9567C5.67348 12.0761 5.21186 11.0503 5.00113 9.96035C4.99574 9.93107 4.98345 9.90349 4.96528 9.8799C4.94711 9.85631 4.92358 9.83739 4.89664 9.8247C4.8697 9.81201 4.84013 9.80592 4.81037 9.80693C4.78061 9.80794 4.75152 9.81602 4.72551 9.83051C3.72129 10.4016 2.89102 11.2346 2.32335 12.2408C1.75568 13.2469 1.47192 14.3883 1.50238 15.5432C1.59379 18.921 4.50004 21.7466 7.87738 21.7466C9.04248 21.7474 10.1852 21.4271 11.1802 20.8208C11.2046 20.8057 11.2253 20.7852 11.2405 20.7608C11.2557 20.7364 11.2651 20.7089 11.268 20.6803C11.2709 20.6517 11.2672 20.6229 11.2572 20.5959C11.2472 20.569 11.2311 20.5448 11.2102 20.525C10.5115 19.8609 9.95521 19.0615 9.57524 18.1756C9.19528 17.2896 8.99958 16.3356 9.00004 15.3716Z" fill="#666666"/>
<path d="M7.87503 8.99659C7.1753 8.99597 6.48029 9.11112 5.81815 9.33737C5.77618 9.35135 5.7405 9.37972 5.71743 9.41746C5.69435 9.4552 5.68537 9.49989 5.69206 9.54362C5.83349 10.5021 6.19109 11.4159 6.7378 12.2159C7.28451 13.0158 8.006 13.6809 8.84768 14.1608C8.87363 14.1759 8.90281 14.1845 8.93278 14.1859C8.96275 14.1874 8.99263 14.1816 9.01991 14.1691C9.04719 14.1567 9.07108 14.1378 9.08956 14.1142C9.10804 14.0905 9.12058 14.0628 9.12612 14.0333C9.40621 12.5752 10.135 11.2411 11.2107 10.2177C11.2314 10.198 11.2473 10.1738 11.2572 10.1469C11.2671 10.1201 11.2708 10.0914 11.2679 10.0629C11.265 10.0345 11.2556 10.007 11.2405 9.98276C11.2254 9.95848 11.2049 9.93798 11.1807 9.92284C10.185 9.3158 9.04114 8.99529 7.87503 8.99659ZM12 15.7466C11.3223 15.7471 10.6479 15.6504 9.99753 15.4597C9.96888 15.4511 9.93858 15.4494 9.90916 15.4549C9.87975 15.4604 9.85207 15.4728 9.82844 15.4912C9.80481 15.5095 9.78591 15.5333 9.77333 15.5604C9.76075 15.5876 9.75485 15.6173 9.75612 15.6472C9.79247 16.4963 9.9986 17.3295 10.3624 18.0975C10.7261 18.8656 11.2401 19.553 11.8739 20.1191C11.9084 20.1504 11.9534 20.1678 12 20.1678C12.0467 20.1678 12.0916 20.1504 12.1261 20.1191C12.76 19.553 13.274 18.8656 13.6377 18.0975C14.0014 17.3295 14.2076 16.4963 14.2439 15.6472C14.2452 15.6173 14.2393 15.5876 14.2267 15.5604C14.2141 15.5333 14.1952 15.5095 14.1716 15.4912C14.148 15.4728 14.1203 15.4604 14.0909 15.4549C14.0615 15.4494 14.0312 15.4511 14.0025 15.4597C13.3521 15.6504 12.6778 15.7471 12 15.7466ZM14.183 14.4496C13.9663 12.9734 13.2386 11.6201 12.1266 10.6255C12.0917 10.5945 12.0467 10.5773 12 10.5773C11.9534 10.5773 11.9083 10.5945 11.8735 10.6255C10.7615 11.6201 10.0337 12.9734 9.81706 14.4496C9.81037 14.4933 9.81935 14.538 9.84243 14.5757C9.8655 14.6135 9.90118 14.6418 9.94315 14.6558C11.2768 15.1102 12.7233 15.1102 14.0569 14.6558C14.0989 14.6418 14.1346 14.6135 14.1576 14.5757C14.1807 14.538 14.1897 14.4933 14.183 14.4496Z" fill="#666666"/>
</svg>
