<svg width="24" height="24" viewBox="0 0 24 24" fill="none" xmlns="http://www.w3.org/2000/svg">
<path d="M12 8.67114C12.9357 8.09458 13.9818 7.72045 15.0709 7.57286C16.16 7.42528 17.268 7.50751 18.3234 7.81427C17.9231 4.6788 15.24 2.24927 12 2.24927C8.75996 2.24927 6.07684 4.6788 5.67652 7.81193C6.73209 7.50551 7.84014 7.42367 8.92927 7.57166C10.0184 7.71964 11.0644 8.09419 12 8.67114ZM15.75 15.5491C15.7275 16.5883 15.4989 17.6126 15.0775 18.5628C14.6561 19.5129 14.0503 20.3699 13.2951 21.0841C14.174 21.5224 15.1428 21.7502 16.125 21.7493C19.6406 21.7493 22.5 18.8899 22.5 15.3743C22.4995 14.3396 22.2472 13.3207 21.7649 12.4053C21.2825 11.49 20.5847 10.7058 19.7315 10.1205C19.5087 11.2628 19.0363 12.3417 18.348 13.2802C17.6597 14.2186 16.7725 14.9934 15.75 15.5491ZM13.2928 9.66443C14.4847 10.7932 15.2937 12.2665 15.6065 13.878C16.3522 13.3659 16.9805 12.7011 17.4497 11.9277C17.9189 11.1543 18.2183 10.29 18.3281 9.39208C17.5144 9.09225 16.648 8.96175 15.7821 9.00858C14.9162 9.05541 14.0689 9.27859 13.2923 9.66443H13.2928ZM8.25231 15.5491C7.22922 14.9937 6.34153 14.2191 5.65274 13.2806C4.96394 12.3421 4.49106 11.2631 4.26793 10.1205C3.41488 10.7059 2.71711 11.4901 2.23486 12.4054C1.75262 13.3207 1.5004 14.3397 1.49996 15.3743C1.49996 18.8899 4.35934 21.7493 7.87496 21.7493C8.85787 21.7505 9.82756 21.5228 10.7072 21.0841C9.95199 20.3699 9.34614 19.5129 8.92475 18.5628C8.50335 17.6126 8.27478 16.5883 8.25231 15.5491ZM8.3934 13.878C8.70626 12.2665 9.51527 10.7932 10.7072 9.66443C9.93059 9.27865 9.08343 9.05551 8.2176 9.00868C7.35176 8.96185 6.48548 9.09232 5.67184 9.39208C5.78162 10.29 6.08104 11.1543 6.55025 11.9277C7.01946 12.7011 7.64773 13.3659 8.3934 13.878ZM14.1984 16.1866C12.7624 16.6035 11.2375 16.6035 9.80153 16.1866C10.0047 17.7615 10.7888 19.2037 12 20.2305C13.2112 19.2037 13.9952 17.7615 14.1984 16.1866ZM9.79684 14.6065C11.2189 15.1302 12.781 15.1302 14.2031 14.6065C14.0092 13.015 13.2225 11.5551 12 10.518C10.7774 11.5551 9.99071 13.015 9.79684 14.6065Z" fill="#666666"/>
</svg>
