<svg width="24" height="24" viewBox="0 0 24 24" fill="none" xmlns="http://www.w3.org/2000/svg">
<path d="M20.1614 16.3053C19.852 16.0194 19.3973 15.9491 19.0083 15.8834C18.4692 15.7944 18.263 15.6959 17.9489 15.4147C17.2786 14.8194 17.2786 13.9569 17.9489 13.3616L19.3692 12.1006C21.5442 10.1787 21.5442 7.02875 19.3692 5.10687C17.7661 3.69594 15.6145 2.9975 13.3786 2.9975C10.7677 2.9975 8.03953 3.94906 5.93484 5.81469C2.02078 9.27406 2.02078 14.9412 5.93484 18.4006C7.88016 20.1209 10.5052 20.9787 13.102 20.9975H13.1817C15.7786 20.9975 18.338 20.1584 20.1567 18.5412C20.8317 17.9459 20.7188 16.8256 20.1614 16.3053V16.3053Z" stroke="#666666" stroke-width="1.5" stroke-miterlimit="10"/>
<path d="M6.75009 11.2484C7.57851 11.2484 8.25009 10.5768 8.25009 9.74841C8.25009 8.91999 7.57851 8.24841 6.75009 8.24841C5.92166 8.24841 5.25009 8.91999 5.25009 9.74841C5.25009 10.5768 5.92166 11.2484 6.75009 11.2484Z" fill="#666666"/>
<path d="M7.12489 16.0756C7.95332 16.0756 8.62489 15.4041 8.62489 14.5756C8.62489 13.7472 7.95332 13.0756 7.12489 13.0756C6.29646 13.0756 5.62489 13.7472 5.62489 14.5756C5.62489 15.4041 6.29646 16.0756 7.12489 16.0756Z" fill="#666666"/>
<path d="M10.5001 8.24658C11.3285 8.24658 12.0001 7.57501 12.0001 6.74658C12.0001 5.91816 11.3285 5.24658 10.5001 5.24658C9.67166 5.24658 9.00009 5.91816 9.00009 6.74658C9.00009 7.57501 9.67166 8.24658 10.5001 8.24658Z" fill="#666666"/>
<path d="M12 19.4506C13.2426 19.4506 14.25 18.4433 14.25 17.2006C14.25 15.958 13.2426 14.9506 12 14.9506C10.7573 14.9506 9.74997 15.958 9.74997 17.2006C9.74997 18.4433 10.7573 19.4506 12 19.4506Z" fill="#666666"/>
<path d="M15.3751 8.24658C16.2035 8.24658 16.8751 7.57501 16.8751 6.74658C16.8751 5.91816 16.2035 5.24658 15.3751 5.24658C14.5466 5.24658 13.8751 5.91816 13.8751 6.74658C13.8751 7.57501 14.5466 8.24658 15.3751 8.24658Z" fill="#666666"/>
</svg>
