<svg width="24" height="24" viewBox="0 0 24 24" fill="none" xmlns="http://www.w3.org/2000/svg">
<path d="M20.6718 15.7586L20.669 15.7563C20.2036 15.326 19.6012 15.2247 19.1615 15.1507L19.1292 15.145C18.705 15.0752 18.6379 15.0279 18.4457 14.8558C18.3314 14.7541 18.195 14.591 18.195 14.3899C18.195 14.1888 18.3314 14.0257 18.4453 13.924L19.8646 12.6644C21.0796 11.5905 21.749 10.1491 21.749 8.60552C21.749 7.06192 21.0811 5.62052 19.8646 4.54614C18.1823 3.06536 15.8803 2.24927 13.3786 2.24927C10.4868 2.24927 7.59371 3.34474 5.43745 5.25442C3.38105 7.07177 2.24995 9.50646 2.24995 12.1094C2.24995 14.7124 3.38245 17.1471 5.43745 18.964C6.45699 19.8658 7.66355 20.5661 9.02433 21.0461C10.3332 21.5052 11.7094 21.7429 13.0964 21.7493H13.1812C16.0406 21.7493 18.7636 20.7851 20.6526 19.1055C21.1073 18.7043 21.3628 18.1291 21.3717 17.4855C21.3815 16.8213 21.12 16.1754 20.6718 15.7586ZM5.24995 9.74927C5.24995 9.4526 5.33793 9.16259 5.50275 8.91591C5.66757 8.66924 5.90184 8.47698 6.17593 8.36345C6.45002 8.24992 6.75162 8.22021 7.04259 8.27809C7.33356 8.33597 7.60084 8.47883 7.81062 8.68861C8.02039 8.89839 8.16326 9.16566 8.22113 9.45663C8.27901 9.7476 8.24931 10.0492 8.13578 10.3233C8.02224 10.5974 7.82998 10.8317 7.58331 10.9965C7.33664 11.1613 7.04663 11.2493 6.74996 11.2493C6.35213 11.2493 5.9706 11.0912 5.68929 10.8099C5.40799 10.5286 5.24995 10.1471 5.24995 9.74927ZM7.12496 16.0774C6.82828 16.0774 6.53827 15.9894 6.2916 15.8246C6.04493 15.6598 5.85267 15.4255 5.73914 15.1514C5.6256 14.8773 5.5959 14.5757 5.65378 14.2848C5.71165 13.9938 5.85452 13.7265 6.0643 13.5167C6.27407 13.307 6.54135 13.1641 6.83232 13.1062C7.12329 13.0483 7.42489 13.078 7.69898 13.1916C7.97307 13.3051 8.20734 13.4974 8.37216 13.744C8.53698 13.9907 8.62496 14.2807 8.62496 14.5774C8.62496 14.9752 8.46692 15.3567 8.18562 15.6381C7.90431 15.9194 7.52278 16.0774 7.12496 16.0774ZM8.99996 6.74927C8.99996 6.4526 9.08793 6.16259 9.25275 5.91591C9.41757 5.66924 9.65184 5.47698 9.92593 5.36345C10.2 5.24992 10.5016 5.22021 10.7926 5.27809C11.0836 5.33597 11.3508 5.47883 11.5606 5.68861C11.7704 5.89839 11.9133 6.16566 11.9711 6.45663C12.029 6.7476 11.9993 7.0492 11.8858 7.32329C11.7722 7.59738 11.58 7.83165 11.3333 7.99647C11.0866 8.16129 10.7966 8.24927 10.5 8.24927C10.1021 8.24927 9.7206 8.09123 9.4393 7.80993C9.15799 7.52862 8.99996 7.14709 8.99996 6.74927ZM12 19.4524C11.5549 19.4524 11.1199 19.3204 10.7499 19.0732C10.3799 18.826 10.0915 18.4746 9.92123 18.0634C9.75093 17.6523 9.70637 17.1999 9.79319 16.7634C9.88001 16.327 10.0943 15.9261 10.409 15.6114C10.7236 15.2967 11.1245 15.0824 11.561 14.9956C11.9975 14.9088 12.4499 14.9534 12.861 15.1237C13.2721 15.294 13.6235 15.5824 13.8708 15.9524C14.118 16.3224 14.25 16.7574 14.25 17.2024C14.25 17.7991 14.0129 18.3714 13.5909 18.7934C13.169 19.2153 12.5967 19.4524 12 19.4524ZM15.375 8.24927C15.0783 8.24927 14.7883 8.16129 14.5416 7.99647C14.2949 7.83165 14.1027 7.59738 13.9891 7.32329C13.8756 7.0492 13.8459 6.7476 13.9038 6.45663C13.9617 6.16566 14.1045 5.89839 14.3143 5.68861C14.5241 5.47883 14.7914 5.33597 15.0823 5.27809C15.3733 5.22021 15.6749 5.24992 15.949 5.36345C16.2231 5.47698 16.4573 5.66924 16.6222 5.91591C16.787 6.16259 16.875 6.4526 16.875 6.74927C16.875 7.14709 16.7169 7.52862 16.4356 7.80993C16.1543 8.09123 15.7728 8.24927 15.375 8.24927Z" fill="#666666"/>
</svg>
