<svg width="24" height="24" viewBox="0 0 24 24" fill="none" xmlns="http://www.w3.org/2000/svg">
<path d="M10.4467 8.35329C9.86966 7.77629 8.93424 7.77621 8.35733 8.35312C7.78042 8.93003 7.78049 9.86546 8.35749 10.4425L18.8037 20.8886C19.3807 21.4656 20.3161 21.4657 20.893 20.8888C21.4699 20.3119 21.4698 19.3765 20.8928 18.7995L10.4467 8.35329Z" stroke="#666666" stroke-width="1.5" stroke-miterlimit="10"/>
<path d="M8.36149 8.35839C8.22374 8.49611 8.11447 8.65962 8.03992 8.83958C7.96537 9.01954 7.92699 9.21242 7.92699 9.40722C7.92699 9.60201 7.96537 9.79489 8.03992 9.97485C8.11447 10.1548 8.22374 10.3183 8.36149 10.456L10.4648 12.5593L12.5624 10.4617L10.4591 8.35839C10.3214 8.22064 10.1579 8.11136 9.97795 8.03681C9.79799 7.96226 9.60511 7.92389 9.41032 7.92389C9.21553 7.92389 9.02265 7.96226 8.84269 8.03681C8.66273 8.11136 8.49922 8.22064 8.36149 8.35839Z" fill="#666666"/>
<path d="M2.25002 8.99927H4.50002H2.25002ZM4.2272 4.22646L5.81814 5.81739L4.2272 4.22646ZM9.00002 2.24927V4.49927V2.24927ZM13.7728 4.22646L12.1819 5.81739L13.7728 4.22646ZM5.81814 12.1811L4.2272 13.7721L5.81814 12.1811Z" fill="#666666"/>
<path d="M5.81814 12.1811L4.2272 13.7721M2.25002 8.99927H4.50002H2.25002ZM4.2272 4.22646L5.81814 5.81739L4.2272 4.22646ZM9.00002 2.24927V4.49927V2.24927ZM13.7728 4.22646L12.1819 5.81739L13.7728 4.22646Z" stroke="#666666" stroke-width="1.5" stroke-miterlimit="10" stroke-linecap="round"/>
</svg>
