<svg width="24" height="24" viewBox="0 0 24 24" fill="none" xmlns="http://www.w3.org/2000/svg">
<path d="M19.5 22.4966C17.8458 22.4966 16.5 21.132 16.5 19.4553C16.5 17.8948 17.8439 16.3897 18.5663 15.5816C18.6539 15.4831 18.7298 15.3983 18.7856 15.3327C18.8734 15.2281 18.9829 15.144 19.1066 15.0863C19.2303 15.0287 19.3652 14.9988 19.5016 14.9988C19.6381 14.9988 19.773 15.0287 19.8967 15.0863C20.0204 15.144 20.1299 15.2281 20.2177 15.3327C20.2706 15.3941 20.3409 15.4733 20.422 15.5637C21.1486 16.3747 22.5 17.8845 22.5 19.4567C22.5 21.132 21.1542 22.4966 19.5 22.4966ZM18.667 12.9641L7.82297 2.21C7.36513 1.75315 6.74476 1.49658 6.09797 1.49658C5.45119 1.49658 4.83082 1.75315 4.37297 2.21L4.16157 2.4214C3.69189 2.8834 3.42411 3.51248 3.41672 4.17125C3.41491 4.49288 3.47719 4.81165 3.59992 5.10895C3.72266 5.40625 3.90339 5.67612 4.13157 5.90281L6.07735 7.84812L2.10938 11.8091C1.913 12.0059 1.75794 12.24 1.65329 12.4976C1.54865 12.7551 1.49653 13.031 1.5 13.3091C1.50231 13.5803 1.55958 13.8482 1.66834 14.0967C1.77711 14.3452 1.93511 14.569 2.13281 14.7547L8.28469 20.6609C8.67019 21.0304 9.18397 21.236 9.71795 21.2345C10.2519 21.2329 10.7645 21.0243 11.1478 20.6525L16.9655 15.0144C17.0707 14.9098 17.2052 14.8396 17.3513 14.8133C17.5361 14.7837 17.7233 14.7702 17.9105 14.773H17.9245C18.1343 14.7733 18.3394 14.7112 18.5137 14.5946C18.6881 14.4779 18.8237 14.3119 18.9033 14.1179C18.983 13.9238 19.0031 13.7105 18.961 13.505C18.9189 13.2995 18.8166 13.1112 18.667 12.9641ZM7.1386 6.7864L5.19188 4.84015C5.10443 4.75305 5.03504 4.64954 4.9877 4.53555C4.94035 4.42157 4.91598 4.29936 4.91598 4.17594C4.91598 4.05251 4.94035 3.9303 4.9877 3.81631C5.03504 3.70233 5.10443 3.59882 5.19188 3.51172L5.43375 3.27031C5.52112 3.1829 5.62485 3.11357 5.73902 3.06626C5.85319 3.01895 5.97556 2.9946 6.09914 2.9946C6.22273 2.9946 6.3451 3.01895 6.45927 3.06626C6.57344 3.11357 6.67717 3.1829 6.76453 3.27031L8.71875 5.20953L7.1386 6.7864Z" fill="#666666"/>
</svg>
