<svg width="24" height="24" viewBox="0 0 24 24" fill="none" xmlns="http://www.w3.org/2000/svg">
<path d="M6.25496 9.40191L9.40482 6.2521L13.0677 9.915L9.91791 13.0648L6.25496 9.40191ZM14.1285 10.9752L10.979 14.1252L19.3124 22.4966L22.4999 19.3091L14.1285 10.9752ZM1.49991 8.24658H5.24991V9.74658H1.49991V8.24658ZM3.16978 4.22705L4.23042 3.16636L6.8821 5.81804L5.82146 6.87868L3.16978 4.22705ZM8.24991 1.49658H9.74991V5.24658H8.24991V1.49658ZM11.1243 5.81822L13.776 3.16655L14.8366 4.22719L12.1849 6.87886L11.1243 5.81822ZM3.1696 13.7725L5.82127 11.1209L6.88191 12.1815L4.23024 14.8332L3.1696 13.7725Z" fill="#666666"/>
</svg>
