<svg width="24" height="24" viewBox="0 0 24 24" fill="none" xmlns="http://www.w3.org/2000/svg">
<path d="M19.6454 15.8135C19.6281 15.7924 19.6063 15.7753 19.5816 15.7636C19.5568 15.7518 19.5298 15.7458 19.5024 15.7458C19.4751 15.7458 19.4481 15.7518 19.4233 15.7636C19.3986 15.7753 19.3768 15.7924 19.3595 15.8135C18.8673 16.3948 17.2501 17.9956 17.2501 19.4539C17.2501 20.7195 18.2579 21.7456 19.5001 21.7456C20.7423 21.7456 21.7501 20.7143 21.7501 19.4539C21.7501 17.9956 20.1423 16.3948 19.6454 15.8135V15.8135ZM18.1407 13.4909L7.29432 2.73119C7.13754 2.57387 6.95125 2.44905 6.74613 2.36388C6.54102 2.27871 6.3211 2.23486 6.099 2.23486C5.8769 2.23486 5.65699 2.27871 5.45187 2.36388C5.24675 2.44905 5.06046 2.57387 4.90369 2.73119L4.66228 2.9726C4.50496 3.12937 4.38014 3.31566 4.29497 3.52078C4.2098 3.7259 4.16595 3.94581 4.16595 4.16791C4.16595 4.39001 4.2098 4.60993 4.29497 4.81504C4.38014 5.02016 4.50496 5.20645 4.66228 5.36323L7.1415 7.84244L9.81338 5.17057L2.64056 12.3331C2.51675 12.4562 2.41876 12.6028 2.35232 12.7643C2.28588 12.9258 2.25233 13.0989 2.25364 13.2735C2.25495 13.4481 2.29109 13.6207 2.35994 13.7812C2.4288 13.9417 2.52898 14.0868 2.65463 14.2081L8.80463 20.1143C9.05021 20.3494 9.37731 20.4803 9.71729 20.4794C10.0573 20.4785 10.3837 20.346 10.6281 20.1096C12.3999 18.394 16.1734 14.7424 16.5671 14.3487C16.839 14.0768 17.4203 14.0159 17.9124 14.0159H17.9265C17.9874 14.0159 18.0469 13.9978 18.0974 13.9639C18.1479 13.93 18.1872 13.8818 18.2102 13.8254C18.2332 13.7691 18.2389 13.7072 18.2265 13.6476C18.2141 13.588 18.1842 13.5334 18.1407 13.4909V13.4909Z" stroke="#666666" stroke-width="1.5" stroke-miterlimit="10"/>
</svg>
