<svg width="24" height="24" viewBox="0 0 24 24" fill="none" xmlns="http://www.w3.org/2000/svg">
<path d="M12 14.2475C15.1066 14.2475 17.625 11.7291 17.625 8.6225C17.625 5.5159 15.1066 2.9975 12 2.9975C8.89341 2.9975 6.37502 5.5159 6.37502 8.6225C6.37502 11.7291 8.89341 14.2475 12 14.2475Z" stroke="#666666" stroke-width="1.5" stroke-linejoin="round"/>
<path d="M16.125 20.9993C19.2316 20.9993 21.75 18.4809 21.75 15.3743C21.75 12.2677 19.2316 9.74927 16.125 9.74927C13.0184 9.74927 10.5 12.2677 10.5 15.3743C10.5 18.4809 13.0184 20.9993 16.125 20.9993Z" stroke="#666666" stroke-width="1.5" stroke-linejoin="round"/>
<path d="M7.87507 20.9993C10.9817 20.9993 13.5001 18.4809 13.5001 15.3743C13.5001 12.2677 10.9817 9.74927 7.87507 9.74927C4.76847 9.74927 2.25007 12.2677 2.25007 15.3743C2.25007 18.4809 4.76847 20.9993 7.87507 20.9993Z" stroke="#666666" stroke-width="1.5" stroke-linejoin="round"/>
</svg>
