<svg width="24" height="24" viewBox="0 0 24 24" fill="none" xmlns="http://www.w3.org/2000/svg">
<path d="M4.49992 9.7475H2.24992C1.83742 9.7475 1.49992 9.41 1.49992 8.9975C1.49992 8.585 1.83742 8.2475 2.24992 8.2475H4.49992C4.91242 8.2475 5.24992 8.585 5.24992 8.9975C5.24992 9.41 4.91242 9.7475 4.49992 9.7475ZM5.8171 6.56469C5.62023 6.56469 5.42804 6.485 5.28742 6.34437L3.69835 4.75531C3.40773 4.46469 3.40773 3.98656 3.69835 3.69594C3.98898 3.40531 4.4671 3.40531 4.75773 3.69594L6.34679 5.285C6.6421 5.57562 6.6421 6.05375 6.34679 6.34437C6.20617 6.485 6.01867 6.56469 5.8171 6.56469ZM8.99992 5.2475C8.58742 5.2475 8.24992 4.91 8.24992 4.4975V2.2475C8.24992 1.835 8.58742 1.4975 8.99992 1.4975C9.41242 1.4975 9.74992 1.835 9.74992 2.2475V4.4975C9.74992 4.91 9.41242 5.2475 8.99992 5.2475ZM12.1827 6.56469C11.7702 6.56469 11.4327 6.22719 11.4327 5.81469C11.4327 5.61781 11.5124 5.42562 11.653 5.285L13.2421 3.69594C13.5327 3.40531 14.0109 3.40531 14.3015 3.69594C14.5921 3.98656 14.5921 4.46469 14.3015 4.75531L12.7124 6.34437C12.5718 6.485 12.3796 6.56469 12.1827 6.56469ZM4.22804 14.5194C3.81554 14.5194 3.47804 14.1819 3.47804 13.7694C3.47804 13.5725 3.55773 13.3803 3.69835 13.2397L5.28742 11.6506C5.57804 11.36 6.05617 11.36 6.34679 11.6506C6.63742 11.9412 6.63742 12.4194 6.34679 12.71L4.75773 14.2991C4.6171 14.4397 4.42492 14.5194 4.22804 14.5194ZM10.978 7.82562C10.1155 6.94906 8.7046 6.935 7.82804 7.79281C6.95148 8.65062 6.93742 10.0662 7.79523 10.9428L7.82804 10.9756L9.6796 12.8272C9.82492 12.9725 10.064 12.9725 10.2093 12.8272L12.8296 10.2069C12.9749 10.0616 12.9749 9.8225 12.8296 9.67719L10.978 7.82562ZM21.4218 18.2694L14.4187 11.2662C14.2734 11.1209 14.0343 11.1209 13.889 11.2662L11.2687 13.8866C11.1234 14.0319 11.1234 14.2709 11.2687 14.4163L18.2718 21.4194C19.1343 22.2959 20.5452 22.31 21.4218 21.4522C22.2984 20.5897 22.3124 19.1788 21.4546 18.3022C21.4452 18.2928 21.4359 18.2787 21.4218 18.2694Z" fill="#666666"/>
</svg>
