<svg width="24" height="24" viewBox="0 0 24 24" fill="none" xmlns="http://www.w3.org/2000/svg">
<path d="M19.5 16.4993C18.9094 16.4599 18.5157 16.3118 18.1875 15.9368C17.5313 15.1868 17.5313 14.2493 18.4449 13.4768L19.9833 12.1108C22.3397 10.0291 22.3397 6.61661 19.9833 4.53442C18.2466 3.00583 15.916 2.24927 13.4935 2.24927C10.665 2.24927 7.70957 3.28052 5.43097 5.3013C1.19066 9.0513 1.19066 15.1882 5.43097 18.9358C7.54035 20.7996 10.3824 21.7291 13.1954 21.7483H13.2816C16.0941 21.7483 18.863 20.8343 20.8379 19.0872C21.75 18.2805 21.75 18.0461 20.8416 16.6661C20.625 16.3118 20.2032 16.5461 19.5 16.4993ZM5.25004 9.74927C5.25004 9.4526 5.33801 9.16259 5.50283 8.91591C5.66766 8.66924 5.90192 8.47698 6.17601 8.36345C6.4501 8.24992 6.7517 8.22021 7.04267 8.27809C7.33364 8.33597 7.60092 8.47883 7.8107 8.68861C8.02048 8.89839 8.16334 9.16566 8.22122 9.45663C8.27909 9.74761 8.24939 10.0492 8.13586 10.3233C8.02233 10.5974 7.83007 10.8317 7.58339 10.9965C7.33672 11.1613 7.04671 11.2493 6.75004 11.2493C6.35221 11.2493 5.97068 11.0912 5.68938 10.8099C5.40807 10.5286 5.25004 10.1471 5.25004 9.74927ZM7.12504 16.0774C6.82837 16.0774 6.53836 15.9894 6.29168 15.8246C6.04501 15.6598 5.85275 15.4255 5.73922 15.1514C5.62569 14.8773 5.59598 14.5757 5.65386 14.2848C5.71174 13.9938 5.8546 13.7265 6.06438 13.5167C6.27416 13.307 6.54143 13.1641 6.8324 13.1062C7.12337 13.0483 7.42497 13.078 7.69906 13.1916C7.97315 13.3051 8.20742 13.4974 8.37224 13.744C8.53706 13.9907 8.62504 14.2807 8.62504 14.5774C8.62504 14.9752 8.467 15.3568 8.1857 15.6381C7.90439 15.9194 7.52286 16.0774 7.12504 16.0774ZM9.00004 6.74927C9.00004 6.4526 9.08801 6.16259 9.25283 5.91591C9.41766 5.66924 9.65192 5.47698 9.92601 5.36345C10.2001 5.24992 10.5017 5.22021 10.7927 5.27809C11.0836 5.33597 11.3509 5.47883 11.5607 5.68861C11.7705 5.89839 11.9133 6.16566 11.9712 6.45663C12.0291 6.7476 11.9994 7.0492 11.8859 7.32329C11.7723 7.59738 11.5801 7.83165 11.3334 7.99647C11.0867 8.1613 10.7967 8.24927 10.5 8.24927C10.1022 8.24927 9.72068 8.09123 9.43938 7.80993C9.15807 7.52862 9.00004 7.14709 9.00004 6.74927ZM12 19.4524C11.555 19.4524 11.12 19.3204 10.75 19.0732C10.38 18.826 10.0916 18.4746 9.92131 18.0634C9.75101 17.6523 9.70645 17.1999 9.79327 16.7634C9.88009 16.327 10.0944 15.9261 10.409 15.6114C10.7237 15.2967 11.1246 15.0824 11.5611 14.9956C11.9975 14.9088 12.4499 14.9534 12.8611 15.1237C13.2722 15.294 13.6236 15.5824 13.8708 15.9524C14.1181 16.3224 14.25 16.7574 14.25 17.2024C14.25 17.7991 14.013 18.3714 13.591 18.7934C13.1691 19.2153 12.5968 19.4524 12 19.4524ZM15.375 8.24927C15.0784 8.24927 14.7884 8.1613 14.5417 7.99647C14.295 7.83165 14.1028 7.59738 13.9892 7.32329C13.8757 7.0492 13.846 6.7476 13.9039 6.45663C13.9617 6.16566 14.1046 5.89839 14.3144 5.68861C14.5242 5.47883 14.7914 5.33597 15.0824 5.27809C15.3734 5.22021 15.675 5.24992 15.9491 5.36345C16.2232 5.47698 16.4574 5.66924 16.6222 5.91591C16.7871 6.16259 16.875 6.4526 16.875 6.74927C16.875 7.14709 16.717 7.52862 16.4357 7.80993C16.1544 8.09123 15.7729 8.24927 15.375 8.24927Z" fill="#666666"/>
</svg>
