<svg width="24" height="24" viewBox="0 0 24 24" fill="none" xmlns="http://www.w3.org/2000/svg">
<path d="M12.0001 13.1225C12.6214 13.1225 13.1251 12.6188 13.1251 11.9975C13.1251 11.3762 12.6214 10.8725 12.0001 10.8725C11.3788 10.8725 10.8751 11.3762 10.8751 11.9975C10.8751 12.6188 11.3788 13.1225 12.0001 13.1225Z" fill="#666666"/>
<path d="M12 2.25018C6.6239 2.25018 2.24999 6.62409 2.24999 12.0002C2.24999 17.3763 6.6239 21.7502 12 21.7502C17.3761 21.7502 21.75 17.3763 21.75 12.0002C21.75 6.62409 17.3761 2.25018 12 2.25018ZM16.9251 7.56253L14.7276 13.0563C14.5768 13.4336 14.3508 13.7763 14.0634 14.0636C13.7761 14.351 13.4334 14.577 13.0561 14.7278L7.56233 16.9253C7.49418 16.9526 7.41953 16.9593 7.34762 16.9445C7.27571 16.9298 7.20972 16.8943 7.15781 16.8424C7.10591 16.7905 7.07038 16.7245 7.05563 16.6526C7.04088 16.5806 7.04755 16.506 7.07483 16.4378L9.27233 10.9441C9.42322 10.5668 9.64919 10.2241 9.93653 9.93672C10.2239 9.64938 10.5666 9.42342 10.9439 9.27253L16.4376 7.07503C16.5058 7.04775 16.5804 7.04107 16.6524 7.05582C16.7243 7.07057 16.7903 7.1061 16.8422 7.15801C16.8941 7.20991 16.9296 7.27591 16.9444 7.34782C16.9591 7.41972 16.9524 7.49438 16.9251 7.56253Z" fill="#666666"/>
</svg>
