<svg width="24" height="24" viewBox="0 0 24 24" fill="none" xmlns="http://www.w3.org/2000/svg">
<path d="M21 11.9984C21 7.02966 16.9688 2.99841 12 2.99841C7.03129 2.99841 3.00004 7.02966 3.00004 11.9984C3.00004 16.9672 7.03129 20.9984 12 20.9984C16.9688 20.9984 21 16.9672 21 11.9984Z" stroke="#666666" stroke-width="1.5" stroke-miterlimit="10"/>
<path d="M16.4376 7.07275L10.9439 9.27025C10.5665 9.42114 10.2238 9.64711 9.93649 9.93445C9.64915 10.2218 9.42318 10.5645 9.27229 10.9418L7.07479 16.4356C7.04751 16.5037 7.04083 16.5784 7.05559 16.6503C7.07034 16.7222 7.10587 16.7882 7.15777 16.8401C7.20968 16.892 7.27567 16.9275 7.34758 16.9423C7.41949 16.957 7.49414 16.9503 7.56229 16.9231L13.056 14.7256C13.4333 14.5747 13.7761 14.3487 14.0634 14.0614C14.3507 13.774 14.5767 13.4313 14.7276 13.054L16.9251 7.56025C16.9524 7.49211 16.9591 7.41745 16.9443 7.34554C16.9296 7.27364 16.894 7.20764 16.8421 7.15573C16.7902 7.10383 16.7242 7.0683 16.6523 7.05355C16.5804 7.0388 16.5058 7.04547 16.4376 7.07275ZM11.9999 13.1229C11.7774 13.1229 11.5599 13.0569 11.3749 12.9333C11.1899 12.8097 11.0457 12.634 10.9606 12.4284C10.8754 12.2229 10.8532 11.9967 10.8966 11.7784C10.94 11.5602 11.0471 11.3597 11.2045 11.2024C11.3618 11.0451 11.5622 10.9379 11.7805 10.8945C11.9987 10.8511 12.2249 10.8734 12.4305 10.9585C12.636 11.0437 12.8117 11.1879 12.9353 11.3729C13.059 11.5579 13.1249 11.7754 13.1249 11.9979C13.1249 12.2963 13.0064 12.5824 12.7954 12.7934C12.5845 13.0044 12.2983 13.1229 11.9999 13.1229Z" fill="#666666"/>
</svg>
