<svg width="24" height="24" viewBox="0 0 24 24" fill="none" xmlns="http://www.w3.org/2000/svg">
<path d="M12 13.1225C12.6214 13.1225 13.125 12.6188 13.125 11.9975C13.125 11.3762 12.6214 10.8725 12 10.8725C11.3787 10.8725 10.875 11.3762 10.875 11.9975C10.875 12.6188 11.3787 13.1225 12 13.1225Z" fill="#666666"/>
<path d="M12.0001 2.25018C6.62398 2.25018 2.25007 6.62409 2.25007 12.0002C2.25007 17.3763 6.62398 21.7502 12.0001 21.7502C17.3762 21.7502 21.7501 17.3763 21.7501 12.0002C21.7501 6.62409 17.3762 2.25018 12.0001 2.25018ZM14.2501 14.2502L6.75007 17.2502L9.75007 9.75018L17.2501 6.75018L14.2501 14.2502Z" fill="#666666"/>
</svg>
