<svg width="24" height="24" viewBox="0 0 24 24" fill="none" xmlns="http://www.w3.org/2000/svg">
<g clip-path="url(#clip0_32_1211)">
<path d="M23.3034 5.22049L19.5023 9.00987L17.2251 6.74065L21.0262 2.95268C18.9066 1.92143 15.9333 1.91721 14.1731 3.67221C12.5175 5.32221 12.3108 7.91955 13.1166 9.96283L4.66733 18.345C4.61489 18.3973 4.57328 18.4594 4.54489 18.5278C4.5165 18.5961 4.50189 18.6694 4.50189 18.7435C4.50189 18.8175 4.5165 18.8908 4.54489 18.9592C4.57328 19.0275 4.61489 19.0896 4.66733 19.1419L7.11749 21.5846C7.16975 21.637 7.23184 21.6786 7.30022 21.707C7.36859 21.7354 7.44189 21.75 7.51593 21.75C7.58996 21.75 7.66326 21.7354 7.73164 21.707C7.80001 21.6786 7.86211 21.637 7.91436 21.5846L16.3519 13.1236C18.375 13.8835 20.9456 13.6692 22.5741 12.0455C24.3319 10.29 24.3281 7.34205 23.3034 5.22049Z" fill="#666666"/>
<path d="M17.1305 14.4663L13.7634 17.8413L17.3039 21.5875C17.3508 21.6374 17.4073 21.6773 17.4699 21.7049C17.5326 21.7325 17.6002 21.7472 17.6686 21.7481C17.7371 21.7491 17.805 21.7362 17.8684 21.7103C17.9318 21.6844 17.9893 21.646 18.0375 21.5974L20.85 18.7633C20.8981 18.7146 20.936 18.6568 20.9615 18.5932C20.987 18.5297 20.9996 18.4617 20.9986 18.3932C20.9975 18.3248 20.9829 18.2572 20.9554 18.1945C20.928 18.1317 20.8883 18.0751 20.8388 18.0278L17.1305 14.4663ZM5.57813 9.93722C5.57813 9.70894 5.39063 9.49988 5.22891 9.33816L5.21719 9.32691L5.14501 9.258C5.14052 9.25291 5.13713 9.24696 5.13503 9.24051C5.13294 9.23406 5.13218 9.22725 5.13282 9.2205C5.26841 9.14416 5.42422 9.11142 5.57907 9.12675C5.6386 9.13284 5.8561 9.16894 6.16032 9.35691C6.31876 9.45487 7.68985 10.7739 8.21954 11.2647C8.12664 11.3619 8.07534 11.4914 8.07656 11.6258C8.07779 11.7602 8.13144 11.8888 8.2261 11.9843L8.57438 12.3527L11.6522 9.29784L11.2655 8.93034C11.1704 8.83531 11.0416 8.78168 10.9072 8.78116C10.7728 8.78063 10.6436 8.83324 10.5478 8.92753C9.4697 7.77066 9.18845 7.26581 9.0947 6.93769C8.88751 6.21253 9.28876 5.62519 9.75095 5.25019C10.0247 5.03362 10.5891 4.87144 11.1103 4.82831C11.2922 4.8176 11.4747 4.82703 11.6545 4.85644C11.8172 4.87987 11.9499 4.90987 12.0009 4.92206C12.1779 4.96974 12.3504 5.03247 12.5166 5.10956L13.0791 4.21894C12.9054 3.91707 12.6944 3.63831 12.4509 3.38925C12.3724 3.30702 12.2913 3.22729 12.2077 3.15019C11.843 2.81503 10.8952 2.25019 9.64876 2.25019C8.92892 2.24939 8.21592 2.38986 7.55016 2.66362C5.79516 3.38269 4.64954 4.36284 4.12313 4.88316L4.11985 4.88644C3.76612 5.24192 3.43884 5.62277 3.14063 6.02597C2.88985 6.37894 2.91704 6.76847 2.93532 7.02628C2.93532 7.04128 2.93532 7.05769 2.9386 7.07316C2.79161 6.96669 2.61479 6.90928 2.43329 6.90909C2.32086 6.90832 2.20941 6.93002 2.10549 6.97293C2.00157 7.01583 1.90727 7.07907 1.82813 7.15894L0.0937556 8.88816C0.0341023 8.94784 0.000592012 9.02877 0.000592012 9.11316C0.000592012 9.19754 0.0341023 9.27847 0.0937556 9.33816L3.04688 12.281C3.10595 12.34 3.18603 12.3731 3.26954 12.3731C3.35304 12.3731 3.43313 12.34 3.49219 12.281L5.22938 10.5466C5.39063 10.3853 5.57813 10.165 5.57813 9.93722Z" fill="#666666"/>
</g>
<defs>
<clipPath id="clip0_32_1211">
<rect width="24" height="24" fill="white"/>
</clipPath>
</defs>
</svg>
