<svg width="24" height="24" viewBox="0 0 24 24" fill="none" xmlns="http://www.w3.org/2000/svg">
<path d="M20.4689 8.62792C20.2303 8.86499 19.9076 8.99805 19.5713 8.99805C19.2349 8.99805 18.9122 8.86499 18.6736 8.62792L17.6199 7.5737C17.3827 7.33524 17.2496 7.0126 17.2496 6.67628C17.2496 6.33997 17.3827 6.01733 17.6199 5.77886L20.0053 3.39339C20.0099 3.38881 20.0133 3.38317 20.0152 3.37697C20.0171 3.37077 20.0175 3.3642 20.0163 3.35783C20.0151 3.35145 20.0124 3.34547 20.0083 3.34039C20.0043 3.33532 19.9991 3.3313 19.9931 3.3287C18.4538 2.66964 16.4574 3.0048 15.1898 4.26339C13.9767 5.46761 13.9078 7.27605 14.3522 8.85714C14.4153 9.08173 14.4152 9.3194 14.3517 9.54391C14.2883 9.76841 14.164 9.97101 13.9927 10.1293L5.88329 17.665C5.68973 17.8383 5.53356 18.0492 5.42431 18.285C5.31507 18.5207 5.25505 18.7762 5.24793 19.0359C5.2408 19.2957 5.28672 19.5541 5.38288 19.7955C5.47903 20.0368 5.62341 20.256 5.80717 20.4397C5.99093 20.6234 6.21022 20.7676 6.45164 20.8637C6.69305 20.9597 6.95151 21.0055 7.21122 20.9982C7.47093 20.991 7.72643 20.9308 7.9621 20.8214C8.19777 20.7121 8.40866 20.5558 8.58188 20.3621L16.1827 12.2387C16.3393 12.0702 16.5388 11.9475 16.7599 11.8839C16.981 11.8203 17.2153 11.8182 17.4375 11.8778C19.0059 12.2968 20.7886 12.2181 21.9877 11.0368C23.2763 9.76745 23.5542 7.52402 22.9299 6.24011C22.927 6.23448 22.9229 6.2296 22.9178 6.22587C22.9127 6.22214 22.9068 6.21967 22.9006 6.21867C22.8944 6.21766 22.888 6.21814 22.882 6.22008C22.876 6.22201 22.8706 6.22534 22.8661 6.2298L20.4689 8.62792Z" stroke="#666666" stroke-width="1.5" stroke-miterlimit="10" stroke-linecap="round"/>
<path d="M14.8627 13.6553C16.7822 15.4412 19.1105 17.5586 20.019 18.3151C20.0869 18.3711 20.1424 18.4407 20.1818 18.5195C20.2212 18.5982 20.2437 18.6843 20.2479 18.7722C20.252 18.8602 20.2377 18.948 20.2059 19.0301C20.1741 19.1122 20.1254 19.1867 20.063 19.2489L18.4983 20.8131C18.4347 20.8753 18.359 20.9239 18.2759 20.956C18.1928 20.988 18.1041 21.0028 18.0151 20.9995C17.9262 20.9962 17.8388 20.9748 17.7584 20.9366C17.6779 20.8984 17.6061 20.8443 17.5472 20.7775C16.7724 19.8784 14.6837 17.6317 12.894 15.7618M10.5001 13.3131C9.68068 12.5162 9.30521 12.1454 9.04693 11.8933C8.91767 11.7648 8.83282 11.5985 8.80474 11.4185C8.77666 11.2384 8.80683 11.0542 8.89084 10.8925C8.93513 10.813 8.99035 10.7401 9.0549 10.6759L9.7899 9.95919C9.86595 9.883 9.95542 9.8215 10.0538 9.77779C10.2091 9.70904 10.3815 9.68846 10.5486 9.71871C10.7157 9.74896 10.8699 9.82865 10.9913 9.94747C11.2468 10.1954 11.7146 10.6506 12.5574 11.4718L10.5001 13.3131Z" stroke="#666666" stroke-width="1.5" stroke-linecap="round" stroke-linejoin="round"/>
<path d="M0.812852 9.06873L2.19145 7.72154C2.2125 7.70084 2.2375 7.68457 2.26496 7.6737C2.29241 7.66283 2.32177 7.65758 2.35129 7.65826C2.4108 7.65762 2.46819 7.68034 2.51113 7.72154V7.72154C2.56106 7.77093 2.62158 7.80829 2.6881 7.83078C2.75462 7.85328 2.82539 7.86033 2.89504 7.85139C3.07457 7.8317 3.26629 7.77639 3.39051 7.65826C3.67176 7.38639 3.34645 6.8506 3.59395 6.50795C3.87695 6.13284 4.18683 5.77878 4.52113 5.44857C4.80238 5.17295 5.91988 4.12107 7.7977 3.36498C8.39822 3.12224 9.03997 2.99778 9.6877 2.99842C10.7466 2.99842 11.5627 3.46717 11.8561 3.73295C12.0323 3.90052 12.1935 4.08308 12.338 4.27857C12.1969 4.22655 12.0527 4.18319 11.9063 4.14873C11.5983 4.0834 11.2825 4.06351 10.9688 4.08967C10.3439 4.14076 9.5902 4.42998 9.18754 4.74592C8.53598 5.26154 8.25613 5.95154 8.21207 6.8417C8.1802 7.50357 8.33957 7.87763 9.90426 9.44279C9.95774 9.50249 9.98596 9.58061 9.98299 9.6607C9.98001 9.74079 9.94608 9.8166 9.88832 9.87217L9.03426 10.7159C8.97472 10.7743 8.89489 10.8073 8.81151 10.8081C8.72814 10.8089 8.6477 10.7774 8.58707 10.7201C7.55863 9.6917 6.8691 9.16904 6.4777 8.93139C6.08629 8.69373 5.77129 8.6267 5.61988 8.61029C5.32253 8.58083 5.02335 8.6442 4.76348 8.7917C4.71788 8.81675 4.67619 8.84834 4.63973 8.88545C4.57887 8.94836 4.53107 9.0227 4.49909 9.10418C4.46711 9.18566 4.45159 9.27266 4.45342 9.36018C4.45525 9.44769 4.4744 9.53397 4.50975 9.61404C4.54511 9.69411 4.59598 9.76639 4.65941 9.8267L4.73957 9.9017C4.76038 9.92192 4.77692 9.94612 4.78821 9.97285C4.79951 9.99958 4.80533 10.0283 4.80533 10.0573C4.80533 10.0863 4.79951 10.1151 4.78821 10.1418C4.77692 10.1685 4.76038 10.1927 4.73957 10.2129L3.36238 11.5578C3.34152 11.5789 3.31661 11.5956 3.28915 11.6069C3.26168 11.6182 3.23223 11.6238 3.20254 11.6234C3.14304 11.624 3.08567 11.6013 3.0427 11.5601L0.812852 9.38373C0.772494 9.34122 0.749994 9.28484 0.749994 9.22623C0.749994 9.16761 0.772494 9.11124 0.812852 9.06873V9.06873Z" stroke="#666666" stroke-width="1.5" stroke-linecap="round" stroke-linejoin="round"/>
</svg>
