<svg width="24" height="24" viewBox="0 0 24 24" fill="none" xmlns="http://www.w3.org/2000/svg">
<path d="M23.6053 5.91529C23.5503 5.80204 23.469 5.7036 23.3682 5.62815C23.2674 5.55271 23.15 5.50246 23.0259 5.48159C22.9017 5.46072 22.7743 5.46984 22.6544 5.50818C22.5345 5.54652 22.4255 5.61298 22.3364 5.702L19.9388 8.09966C19.841 8.19613 19.7091 8.25022 19.5718 8.25022C19.4344 8.25022 19.3025 8.19613 19.2047 8.09966L18.151 7.04591C18.0546 6.94797 18.0006 6.81606 18.0006 6.67865C18.0006 6.54123 18.0546 6.40932 18.151 6.31138L20.536 3.92591C20.6272 3.83466 20.6947 3.72244 20.7326 3.59907C20.7704 3.4757 20.7775 3.34493 20.7531 3.2182C20.7287 3.09147 20.6737 2.97265 20.5928 2.87212C20.5119 2.77159 20.4075 2.69242 20.2889 2.64154C18.4275 1.84466 16.1133 2.29232 14.6639 3.73325C13.4072 4.9806 13.0313 6.92075 13.6327 9.06294C13.6586 9.15488 13.6585 9.25221 13.6323 9.34408C13.6062 9.43596 13.555 9.51876 13.4846 9.58325L5.37988 17.1137C5.11138 17.3553 4.89486 17.649 4.74353 17.9769C4.5922 18.3048 4.50922 18.6601 4.49965 19.0212C4.49007 19.3822 4.5541 19.7414 4.68783 20.0769C4.82157 20.4124 5.0222 20.7171 5.27752 20.9726C5.53284 21.228 5.83749 21.4288 6.17292 21.5627C6.50834 21.6966 6.86752 21.7608 7.22856 21.7514C7.5896 21.742 7.94495 21.6592 8.27295 21.5081C8.60096 21.3569 8.89475 21.1405 9.13644 20.8722L16.7344 12.7534C16.798 12.6845 16.8792 12.6343 16.9692 12.6081C17.0593 12.5819 17.1547 12.5808 17.2453 12.6048C19.3547 13.1673 21.2766 12.7923 22.5155 11.5736C23.228 10.8704 23.7253 9.8781 23.9166 8.77466C24.0961 7.73404 23.9827 6.69154 23.6053 5.91529Z" fill="#666666"/>
<path d="M20.4999 17.7382C19.8465 17.1949 18.4505 15.9382 17.0279 14.6341L13.9308 17.9439C15.2546 19.3502 16.4527 20.6557 16.9777 21.2664L16.981 21.2702C17.1071 21.4145 17.2614 21.5316 17.4344 21.6141C17.6074 21.6966 17.7954 21.743 17.9869 21.7502H18.0385C18.4068 21.7491 18.76 21.6041 19.0229 21.3461L19.0262 21.3428L20.5932 19.7786C20.7293 19.6428 20.8356 19.4801 20.9052 19.3008C20.9747 19.1216 21.0061 18.9298 20.9973 18.7377C20.9885 18.5456 20.9396 18.3575 20.8539 18.1853C20.7682 18.0132 20.6474 17.8609 20.4994 17.7382H20.4999ZM5.55662 10.0572C5.55739 9.87931 5.5087 9.70469 5.41599 9.55284C5.40301 9.5323 5.39607 9.50853 5.39597 9.48423C5.39587 9.45994 5.40262 9.4361 5.41543 9.41546C5.42825 9.39482 5.44662 9.3782 5.46843 9.36752C5.49025 9.35683 5.51464 9.3525 5.53881 9.35503H5.54162C5.58099 9.35925 5.79146 9.38972 6.09006 9.57112C6.31178 9.70565 6.94459 10.1374 8.04615 11.2371C8.03443 11.6116 8.15416 11.9784 8.38459 12.2739L11.4891 9.38878C11.2142 9.12842 10.8549 8.97539 10.4766 8.95753C10.4731 8.95368 10.4698 8.94961 10.4668 8.94534L10.4363 8.913L9.286 7.32675C9.15811 7.1531 9.07425 6.95104 9.04159 6.73787C9.00894 6.52471 9.02846 6.3068 9.0985 6.10284C9.20401 5.79906 9.39592 5.53269 9.65068 5.33643C9.9174 5.12972 10.5193 4.88081 11.0307 4.83862C11.2689 4.81893 11.5087 4.83377 11.7427 4.88268C11.8548 4.90973 11.9653 4.94307 12.0737 4.98253C12.1065 4.9948 12.1402 5.00467 12.1744 5.01206C12.3232 5.04502 12.4785 5.03187 12.6197 4.97437C12.7608 4.91686 12.8811 4.81772 12.9644 4.69016C13.0478 4.56259 13.0904 4.41265 13.0864 4.2603C13.0824 4.10795 13.0321 3.96043 12.9422 3.83737C12.9301 3.82097 12.8804 3.75347 12.8068 3.66253C12.6695 3.48934 12.519 3.32699 12.3568 3.1769C11.9747 2.8319 10.9847 2.25018 9.6849 2.25018C8.94104 2.24964 8.20408 2.39289 7.51459 2.67206C5.71599 3.39628 4.53943 4.38675 3.99849 4.91222L3.99428 4.91643C3.63029 5.27583 3.29329 5.66157 2.98599 6.0705C2.86982 6.23432 2.7943 6.42343 2.76568 6.62222C2.75231 6.70679 2.70784 6.78332 2.64099 6.83682C2.57414 6.89031 2.48972 6.91692 2.40427 6.91143H2.35318C2.09764 6.90973 1.8518 7.00915 1.66927 7.188L0.288806 8.53378L0.273806 8.54878C0.100156 8.72919 0.00221822 8.96927 0.000125782 9.21966C-0.00196666 9.47006 0.0919453 9.71174 0.262556 9.89503C0.271462 9.9044 0.2799 9.91331 0.289275 9.92222L2.51584 12.0939C2.69929 12.2737 2.94572 12.3746 3.20256 12.3752C3.45809 12.3769 3.70394 12.2775 3.88646 12.0986L5.2674 10.7491C5.3595 10.659 5.43256 10.5514 5.48225 10.4325C5.53193 10.3137 5.55722 10.186 5.55662 10.0572Z" fill="#666666"/>
</svg>
