<svg width="24" height="24" viewBox="0 0 24 24" fill="none" xmlns="http://www.w3.org/2000/svg">
<path d="M12 1.49841C6.20107 1.49841 1.49998 6.19951 1.49998 11.9984C1.49998 17.7973 6.20107 22.4984 12 22.4984C17.7989 22.4984 22.5 17.7973 22.5 11.9984C22.5 6.19951 17.7989 1.49841 12 1.49841ZM6.03373 17.9647C4.85371 16.7847 4.0501 15.2812 3.72453 13.6445C3.39896 12.0078 3.56605 10.3113 4.20467 8.76951C4.8433 7.22775 5.92476 5.90999 7.31231 4.98287C8.69987 4.05574 10.3312 3.5609 12 3.56091V20.4359C10.8915 20.439 9.79342 20.2221 8.76931 19.7979C7.7452 19.3737 6.8154 18.7506 6.03373 17.9647Z" fill="#666666"/>
</svg>
