<svg width="24" height="24" viewBox="0 0 24 24" fill="none" xmlns="http://www.w3.org/2000/svg">
<path d="M12 1.49845C9.92333 1.49849 7.8933 2.11432 6.16662 3.26808C4.43993 4.42184 3.09415 6.0617 2.29944 7.9803C1.50474 9.8989 1.2968 12.0101 1.70193 14.0469C2.10706 16.0836 3.10706 17.9545 4.57548 19.423C5.54874 20.4059 6.70662 21.1868 7.98259 21.7208C9.25857 22.2549 10.6275 22.5316 12.0107 22.535C13.3939 22.5384 14.7642 22.2684 16.0428 21.7407C17.3214 21.2129 18.4831 20.4377 19.4612 19.4596C20.4393 18.4815 21.2145 17.3198 21.7422 16.0412C22.27 14.7626 22.5399 13.3924 22.5365 12.0092C22.5331 10.6259 22.2564 9.25701 21.7224 7.98104C21.1883 6.70506 20.4074 5.54718 19.4245 4.57392C18.4518 3.59583 17.2948 2.8204 16.0203 2.29249C14.7459 1.76459 13.3794 1.4947 12 1.49845ZM3.00001 11.9985C3.00001 7.0358 7.03735 2.99845 12 2.99845V20.9985C7.03735 20.9985 3.00001 16.9611 3.00001 11.9985Z" fill="#666666"/>
</svg>
