<svg width="24" height="24" viewBox="0 0 24 24" fill="none" xmlns="http://www.w3.org/2000/svg">
<path d="M21.375 22.4984H6.37503C6.07666 22.4984 5.79051 22.3799 5.57953 22.1689C5.36855 21.9579 5.25002 21.6718 5.25002 21.3734V5.99841C5.25002 5.7995 5.32904 5.60874 5.46969 5.46808C5.61035 5.32743 5.80111 5.24841 6.00003 5.24841H21.375C21.6734 5.24841 21.9595 5.36694 22.1705 5.57792C22.3815 5.7889 22.5 6.07504 22.5 6.37341V21.3734C22.5 21.6718 22.3815 21.9579 22.1705 22.1689C21.9595 22.3799 21.6734 22.4984 21.375 22.4984Z" fill="#666666"/>
<path d="M5.25002 3.74841H18.75V2.62341C18.75 2.32504 18.6315 2.0389 18.4205 1.82792C18.2095 1.61694 17.9234 1.49841 17.625 1.49841H2.81252C2.46443 1.49841 2.13059 1.63669 1.88445 1.88284C1.6383 2.12898 1.50002 2.46282 1.50002 2.81091V17.6234C1.50002 17.9218 1.61855 18.2079 1.82953 18.4189C2.04051 18.6299 2.32665 18.7484 2.62502 18.7484H3.75002V5.24841C3.75002 4.85059 3.90806 4.46906 4.18936 4.18775C4.47067 3.90645 4.8522 3.74841 5.25002 3.74841Z" fill="#666666"/>
</svg>
