<svg width="24" height="24" viewBox="0 0 24 24" fill="none" xmlns="http://www.w3.org/2000/svg">
<path d="M19.1251 22.4984H8.62509C7.72998 22.4984 6.87154 22.1428 6.2386 21.5099C5.60567 20.877 5.25009 20.0185 5.25009 19.1234V8.62341C5.25009 7.72831 5.60567 6.86986 6.2386 6.23693C6.87154 5.60399 7.72998 5.24841 8.62509 5.24841H19.1251C20.0202 5.24841 20.8786 5.60399 21.5116 6.23693C22.1445 6.86986 22.5001 7.72831 22.5001 8.62341V19.1234C22.5001 20.0185 22.1445 20.877 21.5116 21.5099C20.8786 22.1428 20.0202 22.4984 19.1251 22.4984Z" fill="#666666"/>
<path d="M7.49995 3.74841H18.5568C18.3235 3.09087 17.8924 2.52164 17.3227 2.1188C16.753 1.71596 16.0727 1.49926 15.3749 1.49841H4.87495C3.97984 1.49841 3.12139 1.85399 2.48846 2.48693C1.85552 3.11986 1.49994 3.97831 1.49994 4.87341V15.3734C1.50079 16.0711 1.71749 16.7515 2.12033 17.3212C2.52317 17.8909 3.0924 18.3219 3.74994 18.5553V7.49841C3.74994 6.50385 4.14503 5.55002 4.84829 4.84676C5.55156 4.1435 6.50538 3.74841 7.49995 3.74841Z" fill="#666666"/>
</svg>
