<svg width="24" height="24" viewBox="0 0 24 24" fill="none" xmlns="http://www.w3.org/2000/svg">
<path d="M19.0781 5.99658H8.67187C7.19623 5.99658 5.99999 7.19282 5.99999 8.66846V19.0747C5.99999 20.5503 7.19623 21.7466 8.67187 21.7466H19.0781C20.5538 21.7466 21.75 20.5503 21.75 19.0747V8.66846C21.75 7.19282 20.5538 5.99658 19.0781 5.99658Z" stroke="#666666" stroke-width="1.5" stroke-linejoin="round"/>
<path d="M17.9766 5.99658L18 4.87158C17.998 4.176 17.7208 3.50947 17.229 3.01761C16.7371 2.52576 16.0706 2.24856 15.375 2.24658H5.24999C4.45506 2.24893 3.69336 2.56576 3.13126 3.12786C2.56916 3.68996 2.25234 4.45166 2.24999 5.24658V15.3716C2.25197 16.0672 2.52916 16.7337 3.02102 17.2256C3.51287 17.7174 4.1794 17.9946 4.87499 17.9966H5.99999" stroke="#666666" stroke-width="1.5" stroke-linecap="round" stroke-linejoin="round"/>
</svg>
