<svg width="24" height="24" viewBox="0 0 24 24" fill="none" xmlns="http://www.w3.org/2000/svg">
<path d="M21.7673 2.30441C21.6732 2.20123 21.5591 2.11818 21.432 2.06027C21.3049 2.00236 21.1674 1.97079 21.0277 1.96746C20.8881 1.96413 20.7492 1.98911 20.6195 2.0409C20.4898 2.09269 20.3719 2.17021 20.2729 2.26879L19.4146 3.12426L20.8762 4.58207L21.72 3.74254C21.912 3.5553 22.0241 3.30105 22.033 3.033C22.0418 2.76495 21.9466 2.50387 21.7673 2.30441ZM11.8481 15.7482H8.24996V12.15L8.69058 11.7104L15.1659 5.24816H2.24995V21.7482H18.75V8.83223L12.2878 15.3075L11.8481 15.7482ZM18.75 6.70879L20.287 5.16848L18.8296 3.71113L17.2898 5.24816H18.75V6.70879Z" fill="#666666"/>
<path d="M9.7501 14.2484H11.2262L18.7501 6.70904V5.24841H17.2899L9.7501 12.7723V14.2484Z" fill="#666666"/>
</svg>
