<svg width="24" height="24" viewBox="0 0 24 24" fill="none" xmlns="http://www.w3.org/2000/svg">
<path d="M18.0001 10.4966V19.1216C18.0001 19.3678 17.9516 19.6116 17.8573 19.8391C17.7631 20.0666 17.625 20.2733 17.4509 20.4474C17.2768 20.6215 17.0701 20.7596 16.8426 20.8539C16.6151 20.9481 16.3713 20.9966 16.1251 20.9966H4.87506C4.37778 20.9966 3.90087 20.799 3.54924 20.4474C3.19761 20.0958 3.00006 19.6189 3.00006 19.1216V7.87158C3.00006 7.3743 3.19761 6.89739 3.54924 6.54576C3.90087 6.19413 4.37778 5.99658 4.87506 5.99658H12.7257" stroke="#666666" stroke-width="1.5" stroke-linecap="round" stroke-linejoin="round"/>
<path d="M21.5598 2.49269C21.4913 2.41743 21.4082 2.35683 21.3157 2.31457C21.2231 2.27231 21.1229 2.24925 21.0212 2.2468C20.9194 2.24435 20.8183 2.26255 20.7238 2.3003C20.6293 2.33805 20.5434 2.39457 20.4713 2.46644L19.8915 3.04347C19.8212 3.11379 19.7818 3.20914 19.7818 3.30855C19.7818 3.40796 19.8212 3.50331 19.8915 3.57363L20.4231 4.10425C20.4579 4.13926 20.4993 4.16704 20.5449 4.18599C20.5905 4.20495 20.6395 4.2147 20.6888 4.2147C20.7382 4.2147 20.7871 4.20495 20.8328 4.18599C20.8784 4.16704 20.9198 4.13926 20.9546 4.10425L21.5199 3.54175C21.8059 3.25628 21.8326 2.79128 21.5598 2.49269ZM18.7192 4.21535L10.2573 12.6622C10.206 12.7133 10.1687 12.7768 10.149 12.8464L9.7576 14.0122C9.74822 14.0439 9.74756 14.0774 9.75567 14.1094C9.76379 14.1414 9.78039 14.1706 9.80372 14.1939C9.82705 14.2172 9.85624 14.2338 9.88822 14.242C9.9202 14.2501 9.95378 14.2494 9.98541 14.24L11.1503 13.8486C11.2199 13.8289 11.2834 13.7917 11.3345 13.7403L19.7813 5.27753C19.8595 5.19855 19.9033 5.09193 19.9033 4.98081C19.9033 4.8697 19.8595 4.76308 19.7813 4.6841L19.3149 4.21535C19.2359 4.13649 19.1287 4.0922 19.0171 4.0922C18.9054 4.0922 18.7982 4.13649 18.7192 4.21535Z" fill="#666666"/>
</svg>
