<svg width="24" height="24" viewBox="0 0 24 24" fill="none" xmlns="http://www.w3.org/2000/svg">
<path d="M21.5598 2.49269C21.4913 2.41743 21.4082 2.35683 21.3157 2.31457C21.2231 2.27231 21.1229 2.24925 21.0212 2.2468C20.9194 2.24435 20.8183 2.26255 20.7237 2.3003C20.6292 2.33805 20.5434 2.39457 20.4713 2.46644L19.8915 3.04347C19.8212 3.11379 19.7817 3.20914 19.7817 3.30855C19.7817 3.40796 19.8212 3.50331 19.8915 3.57363L20.4231 4.10425C20.4579 4.13926 20.4993 4.16704 20.5449 4.18599C20.5905 4.20495 20.6394 4.2147 20.6888 4.2147C20.7382 4.2147 20.7871 4.20495 20.8327 4.18599C20.8784 4.16704 20.9198 4.13926 20.9546 4.10425L21.5199 3.54175C21.8059 3.25628 21.8326 2.79128 21.5598 2.49269ZM18.7191 4.21535L10.2573 12.6622C10.206 12.7133 10.1687 12.7768 10.149 12.8464L9.75758 14.0122C9.7482 14.0439 9.74754 14.0774 9.75566 14.1094C9.76378 14.1414 9.78038 14.1706 9.8037 14.1939C9.82703 14.2172 9.85623 14.2338 9.88821 14.242C9.92018 14.2501 9.95376 14.2494 9.98539 14.24L11.1502 13.8486C11.2199 13.8289 11.2834 13.7917 11.3345 13.7403L19.7813 5.27753C19.8595 5.19855 19.9033 5.09193 19.9033 4.98081C19.9033 4.8697 19.8595 4.76308 19.7813 4.6841L19.3149 4.21535C19.2358 4.13649 19.1287 4.0922 19.017 4.0922C18.9054 4.0922 18.7982 4.13649 18.7191 4.21535Z" fill="#666666"/>
<path d="M18.1097 9.07623L12.3961 14.8011C12.1753 15.0224 11.9039 15.1867 11.6053 15.2797L10.3913 15.6861C10.1031 15.7674 9.79853 15.7705 9.50882 15.695C9.21911 15.6194 8.95479 15.468 8.74308 15.2563C8.53138 15.0446 8.37995 14.7803 8.30441 14.4905C8.22886 14.2008 8.23193 13.8962 8.3133 13.6081L8.7197 12.394C8.8124 12.0956 8.97633 11.8242 9.19736 11.6033L14.9222 5.88873C14.9747 5.83631 15.0104 5.76951 15.0249 5.69677C15.0395 5.62403 15.0321 5.54862 15.0037 5.48008C14.9754 5.41154 14.9273 5.35295 14.8657 5.31171C14.804 5.27048 14.7315 5.24845 14.6574 5.24841H4.87502C4.17882 5.24841 3.51114 5.52498 3.01886 6.01726C2.52658 6.50954 2.25002 7.17722 2.25002 7.87341V19.1234C2.25002 19.8196 2.52658 20.4873 3.01886 20.9796C3.51114 21.4719 4.17882 21.7484 4.87502 21.7484H16.125C16.8212 21.7484 17.4889 21.4719 17.9812 20.9796C18.4735 20.4873 18.75 19.8196 18.75 19.1234V9.34107C18.75 9.2669 18.728 9.1944 18.6867 9.13275C18.6455 9.0711 18.5869 9.02307 18.5183 8.99472C18.4498 8.96637 18.3744 8.95898 18.3017 8.97349C18.2289 8.988 18.1621 9.02375 18.1097 9.07623Z" fill="#666666"/>
</svg>
