<svg width="24" height="24" viewBox="0 0 24 24" fill="none" xmlns="http://www.w3.org/2000/svg">
<path d="M21.4687 16.2181H8.99998C8.67674 16.2181 8.36675 16.0897 8.13819 15.8611C7.90963 15.6326 7.78123 15.3226 7.78123 14.9993V2.53058C7.78123 2.25707 7.67258 1.99477 7.47918 1.80137C7.28578 1.60798 7.02348 1.49933 6.74998 1.49933C6.47647 1.49933 6.21417 1.60798 6.02077 1.80137C5.82738 1.99477 5.71873 2.25707 5.71873 2.53058V5.71808H2.53123C2.25772 5.71808 1.99542 5.82673 1.80202 6.02012C1.60863 6.21352 1.49998 6.47582 1.49998 6.74933C1.49998 7.02283 1.60863 7.28514 1.80202 7.47853C1.99542 7.67193 2.25772 7.78058 2.53123 7.78058H5.71873V14.9993C5.71972 15.8693 6.06574 16.7033 6.68088 17.3184C7.29602 17.9336 8.13004 18.2796 8.99998 18.2806H16.2187V21.4681C16.2187 21.7416 16.3274 22.0039 16.5208 22.1973C16.7142 22.3907 16.9765 22.4993 17.25 22.4993C17.5235 22.4993 17.7858 22.3907 17.9792 22.1973C18.1726 22.0039 18.2812 21.7416 18.2812 21.4681V18.2806H21.4687C21.7422 18.2806 22.0045 18.1719 22.1979 17.9785C22.3913 17.7851 22.5 17.5228 22.5 17.2493C22.5 16.9758 22.3913 16.7135 22.1979 16.5201C22.0045 16.3267 21.7422 16.2181 21.4687 16.2181Z" fill="#666666"/>
<path d="M10.0312 7.77606H15C15.3232 7.77606 15.6332 7.90447 15.8618 8.13303C16.0903 8.36159 16.2187 8.67158 16.2187 8.99481V13.9636C16.2187 14.2371 16.3274 14.4994 16.5208 14.6928C16.7142 14.8862 16.9765 14.9948 17.25 14.9948C17.5235 14.9948 17.7858 14.8862 17.9792 14.6928C18.1726 14.4994 18.2812 14.2371 18.2812 13.9636V8.99481C18.2802 8.12488 17.9342 7.29085 17.3191 6.67571C16.7039 6.06058 15.8699 5.71455 15 5.71356H10.0312C9.75772 5.71356 9.49542 5.82221 9.30202 6.01561C9.10863 6.20901 8.99998 6.47131 8.99998 6.74481C8.99998 7.01832 9.10863 7.28062 9.30202 7.47402C9.49542 7.66741 9.75772 7.77606 10.0312 7.77606Z" fill="#666666"/>
</svg>
