<svg width="24" height="24" viewBox="0 0 24 24" fill="none" xmlns="http://www.w3.org/2000/svg">
<path d="M21 16.0023V7.99794C20.9996 7.73595 20.9307 7.47862 20.8 7.25156C20.6693 7.02449 20.4815 6.83561 20.2551 6.70372L13.1301 2.55716C12.7868 2.3573 12.3967 2.25201 11.9995 2.25201C11.6023 2.25201 11.2121 2.3573 10.8689 2.55716L3.7448 6.70372C3.51844 6.83561 3.33056 7.02449 3.19988 7.25156C3.0692 7.47862 3.00027 7.73595 2.99995 7.99794V16.0023C3.00011 16.2645 3.06896 16.522 3.19965 16.7492C3.33034 16.9765 3.5183 17.1655 3.7448 17.2975L10.8698 21.444C11.2132 21.6436 11.6033 21.7487 12.0004 21.7487C12.3976 21.7487 12.7877 21.6436 13.131 21.444L20.256 17.2975C20.4824 17.1654 20.6701 16.9763 20.8007 16.7491C20.9312 16.5218 20.9999 16.2644 21 16.0023Z" stroke="#666666" stroke-width="1.5" stroke-linecap="round" stroke-linejoin="round"/>
<path d="M3.23447 7.21893L12.0001 12.3752M12.0001 12.3752L20.7657 7.21893M12.0001 12.3752V21.7502" stroke="#666666" stroke-width="1.5" stroke-linecap="round" stroke-linejoin="round"/>
</svg>
