<svg width="24" height="24" viewBox="0 0 24 24" fill="none" xmlns="http://www.w3.org/2000/svg">
<path d="M20.6672 6.3883C20.6956 6.37179 20.719 6.34815 20.7354 6.31973C20.7517 6.29132 20.7603 6.25912 20.7603 6.22635C20.7603 6.19358 20.7517 6.16138 20.7354 6.13297C20.719 6.10455 20.6956 6.08091 20.6672 6.0644L13.5076 1.90471C13.0494 1.63917 12.5293 1.49933 11.9998 1.49933C11.4703 1.49933 10.9502 1.63917 10.4921 1.90471L3.33381 6.0644C3.3055 6.08091 3.28202 6.10455 3.2657 6.13297C3.24938 6.16138 3.24079 6.19358 3.24079 6.22635C3.24079 6.25912 3.24938 6.29132 3.2657 6.31973C3.28202 6.34815 3.3055 6.37179 3.33381 6.3883L11.9063 11.4311C11.9351 11.4481 11.968 11.4571 12.0015 11.4571C12.0349 11.4571 12.0678 11.4481 12.0966 11.4311L20.6672 6.3883ZM2.53131 7.66377C2.50271 7.64726 2.47027 7.6386 2.43725 7.63865C2.40423 7.6387 2.37182 7.64747 2.34328 7.66407C2.31474 7.68067 2.29109 7.70452 2.27472 7.73319C2.25835 7.76186 2.24984 7.79435 2.25006 7.82737V15.9785C2.25076 16.3713 2.35429 16.757 2.55034 17.0974C2.74639 17.4378 3.02814 17.7209 3.36756 17.9186L10.9688 22.4763C10.9973 22.4927 11.0296 22.5014 11.0625 22.5014C11.0954 22.5014 11.1277 22.4928 11.1562 22.4763C11.1847 22.4599 11.2084 22.4362 11.2249 22.4078C11.2413 22.3793 11.25 22.347 11.2501 22.3141V12.8571C11.25 12.8242 11.2413 12.7919 11.2249 12.7634C11.2084 12.7349 11.1848 12.7113 11.1563 12.6949L2.53131 7.66377ZM12.7501 12.8899V22.3117C12.7501 22.3446 12.7588 22.3769 12.7753 22.4054C12.7917 22.4339 12.8154 22.4575 12.8439 22.474C12.8724 22.4904 12.9047 22.4991 12.9376 22.4991C12.9705 22.499 13.0028 22.4904 13.0313 22.4739L20.6321 17.9163C20.9713 17.7188 21.2529 17.4361 21.449 17.0962C21.6451 16.7562 21.7489 16.3709 21.7501 15.9785V7.82737C21.7499 7.79451 21.7412 7.76226 21.7247 7.73385C21.7082 7.70544 21.6845 7.68186 21.656 7.66548C21.6275 7.6491 21.5953 7.6405 21.5624 7.64053C21.5295 7.64055 21.4973 7.64922 21.4688 7.66565L12.8438 12.7281C12.8154 12.7445 12.7918 12.7681 12.7753 12.7965C12.7589 12.8249 12.7502 12.8571 12.7501 12.8899Z" fill="#666666"/>
</svg>
