<svg width="24" height="24" viewBox="0 0 24 24" fill="none" xmlns="http://www.w3.org/2000/svg">
<path d="M4.87511 9.74658C6.32486 9.74658 7.50011 8.57133 7.50011 7.12158C7.50011 5.67183 6.32486 4.49658 4.87511 4.49658C3.42537 4.49658 2.25011 5.67183 2.25011 7.12158C2.25011 8.57133 3.42537 9.74658 4.87511 9.74658Z" stroke="#666666" stroke-width="1.5" stroke-linecap="round" stroke-linejoin="round"/>
<path d="M4.87511 19.4957C6.32486 19.4957 7.50011 18.3205 7.50011 16.8707C7.50011 15.421 6.32486 14.2457 4.87511 14.2457C3.42537 14.2457 2.25011 15.421 2.25011 16.8707C2.25011 18.3205 3.42537 19.4957 4.87511 19.4957Z" stroke="#666666" stroke-width="1.5" stroke-linecap="round" stroke-linejoin="round"/>
<path d="M7.35943 8.20154L6.84381 8.90466L8.57818 9.60779C8.57818 9.60779 8.74037 9.30685 8.90631 9.13904L7.35943 8.20154Z" stroke="#666666" stroke-width="1.5" stroke-miterlimit="10" stroke-linecap="square"/>
<path d="M7.22685 15.6777L21.5626 7.59507C21.4454 7.28101 20.2501 7.03257 18.5626 7.40757C17.1976 7.71085 12.8833 8.76929 11.102 10.0349C9.64935 11.0666 10.6408 12.7513 9.00013 13.9701C7.79966 14.8607 6.91747 15.0398 6.91747 15.0398L7.22685 15.6777ZM16.1472 13.0438L13.8283 14.3765C14.4953 14.6924 16.9004 15.936 19.3126 16.0794C20.012 16.1212 20.7189 16.0977 21.1408 15.7982L16.1472 13.0438Z" stroke="#666666" stroke-width="1.5" stroke-miterlimit="10" stroke-linecap="round"/>
<path d="M12 12.7475C12.8284 12.7475 13.5 12.0759 13.5 11.2475C13.5 10.4191 12.8284 9.7475 12 9.7475C11.1716 9.7475 10.5 10.4191 10.5 11.2475C10.5 12.0759 11.1716 12.7475 12 12.7475Z" stroke="#666666" stroke-width="1.5" stroke-miterlimit="10"/>
</svg>
