<svg width="24" height="24" viewBox="0 0 24 24" fill="none" xmlns="http://www.w3.org/2000/svg">
<path d="M22.5001 5.99983H20.2501L10.9248 9.30265L8.15309 7.82187C8.31897 7.04286 8.20465 6.2303 7.83024 5.52732C7.45584 4.82433 6.84537 4.27602 6.10637 3.97895C5.36737 3.68188 4.54725 3.65512 3.79045 3.90337C3.03366 4.15163 2.38875 4.65898 1.96931 5.33606C1.54987 6.01314 1.38281 6.81652 1.49755 7.60468C1.6123 8.39284 2.0015 9.11524 2.59658 9.64461C3.19167 10.174 3.95448 10.4764 4.75064 10.4986C5.5468 10.5207 6.32525 10.2612 6.94887 9.76577L9.39574 11.2526L9.00012 12.9842L6.95449 14.2386C6.32911 13.7421 5.54747 13.4843 4.74942 13.5114C3.95138 13.5385 3.18902 13.8487 2.59876 14.3865C2.00851 14.9243 1.62887 15.6546 1.52779 16.4466C1.42672 17.2387 1.61079 18.0409 2.04708 18.7097C2.48337 19.3785 3.1434 19.8702 3.90906 20.0968C4.67472 20.3235 5.49605 20.2703 6.22608 19.9467C6.9561 19.6232 7.54718 19.0504 7.89354 18.331C8.2399 17.6115 8.31894 16.7923 8.11652 16.0198L22.5001 7.49983V5.99983ZM4.85074 8.99984C4.4799 8.99984 4.11739 8.88987 3.80905 8.68384C3.50071 8.47781 3.26038 8.18498 3.11847 7.84237C2.97655 7.49975 2.93942 7.12275 3.01177 6.75904C3.08412 6.39533 3.26269 6.06123 3.52492 5.79901C3.78714 5.53679 4.12123 5.35821 4.48495 5.28586C4.84866 5.21351 5.22566 5.25065 5.56827 5.39256C5.91089 5.53447 6.20372 5.7748 6.40975 6.08314C6.61578 6.39148 6.72574 6.75399 6.72574 7.12483C6.72574 7.37106 6.67725 7.61488 6.58302 7.84237C6.48879 8.06985 6.35068 8.27655 6.17657 8.45066C6.00246 8.62477 5.79576 8.76288 5.56827 8.85711C5.34079 8.95134 5.09697 8.99984 4.85074 8.99984ZM4.85074 18.7498C4.4799 18.7498 4.11739 18.6399 3.80905 18.4338C3.50071 18.2278 3.26038 17.935 3.11847 17.5924C2.97655 17.2498 2.93942 16.8728 3.01177 16.509C3.08412 16.1453 3.26269 15.8112 3.52492 15.549C3.78714 15.2868 4.12123 15.1082 4.48495 15.0359C4.84866 14.9635 5.22566 15.0006 5.56827 15.1426C5.91089 15.2845 6.20372 15.5248 6.40975 15.8331C6.61578 16.1415 6.72574 16.504 6.72574 16.8748C6.72574 17.3721 6.5282 17.849 6.17657 18.2007C5.82494 18.5523 5.34802 18.7498 4.85074 18.7498ZM11.9757 11.9998C11.8274 11.9998 11.6824 11.9558 11.5591 11.8734C11.4357 11.791 11.3396 11.6739 11.2828 11.5368C11.2261 11.3998 11.2112 11.249 11.2402 11.1035C11.2691 10.958 11.3405 10.8244 11.4454 10.7195C11.5503 10.6146 11.6839 10.5432 11.8294 10.5142C11.9749 10.4853 12.1257 10.5002 12.2628 10.5569C12.3998 10.6137 12.5169 10.7098 12.5993 10.8332C12.6818 10.9565 12.7257 11.1015 12.7257 11.2498C12.7257 11.4487 12.6467 11.6395 12.5061 11.7802C12.3654 11.9208 12.1747 11.9998 11.9757 11.9998Z" fill="#666666"/>
<path d="M16.1153 12.1814L12.19 14.4398L20.2501 17.25H22.4997L22.5001 15.75L16.1153 12.1814Z" fill="#666666"/>
</svg>
