<svg width="24" height="24" viewBox="0 0 24 24" fill="none" xmlns="http://www.w3.org/2000/svg">
<path d="M4.85059 10.4984C5.61302 10.499 6.35295 10.2401 6.94872 9.76435L8.89403 10.5561L9.21372 9.96404C9.27125 9.8581 9.33908 9.75809 9.41622 9.66545L10.0828 8.98951L8.15294 7.82045C8.29698 7.13805 8.22607 6.42779 7.94998 5.78733C7.67388 5.14687 7.20615 4.60768 6.6111 4.2439C6.01606 3.88012 5.32293 3.70961 4.62703 3.75584C3.93113 3.80206 3.26664 4.06273 2.72493 4.50202C2.18323 4.9413 1.79092 5.53762 1.60195 6.20896C1.41298 6.88031 1.43663 7.59371 1.66966 8.25106C1.90268 8.90842 2.33363 9.47744 2.90325 9.87987C3.47286 10.2823 4.15316 10.4984 4.85059 10.4984ZM4.85059 5.24842C5.22144 5.24842 5.58395 5.35838 5.89229 5.56441C6.20063 5.77044 6.44096 6.06327 6.58287 6.40588C6.72478 6.7485 6.76191 7.1255 6.68957 7.48921C6.61722 7.85292 6.43864 8.18702 6.17642 8.44924C5.9142 8.71146 5.5801 8.89004 5.21639 8.96239C4.85267 9.03474 4.47567 8.9976 4.13306 8.85569C3.79045 8.71378 3.49762 8.47345 3.29159 8.16511C3.08556 7.85677 2.97559 7.49426 2.97559 7.12342C2.97559 6.62613 3.17314 6.14922 3.52477 5.79759C3.8764 5.44596 4.35331 5.24842 4.85059 5.24842Z" fill="#666666"/>
<path d="M22.5 7.91979L22.2413 7.3301C22.0313 6.84167 21.5503 6.5801 20.7047 6.49338C20.2303 6.44651 19.4414 6.43526 18.3755 6.67198C17.438 6.88057 12.6502 7.99385 10.6435 9.41979C9.69424 10.0943 9.51564 10.9981 9.37502 11.7242C9.24471 12.387 9.14064 12.9106 8.53127 13.3648C7.82814 13.887 7.25299 14.1326 6.9572 14.2367C6.33182 13.7402 5.55018 13.4824 4.75213 13.5095C3.95409 13.5366 3.19173 13.8468 2.60147 14.3846C2.01122 14.9224 1.63158 15.6526 1.53051 16.4447C1.42943 17.2368 1.6135 18.039 2.04979 18.7078C2.48608 19.3765 3.14611 19.8683 3.91177 20.0949C4.67743 20.3215 5.49876 20.2683 6.22879 19.9448C6.95881 19.6213 7.54989 19.0485 7.89625 18.3291C8.24261 17.6096 8.32166 16.7903 8.11924 16.0179L22.5 7.91979ZM11.9756 11.9979C11.8273 11.9979 11.6823 11.9539 11.559 11.8715C11.4356 11.7891 11.3395 11.672 11.2827 11.5349C11.226 11.3979 11.2111 11.2471 11.2401 11.1016C11.269 10.9561 11.3404 10.8225 11.4453 10.7176C11.5502 10.6127 11.6838 10.5413 11.8293 10.5123C11.9748 10.4834 12.1256 10.4982 12.2627 10.555C12.3997 10.6118 12.5168 10.7079 12.5992 10.8312C12.6817 10.9546 12.7256 11.0996 12.7256 11.2479C12.7256 11.4468 12.6466 11.6376 12.506 11.7782C12.3653 11.9189 12.1746 11.9979 11.9756 11.9979ZM4.85064 18.7479C4.4798 18.7479 4.11729 18.638 3.80895 18.4319C3.50061 18.2259 3.26028 17.9331 3.11837 17.5904C2.97645 17.2478 2.93932 16.8708 3.01167 16.5071C3.08402 16.1434 3.26259 15.8093 3.52482 15.5471C3.78704 15.2849 4.12113 15.1063 4.48485 15.0339C4.84856 14.9616 5.22556 14.9987 5.56817 15.1406C5.91079 15.2826 6.20362 15.5229 6.40965 15.8312C6.61568 16.1396 6.72564 16.5021 6.72564 16.8729C6.72564 17.3702 6.5281 17.8471 6.17647 18.1987C5.82484 18.5504 5.34792 18.7479 4.85064 18.7479Z" fill="#666666"/>
<path d="M16.1151 12.1814L12.1898 14.4398L13.4849 15.053L13.6546 15.1345C14.5312 15.5587 16.8627 16.6875 19.2435 16.8281C19.4259 16.8389 19.5937 16.8441 19.7488 16.8441C20.7187 16.8426 21.2343 16.5937 21.5507 16.4062L22.4999 15.75L16.1151 12.1814Z" fill="#666666"/>
</svg>
