<svg width="24" height="24" viewBox="0 0 24 24" fill="none" xmlns="http://www.w3.org/2000/svg">
<path d="M22.5 2.2475H1.50002C1.30111 2.2475 1.11035 2.32652 0.969693 2.46717C0.829041 2.60782 0.750023 2.79859 0.750023 2.9975V17.9975C0.750023 18.1964 0.829041 18.3872 0.969693 18.5278C1.11035 18.6685 1.30111 18.7475 1.50002 18.7475H9.37502V20.2475H6.00002V21.7475H18V20.2475H14.625V18.7475H22.5C22.6989 18.7475 22.8897 18.6685 23.0304 18.5278C23.171 18.3872 23.25 18.1964 23.25 17.9975V2.9975C23.25 2.79859 23.171 2.60782 23.0304 2.46717C22.8897 2.32652 22.6989 2.2475 22.5 2.2475ZM21.5625 3.935V14.06H2.43752V3.935H21.5625ZM11.2561 16.595C11.2358 16.4397 11.2646 16.2819 11.3386 16.1438C11.4125 16.0057 11.5278 15.8942 11.6684 15.8249C11.8089 15.7557 11.9676 15.7322 12.1221 15.7578C12.2767 15.7833 12.4193 15.8566 12.5301 15.9674C12.6409 16.0782 12.7142 16.2209 12.7397 16.3754C12.7653 16.53 12.7418 16.6886 12.6726 16.8292C12.6034 16.9697 12.4919 17.085 12.3538 17.159C12.2156 17.2329 12.0579 17.2617 11.9025 17.2414C11.7386 17.22 11.5864 17.145 11.4695 17.0281C11.3526 16.9112 11.2776 16.7589 11.2561 16.595Z" fill="#666666"/>
</svg>
