<svg width="24" height="24" viewBox="0 0 24 24" fill="none" xmlns="http://www.w3.org/2000/svg">
<g clip-path="url(#clip0_32_1277)">
<path d="M21 2.99573H2.99999C2.17157 2.99573 1.49999 3.6673 1.49999 4.49573V16.4957C1.49999 17.3242 2.17157 17.9957 2.99999 17.9957H21C21.8284 17.9957 22.5 17.3242 22.5 16.4957V4.49573C22.5 3.6673 21.8284 2.99573 21 2.99573Z" stroke="#666666" stroke-width="1.5" stroke-linejoin="round"/>
<path d="M14.25 21.0002L13.875 18.0002H10.125L9.75002 21.0002H14.25Z" fill="#666666" stroke="#666666" stroke-width="1.5" stroke-linecap="round" stroke-linejoin="round"/>
<path d="M17.25 20.9975H6.75005" stroke="#666666" stroke-width="1.5" stroke-linecap="round" stroke-linejoin="round"/>
<path d="M1.49999 14.2457V16.4957C1.50111 16.8932 1.6595 17.2741 1.94056 17.5552C2.22163 17.8362 2.60251 17.9946 2.99999 17.9957H21C21.3975 17.9946 21.7784 17.8362 22.0594 17.5552C22.3405 17.2741 22.4989 16.8932 22.5 16.4957V14.2457H1.49999ZM12 17.2457C11.8517 17.2457 11.7067 17.2017 11.5833 17.1193C11.46 17.0369 11.3638 16.9198 11.3071 16.7827C11.2503 16.6457 11.2355 16.4949 11.2644 16.3494C11.2933 16.2039 11.3648 16.0703 11.4697 15.9654C11.5746 15.8605 11.7082 15.7891 11.8537 15.7601C11.9992 15.7312 12.15 15.7461 12.287 15.8028C12.4241 15.8596 12.5412 15.9557 12.6236 16.0791C12.706 16.2024 12.75 16.3474 12.75 16.4957C12.75 16.6946 12.671 16.8854 12.5303 17.0261C12.3897 17.1667 12.1989 17.2457 12 17.2457Z" fill="#666666"/>
</g>
<defs>
<clipPath id="clip0_32_1277">
<rect width="24" height="24" fill="white"/>
</clipPath>
</defs>
</svg>
