<svg width="24" height="24" viewBox="0 0 24 24" fill="none" xmlns="http://www.w3.org/2000/svg">
<path d="M0.750031 16.4984C0.750651 17.095 0.987903 17.6669 1.40973 18.0887C1.83155 18.5105 2.40348 18.7478 3.00003 18.7484H9.27566L9.08816 20.2484H6.75003C6.55112 20.2484 6.36035 20.3274 6.2197 20.4681C6.07905 20.6087 6.00003 20.7995 6.00003 20.9984C6.00003 21.1973 6.07905 21.3881 6.2197 21.5287C6.36035 21.6694 6.55112 21.7484 6.75003 21.7484H17.25C17.4489 21.7484 17.6397 21.6694 17.7804 21.5287C17.921 21.3881 18 21.1973 18 20.9984C18 20.7995 17.921 20.6087 17.7804 20.4681C17.6397 20.3274 17.4489 20.2484 17.25 20.2484H14.9119L14.7244 18.7484H21C21.5966 18.7478 22.1685 18.5105 22.5903 18.0887C23.0122 17.6669 23.2494 17.095 23.25 16.4984V14.2484H0.750031V16.4984ZM12 15.7484C12.1484 15.7484 12.2934 15.7924 12.4167 15.8748C12.54 15.9572 12.6362 16.0744 12.6929 16.2114C12.7497 16.3484 12.7646 16.4992 12.7356 16.6447C12.7067 16.7902 12.6353 16.9239 12.5304 17.0287C12.4255 17.1336 12.2918 17.2051 12.1464 17.234C12.0009 17.2629 11.8501 17.2481 11.713 17.1913C11.576 17.1346 11.4588 17.0384 11.3764 16.9151C11.294 16.7918 11.25 16.6468 11.25 16.4984C11.25 16.2995 11.3291 16.1087 11.4697 15.9681C11.6104 15.8274 11.8011 15.7484 12 15.7484ZM23.25 4.49841C23.2494 3.90187 23.0122 3.32993 22.5903 2.90811C22.1685 2.48629 21.5966 2.24903 21 2.24841H3.00003C2.40348 2.24903 1.83155 2.48629 1.40973 2.90811C0.987903 3.32993 0.750651 3.90187 0.750031 4.49841V13.4984H23.25V4.49841Z" fill="#666666"/>
</svg>
