<svg width="24" height="24" viewBox="0 0 24 24" fill="none" xmlns="http://www.w3.org/2000/svg">
<path d="M18.5771 1.50018H12.3751L16.3215 6.76237L18.5771 1.50018ZM5.42304 1.50018L7.67866 6.76237L11.6251 1.50018H5.42304ZM12.0001 3.50034L9.00007 7.50018H15.0001L12.0001 3.50034ZM19.8259 2.39362L17.6373 7.50018H22.8751L19.8259 2.39362ZM4.17429 2.39362L1.07819 7.50018H6.36288L4.17429 2.39362ZM6.87569 9.00018H1.12507L11.5688 22.5002H11.5937L6.87569 9.00018ZM17.1244 9.00018L12.4065 22.5002H12.4313L22.8751 9.00018H17.1244ZM15.4402 9.00018H8.55991L12.0001 18.7502L15.4402 9.00018Z" fill="#666666"/>
</svg>
