<svg width="24" height="24" viewBox="0 0 24 24" fill="none" xmlns="http://www.w3.org/2000/svg">
<g clip-path="url(#clip0_32_1286)">
<path d="M2.24991 8.24841H21.7499M1.66022 8.82076L11.3985 21.4517C11.4693 21.544 11.5603 21.6187 11.6646 21.6701C11.7689 21.7216 11.8836 21.7483 11.9999 21.7483C12.1162 21.7483 12.2309 21.7216 12.3352 21.6701C12.4395 21.6187 12.5305 21.544 12.6013 21.4517L22.3396 8.82076C22.4353 8.69609 22.4909 8.54524 22.4988 8.38824C22.5068 8.23125 22.4668 8.07556 22.3841 7.94185L19.0808 2.60982C19.0128 2.49947 18.9178 2.40835 18.8046 2.34509C18.6915 2.28184 18.5641 2.24856 18.4344 2.24841H5.56538C5.43576 2.24856 5.30833 2.28184 5.1952 2.34509C5.08206 2.40835 4.98698 2.49947 4.91897 2.60982L1.61569 7.94185C1.53303 8.07556 1.49302 8.23125 1.50097 8.38824C1.50892 8.54524 1.56447 8.69609 1.66022 8.82076V8.82076Z" stroke="#666666" stroke-width="1.5" stroke-linecap="round" stroke-linejoin="round"/>
<path d="M12 20.9984L16.5 8.24841M18.75 2.99841L16.5 8.24841L12 2.24841L18.75 2.99841ZM5.24998 2.99841L7.49998 8.24841L12 2.24841L5.24998 2.99841ZM12 20.9984L7.49998 8.24841L12 20.9984Z" stroke="#666666" stroke-width="1.5" stroke-linecap="round" stroke-linejoin="round"/>
</g>
<defs>
<clipPath id="clip0_32_1286">
<rect width="24" height="24" fill="white"/>
</clipPath>
</defs>
</svg>
