<svg width="24" height="24" viewBox="0 0 24 24" fill="none" xmlns="http://www.w3.org/2000/svg">
<path d="M5.70562 1.50019C5.67451 1.4999 5.64382 1.50736 5.61632 1.52189C5.58881 1.53642 5.56535 1.55756 5.54805 1.58342C5.53076 1.60927 5.52016 1.63902 5.51723 1.66999C5.51429 1.70096 5.51911 1.73217 5.53124 1.76082L5.63905 2.01535L7.54687 6.46379C7.55983 6.49404 7.58053 6.52035 7.60689 6.54007C7.63325 6.55979 7.66433 6.57222 7.69702 6.57612C7.7297 6.58001 7.76284 6.57523 7.79309 6.56226C7.82335 6.54929 7.84965 6.52858 7.86937 6.50222L11.3906 1.80019C11.4115 1.77233 11.4242 1.73921 11.4274 1.70453C11.4305 1.66985 11.4239 1.63498 11.4083 1.60384C11.3927 1.57269 11.3688 1.5465 11.3392 1.52819C11.3096 1.50989 11.2754 1.50019 11.2406 1.50019H5.70562ZM19.6842 2.72175L17.7492 7.2391C17.737 7.26762 17.7321 7.29871 17.7349 7.32959C17.7377 7.36047 17.7481 7.39018 17.7652 7.41605C17.7823 7.44192 17.8056 7.46315 17.8329 7.47783C17.8602 7.49252 17.8907 7.5002 17.9217 7.50019H22.6561C22.6895 7.50021 22.7223 7.49128 22.7512 7.47435C22.78 7.45741 22.8038 7.43308 22.82 7.40386C22.8363 7.37465 22.8444 7.34163 22.8436 7.30821C22.8428 7.27478 22.8331 7.24219 22.8155 7.21379L20.0156 2.69691C19.9975 2.66783 19.9718 2.64426 19.9413 2.62876C19.9107 2.61325 19.8765 2.60641 19.8424 2.60897C19.8082 2.61153 19.7754 2.6234 19.7476 2.64328C19.7197 2.66316 19.6978 2.6903 19.6842 2.72175ZM3.98437 2.69878L1.18546 7.21379C1.16782 7.24219 1.1581 7.27478 1.1573 7.30821C1.1565 7.34163 1.16465 7.37465 1.18091 7.40386C1.19716 7.43308 1.22093 7.45741 1.24976 7.47435C1.27858 7.49128 1.3114 7.50021 1.34483 7.50019H6.07921C6.11024 7.50016 6.14077 7.49242 6.16807 7.47768C6.19538 7.46293 6.21859 7.44165 6.23564 7.41572C6.25269 7.3898 6.26304 7.36005 6.26577 7.32914C6.26849 7.29824 6.2635 7.26713 6.25124 7.23863L4.31249 2.72363C4.29862 2.69296 4.27676 2.66659 4.24919 2.64728C4.22162 2.62797 4.18936 2.61645 4.1558 2.6139C4.12223 2.61136 4.08861 2.6179 4.05844 2.63284C4.02828 2.64777 4.00269 2.67055 3.98437 2.69878ZM18.4345 1.50019H12.5541C12.5371 1.50008 12.5204 1.50472 12.506 1.51359C12.4915 1.52245 12.4798 1.53519 12.4722 1.55035C12.4646 1.56552 12.4614 1.58251 12.4629 1.59941C12.4645 1.61631 12.4707 1.63244 12.4809 1.64597L16.2272 6.63629C16.2367 6.6491 16.2495 6.65917 16.2642 6.66548C16.2789 6.67179 16.295 6.67411 16.3109 6.67221C16.3268 6.6703 16.3419 6.66425 16.3547 6.65465C16.3674 6.64505 16.3775 6.63225 16.3837 6.61754L18.3562 2.01582L18.5156 1.62488C18.5212 1.61146 18.5235 1.59688 18.5223 1.58239C18.521 1.56789 18.5163 1.55392 18.5084 1.54166C18.5006 1.52941 18.4899 1.51923 18.4773 1.51201C18.4647 1.50478 18.4505 1.50073 18.4359 1.50019H18.4345ZM11.2031 21.0002L7.01109 9.11785C6.99878 9.08334 6.97608 9.0535 6.94611 9.03243C6.91614 9.01136 6.88038 9.0001 6.84374 9.00019H1.20468C1.17201 9.0001 1.13998 9.00918 1.11222 9.02641C1.08447 9.04364 1.06211 9.06831 1.0477 9.09763C1.03328 9.12694 1.02739 9.15972 1.0307 9.19222C1.03401 9.22471 1.04637 9.25563 1.0664 9.28144L11.1914 22.3975C11.2257 22.4419 11.2746 22.4727 11.3294 22.4845C11.3842 22.4962 11.4415 22.4882 11.4909 22.4618C11.5407 22.4356 11.5794 22.3924 11.5999 22.3401C11.6205 22.2878 11.6216 22.2298 11.603 22.1768L11.2031 21.0002ZM22.7953 9.00019H17.1562C17.1198 9.00018 17.0843 9.0115 17.0545 9.03258C17.0248 9.05366 17.0024 9.08346 16.9903 9.11785L12.3872 22.1566C12.3678 22.2113 12.3686 22.2712 12.3894 22.3254C12.4102 22.3796 12.4496 22.4246 12.5006 22.4524C12.5516 22.48 12.6108 22.4886 12.6675 22.4767C12.7242 22.4647 12.7749 22.433 12.8105 22.3872L22.9336 9.28144C22.9536 9.25563 22.966 9.22471 22.9693 9.19222C22.9726 9.15972 22.9667 9.12694 22.9523 9.09763C22.9379 9.06831 22.9155 9.04364 22.8878 9.02641C22.86 9.00918 22.828 9.0001 22.7953 9.00019ZM12.15 3.70004L14.775 7.20019C14.7959 7.22805 14.8086 7.26117 14.8117 7.29585C14.8149 7.33053 14.8083 7.3654 14.7927 7.39654C14.7771 7.42769 14.7532 7.45388 14.7236 7.47219C14.6939 7.4905 14.6598 7.50019 14.625 7.50019H9.37499C9.34017 7.50019 9.30604 7.4905 9.27642 7.47219C9.2468 7.45388 9.22286 7.42769 9.20729 7.39654C9.19171 7.3654 9.18512 7.33053 9.18825 7.29585C9.19138 7.26117 9.2041 7.22805 9.22499 7.20019L11.85 3.70004C11.8675 3.67675 11.8901 3.65785 11.9161 3.64483C11.9422 3.63181 11.9709 3.62504 12 3.62504C12.0291 3.62504 12.0578 3.63181 12.0838 3.64483C12.1099 3.65785 12.1325 3.67675 12.15 3.70004ZM11.8219 18.2458L8.64843 9.25004C8.63846 9.22177 8.63542 9.19152 8.63955 9.16184C8.64368 9.13215 8.65487 9.10389 8.67218 9.07942C8.68949 9.05495 8.71241 9.03498 8.73903 9.0212C8.76564 9.00741 8.79518 9.00021 8.82515 9.00019H15.1748C15.2048 9.00021 15.2343 9.00741 15.261 9.0212C15.2876 9.03498 15.3105 9.05495 15.3278 9.07942C15.3451 9.10389 15.3563 9.13215 15.3604 9.16184C15.3646 9.19152 15.3615 9.22177 15.3516 9.25004L12.1767 18.2458C12.1638 18.2823 12.1398 18.3139 12.1082 18.3363C12.0765 18.3587 12.0387 18.3707 12 18.3707C11.9612 18.3707 11.9235 18.3587 11.8918 18.3363C11.8602 18.3139 11.8362 18.2823 11.8233 18.2458H11.8219Z" fill="#666666"/>
</svg>
