<svg width="24" height="24" viewBox="0 0 24 24" fill="none" xmlns="http://www.w3.org/2000/svg">
<path d="M21.0001 16.0032V7.99885C20.9998 7.73687 20.9308 7.47954 20.8002 7.25247C20.6695 7.02541 20.4816 6.83653 20.2552 6.70464L13.1302 2.55807C12.787 2.35822 12.3968 2.25293 11.9996 2.25293C11.6024 2.25293 11.2123 2.35822 10.869 2.55807L3.74492 6.70464C3.51856 6.83653 3.33069 7.02541 3.20001 7.25247C3.06933 7.47954 3.0004 7.73687 3.00008 7.99885V16.0032C3.00024 16.2654 3.06909 16.5229 3.19978 16.7501C3.33046 16.9774 3.51842 17.1664 3.74492 17.2984L10.8699 21.4449C11.2133 21.6445 11.6034 21.7497 12.0006 21.7497C12.3977 21.7497 12.7878 21.6445 13.1312 21.4449L20.2562 17.2984C20.4825 17.1663 20.6703 16.9772 20.8008 16.75C20.9313 16.5227 21 16.2653 21.0001 16.0032Z" stroke="#666666" stroke-width="1.5" stroke-linecap="round" stroke-linejoin="round"/>
<path d="M12.0001 21.7466V12.3716M3.23446 7.21533L12.0001 12.3716L20.7657 7.21533H3.23446Z" stroke="#666666" stroke-width="1.5" stroke-linecap="round" stroke-linejoin="round"/>
<path d="M12 7.8725C12.6213 7.8725 13.125 7.53671 13.125 7.1225C13.125 6.70828 12.6213 6.3725 12 6.3725C11.3787 6.3725 10.875 6.70828 10.875 7.1225C10.875 7.53671 11.3787 7.8725 12 7.8725Z" fill="#666666"/>
<path d="M9.75002 14.9957C10.1642 14.9957 10.5 14.492 10.5 13.8707C10.5 13.2494 10.1642 12.7457 9.75002 12.7457C9.33581 12.7457 9.00002 13.2494 9.00002 13.8707C9.00002 14.492 9.33581 14.9957 9.75002 14.9957Z" fill="#666666"/>
<path d="M5.25 16.4966C5.66421 16.4966 6 15.9929 6 15.3716C6 14.7503 5.66421 14.2466 5.25 14.2466C4.83578 14.2466 4.5 14.7503 4.5 15.3716C4.5 15.9929 4.83578 16.4966 5.25 16.4966Z" fill="#666666"/>
<path d="M14.2501 14.9957C14.6643 14.9957 15.0001 14.492 15.0001 13.8707C15.0001 13.2494 14.6643 12.7457 14.2501 12.7457C13.8358 12.7457 13.5001 13.2494 13.5001 13.8707C13.5001 14.492 13.8358 14.9957 14.2501 14.9957Z" fill="#666666"/>
<path d="M18.7499 12.3725C19.1642 12.3725 19.4999 11.8688 19.4999 11.2475C19.4999 10.6262 19.1642 10.1225 18.7499 10.1225C18.3357 10.1225 17.9999 10.6262 17.9999 11.2475C17.9999 11.8688 18.3357 12.3725 18.7499 12.3725Z" fill="#666666"/>
<path d="M14.2501 19.1243C14.6643 19.1243 15.0001 18.6206 15.0001 17.9993C15.0001 17.378 14.6643 16.8743 14.2501 16.8743C13.8358 16.8743 13.5001 17.378 13.5001 17.9993C13.5001 18.6206 13.8358 19.1243 14.2501 19.1243Z" fill="#666666"/>
<path d="M18.7499 16.4966C19.1642 16.4966 19.4999 15.9929 19.4999 15.3716C19.4999 14.7503 19.1642 14.2466 18.7499 14.2466C18.3357 14.2466 17.9999 14.7503 17.9999 15.3716C17.9999 15.9929 18.3357 16.4966 18.7499 16.4966Z" fill="#666666"/>
</svg>
