<svg width="24" height="24" viewBox="0 0 24 24" fill="none" xmlns="http://www.w3.org/2000/svg">
<path d="M20.6663 6.06126L13.5075 1.90111C13.0494 1.63557 12.5293 1.49573 11.9998 1.49573C11.4703 1.49573 10.9502 1.63557 10.4921 1.90111L3.33378 6.06126C3.30559 6.07781 3.28221 6.10143 3.26596 6.1298C3.24972 6.15817 3.24117 6.19029 3.24117 6.22298C3.24117 6.25567 3.24972 6.2878 3.26596 6.31616C3.28221 6.34453 3.30559 6.36816 3.33378 6.3847L11.9063 11.4275C11.9351 11.4445 11.968 11.4535 12.0014 11.4535C12.0349 11.4535 12.0678 11.4445 12.0966 11.4275L20.6672 6.3847C20.6954 6.36808 20.7187 6.34438 20.7348 6.31597C20.751 6.28755 20.7595 6.2554 20.7594 6.22271C20.7593 6.19002 20.7506 6.15793 20.7343 6.12961C20.718 6.10128 20.6945 6.07773 20.6663 6.06126ZM12 7.12205C11.3789 7.12205 10.875 6.78642 10.875 6.37205C10.875 5.95767 11.3789 5.62205 12 5.62205C12.6211 5.62205 13.125 5.95767 13.125 6.37205C13.125 6.78642 12.6211 7.12205 12 7.12205ZM11.1563 12.6913L2.53128 7.66017C2.50279 7.64372 2.47048 7.63506 2.43758 7.63505C2.40469 7.63504 2.37237 7.64369 2.34387 7.66012C2.31537 7.67656 2.2917 7.7002 2.27523 7.72868C2.25876 7.75715 2.25007 7.78946 2.25003 7.82236V15.9749C2.25074 16.3677 2.35427 16.7534 2.55032 17.0938C2.74637 17.4342 3.02812 17.7173 3.36753 17.915L10.9688 22.4727C10.9973 22.4891 11.0296 22.4978 11.0625 22.4978C11.0954 22.4978 11.1277 22.4892 11.1562 22.4727C11.1847 22.4563 11.2084 22.4326 11.2248 22.4042C11.2413 22.3757 11.25 22.3434 11.25 22.3105V12.8535C11.25 12.8206 11.2413 12.7883 11.2249 12.7598C11.2084 12.7313 11.1848 12.7077 11.1563 12.6913ZM4.50003 17.247C4.08566 17.247 3.75003 16.7431 3.75003 16.122C3.75003 15.501 4.08566 14.997 4.50003 14.997C4.91441 14.997 5.25004 15.501 5.25004 16.122C5.25004 16.7431 4.91441 17.247 4.50003 17.247ZM9.00004 15.747C8.58566 15.747 8.25004 15.2431 8.25004 14.622C8.25004 14.001 8.58566 13.497 9.00004 13.497C9.41441 13.497 9.75004 14.001 9.75004 14.622C9.75004 15.2431 9.41441 15.747 9.00004 15.747ZM21.4688 7.66158L12.8438 12.7264C12.8154 12.7428 12.7918 12.7664 12.7753 12.7948C12.7589 12.8231 12.7502 12.8553 12.75 12.8881V22.3095C12.7501 22.3424 12.7588 22.3748 12.7752 22.4032C12.7917 22.4317 12.8154 22.4554 12.8439 22.4718C12.8724 22.4882 12.9047 22.4969 12.9376 22.4969C12.9705 22.4968 13.0028 22.4882 13.0313 22.4717L20.6321 17.9141C20.9714 17.7165 21.2532 17.4336 21.4493 17.0934C21.6454 16.7532 21.7491 16.3675 21.75 15.9749V7.82517C21.7503 7.79215 21.7417 7.75967 21.7254 7.73099C21.709 7.70232 21.6854 7.67848 21.6568 7.66188C21.6283 7.64528 21.5959 7.63651 21.5628 7.63646C21.5298 7.6364 21.4974 7.64507 21.4688 7.66158ZM15 19.872C14.5857 19.872 14.25 19.3681 14.25 18.747C14.25 18.126 14.5857 17.622 15 17.622C15.4144 17.622 15.75 18.126 15.75 18.747C15.75 19.3681 15.4144 19.872 15 19.872ZM15 15.747C14.5857 15.747 14.25 15.2431 14.25 14.622C14.25 14.001 14.5857 13.497 15 13.497C15.4144 13.497 15.75 14.001 15.75 14.622C15.75 15.2431 15.4144 15.747 15 15.747ZM19.5 17.247C19.0857 17.247 18.75 16.7431 18.75 16.122C18.75 15.501 19.0857 14.997 19.5 14.997C19.9144 14.997 20.25 15.501 20.25 16.122C20.25 16.7431 19.9144 17.247 19.5 17.247ZM19.5 13.122C19.0857 13.122 18.75 12.6181 18.75 11.997C18.75 11.376 19.0857 10.872 19.5 10.872C19.9144 10.872 20.25 11.376 20.25 11.997C20.25 12.6181 19.9144 13.122 19.5 13.122Z" fill="#666666"/>
</svg>
