<svg width="24" height="24" viewBox="0 0 24 24" fill="none" xmlns="http://www.w3.org/2000/svg">
<path d="M2.25011 17.1996L11.2501 22.5002V13.3127L2.25011 7.96893V17.1996ZM9.00011 13.5002C9.41449 13.5002 9.75011 14.0041 9.75011 14.6252C9.75011 15.2463 9.41449 15.7502 9.00011 15.7502C8.58574 15.7502 8.25011 15.2463 8.25011 14.6252C8.25011 14.0041 8.58574 13.5002 9.00011 13.5002ZM4.50011 15.0002C4.91449 15.0002 5.25011 15.5041 5.25011 16.1252C5.25011 16.7463 4.91449 17.2502 4.50011 17.2502C4.08574 17.2502 3.75011 16.7463 3.75011 16.1252C3.75011 15.5041 4.08574 15.0002 4.50011 15.0002ZM12.7501 13.3127V22.5002L21.7501 17.1996V7.96893L12.7501 13.3127ZM15.0001 19.8752C14.5857 19.8752 14.2501 19.3713 14.2501 18.7502C14.2501 18.1291 14.5857 17.6252 15.0001 17.6252C15.4145 17.6252 15.7501 18.1291 15.7501 18.7502C15.7501 19.3713 15.4145 19.8752 15.0001 19.8752ZM15.0001 15.7502C14.5857 15.7502 14.2501 15.2463 14.2501 14.6252C14.2501 14.0041 14.5857 13.5002 15.0001 13.5002C15.4145 13.5002 15.7501 14.0041 15.7501 14.6252C15.7501 15.2463 15.4145 15.7502 15.0001 15.7502ZM19.5001 17.2502C19.0857 17.2502 18.7501 16.7463 18.7501 16.1252C18.7501 15.5041 19.0857 15.0002 19.5001 15.0002C19.9145 15.0002 20.2501 15.5041 20.2501 16.1252C20.2501 16.7463 19.9145 17.2502 19.5001 17.2502ZM19.5001 13.1252C19.0857 13.1252 18.7501 12.6213 18.7501 12.0002C18.7501 11.3791 19.0857 10.8752 19.5001 10.8752C19.9145 10.8752 20.2501 11.3791 20.2501 12.0002C20.2501 12.6213 19.9145 13.1252 19.5001 13.1252ZM12.0001 1.50018L3.00011 6.75018L12.0001 12.0002L21.0001 6.75018L12.0001 1.50018ZM12.0001 7.12518C11.379 7.12518 10.8751 6.78956 10.8751 6.37518C10.8751 5.96081 11.379 5.62518 12.0001 5.62518C12.6212 5.62518 13.1251 5.96081 13.1251 6.37518C13.1251 6.78956 12.6212 7.12518 12.0001 7.12518Z" fill="#666666"/>
</svg>
