<svg width="24" height="24" viewBox="0 0 24 24" fill="none" xmlns="http://www.w3.org/2000/svg">
<path d="M12 8.2475C11.2583 8.2475 10.5333 8.46743 9.91664 8.87949C9.29995 9.29154 8.81931 9.87721 8.53548 10.5624C8.25165 11.2477 8.17739 12.0017 8.32208 12.7291C8.46677 13.4565 8.82393 14.1247 9.34837 14.6491C9.87282 15.1736 10.541 15.5307 11.2684 15.6754C11.9959 15.8201 12.7499 15.7459 13.4351 15.462C14.1203 15.1782 14.706 14.6976 15.118 14.0809C15.5301 13.4642 15.75 12.7392 15.75 11.9975C15.7489 11.0033 15.3535 10.0501 14.6504 9.34708C13.9474 8.64406 12.9942 8.24861 12 8.2475ZM12 13.4975C11.7034 13.4975 11.4133 13.4095 11.1667 13.2447C10.92 13.0799 10.7277 12.8456 10.6142 12.5715C10.5007 12.2974 10.471 11.9958 10.5288 11.7049C10.5867 11.4139 10.7296 11.1466 10.9394 10.9368C11.1491 10.7271 11.4164 10.5842 11.7074 10.5263C11.9984 10.4684 12.3 10.4981 12.5741 10.6117C12.8481 10.7252 13.0824 10.9175 13.2472 11.1641C13.4121 11.4108 13.5 11.7008 13.5 11.9975C13.5 12.3953 13.342 12.7769 13.0607 13.0582C12.7794 13.3395 12.3979 13.4975 12 13.4975Z" fill="#666666"/>
<path d="M19.4245 4.57167C18.4513 3.58878 17.2934 2.80787 16.0174 2.27382C14.7414 1.73977 13.3725 1.46309 11.9893 1.45969C10.6061 1.45628 9.23579 1.72622 7.9572 2.25398C6.67861 2.78175 5.5169 3.55694 4.53881 4.53504C3.56072 5.51313 2.78553 6.67483 2.25776 7.95342C1.72999 9.23201 1.46006 10.6023 1.46346 11.9855C1.46687 13.3687 1.74354 14.7376 2.2776 16.0136C2.81165 17.2896 3.59256 18.4475 4.57545 19.4207C5.54871 20.4036 6.70659 21.1845 7.98257 21.7186C9.25854 22.2526 10.6275 22.5293 12.0107 22.5327C13.3939 22.5361 14.7642 22.2662 16.0428 21.7384C17.3214 21.2107 18.4831 20.4355 19.4612 19.4574C20.4392 18.4793 21.2144 17.3176 21.7422 16.039C22.27 14.7604 22.5399 13.3901 22.5365 12.0069C22.5331 10.6237 22.2564 9.25476 21.7224 7.97879C21.1883 6.70282 20.4074 5.54494 19.4245 4.57167ZM12 17.2462C10.9616 17.2462 9.9466 16.9383 9.08324 16.3614C8.21988 15.7845 7.54697 14.9646 7.14961 14.0053C6.75225 13.046 6.64829 11.9904 6.85086 10.972C7.05343 9.95358 7.55345 9.01812 8.28767 8.2839C9.0219 7.54967 9.95736 7.04965 10.9758 6.84708C11.9942 6.64451 13.0498 6.74848 14.0091 7.14584C14.9684 7.5432 15.7883 8.2161 16.3652 9.07946C16.9421 9.94282 17.25 10.9579 17.25 11.9962C17.2485 13.3881 16.6949 14.7226 15.7107 15.7069C14.7264 16.6911 13.3919 17.2447 12 17.2462Z" fill="#666666"/>
</svg>
