<svg width="24" height="24" viewBox="0 0 24 24" fill="none" xmlns="http://www.w3.org/2000/svg">
<path d="M12 21.7484C17.3847 21.7484 21.75 17.3832 21.75 11.9984C21.75 6.61364 17.3847 2.24841 12 2.24841C6.61518 2.24841 2.24995 6.61364 2.24995 11.9984C2.24995 17.3832 6.61518 21.7484 12 21.7484Z" stroke="#666666" stroke-width="1.5" stroke-miterlimit="10"/>
<path d="M12 16.4993C14.4853 16.4993 16.5 14.4846 16.5 11.9993C16.5 9.51405 14.4853 7.49933 12 7.49933C9.51473 7.49933 7.50002 9.51405 7.50002 11.9993C7.50002 14.4846 9.51473 16.4993 12 16.4993Z" stroke="#666666" stroke-width="1.5" stroke-miterlimit="10"/>
<path d="M12 13.4966C12.8284 13.4966 13.5 12.825 13.5 11.9966C13.5 11.1682 12.8284 10.4966 12 10.4966C11.1716 10.4966 10.5 11.1682 10.5 11.9966C10.5 12.825 11.1716 13.4966 12 13.4966Z" fill="#666666"/>
</svg>
