<svg width="24" height="24" viewBox="0 0 24 24" fill="none" xmlns="http://www.w3.org/2000/svg">
<path d="M12 13.4966C12.8285 13.4966 13.5 12.825 13.5 11.9966C13.5 11.1682 12.8285 10.4966 12 10.4966C11.1716 10.4966 10.5 11.1682 10.5 11.9966C10.5 12.825 11.1716 13.4966 12 13.4966Z" fill="#666666"/>
<path d="M19.4246 4.57167C18.4513 3.58878 17.2935 2.80787 16.0175 2.27382C14.7415 1.73977 13.3726 1.46309 11.9894 1.45969C10.6061 1.45628 9.23586 1.72622 7.95728 2.25398C6.67869 2.78175 5.51698 3.55694 4.53889 4.53504C3.5608 5.51313 2.7856 6.67483 2.25784 7.95342C1.73007 9.23201 1.46014 10.6023 1.46354 11.9855C1.46694 13.3687 1.74362 14.7376 2.27767 16.0136C2.81173 17.2896 3.59263 18.4475 4.57553 19.4207C5.54879 20.4036 6.70667 21.1845 7.98264 21.7186C9.25862 22.2526 10.6275 22.5293 12.0108 22.5327C13.394 22.5361 14.7643 22.2662 16.0428 21.7384C17.3214 21.2107 18.4831 20.4355 19.4612 19.4574C20.4393 18.4793 21.2145 17.3176 21.7423 16.039C22.27 14.7604 22.54 13.3901 22.5366 12.0069C22.5332 10.6237 22.2565 9.25476 21.7224 7.97879C21.1884 6.70282 20.4075 5.54494 19.4246 4.57167ZM12.0001 15.7462C11.2584 15.7462 10.5334 15.5263 9.91667 15.1142C9.29999 14.7022 8.81934 14.1165 8.53551 13.4313C8.25168 12.746 8.17742 11.992 8.32211 11.2646C8.46681 10.5372 8.82396 9.869 9.34841 9.34456C9.87286 8.82011 10.541 8.46295 11.2685 8.31826C11.9959 8.17357 12.7499 8.24783 13.4351 8.53166C14.1203 8.81549 14.706 9.29613 15.1181 9.91282C15.5301 10.5295 15.7501 11.2545 15.7501 11.9962C15.7489 12.9904 15.3535 13.9436 14.6505 14.6466C13.9475 15.3496 12.9943 15.7451 12.0001 15.7462Z" fill="#666666"/>
</svg>
