<svg width="24" height="24" viewBox="0 0 24 24" fill="none" xmlns="http://www.w3.org/2000/svg">
<path d="M12.7501 1.951V8.80928C12.7501 8.85901 12.7698 8.9067 12.805 8.94187C12.8401 8.97703 12.8878 8.99679 12.9376 8.99679H19.7958C19.8144 8.9968 19.8325 8.99133 19.8479 8.98106C19.8633 8.97078 19.8753 8.95618 19.8825 8.93907C19.8896 8.92197 19.8915 8.90315 19.8879 8.88497C19.8843 8.86679 19.8755 8.85008 19.8624 8.83694L12.9099 1.88444C12.8968 1.87138 12.88 1.8625 12.8619 1.85894C12.8437 1.85537 12.8249 1.85726 12.8078 1.86438C12.7907 1.8715 12.7761 1.88353 12.7658 1.89895C12.7555 1.91436 12.75 1.93248 12.7501 1.951Z" fill="#666666"/>
<path d="M11.625 10.4966C11.5255 10.4966 11.4302 10.4571 11.3598 10.3867C11.2895 10.3164 11.25 10.221 11.25 10.1216V1.49658H4.31249C4.16331 1.49658 4.02023 1.55585 3.91474 1.66133C3.80926 1.76682 3.74999 1.9099 3.74999 2.05908V21.9341C3.74999 22.0833 3.80926 22.2263 3.91474 22.3318C4.02023 22.4373 4.16331 22.4966 4.31249 22.4966H19.6875C19.8367 22.4966 19.9798 22.4373 20.0852 22.3318C20.1907 22.2263 20.25 22.0833 20.25 21.9341V10.4966H11.625ZM16.5 17.9966H7.49999V16.4966H16.5V17.9966ZM16.5 14.2466H7.49999V12.7466H16.5V14.2466Z" fill="#666666"/>
</svg>
