<svg width="24" height="24" viewBox="0 0 24 24" fill="none" xmlns="http://www.w3.org/2000/svg">
<path d="M14.4346 11.6216L10.1249 7.23969V11.3403C10.1249 11.4149 10.1546 11.4864 10.2073 11.5392C10.2601 11.5919 10.3316 11.6216 10.4062 11.6216H14.4346Z" fill="#666666"/>
<path d="M8.62499 12.56V6.74748H2.81249C2.6633 6.74748 2.52023 6.80674 2.41474 6.91223C2.30925 7.01772 2.24999 7.16079 2.24999 7.30998V22.685C2.24999 22.8342 2.30925 22.9772 2.41474 23.0827C2.52023 23.1882 2.6633 23.2475 2.81249 23.2475H14.4375C14.5867 23.2475 14.7298 23.1882 14.8352 23.0827C14.9407 22.9772 15 22.8342 15 22.685V13.1225H9.18749C9.03831 13.1225 8.89523 13.0632 8.78974 12.9577C8.68425 12.8522 8.62499 12.7092 8.62499 12.56ZM17.1562 5.62248H21.1847L16.875 1.2406V5.34123C16.875 5.41582 16.9046 5.48736 16.9574 5.5401C17.0101 5.59285 17.0816 5.62248 17.1562 5.62248Z" fill="#666666"/>
<path d="M15.9375 7.12433C15.7884 7.12433 15.6453 7.06507 15.5398 6.95958C15.4343 6.85409 15.375 6.71101 15.375 6.56183V0.749329H8.06255C7.91336 0.749329 7.77029 0.808592 7.6648 0.914081C7.55931 1.01957 7.50005 1.16264 7.50005 1.31183V5.24933H9.47442C9.72643 5.25034 9.97576 5.30113 10.2081 5.39879C10.4404 5.49644 10.6511 5.63904 10.8282 5.81839L15.945 11.0215C16.302 11.3837 16.5013 11.8723 16.4996 12.3809V18.7493H21.1875C21.3367 18.7493 21.4798 18.6901 21.5853 18.5846C21.6908 18.4791 21.75 18.336 21.75 18.1868V7.12433H15.9375Z" fill="#666666"/>
</svg>
