<svg width="24" height="24" viewBox="0 0 24 24" fill="none" xmlns="http://www.w3.org/2000/svg">
<path d="M13.4999 8.99723H19.5847C19.6032 8.99715 19.6213 8.99161 19.6366 8.98131C19.652 8.971 19.6639 8.95639 19.671 8.93931C19.678 8.92222 19.6799 8.90343 19.6763 8.8853C19.6727 8.86717 19.6639 8.8505 19.6508 8.83739L12.9097 2.09629C12.8966 2.08326 12.88 2.0744 12.8618 2.07081C12.8437 2.06723 12.8249 2.06908 12.8078 2.07614C12.7907 2.08321 12.7761 2.09516 12.7658 2.11051C12.7555 2.12585 12.75 2.1439 12.7499 2.16239V8.24723C12.7499 8.44614 12.8289 8.63691 12.9696 8.77756C13.1102 8.91821 13.301 8.99723 13.4999 8.99723ZM11.9999 12.7472C11.5865 12.7472 11.2499 13.0416 11.2499 13.4035V14.2472H12.7499V13.4035C12.7499 13.0416 12.4133 12.7472 11.9999 12.7472Z" fill="#666666"/>
<path d="M20.0624 10.4966H13.4999C12.9032 10.4966 12.3309 10.2595 11.9089 9.83757C11.4869 9.41562 11.2499 8.84332 11.2499 8.24658V1.68408C11.2499 1.63435 11.2301 1.58666 11.195 1.5515C11.1598 1.51634 11.1121 1.49658 11.0624 1.49658H6.74989C5.95424 1.49658 5.19118 1.81265 4.62857 2.37526C4.06596 2.93787 3.74989 3.70093 3.74989 4.49658V19.4966C3.74989 20.2922 4.06596 21.0553 4.62857 21.6179C5.19118 22.1805 5.95424 22.4966 6.74989 22.4966H17.2499C18.0455 22.4966 18.8086 22.1805 19.3712 21.6179C19.9338 21.0553 20.2499 20.2922 20.2499 19.4966V10.6841C20.2499 10.6344 20.2301 10.5867 20.195 10.5515C20.1598 10.5163 20.1121 10.4966 20.0624 10.4966ZM15.7499 17.9966C15.7499 18.3944 15.5919 18.7759 15.3106 19.0572C15.0292 19.3385 14.6477 19.4966 14.2499 19.4966H9.74989C9.35207 19.4966 8.97053 19.3385 8.68923 19.0572C8.40793 18.7759 8.24989 18.3944 8.24989 17.9966V15.7466C8.24989 15.3488 8.40793 14.9672 8.68923 14.6859C8.97053 14.4046 9.35207 14.2466 9.74989 14.2466V13.4028C9.74989 12.2141 10.7591 11.2466 11.9999 11.2466C13.2407 11.2466 14.2499 12.2141 14.2499 13.4028V14.2466C14.6477 14.2466 15.0292 14.4046 15.3106 14.6859C15.5919 14.9672 15.7499 15.3488 15.7499 15.7466V17.9966Z" fill="#666666"/>
</svg>
