<svg width="24" height="24" viewBox="0 0 24 24" fill="none" xmlns="http://www.w3.org/2000/svg">
<path d="M13.125 11.2484C13.0256 11.2484 12.9302 11.2089 12.8598 11.1386C12.7895 11.0683 12.75 10.9729 12.75 10.8734V2.24841H10.0664C9.97887 2.08629 9.8769 1.93239 9.76173 1.78857C9.22126 1.11779 8.41829 0.748413 7.50001 0.748413C5.73376 0.748413 4.50001 2.13638 4.50001 4.12341V10.8734C4.50001 12.0453 5.45345 12.7484 6.37501 12.7484C6.62199 12.7511 6.86702 12.7045 7.09572 12.6112C7.32442 12.5179 7.5322 12.3799 7.70685 12.2053C7.8815 12.0306 8.01951 11.8228 8.11278 11.5941C8.20605 11.3654 8.25271 11.1204 8.25001 10.8734V3.74841H6.75001V10.8734C6.75164 10.9231 6.74305 10.9726 6.72479 11.0188C6.70652 11.0651 6.67895 11.1071 6.6438 11.1422C6.60865 11.1774 6.56666 11.2049 6.52042 11.2232C6.47419 11.2415 6.42469 11.25 6.37501 11.2484C6.27048 11.2484 6.00001 11.1809 6.00001 10.8734V4.12341C6.00001 3.21685 6.39423 2.24841 7.50001 2.24841C8.89173 2.24841 9.00001 3.6617 9.00001 4.09435V10.5983C9.00001 11.4162 8.7436 12.1559 8.27766 12.6823C7.8047 13.2172 7.14704 13.4984 6.37501 13.4984C5.60298 13.4984 4.94532 13.2172 4.47235 12.6823C4.00641 12.1559 3.75001 11.4162 3.75001 10.5983V6.74841H2.25001V10.5983C2.25001 13.0128 3.80579 14.7997 6.00001 14.9825V21.9359C6.00001 22.0851 6.05927 22.2282 6.16476 22.3337C6.27025 22.4392 6.41332 22.4984 6.56251 22.4984H21.1875C21.3367 22.4984 21.4798 22.4392 21.5853 22.3337C21.6907 22.2282 21.75 22.0851 21.75 21.9359V11.2484H13.125Z" fill="#666666"/>
<path d="M14.4375 9.74947H21.2958C21.3143 9.74949 21.3325 9.74401 21.3479 9.73374C21.3633 9.72347 21.3753 9.70886 21.3824 9.69176C21.3896 9.67466 21.3915 9.65583 21.3879 9.63765C21.3843 9.61948 21.3754 9.60276 21.3624 9.58963L14.4099 2.63713C14.3967 2.62407 14.38 2.61519 14.3619 2.61162C14.3437 2.60805 14.3248 2.60995 14.3077 2.61707C14.2906 2.62419 14.276 2.63622 14.2658 2.65163C14.2555 2.66705 14.25 2.68516 14.25 2.70369V9.56197C14.25 9.6117 14.2698 9.65939 14.305 9.69455C14.3401 9.72972 14.3878 9.74947 14.4375 9.74947Z" fill="#666666"/>
</svg>
