<svg width="24" height="24" viewBox="0 0 24 24" fill="none" xmlns="http://www.w3.org/2000/svg">
<path d="M13.987 11.6217C14.024 11.6217 14.0601 11.6108 14.0909 11.5904C14.1216 11.57 14.1457 11.5409 14.16 11.5069C14.1743 11.4728 14.1783 11.4353 14.1714 11.399C14.1644 11.3628 14.1469 11.3293 14.1211 11.3029L10.4461 7.56607C10.42 7.53955 10.3866 7.5214 10.3501 7.51394C10.3136 7.50648 10.2758 7.51004 10.2413 7.52416C10.2069 7.53829 10.1774 7.56234 10.1567 7.59326C10.136 7.62418 10.125 7.66057 10.125 7.69779V11.0592C10.125 11.2084 10.1843 11.3515 10.2897 11.4569C10.3952 11.5624 10.5383 11.6217 10.6875 11.6217H13.987Z" fill="#666666"/>
<path d="M9.23443 12.5132C9.0419 12.3233 8.88891 12.0971 8.78432 11.8477C8.67973 11.5982 8.62559 11.3306 8.62505 11.0601V6.74761H5.25005C4.45513 6.74996 3.69343 7.06678 3.13133 7.62889C2.56923 8.19099 2.2524 8.95268 2.25005 9.74761V20.2476C2.25005 21.0433 2.56612 21.8063 3.12873 22.3689C3.69134 22.9315 4.4544 23.2476 5.25005 23.2476H12.0001C12.7957 23.2476 13.5588 22.9315 14.1214 22.3689C14.684 21.8063 15.0001 21.0433 15.0001 20.2476V13.1226H10.6876C10.4171 13.1222 10.1494 13.0682 9.89992 12.9636C9.65048 12.859 9.42428 12.7059 9.23443 12.5132ZM17.4376 5.62261H20.7371C20.774 5.62264 20.8102 5.61176 20.8409 5.59134C20.8717 5.57091 20.8958 5.54185 20.9101 5.5078C20.9244 5.47375 20.9283 5.43623 20.9214 5.39995C20.9145 5.36367 20.897 5.33024 20.8711 5.30386L17.1961 1.56698C17.17 1.54046 17.1366 1.52232 17.1002 1.51486C17.0637 1.50739 17.0258 1.51095 16.9914 1.52508C16.957 1.5392 16.9275 1.56326 16.9068 1.59418C16.8861 1.6251 16.875 1.66148 16.8751 1.6987V5.06011C16.8751 5.20929 16.9343 5.35237 17.0398 5.45786C17.1453 5.56335 17.2884 5.62261 17.4376 5.62261Z" fill="#666666"/>
<path d="M17.4376 7.12433C16.8919 7.12016 16.3697 6.90152 15.9838 6.51563C15.5979 6.12974 15.3793 5.60755 15.3751 5.06183V0.749329H10.3126C9.56695 0.750197 8.85209 1.04679 8.32483 1.57405C7.79757 2.10131 7.50098 2.81617 7.50011 3.56183V5.24933H9.47448C9.72649 5.25034 9.97582 5.30113 10.2081 5.39879C10.4405 5.49644 10.6512 5.63904 10.8282 5.81839L15.9451 11.0215C16.3021 11.3837 16.5014 11.8723 16.4996 12.3809V18.7493H18.9864C20.5103 18.7493 21.7496 17.4875 21.7496 15.9368V7.12433H17.4376Z" fill="#666666"/>
</svg>
