<svg width="24" height="24" viewBox="0 0 24 24" fill="none" xmlns="http://www.w3.org/2000/svg">
<path d="M12.9375 8.99678H19.7958C19.8143 8.9968 19.8324 8.99132 19.8478 8.98105C19.8632 8.97078 19.8752 8.95617 19.8824 8.93907C19.8895 8.92197 19.8914 8.90315 19.8878 8.88497C19.8842 8.86679 19.8754 8.85008 19.8623 8.83694L12.9098 1.88444C12.8967 1.87138 12.88 1.8625 12.8618 1.85894C12.8436 1.85537 12.8248 1.85726 12.8077 1.86438C12.7906 1.8715 12.776 1.88353 12.7657 1.89895C12.7554 1.91436 12.75 1.93248 12.75 1.951V8.80928C12.75 8.85901 12.7697 8.9067 12.8049 8.94187C12.84 8.97703 12.8877 8.99678 12.9375 8.99678ZM12 12.7468C11.5865 12.7468 11.25 13.0412 11.25 13.403V14.2468H12.75V13.403C12.75 13.0412 12.4134 12.7468 12 12.7468Z" fill="#666666"/>
<path d="M11.625 10.4966C11.5255 10.4966 11.4301 10.4571 11.3598 10.3867C11.2895 10.3164 11.25 10.221 11.25 10.1216V1.49658H4.31247C4.16328 1.49658 4.02021 1.55585 3.91472 1.66133C3.80923 1.76682 3.74997 1.9099 3.74997 2.05908V21.9341C3.74997 22.0833 3.80923 22.2263 3.91472 22.3318C4.02021 22.4373 4.16328 22.4966 4.31247 22.4966H19.6875C19.8367 22.4966 19.9797 22.4373 20.0852 22.3318C20.1907 22.2263 20.25 22.0833 20.25 21.9341V10.4966H11.625ZM15.75 18.7424C15.7498 18.9424 15.6703 19.1341 15.5289 19.2755C15.3875 19.417 15.1957 19.4965 14.9958 19.4966H9.00419C8.80419 19.4965 8.61243 19.417 8.47101 19.2755C8.32959 19.1341 8.25009 18.9424 8.24997 18.7424V14.9966C8.24997 14.5278 8.57809 14.2466 8.99997 14.2466H9.74997V13.4028C9.74997 12.2141 10.7592 11.2466 12 11.2466C13.2408 11.2466 14.25 12.2141 14.25 13.4028V14.2466H15C15.0988 14.2453 15.1969 14.2639 15.2885 14.3011C15.38 14.3384 15.4632 14.3936 15.5331 14.4634C15.603 14.5333 15.6582 14.6165 15.6954 14.7081C15.7327 14.7997 15.7512 14.8977 15.75 14.9966V18.7424Z" fill="#666666"/>
</svg>
