<svg width="24" height="24" viewBox="0 0 24 24" fill="none" xmlns="http://www.w3.org/2000/svg">
<path d="M11.2499 10.1216V1.49658H4.31237C4.16319 1.49658 4.02011 1.55585 3.91462 1.66133C3.80913 1.76682 3.74987 1.9099 3.74987 2.05908V21.9341C3.74987 22.0833 3.80913 22.2263 3.91462 22.3318C4.02011 22.4373 4.16319 22.4966 4.31237 22.4966H19.6874C19.8366 22.4966 19.9796 22.4373 20.0851 22.3318C20.1906 22.2263 20.2499 22.0833 20.2499 21.9341V10.4966H11.6249C11.5254 10.4966 11.43 10.4571 11.3597 10.3867C11.2894 10.3164 11.2499 10.221 11.2499 10.1216Z" fill="#666666"/>
<path d="M12.7499 1.951V8.80928C12.7499 8.85901 12.7697 8.9067 12.8048 8.94187C12.84 8.97703 12.8877 8.99679 12.9374 8.99679H19.7957C19.8142 8.9968 19.8324 8.99133 19.8478 8.98106C19.8632 8.97078 19.8752 8.95618 19.8823 8.93907C19.8895 8.92197 19.8914 8.90315 19.8878 8.88497C19.8842 8.86679 19.8753 8.85008 19.8623 8.83694L12.9098 1.88444C12.8966 1.87138 12.8799 1.8625 12.8617 1.85894C12.8436 1.85537 12.8247 1.85726 12.8076 1.86438C12.7905 1.8715 12.7759 1.88353 12.7657 1.89895C12.7554 1.91436 12.7499 1.93248 12.7499 1.951Z" fill="#666666"/>
</svg>
