<svg width="24" height="24" viewBox="0 0 24 24" fill="none" xmlns="http://www.w3.org/2000/svg">
<path d="M20.0625 10.4975H13.5C12.9033 10.4975 12.331 10.2604 11.909 9.83849C11.4871 9.41653 11.25 8.84424 11.25 8.2475V1.685C11.25 1.63527 11.2302 1.58758 11.1951 1.55242C11.1599 1.51725 11.1122 1.4975 11.0625 1.4975H6.75C5.95435 1.4975 5.19129 1.81357 4.62868 2.37618C4.06607 2.93879 3.75 3.70185 3.75 4.4975V19.4975C3.75 20.2931 4.06607 21.0562 4.62868 21.6188C5.19129 22.1814 5.95435 22.4975 6.75 22.4975H17.25C18.0457 22.4975 18.8087 22.1814 19.3713 21.6188C19.9339 21.0562 20.25 20.2931 20.25 19.4975V10.685C20.25 10.6353 20.2302 10.5876 20.1951 10.5524C20.1599 10.5173 20.1122 10.4975 20.0625 10.4975ZM15.75 17.9975H8.25C8.05109 17.9975 7.86032 17.9185 7.71967 17.7778C7.57902 17.6372 7.5 17.4464 7.5 17.2475C7.5 17.0486 7.57902 16.8578 7.71967 16.7172C7.86032 16.5765 8.05109 16.4975 8.25 16.4975H15.75C15.9489 16.4975 16.1397 16.5765 16.2803 16.7172C16.421 16.8578 16.5 17.0486 16.5 17.2475C16.5 17.4464 16.421 17.6372 16.2803 17.7778C16.1397 17.9185 15.9489 17.9975 15.75 17.9975ZM15.75 14.2475H8.25C8.05109 14.2475 7.86032 14.1685 7.71967 14.0278C7.57902 13.8872 7.5 13.6964 7.5 13.4975C7.5 13.2986 7.57902 13.1078 7.71967 12.9672C7.86032 12.8265 8.05109 12.7475 8.25 12.7475H15.75C15.9489 12.7475 16.1397 12.8265 16.2803 12.9672C16.421 13.1078 16.5 13.2986 16.5 13.4975C16.5 13.6964 16.421 13.8872 16.2803 14.0278C16.1397 14.1685 15.9489 14.2475 15.75 14.2475Z" fill="#666666"/>
<path d="M19.651 8.8383L12.9099 2.09721C12.8968 2.08418 12.8801 2.07531 12.862 2.07173C12.8439 2.06814 12.8251 2.07 12.808 2.07706C12.7909 2.08412 12.7763 2.09608 12.766 2.11142C12.7557 2.12677 12.7501 2.14482 12.7501 2.1633V8.24815C12.7501 8.44706 12.8291 8.63783 12.9697 8.77848C13.1104 8.91913 13.3011 8.99815 13.5001 8.99815H19.5849C19.6034 8.99807 19.6214 8.99253 19.6368 8.98222C19.6521 8.97192 19.6641 8.9573 19.6711 8.94022C19.6782 8.92314 19.6801 8.90435 19.6765 8.88622C19.6729 8.86808 19.664 8.85141 19.651 8.8383Z" fill="#666666"/>
</svg>
