<svg width="24" height="24" viewBox="0 0 24 24" fill="none" xmlns="http://www.w3.org/2000/svg">
<path d="M20.0626 10.4975H13.5001C12.9033 10.4975 12.331 10.2604 11.9091 9.83849C11.4871 9.41653 11.2501 8.84424 11.2501 8.2475V1.685C11.2501 1.63527 11.2303 1.58758 11.1951 1.55242C11.16 1.51725 11.1123 1.4975 11.0626 1.4975H6.75006C5.95441 1.4975 5.19135 1.81357 4.62874 2.37618C4.06613 2.93879 3.75006 3.70185 3.75006 4.4975V19.4975C3.75006 20.2931 4.06613 21.0562 4.62874 21.6188C5.19135 22.1814 5.95441 22.4975 6.75006 22.4975H17.2501C18.0457 22.4975 18.8088 22.1814 19.3714 21.6188C19.934 21.0562 20.2501 20.2931 20.2501 19.4975V10.685C20.2501 10.6353 20.2303 10.5876 20.1951 10.5524C20.16 10.5173 20.1123 10.4975 20.0626 10.4975Z" fill="#666666"/>
<path d="M19.6511 8.8383L12.91 2.09721C12.8969 2.08418 12.8802 2.07531 12.8621 2.07173C12.8439 2.06814 12.8251 2.07 12.808 2.07706C12.791 2.08412 12.7764 2.09608 12.766 2.11142C12.7557 2.12677 12.7502 2.14482 12.7501 2.1633V8.24815C12.7501 8.44706 12.8291 8.63783 12.9698 8.77848C13.1104 8.91913 13.3012 8.99815 13.5001 8.99815H19.585C19.6035 8.99807 19.6215 8.99253 19.6368 8.98222C19.6522 8.97192 19.6641 8.9573 19.6712 8.94022C19.6783 8.92314 19.6801 8.90435 19.6765 8.88622C19.673 8.86808 19.6641 8.85141 19.6511 8.8383Z" fill="#666666"/>
</svg>
