<svg width="24" height="24" viewBox="0 0 24 24" fill="none" xmlns="http://www.w3.org/2000/svg">
<path d="M19.5001 10.3704V19.4993C19.5001 20.0961 19.2631 20.6684 18.8411 21.0903C18.4191 21.5123 17.8468 21.7493 17.2501 21.7493H6.75011C6.15337 21.7493 5.58107 21.5123 5.15912 21.0903C4.73716 20.6684 4.50011 20.0961 4.50011 19.4993V4.49933C4.50011 3.90259 4.73716 3.3303 5.15912 2.90834C5.58107 2.48638 6.15337 2.24933 6.75011 2.24933H11.379C11.7767 2.24939 12.1581 2.40737 12.4393 2.68855L19.0609 9.31011C19.3421 9.59135 19.5001 9.97274 19.5001 10.3704Z" stroke="#666666" stroke-width="1.5" stroke-linejoin="round"/>
<path d="M8.24996 17.2484H15.75M12 2.62341V8.24841C12 8.64624 12.158 9.02777 12.4393 9.30907C12.7206 9.59038 13.1021 9.74841 13.5 9.74841H19.125L12 2.62341ZM8.24996 13.4984H15.75H8.24996Z" stroke="#666666" stroke-width="1.5" stroke-linecap="round" stroke-linejoin="round"/>
</svg>
