<svg width="24" height="24" viewBox="0 0 24 24" fill="none" xmlns="http://www.w3.org/2000/svg">
<path d="M13.5 14.2484V13.4047C13.5 12.6251 12.8316 11.9984 12 11.9984C11.1685 11.9984 10.5 12.6251 10.5 13.4047V14.2484" stroke="#666666" stroke-width="1.5" stroke-linecap="round" stroke-linejoin="round"/>
<path d="M14.2501 19.4975H9.75008C9.35225 19.4975 8.97072 19.3395 8.68942 19.0582C8.40811 18.7769 8.25008 18.3953 8.25008 17.9975V15.7475C8.25008 15.3497 8.40811 14.9681 8.68942 14.6868C8.97072 14.4055 9.35225 14.2475 9.75008 14.2475H14.2501C14.6479 14.2475 15.0294 14.4055 15.3107 14.6868C15.592 14.9681 15.7501 15.3497 15.7501 15.7475V17.9975C15.7501 18.3953 15.592 18.7769 15.3107 19.0582C15.0294 19.3395 14.6479 19.4975 14.2501 19.4975Z" fill="#666666"/>
<path d="M19.5001 10.3704V19.4993C19.5001 20.0961 19.263 20.6684 18.8411 21.0903C18.4191 21.5123 17.8468 21.7493 17.2501 21.7493H6.75008C6.15334 21.7493 5.58104 21.5123 5.15909 21.0903C4.73713 20.6684 4.50008 20.0961 4.50008 19.4993V4.49933C4.50008 3.90259 4.73713 3.3303 5.15909 2.90834C5.58104 2.48638 6.15334 2.24933 6.75008 2.24933H11.379C11.7767 2.24939 12.1581 2.40737 12.4393 2.68855L19.0609 9.31011C19.342 9.59135 19.5 9.97274 19.5001 10.3704Z" stroke="#666666" stroke-width="1.5" stroke-linejoin="round"/>
<path d="M11.9999 2.38452V8.24952C11.9999 8.64735 12.158 9.02888 12.4393 9.31018C12.7206 9.59149 13.1021 9.74952 13.4999 9.74952H19.3649" stroke="#666666" stroke-width="1.5" stroke-linecap="round" stroke-linejoin="round"/>
</svg>
