<svg width="24" height="24" viewBox="0 0 24 24" fill="none" xmlns="http://www.w3.org/2000/svg">
<g clip-path="url(#clip0_32_1317)">
<path d="M9.74997 2.9975H12.8789C13.2766 2.99756 13.6579 3.15554 13.9392 3.43672L20.5608 10.0583C20.8419 10.3395 20.9999 10.7209 21 11.1186V20.2475C21 20.8442 20.7629 21.4165 20.341 21.8385C19.919 22.2604 19.3467 22.4975 18.75 22.4975H8.99997C8.40323 22.4975 7.83094 22.2604 7.40898 21.8385C6.98702 21.4165 6.74997 20.8442 6.74997 20.2475V14.2475" stroke="#666666" stroke-width="1.5" stroke-linecap="round" stroke-linejoin="round"/>
<path d="M13.4999 3.3761V9.0011C13.4999 9.39892 13.658 9.78045 13.9393 10.0618C14.2206 10.3431 14.6021 10.5011 14.9999 10.5011H20.6249" stroke="#666666" stroke-width="1.5" stroke-linecap="round" stroke-linejoin="round"/>
<path d="M7.49997 3.74658V10.8716C7.50192 11.0199 7.47416 11.167 7.41831 11.3044C7.36247 11.4418 7.27968 11.5666 7.17482 11.6714C7.06996 11.7763 6.94516 11.8591 6.80779 11.9149C6.67042 11.9708 6.52325 11.9985 6.37497 11.9966C5.81247 11.9966 5.24997 11.57 5.24997 10.8716V4.12158C5.24997 2.68768 6.02669 1.49658 7.49997 1.49658C8.97325 1.49658 9.74997 2.65908 9.74997 4.09252V10.5964C9.74997 12.6121 8.44591 14.2466 6.37497 14.2466C4.30403 14.2466 2.99997 12.6125 2.99997 10.5964V6.74658" stroke="#666666" stroke-width="1.5" stroke-miterlimit="10" stroke-linecap="round"/>
</g>
<defs>
<clipPath id="clip0_32_1317">
<rect width="24" height="24" fill="white" transform="translate(0 -0.00390625)"/>
</clipPath>
</defs>
</svg>
