<svg width="24" height="24" viewBox="0 0 24 24" fill="none" xmlns="http://www.w3.org/2000/svg">
<g clip-path="url(#clip0_32_1324)">
<path d="M21.5626 11.2484H15.0001C14.4033 11.2484 13.831 11.0114 13.4091 10.5894C12.9871 10.1674 12.7501 9.59515 12.7501 8.99841V2.43591C12.7501 2.38619 12.7303 2.33849 12.6952 2.30333C12.66 2.26817 12.6123 2.24841 12.5626 2.24841H10.0665C9.97893 2.08629 9.87696 1.93239 9.76179 1.78857C9.22132 1.11779 8.41835 0.748413 7.50007 0.748413C5.73382 0.748413 4.50007 2.13638 4.50007 4.12341V10.8734C4.50007 12.0453 5.45351 12.7484 6.37507 12.7484C6.62205 12.7511 6.86708 12.7045 7.09578 12.6112C7.32449 12.5179 7.53226 12.3799 7.70691 12.2053C7.88156 12.0306 8.01957 11.8228 8.11284 11.5941C8.20611 11.3654 8.25277 11.1204 8.25007 10.8734V3.74841C8.25007 3.5495 8.17105 3.35874 8.0304 3.21808C7.88975 3.07743 7.69898 2.99841 7.50007 2.99841C7.30116 2.99841 7.11039 3.07743 6.96974 3.21808C6.82909 3.35874 6.75007 3.5495 6.75007 3.74841V10.8734C6.7517 10.9231 6.74311 10.9726 6.72485 11.0188C6.70658 11.0651 6.67901 11.1071 6.64386 11.1422C6.60871 11.1774 6.56672 11.2049 6.52048 11.2232C6.47425 11.2415 6.42476 11.25 6.37507 11.2484C6.27054 11.2484 6.00007 11.1809 6.00007 10.8734V4.12341C6.00007 3.21685 6.39429 2.24841 7.50007 2.24841C8.89179 2.24841 9.00007 3.6617 9.00007 4.09435V10.5983C9.00007 11.4162 8.74366 12.1559 8.27773 12.6823C7.80476 13.2172 7.1471 13.4984 6.37507 13.4984C5.60304 13.4984 4.94538 13.2172 4.47241 12.6823C4.00648 12.1559 3.75007 11.4162 3.75007 10.5983V6.74841C3.75007 6.5495 3.67105 6.35874 3.5304 6.21808C3.38975 6.07743 3.19898 5.99841 3.00007 5.99841C2.80116 5.99841 2.61039 6.07743 2.46974 6.21808C2.32909 6.35874 2.25007 6.5495 2.25007 6.74841V10.5983C2.25007 13.0128 3.80585 14.7997 6.00007 14.9825V20.2484C6.00007 21.0441 6.31614 21.8071 6.87875 22.3697C7.44136 22.9323 8.20442 23.2484 9.00007 23.2484H18.7501C19.5457 23.2484 20.3088 22.9323 20.8714 22.3697C21.434 21.8071 21.7501 21.0441 21.7501 20.2484V11.4359C21.7501 11.3862 21.7303 11.3385 21.6952 11.3033C21.66 11.2682 21.6123 11.2484 21.5626 11.2484Z" fill="#666666"/>
<path d="M15 9.7454H21.0848C21.1033 9.74532 21.1213 9.73978 21.1367 9.72948C21.152 9.71917 21.164 9.70456 21.171 9.68748C21.1781 9.67039 21.18 9.65161 21.1764 9.63347C21.1728 9.61534 21.1639 9.59867 21.1509 9.58556L14.4098 2.84446C14.3967 2.83143 14.38 2.82256 14.3619 2.81898C14.3438 2.81539 14.325 2.81725 14.3079 2.82431C14.2908 2.83138 14.2762 2.84333 14.2659 2.85868C14.2556 2.87402 14.25 2.89207 14.25 2.91056V8.9954C14.25 9.19431 14.329 9.38508 14.4696 9.52573C14.6103 9.66638 14.801 9.7454 15 9.7454Z" fill="#666666"/>
</g>
<defs>
<clipPath id="clip0_32_1324">
<rect width="24" height="24" fill="white" transform="translate(0.00012207 -0.00390625)"/>
</clipPath>
</defs>
</svg>
