<svg width="24" height="24" viewBox="0 0 24 24" fill="none" xmlns="http://www.w3.org/2000/svg">
<path d="M15.75 12.3813V20.4377C15.75 21.5768 14.857 22.5002 13.7367 22.5002H5.01558C3.89292 22.5002 2.99995 21.5768 2.99995 20.4377V8.06274C3.00315 7.51672 3.22148 6.99397 3.60758 6.60787C3.99368 6.22177 4.51643 6.00344 5.06245 6.00024H9.47433C9.62704 6.00048 9.77818 6.0311 9.91893 6.09033C10.0597 6.14956 10.1872 6.23622 10.2942 6.34524L15.4106 11.5484C15.6283 11.771 15.7501 12.07 15.75 12.3813V12.3813Z" stroke="#666666" stroke-width="1.5" stroke-linejoin="round"/>
<path d="M9.37498 6.00024V11.0627C9.37912 11.4096 9.51873 11.741 9.76398 11.9862C10.0092 12.2315 10.3407 12.3711 10.6875 12.3752H15.75" stroke="#666666" stroke-width="1.5" stroke-linecap="round" stroke-linejoin="round"/>
<path d="M8.25002 5.9975V3.56C8.25321 3.01398 8.47154 2.49123 8.85764 2.10512C9.24374 1.71902 9.76649 1.5007 10.3125 1.4975H14.7188C14.8723 1.49771 15.0243 1.5283 15.166 1.58752C15.3076 1.64673 15.4362 1.73338 15.5442 1.8425L20.6606 7.04562C20.8782 7.26585 21.0001 7.56295 21 7.8725V15.935C21 17.0741 20.107 17.9975 18.9867 17.9975H16.125" stroke="#666666" stroke-width="1.5" stroke-linejoin="round"/>
<path d="M14.625 1.4975V6.56C14.6292 6.90681 14.7688 7.23825 15.014 7.4835C15.2593 7.72875 15.5907 7.86836 15.9375 7.8725H21" stroke="#666666" stroke-width="1.5" stroke-linecap="round" stroke-linejoin="round"/>
</svg>
