<svg width="24" height="24" viewBox="0 0 24 24" fill="none" xmlns="http://www.w3.org/2000/svg">
<path d="M19.5001 10.3704V19.4993C19.5001 20.0961 19.2631 20.6684 18.8411 21.0903C18.4192 21.5123 17.8469 21.7493 17.2501 21.7493H6.75012C6.15338 21.7493 5.58109 21.5123 5.15913 21.0903C4.73717 20.6684 4.50012 20.0961 4.50012 19.4993V4.49933C4.50012 3.90259 4.73717 3.3303 5.15913 2.90834C5.58109 2.48638 6.15338 2.24933 6.75012 2.24933H11.379C11.7767 2.24939 12.1581 2.40737 12.4393 2.68855L19.0609 9.31011C19.3421 9.59135 19.5001 9.97274 19.5001 10.3704Z" stroke="#666666" stroke-width="1.5" stroke-linejoin="round"/>
<path d="M12.0001 2.62341V8.24841C12.0001 8.64624 12.1582 9.02777 12.4395 9.30907C12.7208 9.59038 13.1023 9.74841 13.5001 9.74841H19.1251" stroke="#666666" stroke-width="1.5" stroke-linecap="round" stroke-linejoin="round"/>
</svg>
