<svg width="24" height="24" viewBox="0 0 24 24" fill="none" xmlns="http://www.w3.org/2000/svg">
<path d="M12.7501 7.4975V14.4055L15.7501 11.4055L16.8109 12.4662L12.0001 17.277L7.18931 12.4662L8.25009 11.4055L11.2501 14.4055V7.4975H4.31259C4.16341 7.4975 4.02033 7.55676 3.91484 7.66225C3.80935 7.76774 3.75009 7.91081 3.75009 8.06V21.935C3.75009 22.0842 3.80935 22.2273 3.91484 22.3327C4.02033 22.4382 4.16341 22.4975 4.31259 22.4975H19.6876C19.8368 22.4975 19.9799 22.4382 20.0853 22.3327C20.1908 22.2273 20.2501 22.0842 20.2501 21.935V8.06C20.2501 7.91081 20.1908 7.76774 20.0853 7.66225C19.9799 7.55676 19.8368 7.4975 19.6876 7.4975H12.7501ZM11.2501 1.4975H12.7501V7.4975H11.2501V1.4975Z" fill="#666666"/>
</svg>
