<svg width="24" height="24" viewBox="0 0 24 24" fill="none" xmlns="http://www.w3.org/2000/svg">
<path d="M17.6249 7.4975H12.7499V14.6867L15.2197 12.2173C15.3615 12.0826 15.5503 12.0086 15.7459 12.0111C15.9415 12.0136 16.1283 12.0924 16.2666 12.2307C16.4049 12.369 16.4837 12.5559 16.4862 12.7515C16.4887 12.947 16.4147 13.1359 16.28 13.2777L12.53 17.0277C12.3894 17.1682 12.1987 17.2472 11.9999 17.2472C11.801 17.2472 11.6104 17.1682 11.4697 17.0277L7.71972 13.2777C7.585 13.1359 7.51101 12.947 7.51351 12.7515C7.51601 12.5559 7.59482 12.369 7.73312 12.2307C7.87142 12.0924 8.05828 12.0136 8.25385 12.0111C8.44942 12.0086 8.63823 12.0826 8.78003 12.2173L11.2499 14.6867V7.4975H6.37487C5.67891 7.49824 5.01166 7.77504 4.51954 8.26716C4.02742 8.75929 3.75061 9.42653 3.74987 10.1225V19.8725C3.75061 20.5685 4.02742 21.2357 4.51954 21.7278C5.01166 22.22 5.67891 22.4968 6.37487 22.4975H17.6249C18.3208 22.4968 18.9881 22.22 19.4802 21.7278C19.9723 21.2357 20.2491 20.5685 20.2499 19.8725V10.1225C20.2491 9.42653 19.9723 8.75929 19.4802 8.26716C18.9881 7.77504 18.3208 7.49824 17.6249 7.4975ZM12.7499 2.2475C12.7499 2.04859 12.6709 1.85782 12.5302 1.71717C12.3896 1.57652 12.1988 1.4975 11.9999 1.4975C11.801 1.4975 11.6102 1.57652 11.4695 1.71717C11.3289 1.85782 11.2499 2.04859 11.2499 2.2475V7.4975H12.7499V2.2475Z" fill="#666666"/>
</svg>
