<svg width="24" height="24" viewBox="0 0 24 24" fill="none" xmlns="http://www.w3.org/2000/svg">
<path d="M15.7499 8.24933H17.6249C18.1222 8.24933 18.5991 8.44687 18.9507 8.7985C19.3024 9.15013 19.4999 9.62705 19.4999 10.1243V19.8743C19.4999 20.3716 19.3024 20.8485 18.9507 21.2002C18.5991 21.5518 18.1222 21.7493 17.6249 21.7493H6.37492C5.87764 21.7493 5.40072 21.5518 5.04909 21.2002C4.69746 20.8485 4.49992 20.3716 4.49992 19.8743V10.1243C4.49992 9.62705 4.69746 9.15013 5.04909 8.7985C5.40072 8.44687 5.87764 8.24933 6.37492 8.24933H8.24992" stroke="#666666" stroke-width="1.5" stroke-linecap="round" stroke-linejoin="round"/>
<path d="M8.25006 12.7457L12.0001 16.4957L15.7501 12.7457M12.0001 2.24573V15.7457" stroke="#666666" stroke-width="1.5" stroke-linecap="round" stroke-linejoin="round"/>
</svg>
