<svg width="24" height="24" viewBox="0 0 24 24" fill="none" xmlns="http://www.w3.org/2000/svg">
<path d="M19.0783 6.00024H8.67204C7.1964 6.00024 6.00016 7.19648 6.00016 8.67212V19.0784C6.00016 20.554 7.1964 21.7502 8.67204 21.7502H19.0783C20.5539 21.7502 21.7502 20.554 21.7502 19.0784V8.67212C21.7502 7.19648 20.5539 6.00024 19.0783 6.00024Z" stroke="#666666" stroke-width="1.5" stroke-linejoin="round"/>
<path d="M17.9766 5.99573L18 4.87073C17.998 4.17514 17.7208 3.50861 17.229 3.01676C16.7371 2.5249 16.0706 2.24771 15.375 2.24573H5.25002C4.45509 2.24808 3.69339 2.5649 3.13129 3.127C2.56919 3.6891 2.25236 4.4508 2.25002 5.24573V15.3707C2.25199 16.0663 2.52919 16.7328 3.02105 17.2247C3.5129 17.7166 4.17943 17.9938 4.87502 17.9957H6.00002M13.875 10.1207V17.6207M17.625 13.8707H10.125" stroke="#666666" stroke-width="1.5" stroke-linecap="round" stroke-linejoin="round"/>
</svg>
