<svg width="24" height="24" viewBox="0 0 24 24" fill="none" xmlns="http://www.w3.org/2000/svg">
<path d="M19.1251 5.24841H8.62506C7.72996 5.24841 6.87151 5.60399 6.23858 6.23693C5.60564 6.86986 5.25006 7.72831 5.25006 8.62341V19.1234C5.25006 20.0185 5.60564 20.877 6.23858 21.5099C6.87151 22.1428 7.72996 22.4984 8.62506 22.4984H19.1251C20.0202 22.4984 20.8786 22.1428 21.5116 21.5099C22.1445 20.877 22.5001 20.0185 22.5001 19.1234V8.62341C22.5001 7.72831 22.1445 6.86986 21.5116 6.23693C20.8786 5.60399 20.0202 5.24841 19.1251 5.24841ZM17.604 14.6234H14.6251V17.6023C14.6251 18.0059 14.3148 18.3523 13.9112 18.3725C13.8097 18.3774 13.7084 18.3616 13.6133 18.3262C13.5181 18.2907 13.4312 18.2364 13.3577 18.1663C13.2842 18.0963 13.2257 18.012 13.1857 17.9187C13.1457 17.8254 13.1251 17.7249 13.1251 17.6234V14.6234H10.1462C9.74256 14.6234 9.39616 14.3131 9.376 13.9095C9.37111 13.8081 9.38687 13.7068 9.42231 13.6116C9.45774 13.5165 9.51213 13.4295 9.58217 13.356C9.6522 13.2825 9.73643 13.224 9.82975 13.184C9.92307 13.144 10.0235 13.1234 10.1251 13.1234H13.1251V10.1445C13.1251 9.74091 13.4354 9.39451 13.839 9.37435C13.9404 9.36947 14.0417 9.38522 14.1369 9.42066C14.232 9.4561 14.319 9.51048 14.3925 9.58052C14.466 9.65056 14.5245 9.73479 14.5644 9.8281C14.6044 9.92142 14.6251 10.0219 14.6251 10.1234V13.1234H17.6251C17.7267 13.1233 17.8272 13.1438 17.9207 13.1838C18.0141 13.2237 18.0984 13.2822 18.1686 13.3557C18.2387 13.4292 18.2932 13.5162 18.3287 13.6114C18.3642 13.7066 18.38 13.808 18.3751 13.9095C18.3554 14.3131 18.0076 14.6234 17.604 14.6234Z" fill="#666666"/>
<path d="M18.5568 3.74841C18.3234 3.09087 17.8924 2.52164 17.3227 2.1188C16.753 1.71596 16.0726 1.49926 15.3749 1.49841H4.87492C3.97981 1.49841 3.12137 1.85399 2.48843 2.48693C1.8555 3.11986 1.49992 3.97831 1.49992 4.87341V15.3734C1.50076 16.0711 1.71746 16.7515 2.1203 17.3212C2.52314 17.8909 3.09237 18.3219 3.74992 18.5553V7.49841C3.74992 6.50385 4.145 5.55002 4.84827 4.84676C5.55153 4.1435 6.50536 3.74841 7.49992 3.74841H18.5568Z" fill="#666666"/>
</svg>
