<svg width="24" height="24" viewBox="0 0 24 24" fill="none" xmlns="http://www.w3.org/2000/svg">
<path d="M5.24991 3.7475H18.7499V2.6225C18.7499 2.32413 18.6314 2.03798 18.4204 1.827C18.2094 1.61602 17.9233 1.4975 17.6249 1.4975H3.09366C2.67097 1.4975 2.26559 1.66541 1.96671 1.9643C1.66782 2.26318 1.49991 2.66856 1.49991 3.09125V17.6225C1.49991 17.9209 1.61843 18.207 1.82941 18.418C2.04039 18.629 2.32654 18.7475 2.62491 18.7475H3.74991V5.2475C3.74991 4.84967 3.90794 4.46814 4.18925 4.18684C4.47055 3.90553 4.85208 3.7475 5.24991 3.7475Z" fill="#666666"/>
<path d="M21.3751 5.2475H6.37505C6.07669 5.2475 5.79054 5.36602 5.57956 5.577C5.36858 5.78798 5.25005 6.07413 5.25005 6.3725V21.3725C5.25005 21.6709 5.36858 21.957 5.57956 22.168C5.79054 22.379 6.07669 22.4975 6.37505 22.4975H21.3751C21.6734 22.4975 21.9596 22.379 22.1706 22.168C22.3815 21.957 22.5001 21.6709 22.5001 21.3725V6.3725C22.5001 6.07413 22.3815 5.78798 22.1706 5.577C21.9596 5.36602 21.6734 5.2475 21.3751 5.2475ZM18.3751 14.6225H14.6251V18.3725H13.1251V14.6225H9.37505V13.1225H13.1251V9.3725H14.6251V13.1225H18.3751V14.6225Z" fill="#666666"/>
</svg>
