<svg width="24" height="24" viewBox="0 0 24 24" fill="none" xmlns="http://www.w3.org/2000/svg">
<g clip-path="url(#clip0_32_1385)">
<path d="M15.737 15.5028C17.8937 14.0375 19.5001 11.78 19.5001 8.99841C19.5001 7.00929 18.7099 5.10164 17.3034 3.69511C15.8969 2.28859 13.9892 1.49841 12.0001 1.49841C10.011 1.49841 8.10331 2.28859 6.69679 3.69511C5.29027 5.10164 4.50009 7.00929 4.50009 8.99841V18.6814C4.50009 20.7561 6.1754 22.4984 8.25009 22.4984C10.3248 22.4984 11.3827 21.2825 11.8731 20.6234C12.5654 19.6948 13.8282 16.8003 15.737 15.5028Z" stroke="#666666" stroke-width="1.5" stroke-linecap="round" stroke-linejoin="round"/>
<path d="M7.50006 14.2502V8.62524C7.50006 6.35649 9.52506 4.50024 12.0001 4.50024C14.4751 4.50024 16.5001 6.35649 16.5001 8.62524" stroke="#666666" stroke-width="1.5" stroke-linecap="round" stroke-linejoin="round"/>
<path d="M7.50006 11.2022C8.67194 10.3585 11.2416 10.4991 11.2416 10.4991C12.4604 10.4991 13.1715 11.8781 12.4604 12.871C12.4604 12.871 10.7326 14.8585 10.4982 15.7491" stroke="#666666" stroke-width="1.5" stroke-linecap="round" stroke-linejoin="round"/>
</g>
<defs>
<clipPath id="clip0_32_1385">
<rect width="24" height="24" fill="white" transform="translate(-0.00012207 -0.00390625)"/>
</clipPath>
</defs>
</svg>
