<svg width="24" height="24" viewBox="0 0 24 24" fill="none" xmlns="http://www.w3.org/2000/svg">
<g clip-path="url(#clip0_32_1389)">
<path d="M17.835 3.18745C16.2698 1.61292 14.1975 0.745728 12 0.745728C7.45311 0.745728 3.74999 4.44885 3.74999 8.99573V18.6787C3.7491 19.8797 4.22052 21.0328 5.06249 21.8892C5.47539 22.3179 5.97045 22.6589 6.51811 22.892C7.06577 23.1251 7.65479 23.2454 8.24999 23.2457C9.18421 23.2457 10.1747 22.8853 11.1937 22.1737C11.6292 21.8707 12.0353 21.5277 12.4069 21.149C15.3455 18.2845 20.25 13.4985 20.25 8.99573C20.25 6.81651 19.3926 4.75401 17.835 3.18745ZM17.25 9.37073H15.75V8.62073C15.75 6.75979 14.0676 5.24573 12 5.24573C9.93233 5.24573 8.24999 6.75979 8.24999 8.62073V10.0462C9.53905 9.6787 11.0573 9.73589 11.2622 9.74573C11.6738 9.74948 12.0766 9.8661 12.4266 10.0829C12.7765 10.2997 13.0603 10.6084 13.247 10.9753C13.4337 11.3422 13.5162 11.7533 13.4854 12.1638C13.4546 12.5743 13.3118 12.9686 13.0725 13.3035C13.0584 13.3228 13.0439 13.3415 13.028 13.3598C12.2522 14.2504 11.3405 15.4921 11.2251 15.9379L11.0344 16.6631L9.58405 16.2815L9.77483 15.5564C10.0331 14.5748 11.5059 12.8282 11.8683 12.4087C11.9429 12.2956 11.9854 12.1644 11.9915 12.029C11.9975 11.8937 11.9667 11.7592 11.9024 11.6399C11.8382 11.5207 11.7428 11.421 11.6264 11.3516C11.51 11.2822 11.377 11.2456 11.2415 11.2457H11.2003C10.7001 11.2185 9.20061 11.234 8.28842 11.6207L8.24999 11.6371V14.9957H6.74999V8.62073C6.74999 5.93245 9.10499 3.74573 12 3.74573C14.895 3.74573 17.25 5.93245 17.25 8.62073V9.37073Z" fill="#666666"/>
</g>
<defs>
<clipPath id="clip0_32_1389">
<rect width="24" height="24" fill="white" transform="translate(0.00012207 -0.00390625)"/>
</clipPath>
</defs>
</svg>
