<svg width="24" height="24" viewBox="0 0 24 24" fill="none" xmlns="http://www.w3.org/2000/svg">
<g clip-path="url(#clip0_32_1391)">
<path d="M12 0.745728C7.45317 0.745728 3.75005 4.44885 3.75005 8.99573V18.6787C3.74916 19.8797 4.22059 21.0328 5.06255 21.8892C5.47548 22.3178 5.97055 22.6588 6.51821 22.8919C7.06586 23.125 7.65486 23.2453 8.25005 23.2457C9.97786 23.2457 11.3991 22.5135 12.4744 21.0698C12.6844 20.7885 12.9221 20.3789 13.1972 19.905C13.9154 18.6689 14.8983 16.9767 16.1583 16.1203C17.3663 15.2995 18.3722 14.2668 19.0646 13.1334C19.8521 11.8523 20.25 10.4601 20.25 8.99573C20.25 4.44885 16.5493 0.745728 12 0.745728ZM16.5 9.37073C16.3011 9.37073 16.1104 9.29171 15.9697 9.15106C15.8291 9.01041 15.75 8.81964 15.75 8.62073C15.75 6.75979 14.0677 5.24573 12 5.24573C9.93239 5.24573 8.25005 6.75979 8.25005 8.62073V10.0467C9.52458 9.67917 10.9875 9.73167 11.2632 9.74573C11.6748 9.74965 12.0774 9.8664 12.4272 10.0833C12.7771 10.3001 13.0607 10.6088 13.2473 10.9757C13.4339 11.3426 13.5162 11.7536 13.4854 12.164C13.4546 12.5745 13.3118 12.9686 13.0725 13.3035C13.0585 13.3228 13.044 13.3415 13.028 13.3598C12.2522 14.2504 11.3405 15.4917 11.2252 15.9379C11.1713 16.1265 11.0456 16.2865 10.8752 16.3836C10.7047 16.4806 10.503 16.507 10.3133 16.4571C10.1235 16.4072 9.96094 16.285 9.8603 16.1166C9.75966 15.9482 9.729 15.7471 9.77489 15.5564C10.0332 14.5748 11.506 12.8282 11.8683 12.4087C11.9429 12.2956 11.9855 12.1644 11.9915 12.029C11.9975 11.8937 11.9668 11.7592 11.9025 11.6399C11.8382 11.5207 11.7428 11.421 11.6265 11.3516C11.5101 11.2822 11.3771 11.2456 11.2416 11.2457H11.2004C10.4222 11.204 9.04927 11.2832 8.25005 11.6353V14.2457C8.25005 14.4446 8.17103 14.6354 8.03038 14.7761C7.88973 14.9167 7.69896 14.9957 7.50005 14.9957C7.30114 14.9957 7.11037 14.9167 6.96972 14.7761C6.82907 14.6354 6.75005 14.4446 6.75005 14.2457V8.62073C6.75005 5.93245 9.10505 3.74573 12 3.74573C14.895 3.74573 17.25 5.93245 17.25 8.62073C17.25 8.81964 17.171 9.01041 17.0304 9.15106C16.8897 9.29171 16.699 9.37073 16.5 9.37073Z" fill="#666666"/>
</g>
<defs>
<clipPath id="clip0_32_1391">
<rect width="24" height="24" fill="white" transform="translate(0 -0.00390625)"/>
</clipPath>
</defs>
</svg>
