<svg width="24" height="24" viewBox="0 0 24 24" fill="none" xmlns="http://www.w3.org/2000/svg">
<path d="M21.7501 11.9966C21.7501 6.61211 17.3846 2.24664 12.0001 2.24664C6.61552 2.24664 2.25005 6.61211 2.25005 11.9966C2.25005 17.3812 6.61552 21.7466 12.0001 21.7466C17.3846 21.7466 21.7501 17.3812 21.7501 11.9966Z" stroke="#666666" stroke-width="1.5" stroke-miterlimit="10"/>
<path d="M20.886 8.06907C20.1332 8.07376 20.2073 9.46267 19.2693 8.80735C18.921 8.56454 18.7068 8.21157 18.2694 8.10423C17.8874 8.01048 17.496 8.10798 17.1187 8.17314C16.6898 8.2472 16.1812 8.28048 15.8559 8.60532C15.5413 8.91798 15.3749 9.33751 15.0402 9.65204C14.3929 10.2614 14.1196 10.9266 14.5387 11.7881C14.9418 12.6164 15.7851 13.0659 16.6949 13.0069C17.5888 12.9474 18.5174 12.4289 18.4916 13.7278C18.4823 14.1872 18.5784 14.5059 18.7194 14.933C18.8502 15.3267 18.8413 15.7083 18.8713 16.1147C18.9266 16.8741 19.0663 17.7253 19.4432 18.3961L20.1463 17.4042C20.233 17.2814 20.4144 17.1094 20.4576 16.9645C20.534 16.7081 20.3835 16.2675 20.3662 15.9802C20.3488 15.6928 20.3573 15.4017 20.3132 15.1144C20.2513 14.7117 20.0132 14.3344 19.9804 13.9364C19.9199 13.1953 20.0554 12.6038 19.4845 11.9841C18.9332 11.3864 18.1251 11.243 17.353 11.3644C16.964 11.4253 15.3979 11.6756 16.0265 10.7864C16.1507 10.6116 16.3677 10.4681 16.5074 10.3017C16.6288 10.1569 16.7343 9.89064 16.8768 9.77767C17.0193 9.6647 17.6737 9.53485 17.8612 9.59251C18.0487 9.65017 18.2441 9.92064 18.4068 10.0406C18.7073 10.267 19.058 10.4175 19.4291 10.4794C20.0695 10.5731 21.4082 10.2009 21.3979 9.3797C21.396 8.98595 21.0304 8.43751 20.886 8.06907ZM13.4741 14.8266C13.2243 13.7747 11.7951 13.4231 11.0244 12.8527C10.5815 12.5245 10.1873 12.0178 9.60554 11.9766C9.33742 11.9574 9.11288 12.0155 8.8471 11.9466C8.60335 11.8838 8.4121 11.7525 8.15242 11.7867C7.66726 11.8505 7.36117 12.3689 6.83992 12.2986C6.34538 12.232 5.83585 11.6536 5.72335 11.1825C5.57898 10.5769 6.05804 10.3805 6.57132 10.3266C6.78554 10.3041 7.02601 10.2797 7.23179 10.358C7.50273 10.4588 7.6307 10.7241 7.87398 10.8581C8.33007 11.108 8.42242 10.7086 8.35257 10.3036C8.24804 9.69704 8.12617 9.44954 8.6671 9.03235C9.0421 8.74454 9.36273 8.53642 9.30273 8.01939C9.2671 7.71564 9.1007 7.57829 9.25585 7.27595C9.37351 7.04579 9.69648 6.83813 9.90695 6.70079C10.4502 6.34642 12.2343 6.37267 11.5054 5.38079C11.2912 5.0897 10.896 4.56938 10.521 4.49813C10.0523 4.40954 9.84413 4.93267 9.51742 5.16329C9.17992 5.40188 8.52273 5.67282 8.18476 5.30392C7.73007 4.80751 8.48617 4.64438 8.65351 4.29798C8.82085 3.95157 8.26585 3.29673 7.96867 3.13079L6.57132 4.69782C6.53118 4.96026 6.54515 5.22813 6.61239 5.48496C6.67962 5.74179 6.79868 5.98215 6.96226 6.19126C7.24023 6.54892 7.68273 6.66376 7.70288 7.1522C7.72257 7.62095 7.64945 7.86095 7.34288 8.19048C7.21023 8.3311 7.11648 8.53079 6.98148 8.66251C6.81601 8.82329 6.87742 8.77407 6.61913 8.81814C6.13351 8.90017 5.72007 9.02673 5.25085 9.1561C4.46898 9.3722 4.39679 8.09485 4.04054 7.59376L2.86866 8.54017C2.85601 8.69532 3.06085 8.98079 3.11663 9.14954C3.43679 10.1138 4.08273 10.8595 4.49992 11.782C4.93913 12.7589 6.11851 12.488 6.63929 13.3439C7.10148 14.1033 6.60788 15.0647 6.95382 15.8597C7.20507 16.4367 7.79757 16.5628 8.20632 16.9847C8.62398 17.4108 8.61507 17.9939 8.67882 18.5485C8.75072 19.2007 8.8674 19.8472 9.02804 20.4834C9.08476 20.7033 9.13679 20.9939 9.28726 21.1753C9.39039 21.3 9.74429 21.4074 9.60132 21.4486C9.80101 21.4814 10.1568 21.668 10.3232 21.5311C10.5426 21.3511 10.484 20.797 10.5219 20.5467C10.6359 19.8014 11.009 19.0725 11.5124 18.5147C12.0098 17.9644 12.6913 17.5917 13.1113 16.9678C13.5205 16.3594 13.6438 15.5386 13.4741 14.8266ZM11.909 16.0603C11.6277 16.5624 11.0015 16.8984 10.5988 17.2974C10.4896 17.4056 10.2571 17.7806 10.1202 17.6995C10.0223 17.6414 9.98898 17.1549 9.95289 17.0433C9.76668 16.4815 9.4112 15.9911 8.93523 15.6394C8.78851 15.5283 8.42476 15.3839 8.34085 15.2316C8.2471 15.0661 8.33148 14.6756 8.33476 14.4956C8.33992 14.2331 8.22038 13.7967 8.28507 13.5581C8.36007 13.283 8.2157 13.4489 8.46179 13.3945C8.59163 13.3655 9.12788 13.4597 9.2896 13.4934C9.54648 13.5469 9.68804 13.7067 9.89054 13.8684C10.423 14.2955 11.0094 14.6259 11.6062 14.9531C12.0684 15.2091 12.2043 15.533 11.909 16.0603ZM8.64648 3.14485C8.86867 3.36188 9.07773 3.61876 9.40913 3.64032C9.72273 3.66142 10.0185 3.49173 10.2923 3.70501C10.596 3.93938 10.8149 4.2361 11.218 4.30923C11.608 4.38001 12.021 4.1522 12.1176 3.75329C12.2113 3.37313 12.0093 2.9597 11.9971 2.57813C11.9971 2.52517 12.0257 2.28985 11.9891 2.25001C11.9619 2.22001 11.7351 2.25376 11.7004 2.2547C11.4463 2.2622 11.1929 2.2797 10.9401 2.3072C10.0184 2.40695 9.11583 2.63821 8.25976 2.99392C8.37367 3.07267 8.51663 3.10407 8.64648 3.14485ZM16.7062 5.77829C17.1041 5.77829 17.5082 5.60017 17.3798 5.13985C17.2719 4.75407 17.0882 4.33548 16.641 4.5436C16.3565 4.67579 15.9534 5.01235 15.9201 5.3461C15.8821 5.72485 16.4409 5.77829 16.7062 5.77829ZM16.3884 7.79251C16.7948 8.03579 17.3976 7.92142 17.7041 7.57407C17.9437 7.3022 18.0848 6.83017 18.5155 6.83064C18.7052 6.83024 18.8874 6.9045 19.0227 7.03735C19.2009 7.22157 19.1657 7.39454 19.2037 7.62517C19.2885 8.14314 19.844 7.6547 19.9888 7.45407C20.0826 7.32329 20.2096 7.12923 20.167 6.95907C20.1276 6.80017 19.9419 6.63095 19.8595 6.48517C19.6185 6.06329 19.4202 5.57251 19.0593 5.23173C18.712 4.9036 18.2849 4.94157 17.9554 5.28235C17.6854 5.5636 17.3718 5.78626 17.1871 6.12845C17.0568 6.36892 16.9101 6.48376 16.6462 6.5461C16.5009 6.58032 16.3349 6.59298 16.213 6.69048C15.8737 6.95767 16.0668 7.59939 16.3884 7.79251Z" fill="#666666"/>
</svg>
