<svg width="24" height="24" viewBox="0 0 24 24" fill="none" xmlns="http://www.w3.org/2000/svg">
<path d="M12.5157 22.2182L12.4782 22.2121C12.4834 22.2162 12.4896 22.2189 12.4962 22.2199C12.5027 22.221 12.5094 22.2204 12.5157 22.2182ZM21.0423 8.80165C21.0316 8.74509 21.0023 8.69373 20.9591 8.65571C20.9158 8.61769 20.8612 8.5952 20.8037 8.59181C20.7462 8.58842 20.6893 8.60431 20.6419 8.63698C20.5945 8.66965 20.5594 8.71721 20.5421 8.77212C20.5255 8.82425 20.4929 8.8698 20.4489 8.90222C20.4048 8.93464 20.3516 8.95228 20.2969 8.95259H19.5718C19.5249 8.95263 19.4788 8.93983 19.4387 8.91556L18.3896 8.28649C18.3494 8.26222 18.3034 8.24941 18.2565 8.24946H16.5783C16.5273 8.24941 16.4773 8.26459 16.4349 8.29306L14.3654 9.67259C14.3296 9.69641 14.3003 9.72877 14.2802 9.76674C14.2601 9.80472 14.2497 9.84711 14.2501 9.89009V11.8467C14.25 11.8935 14.2627 11.9396 14.2868 11.9798C14.3109 12.02 14.3456 12.0529 14.3869 12.0749L17.1005 13.5234C17.1413 13.5453 17.1755 13.5777 17.1995 13.6173C17.2236 13.6568 17.2367 13.7021 17.2374 13.7484L17.2501 14.8495C17.2508 14.895 17.2635 14.9396 17.287 14.9787C17.3104 15.0178 17.3438 15.05 17.3837 15.0721L18.474 15.6754C18.5144 15.6978 18.548 15.7307 18.5715 15.7705C18.595 15.8103 18.6075 15.8556 18.6076 15.9018V18.1799C18.6076 18.2297 18.6219 18.2784 18.649 18.3203C18.676 18.3621 18.7145 18.3952 18.7598 18.4157C18.8052 18.4362 18.8555 18.4432 18.9048 18.4358C18.954 18.4284 19.0001 18.4069 19.0374 18.374C19.4771 17.9868 20.1076 17.4215 20.1915 17.2921C20.3302 17.0774 20.4604 16.8576 20.5819 16.6326C20.8337 16.1664 21.0469 15.6804 21.2194 15.1795C21.8138 13.4587 21.3441 10.3654 21.0423 8.80165ZM13.4251 14.1932L10.5502 12.037C10.5178 12.0126 10.4783 11.9995 10.4377 11.9995H9.07366C9.05032 11.9995 9.02721 11.9949 9.00566 11.986C8.9841 11.977 8.96451 11.9639 8.94803 11.9474L8.30491 11.3043C8.28748 11.2869 8.2668 11.2731 8.24403 11.2637C8.22127 11.2543 8.19688 11.2494 8.17225 11.2495H5.67897C5.64383 11.2495 5.60948 11.239 5.58027 11.2195C5.55105 11.2 5.52828 11.1723 5.51483 11.1398C5.50138 11.1073 5.49787 11.0716 5.50472 11.0371C5.51158 11.0027 5.5285 10.971 5.55334 10.9462L5.94803 10.5515C5.96451 10.535 5.9841 10.5219 6.00565 10.5129C6.02721 10.504 6.05032 10.4994 6.07366 10.4995H7.591C7.67272 10.4995 7.75221 10.4728 7.81736 10.4234C7.88252 10.3741 7.92977 10.3048 7.95194 10.2262L8.27491 9.07774C8.28179 9.05306 8.29366 9.03006 8.30979 9.01014C8.32591 8.99023 8.34595 8.97383 8.36866 8.96196L9.65631 8.29915C9.68529 8.28418 9.70958 8.26152 9.72653 8.23365C9.74348 8.20579 9.75243 8.1738 9.75241 8.14118V7.55524C9.75246 7.51889 9.76358 7.48341 9.78428 7.45352L10.4687 6.46821C10.4892 6.43861 10.5183 6.41603 10.5521 6.40352L11.5098 6.04399C11.5436 6.0313 11.5728 6.00856 11.5934 5.97882C11.614 5.94909 11.6251 5.91377 11.6251 5.87759V5.34321C11.6251 5.31391 11.6178 5.28506 11.604 5.25922C11.5902 5.23339 11.5702 5.21136 11.5458 5.19509L10.5858 4.55665C10.5595 4.5393 10.529 4.5292 10.4975 4.52739C10.4659 4.52558 10.4345 4.53212 10.4063 4.54634L9.09944 5.19977C9.06954 5.21454 9.03609 5.22056 9.00292 5.21716C8.96975 5.21376 8.93822 5.20108 8.91194 5.18056L8.29225 4.69071C8.2711 4.6737 8.25412 4.65209 8.2426 4.62752C8.23109 4.60295 8.22533 4.57607 8.22578 4.54894C8.22624 4.52181 8.23288 4.49514 8.24521 4.47096C8.25755 4.44679 8.27524 4.42575 8.29694 4.40946L8.80038 4.03868C8.82317 4.02196 8.84163 4.00004 8.85422 3.97473C8.86681 3.94943 8.87316 3.92148 8.87275 3.89322C8.87234 3.86496 8.86517 3.8372 8.85184 3.81228C8.83852 3.78735 8.81943 3.76597 8.79616 3.74993L8.01194 3.2029C7.98479 3.18378 7.95282 3.17268 7.91967 3.17086C7.88651 3.16904 7.85352 3.17657 7.82444 3.19259C7.54084 3.34774 6.70881 3.80712 6.4135 4.01384C5.04714 4.97202 3.94753 6.26264 3.2185 7.76384C3.13319 7.94009 3.02772 8.11962 3.01741 8.31321C3.00709 8.50681 2.85522 8.93899 2.79194 9.11384C2.7834 9.13747 2.77999 9.16265 2.78193 9.1877C2.78387 9.21276 2.79112 9.23711 2.80319 9.25915L4.47616 12.3332C4.49121 12.3612 4.51357 12.3845 4.54084 12.4007L6.301 13.4573C6.32383 13.4709 6.34332 13.4894 6.358 13.5116C6.37269 13.5337 6.38221 13.5589 6.38584 13.5852L6.73834 16.1418C6.74179 16.1663 6.75027 16.1898 6.76326 16.2109C6.77625 16.2319 6.79346 16.2501 6.81381 16.2642L8.18725 17.2082C8.22704 17.2356 8.25474 17.2772 8.26459 17.3245L8.99303 20.7838C8.99711 20.8042 9.0049 20.8235 9.016 20.841C9.08444 20.9517 9.35725 21.3567 9.68631 21.4167C9.65584 21.4251 9.62866 21.4443 9.59819 21.4532C9.67723 21.4671 9.75547 21.4853 9.83256 21.5076C9.92631 21.5329 10.0201 21.5545 10.1138 21.5746C10.2605 21.6037 10.2751 21.6262 10.3454 21.4959C10.4391 21.3215 10.5465 21.2615 10.6266 21.2399C10.6597 21.2323 10.69 21.2155 10.7139 21.1915C10.7379 21.1674 10.7546 21.1371 10.7621 21.104L11.2341 18.9159C11.244 18.87 11.2708 18.8295 11.3091 18.8024L13.4185 17.3071C13.443 17.2898 13.463 17.2668 13.4768 17.2401C13.4906 17.2135 13.4978 17.1839 13.4977 17.1538V14.3432C13.498 14.3143 13.4916 14.2857 13.479 14.2597C13.4664 14.2337 13.4479 14.2109 13.4251 14.1932Z" fill="#666666"/>
<path d="M12.2812 2.24664C12.2812 2.24664 12.1101 2.25649 12.0754 2.25742C11.8213 2.26492 11.5679 2.28242 11.3151 2.30992C10.3935 2.4099 9.49091 2.64115 8.63478 2.99664C8.74868 3.07539 8.55275 3.14758 8.55275 3.14758L8.85931 3.74664H10.4999L11.6249 4.30914L12.6093 3.74664L12.2812 2.24664ZM16.6045 5.62446L17.3596 4.96821C17.3833 4.94769 17.4014 4.92158 17.4123 4.89227C17.4233 4.86295 17.4268 4.83135 17.4224 4.80036C17.418 4.76937 17.4059 4.73997 17.3873 4.71484C17.3686 4.68971 17.344 4.66965 17.3156 4.65649L16.4338 4.24727C16.389 4.22637 16.3378 4.22401 16.2913 4.24069C16.2448 4.25737 16.2067 4.29174 16.1854 4.33633L15.8221 5.09617C15.8023 5.13772 15.7985 5.18508 15.8114 5.22924C15.8243 5.27341 15.853 5.3113 15.892 5.33571L16.3823 5.64227C16.4163 5.66346 16.4563 5.67317 16.4963 5.66996C16.5363 5.66676 16.5742 5.65081 16.6045 5.62446ZM20.1393 6.59055L19.866 6.16867C19.8618 6.16211 19.8581 6.15555 19.8543 6.14852C19.8051 6.04774 19.3977 5.22508 19.0574 4.90586C18.802 4.66446 18.7293 4.73383 18.7092 4.78727C18.6976 4.81682 18.6784 4.84273 18.6534 4.86227L17.3015 5.95492C17.2682 5.98186 17.2267 5.99658 17.1838 5.99664H16.484C16.4594 5.99662 16.435 6.00146 16.4122 6.01087C16.3894 6.02028 16.3688 6.03408 16.3513 6.05149L15.7888 6.61399C15.7714 6.6314 15.7576 6.65208 15.7481 6.67484C15.7387 6.6976 15.7338 6.722 15.7338 6.74664C15.7338 6.77128 15.7387 6.79568 15.7481 6.81845C15.7576 6.84121 15.7714 6.86189 15.7888 6.8793L16.3513 7.4418C16.3688 7.45921 16.3894 7.47301 16.4122 7.48242C16.435 7.49183 16.4594 7.49666 16.484 7.49664H20.0076C20.0329 7.49667 20.0579 7.49157 20.0812 7.48165C20.1045 7.47173 20.1256 7.4572 20.1431 7.43894C20.1606 7.42068 20.1742 7.39905 20.1832 7.37538C20.1921 7.3517 20.1962 7.32646 20.1951 7.30117L20.1693 6.68477C20.1679 6.65124 20.1576 6.61871 20.1393 6.59055Z" fill="#666666"/>
<path d="M11.9999 3.37341C13.9954 3.37325 15.9292 4.06498 17.4718 5.33076C19.0144 6.59654 20.0704 8.35803 20.4598 10.3151C20.8493 12.2722 20.5481 14.3037 19.6075 16.0636C18.667 17.8235 17.1454 19.2029 15.3019 19.9666C13.4584 20.7304 11.4071 20.8313 9.49752 20.2522C7.58795 19.6731 5.93827 18.4498 4.82955 16.7907C3.72083 15.1316 3.22168 13.1394 3.41714 11.1535C3.61261 9.16769 4.4906 7.31105 5.90151 5.89998C6.70044 5.09648 7.65081 4.45945 8.69762 4.02576C9.74443 3.59208 10.8669 3.37035 11.9999 3.37341ZM11.9999 1.49841C6.20151 1.49841 1.49994 6.19998 1.49994 11.9984C1.49994 17.7969 6.20151 22.4984 11.9999 22.4984C17.7984 22.4984 22.4999 17.7969 22.4999 11.9984C22.4999 6.19998 17.7984 1.49841 11.9999 1.49841Z" fill="#666666"/>
</svg>
