<svg width="24" height="24" viewBox="0 0 24 24" fill="none" xmlns="http://www.w3.org/2000/svg">
<path d="M19.4246 4.57888C18.4513 3.59598 17.2935 2.81508 16.0175 2.28102C14.7415 1.74697 13.3726 1.47029 11.9894 1.46689C10.6061 1.46349 9.23588 1.73342 7.95729 2.26119C6.6787 2.78895 5.517 3.56415 4.53891 4.54224C3.56081 5.52033 2.78562 6.68204 2.25785 7.96062C1.73009 9.23921 1.46015 10.6095 1.46356 11.9927C1.46696 13.3759 1.74364 14.7449 2.27769 16.0208C2.81174 17.2968 3.59265 18.4547 4.57554 19.4279C5.54881 20.4108 6.70669 21.1917 7.98266 21.7258C9.25863 22.2598 10.6276 22.5365 12.0108 22.5399C13.394 22.5433 14.7643 22.2734 16.0429 21.7456C17.3214 21.2179 18.4832 20.4427 19.4612 19.4646C20.4393 18.4865 21.2145 17.3248 21.7423 16.0462C22.2701 14.7676 22.54 13.3973 22.5366 12.0141C22.5332 10.6309 22.2565 9.26197 21.7225 7.98599C21.1884 6.71002 20.4075 5.55214 19.4246 4.57888ZM3.00007 12.0034C2.99974 11.2069 3.10535 10.4138 3.31414 9.64513C3.6582 10.3858 4.15789 11.0256 4.49773 11.7854C4.93695 12.7623 6.11632 12.4914 6.63711 13.3473C7.09929 14.1072 6.6057 15.0681 6.95164 15.8631C7.20289 16.4401 7.79539 16.5662 8.20414 16.9881C8.62179 17.4137 8.61289 17.9968 8.67664 18.5518C8.74857 19.2039 8.86526 19.8503 9.02586 20.4864C9.02586 20.4911 9.02586 20.4962 9.02961 20.5009C5.52195 19.269 3.00007 15.9254 3.00007 12.0034ZM12.0001 21.0034C11.4975 21.0033 10.9957 20.9612 10.5001 20.8778C10.5052 20.7508 10.5076 20.6322 10.5202 20.5497C10.6341 19.8043 11.0073 19.0754 11.5107 18.5176C12.008 17.9673 12.6896 17.5951 13.1096 16.9708C13.5212 16.3614 13.6445 15.5411 13.4748 14.829C13.2249 13.7772 11.7957 13.4261 11.0251 12.8556C10.5821 12.5275 10.1879 12.0203 9.60617 11.979C9.33804 11.9603 9.11351 12.0179 8.84773 11.9495C8.60398 11.8862 8.41273 11.755 8.15304 11.7892C7.66789 11.8529 7.36179 12.3714 6.84054 12.3011C6.34601 12.235 5.83648 11.6561 5.72398 11.185C5.57961 10.5793 6.05867 10.3829 6.57195 10.329C6.78617 10.3065 7.02664 10.2822 7.23242 10.3609C7.50336 10.4612 7.63133 10.7265 7.87461 10.8606C8.3307 11.1109 8.42304 10.7111 8.3532 10.3061C8.24867 9.6995 8.12679 9.45247 8.66773 9.03481C9.04273 8.747 9.36336 8.53888 9.30336 8.02184C9.26773 7.71809 9.10133 7.58075 9.25648 7.27841C9.37414 7.04825 9.69711 6.84059 9.90758 6.70325C10.4509 6.34888 12.2349 6.37513 11.506 5.38325C11.2918 5.09216 10.8966 4.57184 10.5216 4.50059C10.0529 4.412 9.84476 4.93513 9.51804 5.16575C9.18054 5.40434 8.52336 5.67528 8.18539 5.30638C7.7307 4.80997 8.48679 4.64731 8.65414 4.30044C8.73148 4.13872 8.65414 3.91419 8.52383 3.70278C8.69289 3.63153 8.86476 3.56544 9.03945 3.5045C9.14893 3.58536 9.2788 3.63406 9.41445 3.64512C9.72804 3.66575 10.0238 3.49606 10.2976 3.70981C10.6013 3.94419 10.8202 4.24044 11.2234 4.31356C11.6134 4.38434 12.0263 4.157 12.1229 3.75762C12.1815 3.51481 12.1229 3.25841 12.0666 3.00762C13.8198 3.01771 15.5313 3.54274 16.9885 4.51747C16.8948 4.48184 16.7827 4.48606 16.6445 4.55028C16.3599 4.68247 15.9568 5.01903 15.9235 5.35278C15.8855 5.73153 16.4443 5.78497 16.7096 5.78497C17.108 5.78497 17.5116 5.60684 17.3832 5.14653C17.3274 4.94684 17.2515 4.73919 17.1291 4.61356C17.4232 4.81764 17.705 5.03896 17.9729 5.27638C17.9687 5.28059 17.9645 5.28434 17.9602 5.28903C17.6902 5.57028 17.3766 5.79294 17.192 6.13513C17.0616 6.37606 16.9149 6.49044 16.651 6.55278C16.5057 6.587 16.3398 6.59966 16.2179 6.69716C15.8785 6.96434 16.0716 7.60653 16.3932 7.79919C16.7996 8.04247 17.4024 7.92809 17.709 7.58075C17.9485 7.30888 18.0896 6.83684 18.5204 6.83731C18.71 6.83692 18.8922 6.91118 19.0276 7.04403C19.2057 7.22872 19.1705 7.40122 19.2085 7.63184C19.2755 8.04153 19.637 7.81934 19.8568 7.61263C20.017 7.89782 20.1616 8.19154 20.2899 8.49247C20.048 8.84075 19.8559 9.22044 19.2741 8.8145C18.9259 8.57122 18.7116 8.21825 18.2743 8.10856C17.8923 8.01481 17.5009 8.11231 17.1235 8.17747C16.6946 8.252 16.186 8.28481 15.8607 8.60966C15.5462 8.92278 15.3798 9.34185 15.0451 9.65638C14.3977 10.2658 14.1245 10.9309 14.5435 11.7925C14.9466 12.6208 15.7899 13.0703 16.6998 13.0112C17.5937 12.9517 18.5223 12.4333 18.4965 13.7322C18.4871 14.192 18.5832 14.5103 18.7243 14.9373C18.8551 15.3311 18.8462 15.7126 18.8762 16.119C18.9047 16.5949 18.9791 17.067 19.0984 17.5286C18.2582 18.6103 17.1819 19.4858 15.9516 20.088C14.7214 20.6902 13.3698 21.0034 12.0001 21.0034Z" fill="#666666"/>
</svg>
