<svg width="24" height="24" viewBox="0 0 24 24" fill="none" xmlns="http://www.w3.org/2000/svg">
<path d="M21.9375 2.99841H13.0312V1.49841H10.9687V2.99841H2.06249C1.91331 2.99841 1.77023 3.05768 1.66474 3.16317C1.55926 3.26865 1.49999 3.41173 1.49999 3.56091V16.6859C1.49999 16.8351 1.55926 16.9782 1.66474 17.0837C1.77023 17.1892 1.91331 17.2484 2.06249 17.2484H5.72765L4.21546 22.0512L5.9278 22.5017L7.58156 17.2484H10.9687V20.2484H13.0312V17.2484H16.3987L17.8519 22.4844L19.5783 22.0826L18.2367 17.2484H21.9375C22.0867 17.2484 22.2298 17.1892 22.3352 17.0837C22.4407 16.9782 22.5 16.8351 22.5 16.6859V3.56091C22.5 3.41173 22.4407 3.26865 22.3352 3.16317C22.2298 3.05768 22.0867 2.99841 21.9375 2.99841ZM20.7187 15.4672H3.28124V4.77966H20.7187V15.4672Z" fill="#666666"/>
<path d="M4.12516 5.6225H19.8752V14.6225H4.12516V5.6225Z" fill="#666666"/>
</svg>
