<svg width="24" height="24" viewBox="0 0 24 24" fill="none" xmlns="http://www.w3.org/2000/svg">
<path d="M19.6875 5.24841H4.31249C4.00183 5.24841 3.74999 5.50025 3.74999 5.81091V14.4359C3.74999 14.7466 4.00183 14.9984 4.31249 14.9984H19.6875C19.9982 14.9984 20.25 14.7466 20.25 14.4359V5.81091C20.25 5.50025 19.9982 5.24841 19.6875 5.24841Z" fill="#666666"/>
<path d="M20.2499 2.99841H12.7499V2.24841C12.7499 2.0495 12.6709 1.85874 12.5302 1.71808C12.3896 1.57743 12.1988 1.49841 11.9999 1.49841C11.801 1.49841 11.6102 1.57743 11.4696 1.71808C11.3289 1.85874 11.2499 2.0495 11.2499 2.24841V2.99841H3.74991C3.15336 2.99903 2.58143 3.23629 2.1596 3.65811C1.73778 4.07993 1.50053 4.65187 1.49991 5.24841V14.9984C1.50053 15.595 1.73778 16.1669 2.1596 16.5887C2.58143 17.0105 3.15336 17.2478 3.74991 17.2484H5.75569L4.52897 21.5422C4.4997 21.6375 4.48973 21.7377 4.49964 21.8369C4.50955 21.9361 4.53914 22.0324 4.58669 22.12C4.63424 22.2076 4.69879 22.2849 4.77656 22.3473C4.85433 22.4097 4.94377 22.456 5.03963 22.4834C5.1355 22.5108 5.23587 22.5189 5.33488 22.5071C5.43389 22.4952 5.52954 22.4638 5.61625 22.4145C5.70296 22.3653 5.77898 22.2993 5.83986 22.2203C5.90075 22.1414 5.94528 22.051 5.97085 21.9547L7.31569 17.2484H11.2499V19.4984C11.2499 19.6973 11.3289 19.8881 11.4696 20.0287C11.6102 20.1694 11.801 20.2484 11.9999 20.2484C12.1988 20.2484 12.3896 20.1694 12.5302 20.0287C12.6709 19.8881 12.7499 19.6973 12.7499 19.4984V17.2484H16.6841L18.029 21.9547C18.0545 22.051 18.0991 22.1414 18.16 22.2203C18.2208 22.2993 18.2969 22.3653 18.3836 22.4145C18.4703 22.4638 18.5659 22.4952 18.6649 22.5071C18.7639 22.5189 18.8643 22.5108 18.9602 22.4834C19.056 22.456 19.1455 22.4097 19.2233 22.3473C19.301 22.2849 19.3656 22.2076 19.4131 22.12C19.4607 22.0324 19.4903 21.9361 19.5002 21.8369C19.5101 21.7377 19.5001 21.6375 19.4708 21.5422L18.2441 17.2484H20.2499C20.8465 17.2478 21.4184 17.0105 21.8402 16.5887C22.262 16.1669 22.4993 15.595 22.4999 14.9984V5.24841C22.4993 4.65187 22.262 4.07993 21.8402 3.65811C21.4184 3.23629 20.8465 2.99903 20.2499 2.99841ZM20.9999 14.9984C20.9999 15.1973 20.9209 15.3881 20.7802 15.5287C20.6396 15.6694 20.4488 15.7484 20.2499 15.7484H3.74991C3.551 15.7484 3.36023 15.6694 3.21958 15.5287C3.07893 15.3881 2.99991 15.1973 2.99991 14.9984V5.24841C2.99991 5.0495 3.07893 4.85874 3.21958 4.71808C3.36023 4.57743 3.551 4.49841 3.74991 4.49841H20.2499C20.4488 4.49841 20.6396 4.57743 20.7802 4.71808C20.9209 4.85874 20.9999 5.0495 20.9999 5.24841V14.9984Z" fill="#666666"/>
</svg>
