<svg width="24" height="24" viewBox="0 0 24 24" fill="none" xmlns="http://www.w3.org/2000/svg">
<path d="M19.6121 17.861C19.2333 18.8773 18.6858 19.7407 17.9846 20.4275C17.3105 21.087 16.4799 21.597 15.5157 21.9434C14.4882 22.3118 13.3055 22.4993 12.0001 22.4993C10.6946 22.4993 9.51194 22.3118 8.48444 21.9434C7.52022 21.597 6.68959 21.087 6.01553 20.4275C5.31241 19.7407 4.76678 18.8773 4.38803 17.861C3.96475 16.7253 3.75006 15.3992 3.75006 13.9184C3.75006 12.499 4.06319 10.9854 4.681 9.41839C5.28087 7.91489 6.08772 6.50251 7.07819 5.22214C9.17725 2.50995 11.2969 1.49933 12.0001 1.49933C12.7032 1.49933 14.9377 2.54933 16.9219 5.22214C17.7812 6.38042 18.744 7.95683 19.3205 9.41933C19.9383 10.9854 20.2515 12.499 20.2515 13.9193C20.2501 15.3992 20.0354 16.7253 19.6121 17.861Z" fill="#666666"/>
</svg>
