<svg width="24" height="24" viewBox="0 0 24 24" fill="none" xmlns="http://www.w3.org/2000/svg">
<path d="M12.0001 14.2484C13.2427 14.2484 14.2501 13.2411 14.2501 11.9984C14.2501 10.7558 13.2427 9.74844 12.0001 9.74844C10.7574 9.74844 9.75008 10.7558 9.75008 11.9984C9.75008 13.2411 10.7574 14.2484 12.0001 14.2484Z" fill="#666666"/>
<path d="M19.5001 14.2484C20.7427 14.2484 21.7501 13.2411 21.7501 11.9984C21.7501 10.7558 20.7427 9.74844 19.5001 9.74844C18.2575 9.74844 17.2501 10.7558 17.2501 11.9984C17.2501 13.2411 18.2575 14.2484 19.5001 14.2484Z" fill="#666666"/>
<path d="M4.49995 14.2484C5.74259 14.2484 6.74995 13.2411 6.74995 11.9984C6.74995 10.7558 5.74259 9.74844 4.49995 9.74844C3.25731 9.74844 2.24995 10.7558 2.24995 11.9984C2.24995 13.2411 3.25731 14.2484 4.49995 14.2484Z" fill="#666666"/>
</svg>
