<svg width="24" height="24" viewBox="0 0 24 24" fill="none" xmlns="http://www.w3.org/2000/svg">
<path d="M12 13.4966C12.8284 13.4966 13.5 12.8251 13.5 11.9966C13.5 11.1682 12.8284 10.4966 12 10.4966C11.1716 10.4966 10.5 11.1682 10.5 11.9966C10.5 12.8251 11.1716 13.4966 12 13.4966Z" stroke="#666666" stroke-width="1.5" stroke-miterlimit="10"/>
<path d="M12 20.9966C12.8284 20.9966 13.5 20.3251 13.5 19.4966C13.5 18.6682 12.8284 17.9966 12 17.9966C11.1716 17.9966 10.5 18.6682 10.5 19.4966C10.5 20.3251 11.1716 20.9966 12 20.9966Z" stroke="#666666" stroke-width="1.5" stroke-miterlimit="10"/>
<path d="M12 5.99664C12.8284 5.99664 13.5 5.32507 13.5 4.49664C13.5 3.66822 12.8284 2.99664 12 2.99664C11.1716 2.99664 10.5 3.66822 10.5 4.49664C10.5 5.32507 11.1716 5.99664 12 5.99664Z" stroke="#666666" stroke-width="1.5" stroke-miterlimit="10"/>
</svg>
