<svg width="24" height="24" viewBox="0 0 24 24" fill="none" xmlns="http://www.w3.org/2000/svg">
<path d="M21.75 11.9939C21.75 6.6094 17.3845 2.24393 12 2.24393C6.61546 2.24393 2.24999 6.6094 2.24999 11.9939C2.24999 17.3785 6.61546 21.7439 12 21.7439C17.3845 21.7439 21.75 17.3785 21.75 11.9939ZM10.7812 7.77518C10.7812 7.53413 10.8527 7.2985 10.9866 7.09808C11.1206 6.89765 11.3109 6.74144 11.5336 6.6492C11.7563 6.55695 12.0013 6.53282 12.2378 6.57985C12.4742 6.62687 12.6913 6.74295 12.8618 6.91339C13.0322 7.08384 13.1483 7.301 13.1953 7.53741C13.2423 7.77383 13.2182 8.01888 13.126 8.24157C13.0337 8.46427 12.8775 8.65461 12.6771 8.78853C12.4767 8.92245 12.241 8.99393 12 8.99393C11.6768 8.99393 11.3668 8.86552 11.1382 8.63696C10.9096 8.4084 10.7812 8.09841 10.7812 7.77518ZM10.7812 11.9939C10.7812 11.7529 10.8527 11.5172 10.9866 11.3168C11.1206 11.1164 11.3109 10.9602 11.5336 10.8679C11.7563 10.7757 12.0013 10.7516 12.2378 10.7986C12.4742 10.8456 12.6913 10.9617 12.8618 11.1321C13.0322 11.3026 13.1483 11.5197 13.1953 11.7562C13.2423 11.9926 13.2182 12.2376 13.126 12.4603C13.0337 12.683 12.8775 12.8734 12.6771 13.0073C12.4767 13.1412 12.241 13.2127 12 13.2127C11.6768 13.2127 11.3668 13.0843 11.1382 12.8557C10.9096 12.6272 10.7812 12.3172 10.7812 11.9939ZM10.7812 16.2127C10.7812 15.9716 10.8527 15.736 10.9866 15.5356C11.1206 15.3352 11.3109 15.1789 11.5336 15.0867C11.7563 14.9945 12.0013 14.9703 12.2378 15.0173C12.4742 15.0644 12.6913 15.1804 12.8618 15.3509C13.0322 15.5213 13.1483 15.7385 13.1953 15.9749C13.2423 16.2113 13.2182 16.4564 13.126 16.6791C13.0337 16.9018 12.8775 17.0921 12.6771 17.226C12.4767 17.36 12.241 17.4314 12 17.4314C11.6768 17.4314 11.3668 17.303 11.1382 17.0745C10.9096 16.8459 10.7812 16.5359 10.7812 16.2127Z" fill="#666666"/>
</svg>
