<svg width="24" height="24" viewBox="0 0 24 24" fill="none" xmlns="http://www.w3.org/2000/svg">
<path d="M12.0001 13.2172C12.6732 13.2172 13.2188 12.6715 13.2188 11.9984C13.2188 11.3253 12.6732 10.7797 12.0001 10.7797C11.327 10.7797 10.7813 11.3253 10.7813 11.9984C10.7813 12.6715 11.327 13.2172 12.0001 13.2172Z" fill="#666666"/>
<path d="M16.2188 13.2172C16.8919 13.2172 17.4376 12.6715 17.4376 11.9984C17.4376 11.3253 16.8919 10.7797 16.2188 10.7797C15.5457 10.7797 15.0001 11.3253 15.0001 11.9984C15.0001 12.6715 15.5457 13.2172 16.2188 13.2172Z" fill="#666666"/>
<path d="M7.7812 13.2172C8.4543 13.2172 8.99995 12.6715 8.99995 11.9984C8.99995 11.3253 8.4543 10.7797 7.7812 10.7797C7.1081 10.7797 6.56245 11.3253 6.56245 11.9984C6.56245 12.6715 7.1081 13.2172 7.7812 13.2172Z" fill="#666666"/>
<path d="M21.0001 12.0002C21.0001 7.03149 16.9688 3.00024 12.0001 3.00024C7.03131 3.00024 3.00006 7.03149 3.00006 12.0002C3.00006 16.969 7.03131 21.0002 12.0001 21.0002C16.9688 21.0002 21.0001 16.969 21.0001 12.0002Z" stroke="#666666" stroke-width="1.5" stroke-miterlimit="10"/>
</svg>
