<svg width="24" height="24" viewBox="0 0 24 24" fill="none" xmlns="http://www.w3.org/2000/svg">
<path d="M12 13.2136C12.6731 13.2136 13.2187 12.6679 13.2187 11.9948C13.2187 11.3217 12.6731 10.7761 12 10.7761C11.3269 10.7761 10.7812 11.3217 10.7812 11.9948C10.7812 12.6679 11.3269 13.2136 12 13.2136Z" fill="#666666"/>
<path d="M12 17.4368C12.6731 17.4368 13.2187 16.8912 13.2187 16.2181C13.2187 15.545 12.6731 14.9993 12 14.9993C11.3269 14.9993 10.7812 15.545 10.7812 16.2181C10.7812 16.8912 11.3269 17.4368 12 17.4368Z" fill="#666666"/>
<path d="M12 8.99933C12.6731 8.99933 13.2187 8.45368 13.2187 7.78058C13.2187 7.10748 12.6731 6.56183 12 6.56183C11.3269 6.56183 10.7812 7.10748 10.7812 7.78058C10.7812 8.45368 11.3269 8.99933 12 8.99933Z" fill="#666666"/>
<path d="M21 11.9966C21 7.02789 16.9687 2.99664 12 2.99664C7.0312 2.99664 2.99995 7.02789 2.99995 11.9966C2.99995 16.9654 7.0312 20.9966 12 20.9966C16.9687 20.9966 21 16.9654 21 11.9966Z" stroke="#666666" stroke-width="1.5" stroke-miterlimit="10"/>
</svg>
