<svg width="24" height="24" viewBox="0 0 24 24" fill="none" xmlns="http://www.w3.org/2000/svg">
<path d="M12 14.2484C13.2426 14.2484 14.25 13.2411 14.25 11.9984C14.25 10.7558 13.2426 9.74844 12 9.74844C10.7574 9.74844 9.75001 10.7558 9.75001 11.9984C9.75001 13.2411 10.7574 14.2484 12 14.2484Z" fill="#666666"/>
<path d="M19.5 14.2484C20.7426 14.2484 21.75 13.2411 21.75 11.9984C21.75 10.7558 20.7426 9.74844 19.5 9.74844C18.2574 9.74844 17.25 10.7558 17.25 11.9984C17.25 13.2411 18.2574 14.2484 19.5 14.2484Z" fill="#666666"/>
<path d="M4.50001 14.2484C5.74265 14.2484 6.75001 13.2411 6.75001 11.9984C6.75001 10.7558 5.74265 9.74844 4.50001 9.74844C3.25737 9.74844 2.25001 10.7558 2.25001 11.9984C2.25001 13.2411 3.25737 14.2484 4.50001 14.2484Z" fill="#666666"/>
</svg>
