<svg width="24" height="24" viewBox="0 0 24 24" fill="none" xmlns="http://www.w3.org/2000/svg">
<path d="M12 2.24756C6.61542 2.24756 2.24995 6.61303 2.24995 11.9976C2.24995 17.3821 6.61542 21.7476 12 21.7476C17.3845 21.7476 21.75 17.3821 21.75 11.9976C21.75 6.61303 17.3845 2.24756 12 2.24756ZM7.7812 13.2163C7.54016 13.2163 7.30453 13.1448 7.1041 13.0109C6.90368 12.877 6.74747 12.6867 6.65523 12.464C6.56298 12.2413 6.53885 11.9962 6.58587 11.7598C6.6329 11.5234 6.74897 11.3062 6.91942 11.1358C7.08986 10.9653 7.30702 10.8493 7.54344 10.8022C7.77985 10.7552 8.0249 10.7793 8.2476 10.8716C8.4703 10.9638 8.66064 11.12 8.79456 11.3205C8.92848 11.5209 8.99995 11.7565 8.99995 11.9976C8.99995 12.3208 8.87155 12.6308 8.64299 12.8593C8.41443 13.0879 8.10444 13.2163 7.7812 13.2163ZM12 13.2163C11.7589 13.2163 11.5233 13.1448 11.3229 13.0109C11.1224 12.877 10.9662 12.6867 10.874 12.464C10.7817 12.2413 10.7576 11.9962 10.8046 11.7598C10.8516 11.5234 10.9677 11.3062 11.1382 11.1358C11.3086 10.9653 11.5258 10.8493 11.7622 10.8022C11.9986 10.7552 12.2437 10.7793 12.4664 10.8716C12.689 10.9638 12.8794 11.12 13.0133 11.3205C13.1472 11.5209 13.2187 11.7565 13.2187 11.9976C13.2187 12.3208 13.0903 12.6308 12.8617 12.8593C12.6332 13.0879 12.3232 13.2163 12 13.2163ZM16.2187 13.2163C15.9777 13.2163 15.742 13.1448 15.5416 13.0109C15.3412 12.877 15.185 12.6867 15.0927 12.464C15.0005 12.2413 14.9763 11.9962 15.0234 11.7598C15.0704 11.5234 15.1865 11.3062 15.3569 11.1358C15.5274 10.9653 15.7445 10.8493 15.9809 10.8022C16.2174 10.7552 16.4624 10.7793 16.6851 10.8716C16.9078 10.9638 17.0981 11.12 17.2321 11.3205C17.366 11.5209 17.4375 11.7565 17.4375 11.9976C17.4375 12.3208 17.3091 12.6308 17.0805 12.8593C16.8519 13.0879 16.5419 13.2163 16.2187 13.2163Z" fill="#666666"/>
</svg>
