<svg width="24" height="24" viewBox="0 0 24 24" fill="none" xmlns="http://www.w3.org/2000/svg">
<path d="M12.0001 13.4957C12.8285 13.4957 13.5001 12.8242 13.5001 11.9957C13.5001 11.1673 12.8285 10.4957 12.0001 10.4957C11.1717 10.4957 10.5001 11.1673 10.5001 11.9957C10.5001 12.8242 11.1717 13.4957 12.0001 13.4957Z" stroke="#666666" stroke-width="1.5" stroke-miterlimit="10"/>
<path d="M19.5 13.4957C20.3284 13.4957 21 12.8242 21 11.9957C21 11.1673 20.3284 10.4957 19.5 10.4957C18.6715 10.4957 18 11.1673 18 11.9957C18 12.8242 18.6715 13.4957 19.5 13.4957Z" stroke="#666666" stroke-width="1.5" stroke-miterlimit="10"/>
<path d="M4.50011 13.4957C5.32853 13.4957 6.00011 12.8242 6.00011 11.9957C6.00011 11.1673 5.32853 10.4957 4.50011 10.4957C3.67168 10.4957 3.00011 11.1673 3.00011 11.9957C3.00011 12.8242 3.67168 13.4957 4.50011 13.4957Z" stroke="#666666" stroke-width="1.5" stroke-miterlimit="10"/>
</svg>
