<svg width="24" height="24" viewBox="0 0 24 24" fill="none" xmlns="http://www.w3.org/2000/svg">
<path d="M12.0001 14.2484C13.2427 14.2484 14.2501 13.2411 14.2501 11.9984C14.2501 10.7558 13.2427 9.74844 12.0001 9.74844C10.7575 9.74844 9.7501 10.7558 9.7501 11.9984C9.7501 13.2411 10.7575 14.2484 12.0001 14.2484Z" fill="#666666"/>
<path d="M12.0001 21.7484C13.2427 21.7484 14.2501 20.7411 14.2501 19.4984C14.2501 18.2558 13.2427 17.2484 12.0001 17.2484C10.7575 17.2484 9.7501 18.2558 9.7501 19.4984C9.7501 20.7411 10.7575 21.7484 12.0001 21.7484Z" fill="#666666"/>
<path d="M12.0001 6.74393C13.2427 6.74393 14.2501 5.73657 14.2501 4.49393C14.2501 3.25129 13.2427 2.24393 12.0001 2.24393C10.7575 2.24393 9.7501 3.25129 9.7501 4.49393C9.7501 5.73657 10.7575 6.74393 12.0001 6.74393Z" fill="#666666"/>
</svg>
