<svg width="24" height="24" viewBox="0 0 24 24" fill="none" xmlns="http://www.w3.org/2000/svg">
<path d="M12 14.2484C13.2427 14.2484 14.25 13.2411 14.25 11.9984C14.25 10.7558 13.2427 9.74844 12 9.74844C10.7574 9.74844 9.75004 10.7558 9.75004 11.9984C9.75004 13.2411 10.7574 14.2484 12 14.2484Z" fill="#666666"/>
<path d="M12 21.7484C13.2427 21.7484 14.25 20.7411 14.25 19.4984C14.25 18.2558 13.2427 17.2484 12 17.2484C10.7574 17.2484 9.75004 18.2558 9.75004 19.4984C9.75004 20.7411 10.7574 21.7484 12 21.7484Z" fill="#666666"/>
<path d="M12 6.74393C13.2427 6.74393 14.25 5.73657 14.25 4.49393C14.25 3.25129 13.2427 2.24393 12 2.24393C10.7574 2.24393 9.75004 3.25129 9.75004 4.49393C9.75004 5.73657 10.7574 6.74393 12 6.74393Z" fill="#666666"/>
</svg>
