<svg width="24" height="24" viewBox="0 0 24 24" fill="none" xmlns="http://www.w3.org/2000/svg">
<path d="M7.49992 6.37073V11.2457H14.6891L12.2198 8.77589C12.085 8.63409 12.0111 8.44528 12.0136 8.2497C12.0161 8.05413 12.0949 7.86728 12.2332 7.72898C12.3715 7.59068 12.5583 7.51187 12.7539 7.50937C12.9495 7.50686 13.1383 7.58086 13.2801 7.71557L17.0301 11.4656C17.1706 11.6062 17.2496 11.7969 17.2496 11.9957C17.2496 12.1946 17.1706 12.3852 17.0301 12.5259L13.2801 16.2759C13.1383 16.4106 12.9495 16.4846 12.7539 16.4821C12.5583 16.4796 12.3715 16.4008 12.2332 16.2625C12.0949 16.1242 12.0161 15.9373 12.0136 15.7418C12.0111 15.5462 12.085 15.3574 12.2198 15.2156L14.6891 12.7457H7.49992V17.6207C7.50066 18.3167 7.77746 18.9839 8.26958 19.4761C8.7617 19.9682 9.42895 20.245 10.1249 20.2457H19.8749C20.5709 20.245 21.2381 19.9682 21.7303 19.4761C22.2224 18.9839 22.4992 18.3167 22.4999 17.6207V6.37073C22.4992 5.67476 22.2224 5.00752 21.7303 4.51539C21.2381 4.02327 20.5709 3.74647 19.8749 3.74573H10.1249C9.42895 3.74647 8.7617 4.02327 8.26958 4.51539C7.77746 5.00752 7.50066 5.67476 7.49992 6.37073ZM2.24992 11.2457C2.051 11.2457 1.86024 11.3247 1.71959 11.4654C1.57893 11.6061 1.49992 11.7968 1.49992 11.9957C1.49992 12.1946 1.57893 12.3854 1.71959 12.5261C1.86024 12.6667 2.051 12.7457 2.24992 12.7457H7.49992V11.2457H2.24992Z" fill="#666666"/>
</svg>
