<svg width="24" height="24" viewBox="0 0 24 24" fill="none" xmlns="http://www.w3.org/2000/svg">
<path d="M7.49991 11.2493H14.4079L11.4079 8.24933L12.4687 7.18855L17.2794 11.9993L12.4687 16.8101L11.4079 15.7493L14.4079 12.7493H7.49991V19.6868C7.49991 19.836 7.55917 19.9791 7.66466 20.0846C7.77015 20.1901 7.91322 20.2493 8.06241 20.2493H21.9374C22.0866 20.2493 22.2297 20.1901 22.3352 20.0846C22.4406 19.9791 22.4999 19.836 22.4999 19.6868V4.31183C22.4999 4.16264 22.4406 4.01957 22.3352 3.91408C22.2297 3.80859 22.0866 3.74933 21.9374 3.74933H8.06241C7.91322 3.74933 7.77015 3.80859 7.66466 3.91408C7.55917 4.01957 7.49991 4.16264 7.49991 4.31183V11.2493ZM1.49991 11.2493H7.49991V12.7493H1.49991V11.2493Z" fill="#666666"/>
</svg>
