<svg width="24" height="24" viewBox="0 0 24 24" fill="none" xmlns="http://www.w3.org/2000/svg">
<path d="M8.24996 8.24753V6.37253C8.24996 5.87525 8.44751 5.39833 8.79914 5.0467C9.15077 4.69507 9.62768 4.49753 10.125 4.49753H19.875C20.3722 4.49753 20.8492 4.69507 21.2008 5.0467C21.5524 5.39833 21.75 5.87525 21.75 6.37253V17.6225C21.75 18.1198 21.5524 18.5967 21.2008 18.9484C20.8492 19.3 20.3722 19.4975 19.875 19.4975H10.125C9.62768 19.4975 9.15077 19.3 8.79914 18.9484C8.44751 18.5967 8.24996 18.1198 8.24996 17.6225V15.7475" stroke="#666666" stroke-width="1.5" stroke-linecap="round" stroke-linejoin="round"/>
<path d="M12.75 15.7475L16.5 11.9975L12.75 8.24753M2.25002 11.9975H15.75" stroke="#666666" stroke-width="1.5" stroke-linecap="round" stroke-linejoin="round"/>
</svg>
