<svg width="24" height="24" viewBox="0 0 24 24" fill="none" xmlns="http://www.w3.org/2000/svg">
<path d="M15.75 17.6207V12.7457H8.95309C8.75418 12.7457 8.56341 12.6667 8.42276 12.5261C8.28211 12.3854 8.20309 12.1946 8.20309 11.9957C8.20309 11.7968 8.28211 11.6061 8.42276 11.4654C8.56341 11.3247 8.75418 11.2457 8.95309 11.2457H15.75V6.37073C15.7492 5.67476 15.4724 5.00752 14.9803 4.51539C14.4882 4.02327 13.8209 3.74647 13.125 3.74573H4.12496C3.429 3.74647 2.76175 4.02327 2.26963 4.51539C1.77751 5.00752 1.50071 5.67476 1.49996 6.37073V17.6207C1.50071 18.3167 1.77751 18.9839 2.26963 19.4761C2.76175 19.9682 3.429 20.245 4.12496 20.2457H13.125C13.8209 20.245 14.4882 19.9682 14.9803 19.4761C15.4724 18.9839 15.7492 18.3167 15.75 17.6207ZM19.9392 12.7457L17.4698 15.2156C17.3351 15.3574 17.2611 15.5462 17.2636 15.7418C17.2661 15.9373 17.3449 16.1242 17.4832 16.2625C17.6215 16.4008 17.8084 16.4796 18.0039 16.4821C18.1995 16.4846 18.3883 16.4106 18.5301 16.2759L22.2801 12.5259C22.4207 12.3852 22.4996 12.1946 22.4996 11.9957C22.4996 11.7969 22.4207 11.6062 22.2801 11.4656L18.5301 7.71557C18.3883 7.58086 18.1995 7.50686 18.0039 7.50937C17.8084 7.51187 17.6215 7.59068 17.4832 7.72898C17.3449 7.86728 17.2661 8.05413 17.2636 8.2497C17.2611 8.44528 17.3351 8.63409 17.4698 8.77589L19.9392 11.2457H15.75V12.7457H19.9392Z" fill="#666666"/>
</svg>
