<svg width="24" height="24" viewBox="0 0 24 24" fill="none" xmlns="http://www.w3.org/2000/svg">
<path d="M18 8.24844L21.75 11.9984M21.75 11.9984L18 15.7484M21.75 11.9984H8.95313M15 8.24844V6.37344C15 5.87616 14.8025 5.39925 14.4508 5.04762C14.0992 4.69599 13.6223 4.49844 13.125 4.49844H4.12501C3.62773 4.49844 3.15081 4.69599 2.79918 5.04762C2.44755 5.39925 2.25001 5.87616 2.25001 6.37344V17.6234C2.25001 18.1207 2.44755 18.5976 2.79918 18.9493C3.15081 19.3009 3.62773 19.4984 4.12501 19.4984H13.125C13.6223 19.4984 14.0992 19.3009 14.4508 18.9493C14.8025 18.5976 15 18.1207 15 17.6234V15.7484V8.24844Z" stroke="#666666" stroke-width="1.5" stroke-linecap="round" stroke-linejoin="round"/>
</svg>
