<svg width="24" height="24" viewBox="0 0 24 24" fill="none" xmlns="http://www.w3.org/2000/svg">
<path d="M15.7355 12.7457H8.18866V11.2457H15.7355V4.30823C15.7355 4.15904 15.6763 4.01597 15.5708 3.91048C15.4653 3.80499 15.3222 3.74573 15.173 3.74573H2.04803C1.89885 3.74573 1.75578 3.80499 1.65029 3.91048C1.5448 4.01597 1.48553 4.15904 1.48553 4.30823V19.6832C1.48553 19.8324 1.5448 19.9755 1.65029 20.081C1.75578 20.1865 1.89885 20.2457 2.04803 20.2457H15.173C15.3222 20.2457 15.4653 20.1865 15.5708 20.081C15.6763 19.9755 15.7355 19.8324 15.7355 19.6832V12.7457ZM19.6435 12.7457L16.6435 15.7457L17.7043 16.8065L22.5146 11.9957L17.7043 7.18495L16.6435 8.24573L19.6435 11.2457H15.7355V12.7457H19.6435Z" fill="#666666"/>
</svg>
