<svg width="24" height="24" viewBox="0 0 24 24" fill="none" xmlns="http://www.w3.org/2000/svg">
<path d="M16.1783 22.4971H12.8437C12.6199 22.4971 12.4053 22.4082 12.247 22.25C12.0888 22.0918 11.9999 21.8771 11.9999 21.6534V20.3545C12.0005 20.155 11.9605 19.9574 11.8823 19.7739C11.804 19.5904 11.6892 19.4248 11.5448 19.2871C11.1801 18.9313 10.6504 18.734 10.0968 18.7476C9.09553 18.771 8.24991 19.6523 8.24991 20.6723V21.6534C8.24991 21.8771 8.16101 22.0918 8.00278 22.25C7.84455 22.4082 7.62994 22.4971 7.40616 22.4971H4.1071C3.76472 22.4971 3.42569 22.4297 3.10937 22.2987C2.79305 22.1676 2.50564 21.9756 2.26354 21.7335C1.77459 21.2445 1.49991 20.5814 1.49991 19.8899V16.5909C1.49991 16.3671 1.5888 16.1525 1.74704 15.9942C1.90527 15.836 2.11988 15.7471 2.34366 15.7471H3.64256C4.07194 15.7471 4.4896 15.5634 4.81866 15.2315C5.00173 15.047 5.1465 14.828 5.24465 14.5873C5.34279 14.3467 5.39237 14.0889 5.39053 13.829C5.37647 12.8357 4.55897 11.9971 3.60507 11.9971H2.34366C2.11988 11.9971 1.90527 11.9082 1.74704 11.75C1.5888 11.5918 1.49991 11.3771 1.49991 11.1534V7.8543C1.49991 7.51192 1.56735 7.17289 1.69837 6.85658C1.82939 6.54026 2.02144 6.25284 2.26354 6.01074C2.75248 5.5218 3.41563 5.24712 4.1071 5.24712H6.69647C6.79593 5.24712 6.89131 5.20761 6.96164 5.13728C7.03196 5.06696 7.07147 4.97157 7.07147 4.87212V4.56837C7.07147 4.16045 7.15272 3.75661 7.31048 3.38043C7.46823 3.00425 7.69934 2.66326 7.9903 2.37735C8.28126 2.09145 8.62626 1.86637 9.00515 1.71524C9.38404 1.56411 9.78924 1.48996 10.1971 1.49712C11.8607 1.52618 13.214 2.92118 13.214 4.60634V4.87212C13.214 4.97157 13.2535 5.06696 13.3238 5.13728C13.3941 5.20761 13.4895 5.24712 13.589 5.24712H16.1783C16.5161 5.24712 16.8504 5.31363 17.1624 5.44287C17.4744 5.5721 17.7579 5.76152 17.9967 6.00031C18.2355 6.2391 18.4249 6.52259 18.5542 6.83458C18.6834 7.14658 18.7499 7.48098 18.7499 7.81868V10.4081C18.7499 10.5075 18.7894 10.6029 18.8597 10.6732C18.9301 10.7435 19.0255 10.7831 19.1249 10.7831H19.3902C21.1049 10.7831 22.4999 12.1424 22.4999 13.8131C22.4999 15.5291 21.1223 16.9256 19.4287 16.9256H19.1249C19.0255 16.9256 18.9301 16.9651 18.8597 17.0354C18.7894 17.1057 18.7499 17.2011 18.7499 17.3006V19.9256C18.7499 20.2633 18.6834 20.5977 18.5542 20.9096C18.4249 21.2216 18.2355 21.5051 17.9967 21.7439C17.7579 21.9827 17.4744 22.1721 17.1624 22.3014C16.8504 22.4306 16.5161 22.4971 16.1783 22.4971Z" fill="#666666"/>
</svg>
