<svg width="24" height="24" viewBox="0 0 24 24" fill="none" xmlns="http://www.w3.org/2000/svg">
<path d="M19.3903 11.5352H18.0937C18.0688 11.5352 18.045 11.5253 18.0274 11.5077C18.0098 11.4901 18 11.4663 18 11.4414V7.82081C18 7.3377 17.808 6.87438 17.4664 6.53277C17.1248 6.19116 16.6615 5.99925 16.1784 5.99925H12.5578C12.5329 5.99925 12.5091 5.98937 12.4915 5.97179C12.4739 5.95421 12.464 5.93036 12.464 5.9055V4.60894C12.464 3.33675 11.4562 2.27175 10.184 2.24972C9.87579 2.2443 9.56957 2.30033 9.28322 2.41452C8.99688 2.52871 8.73614 2.69878 8.51622 2.91482C8.2963 3.13085 8.12161 3.38852 8.00234 3.67278C7.88306 3.95705 7.82159 4.26222 7.82152 4.5705V5.9055C7.82152 5.93036 7.81164 5.95421 7.79406 5.97179C7.77648 5.98937 7.75263 5.99925 7.72777 5.99925H4.10714C3.61504 6.00073 3.14352 6.19688 2.79555 6.54485C2.44758 6.89282 2.25144 7.36434 2.24995 7.85644V11.1555C2.24995 11.1804 2.25983 11.2042 2.27741 11.2218C2.29499 11.2394 2.31884 11.2493 2.3437 11.2493H3.60511C4.98183 11.2493 6.12136 12.4436 6.14058 13.8203C6.16027 15.2205 5.03855 16.4993 3.64261 16.4993H2.3437C2.31884 16.4993 2.29499 16.5091 2.27741 16.5267C2.25983 16.5443 2.24995 16.5681 2.24995 16.593V19.8921C2.25144 20.3842 2.44758 20.8557 2.79555 21.2037C3.14352 21.5516 3.61504 21.7478 4.10714 21.7493H7.4062C7.43107 21.7493 7.45491 21.7394 7.4725 21.7218C7.49008 21.7042 7.49995 21.6804 7.49995 21.6555V20.6744C7.49995 19.255 8.66011 18.033 10.0781 17.9997C11.489 17.9669 12.75 18.9518 12.75 20.3566V21.6555C12.75 21.6804 12.7598 21.7042 12.7774 21.7218C12.795 21.7394 12.8188 21.7493 12.8437 21.7493H16.1784C16.6615 21.7493 17.1248 21.5573 17.4664 21.2157C17.808 20.8741 18 20.4108 18 19.9277V16.2714C18 16.2466 18.0098 16.2227 18.0274 16.2051C18.045 16.1876 18.0688 16.1777 18.0937 16.1777H19.4287C20.7239 16.1777 21.75 15.115 21.75 13.8152C21.75 12.5153 20.6625 11.5352 19.3903 11.5352V11.5352Z" stroke="#666666" stroke-width="1.5" stroke-linecap="round" stroke-linejoin="round"/>
</svg>
