<svg width="24" height="24" viewBox="0 0 24 24" fill="none" xmlns="http://www.w3.org/2000/svg">
<path d="M16.1785 22.4971H12V20.3545C12.0007 20.1563 11.9612 19.9601 11.8839 19.7776C11.8067 19.5951 11.6932 19.4302 11.5505 19.2927C11.191 18.9384 10.6678 18.7391 10.1175 18.7471C9.62798 18.7517 9.15575 18.9288 8.78392 19.2473C8.54017 19.4629 8.25001 19.836 8.25001 20.392V22.4971H4.1072C3.41596 22.4964 2.75324 22.2214 2.26446 21.7327C1.77568 21.2439 1.50076 20.5812 1.50001 19.8899V15.7471H3.64267C4.07204 15.7471 4.4897 15.5634 4.81876 15.2315C5.00183 15.047 5.14661 14.828 5.24475 14.5873C5.3429 14.3467 5.39248 14.0889 5.39064 13.829C5.37658 12.8357 4.55908 11.9971 3.60517 11.9971H1.50001V7.8093C1.49866 7.468 1.56664 7.12997 1.69983 6.81573C1.83303 6.50148 2.02865 6.21756 2.27486 5.98118C2.76654 5.50691 3.42406 5.2435 4.1072 5.24712H7.07158V4.56837C7.07158 4.16045 7.15282 3.75661 7.31058 3.38043C7.46834 3.00425 7.69944 2.66326 7.9904 2.37735C8.28137 2.09145 8.62636 1.86637 9.00525 1.71524C9.38415 1.56411 9.78934 1.48996 10.1972 1.49712C11.8608 1.52618 13.2141 2.92118 13.2141 4.60634V5.24712H16.1785C16.5172 5.24348 16.8532 5.30751 17.1668 5.43545C17.4805 5.5634 17.7654 5.75268 18.0049 5.9922C18.2445 6.23172 18.4337 6.51666 18.5617 6.8303C18.6896 7.14394 18.7537 7.47997 18.75 7.81868V10.7831H19.3903C21.105 10.7831 22.5 12.1424 22.5 13.8131C22.5 15.5291 21.1224 16.9256 19.4288 16.9256H18.75V19.8899C18.75 21.3276 17.5964 22.4971 16.1785 22.4971Z" fill="#666666"/>
</svg>
