<svg width="24" height="24" viewBox="0 0 24 24" fill="none" xmlns="http://www.w3.org/2000/svg">
<path d="M20.25 20.9984C20.1515 20.9986 20.0539 20.9792 19.9629 20.9415C19.8719 20.9037 19.7893 20.8484 19.7198 20.7785L3.21982 4.27854C3.0851 4.13675 3.01111 3.94793 3.01361 3.75236C3.01612 3.55679 3.09492 3.36993 3.23322 3.23163C3.37152 3.09333 3.55838 3.01453 3.75395 3.01202C3.94952 3.00952 4.13833 3.08351 4.28013 3.21823L20.7801 19.7182C20.885 19.8231 20.9563 19.9567 20.9852 20.1022C21.0141 20.2476 20.9993 20.3984 20.9426 20.5354C20.8858 20.6724 20.7897 20.7895 20.6665 20.8719C20.5432 20.9543 20.3983 20.9983 20.25 20.9984ZM11.984 17.9984C10.0392 17.9984 8.16372 17.4228 6.40966 16.2875C4.81263 15.2562 3.37497 13.7792 2.25185 12.0218V12.0181C3.18654 10.6789 4.21029 9.54636 5.30997 8.63323C5.31992 8.62491 5.32804 8.61462 5.33381 8.60301C5.33957 8.5914 5.34287 8.57872 5.34349 8.56576C5.3441 8.55281 5.34203 8.53987 5.33739 8.52776C5.33275 8.51566 5.32565 8.50464 5.31654 8.49542L4.38279 7.56307C4.36619 7.54634 4.34391 7.53648 4.32037 7.53543C4.29683 7.53439 4.27376 7.54225 4.25576 7.55745C3.08763 8.54182 2.00341 9.74932 1.01763 11.1631C0.848029 11.4065 0.754623 11.6948 0.749281 11.9915C0.74394 12.2881 0.826903 12.5796 0.98763 12.829C2.2256 14.7664 3.81888 16.3981 5.59451 17.547C7.59372 18.8421 9.74529 19.4984 11.984 19.4984C13.1925 19.4946 14.3923 19.2955 15.5372 18.9087C15.5523 18.9036 15.5658 18.8947 15.5765 18.8829C15.5872 18.8711 15.5947 18.8567 15.5984 18.8412C15.602 18.8256 15.6016 18.8094 15.5972 18.7941C15.5928 18.7788 15.5845 18.7648 15.5733 18.7535L14.5617 17.742C14.5384 17.7193 14.5096 17.703 14.4781 17.6948C14.4467 17.6866 14.4136 17.6867 14.3822 17.6951C13.5988 17.8968 12.793 17.9987 11.984 17.9984ZM23.0081 11.1828C21.7678 9.26464 20.1586 7.63526 18.3548 6.47042C16.3594 5.18042 14.1562 4.49839 11.984 4.49839C10.7884 4.50051 9.6017 4.70381 8.47357 5.09979C8.45854 5.10502 8.44509 5.11399 8.43448 5.12586C8.42387 5.13773 8.41646 5.1521 8.41295 5.16762C8.40943 5.18314 8.40992 5.1993 8.41438 5.21458C8.41883 5.22986 8.4271 5.24375 8.43841 5.25495L9.44857 6.2651C9.47208 6.28822 9.50128 6.30473 9.53321 6.31296C9.56515 6.32119 9.59868 6.32085 9.63044 6.31198C10.3978 6.10441 11.1891 5.99897 11.984 5.99839C13.8914 5.99839 15.7612 6.58104 17.5411 7.73276C19.1681 8.78276 20.6226 10.2584 21.7486 11.9984C21.7494 11.9995 21.7499 12.0008 21.7499 12.0021C21.7499 12.0035 21.7494 12.0048 21.7486 12.0059C20.9313 13.2926 19.917 14.443 18.7429 15.4151C18.7329 15.4234 18.7247 15.4337 18.7188 15.4453C18.713 15.457 18.7096 15.4697 18.7089 15.4827C18.7083 15.4957 18.7103 15.5087 18.715 15.5209C18.7196 15.5331 18.7268 15.5441 18.7359 15.5534L19.6687 16.4857C19.6852 16.5024 19.7074 16.5123 19.7308 16.5134C19.7543 16.5145 19.7773 16.5068 19.7953 16.4918C21.0487 15.4364 22.1337 14.1959 23.0128 12.8131C23.1682 12.5694 23.2503 12.2862 23.2495 11.9972C23.2487 11.7082 23.1649 11.4255 23.0081 11.1828Z" fill="#666666"/>
<path d="M12.0001 7.49664C11.663 7.49646 11.327 7.5342 10.9984 7.60914C10.9818 7.61259 10.9664 7.62047 10.954 7.63195C10.9415 7.64343 10.9324 7.65808 10.9275 7.67434C10.9227 7.6906 10.9224 7.70785 10.9266 7.72427C10.9309 7.74069 10.9395 7.75566 10.9515 7.76758L16.2292 13.0438C16.2411 13.0559 16.2561 13.0645 16.2725 13.0687C16.2889 13.0729 16.3062 13.0726 16.3224 13.0678C16.3387 13.063 16.3533 13.0539 16.3648 13.0414C16.3763 13.0289 16.3842 13.0136 16.3876 12.997C16.5379 12.3379 16.5377 11.6535 16.3872 10.9945C16.2367 10.3355 15.9396 9.71892 15.5181 9.19049C15.0966 8.66206 14.5614 8.23538 13.9524 7.94214C13.3433 7.6489 12.6761 7.49663 12.0001 7.49664ZM7.77104 10.9495C7.75912 10.9374 7.74415 10.9288 7.72773 10.9246C7.71131 10.9204 7.69405 10.9207 7.6778 10.9255C7.66154 10.9303 7.64689 10.9394 7.63541 10.9519C7.62393 10.9644 7.61605 10.9797 7.6126 10.9963C7.44261 11.739 7.46395 12.5127 7.67464 13.2448C7.88532 13.977 8.27845 14.6437 8.81717 15.1824C9.3559 15.7211 10.0226 16.1142 10.7547 16.3249C11.4869 16.5356 12.2606 16.557 13.0032 16.387C13.0198 16.3835 13.0352 16.3756 13.0477 16.3641C13.0601 16.3527 13.0693 16.338 13.0741 16.3218C13.0789 16.3055 13.0792 16.2882 13.075 16.2718C13.0707 16.2554 13.0622 16.2404 13.0501 16.2285L7.77104 10.9495Z" fill="#666666"/>
</svg>
