<svg width="24" height="24" viewBox="0 0 24 24" fill="none" xmlns="http://www.w3.org/2000/svg">
<g clip-path="url(#clip0_32_1502)">
<path d="M20.25 20.9984C20.1515 20.9986 20.054 20.9792 19.963 20.9415C19.872 20.9037 19.7894 20.8484 19.7199 20.7785L3.21988 4.27854C3.08517 4.13675 3.01118 3.94793 3.01368 3.75236C3.01618 3.55679 3.09499 3.36993 3.23329 3.23163C3.37159 3.09333 3.55845 3.01453 3.75402 3.01202C3.94959 3.00952 4.1384 3.08351 4.2802 3.21823L20.7802 19.7182C20.885 19.8231 20.9564 19.9567 20.9853 20.1022C21.0142 20.2476 20.9994 20.3984 20.9426 20.5354C20.8859 20.6724 20.7898 20.7895 20.6665 20.8719C20.5433 20.9543 20.3983 20.9983 20.25 20.9984ZM11.625 14.8039L9.19739 12.3762C9.18348 12.3624 9.16559 12.3533 9.14625 12.3502C9.12691 12.3471 9.10708 12.3501 9.08954 12.3589C9.07201 12.3676 9.05766 12.3816 9.0485 12.3989C9.03934 12.4163 9.03584 12.436 9.03848 12.4554C9.13649 13.0852 9.43222 13.6676 9.88293 14.1183C10.3336 14.569 10.916 14.8648 11.5458 14.9628C11.5652 14.9654 11.585 14.9619 11.6023 14.9527C11.6196 14.9436 11.6336 14.9292 11.6424 14.9117C11.6511 14.8942 11.6541 14.8743 11.651 14.855C11.6479 14.8356 11.6388 14.8178 11.625 14.8039ZM12.375 9.19292L14.8064 11.6234C14.8203 11.6374 14.8383 11.6466 14.8577 11.6499C14.8771 11.6531 14.8971 11.6501 14.9147 11.6413C14.9324 11.6325 14.9468 11.6184 14.956 11.601C14.9652 11.5836 14.9686 11.5637 14.9658 11.5442C14.8681 10.9135 14.5721 10.3303 14.1208 9.879C13.6695 9.42772 13.0863 9.13177 12.4557 9.03401C12.4361 9.031 12.4162 9.03423 12.3986 9.04326C12.381 9.05228 12.3667 9.06662 12.3578 9.08425C12.3488 9.10187 12.3457 9.12187 12.3488 9.14138C12.3519 9.1609 12.3611 9.17894 12.375 9.19292Z" fill="#666666"/>
<path d="M23.0156 12.8131C23.1708 12.5695 23.2529 12.2865 23.252 11.9977C23.2512 11.7089 23.1675 11.4264 23.011 11.1837C21.7706 9.26561 20.1614 7.63624 18.3577 6.47139C16.3594 5.18139 14.1563 4.49936 11.985 4.49936C10.8404 4.50093 9.70352 4.68756 8.61845 5.05202C8.58808 5.06212 8.5608 5.07982 8.53921 5.10345C8.51762 5.12707 8.50244 5.15583 8.49511 5.18699C8.48778 5.21814 8.48855 5.25065 8.49734 5.28143C8.50613 5.3122 8.52265 5.34021 8.54533 5.3628L10.7597 7.57717C10.7827 7.60022 10.8113 7.61688 10.8427 7.62551C10.8741 7.63414 10.9072 7.63444 10.9388 7.62639C11.6894 7.44348 12.4744 7.45688 13.2183 7.66531C13.9622 7.87374 14.6399 8.27018 15.1862 8.81646C15.7325 9.36274 16.1289 10.0405 16.3373 10.7844C16.5458 11.5283 16.5592 12.3133 16.3763 13.0639C16.3683 13.0954 16.3686 13.1284 16.3773 13.1597C16.3859 13.191 16.4025 13.2195 16.4255 13.2425L19.6106 16.43C19.6438 16.4632 19.6882 16.4828 19.735 16.4848C19.7819 16.4869 19.8278 16.4714 19.8638 16.4412C21.0898 15.3962 22.1523 14.1732 23.0156 12.8131ZM12 16.4994C11.3188 16.4994 10.6465 16.3448 10.0337 16.0472C9.42095 15.7495 8.88376 15.3167 8.46264 14.7812C8.04152 14.2458 7.74746 13.6217 7.60263 12.9561C7.45781 12.2904 7.46599 11.6006 7.62658 10.9386C7.63454 10.9071 7.63419 10.8741 7.62556 10.8428C7.61693 10.8115 7.60032 10.7829 7.57736 10.76L4.44423 7.62545C4.41101 7.59219 4.3665 7.57263 4.31954 7.57063C4.27257 7.56863 4.22656 7.58435 4.19064 7.61467C3.04736 8.59014 1.98751 9.77702 1.01861 11.164C0.849006 11.4075 0.7556 11.6958 0.750258 11.9925C0.744916 12.2891 0.82788 12.5806 0.988606 12.83C2.22658 14.7673 3.81939 16.399 5.59548 17.548C7.59658 18.8431 9.74626 19.4994 11.985 19.4994C13.1412 19.4963 14.2899 19.3136 15.39 18.958C15.4207 18.9482 15.4483 18.9307 15.4702 18.9071C15.4921 18.8836 15.5076 18.8548 15.5152 18.8235C15.5228 18.7923 15.5222 18.7596 15.5135 18.7286C15.5048 18.6976 15.4882 18.6694 15.4655 18.6467L13.2403 16.422C13.2174 16.3991 13.1888 16.3824 13.1575 16.3738C13.1262 16.3652 13.0932 16.3648 13.0617 16.3728C12.7141 16.457 12.3577 16.4995 12 16.4994Z" fill="#666666"/>
</g>
<defs>
<clipPath id="clip0_32_1502">
<rect width="24" height="24" fill="white"/>
</clipPath>
</defs>
</svg>
