<svg width="24" height="24" viewBox="0 0 24 24" fill="none" xmlns="http://www.w3.org/2000/svg">
<path d="M11.9841 5.24756C8.33063 5.24756 4.58298 7.36209 1.63266 11.5912C1.54845 11.7132 1.5023 11.8575 1.50005 12.0057C1.4978 12.154 1.53954 12.2996 1.62001 12.4241C3.88688 15.9726 7.58438 18.7476 11.9841 18.7476C16.3359 18.7476 20.1094 15.9641 22.3805 12.4077C22.4591 12.2856 22.5009 12.1435 22.5009 11.9983C22.5009 11.8531 22.4591 11.7109 22.3805 11.5888C20.1042 8.07318 16.3031 5.24756 11.9841 5.24756Z" stroke="#666666" stroke-width="1.5" stroke-linecap="round" stroke-linejoin="round"/>
<path d="M12.0001 15.7494C14.0711 15.7494 15.7501 14.0704 15.7501 11.9994C15.7501 9.92829 14.0711 8.24936 12.0001 8.24936C9.92901 8.24936 8.25008 9.92829 8.25008 11.9994C8.25008 14.0704 9.92901 15.7494 12.0001 15.7494Z" stroke="#666666" stroke-width="1.5" stroke-miterlimit="10"/>
</svg>
