<svg width="24" height="24" viewBox="0 0 24 24" fill="none" xmlns="http://www.w3.org/2000/svg">
<path d="M12 14.9976C13.6569 14.9976 15 13.6544 15 11.9976C15 10.3407 13.6569 8.99756 12 8.99756C10.3432 8.99756 9.00002 10.3407 9.00002 11.9976C9.00002 13.6544 10.3432 14.9976 12 14.9976Z" fill="#666666"/>
<path d="M18.5072 6.61717C16.4578 5.21186 14.2645 4.49936 11.9887 4.49936C9.94078 4.49936 7.94437 5.10873 6.05484 6.30311C4.14937 7.51014 2.2814 9.70249 0.749994 11.9994C1.98843 14.0619 3.68249 16.1825 5.44687 17.3984C7.47093 18.7925 9.67171 19.4994 11.9887 19.4994C14.2856 19.4994 16.4817 18.793 18.5184 17.3998C20.3114 16.1712 22.0177 14.0534 23.25 11.9994C22.0134 9.96358 20.3016 7.84811 18.5072 6.61717ZM12 16.4994C11.11 16.4994 10.24 16.2354 9.49993 15.741C8.75991 15.2465 8.18313 14.5437 7.84254 13.7214C7.50194 12.8992 7.41283 11.9944 7.58646 11.1215C7.7601 10.2485 8.18868 9.44672 8.81802 8.81738C9.44735 8.18804 10.2492 7.75946 11.1221 7.58583C11.995 7.41219 12.8998 7.50131 13.7221 7.8419C14.5443 8.1825 15.2471 8.75927 15.7416 9.49929C16.2361 10.2393 16.5 11.1093 16.5 11.9994C16.4986 13.1924 16.0241 14.3362 15.1805 15.1798C14.3369 16.0235 13.1931 16.498 12 16.4994Z" fill="#666666"/>
</svg>
