<svg width="24" height="24" viewBox="0 0 24 24" fill="none" xmlns="http://www.w3.org/2000/svg">
<g clip-path="url(#clip0_32_1499)">
<path d="M2.99989 4.0296L4.03105 2.99844L21 19.9674L19.9688 20.9985L2.99989 4.0296ZM12.1566 9.00238L14.9958 11.8416C14.9563 11.1014 14.6445 10.4019 14.1204 9.87777C13.5962 9.35362 12.8968 9.04183 12.1566 9.00238ZM11.8434 14.9939L9.00421 12.1547C9.04365 12.8949 9.35544 13.5944 9.87959 14.1186C10.4037 14.6427 11.1032 14.9545 11.8434 14.9939Z" fill="#666666"/>
<path d="M11.9999 16.4994C11.3077 16.4994 10.6247 16.3397 10.0042 16.0327C9.38371 15.7257 8.84241 15.2797 8.42242 14.7294C8.00244 14.179 7.71509 13.5392 7.58273 12.8597C7.45038 12.1802 7.47659 11.4793 7.65932 10.8115L4.42167 7.57342C3.09932 8.78467 1.83932 10.3653 0.749947 11.9994C1.98838 14.0619 3.68245 16.1825 5.44682 17.3984C7.47089 18.7925 9.67167 19.4994 11.9887 19.4994C13.2549 19.5002 14.5117 19.2814 15.7031 18.8525L13.1901 16.34C12.8023 16.4461 12.402 16.4997 11.9999 16.4994ZM11.9999 7.49936C12.6922 7.49933 13.3752 7.65902 13.9957 7.96601C14.6162 8.27301 15.1575 8.71902 15.5775 9.26936C15.9975 9.8197 16.2848 10.4595 16.4172 11.139C16.5495 11.8185 16.5233 12.5194 16.3406 13.1872L19.6528 16.4994C21.0192 15.2689 22.281 13.6137 23.25 11.9994C22.0134 9.96358 20.3015 7.84811 18.5071 6.61717C16.4578 5.21186 14.2645 4.49936 11.9887 4.49936C10.7364 4.50116 9.49463 4.72805 8.3226 5.1692L10.8121 7.65873C11.1992 7.5528 11.5987 7.4992 11.9999 7.49936Z" fill="#666666"/>
</g>
<defs>
<clipPath id="clip0_32_1499">
<rect width="24" height="24" fill="white"/>
</clipPath>
</defs>
</svg>
