<svg width="24" height="24" viewBox="0 0 24 24" fill="none" xmlns="http://www.w3.org/2000/svg">
<path d="M12.0001 14.9976C13.6569 14.9976 15.0001 13.6544 15.0001 11.9976C15.0001 10.3407 13.6569 8.99756 12.0001 8.99756C10.3432 8.99756 9.00009 10.3407 9.00009 11.9976C9.00009 13.6544 10.3432 14.9976 12.0001 14.9976Z" fill="#666666"/>
<path d="M23.0081 11.1837C21.7678 9.26561 20.1586 7.63624 18.3549 6.47139C16.3594 5.18139 14.1563 4.49936 11.9841 4.49936C9.99095 4.49936 8.0311 5.06889 6.15891 6.19202C4.24969 7.33717 2.52001 9.01014 1.01766 11.164C0.848061 11.4075 0.754655 11.6958 0.749314 11.9925C0.743972 12.2891 0.826936 12.5806 0.987662 12.83C2.22563 14.7673 3.81891 16.399 5.59454 17.548C7.59376 18.8431 9.74532 19.4994 11.9841 19.4994C14.1736 19.4994 16.3814 18.823 18.3684 17.5437C20.1713 16.3826 21.7772 14.7472 23.0128 12.8131C23.168 12.5695 23.2501 12.2865 23.2492 11.9977C23.2484 11.7089 23.1647 11.4264 23.0081 11.1837ZM12 16.4994C11.11 16.4994 10.24 16.2354 9.49994 15.741C8.75992 15.2465 8.18314 14.5437 7.84255 13.7214C7.50196 12.8992 7.41284 11.9944 7.58647 11.1215C7.76011 10.2485 8.18869 9.44672 8.81803 8.81738C9.44736 8.18804 10.2492 7.75946 11.1221 7.58583C11.995 7.41219 12.8998 7.50131 13.7221 7.8419C14.5444 8.1825 15.2472 8.75927 15.7416 9.49929C16.2361 10.2393 16.5 11.1093 16.5 11.9994C16.4986 13.1924 16.0241 14.3362 15.1805 15.1798C14.3369 16.0235 13.1931 16.498 12 16.4994Z" fill="#666666"/>
</svg>
