<svg width="24" height="24" viewBox="0 0 24 24" fill="none" xmlns="http://www.w3.org/2000/svg">
<path d="M12.3052 9.56998L3.28128 18.592C2.69816 19.1761 2.25003 21.7472 2.25003 21.7472C2.25003 21.7472 4.7991 21.3211 5.40519 20.7159L14.4282 11.6929" stroke="#666666" stroke-width="1.5" stroke-linecap="round" stroke-linejoin="round"/>
<path d="M17.6116 10.6314L13.366 6.38581C12.7797 5.79948 11.8291 5.7994 11.2429 6.38565C10.6566 6.97189 10.6567 7.92245 11.243 8.50879L15.4887 12.7544C16.075 13.3408 17.0256 13.3408 17.6118 12.7546C18.198 12.1683 18.198 11.2178 17.6116 10.6314Z" stroke="#666666" stroke-width="1.5" stroke-linecap="round" stroke-linejoin="round"/>
<path d="M5.40509 20.7189C5.40509 20.7189 4.16384 21.5318 3.31634 20.6847C2.46884 19.8377 3.28119 18.595 3.28119 18.595M13.5895 6.60956C13.5895 6.60956 14.5537 7.01128 15.3342 6.23081L17.8968 2.92003C18.764 2.01019 20.2059 2.04394 21.0815 2.92003C21.9571 3.79566 21.9881 5.208 21.0815 6.10425L17.7684 8.66691C17.0348 9.4005 17.3896 10.4116 17.3896 10.4116L13.5895 6.60956Z" stroke="#666666" stroke-width="1.5" stroke-linecap="round" stroke-linejoin="round"/>
</svg>
