<svg width="24" height="24" viewBox="0 0 24 24" fill="none" xmlns="http://www.w3.org/2000/svg">
<path d="M22.4999 4.50812C22.5013 4.11062 22.4234 3.71683 22.2709 3.34975C22.1184 2.98267 21.8943 2.64965 21.6117 2.37015C21.0429 1.80229 20.2727 1.48217 19.469 1.47952H19.4334C19.0455 1.48228 18.6622 1.56291 18.3062 1.71663C17.9501 1.87034 17.6285 2.09401 17.3606 2.37437L13.8506 5.88437L12.2624 4.29718L10.6654 5.88671L9.07868 7.48046L11.1412 9.54296L1.49993 19.187V22.4978H4.81071L14.4529 12.8552L16.4999 14.9012L17.0301 14.3767C17.0352 14.372 17.5185 13.8934 18.0984 13.3136L19.6851 11.7198L18.0965 10.1312L21.6093 6.61796C21.8904 6.34301 22.1139 6.01485 22.2668 5.65261C22.4197 5.29037 22.499 4.90131 22.4999 4.50812ZM11.4843 13.7017L10.296 12.5134L12.2029 10.6061L13.3926 11.7958L11.4843 13.7017Z" fill="#666666"/>
</svg>
