<svg width="24" height="24" viewBox="0 0 24 24" fill="none" xmlns="http://www.w3.org/2000/svg">
<path d="M21.6117 2.38818C21.0429 1.82032 20.2728 1.50021 19.469 1.49756H19.4334C19.044 1.50049 18.6591 1.58191 18.3018 1.73694C17.9446 1.89198 17.6222 2.11746 17.3541 2.3999C17.3361 2.41834 17.3193 2.43791 17.3039 2.4585L14.7726 5.7285C14.5092 6.06131 14.1755 6.13537 13.9861 5.946L13.897 5.85693C13.4748 5.43474 12.9022 5.19756 12.3051 5.19756C11.7081 5.19756 11.1355 5.43474 10.7133 5.85693C10.2911 6.27913 10.0539 6.85174 10.0539 7.44881C10.0539 8.04588 10.2911 8.61849 10.7133 9.04068L11.1778 9.50522C11.1865 9.51392 11.1934 9.52426 11.1981 9.53564C11.2029 9.54702 11.2053 9.55922 11.2053 9.57154C11.2053 9.58386 11.2029 9.59606 11.1981 9.60744C11.1934 9.61882 11.1865 9.62916 11.1778 9.63787L2.75155 18.0622C2.53124 18.2812 2.19842 18.7405 1.82108 20.2007C1.63077 20.9371 1.51592 21.591 1.51124 21.6182C1.49236 21.726 1.4973 21.8366 1.52572 21.9423C1.55414 22.048 1.60534 22.1462 1.67574 22.23C1.74614 22.3138 1.83402 22.3812 1.93322 22.4274C2.03242 22.4736 2.14054 22.4976 2.24999 22.4976C2.29145 22.4976 2.33285 22.4942 2.37374 22.4872C2.40092 22.4826 3.05061 22.3733 3.78608 22.1854C5.24249 21.8132 5.7103 21.471 5.9353 21.2479L14.362 12.8202C14.3796 12.8028 14.4033 12.793 14.4281 12.793C14.4529 12.793 14.4766 12.8028 14.4942 12.8202L14.9592 13.2852C15.3815 13.7074 15.9541 13.9446 16.5512 13.9445C17.1484 13.9445 17.721 13.7072 18.1432 13.285C18.5654 12.8627 18.8025 12.2901 18.8025 11.6929C18.8025 11.0958 18.5652 10.5232 18.143 10.101L18.0684 10.0288C17.834 9.79443 17.9503 9.46115 18.2709 9.22537L21.5405 6.69693C21.5646 6.6776 21.5876 6.65694 21.6094 6.63506C21.8903 6.36014 22.1138 6.03204 22.2667 5.66989C22.4196 5.30775 22.4989 4.91879 22.5 4.52568C22.5012 4.12828 22.4232 3.73461 22.2707 3.36763C22.1182 3.00065 21.8942 2.6677 21.6117 2.38818ZM11.7553 13.3054C11.6184 13.4422 10.9969 13.6766 10.6589 13.3387C10.3209 13.0007 10.5539 12.3815 10.6912 12.2441L12.2381 10.6972C12.2468 10.6885 12.2572 10.6816 12.2685 10.6769C12.2799 10.6722 12.2921 10.6698 12.3044 10.6698C12.3168 10.6698 12.329 10.6722 12.3403 10.6769C12.3517 10.6816 12.3621 10.6885 12.3708 10.6972L13.3008 11.6268C13.3095 11.6355 13.3164 11.6458 13.3211 11.6572C13.3258 11.6686 13.3283 11.6808 13.3283 11.6931C13.3283 11.7054 13.3258 11.7176 13.3211 11.729C13.3164 11.7404 13.3095 11.7507 13.3008 11.7594L11.7553 13.3054Z" fill="#666666"/>
</svg>
