<svg width="24" height="24" viewBox="0 0 24 24" fill="none" xmlns="http://www.w3.org/2000/svg">
<g clip-path="url(#clip0_32_1531)">
<path d="M17.2501 5.99601H17.2543H17.2501ZM22.479 4.49601H18.2106L18.6287 2.82444L20.4249 2.21272C20.807 2.08288 21.0343 1.67694 20.9241 1.28882C20.8961 1.19118 20.8486 1.10026 20.7843 1.02156C20.7201 0.942863 20.6406 0.878031 20.5505 0.830998C20.4605 0.783966 20.3618 0.755712 20.2606 0.74795C20.1593 0.740189 20.0575 0.753083 19.9613 0.785849L17.7582 1.53585C17.6396 1.57631 17.533 1.64586 17.4481 1.73814C17.3633 1.83043 17.3029 1.94251 17.2726 2.06413L16.6646 4.49601H10.5212C10.1176 4.49601 9.77118 4.80632 9.75102 5.20991C9.74614 5.31132 9.76189 5.41266 9.79733 5.5078C9.83277 5.60294 9.88715 5.68989 9.95719 5.76339C10.0272 5.83689 10.1115 5.89541 10.2048 5.93539C10.2981 5.97538 10.3986 5.996 10.5001 5.99601H10.629L10.6759 6.40194C10.6869 6.49674 10.7324 6.58418 10.8037 6.64762C10.875 6.71105 10.9671 6.74607 11.0626 6.74601C12.8907 6.74601 14.5154 7.25694 15.7557 8.22351C16.4456 8.75506 17.0048 9.43728 17.3907 10.218C17.6067 10.6572 17.7661 11.122 17.8651 11.6013C17.8848 11.6947 17.9401 11.7768 18.0193 11.8301C18.657 12.2627 19.1274 12.9006 19.3523 13.6376C19.5773 14.3747 19.5432 15.1665 19.2559 15.8815C19.2224 15.9642 19.2199 16.0563 19.2488 16.1407C19.4149 16.6166 19.4998 17.117 19.5001 17.621C19.5001 18.6682 19.1438 19.6662 18.497 20.4312C18.1302 20.8678 17.6689 21.2152 17.1479 21.4469C17.0578 21.4867 16.9869 21.5602 16.9506 21.6518C16.7559 22.159 16.481 22.6315 16.1363 23.0515C16.122 23.0685 16.1128 23.0893 16.1098 23.1114C16.1069 23.1334 16.1103 23.1559 16.1196 23.1761C16.129 23.1963 16.1439 23.2135 16.1626 23.2255C16.1813 23.2376 16.2031 23.244 16.2254 23.2441H18.5321C19.0969 23.2418 19.6403 23.0282 20.0555 22.6452C20.4706 22.2623 20.7273 21.7378 20.7751 21.1751L22.3782 5.99601H22.5001C22.6017 5.99612 22.7023 5.9756 22.7957 5.93567C22.8891 5.89574 22.9735 5.83724 23.0436 5.76373C23.1137 5.69022 23.1682 5.60322 23.2037 5.50802C23.2392 5.41282 23.255 5.3114 23.2501 5.20991C23.2304 4.80632 22.8826 4.49601 22.479 4.49601Z" fill="#666666"/>
<path d="M5.09479 15.0002C5.24271 14.9995 5.38931 15.0282 5.52609 15.0845C5.66287 15.1408 5.78712 15.2237 5.89167 15.3284L6.6187 16.0554C6.63611 16.0728 6.65679 16.0867 6.67955 16.0961C6.70232 16.1055 6.72671 16.1104 6.75136 16.1104C6.776 16.1104 6.80039 16.1055 6.82316 16.0961C6.84592 16.0867 6.8666 16.0728 6.88401 16.0554L7.60964 15.3284C7.71418 15.2237 7.83843 15.1408 7.97522 15.0845C8.112 15.0282 8.25859 14.9995 8.40651 15.0002H17.6212C17.6704 15.0007 17.7193 14.9915 17.765 14.9731C17.8107 14.9548 17.8523 14.9275 17.8875 14.8931C17.9226 14.8586 17.9507 14.8175 17.97 14.7722C17.9893 14.7269 17.9995 14.6782 18 14.629V14.6252C17.9994 14.1932 17.8499 13.7745 17.5767 13.4398C17.3035 13.105 16.9232 12.8748 16.5 12.7877C16.4615 11.396 15.8906 10.2312 14.8354 9.41274C13.8595 8.65149 12.5554 8.25024 11.0624 8.25024H7.68745C4.48964 8.25024 2.32354 10.0676 2.24995 12.7877C1.82672 12.8748 1.44643 13.105 1.1732 13.4398C0.899957 13.7745 0.750475 14.1932 0.749947 14.6252C0.749947 14.7247 0.789456 14.8201 0.859782 14.8904C0.930108 14.9607 1.02549 15.0002 1.12495 15.0002H5.09479ZM8.71589 16.5002C8.66663 16.5002 8.61784 16.5099 8.57232 16.5287C8.52679 16.5475 8.48543 16.5751 8.45057 16.6099L7.41276 17.6482C7.23695 17.824 6.99854 17.9227 6.74995 17.9227C6.50136 17.9227 6.26294 17.824 6.08714 17.6482L5.04932 16.6099C5.01447 16.5751 4.9731 16.5475 4.92758 16.5287C4.88206 16.5099 4.83327 16.5002 4.78401 16.5002H1.53088C1.35471 16.4995 1.18393 16.561 1.04874 16.674C0.913548 16.7869 0.822657 16.9441 0.792134 17.1176C0.763974 17.2853 0.749862 17.4551 0.749947 17.6252C0.749947 19.0592 1.74042 20.2273 2.96526 20.2502C3.07917 20.959 3.35479 21.5993 3.76964 22.1004C4.38323 22.8415 5.27526 23.2502 6.2812 23.2502H12.4687C13.4746 23.2502 14.3667 22.8415 14.9803 22.0995C15.3951 21.5984 15.6707 20.9581 15.7846 20.2493C17.0095 20.2273 18 19.0592 18 17.6243C18 17.4542 17.9859 17.2844 17.9578 17.1167C17.927 16.9433 17.8361 16.7864 17.7009 16.6736C17.5657 16.5608 17.3951 16.4994 17.219 16.5002H8.71589Z" fill="#666666"/>
</g>
<defs>
<clipPath id="clip0_32_1531">
<rect width="24" height="24" fill="white" transform="translate(-0.00012207 -0.00390625)"/>
</clipPath>
</defs>
</svg>
