<svg width="24" height="24" viewBox="0 0 24 24" fill="none" xmlns="http://www.w3.org/2000/svg">
<g clip-path="url(#clip0_32_1528)">
<path d="M18 16.5002H8.64191L6.72003 18.1409L4.79816 16.5002H0.750031V17.6252C0.750031 19.0592 1.7405 20.2273 2.96534 20.2502C3.07925 20.959 3.35487 21.5993 3.76972 22.1004C4.38331 22.8415 5.27534 23.2502 6.28128 23.2502H12.4688C13.4747 23.2502 14.3668 22.8415 14.9803 22.0995C15.3952 21.5984 15.6708 20.9581 15.7847 20.2493C16.4353 20.2376 17.0199 19.9024 17.4253 19.376C17.804 18.8714 18.006 18.2561 18 17.6252V16.5002ZM4.92191 15.0002L6.71863 16.3217L8.53128 15.0002H18V14.6252C17.9995 14.1932 17.85 13.7745 17.5768 13.4398C17.3035 13.105 16.9233 12.8748 16.5 12.7877C16.4616 11.396 15.8907 10.2312 14.8355 9.41274C13.8596 8.65149 12.5555 8.25024 11.0625 8.25024H7.68753C4.48972 8.25024 2.32362 10.0676 2.25003 12.7877C1.8268 12.8748 1.44652 13.105 1.17328 13.4398C0.90004 13.7745 0.750558 14.1932 0.750031 14.6252V15.0002H4.92191Z" fill="#666666"/>
<path d="M21.707 4.49576H18.2106L18.6287 2.8242L20.7188 2.10513L20.2501 0.745758L17.3438 1.68326L16.6646 4.49576H9.75008V5.99576H10.629L10.7162 6.74576H11.0626C12.8907 6.74576 14.5154 7.2567 15.7557 8.22326C16.4456 8.75482 17.0048 9.43704 17.3907 10.2178C17.6285 10.7022 17.7978 11.2173 17.8937 11.7483C18.5922 12.1783 19.1101 12.848 19.3507 13.6322C19.5913 14.4164 19.5381 15.2614 19.201 16.0092C19.3985 16.5235 19.4999 17.0698 19.5001 17.6208C19.5001 18.6679 19.1438 19.6659 18.497 20.4309C18.0966 20.9078 17.5839 21.2775 17.0049 21.5067C16.8076 22.0689 16.5137 22.5924 16.1363 23.0536C16.081 23.1201 16.0243 23.1853 15.9662 23.2481H19.5001C20.2501 23.2481 20.5782 22.8731 20.672 22.17L22.3782 5.9981H23.2501V4.49576H21.707Z" fill="#666666"/>
</g>
<defs>
<clipPath id="clip0_32_1528">
<rect width="24" height="24" fill="white" transform="translate(0 -0.00390625)"/>
</clipPath>
</defs>
</svg>
