<svg width="24" height="24" viewBox="0 0 24 24" fill="none" xmlns="http://www.w3.org/2000/svg">
<path d="M15.7499 15.7494C16.5782 15.7494 17.2499 16.5889 17.2499 17.6244C17.2499 18.6598 16.5782 19.4994 15.7499 19.4994H2.99991C2.17163 19.4994 1.49991 18.6598 1.49991 17.6244C1.49991 16.5889 2.17163 15.7494 2.99991 15.7494M15.0937 19.4994C15.0937 21.1564 14.1257 22.4994 12.4687 22.4994H6.28116C4.62413 22.4994 3.65616 21.1564 3.65616 19.4994H15.0937Z" stroke="#666666" stroke-width="1.5" stroke-miterlimit="10" stroke-linecap="round"/>
<path d="M11.2968 5.24756L11.6455 8.24615M16.1249 15.7476H8.40507C8.30574 15.7476 8.21049 15.7871 8.14022 15.8572L6.88257 17.1149C6.86515 17.1323 6.84447 17.1462 6.82171 17.1556C6.79895 17.165 6.77455 17.1699 6.74991 17.1699C6.72527 17.1699 6.70087 17.165 6.67811 17.1556C6.65535 17.1462 6.63467 17.1323 6.61725 17.1149L5.3596 15.8572C5.28932 15.7871 5.19408 15.7476 5.09475 15.7476H2.62491C2.32654 15.7476 2.04039 15.629 1.82941 15.4181C1.61843 15.2071 1.49991 14.9209 1.49991 14.6226V14.6226C1.49991 14.3242 1.61843 14.038 1.82941 13.8271C2.04039 13.6161 2.32654 13.4976 2.62491 13.4976H16.1249C16.4233 13.4976 16.7094 13.6161 16.9204 13.8271C17.1314 14.038 17.2499 14.3242 17.2499 14.6226C17.2499 14.9209 17.1314 15.2071 16.9204 15.4181C16.7094 15.629 16.4233 15.7476 16.1249 15.7476ZM2.99991 12.9351V12.9247C2.99991 10.3466 5.10928 8.99756 7.68741 8.99756H11.0624C13.6405 8.99756 15.7499 10.3569 15.7499 12.9351V12.9247L2.99991 12.9351Z" stroke="#666666" stroke-width="1.5" stroke-miterlimit="10" stroke-linecap="round"/>
<path d="M12 22.4976H18.5302C18.9086 22.4976 19.273 22.3545 19.5504 22.0971C19.8278 21.8397 19.9977 21.487 20.026 21.1096L21.7031 5.24756" stroke="#666666" stroke-width="1.5" stroke-miterlimit="10" stroke-linecap="round"/>
<path d="M17.2501 5.24756L18.0001 2.24756L20.2032 1.49756" stroke="#666666" stroke-width="1.5" stroke-linecap="round" stroke-linejoin="round"/>
<path d="M10.5001 5.24756H22.5001" stroke="#666666" stroke-width="1.5" stroke-miterlimit="10" stroke-linecap="round"/>
</svg>
