<svg width="24" height="24" viewBox="0 0 24 24" fill="none" xmlns="http://www.w3.org/2000/svg">
<g clip-path="url(#clip0_32_1537)">
<path d="M20.1562 8.90201C20.1562 4.40482 16.4972 0.745758 12 0.745758C7.50277 0.745758 3.84371 4.40482 3.84371 8.90201C3.84371 13.05 6.95621 16.485 10.9687 16.9931V18.4645H8.24996V20.527H10.9687V23.2458H13.0312V20.527H15.75V18.4645H13.0312V16.9931C17.0437 16.485 20.1562 13.05 20.1562 8.90201ZM5.90621 8.90201C5.90621 5.54201 8.63996 2.80826 12 2.80826C15.36 2.80826 18.0937 5.54201 18.0937 8.90201C18.0937 12.262 15.36 14.9958 12 14.9958C8.63996 14.9958 5.90621 12.262 5.90621 8.90201Z" fill="#666666"/>
</g>
<defs>
<clipPath id="clip0_32_1537">
<rect width="24" height="24" fill="white" transform="translate(0 -0.00390625)"/>
</clipPath>
</defs>
</svg>
