<svg width="24" height="24" viewBox="0 0 24 24" fill="none" xmlns="http://www.w3.org/2000/svg">
<g clip-path="url(#clip0_32_1539)">
<path d="M20.1563 8.90201C20.1563 4.40482 16.4972 0.745758 12 0.745758C7.50284 0.745758 3.84377 4.40482 3.84377 8.90201C3.84377 13.05 6.95627 16.485 10.9688 16.9931V18.4645H9.28127C9.00777 18.4645 8.74547 18.5732 8.55207 18.7666C8.35867 18.96 8.25002 19.2223 8.25002 19.4958C8.25002 19.7693 8.35867 20.0316 8.55207 20.225C8.74547 20.4184 9.00777 20.527 9.28127 20.527H10.9688V22.2145C10.9688 22.488 11.0774 22.7503 11.2708 22.9437C11.4642 23.1371 11.7265 23.2458 12 23.2458C12.2735 23.2458 12.5358 23.1371 12.7292 22.9437C12.9226 22.7503 13.0313 22.488 13.0313 22.2145V20.527H14.7188C14.9923 20.527 15.2546 20.4184 15.448 20.225C15.6414 20.0316 15.75 19.7693 15.75 19.4958C15.75 19.2223 15.6414 18.96 15.448 18.7666C15.2546 18.5732 14.9923 18.4645 14.7188 18.4645H13.0313V16.9931C17.0438 16.485 20.1563 13.05 20.1563 8.90201ZM5.90627 8.90201C5.90627 5.54201 8.64002 2.80826 12 2.80826C15.36 2.80826 18.0938 5.54201 18.0938 8.90201C18.0938 12.262 15.36 14.9958 12 14.9958C8.64002 14.9958 5.90627 12.262 5.90627 8.90201Z" fill="#666666"/>
</g>
<defs>
<clipPath id="clip0_32_1539">
<rect width="24" height="24" fill="white" transform="translate(0 -0.00390625)"/>
</clipPath>
</defs>
</svg>
