<svg width="24" height="24" viewBox="0 0 24 24" fill="none" xmlns="http://www.w3.org/2000/svg">
<path d="M18.0001 3.74756H6.00011C4.78136 3.74756 3.98449 4.40381 3.75011 5.62256L2.25011 12.7476V17.9976C2.25185 18.5938 2.48945 19.1651 2.91104 19.5866C3.33262 20.0082 3.90391 20.2458 4.50011 20.2476H19.5001C20.0963 20.2458 20.6676 20.0082 21.0892 19.5866C21.5108 19.1651 21.7484 18.5938 21.7501 17.9976V12.7476L20.2501 5.62256C20.0157 4.35693 19.172 3.74756 18.0001 3.74756Z" stroke="#666666" stroke-width="1.5" stroke-linejoin="round"/>
<path d="M6.00011 9.74936H18.0001M2.25011 12.7494H9.00011H2.25011ZM15.0001 12.7494H21.7501H15.0001ZM9.00011 12.7494C9.00011 13.545 9.31618 14.3081 9.87879 14.8707C10.4414 15.4333 11.2045 15.7494 12.0001 15.7494C12.7958 15.7494 13.5588 15.4333 14.1214 14.8707C14.684 14.3081 15.0001 13.545 15.0001 12.7494H9.00011ZM6.75011 6.74936H17.2501H6.75011Z" stroke="#666666" stroke-width="1.5" stroke-linecap="round" stroke-linejoin="round"/>
</svg>
