<svg width="24" height="24" viewBox="0 0 24 24" fill="none" xmlns="http://www.w3.org/2000/svg">
<path d="M22.484 12.5947L20.984 5.47858C20.6943 3.92608 19.5787 2.99936 17.9999 2.99936H5.99993C5.21243 2.99936 4.54681 3.2192 4.02649 3.6528C3.50618 4.08639 3.1654 4.69858 3.01493 5.47577L1.51493 12.5947C1.5048 12.6456 1.49977 12.6974 1.49993 12.7494V17.9994C1.49993 18.795 1.816 19.5581 2.37861 20.1207C2.94122 20.6833 3.70428 20.9994 4.49993 20.9994H19.4999C20.2956 20.9994 21.0586 20.6833 21.6213 20.1207C22.1839 19.5581 22.4999 18.795 22.4999 17.9994V12.7494C22.4998 12.6974 22.4944 12.6456 22.484 12.5947ZM4.48399 5.77905V5.76592C4.6504 4.90202 5.13134 4.5003 5.99759 4.5003H17.9999C18.8723 4.5003 19.3532 4.90108 19.5126 5.7617C19.5126 5.7678 19.5149 5.77389 19.5159 5.77998L20.7782 11.7744C20.7839 11.8017 20.7835 11.8299 20.7769 11.857C20.7703 11.8841 20.7578 11.9095 20.7402 11.9311C20.7226 11.9528 20.7003 11.9702 20.6751 11.9822C20.6499 11.9941 20.6224 12.0003 20.5945 12.0003H14.9999C14.8022 11.9993 14.6121 12.0768 14.4715 12.2159C14.3309 12.3549 14.2512 12.5441 14.2499 12.7419C14.2499 13.3386 14.0129 13.9109 13.5909 14.3329C13.169 14.7548 12.5967 14.9919 11.9999 14.9919C11.4032 14.9919 10.8309 14.7548 10.4089 14.3329C9.98699 13.9109 9.74993 13.3386 9.74993 12.7419C9.74944 12.6439 9.72965 12.5469 9.6917 12.4566C9.65374 12.3662 9.59836 12.2842 9.52871 12.2153C9.45907 12.1463 9.37652 12.0918 9.2858 12.0547C9.19507 12.0177 9.09793 11.9989 8.99993 11.9994H3.4054C3.3775 11.9994 3.34994 11.9932 3.32473 11.9812C3.29952 11.9693 3.27731 11.9518 3.2597 11.9302C3.2421 11.9085 3.22954 11.8832 3.22296 11.8561C3.21638 11.829 3.21593 11.8007 3.22165 11.7734L4.48399 5.77905Z" fill="#666666"/>
<path d="M17.2501 7.49664H6.75007C6.55116 7.49664 6.36039 7.41763 6.21974 7.27697C6.07909 7.13632 6.00007 6.94556 6.00007 6.74664C6.00007 6.54773 6.07909 6.35697 6.21974 6.21631C6.36039 6.07566 6.55116 5.99664 6.75007 5.99664H17.2501C17.449 5.99664 17.6397 6.07566 17.7804 6.21631C17.9211 6.35697 18.0001 6.54773 18.0001 6.74664C18.0001 6.94556 17.9211 7.13632 17.7804 7.27697C17.6397 7.41763 17.449 7.49664 17.2501 7.49664ZM18.0001 10.4966H6.00007C5.80116 10.4966 5.61039 10.4176 5.46974 10.277C5.32909 10.1363 5.25007 9.94556 5.25007 9.74664C5.25007 9.54773 5.32909 9.35697 5.46974 9.21631C5.61039 9.07566 5.80116 8.99664 6.00007 8.99664H18.0001C18.199 8.99664 18.3897 9.07566 18.5304 9.21631C18.6711 9.35697 18.7501 9.54773 18.7501 9.74664C18.7501 9.94556 18.6711 10.1363 18.5304 10.277C18.3897 10.4176 18.199 10.4966 18.0001 10.4966Z" fill="#666666"/>
</svg>
