<svg width="24" height="24" viewBox="0 0 24 24" fill="none" xmlns="http://www.w3.org/2000/svg">
<path d="M21.75 16.4966H15C14.8011 16.4966 14.6104 16.5757 14.4697 16.7163C14.3291 16.857 14.25 17.0477 14.25 17.2466C14.25 17.8434 14.013 18.4157 13.591 18.8376C13.1691 19.2596 12.5968 19.4966 12 19.4966C11.4033 19.4966 10.831 19.2596 10.409 18.8376C9.98709 18.4157 9.75004 17.8434 9.75004 17.2466C9.75004 17.0477 9.67102 16.857 9.53037 16.7163C9.38972 16.5757 9.19895 16.4966 9.00004 16.4966H2.25004C2.05113 16.4966 1.86036 16.5757 1.71971 16.7163C1.57906 16.857 1.50004 17.0477 1.50004 17.2466V20.2466C1.50091 21.042 1.81726 21.8046 2.37968 22.367C2.9421 22.9294 3.70466 23.2458 4.50004 23.2466H19.5C20.2954 23.2458 21.058 22.9294 21.6204 22.367C22.1828 21.8046 22.4992 21.042 22.5 20.2466V17.2466C22.5 17.0477 22.421 16.857 22.2804 16.7163C22.1397 16.5757 21.949 16.4966 21.75 16.4966ZM22.4747 8.80352L20.9818 3.20524C20.6846 1.66492 19.5722 0.746643 18 0.746643H6.00004C5.21254 0.746643 4.54691 0.966487 4.0266 1.40008C3.50629 1.83367 3.1716 2.43414 3.01879 3.20289L1.52535 8.80352C1.5085 8.86651 1.49999 8.93144 1.50004 8.99664V11.2466C1.50004 12.9009 2.84582 14.9966 4.50004 14.9966H19.5C21.1543 14.9966 22.5 12.9009 22.5 11.2466V8.99664C22.5001 8.93144 22.4916 8.86651 22.4747 8.80352ZM20.6518 8.24664H15C14.8023 8.24565 14.6122 8.32319 14.4716 8.46223C14.331 8.60127 14.2513 8.79045 14.25 8.98821C14.25 9.58494 14.013 10.1572 13.591 10.5792C13.1691 11.0012 12.5968 11.2382 12 11.2382C11.4033 11.2382 10.831 11.0012 10.409 10.5792C9.98709 10.1572 9.75004 9.58494 9.75004 8.98821C9.7488 8.79045 9.66911 8.60127 9.52849 8.46223C9.38786 8.32319 9.1978 8.24565 9.00004 8.24664H3.34832C3.33393 8.24664 3.31974 8.24332 3.30685 8.23695C3.29395 8.23057 3.28269 8.22132 3.27395 8.2099C3.2652 8.19848 3.2592 8.1852 3.25641 8.17109C3.25362 8.15697 3.25411 8.14241 3.25785 8.12852L4.48644 3.51227C4.65285 2.6493 5.13379 2.24664 6.00004 2.24664H18C18.8714 2.24664 19.3519 2.64649 19.5118 3.50524L20.7422 8.12852C20.746 8.14241 20.7465 8.15697 20.7437 8.17109C20.7409 8.1852 20.7349 8.19848 20.7261 8.2099C20.7174 8.22132 20.7061 8.23057 20.6932 8.23695C20.6803 8.24332 20.6661 8.24664 20.6518 8.24664Z" fill="#666666"/>
</svg>
