<svg width="24" height="24" viewBox="0 0 24 24" fill="none" xmlns="http://www.w3.org/2000/svg">
<path d="M21 0.746643H2.99998L1.49998 8.24664V14.9966H22.5V8.24664L21 0.746643ZM20.4375 8.24664H15C15 9.04229 14.6839 9.80536 14.1213 10.368C13.5587 10.9306 12.7956 11.2466 12 11.2466C11.2043 11.2466 10.4413 10.9306 9.87866 10.368C9.31605 9.80536 8.99998 9.04229 8.99998 8.24664H3.56248L4.59373 2.71539H19.4062L20.4375 8.24664ZM15 16.4966C15 17.2923 14.6839 18.0554 14.1213 18.618C13.5587 19.1806 12.7956 19.4966 12 19.4966C11.2043 19.4966 10.4413 19.1806 9.87866 18.618C9.31605 18.0554 8.99998 17.2923 8.99998 16.4966H1.49998V23.2466H22.5V16.4966H15Z" fill="#666666"/>
</svg>
