<svg width="24" height="24" viewBox="0 0 24 24" fill="none" xmlns="http://www.w3.org/2000/svg">
<path d="M18 3.74756H6.00002C4.78127 3.74756 3.98439 4.40381 3.75002 5.62256L2.25002 12.7476V17.9976C2.25175 18.5938 2.48936 19.1651 2.91094 19.5866C3.33252 20.0082 3.90381 20.2458 4.50002 20.2476H19.5C20.0962 20.2458 20.6675 20.0082 21.0891 19.5866C21.5107 19.1651 21.7483 18.5938 21.75 17.9976V12.7476L20.25 5.62256C20.0156 4.35693 19.1719 3.74756 18 3.74756Z" stroke="#666666" stroke-width="1.5" stroke-linejoin="round"/>
<path d="M9.00002 12.7484C9.00002 13.5441 9.31609 14.3072 9.8787 14.8698C10.4413 15.4324 11.2044 15.7484 12 15.7484C12.7957 15.7484 13.5587 15.4324 14.1213 14.8698C14.6839 14.3072 15 13.5441 15 12.7484M2.25002 12.7484H9.00002H2.25002ZM15 12.7484H21.75H15Z" stroke="#666666" stroke-width="1.5" stroke-linecap="round" stroke-linejoin="round"/>
</svg>
