<svg width="24" height="24" viewBox="0 0 24 24" fill="none" xmlns="http://www.w3.org/2000/svg">
<path d="M22.484 12.5911L20.984 5.47498C20.6943 3.92248 19.5787 2.99576 18 2.99576H5.99997C5.21247 2.99576 4.54684 3.2156 4.02653 3.6492C3.50622 4.08279 3.16543 4.69498 3.01497 5.47216L1.51497 12.5911C1.50483 12.642 1.49981 12.6938 1.49997 12.7458V17.9958C1.49997 18.7914 1.81604 19.5545 2.37865 20.1171C2.94125 20.6797 3.70432 20.9958 4.49997 20.9958H19.5C20.2956 20.9958 21.0587 20.6797 21.6213 20.1171C22.1839 19.5545 22.5 18.7914 22.5 17.9958V12.7458C22.4998 12.6938 22.4945 12.642 22.484 12.5911ZM4.48403 5.77545V5.76232C4.65043 4.89841 5.13137 4.4967 5.99762 4.4967H18C18.8723 4.4967 19.3533 4.89748 19.5126 5.7581C19.5126 5.7642 19.515 5.77029 19.5159 5.77638L20.7782 11.7708C20.784 11.7981 20.7835 11.8263 20.7769 11.8534C20.7704 11.8805 20.7578 11.9059 20.7402 11.9275C20.7226 11.9491 20.7004 11.9666 20.6752 11.9786C20.65 11.9905 20.6224 11.9967 20.5945 11.9967H15C14.8022 11.9957 14.6121 12.0732 14.4715 12.2123C14.3309 12.3513 14.2512 12.5405 14.25 12.7383C14.25 13.335 14.0129 13.9073 13.591 14.3292C13.169 14.7512 12.5967 14.9883 12 14.9883C11.4032 14.9883 10.8309 14.7512 10.409 14.3292C9.98702 13.9073 9.74997 13.335 9.74997 12.7383C9.74948 12.6403 9.72969 12.5433 9.69173 12.453C9.65377 12.3626 9.59839 12.2806 9.52875 12.2117C9.4591 12.1427 9.37656 12.0882 9.28583 12.0511C9.1951 12.0141 9.09797 11.9953 8.99997 11.9958H3.40543C3.37753 11.9958 3.34997 11.9896 3.32476 11.9776C3.29956 11.9657 3.27734 11.9482 3.25974 11.9266C3.24213 11.9049 3.22958 11.8796 3.22299 11.8525C3.21641 11.8254 3.21596 11.7971 3.22168 11.7698L4.48403 5.77545Z" fill="#666666"/>
</svg>
