<svg width="24" height="24" viewBox="0 0 24 24" fill="none" xmlns="http://www.w3.org/2000/svg">
<path d="M2.24995 15.7467V20.2467C2.25168 20.8429 2.48929 21.4142 2.91087 21.8358C3.33245 22.2573 3.90374 22.4949 4.49995 22.4967H19.4999C20.0962 22.4949 20.6674 22.2573 21.089 21.8358C21.5106 21.4142 21.7482 20.8429 21.7499 20.2467V15.7467" stroke="#666666" stroke-width="1.5" stroke-linejoin="round"/>
<path d="M8.99995 15.7467C8.99995 16.5423 9.31602 17.3054 9.87863 17.868C10.4412 18.4306 11.2043 18.7467 11.9999 18.7467C12.7956 18.7467 13.5587 18.4306 14.1213 17.868C14.6839 17.3054 14.9999 16.5423 14.9999 15.7467M2.24995 15.7467H8.99995H2.24995ZM14.9999 15.7467H21.7499H14.9999Z" stroke="#666666" stroke-width="1.5" stroke-linecap="round" stroke-linejoin="round"/>
<path d="M17.9999 1.49936H5.99995C4.7812 1.49936 3.98432 2.15561 3.74995 3.37436L2.24995 8.99936V13.4994C2.25168 14.0956 2.48929 14.6669 2.91087 15.0884C3.33245 15.51 3.90374 15.7476 4.49995 15.7494H19.4999C20.0962 15.7476 20.6674 15.51 21.089 15.0884C21.5106 14.6669 21.7482 14.0956 21.7499 13.4994V8.99936L20.2499 3.37436C20.0156 2.10873 19.1718 1.49936 17.9999 1.49936Z" stroke="#666666" stroke-width="1.5" stroke-linejoin="round"/>
<path d="M8.99995 8.99936C8.99995 9.79501 9.31602 10.5581 9.87863 11.1207C10.4412 11.6833 11.2043 11.9994 11.9999 11.9994C12.7956 11.9994 13.5587 11.6833 14.1213 11.1207C14.6839 10.5581 14.9999 9.79501 14.9999 8.99936M2.24995 8.99936H8.99995H2.24995ZM14.9999 8.99936H21.7499H14.9999Z" stroke="#666666" stroke-width="1.5" stroke-linecap="round" stroke-linejoin="round"/>
</svg>
