<svg width="24" height="24" viewBox="0 0 24 24" fill="none" xmlns="http://www.w3.org/2000/svg">
<path d="M20.4376 4.49667H3.56255C2.83768 4.49667 2.25005 5.0843 2.25005 5.80917V18.1842C2.25005 18.9091 2.83768 19.4967 3.56255 19.4967H20.4376C21.1624 19.4967 21.7501 18.9091 21.7501 18.1842V5.80917C21.7501 5.0843 21.1624 4.49667 20.4376 4.49667Z" stroke="#666666" stroke-width="1.5" stroke-linejoin="round"/>
<path d="M20.4374 15.7467H19.3124C18.5876 15.7467 17.9999 16.3343 17.9999 17.0592V18.1842C17.9999 18.909 18.5876 19.4967 19.3124 19.4967H20.4374C21.1623 19.4967 21.7499 18.909 21.7499 18.1842V17.0592C21.7499 16.3343 21.1623 15.7467 20.4374 15.7467Z" stroke="#666666" stroke-width="1.5" stroke-linejoin="round"/>
<path d="M20.4374 12.0012H19.3124C18.5876 12.0012 17.9999 12.5888 17.9999 13.3137V14.4387C17.9999 15.1635 18.5876 15.7512 19.3124 15.7512H20.4374C21.1623 15.7512 21.7499 15.1635 21.7499 14.4387V13.3137C21.7499 12.5888 21.1623 12.0012 20.4374 12.0012Z" stroke="#666666" stroke-width="1.5" stroke-linejoin="round"/>
<path d="M20.4374 8.25116H19.3124C18.5876 8.25116 17.9999 8.83879 17.9999 9.56366V10.6887C17.9999 11.4135 18.5876 12.0012 19.3124 12.0012H20.4374C21.1623 12.0012 21.7499 11.4135 21.7499 10.6887V9.56366C21.7499 8.83879 21.1623 8.25116 20.4374 8.25116Z" stroke="#666666" stroke-width="1.5" stroke-linejoin="round"/>
<path d="M20.4374 4.49667H19.3124C18.5876 4.49667 17.9999 5.0843 17.9999 5.80917V6.93417C17.9999 7.65905 18.5876 8.24667 19.3124 8.24667H20.4374C21.1623 8.24667 21.7499 7.65905 21.7499 6.93417V5.80917C21.7499 5.0843 21.1623 4.49667 20.4374 4.49667Z" stroke="#666666" stroke-width="1.5" stroke-linejoin="round"/>
<path d="M4.68755 15.7467H3.56255C2.83768 15.7467 2.25005 16.3343 2.25005 17.0592V18.1842C2.25005 18.909 2.83768 19.4967 3.56255 19.4967H4.68755C5.41243 19.4967 6.00005 18.909 6.00005 18.1842V17.0592C6.00005 16.3343 5.41243 15.7467 4.68755 15.7467Z" stroke="#666666" stroke-width="1.5" stroke-linejoin="round"/>
<path d="M4.68755 12.0012H3.56255C2.83768 12.0012 2.25005 12.5888 2.25005 13.3137V14.4387C2.25005 15.1635 2.83768 15.7512 3.56255 15.7512H4.68755C5.41243 15.7512 6.00005 15.1635 6.00005 14.4387V13.3137C6.00005 12.5888 5.41243 12.0012 4.68755 12.0012Z" stroke="#666666" stroke-width="1.5" stroke-linejoin="round"/>
<path d="M4.68755 8.25116H3.56255C2.83768 8.25116 2.25005 8.83879 2.25005 9.56366V10.6887C2.25005 11.4135 2.83768 12.0012 3.56255 12.0012H4.68755C5.41243 12.0012 6.00005 11.4135 6.00005 10.6887V9.56366C6.00005 8.83879 5.41243 8.25116 4.68755 8.25116Z" stroke="#666666" stroke-width="1.5" stroke-linejoin="round"/>
<path d="M4.68755 4.49667H3.56255C2.83768 4.49667 2.25005 5.0843 2.25005 5.80917V6.93417C2.25005 7.65905 2.83768 8.24667 3.56255 8.24667H4.68755C5.41243 8.24667 6.00005 7.65905 6.00005 6.93417V5.80917C6.00005 5.0843 5.41243 4.49667 4.68755 4.49667Z" stroke="#666666" stroke-width="1.5" stroke-linejoin="round"/>
<path d="M16.6874 4.49667H7.31241C6.58754 4.49667 5.99991 5.0843 5.99991 5.80917V10.6842C5.99991 11.409 6.58754 11.9967 7.31241 11.9967H16.6874C17.4123 11.9967 17.9999 11.409 17.9999 10.6842V5.80917C17.9999 5.0843 17.4123 4.49667 16.6874 4.49667Z" stroke="#666666" stroke-width="1.5" stroke-linejoin="round"/>
<path d="M16.6874 12.0012H7.31241C6.58754 12.0012 5.99991 12.5888 5.99991 13.3137V18.1887C5.99991 18.9135 6.58754 19.5012 7.31241 19.5012H16.6874C17.4123 19.5012 17.9999 18.9135 17.9999 18.1887V13.3137C17.9999 12.5888 17.4123 12.0012 16.6874 12.0012Z" stroke="#666666" stroke-width="1.5" stroke-linejoin="round"/>
</svg>
