<svg width="24" height="24" viewBox="0 0 24 24" fill="none" xmlns="http://www.w3.org/2000/svg">
<path d="M22.4999 3.74847H1.49994V20.2485H22.4999V3.74847ZM5.24994 16.4985V18.7485H2.99994V16.4985H5.24994ZM5.24994 12.7485V14.9985H2.99994V12.7485H5.24994ZM5.24994 8.99848V11.2485H2.99994V8.99848H5.24994ZM5.24994 5.24847V7.49848H2.99994V5.24847H5.24994ZM17.2499 12.7485H6.74994V11.2485H17.2499V12.7485ZM20.9999 16.4985V18.7485H18.7499V16.4985H20.9999ZM20.9999 12.7485V14.9985H18.7499V12.7485H20.9999ZM20.9999 8.99848V11.2485H18.7499V8.99848H20.9999ZM20.9999 5.24847V7.49848H18.7499V5.24847H20.9999Z" fill="#666666"/>
</svg>
