<svg width="24" height="24" viewBox="0 0 24 24" fill="none" xmlns="http://www.w3.org/2000/svg">
<path d="M20.4375 3.74847H3.56251C3.01569 3.74909 2.49144 3.96659 2.10478 4.35325C1.71812 4.73991 1.50063 5.26416 1.50001 5.81097V18.186C1.50063 18.7328 1.71812 19.257 2.10478 19.6437C2.49144 20.0304 3.01569 20.2479 3.56251 20.2485H20.4375C20.9843 20.2479 21.5086 20.0304 21.8952 19.6437C22.2819 19.257 22.4994 18.7328 22.5 18.186V5.81097C22.4994 5.26416 22.2819 4.73991 21.8952 4.35325C21.5086 3.96659 20.9843 3.74909 20.4375 3.74847ZM5.25001 18.186C5.25001 18.3352 5.19074 18.4782 5.08525 18.5837C4.97976 18.6892 4.83669 18.7485 4.68751 18.7485H3.56251C3.41332 18.7485 3.27025 18.6892 3.16476 18.5837C3.05927 18.4782 3.00001 18.3352 3.00001 18.186V17.061C3.00001 16.9118 3.05927 16.7687 3.16476 16.6632C3.27025 16.5577 3.41332 16.4985 3.56251 16.4985H4.68751C4.83669 16.4985 4.97976 16.5577 5.08525 16.6632C5.19074 16.7687 5.25001 16.9118 5.25001 17.061V18.186ZM5.25001 14.436C5.25001 14.5852 5.19074 14.7282 5.08525 14.8337C4.97976 14.9392 4.83669 14.9985 4.68751 14.9985H3.56251C3.41332 14.9985 3.27025 14.9392 3.16476 14.8337C3.05927 14.7282 3.00001 14.5852 3.00001 14.436V13.311C3.00001 13.1618 3.05927 13.0187 3.16476 12.9132C3.27025 12.8077 3.41332 12.7485 3.56251 12.7485H4.68751C4.83669 12.7485 4.97976 12.8077 5.08525 12.9132C5.19074 13.0187 5.25001 13.1618 5.25001 13.311V14.436ZM5.25001 10.686C5.25001 10.8352 5.19074 10.9782 5.08525 11.0837C4.97976 11.1892 4.83669 11.2485 4.68751 11.2485H3.56251C3.41332 11.2485 3.27025 11.1892 3.16476 11.0837C3.05927 10.9782 3.00001 10.8352 3.00001 10.686V9.56098C3.00001 9.41179 3.05927 9.26872 3.16476 9.16323C3.27025 9.05774 3.41332 8.99848 3.56251 8.99848H4.68751C4.83669 8.99848 4.97976 9.05774 5.08525 9.16323C5.19074 9.26872 5.25001 9.41179 5.25001 9.56098V10.686ZM5.25001 6.93597C5.25001 7.08516 5.19074 7.22823 5.08525 7.33372C4.97976 7.43921 4.83669 7.49848 4.68751 7.49848H3.56251C3.41332 7.49848 3.27025 7.43921 3.16476 7.33372C3.05927 7.22823 3.00001 7.08516 3.00001 6.93597V5.81097C3.00001 5.66179 3.05927 5.51872 3.16476 5.41323C3.27025 5.30774 3.41332 5.24847 3.56251 5.24847H4.68751C4.83669 5.24847 4.97976 5.30774 5.08525 5.41323C5.19074 5.51872 5.25001 5.66179 5.25001 5.81097V6.93597ZM16.5788 12.7485H7.42126C7.22234 12.7485 7.03158 12.6695 6.89093 12.5288C6.75027 12.3882 6.67126 12.1974 6.67126 11.9985C6.67126 11.7996 6.75027 11.6088 6.89093 11.4681C7.03158 11.3275 7.22234 11.2485 7.42126 11.2485H16.5788C16.7777 11.2485 16.9684 11.3275 17.1091 11.4681C17.2497 11.6088 17.3288 11.7996 17.3288 11.9985C17.3288 12.1974 17.2497 12.3882 17.1091 12.5288C16.9684 12.6695 16.7777 12.7485 16.5788 12.7485ZM21 18.186C21 18.3352 20.9407 18.4782 20.8353 18.5837C20.7298 18.6892 20.5867 18.7485 20.4375 18.7485H19.3125C19.1633 18.7485 19.0202 18.6892 18.9148 18.5837C18.8093 18.4782 18.75 18.3352 18.75 18.186V17.061C18.75 16.9118 18.8093 16.7687 18.9148 16.6632C19.0202 16.5577 19.1633 16.4985 19.3125 16.4985H20.4375C20.5867 16.4985 20.7298 16.5577 20.8353 16.6632C20.9407 16.7687 21 16.9118 21 17.061V18.186ZM21 14.436C21 14.5852 20.9407 14.7282 20.8353 14.8337C20.7298 14.9392 20.5867 14.9985 20.4375 14.9985H19.3125C19.1633 14.9985 19.0202 14.9392 18.9148 14.8337C18.8093 14.7282 18.75 14.5852 18.75 14.436V13.311C18.75 13.1618 18.8093 13.0187 18.9148 12.9132C19.0202 12.8077 19.1633 12.7485 19.3125 12.7485H20.4375C20.5867 12.7485 20.7298 12.8077 20.8353 12.9132C20.9407 13.0187 21 13.1618 21 13.311V14.436ZM21 10.686C21 10.8352 20.9407 10.9782 20.8353 11.0837C20.7298 11.1892 20.5867 11.2485 20.4375 11.2485H19.3125C19.1633 11.2485 19.0202 11.1892 18.9148 11.0837C18.8093 10.9782 18.75 10.8352 18.75 10.686V9.56098C18.75 9.41179 18.8093 9.26872 18.9148 9.16323C19.0202 9.05774 19.1633 8.99848 19.3125 8.99848H20.4375C20.5867 8.99848 20.7298 9.05774 20.8353 9.16323C20.9407 9.26872 21 9.41179 21 9.56098V10.686ZM21 6.93597C21 7.08516 20.9407 7.22823 20.8353 7.33372C20.7298 7.43921 20.5867 7.49848 20.4375 7.49848H19.3125C19.1633 7.49848 19.0202 7.43921 18.9148 7.33372C18.8093 7.22823 18.75 7.08516 18.75 6.93597V5.81097C18.75 5.66179 18.8093 5.51872 18.9148 5.41323C19.0202 5.30774 19.1633 5.24847 19.3125 5.24847H20.4375C20.5867 5.24847 20.7298 5.30774 20.8353 5.41323C20.9407 5.51872 21 5.66179 21 5.81097V6.93597Z" fill="#666666"/>
</svg>
