<svg width="24" height="24" viewBox="0 0 24 24" fill="none" xmlns="http://www.w3.org/2000/svg">
<g clip-path="url(#clip0_32_1593)">
<path d="M22.125 7.87436H1.87502C1.57665 7.87436 1.2905 7.75583 1.07952 7.54485C0.868542 7.33388 0.750015 7.04773 0.750015 6.74936C0.750015 6.45099 0.868542 6.16484 1.07952 5.95386C1.2905 5.74289 1.57665 5.62436 1.87502 5.62436H22.125C22.4234 5.62436 22.7095 5.74289 22.9205 5.95386C23.1315 6.16484 23.25 6.45099 23.25 6.74936C23.25 7.04773 23.1315 7.33388 22.9205 7.54485C22.7095 7.75583 22.4234 7.87436 22.125 7.87436ZM18.375 13.1244H5.62502C5.32665 13.1244 5.0405 13.0058 4.82952 12.7949C4.61854 12.5839 4.50002 12.2977 4.50002 11.9994C4.50002 11.701 4.61854 11.4148 4.82952 11.2039C5.0405 10.9929 5.32665 10.8744 5.62502 10.8744H18.375C18.6734 10.8744 18.9595 10.9929 19.1705 11.2039C19.3815 11.4148 19.5 11.701 19.5 11.9994C19.5 12.2977 19.3815 12.5839 19.1705 12.7949C18.9595 13.0058 18.6734 13.1244 18.375 13.1244ZM13.875 18.3744H10.125C9.82665 18.3744 9.5405 18.2558 9.32952 18.0449C9.11854 17.8339 9.00002 17.5477 9.00002 17.2494C9.00002 16.951 9.11854 16.6648 9.32952 16.4539C9.5405 16.2429 9.82665 16.1244 10.125 16.1244H13.875C14.1734 16.1244 14.4595 16.2429 14.6705 16.4539C14.8815 16.6648 15 16.951 15 17.2494C15 17.5477 14.8815 17.8339 14.6705 18.0449C14.4595 18.2558 14.1734 18.3744 13.875 18.3744Z" fill="#666666"/>
</g>
<defs>
<clipPath id="clip0_32_1593">
<rect width="24" height="24" fill="white"/>
</clipPath>
</defs>
</svg>
