<svg width="24" height="24" viewBox="0 0 24 24" fill="none" xmlns="http://www.w3.org/2000/svg">
<path d="M12.0001 2.24756C6.62398 2.24756 2.25008 6.62147 2.25008 11.9976C2.25008 17.3737 6.62398 21.7476 12.0001 21.7476C17.3762 21.7476 21.7501 17.3737 21.7501 11.9976C21.7501 6.62147 17.3762 2.24756 12.0001 2.24756ZM13.5001 16.4976H10.5001C10.3012 16.4976 10.1104 16.4185 9.96975 16.2779C9.82909 16.1372 9.75008 15.9465 9.75008 15.7476C9.75008 15.5486 9.82909 15.3579 9.96975 15.2172C10.1104 15.0766 10.3012 14.9976 10.5001 14.9976H13.5001C13.699 14.9976 13.8898 15.0766 14.0304 15.2172C14.1711 15.3579 14.2501 15.5486 14.2501 15.7476C14.2501 15.9465 14.1711 16.1372 14.0304 16.2779C13.8898 16.4185 13.699 16.4976 13.5001 16.4976ZM15.7501 13.4976H8.25008C8.05116 13.4976 7.8604 13.4185 7.71975 13.2779C7.57909 13.1372 7.50008 12.9465 7.50008 12.7476C7.50008 12.5486 7.57909 12.3579 7.71975 12.2172C7.8604 12.0766 8.05116 11.9976 8.25008 11.9976H15.7501C15.949 11.9976 16.1398 12.0766 16.2804 12.2172C16.4211 12.3579 16.5001 12.5486 16.5001 12.7476C16.5001 12.9465 16.4211 13.1372 16.2804 13.2779C16.1398 13.4185 15.949 13.4976 15.7501 13.4976ZM17.2501 10.4976H6.75008C6.55116 10.4976 6.3604 10.4185 6.21975 10.2779C6.07909 10.1372 6.00008 9.94647 6.00008 9.74756C6.00008 9.54865 6.07909 9.35788 6.21975 9.21723C6.3604 9.07658 6.55116 8.99756 6.75008 8.99756H17.2501C17.449 8.99756 17.6398 9.07658 17.7804 9.21723C17.9211 9.35788 18.0001 9.54865 18.0001 9.74756C18.0001 9.94647 17.9211 10.1372 17.7804 10.2779C17.6398 10.4185 17.449 10.4976 17.2501 10.4976Z" fill="#666666"/>
</svg>
