<svg width="24" height="24" viewBox="0 0 24 24" fill="none" xmlns="http://www.w3.org/2000/svg">
<path d="M2.66196 9.39975L3.24134 9.75131L3.58587 9.11475C4.36259 7.81397 6.73962 4.77881 11.9999 4.77881C17.3906 4.77881 19.6874 8.07506 20.4421 9.15975L20.8246 9.75506L22.0256 8.99756L21.6252 8.37131C21.209 7.76897 20.3352 6.51834 18.7762 5.4135C16.882 4.06725 14.6015 3.38428 11.9999 3.38428C5.99665 3.38428 3.24884 6.90506 2.34368 8.41162L1.99821 8.99756L2.53118 9.31912C2.55542 9.33807 2.58095 9.3553 2.60759 9.37069C2.62519 9.38132 2.64334 9.39102 2.66196 9.39975Z" fill="#666666"/>
<path d="M17.7761 8.07718C16.1101 6.72109 14.1142 6.00296 12.0001 6.00296C7.42886 6.00296 4.39183 9.09671 3.40652 12.1656C2.50417 14.9997 3.60105 19.1064 3.64699 19.2822L3.8523 19.9295L5.25527 19.6281L5.03308 18.925C5.02324 18.8898 3.99714 15.0376 4.77949 12.587C5.20136 11.2708 6.07933 9.99015 7.18652 9.08124C8.52246 7.98671 10.1884 7.40593 12.0001 7.40593C16.2461 7.40593 18.6531 10.7158 19.3337 12.4736C19.862 13.8297 19.7401 15.3714 19.0393 16.3173C18.7801 16.6637 18.3231 17.0706 17.6275 17.0355C16.0426 16.9548 15.7684 16.1716 15.3873 14.68C15.2045 13.9619 15.017 13.2184 14.5496 12.6175C13.9806 11.8792 13.1528 11.5225 12.0053 11.5225C10.771 11.5225 9.83636 11.9294 9.22183 12.7281C7.88121 14.4756 8.75308 17.4592 8.79011 17.5848L8.80043 17.6247C8.86652 17.8056 10.4917 22.1552 14.844 23.2347L15.5364 23.3852L15.9156 22.0394L15.1998 21.8786C11.7207 21.0147 10.2681 17.4541 10.1565 17.1728C10.0308 16.7164 9.95069 16.2486 9.91746 15.7764C9.86683 15.0986 9.90246 14.1644 10.3595 13.5667C10.6946 13.1298 11.2332 12.9189 12.0001 12.9189C13.3965 12.9189 13.6304 13.6019 13.996 15.0184C14.3514 16.3994 14.8398 18.2927 17.5511 18.4286C18.5921 18.4787 19.532 18.0166 20.192 17.1325C21.1825 15.8069 21.3704 13.7776 20.6696 11.9697C20.1221 10.5466 19.0661 9.13187 17.7761 8.07718Z" fill="#666666"/>
<path d="M7.22713 16.0855C7.06447 14.7599 7.29322 12.7574 8.47166 11.4552C9.28916 10.551 10.4774 10.0958 11.9962 10.0958C13.7535 10.0958 15.0838 10.8796 15.9576 12.4213C16.3876 13.1949 16.6717 14.041 16.7957 14.9174L16.8628 15.606L18.269 15.5029C18.2703 15.2583 18.2547 15.014 18.2221 14.7716C18.217 14.7116 18.0548 13.2501 17.2378 11.7833C16.1099 9.76256 14.302 8.69287 11.9999 8.69287C10.0546 8.69287 8.50541 9.31069 7.40338 10.5262C5.91041 12.1733 5.60572 14.5691 5.81385 16.2613V16.2768C6.18744 18.8329 7.17181 20.8771 8.91322 22.7052L9.45697 23.2312L10.439 22.2098L9.95431 21.7508C8.42056 20.144 7.55197 18.3458 7.22713 16.0855ZM6.20947 3.4035C6.72885 3.0885 8.56588 2.14865 11.9999 2.14865C16.1034 2.14865 17.9268 3.4949 17.947 3.50475L18.5985 3.92006L19.3593 2.73834L18.7396 2.33709C18.7153 2.31928 18.6899 2.30147 18.6646 2.28459C18.0703 1.89787 15.9628 0.747559 11.9999 0.747559C7.88853 0.747559 5.77728 1.98881 5.2776 2.32772L4.64056 2.74068L5.39994 3.9224L6.20947 3.4035Z" fill="#666666"/>
<path d="M18.3089 19.4579C16.7447 19.6336 15.4753 19.3327 14.5256 18.5743C12.9206 17.2885 12.7125 15.0535 12.7073 15.0118L12.6497 14.3143L11.2186 14.4188L11.28 15.1219C11.2903 15.2372 11.5237 17.9696 13.6059 19.6472C14.6423 20.4858 15.9375 20.9077 17.4609 20.9077C17.7987 20.907 18.1361 20.8869 18.4715 20.8472L19.2492 20.7493L18.9632 19.3566L18.3089 19.4579Z" fill="#666666"/>
</svg>
