<svg width="24" height="24" viewBox="0 0 24 24" fill="none" xmlns="http://www.w3.org/2000/svg">
<path d="M18.301 3.52637C18.2134 3.52659 18.1272 3.50328 18.0517 3.45887C15.9713 2.34511 14.1727 1.87262 12.0165 1.87262C9.87103 1.87262 7.83384 2.40137 5.98087 3.45887C5.71884 3.60699 5.39587 3.50387 5.24399 3.23199C5.1762 3.10077 5.16091 2.94866 5.20122 2.80657C5.24153 2.66448 5.33443 2.54306 5.46103 2.46699C7.45948 1.33354 9.719 0.740912 12.0165 0.747615C14.3242 0.747615 16.3398 1.27636 18.5504 2.45762C18.6794 2.52853 18.7754 2.64717 18.8179 2.78809C18.8604 2.929 18.846 3.08096 18.7777 3.21137C18.7367 3.30395 18.67 3.38283 18.5855 3.43866C18.501 3.49449 18.4023 3.52492 18.301 3.52637ZM2.79524 9.43262C2.68266 9.43182 2.57303 9.39647 2.48118 9.33137C2.36168 9.24255 2.28131 9.11083 2.257 8.96393C2.23269 8.81704 2.26634 8.66644 2.35087 8.54387C3.42384 6.96887 4.78837 5.73137 6.41446 4.86512C9.81665 3.04449 14.1727 3.03137 17.5857 4.85387C19.2113 5.72012 20.5763 6.94637 21.6493 8.51012C21.7335 8.6328 21.7669 8.7833 21.7426 8.93009C21.7183 9.07688 21.6382 9.20859 21.519 9.29762C21.4612 9.34085 21.3951 9.37175 21.3248 9.38841C21.2545 9.40507 21.1816 9.40714 21.1105 9.39448C21.0394 9.38183 20.9717 9.35472 20.9115 9.31484C20.8513 9.27496 20.7999 9.22315 20.7606 9.16262C19.7856 7.74512 18.5504 6.63137 17.0874 5.85512C13.9777 4.20137 10.0009 4.20137 6.90196 5.86637C5.42821 6.65387 4.19306 7.77887 3.21806 9.19449C3.17601 9.26898 3.11439 9.33055 3.03986 9.37252C2.96533 9.4145 2.88074 9.43528 2.79524 9.43262ZM9.56728 23.0132C9.49567 23.0139 9.42474 22.9992 9.35932 22.9701C9.29389 22.941 9.23548 22.8982 9.18806 22.8445C8.2454 21.8639 7.73446 21.232 7.01024 19.8726C6.26024 18.4889 5.87259 16.8014 5.87259 14.9901C5.87259 11.6489 8.62462 8.92637 12.0057 8.92637C15.3868 8.92637 18.1407 11.6489 18.1407 14.9901C18.1428 15.0626 18.1304 15.1347 18.1042 15.2023C18.0779 15.2699 18.0383 15.3315 17.9878 15.3835C17.9373 15.4356 17.8769 15.4769 17.8101 15.5051C17.7433 15.5334 17.6716 15.5479 17.5991 15.5479C17.5266 15.5479 17.4548 15.5334 17.388 15.5051C17.3213 15.4769 17.2608 15.4356 17.2103 15.3835C17.1598 15.3315 17.1203 15.2699 17.094 15.2023C17.0677 15.1347 17.0553 15.0626 17.0574 14.9901C17.0574 12.2676 14.7924 10.0514 12.0081 10.0514C9.22368 10.0514 6.95634 12.2676 6.95634 14.9901C6.95634 16.6101 7.30274 18.1064 7.96368 19.3214C8.65743 20.6151 9.13556 21.1664 9.96853 22.0439C10.0673 22.1531 10.122 22.2951 10.122 22.4423C10.122 22.5896 10.0673 22.7316 9.96853 22.8407C9.86217 22.9481 9.71832 23.0099 9.56728 23.0132ZM17.3368 20.932C16.0473 20.932 14.9096 20.5945 13.9777 19.9307C13.1838 19.3743 12.5352 18.6352 12.0866 17.7757C11.6379 16.9162 11.4023 15.9615 11.3996 14.992C11.3966 14.9189 11.4083 14.846 11.4342 14.7776C11.4601 14.7092 11.4995 14.6468 11.5501 14.594C11.6007 14.5412 11.6615 14.4993 11.7288 14.4706C11.796 14.4419 11.8684 14.4271 11.9415 14.4271C12.0146 14.4271 12.087 14.4419 12.1542 14.4706C12.2215 14.4993 12.2823 14.5412 12.3329 14.594C12.3835 14.6468 12.4229 14.7092 12.4488 14.7776C12.4746 14.846 12.4864 14.9189 12.4834 14.992C12.4852 15.7795 12.6773 16.5549 13.0432 17.2522C13.4092 17.9495 13.9382 18.5481 14.5852 18.997C15.3545 19.537 16.254 19.7939 17.3377 19.7939C17.7152 19.7872 18.0914 19.7495 18.4627 19.6814C18.7552 19.6251 19.037 19.8276 19.0909 20.1426C19.1183 20.288 19.087 20.4383 19.0038 20.5606C18.9206 20.683 18.7923 20.7673 18.647 20.7951C18.2153 20.8804 17.7768 20.9256 17.3368 20.9301V20.932ZM15.1585 23.2476C15.1109 23.2456 15.0637 23.2381 15.0179 23.2251C13.2948 22.7301 12.1679 22.0664 10.9867 20.8626C9.46931 19.2989 8.6354 17.2176 8.6354 14.9901C8.6354 13.1676 10.1307 11.6826 11.9724 11.6826C13.8142 11.6826 15.3099 13.1676 15.3099 14.9901C15.3099 16.1939 16.3177 17.1726 17.5637 17.1726C18.8096 17.1726 19.8174 16.1939 19.8174 14.9901C19.8174 10.7489 16.2957 7.30637 11.9617 7.30637C8.88431 7.30637 6.06712 9.08387 4.79962 11.8401C4.37774 12.7514 4.16024 13.8201 4.16024 14.9901C4.16024 15.8676 4.23571 17.2514 4.88587 19.0514C4.99462 19.3439 4.85353 19.6701 4.57181 19.7714C4.50485 19.7969 4.43344 19.8086 4.36185 19.8058C4.29027 19.803 4.21998 19.7857 4.15523 19.7551C4.09047 19.7244 4.03258 19.681 3.98503 19.6274C3.93748 19.5738 3.90125 19.5112 3.87853 19.4432C3.35571 18.0167 3.08788 16.5094 3.08728 14.9901C3.08728 13.6401 3.33665 12.412 3.82415 11.3451C5.26556 8.20449 8.46196 6.17012 11.9617 6.17012C16.892 6.17012 20.9012 10.1189 20.9012 14.9789C20.9012 16.8014 19.4059 18.2864 17.5637 18.2864C15.7215 18.2864 14.2262 16.8014 14.2262 14.9789C14.2267 13.7751 13.2188 12.7945 11.9729 12.7945C10.727 12.7945 9.71915 13.7732 9.71915 14.977C9.71915 16.8989 10.4345 18.7007 11.7456 20.0507C12.7768 21.1082 13.7612 21.6914 15.2888 22.132C15.5813 22.2107 15.744 22.5257 15.6681 22.8182C15.6444 22.937 15.5811 23.0442 15.4885 23.1222C15.3959 23.2002 15.2796 23.2444 15.1585 23.2476Z" fill="#666666"/>
</svg>
