<svg width="24" height="24" viewBox="0 0 24 24" fill="none" xmlns="http://www.w3.org/2000/svg">
<path d="M15.7242 11.9994C15.7237 10.2211 16.194 8.47441 17.0874 6.93686L17.4445 6.3153C16.6958 6.13711 15.9329 6.02496 15.1645 5.98014C14.1361 5.18795 12.6033 4.24811 10.8361 3.94905L9.75001 3.74936L10.3767 6.64905C8.42345 7.31186 6.70032 8.65811 5.55986 9.58436C5.33923 9.39967 5.10829 9.2192 4.86704 9.04295C3.00564 7.68358 0.995168 7.55233 0.910793 7.54764L1.14441e-05 7.49936L0.125168 8.40452C0.138761 8.49827 0.443449 10.5012 1.60876 11.9914C0.443449 13.482 0.140636 15.4836 0.125168 15.5787L1.14441e-05 16.4994L0.910793 16.4356C0.995168 16.4309 3.00564 16.3001 4.86704 14.9403C5.10392 14.7675 5.33142 14.5898 5.54954 14.4073C6.69189 15.3369 8.41548 16.6855 10.3711 17.3483L9.75001 20.2494L10.8361 20.0515C12.5934 19.7544 14.1211 18.814 15.1486 18.0209C15.9277 17.9759 16.7013 17.8625 17.4605 17.682L17.0897 17.0642C16.1953 15.5261 15.7242 13.7786 15.7242 11.9994Z" fill="#666666"/>
<path d="M23.4182 10.3917C23.144 9.92857 22.6429 9.22451 21.8156 8.50357C20.9543 7.76186 19.971 7.17505 18.9093 6.7692L18.3857 7.68466C17.6256 8.99352 17.2249 10.48 17.2242 11.9936C17.2234 13.5071 17.6227 14.994 18.3815 16.3036L18.9323 17.2209C19.9829 16.82 20.9568 16.2414 21.8114 15.5104C23.2992 14.2223 24 12.6065 24 11.9972C24 11.4201 23.625 10.7437 23.4182 10.3917ZM19.5 11.9972C19.3516 11.9972 19.2066 11.9532 19.0833 11.8708C18.9599 11.7884 18.8638 11.6712 18.8071 11.5342C18.7503 11.3971 18.7354 11.2463 18.7644 11.1008C18.7933 10.9554 18.8647 10.8217 18.9696 10.7168C19.0745 10.6119 19.2082 10.5405 19.3536 10.5116C19.4991 10.4826 19.6499 10.4975 19.787 10.5543C19.924 10.611 20.0412 10.7072 20.1236 10.8305C20.206 10.9538 20.25 11.0988 20.25 11.2472C20.25 11.4461 20.1709 11.6368 20.0303 11.7775C19.8896 11.9181 19.6989 11.9972 19.5 11.9972Z" fill="#666666"/>
</svg>
