<svg width="24" height="24" viewBox="0 0 24 24" fill="none" xmlns="http://www.w3.org/2000/svg">
<g clip-path="url(#clip0_32_1614)">
<path d="M24.0001 11.999C24.0001 11.2237 23.3312 9.80715 21.8621 8.53027C21.0236 7.80902 20.0679 7.2364 19.0365 6.83715C19.0022 6.82431 18.9643 6.82469 18.9303 6.83821C18.8962 6.85172 18.8684 6.8774 18.8522 6.91027C18.8452 6.92386 18.8382 6.93699 18.8302 6.95058L18.3807 7.6959C17.6226 9.00494 17.2237 10.491 17.2242 12.0037C17.2248 13.5164 17.6249 15.0021 18.384 16.3106L18.3947 16.3289L18.8044 17.0789C18.8262 17.1187 18.8616 17.1493 18.9042 17.165C18.9468 17.1807 18.9936 17.1804 19.036 17.1642C22.4827 15.8156 24.0001 13.1939 24.0001 11.999ZM19.5976 11.9925C19.4422 12.0128 19.2844 11.9839 19.1463 11.91C19.0082 11.8361 18.8967 11.7207 18.8275 11.5802C18.7583 11.4397 18.7348 11.281 18.7603 11.1265C18.7859 10.9719 18.8592 10.8292 18.97 10.7185C19.0807 10.6077 19.2234 10.5344 19.378 10.5088C19.5325 10.4833 19.6912 10.5068 19.8317 10.576C19.9723 10.6452 20.0876 10.7567 20.1615 10.8948C20.2354 11.0329 20.2643 11.1907 20.244 11.3461C20.2225 11.51 20.1475 11.6622 20.0306 11.7791C19.9137 11.896 19.7615 11.971 19.5976 11.9925Z" fill="#666666"/>
<path d="M15.7242 11.9982C15.7236 10.2199 16.1939 8.47322 17.0873 6.9357L17.093 6.92585L17.3095 6.56632C17.3252 6.54071 17.3345 6.51171 17.3366 6.48177C17.3387 6.45182 17.3336 6.42181 17.3217 6.39425C17.3098 6.36669 17.2914 6.34239 17.2682 6.32339C17.245 6.30439 17.2175 6.29125 17.1881 6.28507C16.5813 6.15815 15.9664 6.07373 15.3478 6.03242C15.2749 6.02771 15.2049 6.00162 15.1467 5.95742C14.243 5.27023 12.4514 4.06835 10.6252 3.75945C10.5004 3.73877 10.3724 3.74999 10.2531 3.79207C10.1338 3.83415 10.0271 3.90572 9.94285 4.00012C9.85865 4.09452 9.79969 4.20869 9.77146 4.332C9.74324 4.45531 9.74666 4.58375 9.7814 4.70539L10.2792 6.44773C10.2922 6.49288 10.2877 6.54125 10.2667 6.58326C10.2457 6.62527 10.2097 6.65787 10.1658 6.6746C8.43844 7.31632 6.95062 8.49101 5.86547 9.38632C5.79905 9.44068 5.716 9.47062 5.63018 9.47113C5.54436 9.47164 5.46096 9.4427 5.3939 9.38914C5.2464 9.27195 5.095 9.15648 4.93968 9.04273C3.08156 7.6857 0.898591 7.5071 0.806716 7.50054C0.690066 7.49173 0.572972 7.51033 0.464792 7.55484C0.356612 7.59936 0.260346 7.66857 0.183688 7.75694C0.107029 7.8453 0.0521039 7.95037 0.0233016 8.06375C-0.00550081 8.17713 -0.00738158 8.29568 0.0178096 8.40992C0.0374971 8.50039 0.448591 10.3173 1.50375 11.7666C1.55125 11.8316 1.57685 11.91 1.57685 11.9905C1.57685 12.0709 1.55125 12.1493 1.50375 12.2143C0.448591 13.6632 0.0374971 15.4805 0.0178096 15.571C-0.00738158 15.6852 -0.00550081 15.8038 0.0233016 15.9172C0.0521039 16.0306 0.107029 16.1356 0.183688 16.224C0.260346 16.3124 0.356612 16.3816 0.464792 16.4261C0.572972 16.4706 0.690066 16.4892 0.806716 16.4804C0.900466 16.4738 3.08156 16.2929 4.93734 14.9391C5.0889 14.8279 5.23687 14.7151 5.38125 14.6007C5.44836 14.5472 5.53179 14.5183 5.61761 14.5189C5.70343 14.5195 5.78645 14.5496 5.85281 14.604C6.94265 15.5035 8.43328 16.6796 10.1653 17.3227C10.2091 17.3395 10.245 17.372 10.266 17.4139C10.287 17.4558 10.2916 17.504 10.2787 17.5491L9.77906 19.2919C9.74431 19.4136 9.74089 19.542 9.76912 19.6653C9.79735 19.7886 9.85631 19.9028 9.94051 19.9972C10.0247 20.0916 10.1314 20.1632 10.2507 20.2053C10.37 20.2473 10.498 20.2586 10.6228 20.2379C11.4272 20.1019 13.0547 19.6351 15.1252 18.0427C15.1843 17.9976 15.2553 17.9707 15.3295 17.9654C15.9473 17.9249 16.5616 17.8419 17.168 17.7169C17.1966 17.7109 17.2234 17.6983 17.2463 17.6801C17.2692 17.6619 17.2875 17.6386 17.2997 17.612C17.312 17.5854 17.3178 17.5564 17.3168 17.5272C17.3159 17.4979 17.3081 17.4693 17.2941 17.4437L17.0827 17.0551C16.1918 15.5187 15.7232 13.7741 15.7242 11.9982Z" fill="#666666"/>
</g>
<defs>
<clipPath id="clip0_32_1614">
<rect width="24" height="24" fill="white"/>
</clipPath>
</defs>
</svg>
