<svg width="24" height="24" viewBox="0 0 24 24" fill="none" xmlns="http://www.w3.org/2000/svg">
<path d="M11.25 7.12256C8.87295 7.6949 6.8367 9.57459 5.61092 10.5646C5.25728 10.2369 4.8846 9.93047 4.49482 9.64678C2.79045 8.40178 0.749979 8.24756 0.749979 8.24756C0.749979 8.24756 1.28295 10.663 2.68873 11.9896C1.28295 13.3166 0.749979 15.7321 0.749979 15.7321C0.749979 15.7321 2.79045 15.5779 4.49482 14.3329C4.88131 14.0516 5.25086 13.7478 5.60154 13.423C6.82498 14.414 8.87061 16.2983 11.25 16.8726L10.5 19.4976C12.3483 19.1849 14.1965 17.833 14.94 17.2358C21 16.9663 23.25 13.0757 23.25 11.9976C23.25 10.9663 21 7.02881 14.9583 6.76022C14.2275 6.17475 12.3637 4.81256 10.5 4.49756L11.25 7.12256Z" stroke="#666666" stroke-width="1.5" stroke-linejoin="round"/>
<path d="M19.5 11.9967C19.9142 11.9967 20.25 11.6609 20.25 11.2467C20.25 10.8325 19.9142 10.4967 19.5 10.4967C19.0857 10.4967 18.75 10.8325 18.75 11.2467C18.75 11.6609 19.0857 11.9967 19.5 11.9967Z" fill="#666666"/>
<path d="M17.7362 16.6851C16.9098 15.2611 16.4745 13.644 16.4745 11.9976C16.4745 10.3512 16.9098 8.73402 17.7362 7.31006" stroke="#666666" stroke-width="1.5" stroke-miterlimit="20" stroke-linecap="round"/>
</svg>
