<svg width="24" height="24" viewBox="0 0 24 24" fill="none" xmlns="http://www.w3.org/2000/svg">
<path d="M22.4999 12.7458H20.7496C20.5001 13.2653 20.2142 13.7665 19.8941 14.2458H22.4999V12.7458ZM1.49992 11.2458V12.7458H3.25023C3.01859 12.2613 2.82428 11.7598 2.66898 11.2458H1.49992Z" fill="#666666"/>
<path d="M14.25 12.1743L11.8251 17.024L9.57511 9.52402L7.96355 12.7471H3.25027C3.71902 13.7278 4.35183 14.6882 5.1548 15.6384C7.03542 17.8631 9.57277 19.3767 11.5767 20.7159L11.9985 20.9971L12.4204 20.7159C14.4257 19.3767 16.9631 17.8631 18.8423 15.6384C19.2194 15.1953 19.5706 14.7307 19.8942 14.2471H15.2864L14.25 12.1743Z" fill="#666666"/>
<path d="M9.92492 5.47068L12.1749 12.9707L14.2501 8.82037L16.2137 12.7476H20.7498C21.4248 11.3553 21.7673 9.82523 21.7501 8.27803C21.7205 5.36662 19.3848 2.99756 16.5432 2.99756C14.288 2.99756 12.7885 4.31006 12.0001 5.2574C11.2116 4.31006 9.71211 2.99756 7.45695 2.99756C4.61539 2.99756 2.27961 5.36662 2.25007 8.27803C2.23818 9.28341 2.37949 10.2847 2.66914 11.2476H7.03648L9.92492 5.47068Z" fill="#666666"/>
</svg>
