<svg width="24" height="24" viewBox="0 0 24 24" fill="none" xmlns="http://www.w3.org/2000/svg">
<path d="M16.5432 3.74936C13.5 3.74936 12 6.74936 12 6.74936C12 6.74936 10.5 3.74936 7.4569 3.74936C4.98377 3.74936 3.02533 5.81842 3.00002 8.28733C2.94846 13.4122 7.06549 17.0567 11.5781 20.1195C11.7026 20.2042 11.8496 20.2494 12 20.2494C12.1505 20.2494 12.2975 20.2042 12.4219 20.1195C16.9341 17.0567 21.0511 13.4122 21 8.28733C20.9747 5.81842 19.0163 3.74936 16.5432 3.74936V3.74936Z" stroke="#666666" stroke-width="1.5" stroke-linecap="round" stroke-linejoin="round"/>
<path d="M2.25008 11.9994H7.50008L9.75008 7.49936L12.0001 14.9994L14.2501 10.4994L15.7501 13.4994H21.7501" stroke="#666666" stroke-width="1.5" stroke-linecap="round" stroke-linejoin="round"/>
</svg>
