<svg width="24" height="24" viewBox="0 0 24 24" fill="none" xmlns="http://www.w3.org/2000/svg">
<path d="M9.07924 7.16193C9.14642 7.02747 9.25246 6.91629 9.3836 6.84283C9.51474 6.76936 9.66493 6.737 9.81469 6.74993C9.96445 6.76287 10.1069 6.8205 10.2235 6.91537C10.3401 7.01023 10.4255 7.13794 10.4686 7.28193L12.1749 12.9707L13.5811 10.1619C13.6434 10.0374 13.7392 9.93262 13.8576 9.85941C13.9761 9.7862 14.1126 9.74742 14.2519 9.74742C14.3912 9.74742 14.5277 9.7862 14.6462 9.85941C14.7646 9.93262 14.8604 10.0374 14.9227 10.1619L16.2136 12.7476H20.7492C21.4245 11.3553 21.7671 9.82528 21.75 8.27803C21.7205 5.36662 19.3847 2.99756 16.5431 2.99756C14.2889 2.99756 12.7931 4.38225 12 5.38818C11.2088 4.38084 9.71111 2.99756 7.45689 2.99756C4.61533 2.99756 2.27955 5.36662 2.25002 8.27803C2.2379 9.28339 2.37905 10.2847 2.66861 11.2476H7.03642L9.07924 7.16193Z" fill="#666666"/>
<path d="M15.0792 13.8328L14.25 12.1743L12.6708 15.3328C12.6084 15.4573 12.5127 15.562 12.3942 15.6352C12.2757 15.7084 12.1392 15.7472 12 15.7471C11.979 15.7471 11.9575 15.7462 11.9353 15.7443C11.7852 15.7319 11.6423 15.6745 11.5252 15.5797C11.4082 15.4849 11.3224 15.357 11.279 15.2128L9.57279 9.52402L8.16654 12.3328C8.10455 12.4567 8.00945 12.561 7.89179 12.6341C7.77413 12.7073 7.63851 12.7464 7.49998 12.7471H3.25076C3.68826 13.6625 4.2706 14.5634 4.99779 15.45C5.87763 16.5225 7.47279 18.2371 11.1567 20.7379C11.4051 20.9082 11.6993 20.9993 12.0004 20.9993C12.3016 20.9993 12.5958 20.9082 12.8442 20.7379C16.5281 18.2371 18.1233 16.5225 19.0031 15.45C19.32 15.0642 19.6173 14.6628 19.8937 14.2471H15.75C15.6107 14.2472 15.4742 14.2084 15.3557 14.1352C15.2373 14.062 15.1415 13.9573 15.0792 13.8328ZM21.75 12.7471H20.7492C20.4998 13.2667 20.214 13.768 19.8937 14.2471H21.75C21.9489 14.2471 22.1397 14.1681 22.2803 14.0275C22.421 13.8868 22.5 13.6961 22.5 13.4971C22.5 13.2982 22.421 13.1075 22.2803 12.9668C22.1397 12.8262 21.9489 12.7471 21.75 12.7471ZM2.24998 11.2471C2.05106 11.2471 1.8603 11.3262 1.71965 11.4668C1.57899 11.6075 1.49998 11.7982 1.49998 11.9971C1.49998 12.1961 1.57899 12.3868 1.71965 12.5275C1.8603 12.6681 2.05106 12.7471 2.24998 12.7471H3.25076C3.01882 12.2627 2.82419 11.7612 2.66857 11.2471H2.24998Z" fill="#666666"/>
</svg>
