<svg width="24" height="24" viewBox="0 0 24 24" fill="none" xmlns="http://www.w3.org/2000/svg">
<path d="M3.74998 21.7494V3.19342C3.75022 3.12782 3.76765 3.06343 3.80055 3.00667C3.83346 2.94992 3.88067 2.90279 3.93748 2.86998C4.30358 2.6553 5.29311 2.24936 7.49999 2.24936C10.5 2.24936 14.2969 4.49936 16.5 4.49936C17.7439 4.49613 18.9746 4.24482 20.1201 3.76014C20.1344 3.75419 20.1499 3.75186 20.1653 3.75335C20.1807 3.75485 20.1955 3.76012 20.2083 3.7687C20.2212 3.77729 20.2317 3.78891 20.239 3.80255C20.2462 3.81618 20.25 3.83141 20.25 3.84686V14.1294C20.2499 14.1657 20.2392 14.2012 20.2194 14.2315C20.1995 14.2619 20.1712 14.2858 20.138 14.3005C19.7517 14.4697 18.3905 14.9994 16.5 14.9994C14.25 14.9994 10.5 13.4994 7.49999 13.4994C4.49998 13.4994 3.74998 14.2494 3.74998 14.2494" stroke="#666666" stroke-width="1.5" stroke-miterlimit="10" stroke-linecap="round"/>
</svg>
