<svg width="24" height="24" viewBox="0 0 24 24" fill="none" xmlns="http://www.w3.org/2000/svg">
<path d="M3.75008 22.4967C3.55117 22.4967 3.3604 22.4177 3.21975 22.277C3.0791 22.1364 3.00008 21.9456 3.00008 21.7467V3.19027C3.00013 2.99376 3.05166 2.80069 3.14953 2.63029C3.24739 2.45989 3.38819 2.31809 3.55789 2.21902C4.12508 1.88949 5.26789 1.49667 7.50008 1.49667C9.2443 1.49667 11.1952 2.1862 12.9165 2.79417C14.3026 3.28402 15.6118 3.74667 16.5001 3.74667C17.6436 3.74317 18.7749 3.51212 19.8282 3.06699C19.9565 3.01284 20.0961 2.99128 20.2348 3.00422C20.3734 3.01716 20.5066 3.06421 20.6227 3.14115C20.7387 3.2181 20.8339 3.32257 20.8997 3.44523C20.9656 3.5679 21.0001 3.70495 21.0001 3.84417V14.1267C20.9999 14.3089 20.9466 14.4872 20.8467 14.6396C20.7468 14.792 20.6046 14.9121 20.4376 14.985C20.0293 15.1635 18.5387 15.7467 16.5001 15.7467C15.3685 15.7467 13.951 15.412 12.4505 15.0571C10.764 14.6587 9.02024 14.2467 7.50008 14.2467C5.7718 14.2467 4.88727 14.5082 4.50008 14.6737V21.7467C4.50008 21.9456 4.42106 22.1364 4.28041 22.277C4.13976 22.4177 3.94899 22.4967 3.75008 22.4967Z" fill="#666666"/>
</svg>
