<svg width="24" height="24" viewBox="0 0 24 24" fill="none" xmlns="http://www.w3.org/2000/svg">
<path d="M4.78127 22.4967H3.00002V2.68589L3.21986 2.46652C3.38158 2.30433 4.34908 1.49667 7.50002 1.49667C9.24424 1.49667 11.1952 2.1862 12.9164 2.79417C14.3025 3.28402 15.6117 3.74667 16.5 3.74667C18.5077 3.74667 19.9088 3.0787 19.9219 3.07167L21 2.54949V14.7103L20.5856 14.9175C20.5177 14.9498 18.8996 15.7467 16.5 15.7467C15.3685 15.7467 13.951 15.412 12.4505 15.0571C10.7639 14.6587 9.02018 14.2467 7.50002 14.2467C5.77174 14.2467 5.16846 14.5082 4.78127 14.6737V22.4967Z" fill="#666666"/>
</svg>
