<svg width="24" height="24" viewBox="0 0 24 24" fill="none" xmlns="http://www.w3.org/2000/svg">
<path d="M18.4794 9.2573C17.8987 7.71554 17.052 6.28764 15.9777 5.03855C14.1187 2.88652 11.6741 1.49667 9.7499 1.49667C9.63549 1.49676 9.52261 1.52302 9.4199 1.57345C9.3172 1.62388 9.22739 1.69714 9.15736 1.78762C9.08733 1.8781 9.03893 1.9834 9.01586 2.09547C8.99279 2.20753 8.99567 2.32339 9.02428 2.43417C9.67443 4.91855 8.32678 6.98433 6.90037 9.17105C5.71865 10.9823 4.4999 12.8531 4.4999 14.9967C4.4999 19.132 7.86459 22.4967 11.9999 22.4967C16.1352 22.4967 19.4999 19.132 19.4999 14.9967C19.4999 12.967 19.1568 11.0362 18.4794 9.2573ZM13.5154 19.6228C13.0312 20.1384 12.4241 20.2467 11.9999 20.2467C11.5757 20.2467 10.9687 20.1384 10.4844 19.6228C10.0002 19.1071 9.7499 18.2892 9.7499 17.2467C9.7499 16.0682 10.1633 15.1711 10.5627 14.3039C10.7947 13.8004 11.0315 13.2881 11.1721 12.7396C11.187 12.68 11.2164 12.6249 11.2576 12.5793C11.2989 12.5337 11.3507 12.4989 11.4085 12.478C11.4664 12.4571 11.5284 12.4508 11.5893 12.4595C11.6502 12.4683 11.708 12.4919 11.7576 12.5282C12.1863 12.8599 12.5675 13.2489 12.8905 13.6842C13.7422 14.8092 14.2499 16.1414 14.2499 17.2467C14.2499 18.2892 13.9958 19.1109 13.5154 19.6228Z" fill="#666666"/>
</svg>
