<svg width="24" height="24" viewBox="0 0 24 24" fill="none" xmlns="http://www.w3.org/2000/svg">
<path d="M18.4801 9.2573C17.8991 7.71561 17.0522 6.28774 15.9779 5.03855C14.1189 2.88652 11.2501 1.49667 9.00012 1.49667C9.89075 4.77792 8.327 6.98667 6.90059 9.17339C5.71887 10.9823 4.50012 12.8531 4.50012 14.9967C4.50012 19.132 7.86481 22.4967 12.0001 22.4967C16.1354 22.4967 19.5001 19.132 19.5001 14.9967C19.5001 12.967 19.157 11.0362 18.4801 9.2573ZM13.5156 19.6228C13.0314 20.1384 12.4243 20.2467 12.0001 20.2467C11.5759 20.2467 10.9689 20.1384 10.4847 19.6228C10.0004 19.1071 9.75012 18.2892 9.75012 17.2467C9.75012 16.0682 10.1636 15.1711 10.5629 14.3039C10.8667 13.6443 11.2501 13.0279 11.2712 12.2184C11.8009 12.494 12.3807 13.0111 12.8903 13.6846C13.742 14.8096 14.2497 16.1418 14.2497 17.2471C14.2501 18.2892 13.9961 19.1109 13.5156 19.6228Z" fill="#666666"/>
</svg>
