<svg width="24" height="24" viewBox="0 0 24 24" fill="none" xmlns="http://www.w3.org/2000/svg">
<path d="M5.25009 14.9994C5.25009 10.64 11.0626 7.26498 9.75009 2.24936C12.8438 2.24936 18.7501 6.74936 18.7501 14.9994C18.7501 16.7896 18.0389 18.5065 16.7731 19.7723C15.5072 21.0382 13.7903 21.7494 12.0001 21.7494C10.2099 21.7494 8.49299 21.0382 7.22712 19.7723C5.96124 18.5065 5.25009 16.7896 5.25009 14.9994V14.9994Z" stroke="#666666" stroke-width="1.5" stroke-linecap="round" stroke-linejoin="round"/>
<path d="M15.0001 17.2458C15.0001 19.9509 13.5001 20.9958 12.0001 20.9958C10.5001 20.9958 9.00009 19.9509 9.00009 17.2458C9.00009 14.5406 10.8751 13.2145 10.5001 11.2458C12.4688 11.2458 15.0001 14.5406 15.0001 17.2458Z" stroke="#666666" stroke-width="1.5" stroke-linecap="round" stroke-linejoin="round"/>
</svg>
