<svg width="24" height="24" viewBox="0 0 24 24" fill="none" xmlns="http://www.w3.org/2000/svg">
<g clip-path="url(#clip0_32_1640)">
<path d="M20.25 20.9958C20.1515 20.9959 20.0539 20.9766 19.9629 20.9388C19.8719 20.9011 19.7893 20.8457 19.7198 20.7759L3.21983 4.27591C3.08512 4.13412 3.01112 3.94531 3.01363 3.74973C3.01613 3.55416 3.09493 3.36731 3.23323 3.22901C3.37154 3.0907 3.55839 3.0119 3.75396 3.0094C3.94953 3.00689 4.13835 3.08089 4.28014 3.2156L20.7801 19.7156C20.885 19.8205 20.9563 19.9541 20.9853 20.0995C21.0142 20.245 20.9993 20.3957 20.9426 20.5327C20.8858 20.6697 20.7898 20.7868 20.6665 20.8693C20.5432 20.9517 20.3983 20.9957 20.25 20.9958ZM13.7972 3.94638L12.7622 9.61076C12.737 9.74826 12.7507 9.89008 12.8018 10.0202C12.8529 10.1503 12.9393 10.2636 13.0514 10.3472C13.1864 10.4457 13.3497 10.4979 13.5169 10.4958H17.9287L16.1301 12.7186C16.1011 12.7546 16.0863 12.8 16.0887 12.8462C16.0912 12.8925 16.1106 12.9361 16.1433 12.9689L16.9434 13.769C16.962 13.7876 16.9843 13.8021 17.0088 13.8116C17.0334 13.821 17.0596 13.8252 17.0859 13.8238C17.1121 13.8224 17.1378 13.8156 17.1612 13.8036C17.1847 13.7917 17.2053 13.7749 17.2219 13.7545L20.0719 10.2314C20.1485 10.1391 20.2024 10.0301 20.2292 9.91321C20.2561 9.79631 20.2552 9.67474 20.2266 9.55826C20.185 9.3972 20.091 9.25454 19.9595 9.15272C19.828 9.05089 19.6663 8.99568 19.5 8.99576H14.3995L15.7219 1.75966C15.7242 1.7456 15.7266 1.73201 15.728 1.71795C15.7518 1.53031 15.7135 1.34003 15.6189 1.17624C15.5243 1.01246 15.3786 0.884199 15.2042 0.811119C15.0297 0.738039 14.8361 0.724166 14.653 0.771625C14.4699 0.819084 14.3074 0.925258 14.1905 1.07388L9.85077 6.4392C9.82155 6.47522 9.80672 6.52079 9.80915 6.56711C9.81157 6.61343 9.83108 6.6572 9.86389 6.68998L10.6641 7.48967C10.6826 7.50827 10.7049 7.52276 10.7295 7.5322C10.754 7.54163 10.7802 7.5458 10.8065 7.54443C10.8328 7.54306 10.8584 7.53618 10.8819 7.52424C10.9053 7.51231 10.9259 7.49557 10.9425 7.47513L13.7972 3.94638ZM10.2084 20.0381L11.2397 14.3798C11.2647 14.2423 11.2508 14.1005 11.1995 13.9705C11.1482 13.8405 11.0617 13.7273 10.9495 13.6439C10.8145 13.5457 10.6514 13.4938 10.4845 13.4958H6.07358L7.87171 11.2729C7.90079 11.237 7.91554 11.1915 7.91312 11.1453C7.9107 11.0991 7.89127 11.0554 7.85858 11.0226L7.05843 10.2225C7.03985 10.2039 7.0176 10.1895 6.9931 10.1801C6.96861 10.1707 6.94241 10.1666 6.91621 10.168C6.89001 10.1693 6.86439 10.1762 6.84101 10.1881C6.81762 10.2 6.797 10.2166 6.78046 10.237L3.92811 13.7601C3.85151 13.8524 3.79762 13.9614 3.77075 14.0783C3.74389 14.1952 3.74481 14.3168 3.77342 14.4333C3.81501 14.5943 3.90895 14.737 4.04048 14.8388C4.17201 14.9406 4.33365 14.9958 4.49999 14.9958H9.60139L8.28468 22.2314V22.2365C8.25218 22.4251 8.2834 22.6191 8.37343 22.7879C8.46345 22.9568 8.60714 23.0908 8.78181 23.1689C8.95648 23.247 9.15219 23.2647 9.33803 23.2192C9.52388 23.1737 9.68927 23.0676 9.80811 22.9176L14.1492 17.5523C14.1784 17.5163 14.1933 17.4707 14.1908 17.4244C14.1884 17.3781 14.1689 17.3343 14.1361 17.3015L13.3359 16.5019C13.3173 16.4832 13.2951 16.4688 13.2705 16.4593C13.246 16.4499 13.2197 16.4457 13.1935 16.4471C13.1672 16.4485 13.1415 16.4553 13.1181 16.4673C13.0947 16.4792 13.074 16.4959 13.0575 16.5164L10.2084 20.0381Z" fill="#666666"/>
</g>
<defs>
<clipPath id="clip0_32_1640">
<rect width="24" height="24" fill="white" transform="translate(0.00012207 -0.00390625)"/>
</clipPath>
</defs>
</svg>
