<svg width="24" height="24" viewBox="0 0 24 24" fill="none" xmlns="http://www.w3.org/2000/svg">
<g clip-path="url(#clip0_32_1646)">
<path d="M14.7784 1.54446L4.50009 14.2476H10.5001L9.02306 22.3677C9.02025 22.3837 9.02097 22.4 9.02516 22.4157C9.02936 22.4313 9.03693 22.4458 9.04735 22.4582C9.05776 22.4706 9.07076 22.4805 9.08544 22.4873C9.10011 22.4941 9.1161 22.4976 9.13228 22.4976V22.4976C9.14949 22.4976 9.16647 22.4935 9.18185 22.4858C9.19723 22.4781 9.21059 22.4669 9.22087 22.4531L19.5001 9.74759H13.5001L14.9842 1.6265C14.9862 1.61032 14.9847 1.5939 14.9798 1.57833C14.975 1.56276 14.9669 1.54841 14.9561 1.53621C14.9453 1.52402 14.932 1.51427 14.9171 1.50761C14.9022 1.50095 14.8861 1.49753 14.8698 1.49759V1.49759C14.8519 1.49766 14.8344 1.50194 14.8185 1.51009C14.8026 1.51823 14.7888 1.53001 14.7784 1.54446V1.54446Z" stroke="#666666" stroke-width="1.5" stroke-linecap="round" stroke-linejoin="round"/>
</g>
<defs>
<clipPath id="clip0_32_1646">
<rect width="24" height="24" fill="white" transform="translate(-0.00012207 -0.00390625)"/>
</clipPath>
</defs>
</svg>
