<svg width="24" height="24" viewBox="0 0 24 24" fill="none" xmlns="http://www.w3.org/2000/svg">
<path d="M21.4051 7.62988L16.3651 2.59081C15.7487 1.97487 15.0208 2.25472 14.4048 2.87206L13.8447 3.43456C12.6198 4.65941 12.55 6.17113 12.4656 7.33972C12.4239 7.91347 12.0072 8.63113 11.5979 9.04034L2.74607 17.8866C1.97966 18.6521 2.15123 19.7344 2.92091 20.5041L3.49138 21.0746C4.25826 21.841 5.33966 22.0196 6.10982 21.2499L14.9612 12.3999C15.3709 11.9902 16.0862 11.5772 16.6623 11.5318C17.8281 11.4446 19.4101 11.3044 20.5651 10.1494L21.1248 9.58972C21.7412 8.97378 22.0211 8.24581 21.4051 7.62988V7.62988Z" stroke="#666666" stroke-width="1.5" stroke-miterlimit="10"/>
<path d="M10.5319 14.4017C11.0497 14.4017 11.4694 13.982 11.4694 13.4642C11.4694 12.9465 11.0497 12.5267 10.5319 12.5267C10.0141 12.5267 9.59441 12.9465 9.59441 13.4642C9.59441 13.982 10.0141 14.4017 10.5319 14.4017Z" fill="#666666"/>
<path d="M13.547 3.79626L20.2032 10.4525" stroke="#666666" stroke-width="1.5" stroke-miterlimit="10" stroke-linecap="round"/>
</svg>
