<svg width="24" height="24" viewBox="0 0 24 24" fill="none" xmlns="http://www.w3.org/2000/svg">
<path d="M21.9896 17.9395L15.2344 7.21259V3.46634H16.7344V1.49759H7.26565V3.46634H8.76565V7.21259L2.0105 17.9395C1.40112 18.907 1.31768 19.9893 1.86987 20.991C2.42206 21.9927 3.35581 22.4976 4.50003 22.4976H19.5C20.6442 22.4976 21.5775 21.9932 22.1297 20.991C22.6819 19.9888 22.6003 18.907 21.9896 17.9395ZM10.5183 8.12525C10.6604 7.90095 10.7355 7.64076 10.7349 7.37525V3.46634H13.2661V7.4315C13.2661 7.66083 13.3311 7.88547 13.4536 8.07931L16.726 13.2632H7.27409L10.5183 8.12525Z" fill="#666666"/>
</svg>
