<svg width="24" height="24" viewBox="0 0 24 24" fill="none" xmlns="http://www.w3.org/2000/svg">
<path d="M21.2025 17.107L15.3469 7.83134C15.1202 7.47148 14.9999 7.0548 15 6.62946V2.99759H15.7294C16.133 2.99759 16.4794 2.68728 16.4996 2.28368C16.5044 2.18224 16.4887 2.08085 16.4532 1.98568C16.4177 1.89051 16.3633 1.80354 16.2932 1.73003C16.2231 1.65653 16.1389 1.59802 16.0455 1.55807C15.9521 1.51811 15.8516 1.49754 15.75 1.49759H8.27112C7.86752 1.49759 7.52112 1.8079 7.50096 2.2115C7.49608 2.3129 7.51183 2.41425 7.54727 2.50938C7.58271 2.60452 7.63709 2.69148 7.70713 2.76498C7.77716 2.83848 7.86139 2.89699 7.95471 2.93697C8.04803 2.97696 8.1485 2.99758 8.25002 2.99759H9.00002V6.62946C9.00031 7.05474 8.87986 7.47136 8.65268 7.83087L2.79752 17.107C2.4589 17.6338 2.26921 18.2424 2.24858 18.8683C2.22795 19.4942 2.37714 20.114 2.68034 20.662C3.3019 21.8034 4.5169 22.4976 5.81862 22.4976H18.1814C19.4832 22.4976 20.6982 21.8034 21.3197 20.6596C21.6225 20.1119 21.7714 19.4926 21.7508 18.8671C21.7301 18.2417 21.5407 17.6335 21.2025 17.107ZM9.92159 8.63196C10.2999 8.0326 10.5005 7.33824 10.5 6.62946V3.18509C10.5 3.13536 10.5198 3.08767 10.5549 3.05251C10.5901 3.01734 10.6378 2.99759 10.6875 2.99759H13.3125C13.3623 2.99759 13.4099 3.01734 13.4451 3.05251C13.4803 3.08767 13.5 3.13536 13.5 3.18509V6.62946C13.4997 7.33828 13.7004 8.03265 14.0789 8.63196L16.7883 12.9224C16.8241 12.9792 16.8441 13.0446 16.846 13.1117C16.848 13.1788 16.8319 13.2452 16.7994 13.304C16.7669 13.3627 16.7193 13.4117 16.6614 13.4458C16.6036 13.4798 16.5376 13.4977 16.4705 13.4976H7.52956C7.46246 13.4976 7.39657 13.4797 7.33878 13.4456C7.28099 13.4115 7.23341 13.3625 7.20099 13.3038C7.16857 13.245 7.15252 13.1786 7.15449 13.1116C7.15646 13.0445 7.1764 12.9792 7.21221 12.9224L9.92159 8.63196Z" fill="#666666"/>
</svg>
