<svg width="24" height="24" viewBox="0 0 24 24" fill="none" xmlns="http://www.w3.org/2000/svg">
<g clip-path="url(#clip0_32_1656)">
<path d="M15.4688 0.74939L13.4681 2.75095L21.2485 10.5313L23.25 8.53064L15.4688 0.74939Z" fill="#666666"/>
<path d="M20.1193 11.4319L12.5626 3.87286L11.7024 7.87646L0.750057 18.8452L5.15631 23.2515L16.1358 12.2921L20.1193 11.4319ZM11.2599 14.0602C11.1377 14.2104 10.972 14.319 10.7856 14.3712C10.5992 14.4234 10.4012 14.4166 10.2188 14.3517C10.0363 14.2869 9.87849 14.1672 9.76686 14.009C9.65523 13.8508 9.5953 13.662 9.5953 13.4684C9.5953 13.2748 9.65523 13.086 9.76686 12.9278C9.87849 12.7697 10.0363 12.6499 10.2188 12.5851C10.4012 12.5202 10.5992 12.5134 10.7856 12.5656C10.972 12.6178 11.1377 12.7265 11.2599 12.8766C11.3959 13.0439 11.47 13.253 11.4698 13.4686C11.4697 13.6842 11.3952 13.8931 11.259 14.0602H11.2599Z" fill="#666666"/>
</g>
<defs>
<clipPath id="clip0_32_1656">
<rect width="24" height="24" fill="white" transform="translate(0 -0.00390625)"/>
</clipPath>
</defs>
</svg>
