<svg width="24" height="24" viewBox="0 0 24 24" fill="none" xmlns="http://www.w3.org/2000/svg">
<g clip-path="url(#clip0_32_1650)">
<path d="M9.13215 23.2464C9.00649 23.2465 8.88233 23.2191 8.7684 23.1661C8.65446 23.1131 8.55352 23.0358 8.47265 22.9396C8.39179 22.8434 8.33297 22.7307 8.30033 22.6093C8.26769 22.488 8.26202 22.361 8.28372 22.2372V22.232L9.60137 14.9964H4.49997C4.35837 14.9964 4.21966 14.9563 4.0999 14.8807C3.98014 14.8052 3.88421 14.6973 3.82321 14.5695C3.76221 14.4417 3.73863 14.2993 3.7552 14.1586C3.77177 14.018 3.82781 13.885 3.91684 13.7748L14.1904 1.07453C14.3074 0.926088 14.4697 0.820033 14.6526 0.772582C14.8355 0.725131 15.029 0.738897 15.2033 0.811775C15.3777 0.884652 15.5234 1.01263 15.6181 1.17614C15.7128 1.33964 15.7514 1.52968 15.7279 1.71719C15.7279 1.73125 15.7242 1.74484 15.7218 1.75891L14.3995 8.99641H19.5C19.6416 8.99642 19.7803 9.03652 19.9 9.11207C20.0198 9.18762 20.1157 9.29553 20.1767 9.42331C20.2377 9.5511 20.2613 9.69354 20.2447 9.83417C20.2282 9.9748 20.1721 10.1079 20.0831 10.218L9.80809 22.9183C9.72736 23.0203 9.62465 23.1028 9.50762 23.1596C9.39059 23.2164 9.26225 23.2461 9.13215 23.2464Z" fill="#666666"/>
</g>
<defs>
<clipPath id="clip0_32_1650">
<rect width="24" height="24" fill="white" transform="translate(0 -0.00390625)"/>
</clipPath>
</defs>
</svg>
