<svg width="24" height="24" viewBox="0 0 24 24" fill="none" xmlns="http://www.w3.org/2000/svg">
<g clip-path="url(#clip0_32_1644)">
<path d="M20.2501 20.9967C20.1516 20.9968 20.054 20.9775 19.963 20.9398C19.872 20.902 19.7894 20.8467 19.7199 20.7768L3.2199 4.27683C3.08519 4.13503 3.01119 3.94622 3.0137 3.75065C3.0162 3.55508 3.095 3.36822 3.2333 3.22992C3.3716 3.09162 3.55846 3.01282 3.75403 3.01031C3.9496 3.00781 4.13842 3.0818 4.28021 3.21652L20.7802 19.7165C20.885 19.8214 20.9564 19.955 20.9853 20.1005C21.0142 20.2459 20.9994 20.3966 20.9426 20.5336C20.8859 20.6706 20.7898 20.7878 20.6666 20.8702C20.5433 20.9526 20.3983 20.9966 20.2501 20.9967ZM20.2266 9.55917C20.185 9.39812 20.0911 9.25546 19.9596 9.15363C19.828 9.0518 19.6664 8.99659 19.5001 8.99667H14.3996L15.7219 1.76058C15.7243 1.74652 15.7266 1.73292 15.728 1.71886C15.7519 1.53123 15.7136 1.34094 15.619 1.17716C15.5244 1.01337 15.3787 0.885115 15.2043 0.812034C15.0298 0.738954 14.8362 0.725081 14.6531 0.77254C14.47 0.82 14.3075 0.926174 14.1905 1.0748L9.85084 6.44011C9.82168 6.47619 9.80693 6.5218 9.80944 6.56811C9.81195 6.61443 9.83155 6.65818 9.86443 6.69089L16.9426 13.769C16.9611 13.7876 16.9834 13.8021 17.008 13.8116C17.0325 13.821 17.0588 13.8252 17.085 13.8238C17.1113 13.8224 17.1369 13.8155 17.1604 13.8036C17.1838 13.7917 17.2045 13.7749 17.221 13.7545L20.071 10.2314C20.1476 10.1392 20.2016 10.0305 20.2286 9.91375C20.2556 9.79702 20.255 9.67559 20.2266 9.55917ZM14.1362 17.3025L7.05803 10.2243C7.03945 10.2058 7.0172 10.1914 6.9927 10.182C6.96821 10.1726 6.94201 10.1685 6.91581 10.1698C6.88961 10.1712 6.86399 10.178 6.84061 10.1899C6.81722 10.2018 6.7966 10.2185 6.78006 10.2389L3.92818 13.7611C3.85158 13.8534 3.79769 13.9623 3.77082 14.0792C3.74396 14.1961 3.74487 14.3177 3.77349 14.4342C3.81508 14.5952 3.90902 14.7379 4.04055 14.8397C4.17207 14.9415 4.33372 14.9968 4.50006 14.9967H9.60146L8.28474 22.2323V22.2375C8.25225 22.426 8.28347 22.62 8.3735 22.7889C8.46352 22.9577 8.6072 23.0917 8.78188 23.1698C8.95655 23.2479 9.15225 23.2656 9.3381 23.2201C9.52394 23.1746 9.68934 23.0685 9.80818 22.9186L14.1493 17.5532C14.1785 17.5172 14.1933 17.4716 14.1909 17.4253C14.1885 17.379 14.169 17.3352 14.1362 17.3025Z" fill="#666666"/>
</g>
<defs>
<clipPath id="clip0_32_1644">
<rect width="24" height="24" fill="white" transform="translate(0 -0.00390625)"/>
</clipPath>
</defs>
</svg>
