<svg width="24" height="24" viewBox="0 0 24 24" fill="none" xmlns="http://www.w3.org/2000/svg">
<path d="M21.6564 10.1225C22.0946 9.68419 22.366 9.22763 22.4621 8.76544C22.5887 8.15841 22.4017 7.56779 21.9362 7.10232L16.8953 2.06232C16.2324 1.39997 15.0939 1.12575 13.8751 2.34122L13.7814 2.43497C13.7465 2.4698 13.7188 2.51116 13.7 2.55668C13.6811 2.60221 13.6714 2.651 13.6714 2.70029C13.6714 2.74957 13.6811 2.79836 13.7 2.84389C13.7188 2.88941 13.7465 2.93077 13.7814 2.9656L21.0301 10.2162C21.065 10.2514 21.1064 10.2793 21.1521 10.2983C21.1978 10.3173 21.2469 10.3271 21.2964 10.3271C21.3459 10.3271 21.3949 10.3173 21.4406 10.2983C21.4863 10.2793 21.5277 10.2514 21.5626 10.2162L21.6564 10.1225ZM11.7254 7.1731L11.7179 7.28279C11.6931 7.61935 11.3954 8.18044 11.0673 8.5081L2.21588 17.3581C1.69463 17.8789 1.44432 18.5567 1.51041 19.2659C1.56994 19.8997 1.8826 20.5287 2.39073 21.0364L2.96119 21.6069C3.55229 22.1975 4.26338 22.4975 4.95291 22.4975C5.26759 22.4968 5.57896 22.4332 5.86875 22.3106C6.15853 22.1879 6.42089 22.0086 6.64041 21.7831L15.4923 12.9331C15.8237 12.6017 16.3754 12.3097 16.719 12.2829C17.5384 12.2211 18.7614 12.1292 19.8967 11.5493C19.9228 11.5358 19.9454 11.5163 19.9626 11.4925C19.9798 11.4686 19.9911 11.441 19.9957 11.4119C20.0003 11.3828 19.9979 11.3531 19.9889 11.3251C19.9798 11.2971 19.9643 11.2716 19.9435 11.2508L12.7356 4.04325C12.7147 4.02233 12.6892 4.00665 12.6611 3.99747C12.633 3.9883 12.6031 3.9859 12.5739 3.99047C12.5447 3.99504 12.517 4.00645 12.493 4.02377C12.4691 4.04109 12.4495 4.06383 12.436 4.09013C11.8679 5.16779 11.7882 6.28904 11.7254 7.1731ZM11.259 14.0558C11.1368 14.2059 10.9711 14.3145 10.7847 14.3667C10.5983 14.4189 10.4003 14.4121 10.2179 14.3473C10.0355 14.2824 9.8776 14.1627 9.76597 14.0046C9.65433 13.8464 9.5944 13.6576 9.5944 13.464C9.5944 13.2704 9.65433 13.0815 9.76597 12.9234C9.8776 12.7652 10.0355 12.6455 10.2179 12.5806C10.4003 12.5158 10.5983 12.509 10.7847 12.5612C10.9711 12.6134 11.1368 12.722 11.259 12.8722C11.3951 13.0394 11.4694 13.2484 11.4694 13.464C11.4694 13.6795 11.3951 13.8885 11.259 14.0558Z" fill="#666666"/>
</svg>
