<svg width="24" height="24" viewBox="0 0 24 24" fill="none" xmlns="http://www.w3.org/2000/svg">
<g clip-path="url(#clip0_32_1668)">
<path d="M7.35559 10.0799C6.23059 9.85071 4.71887 9.57556 3.92294 9.57556C3.60417 9.5735 3.28818 9.63477 2.99328 9.75581C2.69838 9.87685 2.43046 10.0552 2.20506 10.2806C1.97965 10.5061 1.80126 10.774 1.68022 11.0689C1.55918 11.3638 1.49791 11.6798 1.49997 11.9985V11.9985C1.49997 13.3368 2.61044 14.4215 3.92294 14.4215C4.69637 14.4215 6.21747 14.1473 7.35559 13.9167M10.0818 7.35415C9.85263 6.22915 9.577 4.71649 9.577 3.92149C9.57495 3.60273 9.63621 3.28673 9.75725 2.99184C9.87829 2.69694 10.0567 2.42902 10.2821 2.20361C10.5075 1.97821 10.7754 1.79981 11.0703 1.67878C11.3652 1.55774 11.6812 1.49647 12 1.49852V1.49852C13.3383 1.49852 14.4229 2.60899 14.4229 3.92149C14.4229 4.69493 14.1487 6.21603 13.9181 7.35415H10.0818ZM10.0818 16.6429C9.85169 17.7707 9.577 19.2754 9.577 20.0756C9.57495 20.3943 9.63621 20.7103 9.75725 21.0052C9.87829 21.3001 10.0567 21.568 10.2821 21.7934C10.5075 22.0188 10.7754 22.1972 11.0703 22.3183C11.3652 22.4393 11.6812 22.5006 12 22.4985V22.4985C13.3383 22.4985 14.4229 21.3881 14.4229 20.0756C14.4229 19.3002 14.1487 17.782 13.9181 16.6429H10.0818ZM16.6443 10.0804C17.7722 9.85025 19.2768 9.57556 20.077 9.57556C20.3958 9.5735 20.7118 9.63477 21.0067 9.75581C21.3016 9.87685 21.5695 10.0552 21.7949 10.2806C22.0203 10.5061 22.1987 10.774 22.3197 11.0689C22.4408 11.3638 22.502 11.6798 22.5 11.9985V11.9985C22.5 13.3368 21.3895 14.4215 20.077 14.4215C19.3036 14.4215 17.7825 14.1473 16.6443 13.9167V10.0804Z" stroke="#666666" stroke-width="1.5" stroke-miterlimit="10" stroke-linecap="round"/>
<path d="M10.0819 7.35223C9.44768 6.39457 8.56409 5.13411 8.00206 4.57207C7.77814 4.34517 7.51139 4.165 7.21728 4.04203C6.92316 3.91907 6.60756 3.85574 6.28877 3.85574C5.96999 3.85574 5.65438 3.91907 5.36027 4.04203C5.06616 4.165 4.79941 4.34517 4.57549 4.57207V4.57207C3.62909 5.51848 3.64737 7.07051 4.57549 7.99864C5.11971 8.54286 6.38956 9.43676 7.35565 10.0785M13.9182 7.35223C14.5533 6.39223 15.4322 5.13739 15.998 4.57207C16.2219 4.34517 16.4887 4.165 16.7828 4.04203C17.0769 3.91907 17.3925 3.85574 17.7113 3.85574C18.0301 3.85574 18.3457 3.91907 18.6398 4.04203C18.9339 4.165 19.2006 4.34517 19.4246 4.57207V4.57207C20.371 5.51848 20.3527 7.07051 19.4246 7.99864C18.878 8.54567 17.6119 9.43629 16.6444 10.0785L13.9182 7.35223ZM7.35565 13.9147C6.39565 14.5499 5.14081 15.4288 4.57549 15.9946C4.34859 16.2185 4.16842 16.4852 4.04545 16.7794C3.92248 17.0735 3.85916 17.3891 3.85916 17.7079C3.85916 18.0266 3.92248 18.3422 4.04545 18.6364C4.16842 18.9305 4.34859 19.1972 4.57549 19.4211C5.5219 20.3675 7.07393 20.3493 8.00206 19.4211C8.54909 18.8746 9.43971 17.6085 10.0819 16.641L7.35565 13.9147ZM16.6444 13.9147C17.6044 14.5499 18.8592 15.4288 19.4246 15.9946C19.6515 16.2185 19.8316 16.4852 19.9546 16.7794C20.0776 17.0735 20.1409 17.3891 20.1409 17.7079C20.1409 18.0266 20.0776 18.3422 19.9546 18.6364C19.8316 18.9305 19.6515 19.1972 19.4246 19.4211V19.4211C18.4782 20.3675 16.9261 20.3493 15.998 19.4211C15.45 18.8732 14.5608 17.6094 13.9182 16.641L16.6444 13.9147Z" stroke="#666666" stroke-width="1.5" stroke-miterlimit="10" stroke-linecap="round"/>
<path d="M11.9999 14.9985C13.6568 14.9985 14.9999 13.6553 14.9999 11.9985C14.9999 10.3416 13.6568 8.99847 11.9999 8.99847C10.3431 8.99847 8.99992 10.3416 8.99992 11.9985C8.99992 13.6553 10.3431 14.9985 11.9999 14.9985Z" stroke="#666666" stroke-width="1.5" stroke-miterlimit="10" stroke-linecap="round"/>
</g>
<defs>
<clipPath id="clip0_32_1668">
<rect width="24" height="24" fill="white" transform="translate(0 -0.00390625)"/>
</clipPath>
</defs>
</svg>
