<svg width="24" height="24" viewBox="0 0 24 24" fill="none" xmlns="http://www.w3.org/2000/svg">
<g clip-path="url(#clip0_32_1675)">
<path d="M12.0001 14.2512C13.2427 14.2512 14.2501 13.2438 14.2501 12.0012C14.2501 10.7585 13.2427 9.75119 12.0001 9.75119C10.7574 9.75119 9.75007 10.7585 9.75007 12.0012C9.75007 13.2438 10.7574 14.2512 12.0001 14.2512Z" fill="#666666"/>
<path d="M22.3092 14.2419C22.7482 13.8099 23.0516 13.2591 23.1821 12.6572C23.3126 12.0553 23.2646 11.4283 23.0439 10.8533C22.8232 10.2783 22.4394 9.78019 21.9397 9.42014C21.44 9.06008 20.8461 8.85373 20.2307 8.82639C20.1843 8.82437 20.1395 8.80913 20.1015 8.78247C20.0634 8.75582 20.0338 8.71885 20.0161 8.67592C19.9985 8.63287 19.9935 8.5857 20.0018 8.53995C20.0101 8.49419 20.0313 8.45176 20.0629 8.41764C20.4749 7.96219 20.7461 7.39719 20.8439 6.79091C20.9416 6.18462 20.8617 5.563 20.6138 5.00116C20.3659 4.43932 19.9605 3.9613 19.4468 3.62486C18.933 3.28842 18.3328 3.10796 17.7187 3.10529H17.707C16.9189 3.10516 16.1595 3.40074 15.5789 3.93357C15.5447 3.96526 15.5022 3.98651 15.4563 3.99481C15.4105 4.00312 15.3632 3.99813 15.3201 3.98045C15.2772 3.96265 15.2402 3.93301 15.2135 3.895C15.1868 3.85699 15.1714 3.81217 15.1692 3.76576C15.1334 2.94921 14.7838 2.17799 14.1933 1.61285C13.6029 1.04772 12.8171 0.732269 11.9997 0.732269C11.1824 0.732269 10.3966 1.04772 9.80613 1.61285C9.21566 2.17799 8.86609 2.94921 8.83028 3.76576C8.82826 3.81216 8.81302 3.85702 8.78636 3.89506C8.75971 3.93309 8.72274 3.96272 8.67981 3.98045C8.6367 3.99813 8.58943 4.00312 8.54359 3.99481C8.49774 3.98651 8.45522 3.96526 8.42106 3.93357C7.84014 3.39988 7.07992 3.10392 6.29106 3.10436H6.28122C5.66777 3.10865 5.06863 3.2901 4.55588 3.62689C4.04313 3.96368 3.63862 4.44145 3.39102 5.00272C3.14341 5.564 3.06326 6.18486 3.1602 6.79061C3.25715 7.39637 3.52706 7.9612 3.93747 8.41717C3.96906 8.45129 3.99025 8.49372 3.99855 8.53948C4.00686 8.58523 4.00193 8.6324 3.98434 8.67545C3.96661 8.71838 3.93698 8.75535 3.89895 8.78201C3.86091 8.80866 3.81605 8.8239 3.76965 8.82592C2.95812 8.86895 2.194 9.22164 1.63478 9.81131C1.07555 10.401 0.763817 11.1827 0.763817 11.9954C0.763817 12.8081 1.07555 13.5898 1.63478 14.1794C2.194 14.7691 2.95812 15.1218 3.76965 15.1648C3.81612 15.1671 3.86097 15.1825 3.89899 15.2093C3.937 15.2362 3.96661 15.2732 3.98434 15.3162C4.00197 15.3593 4.00692 15.4066 3.99862 15.4524C3.99031 15.4983 3.9691 15.5408 3.93747 15.575C3.52419 16.0291 3.25187 16.5936 3.15369 17.1997C3.0555 17.8058 3.13568 18.4273 3.38446 18.9887C3.63324 19.55 4.03989 20.0269 4.55488 20.3613C5.06986 20.6956 5.67096 20.873 6.28497 20.8719H6.29668C7.08124 20.874 7.83852 20.5841 8.42106 20.0586C8.45518 20.027 8.49761 20.0058 8.54337 19.9975C8.58912 19.9892 8.63629 19.9941 8.67934 20.0117C8.72227 20.0294 8.75924 20.0591 8.7859 20.0971C8.81255 20.1351 8.82779 20.18 8.82981 20.2264C8.87284 21.0379 9.22553 21.802 9.8152 22.3613C10.4049 22.9205 11.1866 23.2322 11.9993 23.2322C12.8119 23.2322 13.5937 22.9205 14.1833 22.3613C14.773 21.802 15.1257 21.0379 15.1687 20.2264C15.1709 20.18 15.1863 20.1352 15.213 20.0971C15.2398 20.0591 15.2767 20.0295 15.3197 20.0117C15.3627 19.9941 15.4099 19.9892 15.4556 19.9975C15.5014 20.0058 15.5438 20.027 15.5779 20.0586C16.1596 20.585 16.9164 20.8761 17.7009 20.8751H17.7126C18.3272 20.8776 18.9291 20.7009 19.4449 20.3668C19.9607 20.0327 20.3679 19.5555 20.6169 18.9937C20.8659 18.4318 20.9459 17.8096 20.847 17.2031C20.7481 16.5965 20.4747 16.0319 20.0601 15.5783C20.0285 15.5441 20.0073 15.5016 19.999 15.4557C19.9907 15.4099 19.9956 15.3626 20.0132 15.3195C20.0311 15.2766 20.0607 15.2396 20.0987 15.2129C20.1367 15.1862 20.1815 15.1708 20.2279 15.1686C21.0129 15.1297 21.7551 14.7992 22.3092 14.2419ZM12 15.7461C11.2583 15.7461 10.5333 15.5261 9.91658 15.1141C9.29989 14.702 8.81925 14.1164 8.53542 13.4311C8.25159 12.7459 8.17733 11.9919 8.32202 11.2645C8.46672 10.5371 8.82387 9.86887 9.34832 9.34442C9.87276 8.81998 10.5409 8.46282 11.2684 8.31813C11.9958 8.17344 12.7498 8.2477 13.435 8.53153C14.1203 8.81536 14.7059 9.296 15.118 9.91269C15.53 10.5294 15.75 11.2544 15.75 11.9961C15.7488 12.9903 15.3534 13.9435 14.6504 14.6465C13.9474 15.3495 12.9942 15.745 12 15.7461Z" fill="#666666"/>
</g>
<defs>
<clipPath id="clip0_32_1675">
<rect width="24" height="24" fill="white" transform="translate(0.00012207 -0.00390625)"/>
</clipPath>
</defs>
</svg>
