<svg width="24" height="24" viewBox="0 0 24 24" fill="none" xmlns="http://www.w3.org/2000/svg">
<g clip-path="url(#clip0_32_1672)">
<path d="M12 14.0123C13.1132 14.0123 14.0156 13.1099 14.0156 11.9967C14.0156 10.8835 13.1132 9.98105 12 9.98105C10.8868 9.98105 9.98438 10.8835 9.98438 11.9967C9.98438 13.1099 10.8868 14.0123 12 14.0123Z" fill="#666666"/>
<path d="M22.3092 14.2397C22.7576 13.7985 23.0643 13.2337 23.1902 12.6174C23.316 12.001 23.2552 11.3612 23.0156 10.7795C22.776 10.1979 22.3685 9.7009 21.845 9.35203C21.3216 9.00316 20.706 8.81826 20.077 8.82095C19.942 8.82095 19.7864 8.82751 19.6115 8.8411C19.7404 8.73048 19.8567 8.62454 19.9551 8.52657C20.3976 8.0824 20.6989 7.51732 20.8211 6.9024C20.9433 6.28747 20.881 5.65013 20.642 5.07052C20.4029 4.49091 19.9979 3.9949 19.4778 3.64485C18.9577 3.29479 18.3456 3.10632 17.7187 3.10313H17.707C17.2899 3.1034 16.877 3.18639 16.4923 3.34731C16.1075 3.50824 15.7585 3.74389 15.4654 4.04063C15.3665 4.13954 15.2606 4.25579 15.1504 4.38423C15.164 4.20845 15.171 4.05282 15.171 3.91876C15.171 3.07723 14.8367 2.27018 14.2417 1.67513C13.6467 1.08008 12.8396 0.745789 11.9981 0.745789C11.1565 0.745789 10.3495 1.08008 9.75445 1.67513C9.1594 2.27018 8.8251 3.07723 8.8251 3.91876C8.8251 4.05329 8.83214 4.20891 8.84573 4.38423C8.7351 4.25579 8.62917 4.13954 8.53073 4.04063C8.23766 3.74389 7.88864 3.50824 7.50387 3.34731C7.1191 3.18639 6.70623 3.1034 6.28917 3.10313H6.2812C5.65523 3.10813 5.04464 3.2976 4.5258 3.64784C4.00697 3.99807 3.60293 4.49353 3.36424 5.07222C3.12555 5.65092 3.0628 6.28714 3.18385 6.90131C3.3049 7.51548 3.60437 8.08032 4.04479 8.52517C4.14323 8.62313 4.25948 8.72907 4.38885 8.84017C4.21354 8.82657 4.05792 8.81954 3.92292 8.81954C3.08139 8.81954 2.27433 9.15384 1.67929 9.74888C1.08424 10.3439 0.749947 11.151 0.749947 11.9925C0.749947 12.834 1.08424 13.6411 1.67929 14.2361C2.27433 14.8312 3.08139 15.1655 3.92292 15.1655C4.05698 15.1655 4.2126 15.1584 4.38838 15.1449C4.25995 15.255 4.1437 15.3609 4.04479 15.4599C3.60011 15.9026 3.297 16.4674 3.17393 17.0827C3.05086 17.698 3.11338 18.336 3.35356 18.9157C3.59374 19.4955 4.00075 19.9907 4.52292 20.3387C5.04508 20.6867 5.65887 20.8717 6.28635 20.8702H6.29807C6.71255 20.8708 7.1231 20.7898 7.50626 20.6318C7.88942 20.4737 8.2377 20.2417 8.5312 19.9491C8.62917 19.8506 8.7351 19.7344 8.84573 19.6055C8.8326 19.7803 8.82557 19.9359 8.82557 20.0709C8.82557 20.9125 9.15987 21.7195 9.75491 22.3146C10.35 22.9096 11.157 23.2439 11.9985 23.2439C12.8401 23.2439 13.6471 22.9096 14.2422 22.3146C14.8372 21.7195 15.1715 20.9125 15.1715 20.0709C15.1715 19.9364 15.1645 19.7808 15.1509 19.605C15.2615 19.7339 15.3674 19.8506 15.4659 19.9491C15.7594 20.2422 16.1079 20.4745 16.4913 20.6328C16.8747 20.7911 17.2856 20.8722 17.7004 20.8716H17.7121C18.34 20.8742 18.9544 20.69 19.4772 20.3424C20 19.9948 20.4076 19.4995 20.6481 18.9195C20.8886 18.3396 20.9511 17.7012 20.8277 17.0856C20.7043 16.4701 20.4005 15.9051 19.9551 15.4627C19.8562 15.3638 19.74 15.2578 19.6115 15.1477C19.7873 15.1613 19.9429 15.1683 20.077 15.1683C20.4918 15.168 20.9026 15.0858 21.2856 14.9264C21.6686 14.7671 22.0165 14.5337 22.3092 14.2397ZM11.9999 15.9783C11.2119 15.9783 10.4416 15.7446 9.78635 15.3068C9.13112 14.869 8.62043 14.2467 8.31887 13.5187C8.0173 12.7906 7.93839 11.9895 8.09213 11.2166C8.24587 10.4437 8.62534 9.73376 9.18257 9.17654C9.73979 8.61931 10.4497 8.23984 11.2226 8.0861C11.9955 7.93236 12.7967 8.01126 13.5247 8.31283C14.2528 8.6144 14.875 9.12509 15.3128 9.78032C15.7506 10.4355 15.9843 11.2059 15.9843 11.9939C15.9831 13.0503 15.5629 14.063 14.816 14.8099C14.069 15.5569 13.0563 15.9771 11.9999 15.9783Z" fill="#666666"/>
</g>
<defs>
<clipPath id="clip0_32_1672">
<rect width="24" height="24" fill="white" transform="translate(-0.00012207 -0.00390625)"/>
</clipPath>
</defs>
</svg>
