<svg width="24" height="24" viewBox="0 0 24 24" fill="none" xmlns="http://www.w3.org/2000/svg">
<path d="M3.00002 8.99759V5.62259C3.00002 5.12531 3.19756 4.64839 3.54919 4.29676C3.90082 3.94513 4.37774 3.74759 4.87502 3.74759H8.43236C8.80258 3.7476 9.1645 3.8572 9.47252 4.06259L10.7775 4.93259C11.0855 5.13797 11.4475 5.24758 11.8177 5.24759H19.125C19.6223 5.24759 20.0992 5.44513 20.4508 5.79676C20.8025 6.14839 21 6.62531 21 7.12259V8.99759" stroke="#666666" stroke-width="1.5" stroke-linecap="round" stroke-linejoin="round"/>
<path d="M22.4954 10.618L21.735 18.3735C21.7351 18.8702 21.538 19.3466 21.187 19.6981C20.8361 20.0497 20.36 20.2476 19.8633 20.2485H4.13676C3.64005 20.2476 3.16398 20.0497 2.81306 19.6981C2.46214 19.3466 2.26504 18.8702 2.26504 18.3735L1.50473 10.618C1.48823 10.4116 1.51464 10.204 1.58231 10.0083C1.64997 9.81262 1.75741 9.63306 1.89788 9.48092C2.03834 9.32879 2.20879 9.20738 2.39847 9.12435C2.58816 9.04132 2.79298 8.99846 3.00005 8.99847H21.0047C21.2114 8.99911 21.4157 9.04244 21.6048 9.12576C21.794 9.20908 21.9638 9.33058 22.1038 9.48264C22.2438 9.6347 22.3508 9.81405 22.4182 10.0094C22.4856 10.2048 22.5118 10.412 22.4954 10.618V10.618Z" stroke="#666666" stroke-width="1.5" stroke-linecap="round" stroke-linejoin="round"/>
</svg>
