<svg width="24" height="24" viewBox="0 0 24 24" fill="none" xmlns="http://www.w3.org/2000/svg">
<path d="M1.50001 8.99759H22.5M20.625 20.2476H3.37501C2.87772 20.2476 2.40081 20.05 2.04918 19.6984C1.69755 19.3468 1.50001 18.8699 1.50001 18.3726V5.62259C1.50001 5.12531 1.69755 4.64839 2.04918 4.29676C2.40081 3.94513 2.87772 3.74759 3.37501 3.74759H6.93235C7.30256 3.7476 7.66449 3.8572 7.97251 4.06259L9.27751 4.93259C9.58552 5.13797 9.94745 5.24758 10.3177 5.24759H20.625C21.1223 5.24759 21.5992 5.44513 21.9508 5.79676C22.3025 6.1484 22.5 6.62531 22.5 7.12259V18.3726C22.5 18.8699 22.3025 19.3468 21.9508 19.6984C21.5992 20.05 21.1223 20.2476 20.625 20.2476Z" stroke="#666666" stroke-width="1.5" stroke-linecap="round" stroke-linejoin="round"/>
</svg>
