<svg width="24" height="24" viewBox="0 0 24 24" fill="none" xmlns="http://www.w3.org/2000/svg">
<g clip-path="url(#clip0_32_1689)">
<path d="M23.25 7.1244C23.25 6.4282 22.9734 5.76052 22.4811 5.26824C21.9888 4.77596 21.3212 4.4994 20.625 4.4994H10.3176C10.0957 4.50011 9.87851 4.43484 9.69371 4.3119L8.39059 3.44049C7.95907 3.15193 7.45141 2.99838 6.93231 2.99939H3.37496C2.67877 2.99939 2.01109 3.27596 1.51881 3.76824C1.02652 4.26052 0.749962 4.9282 0.749962 5.6244V7.8744C0.749962 7.97385 0.789471 8.06923 0.859797 8.13956C0.930123 8.20989 1.02551 8.2494 1.12496 8.2494H22.875C22.9744 8.2494 23.0698 8.20989 23.1401 8.13956C23.2105 8.06923 23.25 7.97385 23.25 7.8744V7.1244ZM0.749962 18.3744C0.749962 19.0706 1.02652 19.7383 1.51881 20.2306C2.01109 20.7228 2.67877 20.9994 3.37496 20.9994H20.625C21.3212 20.9994 21.9888 20.7228 22.4811 20.2306C22.9734 19.7383 23.25 19.0706 23.25 18.3744V10.1244C23.25 10.0249 23.2105 9.92956 23.1401 9.85923C23.0698 9.7889 22.9744 9.7494 22.875 9.7494H1.12496C1.02551 9.7494 0.930123 9.7889 0.859797 9.85923C0.789471 9.92956 0.749962 10.0249 0.749962 10.1244V18.3744Z" fill="#666666"/>
</g>
<defs>
<clipPath id="clip0_32_1689">
<rect width="24" height="24" fill="white" transform="translate(0.00012207 -0.00390625)"/>
</clipPath>
</defs>
</svg>
