<svg width="24" height="24" viewBox="0 0 24 24" fill="none" xmlns="http://www.w3.org/2000/svg">
<path d="M0.750042 19.6869C0.750042 20.035 0.888323 20.3688 1.13446 20.615C1.38061 20.8611 1.71445 20.9994 2.06254 20.9994H21.9375C22.2856 20.9994 22.6195 20.8611 22.8656 20.615C23.1118 20.3688 23.25 20.035 23.25 19.6869V9.74939H0.750042V19.6869ZM23.25 5.81189C23.25 5.46379 23.1118 5.12995 22.8656 4.88381C22.6195 4.63767 22.2856 4.49939 21.9375 4.49939H9.97692L7.72692 2.99939H2.06254C1.71445 2.99939 1.38061 3.13767 1.13446 3.38381C0.888323 3.62995 0.750042 3.96379 0.750042 4.31189V8.24939H23.25V5.81189Z" fill="#666666"/>
</svg>
