<svg width="24" height="24" viewBox="0 0 24 24" fill="none" xmlns="http://www.w3.org/2000/svg">
<path d="M0.753694 8.87752L2.09338 19.8402C2.13098 20.1599 2.28481 20.4547 2.5256 20.6685C2.76639 20.8822 3.07735 21 3.39932 20.9994H20.6024C20.9244 21 21.2354 20.8822 21.4762 20.6685C21.717 20.4547 21.8708 20.1599 21.9084 19.8402L23.2462 8.87752C23.2555 8.79864 23.2479 8.7187 23.2241 8.64295C23.2002 8.56721 23.1606 8.49737 23.1078 8.43803C23.055 8.37869 22.9903 8.33121 22.9178 8.29869C22.8454 8.26618 22.7669 8.24938 22.6875 8.24939H1.31244C1.23303 8.24938 1.15451 8.26618 1.08206 8.29869C1.0096 8.33121 0.944856 8.37869 0.892074 8.43803C0.839292 8.49737 0.799672 8.56721 0.775821 8.64295C0.75197 8.7187 0.744429 8.79864 0.753694 8.87752ZM21.75 5.81189C21.75 5.46379 21.6117 5.12995 21.3655 4.88381C21.1194 4.63767 20.7855 4.49939 20.4374 4.49939H11.4768L9.22682 2.99939H3.56245C3.21435 2.99939 2.88051 3.13767 2.63437 3.38381C2.38823 3.62995 2.24994 3.96379 2.24994 4.31189V6.74939H21.75V5.81189Z" fill="#666666"/>
</svg>
