<svg width="24" height="24" viewBox="0 0 24 24" fill="none" xmlns="http://www.w3.org/2000/svg">
<path d="M19.1251 4.4994H11.8177C11.5958 4.50011 11.3786 4.43484 11.1938 4.3119L9.89069 3.44049C9.45917 3.15193 8.95151 2.99838 8.43241 2.99939H4.87506C4.1791 3.00014 3.51185 3.27694 3.01973 3.76906C2.52761 4.26118 2.25081 4.92843 2.25006 5.6244V6.7494H21.7501C21.7501 5.3019 20.5726 4.4994 19.1251 4.4994ZM19.8633 20.9994H4.13678C3.448 20.9986 2.78713 20.7272 2.29668 20.2435C1.80624 19.7599 1.52552 19.1029 1.51506 18.4142L0.758499 10.6921V10.6789C0.733724 10.3694 0.773277 10.0581 0.87467 9.76466C0.976063 9.47118 1.1371 9.20187 1.34765 8.97366C1.5582 8.74546 1.8137 8.5633 2.09808 8.43865C2.38246 8.31401 2.68956 8.24957 3.00006 8.2494H21.0048C21.3152 8.2497 21.6222 8.31423 21.9064 8.43894C22.1907 8.56364 22.4461 8.74582 22.6565 8.97401C22.867 9.2022 23.0279 9.47147 23.1293 9.76488C23.2306 10.0583 23.2701 10.3695 23.2454 10.6789V10.6921L22.4851 18.4142C22.4746 19.1029 22.1939 19.7599 21.7034 20.2435C21.213 20.7272 20.5521 20.9986 19.8633 20.9994Z" fill="#666666"/>
</svg>
