<svg width="24" height="24" viewBox="0 0 24 24" fill="none" xmlns="http://www.w3.org/2000/svg">
<path d="M6.27329 16.9328C5.21345 16.9328 4.35142 16.5498 3.70501 15.7895C3.0586 15.0292 2.63439 13.9009 2.38735 12.2594C2.0236 9.84014 2.38454 7.80108 3.4036 6.51811C4.0036 5.76249 4.7911 5.32561 5.68079 5.2553C6.44251 5.19436 7.58111 5.50327 8.68079 7.3178C9.36939 8.45405 9.89298 9.96343 10.1175 11.4587C10.3889 13.2639 10.1869 14.5928 9.4997 15.5205C8.95407 16.2573 8.11501 16.7139 7.00548 16.8798C6.76305 16.9154 6.51832 16.9331 6.27329 16.9328ZM8.10939 23.2483C7.49017 23.2483 6.86251 23.05 6.2972 22.6689C5.48145 22.1161 4.9168 21.2638 4.72595 20.297C4.59235 19.6098 4.67251 19.0637 4.97064 18.6264C5.45485 17.9162 6.32392 17.7564 7.2436 17.5867C7.34064 17.5689 7.43907 17.5511 7.53892 17.5319C7.75079 17.4916 7.96735 17.4381 8.17735 17.3861C8.96392 17.192 9.77767 16.9909 10.4494 17.4681C10.8989 17.7869 11.1525 18.3287 11.2284 19.1237C11.3147 20.0411 11.1178 20.9566 10.6739 21.7019C10.1963 22.5039 9.48001 23.0341 8.65829 23.1953C8.47746 23.2306 8.29363 23.2483 8.10939 23.2483ZM17.7267 12.4328C17.4819 12.432 17.2375 12.4132 16.9955 12.3766C15.8864 12.2125 15.0474 11.7555 14.5017 11.0172C13.8145 10.0895 13.6111 8.76108 13.8839 6.95546C14.1084 5.45874 14.6306 3.95077 15.3159 2.81874C16.41 1.01077 17.55 0.697173 18.316 0.752486C19.2028 0.817174 19.9889 1.24795 20.5899 1.99936C21.6159 3.28233 21.9797 5.32749 21.6145 7.75749C21.3675 9.39811 20.9489 10.5208 20.2969 11.2876C19.6449 12.0545 18.7866 12.4328 17.7267 12.4328ZM15.8906 18.7483C15.7069 18.7482 15.5235 18.7305 15.3431 18.6953C14.52 18.5341 13.8038 18.0039 13.3275 17.2019C12.8836 16.4566 12.6867 15.5411 12.773 14.6237C12.848 13.8269 13.1011 13.2869 13.552 12.9676C14.2238 12.4909 15.0375 12.6916 15.8241 12.8861C16.0341 12.9376 16.2506 12.9911 16.4625 13.0319L16.7574 13.0867C17.6775 13.2559 18.5466 13.4148 19.0308 14.1259C19.3289 14.5633 19.4091 15.1103 19.2755 15.7966C19.0848 16.7635 18.5201 17.6161 17.7042 18.1689C17.1356 18.5505 16.508 18.7483 15.8906 18.7483Z" fill="#666666"/>
</svg>
