<svg width="24" height="24" viewBox="0 0 24 24" fill="none" xmlns="http://www.w3.org/2000/svg">
<path d="M9.37493 11.57C9.7879 14.3179 9.03134 15.8202 6.89478 16.1361C4.52056 16.4872 3.54228 14.8968 3.12931 12.1489C2.57384 8.45145 3.87931 6.15176 5.74071 6.00363C7.43478 5.8691 8.9615 8.8227 9.37493 11.57ZM10.4835 19.1961C10.6302 20.7561 9.78696 22.2121 8.51478 22.4614C7.2304 22.7127 5.76274 21.6941 5.46368 20.1557C5.16462 18.6172 6.29571 18.5357 7.68181 18.2708C9.0679 18.006 10.3063 17.3146 10.4835 19.1961ZM14.6249 7.06957C14.212 9.81738 14.9685 11.3197 17.1046 11.6357C19.4793 11.9868 20.4571 10.3963 20.8701 7.64848C21.426 3.95051 20.1201 1.63816 18.2592 1.50316C16.5529 1.37941 15.0384 4.32176 14.6249 7.06957ZM13.5163 14.6961C13.3696 16.2557 14.2129 17.7121 15.4851 17.9614C16.7695 18.2127 18.2371 17.1941 18.5362 15.6557C18.8352 14.1172 17.7042 14.0357 16.3181 13.7704C14.932 13.505 13.6935 12.8141 13.5163 14.6961V14.6961Z" stroke="#666666" stroke-width="1.5" stroke-miterlimit="10"/>
</svg>
