<svg width="24" height="24" viewBox="0 0 24 24" fill="none" xmlns="http://www.w3.org/2000/svg">
<path d="M12.0001 20.9994C16.9707 20.9994 21.0001 16.97 21.0001 11.9994C21.0001 7.02883 16.9707 2.99939 12.0001 2.99939C7.02954 2.99939 3.00011 7.02883 3.00011 11.9994C3.00011 16.97 7.02954 20.9994 12.0001 20.9994Z" stroke="#666666" stroke-width="1.5" stroke-miterlimit="10" stroke-linecap="round"/>
<path d="M4.76404 17.2464H8.06264M12.0001 8.20651L8.43342 11.1985L9.37514 14.9964H14.6251L15.5669 11.1985L12.0001 8.20651ZM15.5669 11.1985L18.0451 10.1485L19.2536 6.71448L15.5669 11.1985ZM20.9533 12.6512L18.0451 10.1485L20.9533 12.6512ZM8.43342 11.1985L5.95514 10.1485L4.7467 6.71448L8.43342 11.1985ZM3.04701 12.6512L5.95514 10.1485L3.04701 12.6512ZM12.0001 8.20651V5.50792L15.0001 3.50917L12.0001 8.20651ZM9.00014 3.5087L12.0001 5.50792L9.00014 3.5087ZM14.6251 14.9964L15.9376 17.2464L14.6251 20.5745V14.9964ZM19.2536 17.2464H16.0314H19.2536ZM9.37514 14.9964L8.06264 17.2464L9.39248 20.5979L9.37514 14.9964Z" stroke="#666666" stroke-width="1.5" stroke-linecap="round" stroke-linejoin="round"/>
</svg>
