<svg width="24" height="24" viewBox="0 0 24 24" fill="none" xmlns="http://www.w3.org/2000/svg">
<path d="M6.11914 16.7918C5.51773 16.8799 4.52773 17.044 3.86914 16.2968C3.21054 15.5496 2.64101 13.7454 2.3907 12.1329C2.02132 9.7563 2.38789 7.75333 3.42195 6.49333C4.03132 5.7513 4.83101 5.32146 5.73476 5.25302C6.50867 5.19349 7.66507 5.4963 8.78164 7.27755C9.48101 8.39364 10.013 9.8763 10.2413 11.3449C10.517 13.1177 10.7855 15.0096 9.8457 15.6879C9.31554 16.0708 8.93492 16.2035 8.03539 16.4177C7.2957 16.5935 6.72101 16.7032 6.11914 16.7918ZM5.04945 18.3166L10.1537 17.2638C10.5849 17.1747 10.9309 17.4119 11.0912 18.1226C11.6171 20.4551 10.8634 23.246 8.50273 23.246C6.26726 23.246 4.77757 20.6979 4.53429 19.3282C4.4232 18.7071 4.58164 18.4127 5.04945 18.3166ZM15.9652 11.9182C15.0657 11.7049 14.6851 11.5713 14.1549 11.1883C13.2151 10.5101 13.4837 8.61817 13.7593 6.84536C13.9876 5.37677 14.5196 3.89224 15.219 2.77802C16.3346 0.996766 17.491 0.693953 18.2659 0.753485C19.1687 0.822391 19.9688 1.2513 20.5782 1.99333C21.6132 3.25333 21.9798 5.2563 21.6095 7.63286C21.3587 9.24536 20.791 11.0435 20.1287 11.7968C19.4663 12.5501 18.482 12.3799 17.8787 12.2918C17.2754 12.2036 16.7045 12.0935 15.9652 11.9182ZM18.9507 13.8166L13.8465 12.7638C13.4152 12.6747 13.0693 12.9119 12.909 13.6226C12.3835 15.9551 13.1373 18.746 15.4979 18.746C17.7334 18.746 19.223 16.1979 19.4663 14.8282C19.577 14.2071 19.4185 13.9127 18.9507 13.8166Z" fill="#666666"/>
</svg>
