<svg width="24" height="24" viewBox="0 0 24 24" fill="none" xmlns="http://www.w3.org/2000/svg">
<path d="M12 2.24759C6.62391 2.24759 2.25001 6.6215 2.25001 11.9976C2.25001 17.3737 6.62391 21.7476 12 21.7476C17.3761 21.7476 21.75 17.3737 21.75 11.9976C21.75 6.6215 17.3761 2.24759 12 2.24759ZM18.7031 16.4976H16.5834C16.5178 16.4974 16.4533 16.48 16.3964 16.4471C16.3396 16.4142 16.2924 16.367 16.2595 16.3101L15.503 15.0126C15.4532 14.9278 15.4387 14.8267 15.4627 14.7313L16.1592 11.9226C16.1732 11.866 16.2002 11.8134 16.238 11.7691C16.2759 11.7247 16.3235 11.6898 16.3772 11.6671L17.6944 11.1093C17.7587 11.082 17.8295 11.0733 17.8985 11.084C17.9676 11.0948 18.0323 11.1247 18.0853 11.1702L20.0367 12.8493C20.0848 12.8907 20.1216 12.9437 20.1437 13.0032C20.1657 13.0627 20.1723 13.1269 20.1628 13.1896C20.0012 14.2984 19.6138 15.3622 19.0247 16.3152C18.9914 16.3708 18.9443 16.4168 18.8879 16.4488C18.8316 16.4808 18.7679 16.4976 18.7031 16.4976ZM6.30563 11.1131L7.62282 11.6709C7.67651 11.6936 7.72416 11.7285 7.762 11.7728C7.79984 11.8172 7.82681 11.8697 7.84079 11.9263L8.53735 14.7351C8.56133 14.8305 8.54685 14.9315 8.49704 15.0163L7.74048 16.3101C7.70764 16.367 7.66043 16.4142 7.60359 16.4471C7.54674 16.48 7.48225 16.4974 7.41657 16.4976H5.29688C5.23277 16.4976 5.16972 16.4812 5.11376 16.45C5.05779 16.4187 5.01077 16.3736 4.9772 16.319C4.38804 15.3659 4.00068 14.3021 3.83907 13.1934C3.82957 13.1306 3.83615 13.0665 3.85821 13.0069C3.88026 12.9474 3.91706 12.8945 3.96516 12.8531L5.91657 11.174C5.96939 11.1288 6.03375 11.0991 6.10246 11.0883C6.17116 11.0776 6.24151 11.0861 6.30563 11.1131ZM18.3497 7.02368L17.5027 9.43212C17.4856 9.48134 17.4586 9.52648 17.4231 9.56465C17.3877 9.60282 17.3447 9.6332 17.2969 9.65384L15.9103 10.2412C15.8467 10.2681 15.7769 10.2769 15.7085 10.2667C15.6402 10.2564 15.5761 10.2275 15.5231 10.1831L12.8859 7.97103C12.8438 7.93616 12.8098 7.8925 12.7863 7.84311C12.7628 7.79371 12.7504 7.73978 12.75 7.68509V6.11103C12.75 6.04935 12.7653 5.98864 12.7944 5.93427C12.8235 5.87989 12.8656 5.83354 12.9169 5.79931L14.9245 4.4615C14.9769 4.42652 15.0373 4.40531 15.1 4.39982C15.1628 4.39434 15.2259 4.40474 15.2836 4.43009C16.4388 4.93393 17.464 5.69444 18.2813 6.65384C18.3242 6.704 18.3532 6.76462 18.3652 6.82956C18.3772 6.8945 18.3719 6.96147 18.3497 7.02368ZM9.07501 4.4615L11.0831 5.79931C11.1344 5.83354 11.1765 5.87989 11.2056 5.93427C11.2347 5.98864 11.25 6.04935 11.25 6.11103V7.68509C11.25 7.73987 11.238 7.79398 11.2148 7.84363C11.1917 7.89327 11.1579 7.93724 11.1159 7.97243L8.47876 10.1845C8.42584 10.2289 8.36168 10.2578 8.29335 10.2681C8.22503 10.2783 8.1552 10.2695 8.09157 10.2426L6.70313 9.65384C6.65502 9.63346 6.61169 9.60326 6.57593 9.56516C6.54017 9.52705 6.51276 9.4819 6.49548 9.43259L5.64845 7.02415C5.62643 6.96171 5.62134 6.89456 5.63369 6.82952C5.64604 6.76448 5.67539 6.70386 5.71876 6.65384C6.53649 5.69348 7.56252 4.93229 8.71876 4.42821C8.77621 4.40364 8.83889 4.39381 8.90111 4.39963C8.96332 4.40544 9.0231 4.42671 9.07501 4.4615ZM9.88641 19.8112L8.96157 17.482C8.94042 17.429 8.93163 17.3719 8.93585 17.3151C8.94007 17.2582 8.95721 17.2031 8.98595 17.1538L9.69704 15.9351C9.72988 15.8782 9.77708 15.8309 9.83393 15.798C9.89077 15.7651 9.95526 15.7477 10.0209 15.7476H13.9791C14.0448 15.7477 14.1092 15.7651 14.1661 15.798C14.2229 15.8309 14.2701 15.8782 14.303 15.9351L15.0145 17.1538C15.0434 17.203 15.0606 17.2582 15.0649 17.315C15.0692 17.3719 15.0605 17.429 15.0394 17.482L14.1211 19.8102C14.0986 19.8672 14.0626 19.9177 14.0161 19.9575C13.9696 19.9973 13.9141 20.0251 13.8544 20.0385C12.6358 20.3182 11.3698 20.3182 10.1513 20.0385C10.092 20.0249 10.0369 19.9972 9.99077 19.9575C9.94464 19.9179 9.90882 19.8677 9.88641 19.8112Z" fill="#666666"/>
</svg>
