<svg width="24" height="24" viewBox="0 0 24 24" fill="none" xmlns="http://www.w3.org/2000/svg">
<path d="M11.9999 2.24759C6.62385 2.24759 2.24995 6.6215 2.24995 11.9976C2.24995 17.3737 6.62385 21.7476 11.9999 21.7476C17.376 21.7476 21.7499 17.3737 21.7499 11.9976C21.7499 6.6215 17.376 2.24759 11.9999 2.24759ZM18.5924 16.1263H16.4001L15.6084 14.767L16.3115 11.9338L17.7089 11.3413L19.7081 13.0621C19.5584 14.1513 19.178 15.1959 18.5924 16.1263ZM6.29104 11.3413L7.68745 11.9352L8.39057 14.7684L7.59885 16.1277H5.40745C4.82204 15.1977 4.44171 14.1536 4.29182 13.0649L6.29104 11.3413ZM17.9662 7.00681L17.1032 9.45978L15.6445 10.0776L12.9843 7.84728V6.20665L15.0403 4.83696C16.1729 5.3203 17.1754 6.06423 17.9662 7.00821V7.00681ZM8.95963 4.83509L11.0156 6.20478V7.8454L8.35542 10.0771L6.89667 9.45931L6.0337 7.00634C6.8245 6.06236 7.82701 5.31843 8.95963 4.83509ZM10.199 19.5679L9.25682 17.1932L10.0068 15.9037H13.9912L14.744 17.1942L13.8065 19.566C12.62 19.8485 11.3837 19.8485 10.1971 19.566L10.199 19.5679Z" fill="#666666"/>
</svg>
