<svg width="24" height="24" viewBox="0 0 24 24" fill="none" xmlns="http://www.w3.org/2000/svg">
<path d="M13.8749 21.7476C13.7546 21.7475 13.6351 21.7281 13.521 21.6899L9.76398 20.4398C9.54055 20.3647 9.34646 20.2211 9.2093 20.0294C9.07213 19.8377 8.99887 19.6077 8.99991 19.372V13.784C8.99889 13.7817 8.99746 13.7797 8.9957 13.7779L1.09023 4.56978C0.914932 4.36556 0.80192 4.11533 0.764607 3.8488C0.727295 3.58227 0.76725 3.31063 0.879728 3.06613C0.992206 2.82162 1.17248 2.61454 1.39916 2.46944C1.62583 2.32435 1.88938 2.24735 2.15851 2.24759H21.8437C22.1128 2.24735 22.3763 2.32435 22.603 2.46944C22.8297 2.61454 23.01 2.82162 23.1224 3.06613C23.2349 3.31063 23.2749 3.58227 23.2376 3.8488C23.2003 4.11533 23.0872 4.36556 22.9119 4.56978L15.0041 13.7788C15.0025 13.7807 15.0011 13.7828 14.9999 13.7849V20.6226C15.0003 20.7705 14.9715 20.9169 14.9152 21.0536C14.8588 21.1903 14.7759 21.3145 14.6714 21.4191C14.5668 21.5236 14.4426 21.6065 14.3059 21.6628C14.1693 21.7192 14.0228 21.748 13.8749 21.7476Z" fill="#666666"/>
</svg>
