<svg width="24" height="24" viewBox="0 0 24 24" fill="none" xmlns="http://www.w3.org/2000/svg">
<path d="M1.65942 4.07954L9.56489 13.2877C9.6831 13.4234 9.74878 13.597 9.75004 13.777V19.3702C9.74928 19.4485 9.7733 19.5251 9.81867 19.589C9.86405 19.6529 9.92846 19.7009 10.0027 19.726L13.7597 20.9761C13.8159 20.9949 13.8757 21 13.9342 20.9911C13.9928 20.9821 14.0483 20.9593 14.0963 20.9245C14.1442 20.8898 14.1832 20.8441 14.2099 20.7913C14.2367 20.7385 14.2504 20.68 14.25 20.6208V13.777C14.252 13.5967 14.3185 13.4231 14.4375 13.2877L22.3407 4.07954C22.4224 3.98435 22.4751 3.86772 22.4926 3.74348C22.5101 3.61924 22.4916 3.49259 22.4393 3.37854C22.387 3.26449 22.3031 3.16782 22.1976 3.09998C22.092 3.03214 21.9693 2.99599 21.8438 2.99579H2.15864C2.03297 2.99554 1.90988 3.03137 1.80398 3.09903C1.69809 3.16669 1.61385 3.26334 1.56127 3.37747C1.50869 3.49161 1.48999 3.61844 1.50739 3.7429C1.52479 3.86735 1.57756 3.9842 1.65942 4.07954Z" stroke="#666666" stroke-width="1.5" stroke-linecap="round" stroke-linejoin="round"/>
</svg>
