<svg width="24" height="24" viewBox="0 0 24 24" fill="none" xmlns="http://www.w3.org/2000/svg">
<path d="M22.4096 16.7273L20.5782 7.07663C20.1629 5.18522 19.5 3.7485 16.4532 3.7485H6.79692C3.70317 3.7485 3.08723 5.18522 2.67192 7.07663L0.843791 16.7273C0.515666 18.3266 1.05145 19.5984 2.40801 20.0934C3.76457 20.5884 4.82817 19.8266 5.5866 18.3407L6.30942 16.9101C6.37202 16.7863 6.46772 16.6823 6.58589 16.6096C6.70406 16.537 6.84007 16.4985 6.97879 16.4985H16.2732C16.4119 16.4985 16.5479 16.537 16.6661 16.6096C16.7842 16.6823 16.8799 16.7863 16.9425 16.9101L17.6654 18.3407C18.4219 19.8266 19.4879 20.5907 20.844 20.0934C22.2 19.596 22.7344 18.3266 22.4096 16.7273ZM10.5 11.2485H8.25004V13.4985H6.75004V11.2485H4.50004V9.74851H6.75004V7.49851H8.25004V9.74851H10.5V11.2485ZM13.6875 11.436C13.5021 11.436 13.3209 11.381 13.1667 11.278C13.0125 11.175 12.8924 11.0286 12.8214 10.8573C12.7504 10.686 12.7319 10.4975 12.7681 10.3156C12.8042 10.1338 12.8935 9.96671 13.0246 9.83559C13.1557 9.70448 13.3228 9.61519 13.5046 9.57902C13.6865 9.54285 13.875 9.56141 14.0463 9.63237C14.2176 9.70333 14.364 9.82349 14.467 9.97766C14.5701 10.1318 14.625 10.3131 14.625 10.4985C14.625 10.7471 14.5263 10.9856 14.3505 11.1614C14.1746 11.3372 13.9362 11.436 13.6875 11.436ZM15.75 13.4985C15.5646 13.4985 15.3834 13.4435 15.2292 13.3405C15.075 13.2375 14.9549 13.0911 14.8839 12.9198C14.8129 12.7485 14.7944 12.56 14.8306 12.3781C14.8667 12.1963 14.956 12.0292 15.0871 11.8981C15.2182 11.767 15.3853 11.6777 15.5671 11.6415C15.749 11.6053 15.9375 11.6239 16.1088 11.6949C16.2801 11.7658 16.4265 11.886 16.5295 12.0402C16.6326 12.1943 16.6875 12.3756 16.6875 12.561C16.6875 12.8096 16.5888 13.0481 16.413 13.2239C16.2371 13.3997 15.9987 13.4985 15.75 13.4985ZM15.75 9.37351C15.5646 9.37351 15.3834 9.31852 15.2292 9.21551C15.075 9.11249 14.9549 8.96608 14.8839 8.79477C14.8129 8.62347 14.7944 8.43497 14.8306 8.25311C14.8667 8.07125 14.956 7.9042 15.0871 7.77309C15.2182 7.64198 15.3853 7.55269 15.5671 7.51652C15.749 7.48035 15.9375 7.49891 16.1088 7.56987C16.2801 7.64083 16.4265 7.76099 16.5295 7.91516C16.6326 8.06933 16.6875 8.25059 16.6875 8.43601C16.6875 8.68465 16.5888 8.9231 16.413 9.09892C16.2371 9.27473 15.9987 9.37351 15.75 9.37351ZM17.8125 11.436C17.6271 11.436 17.4459 11.381 17.2917 11.278C17.1375 11.175 17.0174 11.0286 16.9464 10.8573C16.8755 10.686 16.8569 10.4975 16.8931 10.3156C16.9292 10.1338 17.0185 9.96671 17.1496 9.83559C17.2807 9.70448 17.4478 9.61519 17.6296 9.57902C17.8115 9.54285 18 9.56141 18.1713 9.63237C18.3426 9.70333 18.489 9.82349 18.592 9.97766C18.6951 10.1318 18.75 10.3131 18.75 10.4985C18.75 10.7471 18.6513 10.9856 18.4755 11.1614C18.2996 11.3372 18.0612 11.436 17.8125 11.436Z" fill="#666666"/>
</svg>
