<svg width="24" height="24" viewBox="0 0 24 24" fill="none" xmlns="http://www.w3.org/2000/svg">
<path d="M22.6467 11.5016C21.6525 7.00679 20.1562 4.60772 17.9367 3.95241C17.4701 3.81556 16.9862 3.74719 16.5 3.74944C15.8573 3.74944 15.2976 3.90601 14.7056 4.07194C13.9922 4.2721 13.1817 4.49944 12 4.49944C10.8182 4.49944 10.0073 4.27257 9.29247 4.07241C8.69997 3.90601 8.14075 3.74944 7.49997 3.74944C6.9972 3.7477 6.49663 3.81585 6.01262 3.95194C3.80481 4.60444 2.3095 7.00257 1.30075 11.4988C0.21606 16.3373 0.749967 19.3921 2.79794 20.1009C3.07866 20.1998 3.37403 20.2508 3.67169 20.2518C5.07466 20.2518 6.19966 19.0832 6.96841 18.1265C7.837 17.0437 8.85372 16.4943 12 16.4943C14.8101 16.4943 15.9731 16.8754 16.9776 18.1265C17.609 18.913 18.2058 19.4634 18.8011 19.8098C19.5928 20.2701 20.384 20.3723 21.1523 20.1084C22.3626 19.6954 23.0564 18.6037 23.2148 16.8627C23.3353 15.5277 23.1497 13.7741 22.6467 11.5016ZM9.74997 11.2494H8.24997V12.7494C8.24997 12.9484 8.17095 13.1391 8.0303 13.2798C7.88965 13.4204 7.69888 13.4994 7.49997 13.4994C7.30105 13.4994 7.11029 13.4204 6.96964 13.2798C6.82899 13.1391 6.74997 12.9484 6.74997 12.7494V11.2494H5.24997C5.05105 11.2494 4.86029 11.1704 4.71964 11.0298C4.57899 10.8891 4.49997 10.6984 4.49997 10.4994C4.49997 10.3005 4.57899 10.1098 4.71964 9.96911C4.86029 9.82846 5.05105 9.74944 5.24997 9.74944H6.74997V8.24944C6.74997 8.05053 6.82899 7.85977 6.96964 7.71911C7.11029 7.57846 7.30105 7.49944 7.49997 7.49944C7.69888 7.49944 7.88965 7.57846 8.0303 7.71911C8.17095 7.85977 8.24997 8.05053 8.24997 8.24944V9.74944H9.74997C9.94888 9.74944 10.1396 9.82846 10.2803 9.96911C10.4209 10.1098 10.5 10.3005 10.5 10.4994C10.5 10.6984 10.4209 10.8891 10.2803 11.0298C10.1396 11.1704 9.94888 11.2494 9.74997 11.2494ZM13.6875 11.4369C13.502 11.4369 13.3208 11.382 13.1666 11.2789C13.0125 11.1759 12.8923 11.0295 12.8213 10.8582C12.7504 10.6869 12.7318 10.4984 12.768 10.3165C12.8042 10.1347 12.8934 9.96764 13.0246 9.83653C13.1557 9.70542 13.3227 9.61613 13.5046 9.57996C13.6864 9.54378 13.8749 9.56235 14.0462 9.63331C14.2175 9.70426 14.364 9.82443 14.467 9.9786C14.57 10.1328 14.625 10.314 14.625 10.4994C14.625 10.7481 14.5262 10.9865 14.3504 11.1624C14.1746 11.3382 13.9361 11.4369 13.6875 11.4369ZM15.75 13.4994C15.5644 13.4994 15.3831 13.4444 15.2289 13.3413C15.0747 13.2382 14.9545 13.0916 14.8836 12.9202C14.8127 12.7487 14.7943 12.5601 14.8307 12.3782C14.867 12.1963 14.9565 12.0292 15.0879 11.8982C15.2192 11.7672 15.3865 11.6781 15.5685 11.6422C15.7505 11.6063 15.9391 11.6252 16.1104 11.6965C16.2816 11.7678 16.4279 11.8883 16.5306 12.0428C16.6333 12.1973 16.6879 12.3788 16.6875 12.5643C16.6868 12.8125 16.5878 13.0504 16.4121 13.2257C16.2363 13.401 15.9982 13.4994 15.75 13.4994ZM15.75 9.37444C15.5645 9.37444 15.3833 9.31946 15.2291 9.21645C15.075 9.11343 14.9548 8.96702 14.8838 8.79571C14.8129 8.6244 14.7943 8.4359 14.8305 8.25405C14.8667 8.07219 14.9559 7.90514 15.0871 7.77403C15.2182 7.64292 15.3852 7.55363 15.5671 7.51746C15.7489 7.48128 15.9374 7.49985 16.1087 7.57081C16.28 7.64176 16.4265 7.76193 16.5295 7.9161C16.6325 8.07027 16.6875 8.25152 16.6875 8.43694C16.6875 8.68558 16.5887 8.92404 16.4129 9.09986C16.2371 9.27567 15.9986 9.37444 15.75 9.37444ZM17.8125 11.4369C17.6271 11.4369 17.4458 11.382 17.2916 11.2789C17.1375 11.1759 17.0173 11.0295 16.9463 10.8582C16.8754 10.6869 16.8568 10.4984 16.893 10.3165C16.9292 10.1347 17.0184 9.96764 17.1496 9.83653C17.2807 9.70542 17.4477 9.61613 17.6296 9.57996C17.8114 9.54378 17.9999 9.56235 18.1712 9.63331C18.3425 9.70426 18.489 9.82443 18.592 9.9786C18.695 10.1328 18.75 10.314 18.75 10.4994C18.75 10.7481 18.6512 10.9865 18.4754 11.1624C18.2996 11.3382 18.0611 11.4369 17.8125 11.4369Z" fill="#666666"/>
</svg>
