<svg width="24" height="24" viewBox="0 0 24 24" fill="none" xmlns="http://www.w3.org/2000/svg">
<g clip-path="url(#clip0_32_1710)">
<path d="M21.9145 11.6606C21.052 7.76158 19.7728 5.27439 17.7225 4.6683C17.3254 4.55246 16.9136 4.49467 16.5 4.49674C15.2395 4.49674 14.2448 5.24674 12 5.24674C9.75515 5.24674 8.75859 4.49674 7.49999 4.49674C7.06909 4.49451 6.63998 4.55225 6.22499 4.6683C4.17187 5.27439 2.90343 7.76392 2.03109 11.6606C1.14046 15.6408 1.30171 18.7856 3.04265 19.3894C4.2614 19.8113 5.35124 18.9389 6.38343 17.655C7.55531 16.1925 8.99859 15.7425 12 15.7425C15.0014 15.7425 16.3884 16.1925 17.5622 17.655C18.5934 18.9399 19.7236 19.8014 20.91 19.3969C22.8328 18.7402 22.8056 15.6877 21.9145 11.6606Z" stroke="#666666" stroke-width="1.5" stroke-miterlimit="10"/>
<path d="M13.6875 11.4378C14.2053 11.4378 14.625 11.0181 14.625 10.5003C14.625 9.98254 14.2053 9.56281 13.6875 9.56281C13.1697 9.56281 12.75 9.98254 12.75 10.5003C12.75 11.0181 13.1697 11.4378 13.6875 11.4378Z" fill="#666666"/>
<path d="M15.7501 13.4976C15.5646 13.4976 15.3832 13.4425 15.229 13.3394C15.0748 13.2363 14.9546 13.0898 14.8837 12.9183C14.8129 12.7469 14.7944 12.5582 14.8308 12.3763C14.8672 12.1944 14.9567 12.0274 15.088 11.8963C15.2194 11.7653 15.3866 11.6762 15.5686 11.6403C15.7507 11.6044 15.9392 11.6233 16.1105 11.6946C16.2818 11.7659 16.428 11.8865 16.5307 12.0409C16.6335 12.1954 16.6881 12.3769 16.6876 12.5624C16.687 12.8107 16.5879 13.0485 16.4122 13.2238C16.2364 13.3991 15.9983 13.4976 15.7501 13.4976Z" fill="#666666"/>
<path d="M15.7501 9.37351C16.2679 9.37351 16.6876 8.95377 16.6876 8.436C16.6876 7.91824 16.2679 7.4985 15.7501 7.4985C15.2323 7.4985 14.8126 7.91824 14.8126 8.436C14.8126 8.95377 15.2323 9.37351 15.7501 9.37351Z" fill="#666666"/>
<path d="M17.8126 11.4378C18.3303 11.4378 18.7501 11.0181 18.7501 10.5003C18.7501 9.98254 18.3303 9.56281 17.8126 9.56281C17.2948 9.56281 16.8751 9.98254 16.8751 10.5003C16.8751 11.0181 17.2948 11.4378 17.8126 11.4378Z" fill="#666666"/>
<path d="M9.75013 10.4967H5.25013M7.50013 8.24667V12.7467V8.24667Z" stroke="#666666" stroke-width="1.5" stroke-linecap="round" stroke-linejoin="round"/>
</g>
<defs>
<clipPath id="clip0_32_1710">
<rect width="24" height="24" fill="white"/>
</clipPath>
</defs>
</svg>
