<svg width="24" height="24" viewBox="0 0 24 24" fill="none" xmlns="http://www.w3.org/2000/svg">
<path d="M3.74999 19.4949C3.74999 20.2906 4.06606 21.0536 4.62867 21.6162C5.19128 22.1788 5.95434 22.4949 6.74999 22.4949H11.0625C11.1122 22.4949 11.1599 22.4751 11.1951 22.44C11.2302 22.4048 11.25 22.3571 11.25 22.3074V13.6824C11.25 13.6327 11.2302 13.585 11.1951 13.5498C11.1599 13.5147 11.1122 13.4949 11.0625 13.4949H4.12499C4.02553 13.4949 3.93015 13.5344 3.85982 13.6047C3.7895 13.6751 3.74999 13.7704 3.74999 13.8699V19.4949ZM11.25 11.8074V6.7449H12.75V11.8074C12.75 11.8571 12.7697 11.9048 12.8049 11.94C12.8401 11.9751 12.8878 11.9949 12.9375 11.9949H19.5C19.7555 11.9949 20.0091 11.9513 20.25 11.866C20.6883 11.7104 21.0677 11.423 21.3363 11.0433C21.6048 10.6635 21.7493 10.21 21.75 9.7449V8.9949C21.75 8.39816 21.5129 7.82587 21.091 7.40391C20.669 6.98195 20.0967 6.7449 19.5 6.7449H17.5997C17.5833 6.74464 17.5674 6.74012 17.5533 6.73178C17.5393 6.72345 17.5277 6.71159 17.5196 6.69738C17.5116 6.68317 17.5074 6.66711 17.5074 6.65078C17.5075 6.63445 17.5118 6.61842 17.52 6.60427C17.954 5.87156 18.0949 5.00188 17.9146 4.1696C17.7342 3.33732 17.2459 2.60398 16.5476 2.11663C15.8492 1.62928 14.9925 1.42394 14.1491 1.54179C13.3057 1.65964 12.538 2.09197 12 2.75209C11.462 2.09197 10.6943 1.65964 9.85091 1.54179C9.00751 1.42394 8.15074 1.62928 7.45239 2.11663C6.75403 2.60398 6.26573 3.33732 6.08539 4.1696C5.90505 5.00188 6.046 5.87156 6.47999 6.60427C6.48816 6.61842 6.49249 6.63445 6.49255 6.65078C6.49262 6.66711 6.48842 6.68317 6.48037 6.69738C6.47232 6.71159 6.4607 6.72345 6.44665 6.73178C6.43261 6.74012 6.41663 6.74464 6.4003 6.7449H4.49999C3.90325 6.7449 3.33096 6.98195 2.909 7.40391C2.48704 7.82587 2.24999 8.39816 2.24999 8.9949V9.7449C2.25065 10.21 2.39516 10.6635 2.66371 11.0433C2.93226 11.423 3.31169 11.7104 3.74999 11.866C3.99084 11.9513 4.24448 11.9949 4.49999 11.9949H11.0625C11.1122 11.9949 11.1599 11.9751 11.1951 11.94C11.2302 11.9048 11.25 11.8571 11.25 11.8074ZM12.75 4.8699C12.75 4.49906 12.86 4.13655 13.066 3.8282C13.272 3.51986 13.5648 3.27954 13.9075 3.13762C14.2501 2.99571 14.6271 2.95858 14.9908 3.03093C15.3545 3.10327 15.6886 3.28185 15.9508 3.54407C16.213 3.8063 16.3916 4.14039 16.464 4.5041C16.5363 4.86782 16.4992 5.24482 16.3573 5.58743C16.2153 5.93004 15.975 6.22288 15.6667 6.4289C15.3583 6.63493 14.9958 6.7449 14.625 6.7449H12.75V4.8699ZM9.24093 2.99959C9.4978 2.98117 9.75571 3.01587 9.99859 3.10152C10.2415 3.18718 10.4641 3.32194 10.6526 3.49742C10.8411 3.6729 10.9914 3.88532 11.0942 4.12146C11.197 4.35759 11.25 4.61237 11.25 4.8699V6.7449H9.37499C8.89016 6.74365 8.42465 6.55466 8.07618 6.21757C7.7277 5.88048 7.52335 5.42151 7.506 4.93699C7.48866 4.45246 7.65967 3.98005 7.98315 3.61891C8.30663 3.25777 8.75742 3.03596 9.24093 3.00005V2.99959ZM12.9375 22.4949H17.25C18.0456 22.4949 18.8087 22.1788 19.3713 21.6162C19.9339 21.0536 20.25 20.2906 20.25 19.4949V13.8699C20.25 13.7704 20.2105 13.6751 20.1402 13.6047C20.0698 13.5344 19.9744 13.4949 19.875 13.4949H12.9375C12.8878 13.4949 12.8401 13.5147 12.8049 13.5498C12.7697 13.585 12.75 13.6327 12.75 13.6824V22.3074C12.75 22.3571 12.7697 22.4048 12.8049 22.44C12.8401 22.4751 12.8878 22.4949 12.9375 22.4949Z" fill="#666666"/>
</svg>
