<svg width="24" height="24" viewBox="0 0 24 24" fill="none" xmlns="http://www.w3.org/2000/svg">
<path d="M10.9688 6.75017H13.0313V12.0002H20.7188C20.9923 12.0002 21.2546 11.8915 21.448 11.6981C21.6414 11.5047 21.7501 11.2424 21.7501 10.9689V7.78142C21.7501 7.50792 21.6414 7.24562 21.448 7.05222C21.2546 6.85882 20.9923 6.75017 20.7188 6.75017H17.9148C18.2945 5.96811 18.3829 5.07629 18.1642 4.23489C17.9454 3.39348 17.4339 2.65764 16.7213 2.15953C16.0088 1.66142 15.142 1.43368 14.2767 1.51722C13.4114 1.60076 12.6041 1.99011 12.0001 2.61533C11.395 1.99354 10.5884 1.6072 9.72467 1.52537C8.8609 1.44353 7.99618 1.67154 7.28506 2.16863C6.57394 2.66572 6.06277 3.3995 5.84291 4.23882C5.62304 5.07813 5.70882 5.96828 6.08491 6.75017H3.28132C3.00781 6.75017 2.74551 6.85882 2.55211 7.05222C2.35872 7.24562 2.25007 7.50792 2.25007 7.78142V10.9689C2.25007 11.2424 2.35872 11.5047 2.55211 11.6981C2.64788 11.7939 2.76156 11.8698 2.88668 11.9217C3.01179 11.9735 3.14589 12.0002 3.28132 12.0002H10.9688V6.75017ZM13.0313 5.15642C13.0313 4.84121 13.1248 4.53307 13.2999 4.27098C13.475 4.00889 13.7239 3.80462 14.0152 3.68399C14.3064 3.56336 14.6268 3.5318 14.936 3.59329C15.2452 3.65479 15.5291 3.80658 15.752 4.02947C15.9749 4.25236 16.1267 4.53634 16.1882 4.8455C16.2497 5.15465 16.2181 5.4751 16.0975 5.76632C15.9769 6.05754 15.7726 6.30645 15.5105 6.48158C15.2484 6.6567 14.9403 6.75017 14.6251 6.75017H13.0313V5.15642ZM7.78132 5.15642C7.78132 4.73373 7.94923 4.32836 8.24812 4.02947C8.547 3.73058 8.95238 3.56267 9.37507 3.56267C9.79776 3.56267 10.2031 3.73058 10.502 4.02947C10.8009 4.32836 10.9688 4.73373 10.9688 5.15642V6.75017H9.37507C8.95238 6.75017 8.547 6.58226 8.24812 6.28337C7.94923 5.98449 7.78132 5.57911 7.78132 5.15642ZM13.0313 22.5002H19.2188C19.4923 22.5002 19.7546 22.3915 19.948 22.1981C20.1414 22.0047 20.2501 21.7424 20.2501 21.4689V13.5002H13.0313V22.5002ZM3.75007 21.4689C3.75007 21.7424 3.85872 22.0047 4.05211 22.1981C4.24551 22.3915 4.50781 22.5002 4.78132 22.5002H10.9688V13.5002H3.75007V21.4689Z" fill="#666666"/>
</svg>
