<svg width="24" height="24" viewBox="0 0 24 24" fill="none" xmlns="http://www.w3.org/2000/svg">
<path d="M12 4.87351V7.49851H14.625C15.1442 7.49851 15.6517 7.34455 16.0834 7.05611C16.5151 6.76768 16.8515 6.35771 17.0502 5.87805C17.2489 5.39839 17.3009 4.87059 17.1996 4.36139C17.0983 3.85219 16.8483 3.38446 16.4812 3.01735C16.1141 2.65024 15.6464 2.40023 15.1372 2.29894C14.628 2.19766 14.1002 2.24964 13.6205 2.44832C13.1408 2.647 12.7309 2.98346 12.4424 3.41513C12.154 3.84681 12 4.35433 12 4.87351V4.87351ZM12 4.87351V7.49851H9.37504C8.85586 7.49851 8.34835 7.34455 7.91667 7.05611C7.48499 6.76768 7.14854 6.35771 6.94986 5.87805C6.75118 5.39839 6.69919 4.87059 6.80048 4.36139C6.90176 3.85219 7.15177 3.38446 7.51888 3.01735C7.886 2.65024 8.35373 2.40023 8.86293 2.29894C9.37213 2.19766 9.89993 2.24964 10.3796 2.44832C10.8592 2.647 11.2692 2.98346 11.5576 3.41513C11.8461 3.84681 12 4.35433 12 4.87351V4.87351Z" stroke="#666666" stroke-width="1.5" stroke-miterlimit="10" stroke-linecap="round"/>
<path d="M19.5 7.49939H4.50004C3.67161 7.49939 3.00004 8.17096 3.00004 8.99939V11.2494C3.00004 12.0778 3.67161 12.7494 4.50004 12.7494H19.5C20.3285 12.7494 21 12.0778 21 11.2494V8.99939C21 8.17096 20.3285 7.49939 19.5 7.49939Z" stroke="#666666" stroke-width="1.5" stroke-linecap="round" stroke-linejoin="round"/>
<path d="M12.0001 7.49939V21.7494M19.5001 12.7494V19.4994C19.5001 20.0961 19.263 20.6684 18.8411 21.0904C18.4191 21.5123 17.8468 21.7494 17.2501 21.7494H6.75009C6.15335 21.7494 5.58106 21.5123 5.1591 21.0904C4.73714 20.6684 4.50009 20.0961 4.50009 19.4994V12.7494H19.5001Z" stroke="#666666" stroke-width="1.5" stroke-linecap="round" stroke-linejoin="round"/>
</svg>
