<svg width="24" height="24" viewBox="0 0 24 24" fill="none" xmlns="http://www.w3.org/2000/svg">
<path d="M5.99999 21.7494C7.24263 21.7494 8.24999 20.742 8.24999 19.4994C8.24999 18.2568 7.24263 17.2494 5.99999 17.2494C4.75735 17.2494 3.74999 18.2568 3.74999 19.4994C3.74999 20.742 4.75735 21.7494 5.99999 21.7494Z" stroke="#666666" stroke-width="1.5" stroke-linecap="round" stroke-linejoin="round"/>
<path d="M13.5001 7.49671L10.5001 4.4967L13.5001 1.4967M6.00008 6.7467V17.2467V6.7467Z" stroke="#666666" stroke-width="1.5" stroke-linecap="round" stroke-linejoin="round"/>
<path d="M5.99999 6.74941C7.24263 6.74941 8.24999 5.74205 8.24999 4.49941C8.24999 3.25676 7.24263 2.2494 5.99999 2.2494C4.75735 2.2494 3.74999 3.25676 3.74999 4.49941C3.74999 5.74205 4.75735 6.74941 5.99999 6.74941Z" stroke="#666666" stroke-width="1.5" stroke-linecap="round" stroke-linejoin="round"/>
<path d="M18 21.7494C19.2427 21.7494 20.25 20.742 20.25 19.4994C20.25 18.2568 19.2427 17.2494 18 17.2494C16.7574 17.2494 15.75 18.2568 15.75 19.4994C15.75 20.742 16.7574 21.7494 18 21.7494Z" stroke="#666666" stroke-width="1.5" stroke-linecap="round" stroke-linejoin="round"/>
<path d="M11.25 4.4985H15.1875C15.9334 4.4985 16.6488 4.79482 17.1762 5.32227C17.7037 5.84971 18 6.56508 18 7.311V17.2485" stroke="#666666" stroke-width="1.5" stroke-linecap="round" stroke-linejoin="round"/>
</svg>
