<svg width="24" height="24" viewBox="0 0 24 24" fill="none" xmlns="http://www.w3.org/2000/svg">
<g clip-path="url(#clip0_32_1748)">
<path d="M14.2499 7.4967L11.2499 4.4967L14.2499 1.4967M9.70304 16.4967L12.703 19.4967L9.70304 22.4967" stroke="#666666" stroke-width="1.5" stroke-linecap="round" stroke-linejoin="round"/>
<path d="M5.24997 6.74941C6.49261 6.74941 7.49997 5.74205 7.49997 4.49941C7.49997 3.25676 6.49261 2.2494 5.24997 2.2494C4.00733 2.2494 2.99997 3.25676 2.99997 4.49941C2.99997 5.74205 4.00733 6.74941 5.24997 6.74941Z" stroke="#666666" stroke-width="1.5" stroke-linecap="round" stroke-linejoin="round"/>
<path d="M18.7501 21.7494C19.9927 21.7494 21.0001 20.742 21.0001 19.4994C21.0001 18.2568 19.9927 17.2494 18.7501 17.2494C17.5074 17.2494 16.5001 18.2568 16.5001 19.4994C16.5001 20.742 17.5074 21.7494 18.7501 21.7494Z" stroke="#666666" stroke-width="1.5" stroke-linecap="round" stroke-linejoin="round"/>
<path d="M12 4.4985H15.9375C16.6835 4.4985 17.3988 4.79482 17.9263 5.32227C18.4537 5.84971 18.75 6.56508 18.75 7.31101V17.2485M11.9532 19.4985H8.01566C7.26973 19.4985 6.55436 19.2022 6.02692 18.6747C5.49947 18.1473 5.20316 17.4319 5.20316 16.686V6.74851" stroke="#666666" stroke-width="1.5" stroke-linecap="round" stroke-linejoin="round"/>
</g>
<defs>
<clipPath id="clip0_32_1748">
<rect width="24" height="24" fill="white" transform="translate(0 -0.00390625)"/>
</clipPath>
</defs>
</svg>
