<svg width="24" height="24" viewBox="0 0 24 24" fill="none" xmlns="http://www.w3.org/2000/svg">
<path d="M22.5 10.4966H17.8125C17.4804 9.20809 16.7294 8.06649 15.6776 7.25141C14.6259 6.43632 13.333 5.99399 12.0023 5.99399C10.6717 5.99399 9.3788 6.43632 8.32702 7.25141C7.27524 8.06649 6.52426 9.20809 6.19218 10.4966H1.49999V13.4966H6.18984C6.5211 14.7862 7.2719 15.929 8.32399 16.745C9.37609 17.561 10.6697 18.0038 12.0012 18.0038C13.3326 18.0038 14.6262 17.561 15.6783 16.745C16.7304 15.929 17.4812 14.7862 17.8125 13.4966H22.5V10.4966ZM12 14.9966C11.4066 14.9966 10.8266 14.8207 10.3333 14.491C9.83994 14.1614 9.45542 13.6929 9.22835 13.1447C9.00129 12.5965 8.94188 11.9933 9.05764 11.4114C9.17339 10.8294 9.45912 10.2949 9.87867 9.87531C10.2982 9.45575 10.8328 9.17003 11.4147 9.05427C11.9967 8.93852 12.5999 8.99793 13.148 9.22499C13.6962 9.45205 14.1648 9.83657 14.4944 10.3299C14.824 10.8233 15 11.4033 15 11.9966C14.9991 12.792 14.6828 13.5546 14.1204 14.117C13.5579 14.6794 12.7954 14.9958 12 14.9966Z" fill="#666666"/>
</svg>
