<svg width="24" height="24" viewBox="0 0 24 24" fill="none" xmlns="http://www.w3.org/2000/svg">
<path d="M21 4.49849C21.0003 3.97252 20.8623 3.45572 20.5998 2.99991C20.3374 2.54409 19.9597 2.16529 19.5047 1.90148C19.0497 1.63767 18.5333 1.49812 18.0073 1.49683C17.4814 1.49555 16.9643 1.63256 16.508 1.89414C16.0517 2.15573 15.6722 2.53268 15.4075 2.9872C15.1428 3.44172 15.0023 3.95784 15 4.48381C14.9977 5.00977 15.1338 5.52709 15.3945 5.98389C15.6552 6.4407 16.0314 6.82093 16.4855 7.08646C16.4016 8.06474 15.9478 8.8724 15.1322 9.49068C14.3001 10.1235 13.1292 10.4985 12 10.4985C10.8708 10.4985 9.69983 10.1235 8.8678 9.49068C8.05217 8.8724 7.59842 8.06474 7.51452 7.08646C8.08439 6.75323 8.52844 6.24135 8.77785 5.63013C9.02725 5.01891 9.06809 4.34249 8.89403 3.7057C8.71997 3.06892 8.34074 2.50732 7.8151 2.10795C7.28945 1.70859 6.64676 1.49375 5.98662 1.49673C5.32648 1.49972 4.68576 1.72036 4.16375 2.12447C3.64175 2.52858 3.2676 3.09358 3.09931 3.73191C2.93102 4.37025 2.97798 5.04627 3.23291 5.65521C3.48783 6.26415 3.9365 6.772 4.50936 7.10005C4.60686 9.01583 5.5017 10.7033 7.05514 11.8813C8.02967 12.6201 9.23436 13.1324 10.5 13.3621V16.9021C9.92806 17.2323 9.48107 17.742 9.22835 18.3521C8.97562 18.9622 8.93128 19.6387 9.10221 20.2766C9.27313 20.9145 9.64977 21.4782 10.1737 21.8802C10.6976 22.2823 11.3396 22.5002 12 22.5002C12.6604 22.5002 13.3023 22.2823 13.8263 21.8802C14.3502 21.4782 14.7268 20.9145 14.8978 20.2766C15.0687 19.6387 15.0244 18.9622 14.7716 18.3521C14.5189 17.742 14.0719 17.2323 13.5 16.9021V13.3621C14.7656 13.1324 15.9703 12.6201 16.9448 11.8813C18.4983 10.7033 19.3931 9.01583 19.4906 7.10005C19.9489 6.83764 20.3298 6.4589 20.5949 6.00209C20.8599 5.54528 20.9997 5.02661 21 4.49849ZM5.99998 2.99849C6.29666 2.99849 6.58667 3.08646 6.83334 3.25128C7.08001 3.41611 7.27227 3.65037 7.3858 3.92446C7.49934 4.19855 7.52904 4.50015 7.47116 4.79113C7.41329 5.0821 7.27042 5.34937 7.06065 5.55915C6.85087 5.76893 6.58359 5.91179 6.29262 5.96967C6.00165 6.02755 5.70005 5.99784 5.42596 5.88431C5.15187 5.77078 4.9176 5.57852 4.75278 5.33184C4.58796 5.08517 4.49998 4.79516 4.49998 4.49849C4.49998 4.10066 4.65802 3.71913 4.93932 3.43783C5.22063 3.15652 5.60216 2.99849 5.99998 2.99849ZM12 20.9985C11.7033 20.9985 11.4133 20.9105 11.1666 20.7457C10.92 20.5809 10.7277 20.3466 10.6142 20.0725C10.5006 19.7984 10.4709 19.4968 10.5288 19.2059C10.5867 18.9149 10.7295 18.6476 10.9393 18.4378C11.1491 18.2281 11.4164 18.0852 11.7074 18.0273C11.9983 17.9694 12.2999 17.9991 12.574 18.1127C12.8481 18.2262 13.0824 18.4185 13.2472 18.6651C13.412 18.9118 13.5 19.2018 13.5 19.4985C13.5 19.8963 13.342 20.2778 13.0606 20.5592C12.7793 20.8405 12.3978 20.9985 12 20.9985ZM18 5.99849C17.7033 5.99849 17.4133 5.91052 17.1666 5.74569C16.92 5.58087 16.7277 5.3466 16.6142 5.07251C16.5006 4.79843 16.4709 4.49683 16.5288 4.20585C16.5867 3.91488 16.7295 3.64761 16.9393 3.43783C17.1491 3.22805 17.4164 3.08519 17.7074 3.02731C17.9983 2.96943 18.2999 2.99914 18.574 3.11267C18.8481 3.2262 19.0824 3.41846 19.2472 3.66513C19.412 3.91181 19.5 4.20182 19.5 4.49849C19.5 4.89631 19.342 5.27785 19.0606 5.55915C18.7793 5.84045 18.3978 5.99849 18 5.99849Z" fill="#666666"/>
</svg>
