<svg width="24" height="24" viewBox="0 0 24 24" fill="none" xmlns="http://www.w3.org/2000/svg">
<path d="M7.50003 6.74851C8.74267 6.74851 9.75003 5.74115 9.75003 4.4985C9.75003 3.25586 8.74267 2.2485 7.50003 2.2485C6.25738 2.2485 5.25002 3.25586 5.25002 4.4985C5.25002 5.74115 6.25738 6.74851 7.50003 6.74851Z" stroke="#666666" stroke-width="1.5" stroke-linecap="round" stroke-linejoin="round"/>
<path d="M7.50003 21.7485C8.74267 21.7485 9.75003 20.7411 9.75003 19.4985C9.75003 18.2559 8.74267 17.2485 7.50003 17.2485C6.25738 17.2485 5.25002 18.2559 5.25002 19.4985C5.25002 20.7411 6.25738 21.7485 7.50003 21.7485Z" stroke="#666666" stroke-width="1.5" stroke-linecap="round" stroke-linejoin="round"/>
<path d="M7.50011 17.2467V6.7467" stroke="#666666" stroke-width="1.5" stroke-linecap="round" stroke-linejoin="round"/>
<path d="M16.5001 9.74579C17.7427 9.74579 18.7501 8.73843 18.7501 7.49579C18.7501 6.25315 17.7427 5.24579 16.5001 5.24579C15.2574 5.24579 14.2501 6.25315 14.2501 7.49579C14.2501 8.73843 15.2574 9.74579 16.5001 9.74579Z" stroke="#666666" stroke-width="1.5" stroke-linecap="round" stroke-linejoin="round"/>
<path d="M16.5001 9.7485C16.5001 15.7485 7.50011 11.9985 7.50011 17.2485" stroke="#666666" stroke-width="1.5" stroke-linecap="round" stroke-linejoin="round"/>
</svg>
