<svg width="24" height="24" viewBox="0 0 24 24" fill="none" xmlns="http://www.w3.org/2000/svg">
<g clip-path="url(#clip0_32_1753)">
<path d="M9.79698 17.9991H8.06261C7.71451 17.9991 7.38067 17.8608 7.13453 17.6147C6.88839 17.3685 6.75011 17.0347 6.75011 16.6866V7.12409C7.32787 6.80426 7.78397 6.30273 8.04765 5.69728C8.31134 5.09184 8.36789 4.4163 8.20853 3.77544C8.04917 3.13458 7.6828 2.5642 7.16625 2.15277C6.6497 1.74134 6.01182 1.51185 5.35155 1.49988C4.69128 1.48792 4.04551 1.69414 3.51439 2.08658C2.98327 2.47902 2.59648 3.03574 2.414 3.67041C2.23152 4.30508 2.26355 4.98222 2.50512 5.59683C2.7467 6.21143 3.18431 6.72916 3.75011 7.06971V16.6866C3.75135 17.83 4.2061 18.9261 5.01458 19.7346C5.82306 20.5431 6.91924 20.9978 8.06261 20.9991H9.79698V23.5871L13.7996 19.4991L9.79698 15.4111V17.9991ZM5.29698 2.99909C5.59366 2.99909 5.88367 3.08706 6.13034 3.25188C6.37701 3.4167 6.56927 3.65097 6.6828 3.92506C6.79634 4.19915 6.82604 4.50075 6.76816 4.79172C6.71028 5.08269 6.56742 5.34997 6.35764 5.55975C6.14787 5.76953 5.88059 5.91239 5.58962 5.97026C5.29865 6.02814 4.99705 5.99844 4.72296 5.88491C4.44887 5.77137 4.2146 5.57911 4.04978 5.33244C3.88496 5.08577 3.79698 4.79576 3.79698 4.49909C3.79698 4.10126 3.95502 3.71973 4.23632 3.43843C4.51763 3.15712 4.89916 2.99909 5.29698 2.99909ZM20.2501 16.9027V7.31159C20.2489 6.16822 19.7941 5.07204 18.9856 4.26356C18.1772 3.45508 17.081 3.00033 15.9376 2.99909H14.297V0.464554L10.1785 4.49909L14.297 8.53362V5.99909H15.9376C16.2857 5.99909 16.6195 6.13737 16.8657 6.38351C17.1118 6.62965 17.2501 6.96349 17.2501 7.31159V16.9027C16.6782 17.2329 16.2312 17.7426 15.9785 18.3527C15.7257 18.9628 15.6814 19.6393 15.8523 20.2772C16.0233 20.9151 16.3999 21.4788 16.9238 21.8808C17.4478 22.2828 18.0897 22.5008 18.7501 22.5008C19.4105 22.5008 20.0525 22.2828 20.5764 21.8808C21.1003 21.4788 21.477 20.9151 21.6479 20.2772C21.8188 19.6393 21.7745 18.9628 21.5217 18.3527C21.269 17.7426 20.822 17.2329 20.2501 16.9027ZM18.7501 20.9991C18.4534 20.9991 18.1634 20.9111 17.9168 20.7463C17.6701 20.5815 17.4778 20.3472 17.3643 20.0731C17.2508 19.799 17.2211 19.4974 17.2789 19.2065C17.3368 18.9155 17.4797 18.6482 17.6895 18.4384C17.8992 18.2286 18.1665 18.0858 18.4575 18.0279C18.7484 17.97 19.05 17.9997 19.3241 18.1133C19.5982 18.2268 19.8325 18.4191 19.9973 18.6657C20.1621 18.9124 20.2501 19.2024 20.2501 19.4991C20.2501 19.8969 20.0921 20.2784 19.8108 20.5597C19.5295 20.8411 19.1479 20.9991 18.7501 20.9991Z" fill="#666666"/>
</g>
<defs>
<clipPath id="clip0_32_1753">
<rect width="24" height="24" fill="white" transform="translate(-0.00012207 -0.00390625)"/>
</clipPath>
</defs>
</svg>
