<svg width="24" height="24" viewBox="0 0 24 24" fill="none" xmlns="http://www.w3.org/2000/svg">
<path d="M16.4999 4.49746C16.0039 4.49752 15.5157 4.62056 15.0789 4.85555C14.6422 5.09054 14.2705 5.43016 13.9971 5.844C13.7237 6.25785 13.5572 6.73302 13.5125 7.22698C13.4678 7.72094 13.5463 8.21828 13.7409 8.67449L8.99992 12.7995V7.09387C9.57184 6.76366 10.0188 6.25397 10.2716 5.64384C10.5243 5.03371 10.5686 4.35723 10.3977 3.71933C10.2268 3.08143 9.85014 2.51776 9.3262 2.11573C8.80227 1.7137 8.16032 1.49579 7.49992 1.49579C6.83952 1.49579 6.19757 1.7137 5.67363 2.11573C5.1497 2.51776 4.77307 3.08143 4.60214 3.71933C4.43122 4.35723 4.47555 5.03371 4.72828 5.64384C4.981 6.25397 5.42799 6.76366 5.99992 7.09387V16.9011C5.42799 17.2313 4.981 17.7409 4.72828 18.3511C4.47555 18.9612 4.43122 19.6377 4.60214 20.2756C4.77307 20.9135 5.1497 21.4772 5.67363 21.8792C6.19757 22.2812 6.83952 22.4991 7.49992 22.4991C8.16032 22.4991 8.80227 22.2812 9.3262 21.8792C9.85014 21.4772 10.2268 20.9135 10.3977 20.2756C10.5686 19.6377 10.5243 18.9612 10.2716 18.3511C10.0188 17.7409 9.57184 17.2313 8.99992 16.9011V16.7787L16.2304 10.4848C16.3195 10.4928 16.409 10.4975 16.4999 10.4975C17.2956 10.4975 18.0586 10.1814 18.6212 9.61878C19.1838 9.05617 19.4999 8.29311 19.4999 7.49746C19.4999 6.70181 19.1838 5.93875 18.6212 5.37614C18.0586 4.81353 17.2956 4.49746 16.4999 4.49746ZM7.49992 2.99746C7.79659 2.99746 8.0866 3.08543 8.33327 3.25025C8.57995 3.41508 8.77221 3.64934 8.88574 3.92343C8.99927 4.19752 9.02897 4.49912 8.9711 4.79009C8.91322 5.08107 8.77036 5.34834 8.56058 5.55812C8.3508 5.7679 8.08353 5.91076 7.79255 5.96864C7.50158 6.02652 7.19998 5.99681 6.92589 5.88328C6.6518 5.76975 6.41754 5.57749 6.25271 5.33081C6.08789 5.08414 5.99992 4.79413 5.99992 4.49746C5.99992 4.09963 6.15795 3.7181 6.43926 3.4368C6.72056 3.15549 7.10209 2.99746 7.49992 2.99746ZM7.49992 20.9975C7.20325 20.9975 6.91324 20.9095 6.66656 20.7447C6.41989 20.5798 6.22763 20.3456 6.1141 20.0715C6.00057 19.7974 5.97086 19.4958 6.02874 19.2048C6.08662 18.9139 6.22948 18.6466 6.43926 18.4368C6.64904 18.227 6.91631 18.0842 7.20728 18.0263C7.49825 17.9684 7.79985 17.9981 8.07394 18.1116C8.34803 18.2252 8.5823 18.4174 8.74712 18.6641C8.91195 18.9108 8.99992 19.2008 8.99992 19.4975C8.99992 19.8953 8.84188 20.2768 8.56058 20.5581C8.27927 20.8394 7.89774 20.9975 7.49992 20.9975ZM16.4999 8.99746C16.2032 8.99746 15.9132 8.90949 15.6666 8.74466C15.4199 8.57984 15.2276 8.34557 15.1141 8.07148C15.0006 7.7974 14.9709 7.4958 15.0287 7.20482C15.0866 6.91385 15.2295 6.64658 15.4393 6.4368C15.649 6.22702 15.9163 6.08416 16.2073 6.02628C16.4983 5.9684 16.7999 5.99811 17.0739 6.11164C17.348 6.22517 17.5823 6.41743 17.7471 6.6641C17.9119 6.91078 17.9999 7.20079 17.9999 7.49746C17.9999 7.89528 17.8419 8.27681 17.5606 8.55812C17.2793 8.83942 16.8977 8.99746 16.4999 8.99746Z" fill="#666666"/>
</svg>
