<svg width="24" height="24" viewBox="0 0 24 24" fill="none" xmlns="http://www.w3.org/2000/svg">
<path d="M6.00009 6.74941C7.24273 6.74941 8.25009 5.74205 8.25009 4.49941C8.25009 3.25676 7.24273 2.2494 6.00009 2.2494C4.75745 2.2494 3.75009 3.25676 3.75009 4.49941C3.75009 5.74205 4.75745 6.74941 6.00009 6.74941Z" stroke="#666666" stroke-width="1.5" stroke-linecap="round" stroke-linejoin="round"/>
<path d="M12 21.7494C13.2427 21.7494 14.25 20.742 14.25 19.4994C14.25 18.2568 13.2427 17.2494 12 17.2494C10.7574 17.2494 9.75004 18.2568 9.75004 19.4994C9.75004 20.742 10.7574 21.7494 12 21.7494Z" stroke="#666666" stroke-width="1.5" stroke-linecap="round" stroke-linejoin="round"/>
<path d="M12.0001 11.9985V17.2485" stroke="#666666" stroke-width="1.5" stroke-linecap="round" stroke-linejoin="round"/>
<path d="M18.0001 6.74941C19.2428 6.74941 20.2501 5.74205 20.2501 4.49941C20.2501 3.25676 19.2428 2.2494 18.0001 2.2494C16.7575 2.2494 15.7501 3.25676 15.7501 4.49941C15.7501 5.74205 16.7575 6.74941 18.0001 6.74941Z" stroke="#666666" stroke-width="1.5" stroke-linecap="round" stroke-linejoin="round"/>
<path d="M6.00004 6.7476C6.00004 10.2478 9.23066 11.9976 12 11.9976C14.7694 11.9976 18 10.2478 18 6.7476" stroke="#666666" stroke-width="1.5" stroke-linecap="round" stroke-linejoin="round"/>
</svg>
