<svg width="24" height="24" viewBox="0 0 24 24" fill="none" xmlns="http://www.w3.org/2000/svg">
<path d="M18.0001 10.4998C17.3596 10.4991 16.7359 10.7046 16.2212 11.0857L7.50008 7.18853V7.09478C8.07201 6.76458 8.519 6.25489 8.77172 5.64476C9.02445 5.03462 9.06879 4.35815 8.89786 3.72025C8.72694 3.08235 8.3503 2.51867 7.82637 2.11664C7.30243 1.71462 6.66048 1.4967 6.00008 1.4967C5.33968 1.4967 4.69773 1.71462 4.1738 2.11664C3.64986 2.51867 3.27323 3.08235 3.1023 3.72025C2.93138 4.35815 2.97572 5.03462 3.22844 5.64476C3.48117 6.25489 3.92816 6.76458 4.50008 7.09478V16.9034C3.92816 17.2336 3.48117 17.7433 3.22844 18.3534C2.97572 18.9635 2.93138 19.64 3.1023 20.2779C3.27323 20.9158 3.64986 21.4795 4.1738 21.8815C4.69773 22.2835 5.33968 22.5015 6.00008 22.5015C6.66048 22.5015 7.30243 22.2835 7.82637 21.8815C8.3503 21.4795 8.72694 20.9158 8.89786 20.2779C9.06879 19.64 9.02445 18.9635 8.77172 18.3534C8.519 17.7433 8.07201 17.2336 7.50008 16.9034V10.4745L15.0193 13.8349C15.084 14.4104 15.3138 14.9548 15.6811 15.4025C16.0484 15.8502 16.5374 16.182 17.0891 16.358C17.6408 16.5339 18.2316 16.5464 18.7902 16.394C19.3489 16.2415 19.8515 15.9307 20.2374 15.4989C20.6232 15.0672 20.8759 14.533 20.9649 13.9608C21.0539 13.3886 20.9754 12.8029 20.7388 12.2743C20.5023 11.7458 20.1178 11.297 19.6318 10.9821C19.1459 10.6672 18.5792 10.4997 18.0001 10.4998ZM6.00008 2.99978C6.29675 2.99978 6.58676 3.08775 6.83344 3.25258C7.08011 3.4174 7.27237 3.65167 7.3859 3.92576C7.49943 4.19985 7.52914 4.50145 7.47126 4.79242C7.41338 5.08339 7.27052 5.35066 7.06074 5.56044C6.85096 5.77022 6.58369 5.91308 6.29272 5.97096C6.00175 6.02884 5.70015 5.99913 5.42606 5.8856C5.15197 5.77207 4.9177 5.57981 4.75288 5.33314C4.58806 5.08646 4.50008 4.79645 4.50008 4.49978C4.50008 4.10196 4.65812 3.72043 4.93942 3.43912C5.22073 3.15782 5.60226 2.99978 6.00008 2.99978ZM6.00008 20.9998C5.70341 20.9998 5.4134 20.9118 5.16673 20.747C4.92005 20.5822 4.72779 20.3479 4.61426 20.0738C4.50073 19.7997 4.47103 19.4981 4.5289 19.2071C4.58678 18.9162 4.72964 18.6489 4.93942 18.4391C5.1492 18.2293 5.41647 18.0865 5.70745 18.0286C5.99842 17.9707 6.30002 18.0004 6.57411 18.114C6.8482 18.2275 7.08246 18.4198 7.24729 18.6664C7.41211 18.9131 7.50008 19.2031 7.50008 19.4998C7.50008 19.8976 7.34205 20.2791 7.06074 20.5604C6.77944 20.8417 6.39791 20.9998 6.00008 20.9998ZM18.0001 14.9998C17.7034 14.9998 17.4134 14.9118 17.1667 14.747C16.9201 14.5822 16.7278 14.3479 16.6143 14.0738C16.5007 13.7997 16.471 13.4981 16.5289 13.2071C16.5868 12.9162 16.7296 12.6489 16.9394 12.4391C17.1492 12.2293 17.4165 12.0865 17.7074 12.0286C17.9984 11.9707 18.3 12.0004 18.5741 12.114C18.8482 12.2275 19.0825 12.4198 19.2473 12.6664C19.4121 12.9131 19.5001 13.2031 19.5001 13.4998C19.5001 13.8976 19.3421 14.2791 19.0607 14.5604C18.7794 14.8417 18.3979 14.9998 18.0001 14.9998Z" fill="#666666"/>
</svg>
