<svg width="24" height="24" viewBox="0 0 24 24" fill="none" xmlns="http://www.w3.org/2000/svg">
<path d="M9.00004 4.49906C9.00033 3.97238 8.86197 3.4549 8.59885 2.99865C8.33573 2.54241 7.95713 2.16347 7.50112 1.89994C7.04512 1.63641 6.52776 1.49757 6.00108 1.49739C5.4744 1.49721 4.95696 1.63568 4.50076 1.89889C4.04457 2.16211 3.66571 2.54078 3.40228 2.99685C3.13884 3.45291 3.00011 3.97029 3.00004 4.49697C2.99997 5.02365 3.13855 5.54107 3.40186 5.99721C3.66517 6.45335 4.04392 6.83212 4.50004 7.09547V16.9027C3.92811 17.2329 3.48113 17.7425 3.2284 18.3527C2.97568 18.9628 2.93134 19.6393 3.10226 20.2772C3.27319 20.9151 3.64982 21.4788 4.17376 21.8808C4.69769 22.2828 5.33964 22.5007 6.00004 22.5007C6.66044 22.5007 7.30239 22.2828 7.82632 21.8808C8.35026 21.4788 8.72689 20.9151 8.89782 20.2772C9.06874 19.6393 9.0244 18.9628 8.77168 18.3527C8.51895 17.7425 8.07197 17.2329 7.50004 16.9027V7.09547C7.95585 6.8323 8.33441 6.45385 8.5977 5.99811C8.86099 5.54237 8.99975 5.02538 9.00004 4.49906ZM6.00004 2.99906C6.29671 2.99906 6.58672 3.08703 6.8334 3.25185C7.08007 3.41668 7.27233 3.65094 7.38586 3.92503C7.49939 4.19912 7.5291 4.50072 7.47122 4.79169C7.41334 5.08267 7.27048 5.34994 7.0607 5.55972C6.85092 5.7695 6.58365 5.91236 6.29268 5.97024C6.0017 6.02811 5.7001 5.99841 5.42601 5.88488C5.15193 5.77135 4.91766 5.57909 4.75284 5.33241C4.58801 5.08574 4.50004 4.79573 4.50004 4.49906C4.50004 4.10123 4.65807 3.7197 4.93938 3.4384C5.22068 3.15709 5.60221 2.99906 6.00004 2.99906ZM6.00004 20.9991C5.70337 20.9991 5.41336 20.9111 5.16668 20.7463C4.92001 20.5814 4.72775 20.3472 4.61422 20.0731C4.50069 19.799 4.47098 19.4974 4.52886 19.2064C4.58674 18.9155 4.7296 18.6482 4.93938 18.4384C5.14916 18.2286 5.41643 18.0858 5.7074 18.0279C5.99838 17.97 6.29998 17.9997 6.57406 18.1132C6.84815 18.2268 7.08242 18.419 7.24724 18.6657C7.41207 18.9124 7.50004 19.2024 7.50004 19.4991C7.50004 19.8969 7.342 20.2784 7.0607 20.5597C6.7794 20.841 6.39786 20.9991 6.00004 20.9991ZM19.5 16.9027V7.31156C19.4988 6.16819 19.0441 5.07201 18.2356 4.26353C17.4271 3.45505 16.3309 3.0003 15.1875 2.99906H14.25V1.49906C14.25 1.35077 14.2059 1.20584 14.1235 1.08256C14.0411 0.959289 13.924 0.863213 13.787 0.806476C13.65 0.749739 13.4993 0.734887 13.3538 0.763797C13.2084 0.792707 13.0748 0.864082 12.9699 0.968902L9.96988 3.9689C9.82934 4.10954 9.75039 4.30023 9.75039 4.49906C9.75039 4.69789 9.82934 4.88858 9.96988 5.02921L12.9699 8.02922C13.0748 8.13403 13.2084 8.20541 13.3538 8.23432C13.4993 8.26323 13.65 8.24838 13.787 8.19164C13.924 8.1349 14.0411 8.03883 14.1235 7.91555C14.2059 7.79228 14.25 7.64734 14.25 7.49906V5.99906H15.1875C15.5356 5.99906 15.8695 6.13734 16.1156 6.38348C16.3618 6.62962 16.5 6.96346 16.5 7.31156V16.9027C15.9281 17.2329 15.4811 17.7425 15.2284 18.3527C14.9757 18.9628 14.9313 19.6393 15.1023 20.2772C15.2732 20.9151 15.6498 21.4788 16.1738 21.8808C16.6977 22.2828 17.3396 22.5007 18 22.5007C18.6604 22.5007 19.3024 22.2828 19.8263 21.8808C20.3503 21.4788 20.7269 20.9151 20.8978 20.2772C21.0687 19.6393 21.0244 18.9628 20.7717 18.3527C20.519 17.7425 20.072 17.2329 19.5 16.9027ZM18 20.9991C17.7034 20.9991 17.4134 20.9111 17.1667 20.7463C16.92 20.5814 16.7278 20.3472 16.6142 20.0731C16.5007 19.799 16.471 19.4974 16.5289 19.2064C16.5867 18.9155 16.7296 18.6482 16.9394 18.4384C17.1492 18.2286 17.4164 18.0858 17.7074 18.0279C17.9984 17.97 18.3 17.9997 18.5741 18.1132C18.8482 18.2268 19.0824 18.419 19.2472 18.6657C19.4121 18.9124 19.5 19.2024 19.5 19.4991C19.5 19.8969 19.342 20.2784 19.0607 20.5597C18.7794 20.841 18.3979 20.9991 18 20.9991Z" fill="#666666"/>
</svg>
