<svg width="24" height="24" viewBox="0 0 24 24" fill="none" xmlns="http://www.w3.org/2000/svg">
<path d="M19.5 7.49746C19.5003 6.97141 19.3622 6.45455 19.0996 5.99872C18.837 5.54288 18.4592 5.1641 18.0041 4.90037C17.5489 4.63664 17.0324 4.49722 16.5064 4.49611C15.9803 4.495 15.4632 4.63223 15.007 4.89404C14.5507 5.15585 14.1713 5.53303 13.9068 5.98775C13.6423 6.44247 13.502 6.95875 13.5001 7.48479C13.4981 8.01084 13.6344 8.52815 13.8955 8.98486C14.1565 9.44156 14.5331 9.82159 14.9874 10.0868C14.88 11.45 14.0461 11.8212 11.4717 12.3565C10.6392 12.529 9.78753 12.7057 9.00097 13.0095V7.09387C9.57289 6.76366 10.0199 6.25397 10.2726 5.64384C10.5253 5.03371 10.5697 4.35723 10.3987 3.71933C10.2278 3.08143 9.85118 2.51776 9.32725 2.11573C8.80332 1.7137 8.16137 1.49579 7.50097 1.49579C6.84056 1.49579 6.19861 1.7137 5.67468 2.11573C5.15075 2.51776 4.77411 3.08143 4.60319 3.71933C4.43226 4.35723 4.4766 5.03371 4.72933 5.64384C4.98205 6.25397 5.42904 6.76366 6.00097 7.09387V16.9011C5.42991 17.2308 4.98341 17.7395 4.73052 18.3485C4.47764 18.9576 4.43245 19.6329 4.60196 20.2702C4.77147 20.9075 5.14622 21.4711 5.66827 21.874C6.19031 22.2769 6.83055 22.4965 7.48998 22.499C8.1494 22.5015 8.79126 22.2866 9.31629 21.8876C9.84132 21.4886 10.2203 20.9278 10.3945 20.2918C10.5688 19.6558 10.5286 18.9801 10.2803 18.3692C10.0319 17.7583 9.58924 17.2463 9.02066 16.9123C9.13269 16.0686 9.77066 15.7718 12.0797 15.2942C13.3655 15.0284 14.6944 14.7532 15.8194 14.0309C17.1788 13.16 17.9067 11.8381 17.9925 10.0986C18.4504 9.83595 18.8309 9.45717 19.0956 9.00047C19.3603 8.54377 19.4998 8.02532 19.5 7.49746ZM7.50003 2.99746C7.7967 2.99746 8.08671 3.08543 8.33338 3.25025C8.58006 3.41508 8.77232 3.64934 8.88585 3.92343C8.99938 4.19752 9.02909 4.49912 8.97121 4.79009C8.91333 5.08107 8.77047 5.34834 8.56069 5.55812C8.35091 5.7679 8.08364 5.91076 7.79267 5.96864C7.50169 6.02652 7.20009 5.99681 6.926 5.88328C6.65192 5.76975 6.41765 5.57749 6.25283 5.33081C6.088 5.08414 6.00003 4.79413 6.00003 4.49746C6.00003 4.09963 6.15806 3.7181 6.43937 3.4368C6.72067 3.15549 7.1022 2.99746 7.50003 2.99746ZM7.50003 20.9975C7.20336 20.9975 6.91335 20.9095 6.66667 20.7447C6.42 20.5798 6.22774 20.3456 6.11421 20.0715C6.00068 19.7974 5.97097 19.4958 6.02885 19.2048C6.08673 18.9139 6.22959 18.6466 6.43937 18.4368C6.64915 18.227 6.91642 18.0842 7.20739 18.0263C7.49837 17.9684 7.79997 17.9981 8.07405 18.1116C8.34814 18.2252 8.58241 18.4174 8.74723 18.6641C8.91206 18.9108 9.00003 19.2008 9.00003 19.4975C9.00003 19.8953 8.84199 20.2768 8.56069 20.5581C8.27939 20.8394 7.89785 20.9975 7.50003 20.9975ZM16.5 8.99746C16.2034 8.99746 15.9133 8.90949 15.6667 8.74466C15.42 8.57984 15.2277 8.34557 15.1142 8.07148C15.0007 7.7974 14.971 7.4958 15.0289 7.20482C15.0867 6.91385 15.2296 6.64658 15.4394 6.4368C15.6492 6.22702 15.9164 6.08416 16.2074 6.02628C16.4984 5.9684 16.8 5.99811 17.0741 6.11164C17.3481 6.22517 17.5824 6.41743 17.7472 6.6641C17.9121 6.91078 18 7.20079 18 7.49746C18 7.89528 17.842 8.27681 17.5607 8.55812C17.2794 8.83942 16.8979 8.99746 16.5 8.99746Z" fill="#666666"/>
</svg>
