<svg width="24" height="24" viewBox="0 0 24 24" fill="none" xmlns="http://www.w3.org/2000/svg">
<g clip-path="url(#clip0_32_1755)">
<path d="M10.2333 15.968C10.1284 15.8632 9.99479 15.7918 9.84935 15.7629C9.70391 15.734 9.55316 15.7488 9.41616 15.8056C9.27916 15.8623 9.16205 15.9584 9.07964 16.0817C8.99722 16.2049 8.9532 16.3499 8.95313 16.4982V17.9982H8.01563C7.66753 17.9982 7.33369 17.8599 7.08755 17.6137C6.84141 17.3676 6.70313 17.0338 6.70313 16.6857V7.12316C7.28089 6.80333 7.73698 6.30181 8.00067 5.69636C8.26436 5.09091 8.32091 4.41537 8.16155 3.77451C8.00218 3.13365 7.63582 2.56327 7.11927 2.15185C6.60272 1.74042 5.96484 1.51092 5.30457 1.49896C4.6443 1.48699 3.99853 1.69322 3.46741 2.08566C2.93629 2.4781 2.5495 3.03482 2.36702 3.66948C2.18454 4.30415 2.21657 4.98129 2.45814 5.5959C2.69971 6.21051 3.13733 6.72823 3.70313 7.06878V16.6857C3.70437 17.829 4.15912 18.9252 4.9676 19.7337C5.77608 20.5422 6.87226 20.9969 8.01563 20.9982H8.95313V22.4982C8.9532 22.6464 8.99722 22.7914 9.07964 22.9147C9.16205 23.0379 9.27916 23.134 9.41616 23.1907C9.55316 23.2475 9.70391 23.2623 9.84935 23.2334C9.99479 23.2045 10.1284 23.1331 10.2333 23.0283L13.2333 20.0283C13.3738 19.8877 13.4528 19.697 13.4528 19.4982C13.4528 19.2993 13.3738 19.1086 13.2333 18.968L10.2333 15.968ZM5.25 2.99816C5.54667 2.99816 5.83668 3.08613 6.08336 3.25095C6.33003 3.41578 6.52229 3.65004 6.63582 3.92413C6.74935 4.19822 6.77906 4.49982 6.72118 4.79079C6.6633 5.08177 6.52044 5.34904 6.31066 5.55882C6.10088 5.7686 5.83361 5.91146 5.54264 5.96934C5.25167 6.02721 4.95007 5.99751 4.67598 5.88398C4.40189 5.77045 4.16762 5.57819 4.0028 5.33151C3.83798 5.08484 3.75 4.79483 3.75 4.49816C3.75 4.10033 3.90804 3.7188 4.18934 3.4375C4.47065 3.15619 4.85218 2.99816 5.25 2.99816ZM20.25 16.9018V7.31066C20.2488 6.16729 19.794 5.07111 18.9855 4.26263C18.1771 3.45415 17.0809 2.9994 15.9375 2.99816H15V1.49816C14.9999 1.34987 14.9559 1.20493 14.8735 1.08166C14.7911 0.958389 14.674 0.862313 14.537 0.805576C14.4 0.748839 14.2492 0.733987 14.1038 0.762897C13.9583 0.791807 13.8247 0.863182 13.7198 0.968001L10.7198 3.968C10.5793 4.10864 10.5003 4.29933 10.5003 4.49816C10.5003 4.69699 10.5793 4.88768 10.7198 5.02831L13.7198 8.02832C13.8247 8.13313 13.9583 8.20451 14.1038 8.23342C14.2492 8.26233 14.4 8.24748 14.537 8.19074C14.674 8.134 14.7911 8.03793 14.8735 7.91465C14.9559 7.79138 14.9999 7.64644 15 7.49816V5.99816H15.9375C16.2856 5.99816 16.6194 6.13644 16.8656 6.38258C17.1117 6.62872 17.25 6.96256 17.25 7.31066V16.9018C16.6781 17.232 16.2311 17.7416 15.9784 18.3518C15.7256 18.9619 15.6813 19.6384 15.8522 20.2763C16.0232 20.9142 16.3998 21.4779 16.9237 21.8799C17.4477 22.2819 18.0896 22.4998 18.75 22.4998C19.4104 22.4998 20.0524 22.2819 20.5763 21.8799C21.1002 21.4779 21.4769 20.9142 21.6478 20.2763C21.8187 19.6384 21.7744 18.9619 21.5216 18.3518C21.2689 17.7416 20.8219 17.232 20.25 16.9018ZM18.75 20.9982C18.4533 20.9982 18.1633 20.9102 17.9166 20.7454C17.67 20.5805 17.4777 20.3463 17.3642 20.0722C17.2507 19.7981 17.2209 19.4965 17.2788 19.2055C17.3367 18.9146 17.4796 18.6473 17.6893 18.4375C17.8991 18.2277 18.1664 18.0849 18.4574 18.027C18.7483 17.9691 19.0499 17.9988 19.324 18.1123C19.5981 18.2259 19.8324 18.4181 19.9972 18.6648C20.162 18.9115 20.25 19.2015 20.25 19.4982C20.25 19.896 20.092 20.2775 19.8107 20.5588C19.5294 20.8401 19.1478 20.9982 18.75 20.9982Z" fill="#666666"/>
</g>
<defs>
<clipPath id="clip0_32_1755">
<rect width="24" height="24" fill="white" transform="translate(0.00012207 -0.00390625)"/>
</clipPath>
</defs>
</svg>
