<svg width="24" height="24" viewBox="0 0 24 24" fill="none" xmlns="http://www.w3.org/2000/svg">
<path d="M6.04695 6.74941C7.28959 6.74941 8.29695 5.74205 8.29695 4.49941C8.29695 3.25676 7.28959 2.2494 6.04695 2.2494C4.80431 2.2494 3.79695 3.25676 3.79695 4.49941C3.79695 5.74205 4.80431 6.74941 6.04695 6.74941Z" stroke="#666666" stroke-width="1.5" stroke-linecap="round" stroke-linejoin="round"/>
<path d="M6.04695 21.7494C7.28959 21.7494 8.29695 20.742 8.29695 19.4994C8.29695 18.2568 7.28959 17.2494 6.04695 17.2494C4.80431 17.2494 3.79695 18.2568 3.79695 19.4994C3.79695 20.742 4.80431 21.7494 6.04695 21.7494Z" stroke="#666666" stroke-width="1.5" stroke-linecap="round" stroke-linejoin="round"/>
<path d="M6.04689 6.7476V17.2476" stroke="#666666" stroke-width="1.5" stroke-linecap="round" stroke-linejoin="round"/>
<path d="M18.047 15.7458C19.2896 15.7458 20.297 14.7384 20.297 13.4958C20.297 12.2532 19.2896 11.2458 18.047 11.2458C16.8043 11.2458 15.797 12.2532 15.797 13.4958C15.797 14.7384 16.8043 15.7458 18.047 15.7458Z" stroke="#666666" stroke-width="1.5" stroke-linecap="round" stroke-linejoin="round"/>
<path d="M6.04689 6.7476C6.04689 11.2476 11.2969 13.4976 15.7969 13.4976" stroke="#666666" stroke-width="1.5" stroke-linecap="round" stroke-linejoin="round"/>
</svg>
