<svg width="24" height="24" viewBox="0 0 24 24" fill="none" xmlns="http://www.w3.org/2000/svg">
<path d="M18.0469 10.4984C17.5216 10.4986 17.0055 10.6368 16.5503 10.8992C16.0952 11.1615 15.7169 11.5388 15.4533 11.9932C13.4738 11.9365 11.46 11.397 10.006 10.5246C8.49659 9.619 7.67581 8.46212 7.56144 7.08634C8.13088 6.7533 8.57468 6.24186 8.82414 5.63116C9.0736 5.02046 9.11482 4.34457 8.9414 3.70809C8.76799 3.0716 8.38962 2.51002 7.86486 2.11027C7.34009 1.71051 6.69819 1.49487 6.03851 1.49672C5.37883 1.49856 4.73815 1.71779 4.21564 2.12048C3.69312 2.52317 3.3179 3.08686 3.14805 3.7243C2.9782 4.36174 3.0232 5.0374 3.27607 5.64669C3.52895 6.25598 3.9756 6.76494 4.54691 7.09478V16.902C3.97498 17.2322 3.52799 17.7419 3.27527 18.352C3.02254 18.9621 2.9782 19.6386 3.14913 20.2765C3.32005 20.9144 3.69669 21.4781 4.22062 21.8801C4.74455 22.2821 5.3865 22.5 6.04691 22.5C6.70731 22.5 7.34926 22.2821 7.87319 21.8801C8.39712 21.4781 8.77376 20.9144 8.94468 20.2765C9.11561 19.6386 9.07127 18.9621 8.81854 18.352C8.56582 17.7419 8.11883 17.2322 7.54691 16.902V12.4742C9.64503 14.0679 12.5757 14.9295 15.4482 14.9942C15.7109 15.4509 16.0892 15.8304 16.5452 16.0944C17.0011 16.3585 17.5186 16.4978 18.0455 16.4984C18.5723 16.4989 19.0901 16.3607 19.5466 16.0976C20.0031 15.8346 20.3823 15.4559 20.646 14.9997C20.9096 14.5436 21.0485 14.026 21.0487 13.4991C21.0488 12.9722 20.9101 12.4546 20.6467 11.9983C20.3832 11.542 20.0042 11.1631 19.5479 10.8998C19.0915 10.6365 18.5738 10.4981 18.0469 10.4984ZM6.04691 2.99837C6.34358 2.99837 6.63359 3.08634 6.88026 3.25117C7.12693 3.41599 7.31919 3.65026 7.43272 3.92435C7.54626 4.19844 7.57596 4.50004 7.51808 4.79101C7.46021 5.08198 7.31734 5.34925 7.10757 5.55903C6.89779 5.76881 6.63051 5.91167 6.33954 5.96955C6.04857 6.02743 5.74697 5.99772 5.47288 5.88419C5.19879 5.77066 4.96452 5.5784 4.7997 5.33173C4.63488 5.08505 4.54691 4.79504 4.54691 4.49837C4.54691 4.10055 4.70494 3.71902 4.98625 3.43771C5.26755 3.15641 5.64908 2.99837 6.04691 2.99837ZM6.04691 20.9984C5.75023 20.9984 5.46022 20.9104 5.21355 20.7456C4.96688 20.5808 4.77462 20.3465 4.66109 20.0724C4.54755 19.7983 4.51785 19.4967 4.57573 19.2057C4.63361 18.9148 4.77647 18.6475 4.98625 18.4377C5.19602 18.2279 5.4633 18.0851 5.75427 18.0272C6.04524 17.9693 6.34684 17.999 6.62093 18.1126C6.89502 18.2261 7.12929 18.4183 7.29411 18.665C7.45893 18.9117 7.54691 19.2017 7.54691 19.4984C7.54691 19.8962 7.38887 20.2777 7.10757 20.559C6.82626 20.8403 6.44473 20.9984 6.04691 20.9984ZM18.0469 14.9984C17.7502 14.9984 17.4602 14.9104 17.2135 14.7456C16.9669 14.5808 16.7746 14.3465 16.6611 14.0724C16.5476 13.7983 16.5178 13.4967 16.5757 13.2057C16.6336 12.9148 16.7765 12.6475 16.9862 12.4377C17.196 12.2279 17.4633 12.0851 17.7543 12.0272C18.0452 11.9693 18.3468 11.999 18.6209 12.1126C18.895 12.2261 19.1293 12.4183 19.2941 12.665C19.4589 12.9117 19.5469 13.2017 19.5469 13.4984C19.5469 13.8962 19.3889 14.2777 19.1076 14.559C18.8263 14.8403 18.4447 14.9984 18.0469 14.9984Z" fill="#666666"/>
</svg>
