<svg width="24" height="24" viewBox="0 0 24 24" fill="none" xmlns="http://www.w3.org/2000/svg">
<path d="M20.9999 10.4966H17.8124C17.4803 9.20809 16.7293 8.06649 15.6776 7.25141C14.6258 6.43632 13.3329 5.99399 12.0023 5.99399C10.6716 5.99399 9.37872 6.43632 8.32694 7.25141C7.27516 8.06649 6.52417 9.20809 6.1921 10.4966H2.99991C2.60208 10.4966 2.22055 10.6547 1.93925 10.936C1.65794 11.2173 1.49991 11.5988 1.49991 11.9966C1.49991 12.3945 1.65794 12.776 1.93925 13.0573C2.22055 13.3386 2.60208 13.4966 2.99991 13.4966H6.18975C6.52102 14.7862 7.27181 15.929 8.32391 16.745C9.37601 17.561 10.6696 18.0038 12.0011 18.0038C13.3325 18.0038 14.6262 17.561 15.6783 16.745C16.7303 15.929 17.4811 14.7862 17.8124 13.4966H20.9999C21.3977 13.4966 21.7793 13.3386 22.0606 13.0573C22.3419 12.776 22.4999 12.3945 22.4999 11.9966C22.4999 11.5988 22.3419 11.2173 22.0606 10.936C21.7793 10.6547 21.3977 10.4966 20.9999 10.4966ZM11.9999 14.9966C11.4066 14.9966 10.8265 14.8207 10.3332 14.491C9.83985 14.1614 9.45533 13.6929 9.22827 13.1447C9.00121 12.5965 8.9418 11.9933 9.05755 11.4114C9.17331 10.8294 9.45903 10.2949 9.87859 9.87531C10.2981 9.45575 10.8327 9.17003 11.4146 9.05427C11.9966 8.93852 12.5998 8.99793 13.148 9.22499C13.6961 9.45205 14.1647 9.83657 14.4943 10.3299C14.824 10.8233 14.9999 11.4033 14.9999 11.9966C14.999 12.792 14.6827 13.5546 14.1203 14.117C13.5578 14.6794 12.7953 14.9958 11.9999 14.9966Z" fill="#666666"/>
</svg>
