<svg width="24" height="24" viewBox="0 0 24 24" fill="none" xmlns="http://www.w3.org/2000/svg">
<path d="M18 1.49671C17.4926 1.49679 16.9936 1.62556 16.5495 1.87097C16.1054 2.11639 15.7308 2.47042 15.4607 2.89997C15.1907 3.32952 15.034 3.82054 15.0053 4.32712C14.9766 4.83369 15.0769 5.33927 15.2967 5.79655L11.9766 9.58499L8.68643 5.8303C8.97642 5.24594 9.06804 4.58298 8.94739 3.94187C8.82674 3.30077 8.5004 2.71646 8.01782 2.27749C7.53524 1.83852 6.92273 1.56882 6.2731 1.50924C5.62346 1.44967 4.97211 1.60348 4.41775 1.94735C3.86338 2.29123 3.43622 2.80644 3.20098 3.41491C2.96574 4.02338 2.93524 4.69195 3.11412 5.31931C3.293 5.94666 3.67149 6.49862 4.19226 6.89153C4.71302 7.28444 5.34766 7.4969 6.00002 7.49671C6.05159 7.49671 6.10315 7.49671 6.15424 7.49296L10.5 12.4514V16.9003C9.9281 17.2305 9.48111 17.7402 9.22838 18.3503C8.97566 18.9605 8.93132 19.6369 9.10225 20.2748C9.27317 20.9127 9.64981 21.4764 10.1737 21.8784C10.6977 22.2805 11.3396 22.4984 12 22.4984C12.6604 22.4984 13.3024 22.2805 13.8263 21.8784C14.3502 21.4764 14.7269 20.9127 14.8978 20.2748C15.0687 19.6369 15.0244 18.9605 14.7717 18.3503C14.5189 17.7402 14.0719 17.2305 13.5 16.9003V12.398L17.8022 7.48968C17.8674 7.4939 17.9335 7.49671 18 7.49671C18.7957 7.49671 19.5587 7.18064 20.1213 6.61803C20.684 6.05542 21 5.29236 21 4.49671C21 3.70106 20.684 2.938 20.1213 2.37539C19.5587 1.81278 18.7957 1.49671 18 1.49671ZM4.50002 4.49671C4.50002 4.20004 4.588 3.91003 4.75282 3.66335C4.91764 3.41668 5.15191 3.22442 5.426 3.11089C5.70009 2.99736 6.00169 2.96765 6.29266 3.02553C6.58363 3.08341 6.8509 3.22627 7.06068 3.43605C7.27046 3.64583 7.41332 3.9131 7.4712 4.20407C7.52908 4.49504 7.49937 4.79664 7.38584 5.07073C7.27231 5.34482 7.08005 5.57909 6.83338 5.74391C6.5867 5.90873 6.29669 5.99671 6.00002 5.99671C5.6022 5.99671 5.22067 5.83867 4.93936 5.55737C4.65806 5.27606 4.50002 4.89453 4.50002 4.49671ZM12 20.9967C11.7034 20.9967 11.4133 20.9087 11.1667 20.7439C10.92 20.5791 10.7277 20.3448 10.6142 20.0707C10.5007 19.7966 10.471 19.495 10.5288 19.2041C10.5867 18.9131 10.7296 18.6458 10.9394 18.4361C11.1491 18.2263 11.4164 18.0834 11.7074 18.0255C11.9984 17.9677 12.3 17.9974 12.574 18.1109C12.8481 18.2244 13.0824 18.4167 13.2472 18.6634C13.4121 18.91 13.5 19.2 13.5 19.4967C13.5 19.8945 13.342 20.2761 13.0607 20.5574C12.7794 20.8387 12.3978 20.9967 12 20.9967ZM18 5.99671C17.7034 5.99671 17.4133 5.90873 17.1667 5.74391C16.92 5.57909 16.7277 5.34482 16.6142 5.07073C16.5007 4.79664 16.471 4.49504 16.5288 4.20407C16.5867 3.9131 16.7296 3.64583 16.9394 3.43605C17.1491 3.22627 17.4164 3.08341 17.7074 3.02553C17.9984 2.96765 18.3 2.99736 18.574 3.11089C18.8481 3.22442 19.0824 3.41668 19.2472 3.66335C19.4121 3.91003 19.5 4.20004 19.5 4.49671C19.5 4.89453 19.342 5.27606 19.0607 5.55737C18.7794 5.83867 18.3978 5.99671 18 5.99671Z" fill="#666666"/>
</svg>
