<svg width="24" height="24" viewBox="0 0 24 24" fill="none" xmlns="http://www.w3.org/2000/svg">
<path d="M8.99995 4.49999C9.00016 3.97563 8.86294 3.46038 8.60195 3.00558C8.34097 2.55079 7.96534 2.17235 7.51251 1.90798C7.05968 1.6436 6.54546 1.50254 6.02112 1.49884C5.49678 1.49514 4.98062 1.62893 4.5241 1.88689C4.06759 2.14484 3.68665 2.51795 3.41928 2.96901C3.1519 3.42007 3.00742 3.93334 3.00023 4.45765C2.99304 4.98195 3.1234 5.49899 3.37832 5.95721C3.63323 6.41543 4.0038 6.79883 4.45307 7.06921V16.9036C3.88115 17.2338 3.43416 17.7435 3.18143 18.3536C2.92871 18.9637 2.88437 19.6402 3.0553 20.2781C3.22622 20.916 3.60286 21.4797 4.12679 21.8817C4.65072 22.2837 5.29267 22.5017 5.95307 22.5017C6.61348 22.5017 7.25542 22.2837 7.77936 21.8817C8.30329 21.4797 8.67993 20.916 8.85085 20.2781C9.02178 19.6402 8.97744 18.9637 8.72471 18.3536C8.47199 17.7435 8.025 17.2338 7.45307 16.9036V7.12499C7.92164 6.86522 8.31218 6.48483 8.58417 6.02325C8.85617 5.56168 8.99973 5.03574 8.99995 4.49999ZM5.99995 2.99999C6.29662 2.99999 6.58663 3.08796 6.8333 3.25278C7.07998 3.4176 7.27224 3.65187 7.38577 3.92596C7.4993 4.20005 7.529 4.50165 7.47113 4.79262C7.41325 5.08359 7.27039 5.35087 7.06061 5.56065C6.85083 5.77043 6.58356 5.91329 6.29258 5.97116C6.00161 6.02904 5.70001 5.99934 5.42592 5.88581C5.15183 5.77227 4.91757 5.58002 4.75274 5.33334C4.58792 5.08667 4.49995 4.79666 4.49995 4.49999C4.49995 4.10216 4.65798 3.72063 4.93929 3.43933C5.22059 3.15802 5.60212 2.99999 5.99995 2.99999ZM5.95307 21C5.6564 21 5.36639 20.912 5.11972 20.7472C4.87304 20.5824 4.68078 20.3481 4.56725 20.074C4.45372 19.7999 4.42402 19.4983 4.48189 19.2074C4.53977 18.9164 4.68263 18.6491 4.89241 18.4393C5.10219 18.2295 5.36947 18.0867 5.66044 18.0288C5.95141 17.9709 6.25301 18.0006 6.5271 18.1142C6.80119 18.2277 7.03546 18.42 7.20028 18.6666C7.3651 18.9133 7.45307 19.2033 7.45307 19.5C7.45307 19.8978 7.29504 20.2793 7.01373 20.5606C6.73243 20.842 6.3509 21 5.95307 21ZM19.5 16.9036V7.31249C19.4987 6.16912 19.044 5.07294 18.2355 4.26446C17.427 3.45598 16.3308 3.00123 15.1875 2.99999H13.5468V0.465454L9.42839 4.49999L13.5468 8.53452V5.99999H15.1875C15.5355 5.99999 15.8694 6.13827 16.1155 6.38441C16.3617 6.63055 16.5 6.96439 16.5 7.31249V16.9036C15.928 17.2338 15.481 17.7435 15.2283 18.3536C14.9756 18.9637 14.9312 19.6402 15.1022 20.2781C15.2731 20.916 15.6497 21.4797 16.1737 21.8817C16.6976 22.2837 17.3395 22.5017 18 22.5017C18.6604 22.5017 19.3023 22.2837 19.8262 21.8817C20.3502 21.4797 20.7268 20.916 20.8977 20.2781C21.0687 19.6402 21.0243 18.9637 20.7716 18.3536C20.5189 17.7435 20.0719 17.2338 19.5 16.9036ZM18 21C17.7033 21 17.4133 20.912 17.1666 20.7472C16.9199 20.5824 16.7277 20.3481 16.6141 20.074C16.5006 19.7999 16.4709 19.4983 16.5288 19.2074C16.5866 18.9164 16.7295 18.6491 16.9393 18.4393C17.1491 18.2295 17.4163 18.0867 17.7073 18.0288C17.9983 17.9709 18.2999 18.0006 18.574 18.1142C18.8481 18.2277 19.0823 18.42 19.2472 18.6666C19.412 18.9133 19.5 19.2033 19.5 19.5C19.5 19.8978 19.3419 20.2793 19.0606 20.5606C18.7793 20.842 18.3978 21 18 21Z" fill="#666666"/>
</svg>
