<svg width="24" height="24" viewBox="0 0 24 24" fill="none" xmlns="http://www.w3.org/2000/svg">
<path d="M10.5001 10.8735C10.5001 10.4757 10.6581 10.0941 10.9394 9.81284C11.2207 9.53154 11.6022 9.3735 12.0001 9.3735C12.3979 9.3735 12.7794 9.53154 13.0607 9.81284C13.342 10.0941 13.5001 10.4757 13.5001 10.8735H10.5001ZM21.0001 9.3735H21.7501H21.0001ZM3.00007 9.3735H2.25007H3.00007ZM3.00007 9.3735C3.00007 13.8735 3.75007 15.3735 6.75007 15.3735C9.75007 15.3735 10.5001 13.8735 10.5001 9.3735C10.5001 9.3735 9.75007 8.6235 6.75007 8.6235C3.75007 8.6235 3.00007 9.3735 3.00007 9.3735ZM21.0001 9.3735C21.0001 13.8735 20.2501 15.3735 17.2501 15.3735C14.2501 15.3735 13.5001 13.8735 13.5001 9.3735C13.5001 9.3735 14.2501 8.6235 17.2501 8.6235C20.2501 8.6235 21.0001 9.3735 21.0001 9.3735Z" stroke="#666666" stroke-width="1.5" stroke-linecap="round" stroke-linejoin="round"/>
</svg>
