<svg width="24" height="24" viewBox="0 0 24 24" fill="none" xmlns="http://www.w3.org/2000/svg">
<path d="M21.75 8.6208H21.2391C21.0024 8.48103 20.7508 8.36814 20.4891 8.28424C19.6641 8.01143 18.5747 7.8708 17.25 7.8708C15.9253 7.8708 14.836 8.01143 14.0128 8.28424C13.3538 8.50409 13.0636 8.74643 12.9699 8.84065C12.6672 8.69593 12.336 8.62081 12.0005 8.62081C11.665 8.62081 11.3338 8.69593 11.0311 8.84065C10.9374 8.7469 10.6472 8.50409 9.98815 8.28424C9.16409 8.01143 8.07471 7.8708 6.75002 7.8708C5.42534 7.8708 4.33596 8.01143 3.51284 8.28424C3.25108 8.36814 2.99952 8.48103 2.76284 8.6208H2.25002C2.05111 8.6208 1.86035 8.69982 1.71969 8.84047C1.57904 8.98113 1.50002 9.17189 1.50002 9.3708C1.50002 9.56972 1.57904 9.76048 1.71969 9.90113C1.86035 10.0418 2.05111 10.1208 2.25002 10.1208H2.25799C2.30487 12.2517 2.55987 13.5324 3.1069 14.4441C3.44958 15.0327 3.97489 15.4935 4.60315 15.7566C5.17643 16.0022 5.87909 16.1217 6.75002 16.1217C7.88205 16.1217 9.49127 15.9478 10.3931 14.445C10.8469 13.6885 11.1005 12.6783 11.1999 11.1394C11.2329 11.0537 11.2499 10.9627 11.25 10.8708C11.25 10.6719 11.329 10.4811 11.4697 10.3405C11.6103 10.1998 11.8011 10.1208 12 10.1208C12.1989 10.1208 12.3897 10.1998 12.5304 10.3405C12.671 10.4811 12.75 10.6719 12.75 10.8708C12.7503 10.9623 12.7673 11.0531 12.8002 11.1385C12.8996 12.6774 13.1531 13.6875 13.6069 14.4441C13.9496 15.0327 14.4749 15.4935 15.1031 15.7566C15.6764 16.0022 16.3791 16.1217 17.25 16.1217C18.3821 16.1217 19.9913 15.9478 20.8932 14.445C21.4402 13.5333 21.6961 12.2527 21.7421 10.1217H21.75C21.9489 10.1217 22.1397 10.0427 22.2804 9.90207C22.421 9.76142 22.5 9.57065 22.5 9.37174C22.5 9.17283 22.421 8.98206 22.2804 8.84141C22.1397 8.70076 21.9489 8.62174 21.75 8.62174V8.6208Z" fill="#666666"/>
</svg>
