<svg width="24" height="24" viewBox="0 0 24 24" fill="none" xmlns="http://www.w3.org/2000/svg">
<path d="M12.0001 2.2458C6.61558 2.2458 2.25011 6.61127 2.25011 11.9958C2.25011 17.3803 6.61558 21.7458 12.0001 21.7458C17.3846 21.7458 21.7501 17.3803 21.7501 11.9958C21.7501 6.61127 17.3846 2.2458 12.0001 2.2458Z" stroke="#666666" stroke-width="1.5" stroke-miterlimit="10"/>
<path d="M12 2.2458C9.27797 2.2458 6.71859 6.61127 6.71859 11.9958C6.71859 17.3803 9.27797 21.7458 12 21.7458C14.722 21.7458 17.2814 17.3803 17.2814 11.9958C17.2814 6.61127 14.722 2.2458 12 2.2458Z" stroke="#666666" stroke-width="1.5" stroke-miterlimit="10"/>
<path d="M18.5003 18.4958C16.7078 17.2232 14.4512 16.4643 12.0001 16.4643C9.54902 16.4643 7.29246 17.2232 5.49995 18.4958M5.49995 5.4955C7.29246 6.76816 9.54902 7.52706 12.0001 7.52706C14.4512 7.52706 16.7078 6.76816 18.5003 5.4955H5.49995Z" stroke="#666666" stroke-width="1.5" stroke-linecap="round" stroke-linejoin="round"/>
<path d="M21.7501 11.9958H2.25011M12.0001 2.2458V21.7458V2.2458Z" stroke="#666666" stroke-width="1.5" stroke-miterlimit="10"/>
</svg>
