<svg width="24" height="24" viewBox="0 0 24 24" fill="none" xmlns="http://www.w3.org/2000/svg">
<path d="M12 2.2458C6.6155 2.2458 2.25003 6.61127 2.25003 11.9958C2.25003 17.3803 6.6155 21.7458 12 21.7458C17.3846 21.7458 21.75 17.3803 21.75 11.9958C21.75 6.61127 17.3846 2.2458 12 2.2458Z" stroke="#666666" stroke-width="2.0625" stroke-miterlimit="10"/>
<path d="M12.0001 2.2458C9.27803 2.2458 6.71865 6.61127 6.71865 11.9958C6.71865 17.3803 9.27803 21.7458 12.0001 21.7458C14.7221 21.7458 17.2815 17.3803 17.2815 11.9958C17.2815 6.61127 14.7221 2.2458 12.0001 2.2458Z" stroke="#666666" stroke-width="2.0625" stroke-miterlimit="10"/>
<path d="M18.5002 18.3101C16.7077 17.0375 14.4511 16.2786 12 16.2786C9.54894 16.2786 7.29238 17.0375 5.49988 18.3101M5.49988 5.6848C7.29238 6.95746 9.54894 7.71636 12 7.71636C14.4511 7.71636 16.7077 6.95746 18.5002 5.6848H5.49988Z" stroke="#666666" stroke-width="2.0625" stroke-linecap="round" stroke-linejoin="round"/>
<path d="M21.75 11.9958H2.25003M12 2.2458V21.7458V2.2458Z" stroke="#666666" stroke-width="2.0625" stroke-miterlimit="10"/>
</svg>
