<svg width="24" height="24" viewBox="0 0 24 24" fill="none" xmlns="http://www.w3.org/2000/svg">
<path d="M15.9727 16.1482C16.2498 15.1779 16.433 14.0505 16.5029 12.9682C16.5044 12.9399 16.5001 12.9116 16.4903 12.8851C16.4805 12.8585 16.4653 12.8343 16.4457 12.8138C16.4261 12.7934 16.4025 12.7772 16.3763 12.7663C16.3502 12.7553 16.3221 12.7499 16.2938 12.7502H12.9629C12.9356 12.75 12.9086 12.7551 12.8833 12.7653C12.858 12.7755 12.835 12.7906 12.8155 12.8097C12.796 12.8288 12.7805 12.8516 12.7699 12.8767C12.7592 12.9018 12.7536 12.9287 12.7534 12.956V15.5482C12.7539 15.6006 12.7742 15.6508 12.8102 15.6888C12.8462 15.7269 12.8952 15.75 12.9474 15.7535C13.8861 15.8294 14.8136 16.0084 15.713 16.2874C15.7659 16.3033 15.823 16.2976 15.8717 16.2715C15.9204 16.2454 15.9567 16.2011 15.9727 16.1482ZM15.1679 17.6866C14.4543 17.4783 13.7231 17.3357 12.9835 17.2605C12.9549 17.2573 12.926 17.2601 12.8986 17.2687C12.8712 17.2773 12.8458 17.2915 12.8242 17.3104C12.8025 17.3293 12.785 17.3525 12.7728 17.3786C12.7607 17.4046 12.754 17.4329 12.7534 17.4616V20.5198C12.7545 20.5562 12.7651 20.5918 12.7842 20.6229C12.8033 20.654 12.8302 20.6796 12.8622 20.6971C12.8942 20.7146 12.9302 20.7235 12.9667 20.7228C13.0032 20.7221 13.0389 20.7119 13.0702 20.6932C13.8155 20.2587 14.4296 19.5288 14.9846 18.5637C15.0755 18.4062 15.2138 18.1348 15.2973 17.9688C15.3102 17.9421 15.3171 17.9129 15.3174 17.8832C15.3178 17.8536 15.3115 17.8242 15.2991 17.7972C15.2868 17.7702 15.2686 17.7463 15.2459 17.7272C15.2232 17.7081 15.1966 17.6942 15.1679 17.6866ZM11.0293 17.269C10.2906 17.3392 9.55999 17.4776 8.84679 17.6824C8.72304 17.718 8.67101 17.8887 8.72726 18.0007C8.81116 18.1676 8.91476 18.3809 9.00335 18.5402C9.61273 19.6184 10.2615 20.298 10.9365 20.6932C10.9678 20.7119 11.0035 20.7221 11.04 20.7228C11.0765 20.7235 11.1125 20.7146 11.1445 20.6971C11.1765 20.6796 11.2034 20.654 11.2225 20.6229C11.2416 20.5918 11.2522 20.5562 11.2534 20.5198V17.4602C11.2531 17.4323 11.2469 17.4047 11.2351 17.3794C11.2233 17.3541 11.2062 17.3316 11.185 17.3135C11.1637 17.2953 11.1388 17.282 11.112 17.2743C11.0851 17.2666 11.0569 17.2648 11.0293 17.269ZM11.0438 12.7502H7.71288C7.68461 12.7499 7.65656 12.7553 7.63047 12.7662C7.60439 12.7771 7.58082 12.7933 7.56122 12.8137C7.54163 12.8341 7.52642 12.8583 7.51655 12.8848C7.50667 12.9112 7.50234 12.9395 7.50382 12.9677C7.57319 14.0487 7.75554 15.1784 8.03163 16.1477C8.03946 16.1743 8.05248 16.199 8.06993 16.2204C8.08738 16.2419 8.10891 16.2597 8.13328 16.2728C8.15765 16.2858 8.18438 16.294 8.21191 16.2966C8.23944 16.2993 8.26723 16.2965 8.29366 16.2884C9.19306 16.0093 10.1206 15.8308 11.0593 15.7559C11.1116 15.7524 11.1607 15.7294 11.1968 15.6913C11.2329 15.6533 11.2532 15.603 11.2538 15.5505V12.9565C11.2536 12.9291 11.2481 12.9021 11.2374 12.8769C11.2267 12.8517 11.2112 12.8289 11.1917 12.8097C11.1722 12.7906 11.1491 12.7754 11.1237 12.7652C11.0983 12.755 11.0712 12.7499 11.0438 12.7502ZM12.9844 6.73991C13.7236 6.67066 14.4538 6.52712 15.1641 6.31148C15.1926 6.30377 15.2191 6.28989 15.2417 6.27082C15.2642 6.25176 15.2823 6.22796 15.2946 6.20113C15.307 6.1743 15.3133 6.14509 15.3131 6.11555C15.3129 6.08602 15.3062 6.05689 15.2935 6.03023C15.2096 5.86288 15.0934 5.62335 15.0043 5.46351C14.4282 4.43226 13.779 3.71273 13.0712 3.30726C13.0398 3.28869 13.0042 3.2786 12.9677 3.27798C12.9313 3.27737 12.8953 3.28624 12.8633 3.30374C12.8314 3.32124 12.8045 3.34676 12.7854 3.37778C12.7663 3.40881 12.7555 3.44427 12.7543 3.4807V6.53835C12.755 6.56711 12.7616 6.59541 12.7738 6.62146C12.786 6.64752 12.8034 6.67076 12.8251 6.68971C12.8467 6.70866 12.8721 6.7229 12.8995 6.73155C12.9269 6.74019 12.9559 6.74304 12.9844 6.73991ZM12.9629 11.2502H16.2938C16.3219 11.2507 16.3497 11.2454 16.3757 11.2347C16.4017 11.224 16.4251 11.2082 16.4447 11.188C16.4643 11.1679 16.4796 11.144 16.4896 11.1178C16.4996 11.0916 16.5041 11.0636 16.5029 11.0355C16.4335 9.9682 16.2559 8.79491 15.9798 7.83773C15.9717 7.81141 15.9585 7.78695 15.9409 7.76574C15.9234 7.74453 15.9018 7.72701 15.8775 7.71416C15.8531 7.70131 15.8265 7.6934 15.7991 7.69087C15.7717 7.68835 15.744 7.69126 15.7177 7.69945C14.8271 7.96851 13.8994 8.18835 12.9479 8.26195C12.8959 8.2649 12.8469 8.28742 12.8108 8.32498C12.7748 8.36254 12.7542 8.41237 12.7534 8.46445V11.0477C12.7543 11.1023 12.777 11.1543 12.8162 11.1923C12.8555 11.2303 12.9083 11.2511 12.9629 11.2502ZM10.9365 3.30773C10.2137 3.70945 9.56913 4.45288 8.99257 5.48132C8.90304 5.64116 8.79616 5.86148 8.71132 6.02835C8.6987 6.05503 8.69209 6.08414 8.69193 6.11365C8.69177 6.14316 8.69808 6.17234 8.71042 6.19915C8.72275 6.22596 8.7408 6.24974 8.76331 6.26882C8.78582 6.2879 8.81223 6.30182 8.84069 6.3096C9.55074 6.52921 10.282 6.67329 11.0223 6.73945C11.0508 6.74257 11.0797 6.73973 11.1071 6.73112C11.1345 6.7225 11.1598 6.7083 11.1815 6.6894C11.2031 6.6705 11.2206 6.64731 11.2328 6.62132C11.245 6.59532 11.2517 6.56707 11.2524 6.53835V3.48116C11.2509 3.44494 11.2401 3.40971 11.221 3.37889C11.2019 3.34807 11.1752 3.32271 11.1434 3.30526C11.1116 3.28782 11.0759 3.27888 11.0396 3.27931C11.0034 3.27974 10.9678 3.28953 10.9365 3.30773ZM11.0588 8.26241C10.1073 8.18976 9.17866 7.96991 8.28897 7.69991C8.26269 7.69173 8.23505 7.68882 8.20764 7.69134C8.18022 7.69386 8.15358 7.70178 8.12923 7.71463C8.10489 7.72747 8.08332 7.745 8.06577 7.76621C8.04821 7.78742 8.03502 7.81188 8.02694 7.8382C7.75085 8.79538 7.57319 9.96867 7.50382 11.036C7.5026 11.0641 7.50713 11.092 7.51713 11.1183C7.52713 11.1445 7.5424 11.1684 7.56198 11.1885C7.58156 11.2086 7.60505 11.2245 7.631 11.2352C7.65695 11.2459 7.68482 11.2512 7.71288 11.2507H11.0438C11.0709 11.2511 11.0979 11.2462 11.1231 11.2362C11.1483 11.2262 11.1713 11.2113 11.1908 11.1924C11.2103 11.1736 11.2258 11.151 11.2365 11.1261C11.2473 11.1012 11.253 11.0744 11.2534 11.0473V8.46492C11.2525 8.41284 11.232 8.36301 11.1959 8.32545C11.1598 8.28789 11.1108 8.26537 11.0588 8.26241Z" fill="#666666"/>
<path d="M19.4245 4.57357C18.4513 3.59067 17.2934 2.80977 16.0174 2.27571C14.7414 1.74166 13.3725 1.46498 11.9893 1.46158C10.6061 1.45818 9.2358 1.72811 7.95721 2.25588C6.67863 2.78364 5.51692 3.55884 4.53883 4.53693C3.56074 5.51502 2.78554 6.67673 2.25778 7.95531C1.73001 9.2339 1.46007 10.6042 1.46348 11.9874C1.46688 13.3706 1.74356 14.7395 2.27761 16.0155C2.81167 17.2915 3.59257 18.4494 4.57546 19.4226C5.54873 20.4055 6.70661 21.1864 7.98258 21.7205C9.25856 22.2545 10.6275 22.5312 12.0107 22.5346C13.3939 22.538 14.7642 22.2681 16.0428 21.7403C17.3214 21.2126 18.4831 20.4374 19.4612 19.4593C20.4393 18.4812 21.2145 17.3195 21.7422 16.0409C22.27 14.7623 22.5399 13.392 22.5365 12.0088C22.5331 10.6256 22.2564 9.25666 21.7224 7.98068C21.1883 6.70471 20.4074 5.54683 19.4245 4.57357ZM8.27812 20.1942C8.06692 19.8976 7.87165 19.59 7.69312 19.2726C7.59937 19.0997 7.46625 18.8386 7.37765 18.6572C7.35735 18.6141 7.32827 18.5758 7.2923 18.5447C7.25633 18.5135 7.21425 18.4902 7.16875 18.4763C7.12326 18.4623 7.07535 18.458 7.0281 18.4637C6.98085 18.4693 6.93531 18.4848 6.89437 18.509C6.69281 18.622 6.42562 18.7772 6.23203 18.9042C5.82605 18.5956 5.45551 18.243 5.12718 17.8528C5.58123 17.5323 6.0576 17.2447 6.55265 16.9922C6.63984 16.9453 6.6825 16.8919 6.65484 16.7962C6.29213 15.5409 6.0706 14.249 5.99437 12.9445C5.9921 12.8923 5.96995 12.843 5.93247 12.8067C5.89499 12.7703 5.84502 12.7497 5.79281 12.749H3.13312C3.11051 12.7493 3.08857 12.7414 3.07134 12.7267C3.05412 12.7121 3.04276 12.6917 3.03937 12.6693C3.00991 12.4469 2.99675 12.2225 3 11.9981C2.99679 11.7741 3.01026 11.5502 3.04031 11.3283C3.0437 11.3059 3.05505 11.2855 3.07228 11.2709C3.08951 11.2562 3.11145 11.2483 3.13406 11.2486H5.79375C5.90109 11.2486 5.98922 11.1867 5.99484 11.0784C6.07006 9.77937 6.29018 8.49279 6.65109 7.24263C6.66453 7.197 6.66163 7.1481 6.64289 7.10438C6.62415 7.06065 6.59075 7.02484 6.54843 7.0031C6.06401 6.75488 5.59672 6.47457 5.14968 6.16403C5.47626 5.77394 5.83949 5.41605 6.23437 5.09528C6.42562 5.22091 6.675 5.36294 6.87468 5.47544C6.91869 5.50045 6.96736 5.51617 7.01769 5.52161C7.06801 5.52705 7.11892 5.52211 7.16726 5.50708C7.21559 5.49205 7.26033 5.46726 7.2987 5.43424C7.33706 5.40123 7.36824 5.36068 7.39031 5.31513C7.47843 5.13372 7.57781 4.93169 7.67437 4.75825C7.85367 4.43698 8.04988 4.12545 8.26218 3.82497C9.43097 3.27435 10.708 2.99184 12 2.9981C13.3566 2.9981 14.6203 3.32622 15.7748 3.86341C15.9787 4.14963 16.1665 4.44696 16.3373 4.75403C16.4588 4.97247 16.5877 5.24013 16.6964 5.47216C16.7081 5.49687 16.7247 5.51894 16.7452 5.53702C16.7657 5.5551 16.7896 5.56881 16.8156 5.57732C16.8416 5.58583 16.869 5.58896 16.8962 5.58652C16.9234 5.58407 16.9499 5.5761 16.9739 5.5631C17.2261 5.42669 17.4994 5.26966 17.7398 5.11169C18.1359 5.43561 18.5 5.79663 18.8273 6.18982C18.3925 6.49136 17.9374 6.76247 17.4652 7.00122C17.4228 7.02298 17.3893 7.0589 17.3707 7.10274C17.352 7.14659 17.3493 7.19558 17.363 7.24122C17.7297 8.48289 17.9477 9.76375 18.0122 11.0568C18.0147 11.1087 18.037 11.1576 18.0745 11.1936C18.112 11.2295 18.1618 11.2497 18.2138 11.25L20.8678 11.2467C20.8904 11.2464 20.9124 11.2544 20.9296 11.269C20.9468 11.2836 20.9582 11.304 20.9616 11.3264C21.0162 11.7719 21.0162 12.2224 20.9616 12.6679C20.9584 12.6905 20.9471 12.7111 20.9299 12.7259C20.9126 12.7407 20.8906 12.7488 20.8678 12.7486H18.2114C18.1592 12.7491 18.1091 12.7697 18.0716 12.8061C18.0341 12.8425 18.012 12.8918 18.0098 12.944C17.9368 14.2347 17.7188 15.5131 17.3597 16.755C17.3461 16.8011 17.3489 16.8506 17.3676 16.8949C17.3863 16.9393 17.4198 16.9758 17.4623 16.9983C17.6967 17.1197 17.9578 17.2551 18.1828 17.3929C18.4078 17.5308 18.6305 17.6779 18.8452 17.8308C18.5203 18.2221 18.1594 18.582 17.767 18.9056C17.6527 18.8301 17.5167 18.7444 17.3995 18.674C17.3189 18.6272 17.1703 18.5442 17.0878 18.4978C16.9088 18.3975 16.7184 18.4725 16.6289 18.6572C16.5394 18.8419 16.4025 19.1067 16.3069 19.2783C16.1307 19.5937 15.9374 19.8993 15.728 20.1937C14.5739 20.7342 13.3566 20.9981 12 20.9981C10.6434 20.9981 9.43265 20.7342 8.27812 20.1942Z" fill="#666666"/>
</svg>
