<svg width="24" height="24" viewBox="0 0 24 24" fill="none" xmlns="http://www.w3.org/2000/svg">
<g clip-path="url(#clip0_32_1812)">
<path d="M12.75 15.0221V9.48331L20.5603 5.93347C20.6915 5.87393 20.8028 5.77785 20.8808 5.65673C20.9589 5.53562 21.0004 5.39458 21.0004 5.2505C21.0004 5.10641 20.9589 4.96538 20.8808 4.84426C20.8028 4.72314 20.6915 4.62707 20.5603 4.56753L12.3103 0.817528C12.1961 0.765601 12.0706 0.743176 11.9454 0.752309C11.8203 0.761441 11.6994 0.801838 11.5939 0.869799C11.4884 0.93776 11.4016 1.03111 11.3415 1.1413C11.2814 1.25149 11.25 1.37499 11.25 1.5005V15.0221C11.5 15.008 11.75 15.0008 12 15.0005C12.25 15.0002 12.5 15.0074 12.75 15.0221Z" fill="#666666"/>
<path d="M21.7185 21.4429C21.3173 19.4343 20.0727 17.752 18.1194 16.5773C16.596 15.6609 14.713 15.1101 12.7499 14.9976V18.7359C12.7499 18.9348 12.6709 19.1256 12.5302 19.2662C12.3896 19.4069 12.1988 19.4859 11.9999 19.4859C11.801 19.4859 11.6102 19.4069 11.4696 19.2662C11.3289 19.1256 11.2499 18.9348 11.2499 18.7359V14.9976C9.28679 15.1101 7.40382 15.6609 5.88039 16.5773C3.9271 17.752 2.68257 19.4343 2.28132 21.4429C2.23446 21.6637 2.23723 21.8921 2.28944 22.1116C2.34164 22.3311 2.44198 22.5363 2.5832 22.7123C2.86539 23.0601 3.28117 23.2476 3.74992 23.2476H20.2499C20.7187 23.2476 21.1349 23.0578 21.4171 22.7123C21.5582 22.5363 21.6585 22.3311 21.7106 22.1115C21.7627 21.892 21.7654 21.6636 21.7185 21.4429Z" fill="#666666"/>
</g>
<defs>
<clipPath id="clip0_32_1812">
<rect width="24" height="24" fill="white" transform="translate(0 -0.00390625)"/>
</clipPath>
</defs>
</svg>
