<svg width="24" height="24" viewBox="0 0 24 24" fill="none" xmlns="http://www.w3.org/2000/svg">
<g clip-path="url(#clip0_32_1809)">
<path d="M11.25 0.749405V15.0214C11.5 15.0068 11.75 14.9994 12 14.9994C12.25 14.9994 12.5 15.0068 12.75 15.0214V9.48222L21 5.24941L11.25 0.749405Z" fill="#666666"/>
<path d="M21.699 21.442C21.2986 19.4334 20.0583 17.7511 18.1074 16.5764C16.5872 15.66 14.7075 15.1092 12.75 14.9967V19.4869H11.25V14.9967C9.29114 15.1092 7.41145 15.66 5.89129 16.5764C3.94176 17.7511 2.70004 19.4334 2.29973 21.442C2.20598 21.9019 2.26786 23.2467 2.26786 23.2467H21.7308C21.7308 23.2467 21.7908 21.9019 21.699 21.442Z" fill="#666666"/>
</g>
<defs>
<clipPath id="clip0_32_1809">
<rect width="24" height="24" fill="white" transform="translate(0 -0.00390625)"/>
</clipPath>
</defs>
</svg>
