<svg width="24" height="24" viewBox="0 0 24 24" fill="none" xmlns="http://www.w3.org/2000/svg">
<path d="M9.56246 11.2485H3.18746C2.73991 11.2485 2.31069 11.0707 1.99422 10.7543C1.67775 10.4378 1.49996 10.0086 1.49996 9.56102V3.18602C1.49996 2.73847 1.67775 2.30924 1.99422 1.99278C2.31069 1.67631 2.73991 1.49852 3.18746 1.49852H9.56246C10.01 1.49852 10.4392 1.67631 10.7557 1.99278C11.0722 2.30924 11.25 2.73847 11.25 3.18602V9.56102C11.25 10.0086 11.0722 10.4378 10.7557 10.7543C10.4392 11.0707 10.01 11.2485 9.56246 11.2485ZM20.8125 11.2485H14.4375C13.9899 11.2485 13.5607 11.0707 13.2442 10.7543C12.9278 10.4378 12.75 10.0086 12.75 9.56102V3.18602C12.75 2.73847 12.9278 2.30924 13.2442 1.99278C13.5607 1.67631 13.9899 1.49852 14.4375 1.49852H20.8125C21.26 1.49852 21.6892 1.67631 22.0057 1.99278C22.3222 2.30924 22.5 2.73847 22.5 3.18602V9.56102C22.5 10.0086 22.3222 10.4378 22.0057 10.7543C21.6892 11.0707 21.26 11.2485 20.8125 11.2485ZM9.56246 22.4985H3.18746C2.73991 22.4985 2.31069 22.3207 1.99422 22.0043C1.67775 21.6878 1.49996 21.2586 1.49996 20.811V14.436C1.49996 13.9885 1.67775 13.5592 1.99422 13.2428C2.31069 12.9263 2.73991 12.7485 3.18746 12.7485H9.56246C10.01 12.7485 10.4392 12.9263 10.7557 13.2428C11.0722 13.5592 11.25 13.9885 11.25 14.436V20.811C11.25 21.2586 11.0722 21.6878 10.7557 22.0043C10.4392 22.3207 10.01 22.4985 9.56246 22.4985ZM20.8125 22.4985H14.4375C13.9899 22.4985 13.5607 22.3207 13.2442 22.0043C12.9278 21.6878 12.75 21.2586 12.75 20.811V14.436C12.75 13.9885 12.9278 13.5592 13.2442 13.2428C13.5607 12.9263 13.9899 12.7485 14.4375 12.7485H20.8125C21.26 12.7485 21.6892 12.9263 22.0057 13.2428C22.3222 13.5592 22.5 13.9885 22.5 14.436V20.811C22.5 21.2586 22.3222 21.6878 22.0057 22.0043C21.6892 22.3207 21.26 22.4985 20.8125 22.4985Z" fill="#666666"/>
</svg>
