<svg width="24" height="24" viewBox="0 0 24 24" fill="none" xmlns="http://www.w3.org/2000/svg">
<path d="M9.56251 2.2467H3.18751C2.66974 2.2467 2.25001 2.66644 2.25001 3.1842V9.55921C2.25001 10.077 2.66974 10.4967 3.18751 10.4967H9.56251C10.0803 10.4967 10.5 10.077 10.5 9.55921V3.1842C10.5 2.66644 10.0803 2.2467 9.56251 2.2467Z" stroke="#666666" stroke-width="1.5" stroke-linecap="round" stroke-linejoin="round"/>
<path d="M20.8125 2.2467H14.4375C13.9197 2.2467 13.5 2.66644 13.5 3.1842V9.55921C13.5 10.077 13.9197 10.4967 14.4375 10.4967H20.8125C21.3303 10.4967 21.75 10.077 21.75 9.55921V3.1842C21.75 2.66644 21.3303 2.2467 20.8125 2.2467Z" stroke="#666666" stroke-width="1.5" stroke-linecap="round" stroke-linejoin="round"/>
<path d="M9.56251 13.4967H3.18751C2.66974 13.4967 2.25001 13.9165 2.25001 14.4342V20.8092C2.25001 21.327 2.66974 21.7467 3.18751 21.7467H9.56251C10.0803 21.7467 10.5 21.327 10.5 20.8092V14.4342C10.5 13.9165 10.0803 13.4967 9.56251 13.4967Z" stroke="#666666" stroke-width="1.5" stroke-linecap="round" stroke-linejoin="round"/>
<path d="M20.8125 13.4967H14.4375C13.9197 13.4967 13.5 13.9165 13.5 14.4342V20.8092C13.5 21.327 13.9197 21.7467 14.4375 21.7467H20.8125C21.3303 21.7467 21.75 21.327 21.75 20.8092V14.4342C21.75 13.9165 21.3303 13.4967 20.8125 13.4967Z" stroke="#666666" stroke-width="1.5" stroke-linecap="round" stroke-linejoin="round"/>
</svg>
