<svg width="24" height="24" viewBox="0 0 24 24" fill="none" xmlns="http://www.w3.org/2000/svg">
<path d="M13.0041 11.5786C12.9526 11.4847 12.8882 11.3984 12.8129 11.3222L11.9532 10.4742C11.8649 10.3843 11.7606 10.3117 11.6457 10.26C11.4649 10.1793 11.2638 10.1553 11.0691 10.191C10.8743 10.2267 10.6949 10.3206 10.5544 10.4601C10.2563 10.7536 9.7107 11.2889 8.72632 12.2616C6.84382 14.1239 3.34835 17.2453 1.76773 18.5766C1.68809 18.6432 1.62316 18.7256 1.57705 18.8187C1.53093 18.9117 1.50464 19.0133 1.49984 19.117C1.49504 19.2208 1.51183 19.3244 1.54914 19.4213C1.58646 19.5182 1.6435 19.6063 1.71663 19.68L3.54476 21.5283C3.61838 21.6021 3.70648 21.6599 3.80352 21.6981C3.90056 21.7363 4.00445 21.754 4.10865 21.75C4.21285 21.7461 4.31512 21.7207 4.40902 21.6753C4.50292 21.63 4.58643 21.5657 4.65429 21.4866C6.02492 19.8755 9.16835 16.3772 11.0293 14.5383C11.9851 13.598 12.5209 13.058 12.8241 12.7598C12.9745 12.6069 13.0729 12.4104 13.1052 12.1983C13.1375 11.9863 13.1022 11.7694 13.0041 11.5786V11.5786ZM22.4265 9.42233L20.8182 7.82858C20.7937 7.80406 20.7644 7.7848 20.7321 7.77198C20.6999 7.75917 20.6654 7.75306 20.6307 7.75405C20.5961 7.75347 20.5617 7.75975 20.5295 7.77254C20.4973 7.78534 20.468 7.80438 20.4432 7.82858C20.3853 7.88676 20.3149 7.93084 20.2372 7.95742C20.1596 7.984 20.0769 7.99236 19.9955 7.98186C19.7855 7.95889 19.5619 7.89374 19.4176 7.75405C19.0894 7.43249 19.4687 6.79967 19.1799 6.39467C18.8502 5.95148 18.4886 5.53287 18.098 5.14217C17.7671 4.81405 16.4663 3.57327 14.2754 2.67983C13.5762 2.3934 12.8278 2.24627 12.0723 2.24671C10.8371 2.24671 9.88742 2.79796 9.54101 3.11436C9.26539 3.36374 8.97851 3.75983 8.97851 3.75983C9.14417 3.69944 9.31339 3.64934 9.48523 3.60983C9.84357 3.53304 10.2113 3.5095 10.5765 3.53999C11.3059 3.60046 12.1848 3.94264 12.6563 4.31296C13.4162 4.92233 13.7429 5.73749 13.794 6.78936C13.8315 7.57171 13.0801 8.55936 12.3671 9.36467C12.3044 9.43548 12.2713 9.52773 12.2748 9.62226C12.2783 9.71679 12.3181 9.80634 12.3859 9.87233L13.3815 10.8675C13.4508 10.936 13.5441 10.9748 13.6416 10.9757C13.7391 10.9765 13.8331 10.9394 13.9037 10.8722C14.5566 10.2389 15.361 9.53764 15.8171 9.25686C16.2732 8.97608 16.6412 8.89686 16.8179 8.87764C17.1651 8.84402 17.5142 8.91974 17.8163 9.09421C17.8695 9.12431 17.9182 9.16188 17.9607 9.20577C18.2635 9.51327 18.2452 10.0158 17.9373 10.3186L17.8435 10.4072C17.8191 10.4312 17.7998 10.4598 17.7866 10.4913C17.7733 10.5229 17.7665 10.5567 17.7665 10.5909C17.7665 10.6251 17.7733 10.659 17.7866 10.6905C17.7998 10.7221 17.8191 10.7507 17.8435 10.7747L19.4518 12.3684C19.4765 12.3927 19.5058 12.4118 19.538 12.4245C19.5702 12.4373 19.6047 12.4434 19.6393 12.4425C19.7091 12.4435 19.7765 12.4169 19.8268 12.3684L22.4265 9.79733C22.4744 9.74667 22.5011 9.67957 22.5011 9.60983C22.5011 9.54009 22.4744 9.47299 22.4265 9.42233V9.42233Z" stroke="#666666" stroke-width="1.5" stroke-linecap="round" stroke-linejoin="round"/>
</svg>
