<svg width="24" height="24" viewBox="0 0 24 24" fill="none" xmlns="http://www.w3.org/2000/svg">
<path d="M13.1325 11.3793L11.9086 10.1549C11.6283 9.87452 11.2483 9.71651 10.8518 9.71546C10.4553 9.7144 10.0745 9.87039 9.79266 10.1493L1.28344 18.0023C0.973598 18.2943 0.770161 18.6665 0.751411 19.0832C0.74239 19.2899 0.77607 19.4962 0.85035 19.6893C0.924629 19.8824 1.03791 20.0581 1.18313 20.2054L3.01125 22.0537C3.01223 22.0549 3.01333 22.056 3.01454 22.057C3.29704 22.3385 3.67927 22.4972 4.07813 22.4985H4.13344C4.55016 22.4831 4.92329 22.2876 5.21954 21.9749L13.1273 13.5046C13.2676 13.3656 13.379 13.2003 13.4552 13.0181C13.5313 12.8359 13.5708 12.6405 13.5713 12.443C13.5717 12.2456 13.5332 12.05 13.4579 11.8674C13.3827 11.6849 13.2721 11.519 13.1325 11.3793ZM22.9688 8.90477L22.9542 8.89024L21.3478 7.30024C21.2537 7.20646 21.142 7.13224 21.019 7.08187C20.8961 7.03151 20.7644 7.00599 20.6316 7.0068C20.4163 7.007 20.2066 7.07489 20.032 7.20087C20.032 7.18071 20.0349 7.16102 20.0363 7.14368C20.0574 6.83899 20.0902 6.37868 19.7925 5.96149C19.4386 5.48449 19.0501 5.03421 18.63 4.6143C18.6289 4.61294 18.6276 4.61168 18.6263 4.61055C18.0019 3.99555 16.643 2.83727 14.5613 1.98837C13.7718 1.66435 12.9265 1.49794 12.0731 1.49852C10.5938 1.49852 9.46876 2.16602 9.03797 2.56165C8.79405 2.79463 8.57159 3.04909 8.37329 3.32196C8.27855 3.45273 8.22854 3.61058 8.23071 3.77204C8.23288 3.93351 8.2871 4.08996 8.38531 4.21814C8.48353 4.34632 8.62049 4.43937 8.77583 4.48347C8.93117 4.52757 9.09659 4.52035 9.24751 4.4629C9.37897 4.41375 9.51327 4.37258 9.64969 4.33962C9.9338 4.27953 10.2252 4.26137 10.5145 4.28571C11.1328 4.3368 11.8641 4.64383 12.1875 4.8993C12.7359 5.3404 12.9999 5.93477 13.0434 6.8254C13.0519 7.00446 12.6816 7.67571 12.1059 8.44165C11.9963 8.58619 11.9428 8.76559 11.9553 8.94659C11.9678 9.12758 12.0454 9.29792 12.1739 9.42602L13.7869 11.039C13.9224 11.1749 14.1049 11.2536 14.2967 11.259C14.4885 11.2644 14.6752 11.1961 14.8181 11.0681C15.2742 10.6607 15.9689 10.0466 16.2117 9.89618C16.5722 9.67446 16.83 9.6318 16.9008 9.6243C17.0845 9.60629 17.2692 9.64524 17.43 9.73587C17.4308 9.74389 17.4299 9.75199 17.4274 9.75966C17.4249 9.76733 17.4209 9.77439 17.4155 9.7804L17.3302 9.86149L17.3161 9.87462C17.2218 9.96853 17.1471 10.0802 17.0961 10.2031C17.0452 10.326 17.0191 10.4578 17.0193 10.5909C17.0195 10.7239 17.0461 10.8557 17.0974 10.9784C17.1488 11.1012 17.2239 11.2126 17.3184 11.3062L18.9244 12.8957C19.0185 12.9894 19.1303 13.0636 19.2532 13.1139C19.3761 13.1641 19.5078 13.1896 19.6406 13.1887C19.9074 13.1891 20.1636 13.0847 20.3541 12.8981L22.9556 10.3284C22.9645 10.3195 22.9734 10.3101 22.9819 10.3007C23.1564 10.1094 23.2521 9.85911 23.2496 9.60016C23.2472 9.34121 23.1469 9.09277 22.9688 8.90477Z" fill="#666666"/>
</svg>
