<svg width="24" height="24" viewBox="0 0 24 24" fill="none" xmlns="http://www.w3.org/2000/svg">
<path d="M13.7944 12.0407L11.2434 9.49024C11.1912 9.4378 11.1291 9.3962 11.0607 9.36781C10.9923 9.33942 10.919 9.3248 10.845 9.3248C10.771 9.3248 10.6976 9.33942 10.6293 9.36781C10.5609 9.3962 10.4988 9.4378 10.4465 9.49024L0.583577 18.7954C0.528882 18.847 0.485078 18.909 0.454753 18.9778C0.424427 19.0465 0.408195 19.1207 0.407015 19.1959C0.405835 19.271 0.419731 19.3456 0.447883 19.4153C0.476035 19.485 0.517872 19.5484 0.57092 19.6017L3.66701 22.7085C3.72016 22.7618 3.78347 22.8039 3.85319 22.8323C3.92291 22.8607 3.99762 22.8749 4.07289 22.8738C4.14816 22.8728 4.22247 22.8567 4.2914 22.8265C4.36034 22.7962 4.4225 22.7525 4.4742 22.6977L13.7934 12.8371C13.8459 12.7849 13.8875 12.7229 13.9159 12.6546C13.9443 12.5863 13.959 12.5131 13.9591 12.4391C13.9592 12.3651 13.9447 12.2919 13.9164 12.2235C13.8881 12.1551 13.8467 12.093 13.7944 12.0407ZM23.4061 9.34212L21.3487 7.29931C21.2546 7.20552 21.1429 7.1313 21.02 7.08094C20.897 7.03058 20.7653 7.00506 20.6325 7.00587C20.4172 7.00607 20.2075 7.07396 20.033 7.19993C20.033 7.17978 20.0358 7.16009 20.0372 7.14274C20.0583 6.83806 20.0911 6.37774 19.7934 5.96056C19.4395 5.48356 19.051 5.03328 18.6309 4.61337C18.6298 4.612 18.6285 4.61075 18.6272 4.60962C18.0028 3.99462 16.6439 2.83634 14.5622 1.98743C13.7723 1.66361 12.9268 1.49752 12.0731 1.49852C10.5937 1.49852 9.46873 2.16602 9.03795 2.56165C8.61375 2.94873 8.33554 3.46989 8.24998 4.03774L8.99998 4.49853C8.99998 4.49853 9.3778 4.40477 9.64967 4.33962C9.93371 4.27904 10.2252 4.26087 10.5145 4.28571C11.1328 4.33681 11.864 4.64384 12.1875 4.89931C12.7359 5.3404 12.9998 5.93478 13.0434 6.8254C13.0528 7.02368 12.5972 7.82618 11.9109 8.6929C11.8538 8.76496 11.8252 8.85547 11.8305 8.94725C11.8358 9.03902 11.8746 9.12566 11.9395 9.19071L14.0662 11.3174C14.1344 11.385 14.2258 11.4238 14.3217 11.426C14.4176 11.4282 14.5107 11.3935 14.5819 11.3292C15.1476 10.8135 16.0111 10.0167 16.207 9.89524C16.5675 9.67353 16.8253 9.63087 16.8961 9.62337C17.0798 9.60536 17.2645 9.64431 17.4253 9.73493C17.4261 9.74296 17.4252 9.75106 17.4227 9.75873C17.4202 9.76639 17.4161 9.77345 17.4108 9.77946L17.3255 9.86056L17.3114 9.87368C17.2171 9.9676 17.1424 10.0792 17.0914 10.2022C17.0405 10.3251 17.0144 10.4569 17.0146 10.59C17.0148 10.723 17.0414 10.8547 17.0927 10.9775C17.144 11.1002 17.2192 11.2116 17.3137 11.3052L19.3739 13.3527C19.4442 13.4226 19.5392 13.4618 19.6383 13.4618C19.7373 13.4618 19.8324 13.4226 19.9026 13.3527L23.4033 9.87462C23.4386 9.83994 23.4667 9.79862 23.486 9.75302C23.5053 9.70742 23.5153 9.65846 23.5156 9.60895C23.5159 9.55945 23.5063 9.51038 23.4875 9.46459C23.4687 9.41879 23.441 9.37717 23.4061 9.34212Z" fill="#666666"/>
</svg>
