<svg width="24" height="24" viewBox="0 0 24 24" fill="none" xmlns="http://www.w3.org/2000/svg">
<g clip-path="url(#clip0_32_1842)">
<path d="M3.71246 9.90977C4.43996 9.49634 5.34886 9.8029 5.74261 10.551L7.6823 14.5077C7.71865 14.5827 7.78212 14.6409 7.85985 14.6708C7.93758 14.7006 8.02374 14.6998 8.1009 14.6685C8.16202 14.6442 8.21442 14.602 8.25128 14.5475C8.28814 14.493 8.30777 14.4287 8.30761 14.3629V3.37352C8.30761 2.72149 8.90996 2.24852 9.56246 2.24852C10.215 2.24852 10.7812 2.72149 10.7812 3.37352V10.716C10.7796 10.8531 10.8316 10.9855 10.926 11.0849C11.0205 11.1844 11.15 11.243 11.287 11.2485C11.3555 11.2498 11.4236 11.2375 11.4873 11.2121C11.551 11.1868 11.609 11.149 11.658 11.101C11.7069 11.053 11.7458 10.9957 11.7723 10.9325C11.7988 10.8693 11.8125 10.8014 11.8125 10.7329V1.12352C11.8125 0.471489 12.3253 -0.0014801 12.9778 -0.0014801C13.6303 -0.0014801 14.1562 0.471489 14.1562 1.12352V10.716C14.1546 10.8531 14.2066 10.9855 14.301 11.0849C14.3955 11.1844 14.525 11.243 14.662 11.2485C14.7305 11.2498 14.7986 11.2375 14.8623 11.2121C14.926 11.1868 14.984 11.149 15.033 11.101C15.0819 11.053 15.1208 10.9957 15.1473 10.9325C15.1738 10.8693 15.1875 10.8014 15.1875 10.7329V2.62352C15.1875 1.97149 15.7537 1.49852 16.4062 1.49852C17.0587 1.49852 17.625 2.01836 17.625 2.6704V11.466C17.6234 11.6031 17.6753 11.7355 17.7698 11.8349C17.8642 11.9344 17.9937 11.993 18.1307 11.9985C18.1993 11.9998 18.2674 11.9875 18.3311 11.9621C18.3948 11.9368 18.4528 11.899 18.5017 11.851C18.5507 11.803 18.5895 11.7457 18.616 11.6825C18.6426 11.6193 18.6562 11.5514 18.6562 11.4829V5.62352C18.6562 4.97149 19.1756 4.49852 19.8281 4.49852C20.4806 4.49852 21.0056 4.97758 21 5.62352V15.7485C21 21.2521 17.625 23.9985 13.5 23.9985H12.75C8.62496 23.9985 7.32605 22.1423 6.37496 19.8735L3.15605 11.9516C2.84386 11.1079 2.98542 10.3227 3.71246 9.90977Z" fill="#666666"/>
</g>
<defs>
<clipPath id="clip0_32_1842">
<rect width="24" height="24" fill="white"/>
</clipPath>
</defs>
</svg>
