<svg width="24" height="24" viewBox="0 0 24 24" fill="none" xmlns="http://www.w3.org/2000/svg">
<g clip-path="url(#clip0_32_1833)">
<path d="M20.1366 9.79823C19.4307 9.48792 18.6188 9.85964 18.3319 10.6242L16.6875 14.6226H16.1593V3.74761C16.1593 2.92261 15.5358 2.2476 14.7741 2.2476C14.0119 2.2476 13.389 2.92261 13.389 3.74761V10.8609L12.6961 10.8726V1.4976C12.6961 0.672605 12.0727 -0.00239563 11.311 -0.00239563C10.5493 -0.00239563 9.92583 0.672605 9.92583 1.4976V10.8609L9.23442 10.8726V2.99761C9.23442 2.1726 8.61098 1.4976 7.84927 1.4976C7.08708 1.4976 6.46411 2.1726 6.46411 2.99761V11.6109L5.77036 11.6226V5.99761C5.77036 5.17261 5.14692 4.49761 4.3852 4.49761C3.62348 4.49761 3.00005 5.17261 3.00005 5.99761V16.1226C3.00005 19.6757 4.74052 23.9976 10.9219 23.9976C12.8344 23.9976 14.6447 23.6695 15.6404 23.0132C16.2647 22.6017 16.8018 22.0711 17.221 21.4518C17.5342 20.9897 17.7863 20.489 17.971 19.9621L20.8983 11.7525C21.1875 10.9879 20.8426 10.109 20.1366 9.79823Z" fill="#666666"/>
</g>
<defs>
<clipPath id="clip0_32_1833">
<rect width="24" height="24" fill="white" transform="translate(0.00012207 -0.00390625)"/>
</clipPath>
</defs>
</svg>
