<svg width="24" height="24" viewBox="0 0 24 24" fill="none" xmlns="http://www.w3.org/2000/svg">
<g clip-path="url(#clip0_32_1835)">
<path d="M20.2877 9.90886C19.5602 9.49542 18.6512 9.80198 18.2575 10.5501L16.3178 14.5068C16.2815 14.5817 16.218 14.64 16.1403 14.6699C16.0625 14.6997 15.9764 14.6989 15.8992 14.6676C15.8381 14.6433 15.7857 14.6011 15.7488 14.5466C15.712 14.4921 15.6923 14.4278 15.6925 14.362V3.37261C15.6925 2.72057 15.0902 2.2476 14.4377 2.2476C13.7852 2.2476 13.2189 2.72057 13.2189 3.37261V10.7151C13.2205 10.8522 13.1685 10.9846 13.0741 11.084C12.9796 11.1834 12.8501 11.2421 12.7131 11.2476C12.6446 11.2489 12.5765 11.2365 12.5128 11.2112C12.4491 11.1859 12.3911 11.1481 12.3421 11.1001C12.2932 11.0521 12.2543 10.9948 12.2278 10.9316C12.2013 10.8684 12.1876 10.8005 12.1877 10.732V1.1226C12.1877 0.470573 11.6748 -0.00239563 11.0223 -0.00239563C10.3698 -0.00239563 9.8439 0.470573 9.8439 1.1226V10.7151C9.84548 10.8522 9.79352 10.9846 9.69908 11.084C9.60464 11.1834 9.47515 11.2421 9.33812 11.2476C9.26958 11.2489 9.20147 11.2365 9.13778 11.2112C9.07408 11.1859 9.01607 11.1481 8.96714 11.1001C8.91821 11.0521 8.87935 10.9948 8.85282 10.9316C8.8263 10.8684 8.81264 10.8005 8.81265 10.732V2.62261C8.81265 1.97057 8.2464 1.4976 7.5939 1.4976C6.9414 1.4976 6.37515 2.01745 6.37515 2.66948V11.4651C6.37673 11.6022 6.32477 11.7346 6.23033 11.834C6.13589 11.9334 6.0064 11.9921 5.86937 11.9976C5.80083 11.9989 5.73272 11.9865 5.66903 11.9612C5.60533 11.9359 5.54732 11.8981 5.49839 11.8501C5.44946 11.8021 5.4106 11.7448 5.38407 11.6816C5.35755 11.6184 5.34389 11.5505 5.3439 11.482V5.62261C5.3439 4.97057 4.82453 4.49761 4.17203 4.49761C3.51953 4.49761 2.99453 4.97667 3.00015 5.62261V15.7476C3.00015 21.2512 6.37515 23.9976 10.5002 23.9976H11.2502C15.3752 23.9976 16.6741 22.1414 17.6252 19.8726L20.8459 11.9507C21.1562 11.107 21.0147 10.3218 20.2877 9.90886Z" fill="#666666"/>
</g>
<defs>
<clipPath id="clip0_32_1835">
<rect width="24" height="24" fill="white" transform="translate(0 -0.00390625)"/>
</clipPath>
</defs>
</svg>
