<svg width="24" height="24" viewBox="0 0 24 24" fill="none" xmlns="http://www.w3.org/2000/svg">
<g clip-path="url(#clip0_32_1830)">
<path d="M9.74987 11.2503V2.25032C9.74987 1.8525 9.90791 1.47096 10.1892 1.18966C10.4705 0.908356 10.852 0.75032 11.2499 0.75032C11.6477 0.75032 12.0292 0.908356 12.3105 1.18966C12.5918 1.47096 12.7499 1.8525 12.7499 2.25032V11.2503M3.74987 15.0003V6.75032C3.74987 6.3525 3.90791 5.97097 4.18921 5.68966C4.47051 5.40836 4.85205 5.25032 5.24987 5.25032V5.25032C5.6477 5.25032 6.02923 5.40836 6.31053 5.68966C6.59184 5.97097 6.74987 6.3525 6.74987 6.75032V12.0003L3.74987 15.0003ZM6.74987 12.0003V3.75032C6.74987 3.3525 6.90791 2.97097 7.18921 2.68966C7.47052 2.40836 7.85205 2.25032 8.24987 2.25032C8.6477 2.25032 9.02923 2.40836 9.31053 2.68966C9.59184 2.97097 9.74987 3.3525 9.74987 3.75032V11.2503L6.74987 12.0003ZM12.7499 11.2972V4.50032C12.7499 4.1025 12.9079 3.72097 13.1892 3.43966C13.4705 3.15836 13.852 3.00032 14.2499 3.00032V3.00032C14.6477 3.00032 15.0292 3.15836 15.3105 3.43966C15.5918 3.72097 15.7499 4.1025 15.7499 4.50032V15.0003L12.7499 11.2972Z" stroke="#666666" stroke-width="1.5" stroke-linecap="round" stroke-linejoin="round"/>
<path d="M3.74987 14.9977C3.74987 20.5008 6.74987 23.2477 10.8749 23.2477C14.9999 23.2477 16.6738 21.3914 17.6249 19.1227L20.0957 12.3727C20.4078 11.5266 20.2663 10.7419 19.5392 10.3289C18.8117 9.91547 17.856 10.1283 17.4622 10.8764L15.7499 14.9977" stroke="#666666" stroke-width="1.5" stroke-linecap="round" stroke-linejoin="round"/>
</g>
<defs>
<clipPath id="clip0_32_1830">
<rect width="24" height="24" fill="white" transform="translate(0 -0.00390625)"/>
</clipPath>
</defs>
</svg>
