<svg width="24" height="24" viewBox="0 0 24 24" fill="none" xmlns="http://www.w3.org/2000/svg">
<g clip-path="url(#clip0_32_1840)">
<path d="M3.86341 9.79915C4.56935 9.48883 5.38122 9.86055 5.6681 10.6251L7.31247 14.6235H7.84075V3.74852C7.84075 2.92352 8.46419 2.24852 9.22591 2.24852C9.9881 2.24852 10.6111 2.92352 10.6111 3.74852V10.8618L11.3039 10.8735V1.49852C11.3039 0.67352 11.9273 -0.0014801 12.689 -0.0014801C13.4531 -0.0014801 14.0742 0.67352 14.0742 1.49852V10.8618L14.7656 10.8735V2.99852C14.7656 2.17352 15.389 1.49852 16.1508 1.49852C16.9129 1.49852 17.5359 2.17352 17.5359 2.99852V11.6118L18.2287 11.6235V5.99852C18.2287 5.17352 18.8522 4.49852 19.6139 4.49852C20.3765 4.49852 21 5.17352 21 5.99852V16.1235C21 19.6766 19.2595 23.9985 13.0781 23.9985C11.1656 23.9985 9.35529 23.6704 8.35966 23.0142C7.73532 22.6026 7.19821 22.072 6.77904 21.4527C6.4658 20.9906 6.21371 20.4899 6.02904 19.9631L3.10122 11.7534C2.81482 10.9888 3.15747 10.1099 3.86341 9.79915Z" fill="#666666"/>
</g>
<defs>
<clipPath id="clip0_32_1840">
<rect width="24" height="24" fill="white"/>
</clipPath>
</defs>
</svg>
