<svg width="24" height="24" viewBox="0 0 24 24" fill="none" xmlns="http://www.w3.org/2000/svg">
<g clip-path="url(#clip0_32_1837)">
<path d="M14.25 11.2467V2.24672C14.25 1.84889 14.092 1.46736 13.8107 1.18606C13.5294 0.904755 13.1479 0.746719 12.75 0.746719C12.3522 0.746719 11.9707 0.904755 11.6894 1.18606C11.4081 1.46736 11.25 1.84889 11.25 2.24672V11.2467M20.25 14.9967V6.74672C20.25 6.3489 20.092 5.96736 19.8107 5.68606C19.5294 5.40476 19.1479 5.24672 18.75 5.24672V5.24672C18.3522 5.24672 17.9707 5.40476 17.6894 5.68606C17.4081 5.96736 17.25 6.3489 17.25 6.74672V11.9967L20.25 14.9967ZM17.25 11.9967V3.74672C17.25 3.3489 17.092 2.96736 16.8107 2.68606C16.5294 2.40475 16.1479 2.24672 15.75 2.24672C15.3522 2.24672 14.9707 2.40475 14.6894 2.68606C14.4081 2.96736 14.25 3.3489 14.25 3.74672V11.2467L17.25 11.9967ZM11.25 11.2936V4.49672C11.25 4.0989 11.092 3.71736 10.8107 3.43606C10.5294 3.15475 10.1479 2.99672 9.75003 2.99672V2.99672C9.35221 2.99672 8.97068 3.15475 8.68937 3.43606C8.40807 3.71736 8.25003 4.0989 8.25003 4.49672V14.9967L11.25 11.2936Z" stroke="#666666" stroke-width="1.5" stroke-linecap="round" stroke-linejoin="round"/>
<path d="M20.25 14.9986C20.25 20.5017 17.25 23.2486 13.125 23.2486C9 23.2486 7.3261 21.3923 6.375 19.1236L3.9061 12.3736C3.59391 11.5275 3.73547 10.7428 4.4625 10.3298C5.19 9.91638 6.14578 10.1292 6.53953 10.8773L8.25 14.9986" stroke="#666666" stroke-width="1.5" stroke-linecap="round" stroke-linejoin="round"/>
</g>
<defs>
<clipPath id="clip0_32_1837">
<rect width="24" height="24" fill="white"/>
</clipPath>
</defs>
</svg>
