<svg width="24" height="24" viewBox="0 0 24 24" fill="none" xmlns="http://www.w3.org/2000/svg">
<path d="M19.4246 4.57086C18.4513 3.58797 17.2934 2.80707 16.0174 2.27301C14.7415 1.73896 13.3725 1.46228 11.9893 1.45888C10.6061 1.45547 9.23582 1.72541 7.95723 2.25317C6.67864 2.78094 5.51693 3.55614 4.53884 4.53423C3.56075 5.51232 2.78556 6.67403 2.25779 7.95261C1.73003 9.2312 1.46009 10.6015 1.4635 11.9847C1.4669 13.3679 1.74358 14.7368 2.27763 16.0128C2.81168 17.2888 3.59259 18.4467 4.57548 19.4199C5.54875 20.4028 6.70662 21.1837 7.9826 21.7178C9.25857 22.2518 10.6275 22.5285 12.0107 22.5319C13.3939 22.5353 14.7642 22.2654 16.0428 21.7376C17.3214 21.2099 18.4831 20.4347 19.4612 19.4566C20.4393 18.4785 21.2145 17.3168 21.7422 16.0382C22.27 14.7596 22.5399 13.3893 22.5365 12.0061C22.5331 10.6229 22.2565 9.25396 21.7224 7.97798C21.1883 6.70201 20.4074 5.54413 19.4246 4.57086ZM8.62501 9.7454C8.84752 9.7454 9.06502 9.81138 9.25003 9.93499C9.43504 10.0586 9.57923 10.2343 9.66438 10.4399C9.74953 10.6454 9.77181 10.8716 9.7284 11.0899C9.68499 11.3081 9.57784 11.5086 9.42051 11.6659C9.26318 11.8232 9.06272 11.9304 8.84449 11.9738C8.62626 12.0172 8.40006 11.9949 8.19449 11.9098C7.98893 11.8246 7.81323 11.6804 7.68961 11.4954C7.56599 11.3104 7.50001 11.0929 7.50001 10.8704C7.49964 10.7226 7.52849 10.5761 7.58489 10.4394C7.6413 10.3028 7.72415 10.1786 7.82869 10.0741C7.93323 9.96953 8.0574 9.88668 8.19406 9.83028C8.33072 9.77387 8.47717 9.74503 8.62501 9.7454ZM16.4845 14.7221C15.922 16.6112 14.1314 17.9954 12.0024 17.9954C9.8733 17.9954 8.08267 16.6112 7.51548 14.7221C7.49962 14.6659 7.49713 14.6067 7.5082 14.5493C7.51928 14.4919 7.54362 14.4379 7.57927 14.3916C7.61493 14.3453 7.66092 14.3079 7.71357 14.2826C7.76622 14.2572 7.82407 14.2444 7.88251 14.2454H16.118C16.1764 14.2445 16.2342 14.2573 16.2868 14.2827C16.3394 14.3081 16.3853 14.3455 16.4209 14.3918C16.4565 14.4381 16.4808 14.4921 16.4918 14.5494C16.5029 14.6068 16.5004 14.6659 16.4845 14.7221ZM15.375 11.9954C15.1525 11.9954 14.935 11.9294 14.75 11.8058C14.565 11.6822 14.4208 11.5065 14.3357 11.3009C14.2505 11.0953 14.2282 10.8691 14.2716 10.6509C14.315 10.4327 14.4222 10.2322 14.5795 10.0749C14.7369 9.91757 14.9373 9.81042 15.1555 9.76701C15.3738 9.72361 15.6 9.74588 15.8055 9.83103C16.0111 9.91618 16.1868 10.0604 16.3104 10.2454C16.434 10.4304 16.5 10.6479 16.5 10.8704C16.5004 11.0182 16.4715 11.1647 16.4151 11.3014C16.3587 11.438 16.2759 11.5622 16.1713 11.6667C16.0668 11.7713 15.9426 11.8541 15.806 11.9105C15.6693 11.9669 15.5229 11.9958 15.375 11.9954Z" fill="#666666"/>
</svg>
