<svg width="24" height="24" viewBox="0 0 24 24" fill="none" xmlns="http://www.w3.org/2000/svg">
<path d="M8.62505 11.9976C9.24637 11.9976 9.75005 11.4939 9.75005 10.8726C9.75005 10.2513 9.24637 9.74762 8.62505 9.74762C8.00373 9.74762 7.50005 10.2513 7.50005 10.8726C7.50005 11.4939 8.00373 11.9976 8.62505 11.9976Z" fill="#666666"/>
<path d="M12.0024 17.9959C9.87329 17.9959 8.08267 16.6116 7.51595 14.7226C7.5001 14.6664 7.4976 14.6072 7.50865 14.5499C7.5197 14.4925 7.544 14.4385 7.5796 14.3922C7.6152 14.3459 7.66113 14.3086 7.71372 14.2832C7.76631 14.2578 7.82411 14.245 7.88251 14.2459H16.118C16.1764 14.245 16.2342 14.2578 16.2868 14.2832C16.3394 14.3086 16.3853 14.3459 16.4209 14.3922C16.4565 14.4385 16.4808 14.4925 16.4918 14.5499C16.5029 14.6072 16.5004 14.6664 16.4845 14.7226C15.9225 16.6116 14.1314 17.9959 12.0024 17.9959Z" fill="#666666"/>
<path d="M15.375 11.9976C15.9963 11.9976 16.5 11.4939 16.5 10.8726C16.5 10.2513 15.9963 9.74762 15.375 9.74762C14.7537 9.74762 14.25 10.2513 14.25 10.8726C14.25 11.4939 14.7537 11.9976 15.375 11.9976Z" fill="#666666"/>
<path d="M12 21.7476C17.3848 21.7476 21.75 17.3824 21.75 11.9976C21.75 6.61284 17.3848 2.24762 12 2.24762C6.61521 2.24762 2.24999 6.61284 2.24999 11.9976C2.24999 17.3824 6.61521 21.7476 12 21.7476Z" stroke="#666666" stroke-width="1.5" stroke-miterlimit="10"/>
</svg>
