<svg width="24" height="24" viewBox="0 0 24 24" fill="none" xmlns="http://www.w3.org/2000/svg">
<path d="M19.4245 4.57086C18.4512 3.58797 17.2933 2.80707 16.0174 2.27301C14.7414 1.73896 13.3725 1.46228 11.9892 1.45888C10.606 1.45547 9.23576 1.72541 7.95717 2.25317C6.67858 2.78094 5.51687 3.55614 4.53878 4.53423C3.56069 5.51232 2.7855 6.67403 2.25773 7.95261C1.72996 9.2312 1.46003 10.6015 1.46343 11.9847C1.46684 13.3679 1.74351 14.7368 2.27757 16.0128C2.81162 17.2888 3.59253 18.4467 4.57542 19.4199C5.54868 20.4028 6.70656 21.1837 7.98254 21.7178C9.25851 22.2518 10.6274 22.5285 12.0107 22.5319C13.3939 22.5353 14.7641 22.2654 16.0427 21.7376C17.3213 21.2099 18.483 20.4347 19.4611 19.4566C20.4392 18.4785 21.2144 17.3168 21.7422 16.0382C22.2699 14.7596 22.5399 13.3893 22.5365 12.0061C22.5331 10.6229 22.2564 9.25396 21.7223 7.97798C21.1883 6.70201 20.4074 5.54413 19.4245 4.57086ZM15.375 9.7454C15.5975 9.7454 15.815 9.81138 16 9.93499C16.185 10.0586 16.3292 10.2343 16.4143 10.4399C16.4995 10.6454 16.5217 10.8716 16.4783 11.0899C16.4349 11.3081 16.3278 11.5086 16.1704 11.6659C16.0131 11.8232 15.8127 11.9304 15.5944 11.9738C15.3762 12.0172 15.15 11.9949 14.9444 11.9098C14.7389 11.8246 14.5632 11.6804 14.4396 11.4954C14.3159 11.3104 14.25 11.0929 14.25 10.8704C14.2496 10.7226 14.2784 10.5761 14.3348 10.4394C14.3912 10.3028 14.4741 10.1786 14.5786 10.0741C14.6832 9.96953 14.8073 9.88668 14.944 9.83028C15.0807 9.77387 15.2271 9.74503 15.375 9.7454ZM8.62495 9.7454C8.84746 9.7454 9.06496 9.81138 9.24997 9.93499C9.43497 10.0586 9.57917 10.2343 9.66432 10.4399C9.74946 10.6454 9.77174 10.8716 9.72834 11.0899C9.68493 11.3081 9.57778 11.5086 9.42045 11.6659C9.26311 11.8232 9.06266 11.9304 8.84443 11.9738C8.6262 12.0172 8.4 11.9949 8.19443 11.9098C7.98887 11.8246 7.81316 11.6804 7.68955 11.4954C7.56593 11.3104 7.49995 11.0929 7.49995 10.8704C7.49958 10.7226 7.52843 10.5761 7.58483 10.4394C7.64124 10.3028 7.72409 10.1786 7.82863 10.0741C7.93317 9.96953 8.05734 9.88668 8.19399 9.83028C8.33065 9.77387 8.47711 9.74503 8.62495 9.7454ZM12.0023 17.9954C9.87323 17.9954 8.07651 16.6131 7.51542 14.7221C7.46667 14.5571 7.4062 14.2454 7.4062 14.2454H16.5937C16.5937 14.2454 16.5323 14.559 16.4845 14.7221C15.9323 16.614 14.1314 17.9954 12.0023 17.9954Z" fill="#666666"/>
</svg>
