<svg width="24" height="24" viewBox="0 0 24 24" fill="none" xmlns="http://www.w3.org/2000/svg">
<path d="M7.50002 7.49402H16.5V16.494H7.50002V7.49402Z" fill="#666666"/>
<path d="M22.4999 9.28067V7.21817H20.9999V4.12442C20.9999 3.82605 20.8814 3.5399 20.6704 3.32893C20.4594 3.11795 20.1733 2.99942 19.8749 2.99942H16.7812V1.49942H14.7187V2.99942H13.0312V1.49942H10.9687V2.99942H9.28118V1.49942H7.21868V2.99942H4.12493C3.82656 2.99942 3.54041 3.11795 3.32943 3.32893C3.11845 3.5399 2.99993 3.82605 2.99993 4.12442V7.21817H1.49993V9.28067H2.99993V10.9682H1.49993V13.0307H2.99993V14.7182H1.49993V16.7807H2.99993V19.8744C2.99993 20.1728 3.11845 20.4589 3.32943 20.6699C3.54041 20.8809 3.82656 20.9994 4.12493 20.9994H7.21868V22.4994H9.28118V20.9994H10.9687V22.4994H13.0312V20.9994H14.7187V22.4994H16.7812V20.9994H19.8749C20.1733 20.9994 20.4594 20.8809 20.6704 20.6699C20.8814 20.4589 20.9999 20.1728 20.9999 19.8744V16.7807H22.4999V14.7182H20.9999V13.0307H22.4999V10.9682H20.9999V9.28067H22.4999ZM5.99993 5.99942H17.9999V17.9994H5.99993V5.99942Z" fill="#666666"/>
</svg>
