<svg width="24" height="24" viewBox="0 0 24 24" fill="none" xmlns="http://www.w3.org/2000/svg">
<path d="M16.1251 7.49402H7.87508C7.66797 7.49402 7.50008 7.66191 7.50008 7.86902V16.119C7.50008 16.3261 7.66797 16.494 7.87508 16.494H16.1251C16.3322 16.494 16.5001 16.3261 16.5001 16.119V7.86902C16.5001 7.66191 16.3322 7.49402 16.1251 7.49402Z" fill="#666666"/>
<path d="M21.75 8.99942C21.9489 8.99942 22.1397 8.9204 22.2803 8.77975C22.421 8.6391 22.5 8.44833 22.5 8.24942C22.5 8.05051 22.421 7.85974 22.2803 7.71909C22.1397 7.57844 21.9489 7.49942 21.75 7.49942H21V5.99942C20.9991 5.20404 20.6828 4.44148 20.1204 3.87906C19.5579 3.31664 18.7954 3.00029 18 2.99942H16.5V2.24942C16.5 2.05051 16.421 1.85974 16.2803 1.71909C16.1397 1.57844 15.9489 1.49942 15.75 1.49942C15.5511 1.49942 15.3603 1.57844 15.2197 1.71909C15.079 1.85974 15 2.05051 15 2.24942V2.99942H12.75V2.24942C12.75 2.05051 12.671 1.85974 12.5303 1.71909C12.3897 1.57844 12.1989 1.49942 12 1.49942C11.8011 1.49942 11.6103 1.57844 11.4697 1.71909C11.329 1.85974 11.25 2.05051 11.25 2.24942V2.99942H8.99999V2.24942C8.99999 2.05051 8.92098 1.85974 8.78032 1.71909C8.63967 1.57844 8.44891 1.49942 8.24999 1.49942C8.05108 1.49942 7.86032 1.57844 7.71966 1.71909C7.57901 1.85974 7.49999 2.05051 7.49999 2.24942V2.99942H5.99999C5.20461 3.00029 4.44205 3.31664 3.87963 3.87906C3.31721 4.44148 3.00086 5.20404 2.99999 5.99942V7.49942H2.24999C2.05108 7.49942 1.86031 7.57844 1.71966 7.71909C1.57901 7.85974 1.49999 8.05051 1.49999 8.24942C1.49999 8.44833 1.57901 8.6391 1.71966 8.77975C1.86031 8.9204 2.05108 8.99942 2.24999 8.99942H2.99999V11.2494H2.24999C2.05108 11.2494 1.86031 11.3284 1.71966 11.4691C1.57901 11.6097 1.49999 11.8005 1.49999 11.9994C1.49999 12.1983 1.57901 12.3891 1.71966 12.5298C1.86031 12.6704 2.05108 12.7494 2.24999 12.7494H2.99999V14.9994H2.24999C2.05108 14.9994 1.86031 15.0784 1.71966 15.2191C1.57901 15.3597 1.49999 15.5505 1.49999 15.7494C1.49999 15.9483 1.57901 16.1391 1.71966 16.2798C1.86031 16.4204 2.05108 16.4994 2.24999 16.4994H2.99999V17.9994C3.00086 18.7948 3.31721 19.5574 3.87963 20.1198C4.44205 20.6822 5.20461 20.9986 5.99999 20.9994H7.49999V21.7494C7.49999 21.9483 7.57901 22.1391 7.71966 22.2798C7.86032 22.4204 8.05108 22.4994 8.24999 22.4994C8.44891 22.4994 8.63967 22.4204 8.78032 22.2798C8.92098 22.1391 8.99999 21.9483 8.99999 21.7494V20.9994H11.25V21.7494C11.25 21.9483 11.329 22.1391 11.4697 22.2798C11.6103 22.4204 11.8011 22.4994 12 22.4994C12.1989 22.4994 12.3897 22.4204 12.5303 22.2798C12.671 22.1391 12.75 21.9483 12.75 21.7494V20.9994H15V21.7494C15 21.9483 15.079 22.1391 15.2197 22.2798C15.3603 22.4204 15.5511 22.4994 15.75 22.4994C15.9489 22.4994 16.1397 22.4204 16.2803 22.2798C16.421 22.1391 16.5 21.9483 16.5 21.7494V20.9994H18C18.7954 20.9986 19.5579 20.6822 20.1204 20.1198C20.6828 19.5574 20.9991 18.7948 21 17.9994V16.4994H21.75C21.9489 16.4994 22.1397 16.4204 22.2803 16.2798C22.421 16.1391 22.5 15.9483 22.5 15.7494C22.5 15.5505 22.421 15.3597 22.2803 15.2191C22.1397 15.0784 21.9489 14.9994 21.75 14.9994H21V12.7494H21.75C21.9489 12.7494 22.1397 12.6704 22.2803 12.5298C22.421 12.3891 22.5 12.1983 22.5 11.9994C22.5 11.8005 22.421 11.6097 22.2803 11.4691C22.1397 11.3284 21.9489 11.2494 21.75 11.2494H21V8.99942H21.75ZM18 16.4994C18 16.8972 17.842 17.2788 17.5607 17.5601C17.2793 17.8414 16.8978 17.9994 16.5 17.9994H7.49999C7.10217 17.9994 6.72064 17.8414 6.43933 17.5601C6.15803 17.2788 5.99999 16.8972 5.99999 16.4994V7.49942C5.99999 7.1016 6.15803 6.72007 6.43933 6.43876C6.72064 6.15746 7.10217 5.99942 7.49999 5.99942H16.5C16.8978 5.99942 17.2793 6.15746 17.5607 6.43876C17.842 6.72007 18 7.1016 18 7.49942V16.4994Z" fill="#666666"/>
</svg>
