<svg width="24" height="24" viewBox="0 0 24 24" fill="none" xmlns="http://www.w3.org/2000/svg">
<path d="M18.0001 3.74852H6.00009C4.75745 3.74852 3.75009 4.75588 3.75009 5.99852V17.9985C3.75009 19.2412 4.75745 20.2485 6.00009 20.2485H18.0001C19.2427 20.2485 20.2501 19.2412 20.2501 17.9985V5.99852C20.2501 4.75588 19.2427 3.74852 18.0001 3.74852Z" stroke="#666666" stroke-width="1.5" stroke-linejoin="round"/>
<path d="M16.5001 6.74582H7.50006C7.08585 6.74582 6.75006 7.08161 6.75006 7.49582V16.4958C6.75006 16.91 7.08585 17.2458 7.50006 17.2458H16.5001C16.9143 17.2458 17.2501 16.91 17.2501 16.4958V7.49582C17.2501 7.08161 16.9143 6.74582 16.5001 6.74582Z" stroke="#666666" stroke-width="1.5" stroke-linejoin="round"/>
<path d="M2.25003 8.24762H3.75003M12 3.74762V2.24762V3.74762ZM15.75 3.74762V2.24762V3.74762ZM8.25003 3.74762V2.24762V3.74762ZM12 21.7476V20.2476V21.7476ZM15.75 21.7476V20.2476V21.7476ZM8.25003 21.7476V20.2476V21.7476ZM20.25 11.9976H21.75H20.25ZM20.25 15.7476H21.75H20.25ZM20.25 8.24762H21.75H20.25ZM2.25003 11.9976H3.75003H2.25003ZM2.25003 15.7476H3.75003H2.25003Z" stroke="#666666" stroke-width="1.5" stroke-linecap="round" stroke-linejoin="round"/>
</svg>
