<svg width="24" height="24" viewBox="0 0 24 24" fill="none" xmlns="http://www.w3.org/2000/svg">
<path d="M19.273 4.56379C17.2701 2.61379 14.6193 1.49582 11.9999 1.49582C9.38054 1.49582 6.72976 2.61379 4.72679 4.56379C2.64601 6.58973 1.49992 9.18332 1.49992 11.9958C1.49992 14.8083 2.75804 17.55 3.62898 19.1325C4.49992 20.715 5.67179 22.4958 6.74992 22.4958C8.24992 22.4958 11.2499 20.9958 11.2499 20.9958L5.99992 11.2458L3.44898 12.7332C3.41758 12.4398 3.40193 12.145 3.4021 11.85C3.4021 9.57332 4.30773 7.4391 6.03413 5.75629C7.69867 4.13676 9.84367 3.27707 11.9999 3.27707C14.1562 3.27707 16.2998 4.13676 17.9657 5.75816C19.6921 7.4391 20.5973 9.57332 20.5973 11.8519C20.5974 12.1466 20.5818 12.4411 20.5504 12.7341L17.9999 11.2458L12.7499 20.9958C12.7499 20.9958 15.7499 22.4958 17.2499 22.4958C18.328 22.4958 19.4999 20.7146 20.3709 19.1325C21.2418 17.5505 22.4999 14.8083 22.4999 11.9958C22.4999 9.18332 21.3538 6.58973 19.273 4.56379Z" fill="#666666"/>
</svg>
