<svg width="24" height="24" viewBox="0 0 24 24" fill="none" xmlns="http://www.w3.org/2000/svg">
<path d="M3.8907 17.9976C3.28133 16.4507 2.25008 13.6209 2.25008 11.9976C2.25008 6.61262 6.99992 2.24762 12.0001 2.24762C17.0002 2.24762 21.7501 6.61262 21.7501 11.9976C21.7501 13.6209 20.672 16.5445 20.1095 17.9976" stroke="#666666" stroke-width="1.5" stroke-linecap="round" stroke-linejoin="round"/>
<path d="M5.0809 12.6599L4.43918 13.0349C3.02215 13.8646 2.95324 16.4291 4.28074 18.763C5.60824 21.097 7.83715 22.3166 9.25418 21.4874L9.8959 21.1124C10.0662 21.011 10.19 20.8468 10.2406 20.6552C10.2913 20.4635 10.2648 20.2596 10.1668 20.0873L6.09387 12.9351C6.04585 12.8501 5.98143 12.7754 5.90436 12.7155C5.82728 12.6556 5.73908 12.6115 5.64485 12.5859C5.55063 12.5603 5.45226 12.5537 5.35546 12.5664C5.25865 12.5791 5.16533 12.6109 5.0809 12.6599V12.6599ZM18.9193 12.6599L19.5611 13.0349C20.9781 13.8641 21.0489 16.4287 19.7195 18.7626C18.3901 21.0965 16.1631 22.3162 14.7461 21.487L14.1043 21.112C13.934 21.0105 13.8102 20.8463 13.7596 20.6547C13.7089 20.463 13.7354 20.2591 13.8334 20.0868L17.9064 12.9351C17.9544 12.8501 18.0188 12.7754 18.0959 12.7155C18.173 12.6556 18.2612 12.6115 18.3554 12.5859C18.4496 12.5603 18.548 12.5537 18.6448 12.5664C18.7416 12.5791 18.8349 12.6109 18.9193 12.6599V12.6599Z" stroke="#666666" stroke-width="1.5" stroke-miterlimit="10"/>
</svg>
