<svg width="24" height="24" viewBox="0 0 24 24" fill="none" xmlns="http://www.w3.org/2000/svg">
<path d="M19.2731 4.56426C17.2701 2.61426 14.6194 1.49582 12 1.49582C9.3806 1.49582 6.72982 2.61426 4.72685 4.56426C2.64607 6.58973 1.49998 9.23019 1.49998 11.9958C1.49998 13.246 1.91013 14.8594 3.04123 17.881C4.17232 20.9025 6.42185 22.1677 7.37201 22.3744C7.64435 22.4339 7.96357 22.4958 8.24998 22.4958C8.74349 22.4962 9.22845 22.3669 9.65623 22.1208L10.3125 21.7458C11.0189 21.3324 11.2251 20.4272 10.8187 19.7138L6.74435 12.5621C6.64727 12.3909 6.51719 12.2408 6.36166 12.1203C6.20613 11.9998 6.02823 11.9113 5.83827 11.86C5.64832 11.8088 5.45008 11.7957 5.25503 11.8216C5.05999 11.8475 4.87202 11.9118 4.70201 12.0108L4.06029 12.3858C3.81365 12.5303 3.59203 12.7138 3.40404 12.9291C3.38071 12.9565 3.34999 12.9766 3.31555 12.987C3.28111 12.9974 3.24441 12.9977 3.20982 12.9878C3.17523 12.9779 3.14422 12.9583 3.12047 12.9312C3.09673 12.9042 3.08126 12.8709 3.07591 12.8354C3.02867 12.5579 3.00328 12.2772 2.99998 11.9958C2.99998 9.63754 3.98435 7.37957 5.7731 5.6391C7.49998 3.9591 9.76826 2.99582 12 2.99582C14.2317 2.99582 16.5 3.9591 18.2269 5.6391C20.0156 7.37957 21 9.63754 21 11.9958C20.9958 12.2773 20.9694 12.558 20.9212 12.8354C20.9159 12.8709 20.9004 12.9042 20.8767 12.9312C20.8529 12.9583 20.8219 12.9779 20.7873 12.9878C20.7527 12.9977 20.716 12.9974 20.6816 12.987C20.6472 12.9766 20.6164 12.9565 20.5931 12.9291C20.4051 12.7138 20.1835 12.5303 19.9369 12.3858L19.2951 12.0108C19.1251 11.9118 18.9372 11.8475 18.7421 11.8216C18.5471 11.7957 18.3488 11.8088 18.1589 11.86C17.9689 11.9113 17.791 11.9998 17.6355 12.1203C17.48 12.2408 17.3499 12.3909 17.2528 12.5621L13.1812 19.7138C12.7748 20.4272 12.9811 21.3324 13.6875 21.7458L14.3437 22.1208C14.7715 22.3669 15.2565 22.4962 15.75 22.4958C16.0364 22.4958 16.3556 22.4339 16.6279 22.3744C17.5781 22.1677 19.8281 20.9021 20.9587 17.881C22.0894 14.8599 22.5 13.246 22.5 11.9958C22.5 9.23019 21.3539 6.58973 19.2731 4.56426Z" fill="#666666"/>
</svg>
