<svg width="24" height="24" viewBox="0 0 24 24" fill="none" xmlns="http://www.w3.org/2000/svg">
<path d="M12 2.24852C6.6239 2.24852 2.24999 6.62243 2.24999 11.9985C2.24999 17.3746 6.6239 21.7485 12 21.7485C17.3761 21.7485 21.75 17.3746 21.75 11.9985C21.75 6.62243 17.3761 2.24852 12 2.24852ZM15.5011 14.0995C15.1026 14.5851 13.6406 15.9032 12 17.0765C10.3594 15.9046 8.89733 14.5851 8.4989 14.0995C7.5614 12.9571 7.11233 11.7838 7.12546 10.5135C7.13999 9.05758 8.30764 7.87305 9.72843 7.87305C10.7597 7.87305 11.4769 8.45477 11.8936 8.93993L12 9.06883L12.1064 8.93993C12.5156 8.44961 13.2384 7.87352 14.2716 7.87352C15.6923 7.87352 16.86 9.05805 16.8745 10.514C16.8876 11.7838 16.4381 12.9571 15.5011 14.0995Z" fill="#666666"/>
</svg>
