<svg width="24" height="24" viewBox="0 0 24 24" fill="none" xmlns="http://www.w3.org/2000/svg">
<path d="M21 11.9967C21 7.02797 16.9687 2.99672 12 2.99672C7.0312 2.99672 2.99995 7.02797 2.99995 11.9967C2.99995 16.9655 7.0312 20.9967 12 20.9967C16.9687 20.9967 21 16.9655 21 11.9967Z" stroke="#666666" stroke-width="1.5" stroke-miterlimit="10"/>
<path d="M12 16.87C11.8495 16.8698 11.7025 16.8244 11.5782 16.7396C9.73597 15.489 8.93816 14.6303 8.49847 14.0954C7.56097 12.9531 7.11191 11.7798 7.12504 10.5095C7.13957 9.05355 8.30722 7.86902 9.728 7.86902C10.6843 7.86902 11.3686 8.3673 11.7952 8.82574C11.8215 8.85354 11.8532 8.87569 11.8883 8.89083C11.9234 8.90596 11.9613 8.91377 11.9996 8.91377C12.0378 8.91377 12.0757 8.90596 12.1108 8.89083C12.146 8.87569 12.1777 8.85354 12.2039 8.82574C12.631 8.3673 13.3149 7.86902 14.2711 7.86902C15.6919 7.86902 16.8596 9.05355 16.8741 10.5095C16.8872 11.7798 16.4377 12.9531 15.5007 14.0954C15.061 14.6317 14.2632 15.489 12.421 16.7396C12.2969 16.8243 12.1502 16.8696 12 16.87Z" fill="#666666"/>
</svg>
