<svg width="24" height="24" viewBox="0 0 24 24" fill="none" xmlns="http://www.w3.org/2000/svg">
<path d="M12 20.9976C11.6989 20.9972 11.4049 20.9063 11.1562 20.7365C7.47234 18.2358 5.87718 16.5211 4.99734 15.449C3.12234 13.1639 2.22468 10.8178 2.24999 8.27716C2.27952 5.36575 4.6153 2.99763 7.45687 2.99763C9.52312 2.99763 10.9542 4.16153 11.7877 5.13091C11.8141 5.16131 11.8467 5.18568 11.8833 5.20239C11.9199 5.21909 11.9597 5.22774 12 5.22774C12.0403 5.22774 12.0801 5.21909 12.1167 5.20239C12.1533 5.18568 12.1859 5.16131 12.2123 5.13091C13.0458 4.1606 14.4769 2.99763 16.5431 2.99763C19.3847 2.99763 21.7205 5.36575 21.75 8.27763C21.7753 10.8187 20.8767 13.1648 19.0027 15.4495C18.1228 16.5215 16.5277 18.2362 12.8437 20.737C12.595 20.9066 12.301 20.9974 12 20.9976Z" fill="#666666"/>
</svg>
