<svg width="24" height="24" viewBox="0 0 24 24" fill="none" xmlns="http://www.w3.org/2000/svg">
<path d="M19.5863 20.9995C19.4874 20.9997 19.3894 20.9803 19.2981 20.9423C19.2068 20.9043 19.1239 20.8486 19.0543 20.7783L1.90552 3.52736C1.76529 3.38626 1.68685 3.19522 1.68747 2.99629C1.68808 2.79735 1.7677 2.60681 1.9088 2.46658C2.0499 2.32634 2.24094 2.24791 2.43987 2.24852C2.63881 2.24914 2.82935 2.32876 2.96958 2.46986L20.1179 19.7199C20.2226 19.8249 20.2939 19.9586 20.3226 20.104C20.3514 20.2495 20.3364 20.4003 20.2795 20.5373C20.2226 20.6742 20.1264 20.7912 20.003 20.8735C19.8796 20.9558 19.7346 20.9997 19.5863 20.9995ZM17.1057 3.74955C14.8515 3.74955 13.3557 5.1347 12.5626 6.14017C11.7713 5.1333 10.2736 3.74955 8.01943 3.74955C7.52723 3.7492 7.03764 3.82106 6.5663 3.96283L7.87505 5.24955C8.91849 5.24955 10.0224 5.67142 10.8722 6.4997C11.2754 6.8924 11.6189 7.34202 11.8918 7.83424C11.9542 7.95855 12.0499 8.06306 12.1683 8.1361C12.2866 8.20913 12.423 8.24781 12.5621 8.24781C12.7012 8.24781 12.8375 8.20913 12.9559 8.1361C13.0743 8.06306 13.17 7.95855 13.2324 7.83424C13.5054 7.34129 13.8492 6.89104 14.2529 6.49783C15.1027 5.67142 16.0622 5.24955 17.1057 5.24955C19.1283 5.24955 20.791 6.95252 20.8121 9.04642C20.8374 11.5631 19.7457 13.7128 18.1224 15.5864L19.1832 16.6538C19.3238 16.4925 19.4504 16.3425 19.5647 16.2038C21.4397 13.9186 22.3374 11.5725 22.3121 9.03189C22.283 6.11767 19.9472 3.74955 17.1057 3.74955ZM12.5626 20.2495C8.45537 17.461 4.26568 13.9495 4.31255 9.04642C4.31554 8.75608 4.35076 8.46696 4.41755 8.18439L3.23443 6.99048C2.96279 7.63619 2.8195 8.3286 2.81255 9.02908C2.78724 11.5706 3.68583 13.9167 5.5599 16.201C6.43974 17.273 8.0349 18.9877 11.7188 21.4885C11.9672 21.6587 12.2614 21.7498 12.5626 21.7498C12.8637 21.7498 13.1579 21.6587 13.4063 21.4885C14.3602 20.8411 15.1735 20.2463 15.871 19.702L14.8088 18.6328C14.0743 19.1996 13.3168 19.7363 12.5626 20.2495Z" fill="#666666"/>
</svg>
