<svg width="24" height="24" viewBox="0 0 24 24" fill="none" xmlns="http://www.w3.org/2000/svg">
<path d="M16.543 2.99763C14.2879 2.99763 12.7883 4.31013 11.9999 5.25747C11.2115 4.31013 9.71193 2.99763 7.45677 2.99763C4.61521 2.99763 2.27943 5.36669 2.2499 8.2781C2.22365 10.8881 3.1738 13.2937 5.15615 15.6375C7.03677 17.8622 9.57411 19.3758 11.578 20.715L11.9999 20.9962L12.4218 20.715C14.4271 19.3758 16.9644 17.8622 18.8436 15.6375C20.8241 13.2937 21.7743 10.8867 21.7499 8.2781C21.7204 5.36669 19.3846 2.99763 16.543 2.99763ZM17.6994 14.6695C16.2097 16.432 14.1988 17.7515 12.4251 18.9159L11.9999 19.1972V7.60216L13.1526 6.21747C13.806 5.43513 14.924 4.49763 16.543 4.49763C18.5657 4.49763 20.2283 6.20013 20.2494 8.2945C20.2644 9.3949 20.0622 10.4874 19.6546 11.5097C19.2313 12.5803 18.5919 13.6148 17.6994 14.6695Z" fill="#666666"/>
</svg>
