<svg width="24" height="24" viewBox="0 0 24 24" fill="none" xmlns="http://www.w3.org/2000/svg">
<path d="M21 11.9967C21 7.02797 16.9688 2.99672 12 2.99672C7.03125 2.99672 3 7.02797 3 11.9967C3 16.9655 7.03125 20.9967 12 20.9967C16.9688 20.9967 21 16.9655 21 11.9967Z" stroke="#666666" stroke-width="1.5" stroke-miterlimit="10"/>
<path d="M15.6187 13.9536C16.4756 12.8572 16.8871 11.7303 16.8745 10.5144C16.8599 9.05844 15.6923 7.87391 14.2715 7.87391C13.3153 7.87391 12.6309 8.37266 12.2039 8.8311C12.1778 8.85918 12.1463 8.88159 12.1112 8.89692C12.0761 8.91224 12.0382 8.92015 11.9999 8.92015C11.9617 8.92015 11.9238 8.91224 11.8887 8.89692C11.8536 8.88159 11.8221 8.85918 11.796 8.8311C11.369 8.37266 10.6846 7.87391 9.72838 7.87391L9.6562 7.87438C9.61931 7.87499 9.58343 7.88647 9.55304 7.90737C9.52265 7.92828 9.4991 7.95768 9.48534 7.99191C9.47158 8.02613 9.46822 8.06366 9.47568 8.09978C9.48314 8.13591 9.50109 8.16903 9.52729 8.195L15.3398 13.9705C15.3582 13.9896 15.3806 14.0045 15.4053 14.0141C15.4301 14.0238 15.4566 14.0279 15.4831 14.0263C15.5096 14.0247 15.5355 14.0174 15.5589 14.0048C15.5823 13.9923 15.6027 13.9748 15.6187 13.9536ZM7.44557 10.3588C7.41964 10.3329 7.38672 10.3153 7.35088 10.308C7.31503 10.3006 7.27783 10.3039 7.24385 10.3175C7.20986 10.331 7.18059 10.3542 7.15963 10.3842C7.13867 10.4142 7.12694 10.4497 7.12588 10.4863V10.5163C7.11276 11.7866 7.56229 12.9598 8.49932 14.1022C8.93901 14.6384 9.73682 15.4958 11.579 16.7464C11.7033 16.8315 11.8503 16.877 12.0009 16.877C12.1515 16.877 12.2985 16.8315 12.4228 16.7464C12.6642 16.5828 12.8868 16.4258 13.0935 16.2777C13.1155 16.2617 13.1336 16.2411 13.1468 16.2174C13.16 16.1937 13.1679 16.1674 13.17 16.1404C13.172 16.1133 13.1682 16.0861 13.1587 16.0607C13.1492 16.0353 13.1344 16.0122 13.1151 15.9931L7.44557 10.3588ZM15.7499 17.2494C15.6514 17.2495 15.5539 17.2302 15.4629 17.1925C15.3719 17.1547 15.2893 17.0994 15.2198 17.0295L6.96979 8.77953C6.83507 8.63774 6.76108 8.44892 6.76359 8.25335C6.76609 8.05778 6.84489 7.87093 6.98319 7.73262C7.12149 7.59432 7.30835 7.51552 7.50392 7.51302C7.69949 7.51051 7.88831 7.58451 8.0301 7.71922L16.2801 15.9692C16.3849 16.0741 16.4563 16.2077 16.4852 16.3532C16.5141 16.4986 16.4993 16.6493 16.4425 16.7863C16.3858 16.9233 16.2897 17.0405 16.1664 17.1229C16.0432 17.2053 15.8982 17.2493 15.7499 17.2494Z" fill="#666666"/>
</svg>
