<svg width="24" height="24" viewBox="0 0 24 24" fill="none" xmlns="http://www.w3.org/2000/svg">
<path d="M12.0001 2.24852C6.62396 2.24852 2.25005 6.62243 2.25005 11.9985C2.25005 17.3746 6.62396 21.7485 12.0001 21.7485C17.3761 21.7485 21.7501 17.3746 21.7501 11.9985C21.7501 6.62243 17.3761 2.24852 12.0001 2.24852ZM15.5011 14.0995C15.0615 14.6357 14.2636 15.4931 12.4215 16.7437C12.2972 16.8287 12.1502 16.8743 11.9996 16.8743C11.849 16.8743 11.702 16.8287 11.5777 16.7437C9.73552 15.4931 8.93771 14.6343 8.49802 14.0995C7.56052 12.9571 7.11146 11.7838 7.12458 10.5135C7.13911 9.05758 8.30677 7.87305 9.72755 7.87305C10.6838 7.87305 11.3682 8.37133 11.7947 8.82977C11.821 8.85757 11.8527 8.87972 11.8878 8.89486C11.923 8.91 11.9609 8.9178 11.9991 8.9178C12.0374 8.9178 12.0752 8.91 12.1104 8.89486C12.1455 8.87972 12.1772 8.85757 12.2035 8.82977C12.6305 8.37133 13.3144 7.87305 14.2707 7.87305C15.6915 7.87305 16.8591 9.05758 16.8736 10.5135C16.8877 11.7838 16.4382 12.9571 15.5011 14.0995Z" fill="#666666"/>
</svg>
