<svg width="24" height="24" viewBox="0 0 24 24" fill="none" xmlns="http://www.w3.org/2000/svg">
<path d="M12 2.24852C6.62386 2.24852 2.24995 6.62243 2.24995 11.9985C2.24995 17.3746 6.62386 21.7485 12 21.7485C17.376 21.7485 21.75 17.3746 21.75 11.9985C21.75 6.62243 17.376 2.24852 12 2.24852ZM13.0921 16.2731C12.8854 16.4231 12.6628 16.5801 12.4214 16.7418C12.2971 16.8269 12.1501 16.8724 11.9995 16.8724C11.8489 16.8724 11.7019 16.8269 11.5776 16.7418C9.73542 15.4912 8.93761 14.6324 8.49792 14.0976C7.56042 12.9552 7.11136 11.782 7.12449 10.5116V10.4816C7.12554 10.4451 7.13727 10.4096 7.15823 10.3796C7.17919 10.3496 7.20847 10.3264 7.24245 10.3129C7.27643 10.2993 7.31364 10.296 7.34948 10.3033C7.38533 10.3107 7.41824 10.3283 7.44417 10.3541L13.1137 15.9885C13.133 16.0076 13.1478 16.0307 13.1573 16.0561C13.1668 16.0815 13.1706 16.1087 13.1686 16.1358C13.1665 16.1628 13.1586 16.1891 13.1454 16.2128C13.1322 16.2365 13.1141 16.2571 13.0921 16.2731ZM16.2796 17.0287C16.139 17.1692 15.9483 17.2482 15.7495 17.2482C15.5507 17.2482 15.36 17.1692 15.2193 17.0287L6.96933 8.77868C6.83461 8.63688 6.76062 8.44807 6.76312 8.2525C6.76563 8.05693 6.84443 7.87007 6.98273 7.73177C7.12103 7.59347 7.30789 7.51466 7.50346 7.51216C7.69903 7.50966 7.88785 7.58365 8.02964 7.71836L16.2796 15.9684C16.4203 16.1089 16.4993 16.2996 16.4994 16.4984C16.4995 16.6973 16.4206 16.888 16.2801 17.0287H16.2796ZM15.6187 13.9527C15.6028 13.9744 15.5823 13.9922 15.5587 14.0051C15.5351 14.0179 15.5089 14.0254 15.4821 14.0271C15.4553 14.0287 15.4285 14.0245 15.4035 14.0146C15.3785 14.0048 15.3559 13.9896 15.3375 13.9701L9.52495 8.19461C9.49846 8.16853 9.48033 8.13515 9.47285 8.09873C9.46537 8.06231 9.46889 8.02449 9.48296 7.99008C9.49703 7.95566 9.52101 7.9262 9.55186 7.90545C9.5827 7.8847 9.61903 7.87358 9.6562 7.87352H9.72886C10.6851 7.87352 11.3695 8.37227 11.7965 8.83071C11.8225 8.85879 11.8541 8.8812 11.8892 8.89653C11.9243 8.91185 11.9621 8.91976 12.0004 8.91976C12.0387 8.91976 12.0766 8.91185 12.1117 8.89653C12.1468 8.8812 12.1783 8.85879 12.2043 8.83071C12.6314 8.37227 13.3157 7.87352 14.272 7.87352C15.6928 7.87352 16.8604 9.05805 16.875 10.514C16.8871 11.7295 16.4756 12.8563 15.6187 13.9527Z" fill="#666666"/>
</svg>
