<svg width="24" height="24" viewBox="0 0 24 24" fill="none" xmlns="http://www.w3.org/2000/svg">
<path d="M1.49991 3.02141L19.7563 21.2999L20.8269 20.2466L2.571 1.96907L1.49991 3.02141ZM2.93756 9.04298C2.91131 11.6506 3.86428 14.0558 5.85132 16.3967C7.73804 18.6195 10.2838 20.1313 12.2952 21.4691L12.7171 21.7503L13.139 21.4691C14.0057 20.8925 14.9718 20.2831 15.9416 19.5992L3.36272 6.99782C3.08857 7.64516 2.94412 8.34001 2.93756 9.04298ZM19.5857 16.3967C21.5727 14.0558 22.5257 11.6506 22.4994 9.04298C22.4699 6.13673 20.1271 3.76766 17.2762 3.76766C15.014 3.76766 13.5098 5.08016 12.7185 6.02563C11.9273 5.07876 10.4216 3.76766 8.16085 3.76766C7.66442 3.76793 7.17072 3.84106 6.69553 3.9847L19.3518 16.6635C19.4319 16.5749 19.5098 16.4863 19.5857 16.3967Z" fill="#666666"/>
</svg>
