<svg width="24" height="24" viewBox="0 0 24 24" fill="none" xmlns="http://www.w3.org/2000/svg">
<path d="M16.5431 2.99763C14.2889 2.99763 12.7931 4.38232 12 5.38825C11.2087 4.38091 9.71106 2.99763 7.45684 2.99763C4.61528 2.99763 2.27949 5.36669 2.24996 8.2781C2.22465 10.8192 3.12324 13.1658 4.99731 15.45C5.87715 16.5225 7.47231 18.2372 11.1562 20.7379C11.4046 20.9082 11.6988 20.9993 12 20.9993C12.3011 20.9993 12.5953 20.9082 12.8437 20.7379C16.5276 18.2372 18.1228 16.5225 19.0026 15.45C20.8776 13.1653 21.7753 10.8187 21.75 8.2781C21.7204 5.36669 19.3847 2.99763 16.5431 2.99763ZM12 19.4976V9.72794C12 8.80778 12.2451 7.91107 12.6661 7.09263C12.6671 7.09004 12.6684 7.08753 12.6698 7.08513C12.9428 6.59218 13.2866 6.14193 13.6903 5.74872C14.5401 4.9195 15.4997 4.49763 16.5431 4.49763C18.5657 4.49763 20.2284 6.20013 20.2495 8.2945C20.2968 13.1981 16.1076 16.709 12 19.4976Z" fill="#666666"/>
</svg>
