<svg width="24" height="24" viewBox="0 0 24 24" fill="none" xmlns="http://www.w3.org/2000/svg">
<path d="M12 2.24852C6.62394 2.24852 2.25003 6.62243 2.25003 11.9985C2.25003 17.3746 6.62394 21.7485 12 21.7485C17.3761 21.7485 21.75 17.3746 21.75 11.9985C21.75 6.62243 17.3761 2.24852 12 2.24852ZM14.9874 16.7966L6.40269 8.25133L7.46863 7.19618L16.0557 15.7443L14.9874 16.7966ZM12.0103 17.0245C10.3528 15.8526 8.90207 14.5907 8.49894 14.0995C7.56144 12.9571 7.11238 11.7838 7.1255 10.5135C7.12707 10.3672 7.1404 10.2213 7.16535 10.0771L13.2689 16.1427C13.1082 16.2641 12.5091 16.6795 12.0103 17.0245ZM15.5011 14.0995L15.4866 14.1173L9.24988 7.9204C9.40755 7.88956 9.56781 7.87386 9.72847 7.87352C10.1175 7.87218 10.5025 7.95247 10.8586 8.10919C11.2146 8.26591 11.5339 8.49558 11.7957 8.78336L12 8.99852L12.2044 8.7829C12.4662 8.4952 12.7855 8.26561 13.1416 8.10897C13.4976 7.95233 13.8826 7.87212 14.2716 7.87352C15.6924 7.87352 16.86 9.05805 16.8746 10.514C16.8877 11.7838 16.4382 12.9571 15.5011 14.0995Z" fill="#666666"/>
</svg>
