<svg width="24" height="24" viewBox="0 0 24 24" fill="none" xmlns="http://www.w3.org/2000/svg">
<path d="M16.5432 2.99763C14.289 2.99763 12.7932 4.38232 12.0001 5.38825C11.2088 4.38091 9.71118 2.99763 7.45696 2.99763C4.6154 2.99763 2.27962 5.36669 2.25009 8.2781C2.22477 10.8192 3.12337 13.1658 4.99743 15.45C5.87727 16.5225 7.47243 18.2372 11.1563 20.7379C11.4048 20.9082 11.6989 20.9993 12.0001 20.9993C12.3013 20.9993 12.5954 20.9082 12.8438 20.7379C16.5277 18.2372 18.1229 16.5225 19.0027 15.45C20.8777 13.1653 21.7754 10.8187 21.7501 8.2781C21.7206 5.36669 19.3848 2.99763 16.5432 2.99763ZM12.0001 19.4976V9.72794C12.0001 8.80778 12.2452 7.91107 12.6662 7.09263C12.6672 7.09004 12.6685 7.08753 12.6699 7.08513C12.943 6.59218 13.2868 6.14193 13.6904 5.74872C14.5402 4.9195 15.4998 4.49763 16.5432 4.49763C18.5659 4.49763 20.2285 6.20013 20.2496 8.2945C20.297 13.1981 16.1077 16.709 12.0001 19.4976Z" fill="#666666"/>
</svg>
