<svg width="24" height="24" viewBox="0 0 24 24" fill="none" xmlns="http://www.w3.org/2000/svg">
<path d="M19.5862 20.9995C19.4873 20.9995 19.3894 20.98 19.2981 20.942C19.2068 20.9041 19.1239 20.8484 19.0542 20.7783L1.90544 3.52827C1.76521 3.38716 1.68677 3.19613 1.68739 2.9972C1.688 2.79826 1.76762 2.60772 1.90872 2.46749C2.04983 2.32725 2.24086 2.24882 2.43979 2.24943C2.63873 2.25005 2.82927 2.32966 2.96951 2.47077L20.1178 19.7208C20.2222 19.8258 20.2932 19.9594 20.3218 20.1048C20.3504 20.2501 20.3353 20.4006 20.2784 20.5374C20.2216 20.6742 20.1255 20.791 20.0023 20.8733C19.8791 20.9555 19.7343 20.9995 19.5862 20.9995ZM17.1056 3.74952C15.0389 3.74952 13.6083 4.91296 12.7748 5.88233C12.7484 5.91273 12.7158 5.9371 12.6792 5.95381C12.6425 5.97051 12.6027 5.97916 12.5625 5.97916C12.5222 5.97916 12.4824 5.97051 12.4458 5.95381C12.4092 5.9371 12.3765 5.91273 12.3501 5.88233C11.5167 4.91296 10.0856 3.74952 8.01935 3.74952C7.52719 3.74925 7.03764 3.82095 6.56623 3.96233L19.1817 16.6514C19.3223 16.4901 19.4489 16.3401 19.5633 16.2014C21.4383 13.9162 22.3359 11.5706 22.3106 9.02952C22.2829 6.11811 19.9472 3.74952 17.1056 3.74952ZM3.23435 6.99092C2.96267 7.63661 2.81938 8.32904 2.81247 9.02952C2.78716 11.5706 3.68576 13.9162 5.55982 16.2014C6.43966 17.2734 8.03482 18.9881 11.7187 21.4889C11.9673 21.6589 12.2614 21.7499 12.5625 21.7499C12.8636 21.7499 13.1577 21.6589 13.4062 21.4889C14.3601 20.8411 15.1734 20.2467 15.8709 19.702L3.23435 6.99092Z" fill="#666666"/>
</svg>
