<svg width="24" height="24" viewBox="0 0 24 24" fill="none" xmlns="http://www.w3.org/2000/svg">
<path d="M12 3.74673C10.3683 3.74673 8.77326 4.23059 7.41655 5.13711C6.05984 6.04363 5.00242 7.33211 4.378 8.8396C3.75357 10.3471 3.5902 12.0059 3.90853 13.6062C4.22685 15.2066 5.01259 16.6766 6.16637 17.8304C7.32016 18.9842 8.79017 19.7699 10.3905 20.0882C11.9909 20.4065 13.6497 20.2432 15.1571 19.6187C16.6646 18.9943 17.9531 17.9369 18.8596 16.5802C19.7662 15.2235 20.25 13.6284 20.25 11.9967C20.25 9.8087 19.3808 7.71028 17.8336 6.1631C16.2865 4.61593 14.188 3.74673 12 3.74673Z" stroke="#666666" stroke-width="1.5" stroke-miterlimit="10"/>
<path d="M9.375 9.47853C9.375 9.47853 9.41438 8.65822 10.2923 7.95182C10.8131 7.53228 11.4375 7.41088 12 7.40244C12.5123 7.39588 12.9698 7.48072 13.2436 7.61103C13.7123 7.83416 14.625 8.37885 14.625 9.53713C14.625 10.7559 13.8281 11.3095 12.9202 11.9184C12.0122 12.5273 11.7656 13.1882 11.7656 13.8712" stroke="#666666" stroke-width="1.3125" stroke-miterlimit="10" stroke-linecap="round"/>
<path d="M11.7188 17.2458C12.2365 17.2458 12.6563 16.8261 12.6563 16.3083C12.6563 15.7906 12.2365 15.3708 11.7188 15.3708C11.201 15.3708 10.7812 15.7906 10.7812 16.3083C10.7812 16.8261 11.201 17.2458 11.7188 17.2458Z" fill="#666666"/>
</svg>
