<svg width="24" height="24" viewBox="0 0 24 24" fill="none" xmlns="http://www.w3.org/2000/svg">
<path d="M7.50005 7.68659C7.50005 7.68659 7.56755 6.13971 9.07223 4.8994C9.96567 4.16299 11.0386 3.94971 12 3.93659C12.878 3.9258 13.6627 4.0744 14.1319 4.30315C14.934 4.69596 16.5 5.65221 16.5 7.68659C16.5 9.82737 15.1322 10.7977 13.5774 11.8669C12.0225 12.9361 11.625 13.9847 11.625 15.1866" stroke="#666666" stroke-width="1.875" stroke-miterlimit="10" stroke-linecap="round"/>
<path d="M11.6249 20.2458C12.4534 20.2458 13.1249 19.5743 13.1249 18.7458C13.1249 17.9174 12.4534 17.2458 11.6249 17.2458C10.7965 17.2458 10.1249 17.9174 10.1249 18.7458C10.1249 19.5743 10.7965 20.2458 11.6249 20.2458Z" fill="#666666"/>
</svg>
