<svg width="24" height="24" viewBox="0 0 24 24" fill="none" xmlns="http://www.w3.org/2000/svg">
<path d="M12 1.49673C6.20109 1.49673 1.49999 6.19782 1.49999 11.9967C1.49999 17.7956 6.20109 22.4967 12 22.4967C17.7989 22.4967 22.5 17.7956 22.5 11.9967C22.5 6.19782 17.7989 1.49673 12 1.49673ZM8.99999 11.9967C8.99999 11.4034 9.17594 10.8234 9.50558 10.33C9.83523 9.83667 10.3038 9.45215 10.8519 9.22509C11.4001 8.99803 12.0033 8.93862 12.5853 9.05437C13.1672 9.17013 13.7018 9.45585 14.1213 9.87541C14.5409 10.295 14.8266 10.8295 14.9423 11.4115C15.0581 11.9934 14.9987 12.5966 14.7716 13.1448C14.5446 13.693 14.1601 14.1615 13.6667 14.4911C13.1734 14.8208 12.5933 14.9967 12 14.9967C11.2043 14.9967 10.4413 14.6807 9.87867 14.118C9.31606 13.5554 8.99999 12.7924 8.99999 11.9967ZM20.1206 9.07688L16.0739 9.32485C15.7071 8.7682 15.2309 8.29198 14.6742 7.92517L14.9198 3.87845C16.1156 4.31119 17.2015 5.00161 18.1006 5.90078C18.9998 6.79994 19.6902 7.88586 20.123 9.08157L20.1206 9.07688ZM5.90109 5.89782C6.7983 4.9972 7.88404 4.30672 9.08015 3.8761L9.32812 7.92282C8.77039 8.29007 8.29334 8.76712 7.92609 9.32485L3.87937 9.07923C4.30968 7.88228 5.00017 6.79571 5.90109 5.89782ZM3.87937 14.9166L7.92609 14.6709C8.29359 15.2278 8.77062 15.7041 9.32812 16.0706L9.08249 20.1174C7.88702 19.6849 6.80125 18.9948 5.9021 18.0961C5.00295 17.1973 4.3124 16.1119 3.87937 14.9166ZM18.0989 18.0956C17.2017 18.9963 16.1159 19.6867 14.9198 20.1174L14.6742 16.0706C15.2309 15.7038 15.7071 15.2276 16.0739 14.6709L20.1206 14.9166C19.69 16.1127 18.9995 17.1984 18.0989 18.0956Z" fill="#666666"/>
</svg>
