<svg width="24" height="24" viewBox="0 0 24 24" fill="none" xmlns="http://www.w3.org/2000/svg">
<path d="M12 2.99854C7.0312 2.99854 2.99995 7.02979 2.99995 11.9985C2.99995 16.9673 7.0312 20.9985 12 20.9985C16.9687 20.9985 21 16.9673 21 11.9985C21 7.02979 16.9687 2.99854 12 2.99854ZM11.7187 17.2485C11.5333 17.2485 11.352 17.1936 11.1979 17.0905C11.0437 16.9875 10.9235 16.8411 10.8526 16.6698C10.7816 16.4985 10.763 16.31 10.7992 16.1281C10.8354 15.9463 10.9247 15.7792 11.0558 15.6481C11.1869 15.517 11.354 15.4277 11.5358 15.3916C11.7177 15.3554 11.9062 15.3739 12.0775 15.4449C12.2488 15.5159 12.3952 15.636 12.4982 15.7902C12.6012 15.9444 12.6562 16.1256 12.6562 16.311C12.6562 16.5597 12.5574 16.7981 12.3816 16.9739C12.2058 17.1498 11.9673 17.2485 11.7187 17.2485ZM13.2862 12.4673C12.5264 12.9773 12.4218 13.4446 12.4218 13.8735C12.4218 14.0476 12.3527 14.2145 12.2296 14.3376C12.1065 14.4606 11.9396 14.5298 11.7656 14.5298C11.5915 14.5298 11.4246 14.4606 11.3015 14.3376C11.1785 14.2145 11.1093 14.0476 11.1093 13.8735C11.1093 12.8465 11.5818 12.0299 12.554 11.377C13.4578 10.7704 13.9687 10.386 13.9687 9.54088C13.9687 8.96619 13.6406 8.52979 12.9614 8.20682C12.8015 8.13088 12.4457 8.05682 12.0079 8.06197C11.4585 8.069 11.032 8.20025 10.7034 8.46463C10.0837 8.96338 10.0312 9.50619 10.0312 9.51416C10.027 9.60034 10.006 9.68486 9.96914 9.76289C9.93232 9.84092 9.8805 9.91093 9.81662 9.96893C9.75274 10.0269 9.67807 10.0718 9.59686 10.1009C9.51565 10.1301 9.42949 10.1429 9.34331 10.1388C9.25713 10.1346 9.17262 10.1135 9.09459 10.0767C9.01656 10.0399 8.94654 9.98806 8.88854 9.92419C8.83054 9.86031 8.78569 9.78563 8.75655 9.70442C8.72741 9.62321 8.71455 9.53706 8.7187 9.45088C8.72386 9.33697 8.80308 8.31088 9.8798 7.44463C10.4381 6.99557 11.1482 6.76213 11.9892 6.75182C12.5845 6.74479 13.1437 6.84557 13.5229 7.02463C14.6578 7.56135 15.2812 8.45619 15.2812 9.54088C15.2812 11.1267 14.2214 11.8387 13.2862 12.4673Z" fill="#666666"/>
</svg>
