<svg width="24" height="24" viewBox="0 0 24 24" fill="none" xmlns="http://www.w3.org/2000/svg">
<path d="M12 2.99854C7.03129 2.99854 3.00004 7.02979 3.00004 11.9985C3.00004 16.9673 7.03129 20.9985 12 20.9985C16.9688 20.9985 21 16.9673 21 11.9985C21 7.02979 16.9688 2.99854 12 2.99854ZM12.4894 17.1548H11.0733C11.0415 17.1547 11.0109 17.1419 10.9884 17.1193C10.9659 17.0968 10.9533 17.0662 10.9533 17.0343V15.6187C10.9533 15.5868 10.9659 15.5563 10.9884 15.5337C11.0109 15.5111 11.0415 15.4983 11.0733 15.4982H12.4894C12.5213 15.4983 12.5518 15.5111 12.5743 15.5337C12.5968 15.5563 12.6094 15.5868 12.6094 15.6187V17.0343C12.6094 17.0662 12.5968 17.0968 12.5743 17.1193C12.5518 17.1419 12.5213 17.1547 12.4894 17.1548ZM13.2863 12.5142C12.5264 13.0242 12.4219 13.4915 12.4219 13.9204V14.436C12.4219 14.4733 12.4071 14.5091 12.3807 14.5355C12.3544 14.5618 12.3186 14.5767 12.2813 14.5767H11.25C11.2127 14.5767 11.177 14.5618 11.1506 14.5355C11.1242 14.5091 11.1094 14.4733 11.1094 14.436V13.9204C11.1094 12.8934 11.5819 12.0768 12.5541 11.4238C13.4579 10.8173 13.9688 10.4329 13.9688 9.58775C13.9688 9.01307 13.6407 8.57666 12.9614 8.25369C12.8016 8.17775 12.4458 8.10369 12.008 8.10885C11.4586 8.11588 11.0321 8.24713 10.7035 8.5115C10.0838 9.01025 10.0313 9.55354 10.0313 9.56104C10.0056 9.72038 9.99239 9.8815 9.99191 10.0429C9.99191 10.0802 9.9771 10.116 9.95073 10.1423C9.92435 10.1687 9.88859 10.1835 9.85129 10.1835H8.8552C8.82029 10.1837 8.78655 10.1709 8.76056 10.1476C8.73457 10.1243 8.71818 10.0922 8.71457 10.0574C8.69769 9.87025 8.69911 9.68186 8.71879 9.49494C8.7291 9.38104 8.80316 8.35494 9.87988 7.48869C10.4382 7.03963 11.1483 6.80619 11.9893 6.79588C12.5846 6.78885 13.1438 6.88963 13.523 7.06869C14.6579 7.60822 15.2813 8.50307 15.2813 9.58775C15.2813 11.1735 14.2214 11.8856 13.2863 12.5142Z" fill="#666666"/>
</svg>
