<svg width="24" height="24" viewBox="0 0 24 24" fill="none" xmlns="http://www.w3.org/2000/svg">
<path d="M19.4245 4.57269C18.4513 3.58979 17.2934 2.80889 16.0174 2.27484C14.7414 1.74078 13.3725 1.46411 11.9893 1.4607C10.6061 1.4573 9.23579 1.72723 7.9572 2.255C6.67861 2.78276 5.5169 3.55796 4.53881 4.53605C3.56072 5.51414 2.78553 6.67585 2.25776 7.95444C1.72999 9.23302 1.46006 10.6033 1.46346 11.9865C1.46687 13.3697 1.74354 14.7387 2.2776 16.0146C2.81165 17.2906 3.59256 18.4485 4.57545 19.4218C5.54871 20.4046 6.70659 21.1856 7.98257 21.7196C9.25854 22.2537 10.6275 22.5303 12.0107 22.5337C13.3939 22.5371 14.7642 22.2672 16.0428 21.7394C17.3214 21.2117 18.4831 20.4365 19.4612 19.4584C20.4392 18.4803 21.2144 17.3186 21.7422 16.04C22.27 14.7614 22.5399 13.3912 22.5365 12.0079C22.5331 10.6247 22.2564 9.25578 21.7224 7.9798C21.1883 6.70383 20.4074 5.54595 19.4245 4.57269ZM9.00608 12.1932C8.96629 11.5844 9.11303 10.978 9.42672 10.4548C9.74041 9.93165 10.2062 9.51652 10.7618 9.2648C11.3175 9.01309 11.9367 8.93677 12.5369 9.046C13.137 9.15523 13.6897 9.44484 14.121 9.87619C14.5524 10.3075 14.842 10.8602 14.9512 11.4603C15.0604 12.0605 14.9841 12.6797 14.7324 13.2354C14.4807 13.7911 14.0656 14.2568 13.5424 14.5705C13.0192 14.8842 12.4128 15.0309 11.804 14.9911C11.0778 14.943 10.3938 14.6327 9.87914 14.1181C9.36448 13.6034 9.05424 12.9194 9.00608 12.1932ZM20.2561 9.06941L15.7387 9.34316C15.7078 9.34479 15.677 9.33885 15.6489 9.32586C15.6208 9.31287 15.5963 9.29323 15.5775 9.26863C15.3342 8.9498 15.0493 8.66493 14.7305 8.4216C14.7059 8.40281 14.6862 8.3783 14.6732 8.3502C14.6602 8.3221 14.6543 8.29126 14.6559 8.26034L14.9297 3.743C14.9313 3.71356 14.9399 3.68493 14.9548 3.65943C14.9696 3.63393 14.9902 3.61229 15.015 3.59626C15.0397 3.58023 15.0679 3.57027 15.0972 3.56717C15.1265 3.56408 15.1562 3.56795 15.1837 3.57847C16.3763 4.03276 17.4593 4.73422 18.3616 5.63678C19.2638 6.53935 19.9649 7.62259 20.4187 8.81534C20.4293 8.8429 20.4331 8.87254 20.43 8.90187C20.4269 8.93119 20.417 8.95938 20.4009 8.98413C20.3849 9.00888 20.3633 9.0295 20.3378 9.04432C20.3123 9.05914 20.2836 9.06773 20.2542 9.06941H20.2561ZM9.07217 3.743L9.34592 8.26034C9.34755 8.29126 9.34161 8.3221 9.32862 8.3502C9.31563 8.3783 9.29599 8.40281 9.27139 8.4216C8.95256 8.66493 8.66769 8.9498 8.42436 9.26863C8.40557 9.29323 8.38106 9.31287 8.35296 9.32586C8.32486 9.33885 8.29402 9.34479 8.26311 9.34316L3.74576 9.06941C3.71632 9.06773 3.68769 9.05914 3.66219 9.04432C3.63669 9.0295 3.61505 9.00888 3.59902 8.98413C3.58299 8.95938 3.57303 8.93119 3.56994 8.90187C3.56684 8.87254 3.57071 8.8429 3.58123 8.81534C4.0353 7.6224 4.73666 6.53905 5.63924 5.63647C6.54181 4.7339 7.62516 4.03253 8.81811 3.57847C8.84566 3.56795 8.8753 3.56408 8.90463 3.56717C8.93395 3.57027 8.96214 3.58023 8.98689 3.59626C9.01164 3.61229 9.03227 3.63393 9.04708 3.65943C9.0619 3.68493 9.0705 3.71356 9.07217 3.743ZM3.74576 14.925L8.26311 14.6513C8.29402 14.6497 8.32486 14.6556 8.35296 14.6686C8.38106 14.6816 8.40557 14.7012 8.42436 14.7258C8.66769 15.0446 8.95256 15.3295 9.27139 15.5728C9.29599 15.5916 9.31563 15.6161 9.32862 15.6442C9.34161 15.6723 9.34755 15.7032 9.34592 15.7341L9.07217 20.2514C9.0705 20.2809 9.0619 20.3095 9.04708 20.335C9.03227 20.3605 9.01164 20.3822 8.98689 20.3982C8.96214 20.4142 8.93395 20.4242 8.90463 20.4273C8.8753 20.4304 8.84566 20.4265 8.81811 20.416C7.62516 19.9619 6.54181 19.2605 5.63924 18.358C4.73666 17.4554 4.0353 16.372 3.58123 15.1791C3.57071 15.1515 3.56684 15.1219 3.56994 15.0926C3.57303 15.0633 3.58299 15.0351 3.59902 15.0103C3.61505 14.9856 3.63669 14.9649 3.66219 14.9501C3.68769 14.9353 3.71632 14.9267 3.74576 14.925ZM14.9278 20.2514L14.654 15.7341C14.6524 15.7032 14.6584 15.6723 14.6713 15.6442C14.6843 15.6161 14.704 15.5916 14.7286 15.5728C15.0474 15.3295 15.3323 15.0446 15.5756 14.7258C15.5944 14.7012 15.6189 14.6816 15.647 14.6686C15.6751 14.6556 15.7059 14.6497 15.7369 14.6513L20.2542 14.925C20.2836 14.9267 20.3123 14.9353 20.3378 14.9501C20.3633 14.9649 20.3849 14.9856 20.4009 15.0103C20.417 15.0351 20.4269 15.0633 20.43 15.0926C20.4331 15.1219 20.4293 15.1515 20.4187 15.1791C19.9647 16.372 19.2633 17.4554 18.3607 18.358C17.4582 19.2605 16.3748 19.9619 15.1819 20.416C15.1543 20.4265 15.1247 20.4304 15.0953 20.4273C15.066 20.4242 15.0378 20.4142 15.0131 20.3982C14.9883 20.3822 14.9677 20.3605 14.9529 20.335C14.9381 20.3095 14.9295 20.2809 14.9278 20.2514Z" fill="#666666"/>
</svg>
