<svg width="24" height="24" viewBox="0 0 24 24" fill="none" xmlns="http://www.w3.org/2000/svg">
<path d="M7.50011 7.68659C7.50011 7.21784 7.56761 6.13971 9.0723 4.8994C9.96573 4.16299 11.0387 3.94971 12.0001 3.93659C12.8781 3.9258 13.6628 4.0744 14.132 4.30315C14.934 4.69596 16.5001 5.65221 16.5001 7.68659C16.5001 9.82737 15.1323 10.7977 13.5775 11.8669C12.0226 12.9361 11.6251 13.6097 11.6251 14.8116" stroke="#666666" stroke-width="1.875" stroke-miterlimit="10" stroke-linecap="square"/>
<path d="M12.7734 17.2458H10.4765C10.3859 17.2458 10.3125 17.3193 10.3125 17.4099V19.7068C10.3125 19.7974 10.3859 19.8708 10.4765 19.8708H12.7734C12.864 19.8708 12.9375 19.7974 12.9375 19.7068V17.4099C12.9375 17.3193 12.864 17.2458 12.7734 17.2458Z" fill="#666666"/>
</svg>
