<svg width="24" height="24" viewBox="0 0 24 24" fill="none" xmlns="http://www.w3.org/2000/svg">
<path d="M12 21.7494C17.3847 21.7494 21.75 17.3842 21.75 11.9994C21.75 6.61465 17.3847 2.24943 12 2.24943C6.61518 2.24943 2.24995 6.61465 2.24995 11.9994C2.24995 17.3842 6.61518 21.7494 12 21.7494Z" stroke="#666666" stroke-width="1.5" stroke-linecap="round" stroke-linejoin="round"/>
<path d="M12 15.7485C14.0711 15.7485 15.75 14.0696 15.75 11.9985C15.75 9.92747 14.0711 8.24854 12 8.24854C9.92897 8.24854 8.25004 9.92747 8.25004 11.9985C8.25004 14.0696 9.92897 15.7485 12 15.7485Z" stroke="#666666" stroke-width="1.5" stroke-linecap="round" stroke-linejoin="round"/>
<path d="M8.71874 13.8726L2.53123 14.2476M9.74999 2.52888L10.125 8.71638L9.74999 2.52888ZM13.875 8.71638L14.25 2.52888L13.875 8.71638ZM9.74999 21.4664L10.125 15.2789L9.74999 21.4664ZM13.875 15.2789L14.25 21.4664L13.875 15.2789ZM21.4687 9.74763L15.2812 10.1226L21.4687 9.74763ZM15.2812 13.8726L21.4687 14.2476L15.2812 13.8726ZM2.53123 9.74763L8.71874 10.1226L2.53123 9.74763Z" stroke="#666666" stroke-width="1.5" stroke-linecap="round" stroke-linejoin="round"/>
</svg>
