<svg width="24" height="24" viewBox="0 0 24 24" fill="none" xmlns="http://www.w3.org/2000/svg">
<path d="M3.75009 9.93513V20.9976C3.75009 21.1965 3.82911 21.3873 3.96976 21.528C4.11041 21.6686 4.30118 21.7476 4.50009 21.7476H9.00009V15.3726C9.00009 15.0743 9.11862 14.7881 9.3296 14.5771C9.54058 14.3662 9.82672 14.2476 10.1251 14.2476H13.8751C14.1735 14.2476 14.4596 14.3662 14.6706 14.5771C14.8816 14.7881 15.0001 15.0743 15.0001 15.3726V21.7476H19.5001C19.699 21.7476 19.8898 21.6686 20.0304 21.528C20.1711 21.3873 20.2501 21.1965 20.2501 20.9976V9.93513" stroke="#666666" stroke-width="1.5" stroke-linecap="round" stroke-linejoin="round"/>
<path d="M22.5 11.9995L12.5105 2.43702C12.2761 2.18952 11.7281 2.1867 11.4895 2.43702L1.50001 11.9995M18.75 8.39014V2.99952H16.5V6.23389" stroke="#666666" stroke-width="1.5" stroke-linecap="round" stroke-linejoin="round"/>
</svg>
