<svg width="24" height="24" viewBox="0 0 24 24" fill="none" xmlns="http://www.w3.org/2000/svg">
<g clip-path="url(#clip0_32_1934)">
<path d="M12.2606 4.74318C12.1908 4.67642 12.0979 4.63916 12.0014 4.63916C11.9048 4.63916 11.8119 4.67642 11.7421 4.74318L3.11244 12.9871C3.07579 13.0221 3.04664 13.0643 3.02674 13.1109C3.00683 13.1576 2.9966 13.2078 2.99666 13.2585L2.99525 20.9957C2.99525 21.3935 3.15329 21.775 3.43459 22.0563C3.7159 22.3376 4.09743 22.4957 4.49525 22.4957H8.99994C9.19886 22.4957 9.38962 22.4167 9.53027 22.276C9.67092 22.1354 9.74994 21.9446 9.74994 21.7457V15.3707C9.74994 15.2712 9.78945 15.1758 9.85978 15.1055C9.9301 15.0352 10.0255 14.9957 10.1249 14.9957H13.8749C13.9744 14.9957 14.0698 15.0352 14.1401 15.1055C14.2104 15.1758 14.2499 15.2712 14.2499 15.3707V21.7457C14.2499 21.9446 14.329 22.1354 14.4696 22.276C14.6103 22.4167 14.801 22.4957 14.9999 22.4957H19.5028C19.9006 22.4957 20.2821 22.3376 20.5634 22.0563C20.8447 21.775 21.0028 21.3935 21.0028 20.9957V13.2585C21.0028 13.2078 20.9926 13.1576 20.9727 13.1109C20.9528 13.0643 20.9236 13.0221 20.887 12.9871L12.2606 4.74318Z" fill="#666666"/>
<path d="M23.0114 11.4422L19.5051 8.08779V2.99764C19.5051 2.79872 19.4261 2.60796 19.2855 2.46731C19.1448 2.32665 18.9541 2.24764 18.7551 2.24764H16.5051C16.3062 2.24764 16.1155 2.32665 15.9748 2.46731C15.8342 2.60796 15.7551 2.79872 15.7551 2.99764V4.49764L13.0401 1.9017C12.7861 1.64482 12.4083 1.49763 12 1.49763C11.5931 1.49763 11.2162 1.64482 10.9622 1.90217L0.991855 11.4412C0.700292 11.7225 0.66373 12.1851 0.929042 12.4898C0.995666 12.5667 1.07724 12.6293 1.16881 12.6737C1.26037 12.718 1.36001 12.7433 1.46166 12.748C1.5633 12.7526 1.66483 12.7365 1.76006 12.7007C1.8553 12.6649 1.94224 12.61 2.0156 12.5395L11.7422 3.24514C11.812 3.17838 11.9048 3.14112 12.0014 3.14112C12.098 3.14112 12.1908 3.17838 12.2606 3.24514L21.9881 12.5395C22.1314 12.6769 22.3233 12.7519 22.5218 12.7481C22.7203 12.7442 22.9092 12.6618 23.047 12.5189C23.3348 12.2208 23.3109 11.7286 23.0114 11.4422Z" fill="#666666"/>
</g>
<defs>
<clipPath id="clip0_32_1934">
<rect width="24" height="24" fill="white" transform="translate(0.00012207 -0.00390625)"/>
</clipPath>
</defs>
</svg>
