<svg width="24" height="24" viewBox="0 0 24 24" fill="none" xmlns="http://www.w3.org/2000/svg">
<path d="M6.82543 21.7503H17.1745C18.1026 21.7503 18.8409 20.9867 18.7411 20.1069C18.0965 14.4378 14.25 14.5316 14.25 12.0003C14.25 9.46909 18.1457 9.60971 18.7406 3.89377C18.8343 3.01346 18.1026 2.25034 17.1745 2.25034H6.82543C5.8973 2.25034 5.16746 3.01346 5.25933 3.89377C5.85418 9.60971 9.74996 9.42221 9.74996 12.0003C9.74996 14.5785 5.9034 14.4378 5.25933 20.1069C5.15902 20.9867 5.8973 21.7503 6.82543 21.7503Z" stroke="#666666" stroke-width="1.5" stroke-linecap="round" stroke-linejoin="round"/>
<path d="M16.0923 20.2485H7.92805C7.1968 20.2485 6.99055 19.4048 7.50336 18.8817C8.74461 17.6235 11.2501 16.7226 11.2501 15.2798V10.4985C11.2501 9.56807 9.46883 8.85791 8.3668 7.34854C8.18492 7.09963 8.2032 6.74854 8.66539 6.74854H15.3559C15.7501 6.74854 15.8354 7.09682 15.6559 7.34619C14.5698 8.85791 12.7501 9.56338 12.7501 10.4985V15.2798C12.7501 16.7109 15.3615 17.4829 16.5188 18.8831C16.9852 19.4474 16.8221 20.2485 16.0923 20.2485Z" fill="#666666"/>
</svg>
