<svg width="24" height="24" viewBox="0 0 24 24" fill="none" xmlns="http://www.w3.org/2000/svg">
<path d="M19.486 20.0158C19.0763 16.4115 17.4314 14.9176 16.23 13.8283C15.3994 13.0722 15 12.6789 15 11.994C15 11.3186 15.398 10.9328 16.2263 10.1922C17.4417 9.10608 19.1063 7.61827 19.4869 3.9653C19.5173 3.6584 19.483 3.34853 19.3861 3.05574C19.2892 2.76295 19.1319 2.49377 18.9244 2.26561C18.7028 2.02191 18.4326 1.82734 18.1312 1.69445C17.8298 1.56156 17.5039 1.49329 17.1745 1.49405H6.82548C6.49564 1.49301 6.16925 1.56115 5.86737 1.69404C5.56548 1.82694 5.29481 2.02165 5.07282 2.26561C4.86594 2.49408 4.70925 2.76338 4.61285 3.05614C4.51645 3.34889 4.48248 3.6586 4.51314 3.9653C4.89236 7.60655 6.55079 9.08358 7.76157 10.1617C8.59782 10.9065 9.00001 11.2951 9.00001 11.994C9.00001 12.7019 8.59689 13.0984 7.75782 13.8573C6.56251 14.9401 4.92189 16.4228 4.51407 20.0158C4.48096 20.3213 4.51269 20.6303 4.6072 20.9227C4.70171 21.2151 4.85686 21.4843 5.06251 21.7126C5.28497 21.9595 5.55695 22.1566 5.86071 22.2912C6.16448 22.4259 6.49321 22.495 6.82548 22.494H17.1745C17.5068 22.495 17.8355 22.4259 18.1393 22.2912C18.4431 22.1566 18.7151 21.9595 18.9375 21.7126C19.1432 21.4843 19.2983 21.2151 19.3928 20.9227C19.4873 20.6303 19.5191 20.3213 19.486 20.0158ZM16.0922 20.244H7.92798C7.19673 20.244 6.99048 19.4003 7.50329 18.8772C8.74454 17.619 11.25 16.7181 11.25 15.2753V10.494C11.25 9.56358 9.46876 8.85342 8.36673 7.34405C8.18486 7.09514 8.20314 6.74405 8.66532 6.74405H15.3558C15.75 6.74405 15.8349 7.09233 15.6558 7.3417C14.5697 8.85342 12.75 9.55889 12.75 10.494V15.2753C12.75 16.7064 15.3614 17.4784 16.5188 18.8786C16.9852 19.443 16.822 20.244 16.0922 20.244Z" fill="#666666"/>
</svg>
