<svg width="24" height="24" viewBox="0 0 24 24" fill="none" xmlns="http://www.w3.org/2000/svg">
<g clip-path="url(#clip0_32_1944)">
<path d="M16.5 11.9958L12 22.4958L9.09371 15.699" stroke="#666666" stroke-width="1.5" stroke-linecap="round" stroke-linejoin="round"/>
<path d="M14.0353 10.4697C13.6753 11.2323 12.8991 11.8065 12 11.8065C11.386 11.8065 10.7344 11.5722 10.4236 11.349C10.1377 11.1442 9.75002 11.244 9.75002 11.7128V14.619C9.74915 14.9171 9.63035 15.2028 9.41956 15.4136C9.20876 15.6244 8.92312 15.7432 8.62502 15.744V15.744C8.32691 15.7432 8.04127 15.6244 7.83048 15.4136C7.61969 15.2028 7.50088 14.9171 7.50002 14.619V11.994H7.40627C5.74923 11.994 4.50002 10.6511 4.50002 8.99404C4.50002 8.19839 4.81609 7.43532 5.37869 6.87271C5.9413 6.3101 6.70437 5.99403 7.50002 5.99403H7.87502V5.61903C7.87502 4.52502 8.30961 3.47581 9.0832 2.70222C9.85679 1.92863 10.906 1.49403 12 1.49403C13.094 1.49403 14.1432 1.92863 14.9168 2.70222C15.6904 3.47581 16.125 4.52502 16.125 5.61903V5.99403H16.5C17.2957 5.99403 18.0587 6.3101 18.6213 6.87271C19.1839 7.43532 19.5 8.19839 19.5 8.99404C19.5 9.78968 19.1839 10.5527 18.6213 11.1154C18.0587 11.678 17.2957 11.994 16.5 11.994C15.4791 11.994 14.5313 11.3847 14.0349 10.4701L14.0353 10.4697Z" stroke="#666666" stroke-width="1.5" stroke-linecap="round" stroke-linejoin="round"/>
</g>
<defs>
<clipPath id="clip0_32_1944">
<rect width="24" height="24" fill="white" transform="translate(0.00012207 -0.00390625)"/>
</clipPath>
</defs>
</svg>
