<svg width="24" height="24" viewBox="0 0 24 24" fill="none" xmlns="http://www.w3.org/2000/svg">
<g clip-path="url(#clip0_32_1950)">
<path d="M8.57809 16.4993C7.55434 16.4749 6.74997 15.6133 6.74997 14.5896V12.9926C6.74991 12.9095 6.72225 12.8288 6.67135 12.7631C6.62044 12.6974 6.54917 12.6505 6.46872 12.6297C4.88669 12.2149 3.74997 10.7683 3.74997 8.99927C3.75119 8.11661 4.06318 7.26256 4.63121 6.58696C5.19924 5.91135 5.98703 5.45735 6.85637 5.30458C6.93555 5.29145 7.00842 5.25326 7.06428 5.19563C7.12014 5.138 7.15603 5.06397 7.16669 4.98443C7.32108 3.81185 7.89649 2.73538 8.78569 1.95558C9.6749 1.17579 10.8173 0.745834 12 0.745834C13.1827 0.745834 14.325 1.17579 15.2142 1.95558C16.1035 2.73538 16.6789 3.81185 16.8333 4.98443C16.8439 5.06397 16.8798 5.138 16.9357 5.19563C16.9915 5.25326 17.0644 5.29145 17.1436 5.30458C18.0687 5.46526 18.8999 5.96716 19.4728 6.71107C20.0458 7.45498 20.3188 8.38677 20.2379 9.32226C20.1571 10.2577 19.7282 11.1288 19.0361 11.7634C18.3439 12.3979 17.4389 12.7497 16.5 12.7493C15.686 12.7454 14.8991 12.4567 14.2758 11.9332C14.2105 11.8794 14.1289 11.8494 14.0444 11.8482C13.9599 11.847 13.8775 11.8747 13.8108 11.9266C13.2949 12.3344 12.6575 12.5579 12 12.5618C11.6541 12.5592 11.3103 12.509 10.9781 12.4127C10.9223 12.3967 10.8635 12.394 10.8065 12.4046C10.7494 12.4152 10.6956 12.4389 10.6492 12.4738C10.6029 12.5088 10.5653 12.554 10.5394 12.6059C10.5135 12.6579 10.5 12.7151 10.5 12.7732V14.6243C10.5 14.8745 10.45 15.1222 10.3529 15.3528C10.2558 15.5834 10.1134 15.7922 9.93433 15.967C9.75522 16.1417 9.54295 16.2788 9.31003 16.3702C9.07711 16.4617 8.82824 16.5055 8.57809 16.4993Z" fill="#666666"/>
<path d="M12.3464 14.0474C12.2528 14.0546 12.1652 14.0967 12.101 14.1653C12.0369 14.234 12.0008 14.3242 12 14.4182V14.624C11.9991 15.3443 11.7681 16.0455 11.3406 16.6253C10.9132 17.2051 10.3117 17.6331 9.62395 17.8471C9.57415 17.8631 9.52823 17.8892 9.48915 17.924C9.45007 17.9587 9.41868 18.0012 9.39701 18.0488C9.37534 18.0964 9.36385 18.148 9.3633 18.2003C9.36275 18.2526 9.37313 18.3044 9.39379 18.3524L11.3114 22.7962C11.3695 22.9306 11.4656 23.0452 11.588 23.1256C11.7103 23.2061 11.8536 23.249 12 23.249C12.1467 23.2488 12.2901 23.2057 12.4125 23.1249C12.5349 23.044 12.6309 22.9291 12.6886 22.7943L16.1471 14.7248C16.1697 14.6719 16.1799 14.6146 16.1769 14.5572C16.1739 14.4998 16.1577 14.4439 16.1296 14.3937C16.1015 14.3436 16.0623 14.3005 16.0149 14.268C15.9676 14.2354 15.9133 14.2141 15.8564 14.2059C15.2676 14.1265 14.6977 13.9425 14.1736 13.6626C14.1224 13.6353 14.0656 13.6202 14.0076 13.6186C13.9496 13.617 13.8921 13.6288 13.8394 13.6532C13.3685 13.8705 12.8633 14.004 12.3464 14.0474Z" fill="#666666"/>
</g>
<defs>
<clipPath id="clip0_32_1950">
<rect width="24" height="24" fill="white" transform="translate(0 -0.00390625)"/>
</clipPath>
</defs>
</svg>
