<svg width="24" height="24" viewBox="0 0 24 24" fill="none" xmlns="http://www.w3.org/2000/svg">
<g clip-path="url(#clip0_32_1947)">
<path d="M16.8619 5.26335C16.7716 4.03562 16.2202 2.88749 15.3184 2.04953C14.4166 1.21158 13.2311 0.745834 12 0.745834C10.769 0.745834 9.58353 1.21158 8.6817 2.04953C7.77986 2.88749 7.22844 4.03562 7.13817 5.26335C6.21106 5.35451 5.35092 5.78698 4.7248 6.47677C4.09868 7.16656 3.75127 8.06443 3.75005 8.99601C3.75005 10.841 4.98614 12.3349 6.67411 12.6738C6.69578 12.678 6.71527 12.6897 6.72916 12.7069C6.74305 12.724 6.75045 12.7455 6.75005 12.7676V14.5877C6.75005 15.6115 7.5563 16.473 8.57817 16.4974C8.82832 16.5037 9.07718 16.4598 9.31011 16.3684C9.54303 16.2769 9.7553 16.1398 9.9344 15.9651C10.1135 15.7904 10.2558 15.5815 10.353 15.3509C10.4501 15.1203 10.5001 14.8726 10.5 14.6224V12.3799C10.5001 12.3647 10.5038 12.3498 10.5109 12.3363C10.5181 12.3229 10.5283 12.3114 10.5409 12.3028C10.5534 12.2942 10.5679 12.2888 10.583 12.2871C10.5981 12.2853 10.6134 12.2873 10.6275 12.2927C11.0654 12.463 11.5303 12.553 12 12.5585C12.7336 12.5534 13.4391 12.2763 13.98 11.7809C13.9974 11.7645 14.0204 11.7554 14.0443 11.7554C14.0681 11.7554 14.0911 11.7645 14.1085 11.7809C14.7537 12.3954 15.609 12.7406 16.5 12.746C17.4635 12.7464 18.3902 12.376 19.0879 11.7115C19.7856 11.047 20.2008 10.1395 20.2473 9.17715C20.2938 8.21479 19.9682 7.27144 19.3379 6.54274C18.7076 5.81404 17.8209 5.35591 16.8619 5.26335Z" fill="#666666"/>
<path d="M12 14.0627V14.6252C11.9988 15.4077 11.7261 16.1655 11.2285 16.7694C10.7309 17.3733 10.0392 17.7857 9.27138 17.9365L12 23.2502L16.3153 14.2465C15.5032 14.2153 14.7113 13.9841 14.01 13.5734C13.3885 13.8941 12.6994 14.0619 12 14.0627Z" fill="#666666"/>
</g>
<defs>
<clipPath id="clip0_32_1947">
<rect width="24" height="24" fill="white" transform="translate(0 -0.00390625)"/>
</clipPath>
</defs>
</svg>
