<svg width="24" height="24" viewBox="0 0 24 24" fill="none" xmlns="http://www.w3.org/2000/svg">
<g clip-path="url(#clip0_32_1953)">
<path d="M17.2499 1.49403H6.74992C5.50728 1.49403 4.49992 2.50139 4.49992 3.74403V20.244C4.49992 21.4867 5.50728 22.494 6.74992 22.494H17.2499C18.4926 22.494 19.4999 21.4867 19.4999 20.244V3.74403C19.4999 2.50139 18.4926 1.49403 17.2499 1.49403Z" stroke="#666666" stroke-width="1.5" stroke-linejoin="round"/>
<path d="M9.74997 3.74764H14.25" stroke="#666666" stroke-width="1.5" stroke-linecap="round" stroke-linejoin="round"/>
<path d="M15.632 13.3351C15.4551 13.1467 15.2408 12.9972 15.0029 12.8962C14.7649 12.7952 14.5086 12.745 14.2501 12.7487C13.7064 12.7487 13.2146 12.9555 12.8654 13.3314C12.5162 13.7073 12.3404 14.2276 12.3807 14.7845C12.4609 15.8851 13.2995 16.78 14.2501 16.78C15.2007 16.78 16.0379 15.8851 16.119 14.7855C16.1603 14.2333 15.9868 13.7181 15.632 13.3351ZM17.4231 20.9987H11.0771C10.9945 21.0001 10.9126 20.9832 10.8372 20.9495C10.7618 20.9157 10.6948 20.8658 10.6407 20.8033C10.5822 20.7331 10.5401 20.6507 10.5177 20.5621C10.4953 20.4735 10.4932 20.381 10.5114 20.2914C10.6637 19.4683 11.1386 18.7769 11.8848 18.2917C12.5476 17.8609 13.3876 17.6237 14.2501 17.6237C15.1126 17.6237 15.9526 17.8609 16.6154 18.2917C17.3617 18.7769 17.8365 19.4683 17.9889 20.2914C18.0071 20.381 18.0049 20.4735 17.9825 20.5621C17.9601 20.6507 17.9181 20.7331 17.8595 20.8033C17.8055 20.8658 17.7384 20.9157 17.663 20.9495C17.5876 20.9832 17.5057 21.0001 17.4231 20.9987Z" fill="#666666"/>
</g>
<defs>
<clipPath id="clip0_32_1953">
<rect width="24" height="24" fill="white" transform="translate(0 -0.00390625)"/>
</clipPath>
</defs>
</svg>
