<svg width="24" height="24" viewBox="0 0 24 24" fill="none" xmlns="http://www.w3.org/2000/svg">
<g clip-path="url(#clip0_32_1957)">
<path d="M19.1251 0.745834H4.87509C4.57672 0.745834 4.29057 0.864361 4.0796 1.07534C3.86862 1.28632 3.75009 1.57247 3.75009 1.87083V22.1208C3.75009 22.4192 3.86862 22.7054 4.0796 22.9163C4.29057 23.1273 4.57672 23.2458 4.87509 23.2458H19.1251C19.4235 23.2458 19.7096 23.1273 19.9206 22.9163C20.1316 22.7054 20.2501 22.4192 20.2501 22.1208V1.87083C20.2501 1.57247 20.1316 1.28632 19.9206 1.07534C19.7096 0.864361 19.4235 0.745834 19.1251 0.745834ZM16.261 14.6569C16.2822 15.064 16.1795 15.4678 15.9664 15.8153C15.7533 16.1627 15.4399 16.4374 15.0676 16.6031C14.6952 16.7688 14.2813 16.8177 13.8806 16.7434C13.4799 16.6691 13.1111 16.475 12.8229 16.1868C12.5347 15.8986 12.3406 15.5298 12.2663 15.1291C12.192 14.7283 12.2409 14.3145 12.4066 13.9421C12.5723 13.5698 12.847 13.2564 13.1944 13.0433C13.5419 12.8302 13.9457 12.7275 14.3528 12.7486C14.8505 12.7745 15.321 12.9839 15.6734 13.3363C16.0258 13.6887 16.2352 14.1592 16.261 14.6569ZM9.00009 2.99583H15.0001V4.49584H9.00009V2.99583ZM18.0001 20.9958H10.5001V19.8427C10.5001 18.309 12.9971 17.536 14.2501 17.536C15.5031 17.536 18.0001 18.309 18.0001 19.8427V20.9958Z" fill="#666666"/>
</g>
<defs>
<clipPath id="clip0_32_1957">
<rect width="24" height="24" fill="white" transform="translate(0 -0.00390625)"/>
</clipPath>
</defs>
</svg>
