<svg width="24" height="24" viewBox="0 0 24 24" fill="none" xmlns="http://www.w3.org/2000/svg">
<g clip-path="url(#clip0_32_1959)">
<path d="M17.2499 0.745834H6.74987C5.95449 0.746703 5.19193 1.06305 4.62951 1.62547C4.06709 2.18789 3.75074 2.95045 3.74987 3.74584V20.2458C3.75074 21.0412 4.06709 21.8038 4.62951 22.3662C5.19193 22.9286 5.95449 23.245 6.74987 23.2458H17.2499C18.0453 23.245 18.8078 22.9286 19.3702 22.3662C19.9327 21.8038 20.249 21.0412 20.2499 20.2458V3.74584C20.249 2.95045 19.9327 2.18789 19.3702 1.62547C18.8078 1.06305 18.0453 0.746703 17.2499 0.745834ZM15.6317 13.3322C15.9866 13.7152 16.16 14.2304 16.1188 14.7826C16.0377 15.8822 15.1991 16.7771 14.2499 16.7771C13.3007 16.7771 12.4607 15.8822 12.3805 14.7826C12.3402 14.2247 12.5122 13.7087 12.8652 13.3294C13.2182 12.9502 13.7061 12.7458 14.2499 12.7458C14.5083 12.7421 14.7647 12.7923 15.0026 12.8933C15.2406 12.9943 15.4549 13.1438 15.6317 13.3322ZM8.99987 3.74584C8.99987 3.54692 9.07889 3.35616 9.21954 3.2155C9.36019 3.07485 9.55096 2.99583 9.74987 2.99583H14.2499C14.4488 2.99583 14.6396 3.07485 14.7802 3.2155C14.9209 3.35616 14.9999 3.54692 14.9999 3.74584C14.9999 3.94475 14.9209 4.13551 14.7802 4.27617C14.6396 4.41682 14.4488 4.49584 14.2499 4.49584H9.74987C9.55096 4.49584 9.36019 4.41682 9.21954 4.27617C9.07889 4.13551 8.99987 3.94475 8.99987 3.74584ZM17.8592 20.8004C17.8052 20.8629 17.7382 20.9128 17.6628 20.9466C17.5873 20.9803 17.5055 20.9972 17.4228 20.9958H11.0769C10.9943 20.9972 10.9124 20.9803 10.837 20.9466C10.7616 20.9128 10.6945 20.8629 10.6405 20.8004C10.5819 20.7302 10.5399 20.6478 10.5175 20.5592C10.4951 20.4706 10.4929 20.3781 10.5111 20.2885C10.6635 19.4654 11.1383 18.774 11.8846 18.2888C12.5474 17.858 13.3874 17.6208 14.2499 17.6208C15.1124 17.6208 15.9524 17.858 16.6152 18.2888C17.3614 18.774 17.8363 19.4654 17.9886 20.2885C18.0068 20.3781 18.0046 20.4706 17.9823 20.5592C17.9599 20.6478 17.9178 20.7302 17.8592 20.8004Z" fill="#666666"/>
</g>
<defs>
<clipPath id="clip0_32_1959">
<rect width="24" height="24" fill="white" transform="translate(0 -0.00390625)"/>
</clipPath>
</defs>
</svg>
