<svg width="24" height="24" viewBox="0 0 24 24" fill="none" xmlns="http://www.w3.org/2000/svg">
<path d="M19.4999 3.00035H4.49992C3.70453 3.00122 2.94198 3.31757 2.37955 3.87999C1.81713 4.44241 1.50078 5.20497 1.49992 6.00035V18.0004C1.50078 18.7957 1.81713 19.5583 2.37955 20.1207C2.94198 20.6831 3.70453 20.9995 4.49992 21.0004H19.4999C20.2953 20.9995 21.0579 20.6831 21.6203 20.1207C22.1827 19.5583 22.4991 18.7957 22.4999 18.0004V6.00035C22.4991 5.20497 22.1827 4.44241 21.6203 3.87999C21.0579 3.31757 20.2953 3.00122 19.4999 3.00035ZM15.7499 6.00035C16.1949 6.00035 16.6299 6.13231 16.9999 6.37954C17.37 6.62678 17.6583 6.97818 17.8286 7.38931C17.9989 7.80045 18.0435 8.25285 17.9567 8.6893C17.8699 9.12576 17.6556 9.52667 17.3409 9.84134C17.0262 10.156 16.6253 10.3703 16.1889 10.4571C15.7524 10.5439 15.3 10.4994 14.8889 10.3291C14.4777 10.1588 14.1263 9.8704 13.8791 9.50038C13.6319 9.13037 13.4999 8.69536 13.4999 8.25035C13.5005 7.6538 13.7378 7.08187 14.1596 6.66005C14.5814 6.23822 15.1534 6.00097 15.7499 6.00035ZM4.49992 19.5004C4.10209 19.5004 3.72056 19.3423 3.43926 19.061C3.15795 18.7797 2.99992 18.3982 2.99992 18.0004V14.8302L7.44554 10.8786C7.87447 10.4982 8.43229 10.2957 9.00537 10.3122C9.57845 10.3288 10.1237 10.5632 10.5299 10.9677L13.5744 14.0057L8.07976 19.5004H4.49992ZM20.9999 18.0004C20.9999 18.3982 20.8419 18.7797 20.5606 19.061C20.2793 19.3423 19.8977 19.5004 19.4999 19.5004H10.2013L15.8929 13.8088C16.2959 13.4661 16.8072 13.2773 17.3362 13.2759C17.8652 13.2746 18.3775 13.4607 18.7823 13.8013L20.9999 15.6491V18.0004Z" fill="#666666"/>
</svg>
