<svg width="24" height="24" viewBox="0 0 24 24" fill="none" xmlns="http://www.w3.org/2000/svg">
<g clip-path="url(#clip0_32_1969)">
<path d="M20.2499 5.24765V4.49765C20.2482 3.90144 20.0106 3.33015 19.589 2.90857C19.1674 2.48699 18.5962 2.24938 17.9999 2.24765H2.99995C2.40374 2.24938 1.83245 2.48699 1.41087 2.90857C0.989287 3.33015 0.751678 3.90144 0.749947 4.49765V16.4976C0.751678 17.0939 0.989287 17.6651 1.41087 18.0867C1.83245 18.5083 2.40374 18.7459 2.99995 18.7477H3.74995" stroke="#666666" stroke-width="1.5" stroke-linejoin="round"/>
<path d="M21.0943 5.99765H6.65587C5.46527 5.99765 4.50009 6.96282 4.50009 8.15343V19.5919C4.50009 20.7825 5.46527 21.7476 6.65587 21.7476H21.0943C22.2849 21.7476 23.2501 20.7825 23.2501 19.5919V8.15343C23.2501 6.96282 22.2849 5.99765 21.0943 5.99765Z" stroke="#666666" stroke-width="1.5" stroke-linejoin="round"/>
<path d="M17.4806 11.7238C18.2772 11.7238 18.923 11.0826 18.923 10.2918C18.923 9.50087 18.2772 8.85973 17.4806 8.85973C16.684 8.85973 16.0383 9.50087 16.0383 10.2918C16.0383 11.0826 16.684 11.7238 17.4806 11.7238Z" stroke="#666666" stroke-width="1.5" stroke-miterlimit="10"/>
<path d="M16.0384 17.4428L11.9532 13.3933C11.6921 13.1353 11.3428 12.9859 10.9758 12.9754C10.6088 12.9649 10.2515 13.094 9.97603 13.3366L4.50009 18.168M12.4327 21.7474L17.9917 16.2288C18.2475 15.9765 18.5876 15.8279 18.9465 15.8117C19.3054 15.7955 19.6576 15.9129 19.9351 16.1411L23.2501 18.8838" stroke="#666666" stroke-width="1.5" stroke-linecap="round" stroke-linejoin="round"/>
</g>
<defs>
<clipPath id="clip0_32_1969">
<rect width="24" height="24" fill="white"/>
</clipPath>
</defs>
</svg>
