<svg width="24" height="24" viewBox="0 0 24 24" fill="none" xmlns="http://www.w3.org/2000/svg">
<g clip-path="url(#clip0_32_1974)">
<path d="M3.74998 6.18695V21.562C3.74998 21.8106 3.84876 22.0491 4.02457 22.2249C4.20039 22.4007 4.43884 22.4995 4.68748 22.4995H23.0625C23.3111 22.4995 23.5496 22.4007 23.7254 22.2249C23.9012 22.0491 24 21.8106 24 21.562V6.18695C24 5.93831 23.9012 5.69985 23.7254 5.52404C23.5496 5.34822 23.3111 5.24945 23.0625 5.24945H4.68748C4.43884 5.24945 4.20039 5.34822 4.02457 5.52404C3.84876 5.69985 3.74998 5.93831 3.74998 6.18695ZM17.4909 8.1243C17.9168 8.12689 18.3324 8.25555 18.6853 8.49405C19.0381 8.73255 19.3125 9.07021 19.4737 9.46444C19.6348 9.85866 19.6757 10.2918 19.591 10.7092C19.5063 11.1266 19.2999 11.5096 18.9979 11.8098C18.6958 12.1101 18.3116 12.3141 17.8937 12.3963C17.4757 12.4784 17.0429 12.435 16.6496 12.2714C16.2564 12.1078 15.9204 11.8314 15.6841 11.4771C15.4477 11.1228 15.3216 10.7065 15.3215 10.2805C15.3239 9.70712 15.5536 9.15806 15.9603 8.75381C16.367 8.34957 16.9175 8.12317 17.4909 8.1243ZM5.23733 21.0618V16.5862L10.9917 11.4205L15.3876 15.7963L10.0908 21.0618H5.23733ZM22.5 21.0618H12.1406L18.9178 14.3118L22.5 17.3709V21.0618Z" fill="#666666"/>
<path d="M0.937485 1.49945C0.688844 1.49945 0.450388 1.59822 0.274572 1.77403C0.0987568 1.94985 -1.52588e-05 2.18831 -1.52588e-05 2.43695L-1.52588e-05 18.5619C-1.52588e-05 18.8106 0.0987568 19.049 0.274572 19.2249C0.450388 19.4007 0.688844 19.4994 0.937485 19.4994H2.24998V4.68695C2.24998 4.43831 2.34876 4.19985 2.52457 4.02403C2.70039 3.84822 2.93884 3.74945 3.18748 3.74945H21V2.43695C21 2.18831 20.9012 1.94985 20.7254 1.77403C20.5496 1.59822 20.3111 1.49945 20.0625 1.49945H0.937485Z" fill="#666666"/>
</g>
<defs>
<clipPath id="clip0_32_1974">
<rect width="24" height="24" fill="white"/>
</clipPath>
</defs>
</svg>
