<svg width="24" height="24" viewBox="0 0 24 24" fill="none" xmlns="http://www.w3.org/2000/svg">
<path d="M21.3749 2.99944H2.62491C2.32654 2.99944 2.04039 3.11797 1.82941 3.32895C1.61843 3.53993 1.49991 3.82607 1.49991 4.12444V19.8744C1.49991 20.1728 1.61843 20.459 1.82941 20.6699C2.04039 20.8809 2.32654 20.9994 2.62491 20.9994H21.3749C21.6733 20.9994 21.9594 20.8809 22.1704 20.6699C22.3814 20.459 22.4999 20.1728 22.4999 19.8744V4.12444C22.4999 3.82607 22.3814 3.53993 22.1704 3.32895C21.9594 3.11797 21.6733 2.99944 21.3749 2.99944ZM15.5446 6.00882C16.0052 5.96661 16.4676 6.06739 16.8689 6.29742C17.2702 6.52745 17.5908 6.87556 17.7871 7.29436C17.9835 7.71315 18.046 8.18228 17.9661 8.63787C17.8863 9.09345 17.6679 9.51336 17.3409 9.84042C17.0138 10.1675 16.5939 10.3858 16.1383 10.4657C15.6827 10.5455 15.2136 10.483 14.7948 10.2867C14.376 10.0903 14.0279 9.7697 13.7979 9.36843C13.5679 8.96715 13.4671 8.50473 13.5093 8.04413C13.5573 7.52052 13.7871 7.03024 14.1589 6.65844C14.5307 6.28664 15.021 6.0568 15.5446 6.00882ZM3.56241 19.4994C3.41322 19.4994 3.27015 19.4402 3.16466 19.3347C3.05917 19.2292 2.99991 19.0861 2.99991 18.9369V14.8293L9.02991 9.46819L13.5744 14.0034L8.07975 19.4994H3.56241ZM20.9999 18.9369C20.9999 19.0861 20.9406 19.2292 20.8352 19.3347C20.7297 19.4402 20.5866 19.4994 20.4374 19.4994H10.2013L17.2105 12.4902L20.9999 15.6482V18.9369Z" fill="#666666"/>
</svg>
