<svg width="24" height="24" viewBox="0 0 24 24" fill="none" xmlns="http://www.w3.org/2000/svg">
<g clip-path="url(#clip0_32_1978)">
<path d="M21.1074 5.24945H6.6563C5.06255 5.24945 3.75005 6.53898 3.75005 8.1243V19.6246C3.75005 21.2099 5.06255 22.4995 6.6563 22.4995H21.0938C22.6875 22.4995 24 21.2723 24 19.687V8.1243C24 6.53898 22.7025 5.24945 21.1074 5.24945ZM17.491 8.12476C17.9169 8.12736 18.3325 8.25602 18.6853 8.49452C19.0382 8.73302 19.3125 9.07068 19.4737 9.46491C19.6349 9.85913 19.6757 10.2923 19.5911 10.7097C19.5064 11.1271 19.3 11.51 18.9979 11.8103C18.6959 12.1105 18.3116 12.3146 17.8937 12.3967C17.4758 12.4789 17.0429 12.4354 16.6497 12.2718C16.2565 12.1083 15.9205 11.8319 15.6841 11.4776C15.4478 11.1233 15.3216 10.7069 15.3216 10.281C15.3238 9.70751 15.5535 9.15832 15.9602 8.75398C16.367 8.34964 16.9175 8.12317 17.491 8.1243V8.12476ZM6.63708 21.0623C5.8402 21.0623 5.23739 20.4177 5.23739 19.6251V16.5862L9.4777 12.7991C9.89224 12.4345 10.4296 12.2406 10.9815 12.2565C11.5333 12.2724 12.0586 12.497 12.4515 12.8849L15.3877 15.7963L10.0908 21.0618L6.63708 21.0623ZM22.5 19.6246C22.5 19.8135 22.4627 20.0006 22.3903 20.1751C22.3179 20.3496 22.2118 20.5081 22.0781 20.6415C21.9445 20.775 21.7858 20.8808 21.6112 20.9529C21.4365 21.0251 21.2494 21.062 21.0605 21.0618H12.1407L17.6288 15.6088C18.0183 15.2803 18.511 15.0994 19.0206 15.0981C19.5301 15.0967 20.0238 15.2749 20.415 15.6013L22.5 17.3709V19.6246Z" fill="#666666"/>
<path d="M18 1.49945H3.00005C2.2044 1.49945 1.44133 1.81552 0.878726 2.37813C0.316116 2.94074 4.57764e-05 3.7038 4.57764e-05 4.49945L4.57764e-05 16.4994C0.000594456 17.1646 0.221783 17.8107 0.628953 18.3366C1.03612 18.8626 1.60627 19.2386 2.25005 19.4057V7.12445C2.25005 6.22934 2.60563 5.3709 3.23856 4.73796C3.8715 4.10503 4.72994 3.74945 5.62505 3.74945H20.9063C20.7392 3.10567 20.3632 2.53552 19.8372 2.12835C19.3113 1.72118 18.6652 1.5 18 1.49945Z" fill="#666666"/>
</g>
<defs>
<clipPath id="clip0_32_1978">
<rect width="24" height="24" fill="white"/>
</clipPath>
</defs>
</svg>
