<svg width="24" height="24" viewBox="0 0 24 24" fill="none" xmlns="http://www.w3.org/2000/svg">
<path d="M19.5 3.74764H4.50002C3.25737 3.74764 2.25002 4.755 2.25002 5.99764V17.9976C2.25002 19.2403 3.25737 20.2476 4.50002 20.2476H19.5C20.7427 20.2476 21.75 19.2403 21.75 17.9976V5.99764C21.75 4.755 20.7427 3.74764 19.5 3.74764Z" stroke="#666666" stroke-width="1.5" stroke-linejoin="round"/>
<path d="M15.75 9.74944C16.5785 9.74944 17.25 9.07787 17.25 8.24944C17.25 7.42102 16.5785 6.74944 15.75 6.74944C14.9216 6.74944 14.25 7.42102 14.25 8.24944C14.25 9.07787 14.9216 9.74944 15.75 9.74944Z" stroke="#666666" stroke-width="1.5" stroke-miterlimit="10"/>
<path d="M14.25 15.7393L10.0003 11.4976C9.72991 11.2272 9.36644 11.0703 8.98422 11.059C8.602 11.0477 8.22988 11.1827 7.94392 11.4366L2.25002 16.4991M10.5 20.2491L16.2816 14.4676C16.546 14.2026 16.8999 14.0461 17.2738 14.0288C17.6477 14.0114 18.0146 14.1345 18.3024 14.3738L21.75 17.2491" stroke="#666666" stroke-width="1.5" stroke-linecap="round" stroke-linejoin="round"/>
</svg>
