<svg width="24" height="24" viewBox="0 0 24 24" fill="none" xmlns="http://www.w3.org/2000/svg">
<path d="M17.9064 6.37175C15.9906 6.37175 14.4629 7.33409 13.5189 8.14175L13.4856 8.17034L12.9479 8.75487L14.1348 10.7053L15.0132 9.82456C15.9325 9.04831 16.9586 8.62175 17.9064 8.62175C19.8189 8.62175 21.3751 10.1358 21.3751 11.9967C21.3751 13.8577 19.8189 15.3717 17.9064 15.3717C15.0001 15.3717 13.0248 11.5303 13.0051 11.4914C12.8907 11.2603 10.3857 6.37175 6.09386 6.37175C2.94058 6.37175 0.375113 8.89503 0.375113 11.9967C0.375113 15.0985 2.94058 17.6217 6.09386 17.6217C7.6384 17.6217 9.15855 17.0072 10.4903 15.8442L10.5189 15.8189L11.0523 15.2386L9.86496 13.2882L8.9823 14.1732C8.06261 14.9686 7.09043 15.3717 6.09386 15.3717C4.18136 15.3717 2.62511 13.8577 2.62511 11.9967C2.62511 10.1358 4.18136 8.62175 6.09386 8.62175C9.00012 8.62175 10.9754 12.4632 10.9951 12.5021C11.1095 12.7332 13.6145 17.6217 17.9064 17.6217C21.0596 17.6217 23.6251 15.0985 23.6251 11.9967C23.6251 8.89503 21.0596 6.37175 17.9064 6.37175Z" fill="#666666"/>
</svg>
