<svg width="24" height="24" viewBox="0 0 24 24" fill="none" xmlns="http://www.w3.org/2000/svg">
<path d="M12 2.62174C6.83065 2.62174 2.62502 6.82737 2.62502 11.9967C2.62502 17.1661 6.83065 21.3717 12 21.3717C17.1694 21.3717 21.375 17.1661 21.375 11.9967C21.375 6.82737 17.1694 2.62174 12 2.62174ZM12 6.46549C12.2411 6.46549 12.4767 6.53697 12.6771 6.67089C12.8775 6.80481 13.0338 6.99515 13.126 7.21785C13.2182 7.44054 13.2424 7.68559 13.1954 7.92201C13.1483 8.15842 13.0323 8.37558 12.8618 8.54603C12.6914 8.71647 12.4742 8.83255 12.2378 8.87957C12.0014 8.9266 11.7563 8.90247 11.5336 8.81022C11.3109 8.71798 11.1206 8.56177 10.9867 8.36134C10.8528 8.16092 10.7813 7.92529 10.7813 7.68424C10.7813 7.36101 10.9097 7.05102 11.1382 6.82246C11.3668 6.5939 11.6768 6.46549 12 6.46549ZM14.25 17.0592H10.125C9.92611 17.0592 9.73535 16.9802 9.59469 16.8396C9.45404 16.6989 9.37502 16.5082 9.37502 16.3092C9.37502 16.1103 9.45404 15.9196 9.59469 15.7789C9.73535 15.6383 9.92611 15.5592 10.125 15.5592H11.4375V11.4342H10.6875C10.4886 11.4342 10.2978 11.3552 10.1572 11.2146C10.0165 11.0739 9.93752 10.8832 9.93752 10.6842C9.93752 10.4853 10.0165 10.2946 10.1572 10.1539C10.2978 10.0133 10.4886 9.93424 10.6875 9.93424H12.1875C12.3864 9.93424 12.5772 10.0133 12.7179 10.1539C12.8585 10.2946 12.9375 10.4853 12.9375 10.6842V15.5592H14.25C14.4489 15.5592 14.6397 15.6383 14.7804 15.7789C14.921 15.9196 15 16.1103 15 16.3092C15 16.5082 14.921 16.6989 14.7804 16.8396C14.6397 16.9802 14.4489 17.0592 14.25 17.0592Z" fill="#666666"/>
</svg>
