<svg width="24" height="24" viewBox="0 0 24 24" fill="none" xmlns="http://www.w3.org/2000/svg">
<path d="M12 2.62174C6.83059 2.62174 2.62496 6.82737 2.62496 11.9967C2.62496 17.1661 6.83059 21.3717 12 21.3717C17.1693 21.3717 21.375 17.1661 21.375 11.9967C21.375 6.82737 17.1693 2.62174 12 2.62174ZM12 6.46549C12.241 6.46549 12.4766 6.53697 12.6771 6.67089C12.8775 6.80481 13.0337 6.99515 13.1259 7.21785C13.2182 7.44054 13.2423 7.68559 13.1953 7.92201C13.1483 8.15842 13.0322 8.37558 12.8617 8.54603C12.6913 8.71647 12.4741 8.83255 12.2377 8.87957C12.0013 8.9266 11.7563 8.90247 11.5336 8.81022C11.3109 8.71798 11.1205 8.56177 10.9866 8.36134C10.8527 8.16092 10.7812 7.92529 10.7812 7.68424C10.7812 7.36101 10.9096 7.05102 11.1382 6.82246C11.3667 6.5939 11.6767 6.46549 12 6.46549ZM15 17.0592H9.37496V15.5592H11.4375V11.4342H9.93746V9.93424H12.9375V15.5592H15V17.0592Z" fill="#666666"/>
</svg>
