<svg width="24" height="24" viewBox="0 0 24 24" fill="none" xmlns="http://www.w3.org/2000/svg">
<path d="M9.18739 10.312H12.1874V18.3745" stroke="#666666" stroke-width="1.875" stroke-linecap="round" stroke-linejoin="round"/>
<path d="M8.76569 18.5602H15.2344" stroke="#666666" stroke-width="1.875" stroke-miterlimit="10" stroke-linecap="round"/>
<path d="M12 7.49765C11.7033 7.49765 11.4133 7.40968 11.1666 7.24486C10.9199 7.08004 10.7277 6.84577 10.6142 6.57168C10.5006 6.29759 10.4709 5.99599 10.5288 5.70502C10.5867 5.41405 10.7295 5.14677 10.9393 4.93699C11.1491 4.72721 11.4164 4.58435 11.7073 4.52647C11.9983 4.4686 12.2999 4.4983 12.574 4.61183C12.8481 4.72536 13.0824 4.91762 13.2472 5.1643C13.412 5.41097 13.5 5.70098 13.5 5.99765C13.5 6.39548 13.3419 6.77701 13.0606 7.05831C12.7793 7.33962 12.3978 7.49765 12 7.49765Z" fill="#666666"/>
</svg>
