<svg width="24" height="24" viewBox="0 0 24 24" fill="none" xmlns="http://www.w3.org/2000/svg">
<path d="M11.625 3.00035C6.86202 3.00035 2.99998 6.86238 2.99998 11.6254C2.99998 16.3883 6.86202 20.2504 11.625 20.2504C16.388 20.2504 20.25 16.3883 20.25 11.6254C20.25 6.86238 16.388 3.00035 11.625 3.00035Z" stroke="#666666" stroke-width="1.5" stroke-miterlimit="10"/>
<path d="M10.3125 10.3111H11.8125V15.7486" stroke="#666666" stroke-width="1.5" stroke-linecap="round" stroke-linejoin="round"/>
<path d="M9.7501 15.9361H13.8751" stroke="#666666" stroke-width="1.5" stroke-miterlimit="10" stroke-linecap="round"/>
<path d="M11.6251 6.0923C11.384 6.0923 11.1484 6.16378 10.948 6.29769C10.7475 6.43161 10.5913 6.62195 10.4991 6.84465C10.4068 7.06735 10.3827 7.3124 10.4297 7.54881C10.4768 7.78523 10.5928 8.00239 10.7633 8.17283C10.9337 8.34328 11.1509 8.45935 11.3873 8.50638C11.6237 8.5534 11.8688 8.52927 12.0915 8.43703C12.3142 8.34478 12.5045 8.18857 12.6384 7.98815C12.7723 7.78773 12.8438 7.55209 12.8438 7.31105C12.8438 6.98781 12.7154 6.67782 12.4869 6.44926C12.2583 6.2207 11.9483 6.0923 11.6251 6.0923Z" fill="#666666"/>
</svg>
