<svg width="24" height="24" viewBox="0 0 24 24" fill="none" xmlns="http://www.w3.org/2000/svg">
<path d="M12 21.7486C17.3848 21.7486 21.75 17.3833 21.75 11.9986C21.75 6.61378 17.3848 2.24855 12 2.24855C6.61521 2.24855 2.24999 6.61378 2.24999 11.9986C2.24999 17.3833 6.61521 21.7486 12 21.7486Z" stroke="#666666" stroke-width="1.5" stroke-miterlimit="10"/>
<path d="M12.0001 8.24855V15.7486C11.0055 15.7486 10.0517 15.3535 9.34843 14.6502C8.64516 13.9469 8.25008 12.9931 8.25008 11.9986C8.25008 11.004 8.64516 10.0502 9.34843 9.3469C10.0517 8.64364 11.0055 8.24855 12.0001 8.24855ZM12.0001 2.24855V8.24855C12.9946 8.24855 13.9485 8.64364 14.6517 9.3469C15.355 10.0502 15.7501 11.004 15.7501 11.9986C15.7501 12.9931 15.355 13.9469 14.6517 14.6502C13.9485 15.3535 12.9946 15.7486 12.0001 15.7486V21.7486C17.3851 21.7486 21.7501 17.3836 21.7501 11.9986C21.7501 6.61355 17.3851 2.24855 12.0001 2.24855Z" fill="#666666"/>
</svg>
