<svg width="24" height="24" viewBox="0 0 24 24" fill="none" xmlns="http://www.w3.org/2000/svg">
<path d="M19.4245 4.57181C18.4512 3.58891 17.2933 2.80801 16.0174 2.27396C14.7414 1.7399 13.3725 1.46323 11.9892 1.45982C10.606 1.45642 9.23576 1.72635 7.95717 2.25412C6.67858 2.78188 5.51687 3.55708 4.53878 4.53517C3.56069 5.51326 2.7855 6.67497 2.25773 7.95356C1.72996 9.23215 1.46003 10.6024 1.46343 11.9856C1.46684 13.3689 1.74351 14.7378 2.27757 16.0138C2.81162 17.2897 3.59253 18.4476 4.57542 19.4209C5.54868 20.4038 6.70656 21.1847 7.98254 21.7187C9.25851 22.2528 10.6274 22.5295 12.0107 22.5329C13.3939 22.5363 14.7641 22.2663 16.0427 21.7386C17.3213 21.2108 18.483 20.4356 19.4611 19.4575C20.4392 18.4794 21.2144 17.3177 21.7422 16.0391C22.2699 14.7605 22.5399 13.3903 22.5365 12.007C22.5331 10.6238 22.2564 9.2549 21.7223 7.97893C21.1883 6.70295 20.4074 5.54507 19.4245 4.57181ZM12 20.2463V15.7463C11.0054 15.7463 10.0516 15.3513 9.3483 14.648C8.64504 13.9447 8.24995 12.9909 8.24995 11.9963C8.24995 11.0018 8.64504 10.048 9.3483 9.34469C10.0516 8.64143 11.0054 8.24634 12 8.24634V3.74634C16.5492 3.74634 20.25 7.44947 20.25 11.9963C20.25 16.5432 16.5492 20.2463 12 20.2463Z" fill="#666666"/>
<path d="M15.75 11.9977C15.75 11.0031 15.3549 10.0493 14.6516 9.346C13.9484 8.64274 12.9946 8.24765 12 8.24765V15.7477C12.9946 15.7477 13.9484 15.3526 14.6516 14.6493C15.3549 13.946 15.75 12.9922 15.75 11.9977Z" fill="#666666"/>
</svg>
