<svg width="24" height="24" viewBox="0 0 24 24" fill="none" xmlns="http://www.w3.org/2000/svg">
<path d="M12.0001 21.7486C17.3849 21.7486 21.7501 17.3833 21.7501 11.9986C21.7501 6.61378 17.3849 2.24855 12.0001 2.24855C6.61534 2.24855 2.25011 6.61378 2.25011 11.9986C2.25011 17.3833 6.61534 21.7486 12.0001 21.7486Z" stroke="#666666" stroke-width="1.5" stroke-miterlimit="10"/>
<path d="M12.0001 8.24855V15.7486C12.9947 15.7486 13.9485 15.3535 14.6518 14.6502C15.355 13.9469 15.7501 12.9931 15.7501 11.9986C15.7501 11.004 15.355 10.0502 14.6518 9.3469C13.9485 8.64364 12.9947 8.24855 12.0001 8.24855ZM12.0001 2.24855V8.24855C11.0056 8.24855 10.0517 8.64364 9.34846 9.3469C8.6452 10.0502 8.25011 11.004 8.25011 11.9986C8.25011 12.9931 8.6452 13.9469 9.34846 14.6502C10.0517 15.3535 11.0056 15.7486 12.0001 15.7486V21.7486C6.61511 21.7486 2.25011 17.3836 2.25011 11.9986C2.25011 6.61355 6.61511 2.24855 12.0001 2.24855Z" fill="#666666"/>
</svg>
