<svg width="24" height="24" viewBox="0 0 24 24" fill="none" xmlns="http://www.w3.org/2000/svg">
<path d="M13.5936 1.50035H4.87487C4.5765 1.50035 4.29035 1.61888 4.07938 1.82986C3.8684 2.04084 3.74987 2.32699 3.74987 2.62535V21.3754C3.74987 21.6737 3.8684 21.9599 4.07938 22.1709C4.29035 22.3818 4.5765 22.5004 4.87487 22.5004H13.5936V1.50035ZM19.1249 1.50035H16.4061V22.5004H19.1249C19.4232 22.5004 19.7094 22.3818 19.9204 22.1709C20.1313 21.9599 20.2499 21.6737 20.2499 21.3754V2.62535C20.2499 2.32699 20.1313 2.04084 19.9204 1.82986C19.7094 1.61888 19.4232 1.50035 19.1249 1.50035Z" fill="#666666"/>
</svg>
