<svg width="24" height="24" viewBox="0 0 24 24" fill="none" xmlns="http://www.w3.org/2000/svg">
<path d="M13.5938 1.50035H6.75008C5.95469 1.50122 5.19214 1.81757 4.62972 2.37999C4.06729 2.94241 3.75094 3.70497 3.75008 4.50036V19.5004C3.75094 20.2957 4.06729 21.0583 4.62972 21.6207C5.19214 22.1831 5.95469 22.4995 6.75008 22.5004H13.5938V1.50035ZM17.2501 1.50035H16.4063V22.5004H17.2501C18.0455 22.4995 18.808 22.1831 19.3704 21.6207C19.9329 21.0583 20.2492 20.2957 20.2501 19.5004V4.50036C20.2492 3.70497 19.9329 2.94241 19.3704 2.37999C18.808 1.81757 18.0455 1.50122 17.2501 1.50035Z" fill="#666666"/>
</svg>
