<svg width="24" height="24" viewBox="0 0 24 24" fill="none" xmlns="http://www.w3.org/2000/svg">
<path d="M10.2235 7.83465C10.2235 8.44402 10.2235 9.03465 10.4157 9.58777C8.39539 11.9596 3.06101 18.2268 2.56414 18.705C2.46539 18.7936 2.38639 18.902 2.33228 19.0231C2.27817 19.1442 2.25016 19.2754 2.25008 19.4081C2.25008 19.8065 2.49383 20.1909 2.70008 20.4065C3.00945 20.73 4.33133 21.9534 4.57508 21.719C5.29695 21.0159 5.44226 20.8284 5.73758 20.5378C6.18289 20.1018 5.6907 19.2112 5.84539 18.8503C6.00008 18.4893 6.16414 18.419 6.43133 18.3628C6.69851 18.3065 7.17195 18.4987 7.54226 18.5034C7.93133 18.5081 8.14226 18.344 8.43289 18.0722C8.66726 17.8565 8.83601 17.655 8.8407 17.3409C8.85008 16.919 8.2407 16.3612 8.69539 15.9159C9.15008 15.4706 9.80633 16.2065 10.2891 16.1503C10.772 16.094 11.3579 15.4237 11.4188 15.1378C11.4798 14.8518 10.8704 14.1159 10.9641 13.6987C10.997 13.5581 11.2829 13.23 11.4985 13.1831C11.7141 13.1362 12.6704 13.5065 12.886 13.4597C13.1485 13.4034 13.4532 13.1268 13.7016 12.9721C14.4282 13.2862 15.0891 13.4128 15.9376 13.4128C19.1485 13.4128 21.7501 10.9096 21.7501 7.82527C21.7501 4.7409 19.1485 2.24855 15.9376 2.24855C12.7266 2.24855 10.2235 4.75027 10.2235 7.83465V7.83465ZM18.7501 6.74855C18.7501 7.04523 18.6621 7.33524 18.4973 7.58191C18.3325 7.82858 18.0982 8.02084 17.8241 8.13437C17.55 8.24791 17.2484 8.27761 16.9574 8.21973C16.6665 8.16185 16.3992 8.01899 16.1894 7.80921C15.9796 7.59944 15.8368 7.33216 15.7789 7.04119C15.721 6.75022 15.7507 6.44862 15.8643 6.17453C15.9778 5.90044 16.17 5.66617 16.4167 5.50135C16.6634 5.33653 16.9534 5.24855 17.2501 5.24855C17.6479 5.24855 18.0294 5.40659 18.3107 5.68789C18.592 5.9692 18.7501 6.35073 18.7501 6.74855Z" stroke="#666666" stroke-width="1.5" stroke-linejoin="round"/>
</svg>
