<svg width="24" height="24" viewBox="0 0 24 24" fill="none" xmlns="http://www.w3.org/2000/svg">
<path d="M10.2234 7.83696C10.2234 8.44634 10.2234 9.03696 10.4156 9.59009C8.39529 11.962 2.56404 18.7073 2.56404 18.7073L2.69998 20.4088C2.69998 20.4088 4.33123 21.9557 4.57498 21.7213C5.29685 21.0182 5.73748 20.5401 5.73748 20.5401L6.07685 18.5081L8.28514 18.3454L8.46232 16.1516L10.7887 16.1071L10.8117 13.7591L13.2815 13.8576L13.7034 12.9745C14.43 13.2885 15.0909 13.4151 15.9394 13.4151C19.1503 13.4151 21.7519 10.912 21.7519 7.82759C21.7519 4.74321 19.1484 2.24946 15.9375 2.24946C12.7265 2.24946 10.2234 4.75258 10.2234 7.83696ZM19.0711 6.74946C19.0711 7.10964 18.9643 7.46173 18.7642 7.76121C18.5641 8.06068 18.2796 8.2941 17.9469 8.43193C17.6141 8.56977 17.248 8.60583 16.8947 8.53556C16.5414 8.4653 16.217 8.29185 15.9623 8.03717C15.7076 7.78248 15.5341 7.458 15.4639 7.10474C15.3936 6.75148 15.4297 6.38532 15.5675 6.05256C15.7053 5.7198 15.9388 5.43538 16.2382 5.23528C16.5377 5.03517 16.8898 4.92837 17.25 4.92837C17.4892 4.92812 17.7261 4.97506 17.9472 5.06649C18.1682 5.15792 18.3691 5.29205 18.5382 5.4612C18.7074 5.63036 18.8415 5.83121 18.933 6.05227C19.0244 6.27332 19.0713 6.51024 19.0711 6.74946Z" fill="#666666"/>
</svg>
