<svg width="24" height="24" viewBox="0 0 24 24" fill="none" xmlns="http://www.w3.org/2000/svg">
<path d="M10.2234 7.83556C10.2234 8.44493 10.2234 9.03556 10.4156 9.58868C8.39532 11.9606 3.06095 18.2277 2.56407 18.7059C2.46532 18.7945 2.38632 18.9029 2.33221 19.024C2.2781 19.1452 2.25009 19.2763 2.25001 19.409C2.25001 19.8074 2.49376 20.1918 2.70001 20.4074C3.00938 20.7309 4.33126 21.9543 4.57501 21.7199C5.29688 21.0168 5.4422 20.8293 5.73751 20.5387C6.18282 20.1027 5.69063 19.2121 5.84532 18.8512C6.00001 18.4902 6.16407 18.4199 6.43126 18.3637C6.69845 18.3074 7.17188 18.4996 7.5422 18.5043C7.93126 18.509 8.1422 18.3449 8.43282 18.0731C8.6672 17.8574 8.83595 17.6559 8.84063 17.3418C8.85001 16.9199 8.24063 16.3621 8.69532 15.9168C9.15001 15.4715 9.80626 16.2074 10.2891 16.1512C10.7719 16.0949 11.3578 15.4246 11.4188 15.1387C11.4797 14.8527 10.8703 14.1168 10.9641 13.6996C10.9969 13.559 11.2828 13.2309 11.4984 13.184C11.7141 13.1371 12.6703 13.5074 12.8859 13.4606C13.1484 13.4043 13.4531 13.1277 13.7016 12.9731C14.4281 13.2871 15.0891 13.4137 15.9375 13.4137C19.1484 13.4137 21.75 10.9106 21.75 7.82618C21.75 4.7418 19.1484 2.24946 15.9375 2.24946C12.7266 2.24946 10.2234 4.75118 10.2234 7.83556ZM18.75 6.74946C18.75 7.04613 18.662 7.33614 18.4972 7.58282C18.3324 7.82949 18.0981 8.02175 17.824 8.13528C17.5499 8.24881 17.2483 8.27852 16.9574 8.22064C16.6664 8.16276 16.3991 8.0199 16.1893 7.81012C15.9796 7.60034 15.8367 7.33307 15.7788 7.0421C15.721 6.75113 15.7507 6.44953 15.8642 6.17544C15.9777 5.90135 16.17 5.66708 16.4167 5.50226C16.6633 5.33743 16.9533 5.24946 17.25 5.24946C17.6478 5.24946 18.0294 5.4075 18.3107 5.6888C18.592 5.97011 18.75 6.35164 18.75 6.74946Z" fill="#666666"/>
</svg>
