<svg width="24" height="24" viewBox="0 0 24 24" fill="none" xmlns="http://www.w3.org/2000/svg">
<g clip-path="url(#clip0_32_2040)">
<path d="M7.87505 0.748558H4.12505C3.91794 0.748558 3.75005 0.916451 3.75005 1.12356V4.87356C3.75005 5.08066 3.91794 5.24856 4.12505 5.24856H7.87505C8.08215 5.24856 8.25005 5.08066 8.25005 4.87356V1.12356C8.25005 0.916451 8.08215 0.748558 7.87505 0.748558Z" fill="#666666"/>
<path d="M13.875 0.748558H10.125C9.91789 0.748558 9.74999 0.916451 9.74999 1.12356V4.87356C9.74999 5.08066 9.91789 5.24856 10.125 5.24856H13.875C14.0821 5.24856 14.25 5.08066 14.25 4.87356V1.12356C14.25 0.916451 14.0821 0.748558 13.875 0.748558Z" fill="#666666"/>
<path d="M19.8749 0.748558H16.1249C15.9178 0.748558 15.7499 0.916451 15.7499 1.12356V4.87356C15.7499 5.08066 15.9178 5.24856 16.1249 5.24856H19.8749C20.082 5.24856 20.2499 5.08066 20.2499 4.87356V1.12356C20.2499 0.916451 20.082 0.748558 19.8749 0.748558Z" fill="#666666"/>
<path d="M7.87505 6.74766H4.12505C3.91794 6.74766 3.75005 6.91555 3.75005 7.12266V10.8727C3.75005 11.0798 3.91794 11.2477 4.12505 11.2477H7.87505C8.08215 11.2477 8.25005 11.0798 8.25005 10.8727V7.12266C8.25005 6.91555 8.08215 6.74766 7.87505 6.74766Z" fill="#666666"/>
<path d="M13.875 6.74766H10.125C9.91789 6.74766 9.74999 6.91555 9.74999 7.12266V10.8727C9.74999 11.0798 9.91789 11.2477 10.125 11.2477H13.875C14.0821 11.2477 14.25 11.0798 14.25 10.8727V7.12266C14.25 6.91555 14.0821 6.74766 13.875 6.74766Z" fill="#666666"/>
<path d="M19.8749 6.74766H16.1249C15.9178 6.74766 15.7499 6.91555 15.7499 7.12266V10.8727C15.7499 11.0798 15.9178 11.2477 16.1249 11.2477H19.8749C20.082 11.2477 20.2499 11.0798 20.2499 10.8727V7.12266C20.2499 6.91555 20.082 6.74766 19.8749 6.74766Z" fill="#666666"/>
<path d="M7.87505 12.7468H4.12505C3.91794 12.7468 3.75005 12.9147 3.75005 13.1218V16.8718C3.75005 17.0789 3.91794 17.2468 4.12505 17.2468H7.87505C8.08215 17.2468 8.25005 17.0789 8.25005 16.8718V13.1218C8.25005 12.9147 8.08215 12.7468 7.87505 12.7468Z" fill="#666666"/>
<path d="M13.875 12.7468H10.125C9.91789 12.7468 9.74999 12.9147 9.74999 13.1218V16.8718C9.74999 17.0789 9.91789 17.2468 10.125 17.2468H13.875C14.0821 17.2468 14.25 17.0789 14.25 16.8718V13.1218C14.25 12.9147 14.0821 12.7468 13.875 12.7468Z" fill="#666666"/>
<path d="M13.875 18.7459H10.125C9.91789 18.7459 9.74999 18.9138 9.74999 19.1209V22.8709C9.74999 23.078 9.91789 23.2459 10.125 23.2459H13.875C14.0821 23.2459 14.25 23.078 14.25 22.8709V19.1209C14.25 18.9138 14.0821 18.7459 13.875 18.7459Z" fill="#666666"/>
<path d="M19.8749 12.7468H16.1249C15.9178 12.7468 15.7499 12.9147 15.7499 13.1218V16.8718C15.7499 17.0789 15.9178 17.2468 16.1249 17.2468H19.8749C20.082 17.2468 20.2499 17.0789 20.2499 16.8718V13.1218C20.2499 12.9147 20.082 12.7468 19.8749 12.7468Z" fill="#666666"/>
</g>
<defs>
<clipPath id="clip0_32_2040">
<rect width="24" height="24" fill="white" transform="translate(0 -0.00390625)"/>
</clipPath>
</defs>
</svg>
