<svg width="24" height="24" viewBox="0 0 24 24" fill="none" xmlns="http://www.w3.org/2000/svg">
<g clip-path="url(#clip0_32_2051)">
<path d="M12 18.7486C11.555 18.7486 11.1199 18.8805 10.7499 19.1278C10.3799 19.375 10.0915 19.7264 9.92124 20.1375C9.75094 20.5487 9.70639 21.0011 9.7932 21.4375C9.88002 21.874 10.0943 22.2749 10.409 22.5896C10.7236 22.9042 11.1246 23.1185 11.561 23.2053C11.9975 23.2921 12.4499 23.2476 12.861 23.0773C13.2721 22.907 13.6235 22.6186 13.8708 22.2486C14.118 21.8786 14.25 21.4436 14.25 20.9986C14.25 20.4018 14.0129 19.8295 13.591 19.4076C13.169 18.9856 12.5967 18.7486 12 18.7486ZM12 12.7486C11.555 12.7486 11.1199 12.8805 10.7499 13.1278C10.3799 13.375 10.0915 13.7264 9.92124 14.1375C9.75094 14.5487 9.70639 15.0011 9.7932 15.4375C9.88002 15.874 10.0943 16.2749 10.409 16.5896C10.7236 16.9042 11.1246 17.1185 11.561 17.2053C11.9975 17.2921 12.4499 17.2476 12.861 17.0773C13.2721 16.907 13.6235 16.6186 13.8708 16.2486C14.118 15.8786 14.25 15.4436 14.25 14.9986C14.25 14.4018 14.0129 13.8295 13.591 13.4076C13.169 12.9856 12.5967 12.7486 12 12.7486ZM12 6.74856C11.555 6.74856 11.1199 6.88052 10.7499 7.12775C10.3799 7.37499 10.0915 7.72639 9.92124 8.13752C9.75094 8.54866 9.70639 9.00106 9.7932 9.43751C9.88002 9.87397 10.0943 10.2749 10.409 10.5895C10.7236 10.9042 11.1246 11.1185 11.561 11.2053C11.9975 11.2921 12.4499 11.2476 12.861 11.0773C13.2721 10.907 13.6235 10.6186 13.8708 10.2486C14.118 9.87858 14.25 9.44357 14.25 8.99856C14.25 8.40182 14.0129 7.82953 13.591 7.40757C13.169 6.98561 12.5967 6.74856 12 6.74856ZM12 0.748558C11.555 0.748558 11.1199 0.880518 10.7499 1.12775C10.3799 1.37498 10.0915 1.72639 9.92124 2.13752C9.75094 2.54865 9.70639 3.00105 9.7932 3.43751C9.88002 3.87397 10.0943 4.27488 10.409 4.58955C10.7236 4.90422 11.1246 5.11851 11.561 5.20533C11.9975 5.29214 12.4499 5.24758 12.861 5.07729C13.2721 4.90699 13.6235 4.6186 13.8708 4.24859C14.118 3.87858 14.25 3.44357 14.25 2.99856C14.25 2.40182 14.0129 1.82952 13.591 1.40757C13.169 0.985611 12.5967 0.748558 12 0.748558ZM18 12.7486C17.555 12.7486 17.1199 12.8805 16.7499 13.1278C16.3799 13.375 16.0915 13.7264 15.9212 14.1375C15.7509 14.5487 15.7064 15.0011 15.7932 15.4375C15.88 15.874 16.0943 16.2749 16.409 16.5896C16.7236 16.9042 17.1246 17.1185 17.561 17.2053C17.9975 17.2921 18.4499 17.2476 18.861 17.0773C19.2721 16.907 19.6235 16.6186 19.8708 16.2486C20.118 15.8786 20.25 15.4436 20.25 14.9986C20.25 14.4018 20.0129 13.8295 19.591 13.4076C19.169 12.9856 18.5967 12.7486 18 12.7486ZM18 6.74856C17.555 6.74856 17.1199 6.88052 16.7499 7.12775C16.3799 7.37499 16.0915 7.72639 15.9212 8.13752C15.7509 8.54866 15.7064 9.00106 15.7932 9.43751C15.88 9.87397 16.0943 10.2749 16.409 10.5895C16.7236 10.9042 17.1246 11.1185 17.561 11.2053C17.9975 11.2921 18.4499 11.2476 18.861 11.0773C19.2721 10.907 19.6235 10.6186 19.8708 10.2486C20.118 9.87858 20.25 9.44357 20.25 8.99856C20.25 8.40182 20.0129 7.82953 19.591 7.40757C19.169 6.98561 18.5967 6.74856 18 6.74856ZM18 0.748558C17.555 0.748558 17.1199 0.880518 16.7499 1.12775C16.3799 1.37498 16.0915 1.72639 15.9212 2.13752C15.7509 2.54865 15.7064 3.00105 15.7932 3.43751C15.88 3.87397 16.0943 4.27488 16.409 4.58955C16.7236 4.90422 17.1246 5.11851 17.561 5.20533C17.9975 5.29214 18.4499 5.24758 18.861 5.07729C19.2721 4.90699 19.6235 4.6186 19.8708 4.24859C20.118 3.87858 20.25 3.44357 20.25 2.99856C20.25 2.40182 20.0129 1.82952 19.591 1.40757C19.169 0.985611 18.5967 0.748558 18 0.748558ZM5.99997 12.7486C5.55496 12.7486 5.11995 12.8805 4.74994 13.1278C4.37992 13.375 4.09154 13.7264 3.92124 14.1375C3.75094 14.5487 3.70638 15.0011 3.7932 15.4375C3.88002 15.874 4.09431 16.2749 4.40898 16.5896C4.72365 16.9042 5.12456 17.1185 5.56102 17.2053C5.99747 17.2921 6.44987 17.2476 6.86101 17.0773C7.27214 16.907 7.62354 16.6186 7.87078 16.2486C8.11801 15.8786 8.24997 15.4436 8.24997 14.9986C8.24997 14.4018 8.01292 13.8295 7.59096 13.4076C7.169 12.9856 6.59671 12.7486 5.99997 12.7486ZM5.99997 6.74856C5.55496 6.74856 5.11995 6.88052 4.74994 7.12775C4.37992 7.37499 4.09154 7.72639 3.92124 8.13752C3.75094 8.54866 3.70638 9.00106 3.7932 9.43751C3.88002 9.87397 4.09431 10.2749 4.40898 10.5895C4.72365 10.9042 5.12456 11.1185 5.56102 11.2053C5.99747 11.2921 6.44987 11.2476 6.86101 11.0773C7.27214 10.907 7.62354 10.6186 7.87078 10.2486C8.11801 9.87858 8.24997 9.44357 8.24997 8.99856C8.24997 8.40182 8.01292 7.82953 7.59096 7.40757C7.169 6.98561 6.59671 6.74856 5.99997 6.74856ZM5.99997 0.748558C5.55496 0.748558 5.11995 0.880518 4.74994 1.12775C4.37992 1.37498 4.09154 1.72639 3.92124 2.13752C3.75094 2.54865 3.70638 3.00105 3.7932 3.43751C3.88002 3.87397 4.09431 4.27488 4.40898 4.58955C4.72365 4.90422 5.12456 5.11851 5.56102 5.20533C5.99747 5.29214 6.44987 5.24758 6.86101 5.07729C7.27214 4.90699 7.62354 4.6186 7.87078 4.24859C8.11801 3.87858 8.24997 3.44357 8.24997 2.99856C8.24997 2.40182 8.01292 1.82952 7.59096 1.40757C7.169 0.985611 6.59671 0.748558 5.99997 0.748558Z" fill="#666666"/>
</g>
<defs>
<clipPath id="clip0_32_2051">
<rect width="24" height="24" fill="white" transform="translate(0 -0.00390625)"/>
</clipPath>
</defs>
</svg>
