<svg width="24" height="24" viewBox="0 0 24 24" fill="none" xmlns="http://www.w3.org/2000/svg">
<g clip-path="url(#clip0_32_2029)">
<path d="M12 22.4986C12.8284 22.4986 13.5 21.827 13.5 20.9986C13.5 20.1701 12.8284 19.4986 12 19.4986C11.1715 19.4986 10.5 20.1701 10.5 20.9986C10.5 21.827 11.1715 22.4986 12 22.4986Z" stroke="#666666" stroke-width="1.5" stroke-miterlimit="10"/>
<path d="M12 16.4995C12.8284 16.4995 13.5 15.8279 13.5 14.9995C13.5 14.171 12.8284 13.4995 12 13.4995C11.1715 13.4995 10.5 14.171 10.5 14.9995C10.5 15.8279 11.1715 16.4995 12 16.4995Z" stroke="#666666" stroke-width="1.5" stroke-miterlimit="10"/>
<path d="M13.5 9.00036C13.5 9.29703 13.412 9.58704 13.2472 9.83372C13.0823 10.0804 12.8481 10.2727 12.574 10.3862C12.2999 10.4997 11.9983 10.5294 11.7073 10.4715C11.4164 10.4137 11.1491 10.2708 10.9393 10.061C10.7295 9.85124 10.5867 9.58397 10.5288 9.293C10.4709 9.00203 10.5006 8.70043 10.6141 8.42634C10.7277 8.15225 10.9199 7.91798 11.1666 7.75316C11.4133 7.58834 11.7033 7.50036 12 7.50036C12.3978 7.50036 12.7793 7.6584 13.0606 7.9397C13.3419 8.22101 13.5 8.60254 13.5 9.00036Z" stroke="#666666" stroke-width="1.5" stroke-miterlimit="10"/>
<path d="M12 4.49676C12.8284 4.49676 13.5 3.82518 13.5 2.99676C13.5 2.16833 12.8284 1.49676 12 1.49676C11.1715 1.49676 10.5 2.16833 10.5 2.99676C10.5 3.82518 11.1715 4.49676 12 4.49676Z" stroke="#666666" stroke-width="1.5" stroke-miterlimit="10"/>
<path d="M18 16.4995C18.8285 16.4995 19.5 15.8279 19.5 14.9995C19.5 14.171 18.8285 13.4995 18 13.4995C17.1716 13.4995 16.5 14.171 16.5 14.9995C16.5 15.8279 17.1716 16.4995 18 16.4995Z" stroke="#666666" stroke-width="1.5" stroke-miterlimit="10"/>
<path d="M18 10.5004C18.8285 10.5004 19.5 9.82879 19.5 9.00036C19.5 8.17194 18.8285 7.50036 18 7.50036C17.1716 7.50036 16.5 8.17194 16.5 9.00036C16.5 9.82879 17.1716 10.5004 18 10.5004Z" stroke="#666666" stroke-width="1.5" stroke-miterlimit="10"/>
<path d="M18 4.49676C18.8285 4.49676 19.5 3.82518 19.5 2.99676C19.5 2.16833 18.8285 1.49676 18 1.49676C17.1716 1.49676 16.5 2.16833 16.5 2.99676C16.5 3.82518 17.1716 4.49676 18 4.49676Z" stroke="#666666" stroke-width="1.5" stroke-miterlimit="10"/>
<path d="M6.00002 16.4995C6.82844 16.4995 7.50002 15.8279 7.50002 14.9995C7.50002 14.171 6.82844 13.4995 6.00002 13.4995C5.17159 13.4995 4.50002 14.171 4.50002 14.9995C4.50002 15.8279 5.17159 16.4995 6.00002 16.4995Z" stroke="#666666" stroke-width="1.5" stroke-miterlimit="10"/>
<path d="M6.00002 10.5004C6.82844 10.5004 7.50002 9.82879 7.50002 9.00036C7.50002 8.17194 6.82844 7.50036 6.00002 7.50036C5.17159 7.50036 4.50002 8.17194 4.50002 9.00036C4.50002 9.82879 5.17159 10.5004 6.00002 10.5004Z" stroke="#666666" stroke-width="1.5" stroke-miterlimit="10"/>
<path d="M6.00002 4.49676C6.82844 4.49676 7.50002 3.82518 7.50002 2.99676C7.50002 2.16833 6.82844 1.49676 6.00002 1.49676C5.17159 1.49676 4.50002 2.16833 4.50002 2.99676C4.50002 3.82518 5.17159 4.49676 6.00002 4.49676Z" stroke="#666666" stroke-width="1.5" stroke-miterlimit="10"/>
</g>
<defs>
<clipPath id="clip0_32_2029">
<rect width="24" height="24" fill="white" transform="translate(0.00012207 -0.00390625)"/>
</clipPath>
</defs>
</svg>
