<svg width="24" height="24" viewBox="0 0 24 24" fill="none" xmlns="http://www.w3.org/2000/svg">
<path d="M17.0156 8.24946L11.5313 21.7495H13.7456L14.8936 19.0307H19.1377L20.2856 21.7495H22.5L17.0156 8.24946ZM15.7645 16.9682L17.0156 13.1174L18.2667 16.9682H15.7645ZM12.75 14.9995C12.7383 14.9906 11.7849 14.2602 10.6209 12.9993C12.4763 10.4849 13.5272 7.62696 13.9561 6.28071H16.5V4.21821H10.0313V2.24946H7.96876V4.21821H1.50001V6.28071H11.7774C11.3311 7.54399 10.5094 9.53852 9.25594 11.3601C7.72407 9.32384 7.04626 7.80321 7.03735 7.78727L6.70313 7.12446L4.92188 8.15571L5.24391 8.8054C5.28563 8.87852 6.04969 10.582 7.80844 12.8634C7.85157 12.9201 7.89516 12.9754 7.93876 13.0307C5.60813 15.696 3.75985 16.7381 3.73594 16.7559L3.00001 17.2495L4.07813 18.937L4.98282 18.3993C5.08594 18.321 6.92016 17.2743 9.29532 14.6127C10.4447 15.8446 11.3213 16.5266 11.3719 16.566L11.9531 16.9682L12.75 14.9995Z" fill="#666666"/>
</svg>
