<svg width="24" height="24" viewBox="0 0 24 24" fill="none" xmlns="http://www.w3.org/2000/svg">
<path d="M22.4216 20.3245L18.2029 10.1057C18.125 9.917 17.9928 9.75566 17.8231 9.64214C17.6534 9.52861 17.4539 9.46801 17.2497 9.46801C17.0455 9.46801 16.846 9.52861 16.6763 9.64214C16.5066 9.75566 16.3744 9.917 16.2965 10.1057L12.0777 20.3245C12.0253 20.4498 11.9981 20.5842 11.9978 20.7201C11.9974 20.8559 12.0239 20.9905 12.0757 21.1161C12.1276 21.2417 12.2037 21.3558 12.2998 21.4518C12.3958 21.5479 12.5099 21.624 12.6355 21.6759C12.7611 21.7277 12.8956 21.7542 13.0315 21.7539C13.1673 21.7536 13.3018 21.7264 13.4271 21.674C13.5524 21.6215 13.6662 21.5448 13.7618 21.4483C13.8573 21.3518 13.9329 21.2373 13.9841 21.1115L14.8434 19.0307H19.656L20.5152 21.1115C20.5931 21.3003 20.7253 21.4617 20.8951 21.5753C21.0648 21.6889 21.2644 21.7495 21.4687 21.7495C21.6381 21.7494 21.805 21.7075 21.9544 21.6276C22.1038 21.5477 22.2313 21.4322 22.3254 21.2913C22.4196 21.1504 22.4776 20.9885 22.4943 20.8199C22.511 20.6512 22.4859 20.4811 22.4212 20.3245H22.4216ZM15.6951 16.9682L17.2499 13.2018L18.8048 16.9682H15.6951ZM12.5549 16.0738C12.7151 15.8525 12.781 15.5767 12.738 15.3069C12.695 15.0371 12.5468 14.7954 12.3257 14.6348C12.3163 14.6277 11.6226 14.1131 10.6152 13.0068C12.4738 10.4906 13.5266 7.6279 13.956 6.28071H15.4687C15.7422 6.28071 16.0045 6.17206 16.1979 5.97866C16.3913 5.78527 16.4999 5.52296 16.4999 5.24946C16.4999 4.97596 16.3913 4.71365 16.1979 4.52026C16.0045 4.32686 15.7422 4.21821 15.4687 4.21821H10.0312V3.28071C10.0312 3.00721 9.92253 2.7449 9.72913 2.55151C9.53574 2.35811 9.27343 2.24946 8.99993 2.24946C8.72642 2.24946 8.46412 2.35811 8.27073 2.55151C8.07733 2.7449 7.96868 3.00721 7.96868 3.28071V4.21821H2.53118C2.25767 4.21821 1.99537 4.32686 1.80197 4.52026C1.60858 4.71365 1.49993 4.97596 1.49993 5.24946C1.49993 5.52296 1.60858 5.78527 1.80197 5.97866C1.99537 6.17206 2.25767 6.28071 2.53118 6.28071H11.7773C11.331 7.54399 10.5093 9.53852 9.25587 11.3601C7.78352 9.40634 7.23649 8.14212 7.23227 8.1318C7.12448 7.8827 6.92284 7.68614 6.67107 7.58475C6.4193 7.48336 6.1377 7.48531 5.88736 7.59018C5.63702 7.69506 5.43812 7.8944 5.3338 8.14497C5.22947 8.39554 5.22814 8.67713 5.33008 8.92868C5.35727 8.99337 6.01212 10.5332 7.8079 12.8629C7.85102 12.9187 7.89368 12.9731 7.93634 13.0274C6.09696 15.1063 4.29227 16.3959 3.53712 16.8121C3.29699 16.9431 3.11873 17.1641 3.04155 17.4265C2.96436 17.6889 2.99458 17.9712 3.12555 18.2113C3.25652 18.4515 3.47752 18.6297 3.73993 18.7069C4.00233 18.7841 4.28465 18.7539 4.52477 18.6229C4.62602 18.5676 6.8029 17.3624 9.28868 14.6109C10.3443 15.7396 11.0699 16.2721 11.1135 16.3031C11.2232 16.3827 11.3475 16.44 11.4794 16.4716C11.6112 16.5031 11.748 16.5084 11.8819 16.4871C12.0157 16.4657 12.1441 16.4182 12.2596 16.3472C12.3751 16.2762 12.4754 16.1832 12.5549 16.0734V16.0738Z" fill="#666666"/>
</svg>
