<svg width="24" height="24" viewBox="0 0 24 24" fill="none" xmlns="http://www.w3.org/2000/svg">
<path d="M23.25 18.7468H21.9216C22.2943 18.3336 22.5005 17.7967 22.5 17.2402V6.00332C22.4993 5.40508 22.2613 4.83154 21.8383 4.40852C21.4152 3.98549 20.8417 3.74751 20.2434 3.74676H3.75656C3.15831 3.74751 2.58478 3.98549 2.16175 4.40852C1.73873 4.83154 1.50074 5.40508 1.5 6.00332V17.2402C1.49953 17.7967 1.70566 18.3336 2.07844 18.7468H0.75C0.551088 18.7468 0.360322 18.8258 0.21967 18.9664C0.0790177 19.1071 0 19.2979 0 19.4968C0 19.6957 0.0790177 19.8864 0.21967 20.0271C0.360322 20.1677 0.551088 20.2468 0.75 20.2468H23.25C23.4489 20.2468 23.6397 20.1677 23.7803 20.0271C23.921 19.8864 24 19.6957 24 19.4968C24 19.2979 23.921 19.1071 23.7803 18.9664C23.6397 18.8258 23.4489 18.7468 23.25 18.7468Z" fill="#666666"/>
</svg>
