<svg width="24" height="24" viewBox="0 0 24 24" fill="none" xmlns="http://www.w3.org/2000/svg">
<path d="M12 11.9959C11.3686 11.9959 10.7372 11.8838 10.245 11.6598L3.30749 8.49617C2.99014 8.3518 2.24999 7.92945 2.24999 7.13211C2.24999 6.33477 2.99014 5.91336 3.30843 5.76711L10.3059 2.57633C11.2701 2.1357 12.7251 2.1357 13.6898 2.57633L20.6916 5.76711C21.0098 5.91195 21.75 6.3343 21.75 7.13211C21.75 7.92992 21.0098 8.35086 20.6916 8.49664L13.7541 11.6598C13.2628 11.8838 12.6314 11.9959 12 11.9959Z" fill="#666666"/>
<path d="M20.6887 10.6285L19.9814 10.3093L18.1641 11.1408L13.7578 13.1565C13.2656 13.3815 12.6328 13.4935 12.0028 13.4935C11.3728 13.4935 10.7405 13.3815 10.2487 13.1565L5.83921 11.1408L4.02139 10.3093L3.30796 10.6299C2.99014 10.7747 2.24999 11.1999 2.24999 11.9968C2.24999 12.7936 2.99014 13.2193 3.30749 13.3641L10.245 16.5343C10.7344 16.7593 11.3667 16.8718 12 16.8718C12.6333 16.8718 13.2628 16.7593 13.755 16.5347L20.6864 13.3655C21.0056 13.2207 21.75 12.7979 21.75 11.9968C21.75 11.1957 21.0108 10.7747 20.6887 10.6285Z" fill="#666666"/>
<path d="M20.6887 15.5048L19.9814 15.1861L18.1641 16.0172L13.7578 18.0304C13.2656 18.2545 12.6328 18.367 12.0028 18.367C11.3728 18.367 10.7405 18.255 10.2487 18.0304L5.83921 16.0148L4.02139 15.1861L3.30796 15.5067C2.99014 15.6515 2.24999 16.0767 2.24999 16.8736C2.24999 17.6704 2.99014 18.0956 3.30749 18.24L10.245 21.4083C10.7344 21.6323 11.3691 21.7486 12 21.7486C12.6309 21.7486 13.26 21.6323 13.7522 21.4078L20.6859 18.2404C21.0056 18.0961 21.75 17.6733 21.75 16.8736C21.75 16.0739 21.0108 15.6515 20.6887 15.5048Z" fill="#666666"/>
</svg>
