<svg width="24" height="24" viewBox="0 0 24 24" fill="none" xmlns="http://www.w3.org/2000/svg">
<path d="M7.5 14.4604L3.62343 16.2C2.79843 16.575 2.79843 17.189 3.62343 17.564L10.5609 20.7281C11.3527 21.0886 12.6558 21.0886 13.4475 20.7281L20.385 17.564C21.21 17.189 21.21 16.575 20.385 16.2L16.6378 14.3967M20.3812 6.45091L13.38 3.25872C12.6211 2.91185 11.3789 2.91185 10.62 3.25872L3.62343 6.45091C2.79843 6.82591 2.79843 7.4395 3.62343 7.8145L10.5609 10.9786C11.3527 11.3395 12.6558 11.3395 13.4475 10.9786L20.385 7.8145C21.2062 7.4395 21.2062 6.82544 20.3812 6.45091Z" stroke="#666666" stroke-width="1.5" stroke-linecap="round" stroke-linejoin="round"/>
<path d="M7.50004 9.5836L3.61879 11.3255C2.79379 11.7005 2.79379 12.3145 3.61879 12.6895L10.5563 15.8531C11.348 16.2141 12.6511 16.2141 13.4429 15.8531L20.3804 12.6895C21.21 12.3145 21.21 11.7005 20.385 11.3255L16.5 9.5836" stroke="#666666" stroke-width="1.5" stroke-linecap="round" stroke-linejoin="round"/>
</svg>
