<svg width="24" height="24" viewBox="0 0 24 24" fill="none" xmlns="http://www.w3.org/2000/svg">
<path d="M7.04907 11.89L8.07751 10.7978L8.6236 11.3134C12.075 14.5647 15.5381 16.5428 19.6134 17.5511C20.1633 16.0511 20.212 14.4002 19.7372 12.7895C19.1072 10.6525 17.64 8.79062 15.4955 7.40546C13.6088 6.18671 11.9049 5.90125 10.1006 5.5989C9.11063 5.43296 8.08501 5.2614 6.96704 4.9225C4.91485 4.29999 2.76282 2.45031 2.74126 2.43203L1.56563 1.41203L1.50001 2.96734C1.49532 3.08734 1.38657 5.94718 2.16657 9.89406C2.99063 14.0659 4.52157 17.1995 6.71673 19.2048C8.49798 20.8309 10.8239 21.7314 13.1353 21.7314C13.5712 21.7317 14.0065 21.6992 14.4375 21.6344C16.3931 21.3381 18.0202 20.3561 18.9375 18.9273C14.7422 17.8361 11.1586 15.7609 7.59376 12.4042L7.04907 11.89Z" fill="#666666"/>
<path d="M21.9107 18.0058C21.1218 17.8844 20.3578 17.7321 19.6139 17.5478C19.4607 17.9653 19.2704 18.3682 19.0453 18.7516C19.0106 18.8102 18.9745 18.8683 18.9379 18.9255C19.8426 19.1598 20.7586 19.3475 21.6825 19.488L22.424 19.6024L22.6518 18.1197L21.9107 18.0058Z" fill="#666666"/>
</svg>
