<svg width="24" height="24" viewBox="0 0 24 24" fill="none" xmlns="http://www.w3.org/2000/svg">
<path d="M7.56333 11.3411C7.63085 11.2694 7.71184 11.2117 7.80168 11.1712C7.89151 11.1308 7.98842 11.1085 8.08689 11.1055C8.18535 11.1026 8.28343 11.119 8.37553 11.154C8.46763 11.1889 8.55194 11.2417 8.62365 11.3092C12.0751 14.5605 15.5382 16.5386 19.6135 17.5469C20.1633 16.0469 20.2121 14.3959 19.7372 12.7853C19.1072 10.6483 17.6401 8.78642 15.4955 7.40126C13.5811 6.1647 11.6677 5.84266 9.81661 5.53141C7.4813 5.1386 5.27536 4.76735 3.17021 2.53845C2.93583 2.29188 2.61661 2.19298 2.31146 2.27313C1.96271 2.36688 1.7288 2.64251 1.61677 3.09813C1.35427 4.16454 1.52302 7.15329 2.2613 10.3084C3.44677 15.3775 5.33864 17.9425 6.71724 19.202C8.49849 20.8281 10.8244 21.7286 13.1358 21.7286C13.5715 21.7293 14.0066 21.6973 14.4376 21.633C16.3927 21.3367 18.0202 20.3547 18.9376 18.9259C14.7427 17.8347 11.1591 15.7595 7.5938 12.4028C7.52196 12.3352 7.46418 12.254 7.42376 12.164C7.38333 12.074 7.36107 11.9769 7.35824 11.8783C7.35541 11.7797 7.37207 11.6814 7.40726 11.5893C7.44245 11.4971 7.49549 11.4128 7.56333 11.3411ZM21.9108 18.0063C21.1219 17.8849 20.3579 17.7325 19.614 17.5483C19.461 17.9658 19.2707 18.3687 19.0454 18.752C19.0111 18.8106 18.9751 18.8688 18.938 18.9259C19.8428 19.1602 20.759 19.3479 21.683 19.4884C21.7813 19.5057 21.8821 19.5032 21.9795 19.481C22.0768 19.4589 22.1687 19.4175 22.2498 19.3593C22.331 19.3011 22.3997 19.2274 22.4519 19.1423C22.5042 19.0572 22.5389 18.9626 22.5541 18.8639C22.5693 18.7653 22.5647 18.6646 22.5404 18.5677C22.5162 18.4709 22.4729 18.3799 22.413 18.3C22.3531 18.2201 22.2779 18.153 22.1918 18.1025C22.1056 18.0521 22.0103 18.0194 21.9113 18.0063H21.9108Z" fill="#666666"/>
</svg>
