<svg width="24" height="24" viewBox="0 0 24 24" fill="none" xmlns="http://www.w3.org/2000/svg">
<path d="M3.74993 4.49947H2.24993C1.83571 4.49947 1.49993 4.83525 1.49993 5.24947V20.9995C1.49993 21.4137 1.83571 21.7495 2.24993 21.7495H3.74993C4.16414 21.7495 4.49993 21.4137 4.49993 20.9995V5.24947C4.49993 4.83525 4.16414 4.49947 3.74993 4.49947Z" stroke="#666666" stroke-width="1.5" stroke-linejoin="round"/>
<path d="M5.25007 18.7486H11.2501M5.25007 10.4986H11.2501H5.25007Z" stroke="#666666" stroke-width="1.5" stroke-linecap="round" stroke-linejoin="round"/>
<path d="M10.5001 7.49676H6.00007C5.58586 7.49676 5.25007 7.83255 5.25007 8.24676V20.9968C5.25007 21.411 5.58586 21.7468 6.00007 21.7468H10.5001C10.9143 21.7468 11.2501 21.411 11.2501 20.9968V8.24676C11.2501 7.83255 10.9143 7.49676 10.5001 7.49676Z" stroke="#666666" stroke-width="1.5" stroke-linejoin="round"/>
<path d="M15.75 2.24586H12.75C12.3358 2.24586 12 2.58165 12 2.99586V20.9959C12 21.4101 12.3358 21.7459 12.75 21.7459H15.75C16.1643 21.7459 16.5 21.4101 16.5 20.9959V2.99586C16.5 2.58165 16.1643 2.24586 15.75 2.24586Z" stroke="#666666" stroke-width="1.5" stroke-linejoin="round"/>
<path d="M19.8028 4.50452L17.9091 4.70374C17.3878 4.75859 17.01 5.24609 17.0686 5.78656L18.7055 20.8611C18.7646 21.4016 19.2385 21.7986 19.7597 21.7442L21.6535 21.545C22.1747 21.4902 22.5525 21.0027 22.4939 20.4622L20.8594 5.38999C20.798 4.84718 20.3241 4.44968 19.8028 4.50452Z" stroke="#666666" stroke-width="1.5" stroke-linejoin="round"/>
</svg>
