<svg width="24" height="24" viewBox="0 0 24 24" fill="none" xmlns="http://www.w3.org/2000/svg">
<g clip-path="url(#clip0_32_2090)">
<path d="M3.93746 22.4977H1.31246C1.16328 22.4977 1.0202 22.4384 0.914714 22.3329C0.809225 22.2274 0.749962 22.0843 0.749962 21.9352V4.31016C0.749962 4.16098 0.809225 4.0179 0.914714 3.91241C1.0202 3.80692 1.16328 3.74766 1.31246 3.74766H3.93746C4.08665 3.74766 4.22972 3.80692 4.33521 3.91241C4.4407 4.0179 4.49996 4.16098 4.49996 4.31016V21.9352C4.49996 22.0843 4.4407 22.2274 4.33521 22.3329C4.22972 22.4384 4.08665 22.4977 3.93746 22.4977ZM11.25 9.74766V7.31016C11.25 7.16098 11.1907 7.0179 11.0852 6.91241C10.9797 6.80693 10.8366 6.74766 10.6875 6.74766H5.81246C5.66328 6.74766 5.5202 6.80693 5.41471 6.91241C5.30923 7.0179 5.24996 7.16098 5.24996 7.31016V9.74766H11.25ZM5.24996 19.4977V21.9352C5.24996 22.0843 5.30923 22.2274 5.41471 22.3329C5.5202 22.4384 5.66328 22.4977 5.81246 22.4977H10.6875C10.8366 22.4977 10.9797 22.4384 11.0852 22.3329C11.1907 22.2274 11.25 22.0843 11.25 21.9352V19.4977H5.24996ZM5.24996 11.2477H11.25V17.9977H5.24996V11.2477ZM15.9375 22.4977H12.5625C12.4133 22.4977 12.2702 22.4384 12.1647 22.3329C12.0592 22.2274 12 22.0843 12 21.9352V2.06016C12 1.91098 12.0592 1.7679 12.1647 1.66241C12.2702 1.55692 12.4133 1.49766 12.5625 1.49766H15.9375C16.0866 1.49766 16.2297 1.55692 16.3352 1.66241C16.4407 1.7679 16.5 1.91098 16.5 2.06016V21.9352C16.5 22.0843 16.4407 22.2274 16.3352 22.3329C16.2297 22.4384 16.0866 22.4977 15.9375 22.4977ZM17.2968 4.71797L18.7031 21.96C18.7093 22.0356 18.7308 22.1092 18.7662 22.1763C18.8016 22.2434 18.8502 22.3026 18.9091 22.3504C18.968 22.3983 19.036 22.4337 19.1089 22.4545C19.1819 22.4754 19.2583 22.4813 19.3336 22.4719L22.7161 22.05C22.8601 22.032 22.9916 21.959 23.083 21.8463C23.1745 21.7336 23.2188 21.59 23.2068 21.4453L21.7968 4.27313C21.7906 4.19855 21.7696 4.12595 21.735 4.0596C21.7004 3.99324 21.6528 3.93447 21.5952 3.88671C21.5376 3.83895 21.471 3.80317 21.3994 3.78147C21.3278 3.75977 21.2525 3.75258 21.1781 3.76032L17.797 4.11235C17.6511 4.12811 17.5171 4.20026 17.4237 4.31341C17.3303 4.42655 17.2847 4.57173 17.2968 4.71797Z" fill="#666666"/>
</g>
<defs>
<clipPath id="clip0_32_2090">
<rect width="24" height="24" fill="white" transform="translate(0.00012207 -0.00390625)"/>
</clipPath>
</defs>
</svg>
