<svg width="24" height="24" viewBox="0 0 24 24" fill="none" xmlns="http://www.w3.org/2000/svg">
<path d="M3.00002 22.4968H2.25002C1.8522 22.4968 1.47067 22.3387 1.18936 22.0574C0.908058 21.7761 0.750023 21.3946 0.750023 20.9968V5.24676C0.750023 4.84894 0.908058 4.46741 1.18936 4.1861C1.47067 3.9048 1.8522 3.74676 2.25002 3.74676H3.00002C3.39785 3.74676 3.77938 3.9048 4.06068 4.1861C4.34199 4.46741 4.50002 4.84894 4.50002 5.24676V20.9968C4.50002 21.3946 4.34199 21.7761 4.06068 22.0574C3.77938 22.3387 3.39785 22.4968 3.00002 22.4968ZM11.25 8.24676C11.25 7.84894 11.092 7.46741 10.8107 7.1861C10.5294 6.9048 10.1478 6.74676 9.75002 6.74676H6.75002C6.3522 6.74676 5.97067 6.9048 5.68936 7.1861C5.40806 7.46741 5.25002 7.84894 5.25002 8.24676V9.55926C5.25002 9.60899 5.26978 9.65668 5.30494 9.69184C5.3401 9.72701 5.38779 9.74676 5.43752 9.74676H11.0625C11.1123 9.74676 11.1599 9.72701 11.1951 9.69184C11.2303 9.65668 11.25 9.60899 11.25 9.55926V8.24676ZM5.25002 20.9968C5.25002 21.3946 5.40806 21.7761 5.68936 22.0574C5.97067 22.3387 6.3522 22.4968 6.75002 22.4968H9.75002C10.1478 22.4968 10.5294 22.3387 10.8107 22.0574C11.092 21.7761 11.25 21.3946 11.25 20.9968V19.5905C11.25 19.5656 11.2401 19.5418 11.2226 19.5242C11.205 19.5066 11.1811 19.4968 11.1563 19.4968H5.34377C5.31891 19.4968 5.29506 19.5066 5.27748 19.5242C5.2599 19.5418 5.25002 19.5656 5.25002 19.5905V20.9968Z" fill="#666666"/>
<path d="M11.1563 11.2513H5.3438C5.29203 11.2513 5.25005 11.2932 5.25005 11.345V17.9075C5.25005 17.9593 5.29203 18.0013 5.3438 18.0013H11.1563C11.2081 18.0013 11.2501 17.9593 11.2501 17.9075V11.345C11.2501 11.2932 11.2081 11.2513 11.1563 11.2513Z" fill="#666666"/>
<path d="M15 22.4977H13.5C13.1022 22.4977 12.7207 22.3396 12.4394 22.0583C12.1581 21.777 12 21.3955 12 20.9977V2.99766C12 2.59984 12.1581 2.21831 12.4394 1.937C12.7207 1.6557 13.1022 1.49766 13.5 1.49766H15C15.3978 1.49766 15.7794 1.6557 16.0607 1.937C16.342 2.21831 16.5 2.59984 16.5 2.99766V20.9977C16.5 21.3955 16.342 21.777 16.0607 22.0583C15.7794 22.3396 15.3978 22.4977 15 22.4977ZM23.2449 20.8781L21.7341 4.94063C21.6647 4.20704 20.94 3.67501 20.1155 3.75422L18.6225 3.89485C17.798 3.97313 17.1858 4.63126 17.2552 5.36485L18.766 21.3024C18.8353 22.0359 19.56 22.568 20.3846 22.4888L21.8775 22.3481C22.7021 22.2698 23.3142 21.6117 23.2449 20.8781Z" fill="#666666"/>
</svg>
