<svg width="24" height="24" viewBox="0 0 24 24" fill="none" xmlns="http://www.w3.org/2000/svg">
<path d="M7.65417 11.9977H16.4395M9.74995 16.4977H6.74995C5.55647 16.4977 4.41188 16.0236 3.56797 15.1797C2.72405 14.3357 2.24995 13.1911 2.24995 11.9977C2.24995 10.8042 2.72405 9.6596 3.56797 8.81569C4.41188 7.97178 5.55647 7.49767 6.74995 7.49767H9.74995V16.4977ZM14.2499 7.49767H17.2499C18.4434 7.49767 19.588 7.97178 20.4319 8.81569C21.2758 9.6596 21.7499 10.8042 21.7499 11.9977C21.7499 13.1911 21.2758 14.3357 20.4319 15.1797C19.588 16.0236 18.4434 16.4977 17.2499 16.4977H14.2499V7.49767Z" stroke="#666666" stroke-width="1.6875" stroke-linecap="round" stroke-linejoin="round"/>
</svg>
