<svg width="24" height="24" viewBox="0 0 24 24" fill="none" xmlns="http://www.w3.org/2000/svg">
<path d="M7.92523 11.9977H16.1687M9.40601 16.4977H6.75007C5.55659 16.4977 4.412 16.0236 3.56809 15.1797C2.72417 14.3357 2.25007 13.1911 2.25007 11.9977C2.25007 10.8042 2.72417 9.6596 3.56809 8.81569C4.412 7.97178 5.55659 7.49767 6.75007 7.49767H9.34741L9.40601 16.4977ZM14.6527 7.49767H17.2501C18.4435 7.49767 19.5881 7.97178 20.4321 8.81569C21.276 9.6596 21.7501 10.8042 21.7501 11.9977C21.7501 13.1911 21.276 14.3357 20.4321 15.1797C19.5881 16.0236 18.4435 16.4977 17.2501 16.4977H14.5941L14.6527 7.49767Z" stroke="#666666" stroke-width="2.25" stroke-linecap="round" stroke-linejoin="round"/>
</svg>
