<svg width="24" height="24" viewBox="0 0 24 24" fill="none" xmlns="http://www.w3.org/2000/svg">
<path d="M7.92516 11.9977H16.1686M9.40595 16.4977H6.75001C5.55653 16.4977 4.41194 16.0236 3.56803 15.1797C2.72411 14.3357 2.25001 13.1911 2.25001 11.9977C2.25001 10.8042 2.72411 9.6596 3.56803 8.81569C4.41194 7.97178 5.55653 7.49767 6.75001 7.49767H9.34735L9.40595 16.4977ZM14.6527 7.49767H17.25C18.4435 7.49767 19.5881 7.97178 20.432 8.81569C21.2759 9.6596 21.75 10.8042 21.75 11.9977C21.75 13.1911 21.2759 14.3357 20.432 15.1797C19.5881 16.0236 18.4435 16.4977 17.25 16.4977H14.5941L14.6527 7.49767Z" stroke="#666666" stroke-width="2.25" stroke-linecap="square" stroke-linejoin="round"/>
</svg>
