<svg width="24" height="24" viewBox="0 0 24 24" fill="none" xmlns="http://www.w3.org/2000/svg">
<path d="M10.5 15.3276H16.5M10.5 8.62447H16.5H10.5ZM10.5 11.9995H16.5H10.5Z" stroke="#666666" stroke-width="1.5" stroke-linecap="round" stroke-linejoin="round"/>
<path d="M21 12.0941C21 7.12537 16.9688 3.09412 12 3.09412C7.03127 3.09412 3.00002 7.12537 3.00002 12.0941C3.00002 17.0629 7.03127 21.0941 12 21.0941C16.9688 21.0941 21 17.0629 21 12.0941Z" stroke="#666666" stroke-width="1.5" stroke-miterlimit="10"/>
<path d="M7.87505 8.99587C8.08215 8.99587 8.25005 8.82797 8.25005 8.62086C8.25005 8.41376 8.08215 8.24586 7.87505 8.24586C7.66794 8.24586 7.50005 8.41376 7.50005 8.62086C7.50005 8.82797 7.66794 8.99587 7.87505 8.99587Z" stroke="#666666" stroke-width="1.5" stroke-linecap="round" stroke-linejoin="round"/>
<path d="M7.87505 12.4213C8.08215 12.4213 8.25005 12.2535 8.25005 12.0463C8.25005 11.8392 8.08215 11.6713 7.87505 11.6713C7.66794 11.6713 7.50005 11.8392 7.50005 12.0463C7.50005 12.2535 7.66794 12.4213 7.87505 12.4213Z" stroke="#666666" stroke-width="1.5" stroke-linecap="round" stroke-linejoin="round"/>
<path d="M7.87505 15.7477C8.08215 15.7477 8.25005 15.5798 8.25005 15.3727C8.25005 15.1656 8.08215 14.9977 7.87505 14.9977C7.66794 14.9977 7.50005 15.1656 7.50005 15.3727C7.50005 15.5798 7.66794 15.7477 7.87505 15.7477Z" stroke="#666666" stroke-width="1.5" stroke-linecap="round" stroke-linejoin="round"/>
</svg>
