<svg width="24" height="24" viewBox="0 0 24 24" fill="none" xmlns="http://www.w3.org/2000/svg">
<path d="M7.50008 17.2495H21.0001M7.50008 6.74947H21.0001H7.50008ZM7.50008 11.9995H21.0001H7.50008Z" stroke="#666666" stroke-width="2.25" stroke-linecap="round" stroke-linejoin="round"/>
<path d="M3.75005 7.49677C4.16426 7.49677 4.50005 7.16098 4.50005 6.74677C4.50005 6.33256 4.16426 5.99677 3.75005 5.99677C3.33583 5.99677 3.00005 6.33256 3.00005 6.74677C3.00005 7.16098 3.33583 7.49677 3.75005 7.49677Z" stroke="#666666" stroke-width="1.5" stroke-linecap="round" stroke-linejoin="round"/>
<path d="M3.75005 12.7477C4.16426 12.7477 4.50005 12.4119 4.50005 11.9977C4.50005 11.5835 4.16426 11.2477 3.75005 11.2477C3.33583 11.2477 3.00005 11.5835 3.00005 11.9977C3.00005 12.4119 3.33583 12.7477 3.75005 12.7477Z" stroke="#666666" stroke-width="1.5" stroke-linecap="round" stroke-linejoin="round"/>
<path d="M3.75005 17.9986C4.16426 17.9986 4.50005 17.6628 4.50005 17.2486C4.50005 16.8344 4.16426 16.4986 3.75005 16.4986C3.33583 16.4986 3.00005 16.8344 3.00005 17.2486C3.00005 17.6628 3.33583 17.9986 3.75005 17.9986Z" stroke="#666666" stroke-width="1.5" stroke-linecap="round" stroke-linejoin="round"/>
</svg>
