<svg width="24" height="24" viewBox="0 0 24 24" fill="none" xmlns="http://www.w3.org/2000/svg">
<path d="M12.0001 2.24677C6.62396 2.24677 2.25005 6.62067 2.25005 11.9968C2.25005 17.3729 6.62396 21.7468 12.0001 21.7468C17.3761 21.7468 21.7501 17.3729 21.7501 11.9968C21.7501 6.62067 17.3761 2.24677 12.0001 2.24677ZM9.00005 15.7233C9.00005 15.9222 8.92103 16.113 8.78038 16.2537C8.63973 16.3943 8.44896 16.4733 8.25005 16.4733H7.50005C7.30114 16.4733 7.11037 16.3943 6.96972 16.2537C6.82907 16.113 6.75005 15.9222 6.75005 15.7233V14.9733C6.75005 14.7744 6.82907 14.5837 6.96972 14.443C7.11037 14.3023 7.30114 14.2233 7.50005 14.2233H8.25005C8.44896 14.2233 8.63973 14.3023 8.78038 14.443C8.92103 14.5837 9.00005 14.7744 9.00005 14.9733V15.7233ZM9.00005 12.3952C9.00005 12.5941 8.92103 12.7849 8.78038 12.9255C8.63973 13.0662 8.44896 13.1452 8.25005 13.1452H7.50005C7.30114 13.1452 7.11037 13.0662 6.96972 12.9255C6.82907 12.7849 6.75005 12.5941 6.75005 12.3952V11.6452C6.75005 11.4463 6.82907 11.2555 6.96972 11.1149C7.11037 10.9742 7.30114 10.8952 7.50005 10.8952H8.25005C8.44896 10.8952 8.63973 10.9742 8.78038 11.1149C8.92103 11.2555 9.00005 11.4463 9.00005 11.6452V12.3952ZM9.00005 9.0202C9.00005 9.21912 8.92103 9.40988 8.78038 9.55053C8.63973 9.69119 8.44896 9.7702 8.25005 9.7702H7.50005C7.30114 9.7702 7.11037 9.69119 6.96972 9.55053C6.82907 9.40988 6.75005 9.21912 6.75005 9.0202V8.2702C6.75005 8.07129 6.82907 7.88053 6.96972 7.73987C7.11037 7.59922 7.30114 7.5202 7.50005 7.5202H8.25005C8.44896 7.5202 8.63973 7.59922 8.78038 7.73987C8.92103 7.88053 9.00005 8.07129 9.00005 8.2702V9.0202ZM17.2501 16.0983H9.96896V14.5983H17.2501V16.0983ZM17.2501 12.7702H9.96896V11.2702H17.2501V12.7702ZM17.2501 9.3952H9.96896V7.8952H17.2501V9.3952Z" fill="#666666"/>
</svg>
