<svg width="24" height="24" viewBox="0 0 24 24" fill="none" xmlns="http://www.w3.org/2000/svg">
<path d="M12.0001 2.24677C6.62402 2.24677 2.25011 6.62067 2.25011 11.9968C2.25011 17.3729 6.62402 21.7468 12.0001 21.7468C17.3762 21.7468 21.7501 17.3729 21.7501 11.9968C21.7501 6.62067 17.3762 2.24677 12.0001 2.24677ZM7.87511 16.403C7.65261 16.403 7.4351 16.337 7.2501 16.2134C7.06509 16.0898 6.9209 15.9141 6.83575 15.7085C6.7506 15.503 6.72832 15.2768 6.77173 15.0585C6.81514 14.8403 6.92228 14.6399 7.07962 14.4825C7.23695 14.3252 7.43741 14.218 7.65564 14.1746C7.87387 14.1312 8.10007 14.1535 8.30563 14.2387C8.5112 14.3238 8.6869 14.468 8.81052 14.653C8.93413 14.838 9.00011 15.0555 9.00011 15.278C9.00011 15.5764 8.88159 15.8625 8.67061 16.0735C8.45963 16.2845 8.17348 16.403 7.87511 16.403ZM7.87511 13.0749C7.65261 13.0749 7.4351 13.0089 7.2501 12.8853C7.06509 12.7617 6.9209 12.586 6.83575 12.3804C6.7506 12.1748 6.72832 11.9486 6.77173 11.7304C6.81514 11.5122 6.92228 11.3117 7.07962 11.1544C7.23695 10.9971 7.43741 10.8899 7.65564 10.8465C7.87387 10.8031 8.10007 10.8254 8.30563 10.9105C8.5112 10.9957 8.6869 11.1399 8.81052 11.3249C8.93413 11.5099 9.00011 11.7274 9.00011 11.9499C9.00011 12.2483 8.88159 12.5344 8.67061 12.7454C8.45963 12.9564 8.17348 13.0749 7.87511 13.0749ZM7.87511 9.65302C7.65261 9.65302 7.4351 9.58704 7.2501 9.46342C7.06509 9.3398 6.9209 9.1641 6.83575 8.95853C6.7506 8.75297 6.72832 8.52677 6.77173 8.30854C6.81514 8.09031 6.92228 7.88985 7.07962 7.73252C7.23695 7.57519 7.43741 7.46804 7.65564 7.42463C7.87387 7.38122 8.10007 7.4035 8.30563 7.48865C8.5112 7.5738 8.6869 7.71799 8.81052 7.903C8.93413 8.088 9.00011 8.30551 9.00011 8.52802C9.00011 8.82638 8.88159 9.11253 8.67061 9.32351C8.45963 9.53449 8.17348 9.65302 7.87511 9.65302ZM16.5001 15.9811H10.5001C10.3012 15.9811 10.1104 15.9021 9.96978 15.7615C9.82913 15.6208 9.75011 15.4301 9.75011 15.2311C9.75011 15.0322 9.82913 14.8415 9.96978 14.7008C10.1104 14.5602 10.3012 14.4811 10.5001 14.4811H16.5001C16.699 14.4811 16.8898 14.5602 17.0304 14.7008C17.1711 14.8415 17.2501 15.0322 17.2501 15.2311C17.2501 15.4301 17.1711 15.6208 17.0304 15.7615C16.8898 15.9021 16.699 15.9811 16.5001 15.9811ZM16.5001 12.653H10.5001C10.3012 12.653 10.1104 12.574 9.96978 12.4333C9.82913 12.2927 9.75011 12.1019 9.75011 11.903C9.75011 11.7041 9.82913 11.5133 9.96978 11.3727C10.1104 11.232 10.3012 11.153 10.5001 11.153H16.5001C16.699 11.153 16.8898 11.232 17.0304 11.3727C17.1711 11.5133 17.2501 11.7041 17.2501 11.903C17.2501 12.1019 17.1711 12.2927 17.0304 12.4333C16.8898 12.574 16.699 12.653 16.5001 12.653ZM16.5001 9.27802H10.5001C10.3012 9.27802 10.1104 9.199 9.96978 9.05835C9.82913 8.91769 9.75011 8.72693 9.75011 8.52802C9.75011 8.3291 9.82913 8.13834 9.96978 7.99769C10.1104 7.85703 10.3012 7.77802 10.5001 7.77802H16.5001C16.699 7.77802 16.8898 7.85703 17.0304 7.99769C17.1711 8.13834 17.2501 8.3291 17.2501 8.52802C17.2501 8.72693 17.1711 8.91769 17.0304 9.05835C16.8898 9.199 16.699 9.27802 16.5001 9.27802Z" fill="#666666"/>
</svg>
