<svg width="24" height="24" viewBox="0 0 24 24" fill="none" xmlns="http://www.w3.org/2000/svg">
<path d="M7.50009 17.2495H21.0001M7.50009 6.74947H21.0001H7.50009ZM7.50009 11.9995H21.0001H7.50009Z" stroke="#666666" stroke-width="1.5" stroke-linecap="round" stroke-linejoin="round"/>
<path d="M3.75006 7.49677C4.16428 7.49677 4.50006 7.16098 4.50006 6.74677C4.50006 6.33256 4.16428 5.99677 3.75006 5.99677C3.33585 5.99677 3.00006 6.33256 3.00006 6.74677C3.00006 7.16098 3.33585 7.49677 3.75006 7.49677Z" stroke="#666666" stroke-width="1.5" stroke-linecap="round" stroke-linejoin="round"/>
<path d="M3.75006 12.7477C4.16428 12.7477 4.50006 12.4119 4.50006 11.9977C4.50006 11.5835 4.16428 11.2477 3.75006 11.2477C3.33585 11.2477 3.00006 11.5835 3.00006 11.9977C3.00006 12.4119 3.33585 12.7477 3.75006 12.7477Z" stroke="#666666" stroke-width="1.5" stroke-linecap="round" stroke-linejoin="round"/>
<path d="M3.75006 17.9986C4.16428 17.9986 4.50006 17.6628 4.50006 17.2486C4.50006 16.8344 4.16428 16.4986 3.75006 16.4986C3.33585 16.4986 3.00006 16.8344 3.00006 17.2486C3.00006 17.6628 3.33585 17.9986 3.75006 17.9986Z" stroke="#666666" stroke-width="1.5" stroke-linecap="round" stroke-linejoin="round"/>
</svg>
