<svg width="24" height="24" viewBox="0 0 24 24" fill="none" xmlns="http://www.w3.org/2000/svg">
<path d="M12 21.3709V19.4959M12 4.49587V2.62086V4.49587Z" stroke="#666666" stroke-width="2.25" stroke-linecap="round" stroke-linejoin="round"/>
<path d="M12.0001 5.24857C10.665 5.24857 9.35999 5.64445 8.24996 6.38615C7.13993 7.12785 6.27476 8.18206 5.76387 9.41546C5.25298 10.6489 5.11931 12.0061 5.37976 13.3154C5.64021 14.6248 6.28308 15.8275 7.22709 16.7715C8.17109 17.7155 9.37383 18.3584 10.6832 18.6189C11.9926 18.8793 13.3498 18.7457 14.5832 18.2348C15.8166 17.7239 16.8708 16.8587 17.6125 15.7487C18.3542 14.6386 18.7501 13.3336 18.7501 11.9986C18.7501 10.2084 18.0389 8.49147 16.773 7.2256C15.5072 5.95973 13.7903 5.24857 12.0001 5.24857Z" stroke="#666666" stroke-width="1.5" stroke-miterlimit="10"/>
<path d="M2.62502 12.0004H4.50002M19.5 12.0004H21.375H19.5Z" stroke="#666666" stroke-width="2.25" stroke-linecap="round" stroke-linejoin="round"/>
</svg>
