<svg width="24" height="24" viewBox="0 0 24 24" fill="none" xmlns="http://www.w3.org/2000/svg">
<path d="M12 2.24767C8.27348 2.24767 5.25004 5.12533 5.25004 8.66955C5.25004 12.7477 9.75004 19.2103 11.4024 21.4425C11.471 21.5367 11.5609 21.6134 11.6647 21.6663C11.7686 21.7192 11.8835 21.7467 12 21.7467C12.1166 21.7467 12.2315 21.7192 12.3353 21.6663C12.4392 21.6134 12.5291 21.5367 12.5977 21.4425C14.25 19.2113 18.75 12.751 18.75 8.66955C18.75 5.12533 15.7266 2.24767 12 2.24767Z" stroke="#666666" stroke-width="1.5" stroke-linecap="round" stroke-linejoin="round"/>
<path d="M12.0001 11.2504C13.2427 11.2504 14.2501 10.243 14.2501 9.00038C14.2501 7.75774 13.2427 6.75038 12.0001 6.75038C10.7574 6.75038 9.75007 7.75774 9.75007 9.00038C9.75007 10.243 10.7574 11.2504 12.0001 11.2504Z" stroke="#666666" stroke-width="1.5" stroke-linecap="round" stroke-linejoin="round"/>
</svg>
