<svg width="24" height="24" viewBox="0 0 24 24" fill="none" xmlns="http://www.w3.org/2000/svg">
<path d="M2.62503 12.0013H4.50003M12 4.50128V2.62628V4.50128ZM12 21.3763V19.5013V21.3763ZM12 5.25128C10.665 5.25128 9.35996 5.64716 8.24993 6.38886C7.1399 7.13056 6.27474 8.18477 5.76384 9.41817C5.25295 10.6516 5.11928 12.0088 5.37973 13.3181C5.64018 14.6275 6.28306 15.8302 7.22706 16.7743C8.17106 17.7183 9.3738 18.3611 10.6832 18.6216C11.9925 18.882 13.3497 18.7484 14.5831 18.2375C15.8165 17.7266 16.8708 16.8614 17.6125 15.7514C18.3542 14.6413 18.75 13.3363 18.75 12.0013C18.75 10.2111 18.0389 8.49418 16.773 7.22831C15.5071 5.96244 13.7902 5.25128 12 5.25128ZM19.5 12.0013H21.375H19.5Z" stroke="#666666" stroke-width="2.25" stroke-linecap="square" stroke-linejoin="round"/>
</svg>
