<svg width="24" height="24" viewBox="0 0 24 24" fill="none" xmlns="http://www.w3.org/2000/svg">
<path d="M12.0001 10.4986C12.8285 10.4986 13.5001 9.827 13.5001 8.99857C13.5001 8.17015 12.8285 7.49857 12.0001 7.49857C11.1717 7.49857 10.5001 8.17015 10.5001 8.99857C10.5001 9.827 11.1717 10.4986 12.0001 10.4986Z" fill="#666666"/>
<path d="M12 1.49947C7.86468 1.49947 4.5 4.71744 4.5 8.67135C4.5 10.5543 5.35828 13.0584 7.05093 16.1142C8.41031 18.5676 9.98297 20.7862 10.8009 21.8901C10.9392 22.0787 11.1199 22.2321 11.3284 22.3379C11.537 22.4436 11.7676 22.4987 12.0014 22.4987C12.2352 22.4987 12.4658 22.4436 12.6744 22.3379C12.8829 22.2321 13.0637 22.0787 13.2019 21.8901C14.0184 20.7862 15.5925 18.5676 16.9519 16.1142C18.6417 13.0593 19.5 10.5553 19.5 8.67135C19.5 4.71744 16.1353 1.49947 12 1.49947ZM12 11.9995C11.4067 11.9995 10.8266 11.8235 10.3333 11.4939C9.83994 11.1642 9.45542 10.6957 9.22836 10.1475C9.0013 9.59935 8.94189 8.99615 9.05764 8.4142C9.1734 7.83226 9.45912 7.29771 9.87868 6.87815C10.2982 6.4586 10.8328 6.17287 11.4147 6.05712C11.9967 5.94136 12.5999 6.00077 13.148 6.22784C13.6962 6.4549 14.1648 6.83942 14.4944 7.33276C14.8241 7.82611 15 8.40613 15 8.99947C14.9991 9.79486 14.6828 10.5574 14.1204 11.1198C13.5579 11.6823 12.7954 11.9986 12 11.9995Z" fill="#666666"/>
</svg>
