<svg width="24" height="24" viewBox="0 0 24 24" fill="none" xmlns="http://www.w3.org/2000/svg">
<path d="M19.6875 8.99677H9.28124V5.21162C9.28196 4.67391 9.44189 4.14846 9.74085 3.70153C10.0398 3.25459 10.4644 2.9062 10.9612 2.70028C11.4579 2.49437 12.0044 2.44015 12.5319 2.54447C13.0594 2.64879 13.5442 2.90697 13.9252 3.28646C14.4372 3.8101 14.7223 4.5144 14.7187 5.24677H16.5C16.5 4.0533 16.0259 2.90871 15.182 2.06479C14.3381 1.22088 13.1935 0.746773 12 0.746773C10.8065 0.746773 9.66193 1.22088 8.81801 2.06479C7.9741 2.90871 7.49999 4.0533 7.49999 5.24677V8.99677H4.31249C4.16331 8.99677 4.02023 9.05604 3.91474 9.16153C3.80926 9.26702 3.74999 9.41009 3.74999 9.55927V22.6843C3.74999 22.8335 3.80926 22.9765 3.91474 23.082C4.02023 23.1875 4.16331 23.2468 4.31249 23.2468H19.6875C19.8367 23.2468 19.9798 23.1875 20.0852 23.082C20.1907 22.9765 20.25 22.8335 20.25 22.6843V9.55927C20.25 9.41009 20.1907 9.26702 20.0852 9.16153C19.9798 9.05604 19.8367 8.99677 19.6875 8.99677Z" fill="#666666"/>
</svg>
