<svg width="24" height="24" viewBox="0 0 24 24" fill="none" xmlns="http://www.w3.org/2000/svg">
<path d="M15.7501 9.74768V5.29455C15.7501 4.29999 15.355 3.34616 14.6517 2.6429C13.9484 1.93964 12.9946 1.54455 12.0001 1.54455C11.0055 1.54455 10.0517 1.93964 9.34841 2.6429C8.64515 3.34616 8.25006 4.29999 8.25006 5.29455V9.74768" stroke="#666666" stroke-width="1.5" stroke-linecap="round" stroke-linejoin="round"/>
<path d="M17.2499 9.74767H6.74992C5.50728 9.74767 4.49992 10.755 4.49992 11.9977V20.2477C4.49992 21.4903 5.50728 22.4977 6.74992 22.4977H17.2499C18.4926 22.4977 19.4999 21.4903 19.4999 20.2477V11.9977C19.4999 10.755 18.4926 9.74767 17.2499 9.74767Z" stroke="#666666" stroke-width="1.5" stroke-linecap="round" stroke-linejoin="round"/>
</svg>
