<svg width="24" height="24" viewBox="0 0 24 24" fill="none" xmlns="http://www.w3.org/2000/svg">
<path d="M17.25 8.99768H9V5.24768C9 4.45203 9.31607 3.68897 9.87868 3.12636C10.4413 2.56375 11.2044 2.24768 12 2.24768C12.7957 2.24768 13.5587 2.56375 14.1213 3.12636C14.6839 3.68897 15 4.45203 15 5.24768C15 5.44659 15.079 5.63736 15.2197 5.77801C15.3603 5.91866 15.5511 5.99768 15.75 5.99768C15.9489 5.99768 16.1397 5.91866 16.2803 5.77801C16.421 5.63736 16.5 5.44659 16.5 5.24768C16.5 4.05421 16.0259 2.90961 15.182 2.0657C14.3381 1.22179 13.1935 0.747681 12 0.747681C10.8065 0.747681 9.66193 1.22179 8.81802 2.0657C7.97411 2.90961 7.5 4.05421 7.5 5.24768V8.99768H6.75C5.95462 8.99855 5.19206 9.3149 4.62964 9.87732C4.06722 10.4397 3.75087 11.2023 3.75 11.9977V20.2477C3.75087 21.0431 4.06722 21.8056 4.62964 22.368C5.19206 22.9305 5.95462 23.2468 6.75 23.2477H17.25C18.0454 23.2468 18.8079 22.9305 19.3704 22.368C19.9328 21.8056 20.2491 21.0431 20.25 20.2477V11.9977C20.2491 11.2023 19.9328 10.4397 19.3704 9.87732C18.8079 9.3149 18.0454 8.99855 17.25 8.99768Z" fill="#666666"/>
</svg>
