<svg width="24" height="24" viewBox="0 0 24 24" fill="none" xmlns="http://www.w3.org/2000/svg">
<path d="M19.6876 8.99677H16.5001V5.24677C16.5001 4.0533 16.026 2.90871 15.1821 2.06479C14.3382 1.22088 13.1936 0.746773 12.0001 0.746773C10.8066 0.746773 9.66203 1.22088 8.81811 2.06479C7.9742 2.90871 7.50009 4.0533 7.50009 5.24677V8.99677H4.31259C4.16341 8.99677 4.02033 9.05604 3.91484 9.16153C3.80935 9.26702 3.75009 9.41009 3.75009 9.55927V22.6843C3.75009 22.8335 3.80935 22.9765 3.91484 23.082C4.02033 23.1875 4.16341 23.2468 4.31259 23.2468H19.6876C19.8368 23.2468 19.9799 23.1875 20.0853 23.082C20.1908 22.9765 20.2501 22.8335 20.2501 22.6843V9.55927C20.2501 9.41009 20.1908 9.26702 20.0853 9.16153C19.9799 9.05604 19.8368 8.99677 19.6876 8.99677ZM14.7188 8.99677H9.28134V5.21162C9.28134 4.49056 9.56778 3.79904 10.0776 3.28917C10.5875 2.77931 11.279 2.49287 12.0001 2.49287C12.7212 2.49287 13.4127 2.77931 13.9225 3.28917C14.4324 3.79904 14.7188 4.49056 14.7188 5.21162V8.99677Z" fill="#666666"/>
</svg>
