<svg width="24" height="24" viewBox="0 0 24 24" fill="none" xmlns="http://www.w3.org/2000/svg">
<path d="M20.25 3.74948H8.99995C8.80104 3.74948 8.61028 3.8285 8.46962 3.96915C8.32897 4.1098 8.24995 4.30057 8.24995 4.49948V11.2495H15.4392L12.4392 8.24948L13.5 7.1887L17.7801 11.4693C17.9207 11.61 17.9996 11.8007 17.9996 11.9995C17.9996 12.1983 17.9207 12.389 17.7801 12.5296L13.5 16.8103L12.4392 15.7495L15.4392 12.7495H8.24995V19.4995C8.24995 19.6984 8.32897 19.8892 8.46962 20.0298C8.61028 20.1705 8.80104 20.2495 8.99995 20.2495H20.25C20.4489 20.2495 20.6396 20.1705 20.7803 20.0298C20.9209 19.8892 21 19.6984 21 19.4995V4.49948C21 4.30057 20.9209 4.1098 20.7803 3.96915C20.6396 3.8285 20.4489 3.74948 20.25 3.74948ZM2.99995 11.2495H8.24995V12.7495H2.99995V11.2495Z" fill="#666666"/>
</svg>
