<svg width="24" height="24" viewBox="0 0 24 24" fill="none" xmlns="http://www.w3.org/2000/svg">
<path d="M8.99998 8.24768V6.37268C8.99998 5.8754 9.19752 5.39849 9.54915 5.04686C9.90078 4.69522 10.3777 4.49768 10.875 4.49768H18.375C18.8723 4.49768 19.3492 4.69522 19.7008 5.04686C20.0524 5.39849 20.25 5.8754 20.25 6.37268V17.6227C20.25 18.12 20.0524 18.5969 19.7008 18.9485C19.3492 19.3001 18.8723 19.4977 18.375 19.4977H11.25C10.2145 19.4977 8.99998 18.6582 8.99998 17.6227V15.7477" stroke="#666666" stroke-width="1.5" stroke-linecap="round" stroke-linejoin="round"/>
<path d="M13.5001 15.7477L17.2501 11.9977L13.5001 8.24768M3.75006 11.9977H16.5001" stroke="#666666" stroke-width="1.5" stroke-linecap="round" stroke-linejoin="round"/>
</svg>
