<svg width="24" height="24" viewBox="0 0 24 24" fill="none" xmlns="http://www.w3.org/2000/svg">
<path d="M7.50012 11.2495H15.0001V4.49948C15.0001 4.30057 14.9211 4.1098 14.7804 3.96915C14.6398 3.8285 14.449 3.74948 14.2501 3.74948H3.00011C2.8012 3.74948 2.61044 3.8285 2.46978 3.96915C2.32913 4.1098 2.25011 4.30057 2.25011 4.49948V19.4995C2.25011 19.6984 2.32913 19.8892 2.46978 20.0298C2.61044 20.1705 2.8012 20.2495 3.00011 20.2495H14.2501C14.449 20.2495 14.6398 20.1705 14.7804 20.0298C14.9211 19.8892 15.0001 19.6984 15.0001 19.4995V12.7495H7.50012V11.2495ZM21.5303 11.4693L17.2501 7.1887L16.1893 8.24948L19.1893 11.2495H15.0001V12.7495H19.1893L16.1893 15.7495L17.2501 16.8103L21.5303 12.5296C21.6708 12.389 21.7498 12.1983 21.7498 11.9995C21.7498 11.8007 21.6708 11.61 21.5303 11.4693Z" fill="#666666"/>
</svg>
