<svg width="24" height="24" viewBox="0 0 24 24" fill="none" xmlns="http://www.w3.org/2000/svg">
<path d="M7.50004 11.9995C7.50004 11.8006 7.57905 11.6098 7.71971 11.4692C7.86036 11.3285 8.05112 11.2495 8.25004 11.2495H15V6.37448C15 4.87448 13.4161 3.74948 12 3.74948H4.87504C4.17907 3.75023 3.51182 4.02703 3.0197 4.51915C2.52758 5.01127 2.25078 5.67852 2.25003 6.37448V17.6245C2.25078 18.3204 2.52758 18.9877 3.0197 19.4798C3.51182 19.9719 4.17907 20.2487 4.87504 20.2495H12.375C13.071 20.2487 13.7382 19.9719 14.2304 19.4798C14.7225 18.9877 14.9993 18.3204 15 17.6245V12.7495H8.25004C8.05112 12.7495 7.86036 12.6705 7.71971 12.5298C7.57905 12.3892 7.50004 12.1984 7.50004 11.9995ZM21.5302 11.4693L17.7802 7.71933C17.6384 7.58461 17.4496 7.51062 17.254 7.51312C17.0584 7.51563 16.8716 7.59443 16.7333 7.73273C16.595 7.87103 16.5162 8.05789 16.5137 8.25346C16.5112 8.44903 16.5852 8.63784 16.7199 8.77964L19.1893 11.2495H15V12.7495H19.1893L16.7199 15.2193C16.6473 15.2883 16.5893 15.3711 16.5492 15.4628C16.5091 15.5545 16.4878 15.6534 16.4865 15.7535C16.4852 15.8536 16.504 15.9529 16.5417 16.0456C16.5794 16.1384 16.6353 16.2226 16.7061 16.2934C16.7769 16.3642 16.8612 16.4201 16.9539 16.4578C17.0466 16.4955 17.146 16.5143 17.2461 16.513C17.3462 16.5117 17.445 16.4904 17.5367 16.4503C17.6285 16.4103 17.7112 16.3522 17.7802 16.2796L21.5302 12.5296C21.6707 12.389 21.7497 12.1983 21.7497 11.9995C21.7497 11.8007 21.6707 11.61 21.5302 11.4693Z" fill="#666666"/>
</svg>
