<svg width="24" height="24" viewBox="0 0 24 24" fill="none" xmlns="http://www.w3.org/2000/svg">
<path d="M18.375 3.74948H10.875C10.1791 3.75023 9.51181 4.02703 9.01969 4.51915C8.52756 5.01127 8.25076 5.67852 8.25002 6.37448V11.2495H15.4392L12.9699 8.77964C12.8351 8.63784 12.7612 8.44903 12.7637 8.25346C12.7662 8.05789 12.845 7.87103 12.9833 7.73273C13.1216 7.59443 13.3084 7.51563 13.504 7.51312C13.6996 7.51062 13.8884 7.58461 14.0302 7.71933L17.7802 11.4693C17.9207 11.61 17.9997 11.8007 17.9997 11.9995C17.9997 12.1983 17.9207 12.389 17.7802 12.5296L14.0302 16.2796C13.8884 16.4144 13.6996 16.4883 13.504 16.4858C13.3084 16.4833 13.1216 16.4045 12.9833 16.2662C12.845 16.1279 12.7662 15.9411 12.7637 15.7455C12.7612 15.5499 12.8351 15.3611 12.9699 15.2193L15.4392 12.7495H8.25002V17.6245C8.25002 19.1268 9.83393 20.2495 11.25 20.2495H18.375C19.071 20.2487 19.7382 19.9719 20.2304 19.4798C20.7225 18.9877 20.9993 18.3204 21 17.6245V6.37448C20.9993 5.67852 20.7225 5.01127 20.2304 4.51915C19.7382 4.02703 19.071 3.75023 18.375 3.74948ZM3.75002 11.2495C3.55111 11.2495 3.36034 11.3285 3.21969 11.4692C3.07904 11.6098 3.00002 11.8006 3.00002 11.9995C3.00002 12.1984 3.07904 12.3892 3.21969 12.5298C3.36034 12.6705 3.55111 12.7495 3.75002 12.7495H8.25002V11.2495H3.75002Z" fill="#666666"/>
</svg>
