<svg width="24" height="24" viewBox="0 0 24 24" fill="none" xmlns="http://www.w3.org/2000/svg">
<path d="M8.25008 11.9977H20.2501M14.2501 15.7477V17.6227C14.2501 18.12 14.0525 18.5969 13.7009 18.9485C13.3493 19.3001 12.8724 19.4977 12.3751 19.4977H4.87508C4.3778 19.4977 3.90089 19.3001 3.54925 18.9485C3.19762 18.5969 3.00008 18.12 3.00008 17.6227V6.37268C3.00008 5.8754 3.19762 5.39849 3.54925 5.04686C3.90089 4.69522 4.3778 4.49768 4.87508 4.49768H12.0001C13.0355 4.49768 14.2501 5.33721 14.2501 6.37268V8.24768V15.7477ZM17.2501 15.7477L21.0001 11.9977L17.2501 8.24768V15.7477Z" stroke="#666666" stroke-width="1.5" stroke-linecap="round" stroke-linejoin="round"/>
</svg>
