<svg width="24" height="24" viewBox="0 0 24 24" fill="none" xmlns="http://www.w3.org/2000/svg">
<path d="M11.9999 1.4986C6.20147 1.4986 1.49991 6.32204 1.49991 12.2658C1.49991 17.0236 4.50928 21.0549 8.68116 22.4799C8.73968 22.4926 8.7994 22.4988 8.85928 22.4986C9.24835 22.4986 9.39835 22.2127 9.39835 21.9642C9.39835 21.7064 9.38897 21.0314 9.38428 20.1314C9.03696 20.2128 8.68164 20.2553 8.32491 20.258C6.3046 20.258 5.84522 18.6877 5.84522 18.6877C5.3671 17.4455 4.67803 17.1127 4.67803 17.1127C3.76397 16.4705 4.67335 16.4517 4.74366 16.4517H4.74835C5.80303 16.5455 6.35616 17.5674 6.35616 17.5674C6.88116 18.4861 7.58428 18.7439 8.21241 18.7439C8.62774 18.7356 9.03664 18.6398 9.41241 18.4627C9.50616 17.7689 9.77803 17.2955 10.078 17.0236C7.74835 16.7517 5.29678 15.8283 5.29678 11.7033C5.29678 10.5267 5.7046 9.56579 6.37491 8.81579C6.2671 8.54391 5.90616 7.44704 6.47803 5.96579C6.55474 5.94743 6.63358 5.93955 6.71241 5.94235C7.0921 5.94235 7.94991 6.08766 9.36553 7.07203C11.0856 6.59077 12.9048 6.59077 14.6249 7.07203C16.0405 6.08766 16.8983 5.94235 17.278 5.94235C17.3569 5.93955 17.4357 5.94743 17.5124 5.96579C18.0843 7.44704 17.7233 8.54391 17.6155 8.81579C18.2858 9.57047 18.6937 10.5314 18.6937 11.7033C18.6937 15.8377 16.2374 16.747 13.8983 17.0142C14.2733 17.347 14.6108 18.0033 14.6108 19.0064C14.6108 20.4455 14.5968 21.608 14.5968 21.9595C14.5968 22.2127 14.7421 22.4986 15.1312 22.4986C15.1941 22.4989 15.257 22.4926 15.3187 22.4799C19.4952 21.0549 22.4999 17.0189 22.4999 12.2658C22.4999 6.32204 17.7983 1.4986 11.9999 1.4986Z" fill="#666666"/>
</svg>
