<svg width="24" height="24" viewBox="0 0 24 24" fill="none" xmlns="http://www.w3.org/2000/svg">
<path d="M4.8004 1.49588C2.92399 1.49588 1.49993 3.00151 1.49993 4.86057V19.1317C1.49993 20.9893 3.01774 22.4959 4.89415 22.4959H19.1066C20.9816 22.4959 22.4999 20.9893 22.4999 19.1317V18.9859C22.4366 18.9596 17.0873 16.7092 14.3202 15.3906C12.4537 17.6673 10.0462 19.0468 7.5468 19.0468C3.31962 19.0468 1.8843 15.3803 3.88587 12.9662C4.32227 12.4403 5.06477 11.9378 6.21696 11.6537C8.0193 11.2149 10.8876 11.9279 13.5763 12.8073C14.0772 11.8895 14.4773 10.9203 14.7698 9.91651H6.48462V9.08963H10.7563V7.5976H5.58227V6.76557H10.7563V4.63651C10.7563 4.63651 10.7563 4.27791 11.1229 4.27791H13.2112V6.76229H18.3281V7.59432H13.2112V9.08963H17.3868C17.0102 10.6414 16.4149 12.1318 15.6187 13.516C16.8843 13.9703 17.9301 14.401 18.7776 14.6828C21.6051 15.6203 22.3977 15.7351 22.4999 15.7468V4.86057C22.4999 3.00151 20.9812 1.49588 19.1066 1.49588H4.8004ZM7.12493 12.8738C6.94337 12.8757 6.76102 12.8856 6.5779 12.9034C6.04821 12.9563 5.05446 13.1879 4.51118 13.6642C2.88274 15.0704 3.85774 17.6453 7.15352 17.6453C9.0693 17.6453 10.9837 16.4312 12.4874 14.4873C10.5487 13.5498 8.87805 12.8537 7.12493 12.8738Z" fill="#666666"/>
</svg>
