<svg width="24" height="24" viewBox="0 0 24 24" fill="none" xmlns="http://www.w3.org/2000/svg">
<path d="M11.9999 1.4986C6.22493 1.4986 1.49993 6.2236 1.49993 11.9986C1.49993 17.7736 6.22493 22.4986 11.9999 22.4986C17.7749 22.4986 22.4999 17.7736 22.4999 11.9986C22.4999 6.2236 17.7749 1.4986 11.9999 1.4986ZM8.14868 14.6236C7.62254 14.6406 7.10345 14.4991 6.65879 14.2173C6.21414 13.9355 5.86446 13.5266 5.65518 13.0436C5.44589 12.5606 5.38666 12.0258 5.48518 11.5087C5.5837 10.9916 5.83542 10.516 6.20765 10.1438C6.57987 9.77159 7.05541 9.51987 7.57252 9.42135C8.08963 9.32283 8.62441 9.38206 9.10743 9.59135C9.59044 9.80063 9.99938 10.1503 10.2811 10.595C10.5629 11.0396 10.7044 11.5587 10.6874 12.0848C10.6659 12.7513 10.3915 13.3846 9.91996 13.8561C9.44844 14.3276 8.81515 14.602 8.14868 14.6236ZM16.0237 14.6236C15.4975 14.6406 14.9784 14.4991 14.5338 14.2173C14.0891 13.9355 13.7395 13.5266 13.5302 13.0436C13.3209 12.5606 13.2617 12.0258 13.3602 11.5087C13.4587 10.9916 13.7104 10.516 14.0826 10.1438C14.4549 9.77159 14.9304 9.51987 15.4475 9.42135C15.9646 9.32283 16.4994 9.38206 16.9824 9.59135C17.4654 9.80063 17.8744 10.1503 18.1561 10.595C18.4379 11.0396 18.5795 11.5587 18.5624 12.0848C18.5409 12.7513 18.2665 13.3846 17.795 13.8561C17.3234 14.3276 16.6902 14.602 16.0237 14.6236Z" fill="#666666"/>
</svg>
