<svg width="24" height="24" viewBox="0 0 24 24" fill="none" xmlns="http://www.w3.org/2000/svg">
<g clip-path="url(#clip0_32_2321)">
<path d="M15.5016 16.4959L19.1447 7.49591H16.7297L14.2378 13.3117L12.4655 7.49591H10.6087L8.70655 13.3117L7.36452 10.6618L6.15046 14.3865L7.38327 16.4959H9.75983L11.4792 11.2801L13.1198 16.4959H15.5016ZM2.28702 13.4064H3.77061C4.17596 13.4121 4.58013 13.3614 4.97155 13.2559L5.35499 12.0751L6.42749 8.7756C6.34474 8.64535 6.25062 8.52268 6.14624 8.40904C5.59686 7.80029 4.7917 7.49591 3.73077 7.49591H-1.52588e-05V16.4959H2.28702V13.4064ZM4.25108 9.56638C4.46639 9.78263 4.57389 10.072 4.57358 10.4345C4.57327 10.797 4.47952 11.0865 4.29233 11.3031C4.08483 11.5412 3.70295 11.6601 3.1467 11.6598H2.28702V9.242H3.15045C3.66889 9.242 4.03577 9.35013 4.25108 9.56638ZM17.6648 14.8839L18.3581 13.1378H20.3592L19.4095 10.4889L20.5973 7.49591L24 16.4959H21.4908L20.9095 14.8839H17.6648Z" fill="#666666"/>
</g>
<defs>
<clipPath id="clip0_32_2321">
<rect width="24" height="24" fill="white"/>
</clipPath>
</defs>
</svg>
