<svg width="24" height="24" viewBox="0 0 24 24" fill="none" xmlns="http://www.w3.org/2000/svg">
<path d="M11.3081 14.2449C10.59 13.7593 9.8672 13.2807 9.14908 12.7951C9.05533 12.7304 8.9883 12.7257 8.89127 12.7951L7.06877 14.0195C8.53127 14.993 11.4375 16.9346 11.4375 16.9346V14.4132C11.4375 14.356 11.3649 14.2829 11.3081 14.2449ZM9.14486 11.2791C9.86955 10.8029 10.59 10.3207 11.3063 9.83258C11.3442 9.80213 11.3754 9.76418 11.398 9.72111C11.4206 9.67804 11.434 9.63077 11.4375 9.58227V7.15883C11.4375 7.15883 8.53127 9.08633 7.06595 10.0623C7.70814 10.4916 8.31611 10.9018 8.93064 11.3016C8.97845 11.3326 9.09002 11.3148 9.14486 11.2791ZM12.6488 9.81102C13.3897 10.3132 14.1339 10.8104 14.8814 11.3026C14.9093 11.3165 14.94 11.3237 14.9712 11.3237C15.0023 11.3237 15.0331 11.3165 15.061 11.3026L16.9247 10.0618L12.5625 7.14523V9.64602C12.5643 9.67809 12.5729 9.70941 12.5877 9.73788C12.6026 9.76634 12.6234 9.79128 12.6488 9.81102ZM12.0989 10.7963C12.0638 10.7802 12.0255 10.7725 11.9869 10.7739C11.9483 10.7753 11.9106 10.7857 11.8767 10.8043C11.6508 10.9449 11.4328 11.0949 11.2125 11.2426C10.8258 11.5018 10.0242 12.0395 10.0242 12.0395L11.8449 13.2516C11.8889 13.2786 11.9393 13.2932 11.9909 13.2941C12.0425 13.295 12.0934 13.2821 12.1383 13.2568L13.9664 12.038C13.9664 12.038 12.3694 10.9759 12.0989 10.7963ZM6.60939 11.1127V12.9695L7.99783 12.0395L6.60939 11.1127Z" fill="#666666"/>
<path d="M12 1.4977C6.20113 1.4977 1.50004 6.19879 1.50004 11.9977C1.50004 17.7966 6.20113 22.4977 12 22.4977C17.7989 22.4977 22.5 17.7966 22.5 11.9977C22.5 6.19879 17.7989 1.4977 12 1.4977ZM18.5157 13.9196C18.5157 14.1905 18.3914 14.3818 18.1636 14.5332C16.2352 15.8144 14.3088 17.0986 12.3844 18.3858C12.1102 18.5696 11.8608 18.5616 11.5875 18.3793C9.67598 17.098 7.75988 15.8219 5.83926 14.551C5.59973 14.3921 5.48348 14.1966 5.48348 13.9074V10.1696C5.48348 9.88176 5.6016 9.68488 5.84066 9.52645C7.75832 8.25473 9.6816 6.97832 11.5936 5.6977C11.8664 5.51535 12.1135 5.5102 12.3877 5.69348C14.3108 6.98129 16.2368 8.26551 18.1655 9.54613C18.3849 9.69192 18.5147 9.87192 18.5147 10.1396L18.5157 13.9196Z" fill="#666666"/>
<path d="M14.8242 12.807C14.1183 13.2864 13.4091 13.7605 12.6966 14.2292C12.5836 14.3033 12.5611 14.3844 12.5625 14.5194V16.9259L16.9219 14.0197L15.1158 12.8066C15.008 12.7311 14.9334 12.733 14.8242 12.807ZM17.3437 12.9688V11.1116L15.9567 12.043L17.3437 12.9688Z" fill="#666666"/>
</svg>
