<svg width="24" height="24" viewBox="0 0 24 24" fill="none" xmlns="http://www.w3.org/2000/svg">
<g clip-path="url(#clip0_32_2232)">
<path d="M21.75 3.11762C21.7441 2.5009 21.4953 1.91137 21.0577 1.47684C20.62 1.04232 20.0287 0.797823 19.4119 0.796371L4.57691 0.749496C3.9608 0.749618 3.36987 0.994038 2.93368 1.42917C2.4975 1.8643 2.25165 2.45463 2.25003 3.07075V18.3745C2.25003 19.6542 3.29441 20.6245 4.57691 20.6245H17.25L16.6407 18.562L21.75 23.2495V3.11762ZM15.218 15.4593C15.218 15.4593 14.8093 14.9723 14.468 14.5537C15.9558 14.1347 16.5235 13.2182 16.5235 13.2182C16.1148 13.4893 15.6769 13.7134 15.218 13.8862C14.6881 14.1062 14.1365 14.2695 13.5722 14.3733C12.6 14.5518 11.603 14.548 10.6322 14.362C10.0612 14.2559 9.50225 14.0926 8.96394 13.8745C8.67917 13.7654 8.40226 13.6368 8.13519 13.4897C8.10097 13.4672 8.06722 13.4559 8.033 13.4329C8.01003 13.4217 7.99878 13.4104 7.98613 13.4104C7.78175 13.297 7.66832 13.2178 7.66832 13.2178C7.66832 13.2178 8.213 14.1126 9.65488 14.5425C9.3141 14.9728 8.8941 15.4711 8.8941 15.4711C6.38582 15.3918 5.43238 13.7615 5.43238 13.7615C5.43238 10.1493 7.06691 7.21684 7.06691 7.21684C8.70144 6.00512 10.245 6.03934 10.245 6.03934L10.3585 6.17528C8.31519 6.75278 7.38472 7.64715 7.38472 7.64715C7.38472 7.64715 7.6341 7.51122 8.0541 7.32981C9.26863 6.79778 10.2338 6.66184 10.6322 6.61684C10.6958 6.60362 10.7604 6.59594 10.8253 6.59387C11.5859 6.49518 12.3556 6.48763 13.118 6.57137C14.3151 6.70888 15.4748 7.07403 16.5347 7.64715C16.5347 7.64715 15.638 6.79637 13.7082 6.21981L13.8671 6.03887C13.8671 6.03887 15.4219 6.00465 17.0457 7.21825C17.0457 7.21825 18.6802 10.1507 18.6802 13.7629C18.6802 13.7498 17.7263 15.3801 15.218 15.4593Z" fill="#666666"/>
<path d="M9.93992 10.2146C9.29305 10.2146 8.78211 10.7696 8.78211 11.4601C8.78211 12.1506 9.3043 12.7056 9.93992 12.7056C10.5868 12.7056 11.0977 12.1511 11.0977 11.4601C11.1095 10.7682 10.5868 10.2146 9.93992 10.2146ZM14.0827 10.2146C13.4359 10.2146 12.9249 10.7696 12.9249 11.4601C12.9249 12.1506 13.4471 12.7056 14.0827 12.7056C14.7301 12.7056 15.2406 12.1511 15.2406 11.4601C15.2406 10.7692 14.7188 10.2146 14.0827 10.2146Z" fill="#666666"/>
</g>
<defs>
<clipPath id="clip0_32_2232">
<rect width="24" height="24" fill="white" transform="translate(0 -0.00390625)"/>
</clipPath>
</defs>
</svg>
