<svg width="24" height="24" viewBox="0 0 24 24" fill="none" xmlns="http://www.w3.org/2000/svg">
<path d="M12.0023 1.49681C6.20387 1.49681 1.50231 6.19837 1.50231 11.9968C1.50231 16.2952 4.08981 19.989 7.78825 21.6156C7.76012 20.8843 7.78356 20.0031 7.97106 19.2062C8.17262 18.3531 9.32106 13.4827 9.32106 13.4827C9.32106 13.4827 8.98356 12.8124 8.98356 11.8234C8.98356 10.2671 9.88356 9.10462 11.0086 9.10462C11.9648 9.10462 12.4242 9.82181 12.4242 10.6796C12.4242 11.6406 11.8101 13.0749 11.4961 14.4062C11.2336 15.5218 12.0539 16.4265 13.1554 16.4265C15.1429 16.4265 16.4836 13.8718 16.4836 10.8437C16.4836 8.54212 14.932 6.82181 12.1148 6.82181C8.932 6.82181 6.9445 9.19837 6.9445 11.8515C6.9445 12.7656 7.21637 13.4124 7.63825 13.9093C7.83044 14.139 7.85856 14.2327 7.78825 14.4952C7.73669 14.6874 7.62419 15.1515 7.57262 15.339C7.50231 15.6062 7.28669 15.6999 7.04762 15.6015C5.58044 15.0015 4.89606 13.3984 4.89606 11.589C4.89606 8.60775 7.41325 5.03119 12.4007 5.03119C16.4086 5.03119 19.0476 7.93275 19.0476 11.0452C19.0476 15.1656 16.7554 18.2406 13.3804 18.2406C12.2461 18.2406 11.182 17.6265 10.8164 16.9327C10.8164 16.9327 10.207 19.3515 10.0757 19.8202C9.85544 20.6312 9.4195 21.4374 9.02106 22.0702C9.98757 22.3554 10.9899 22.5006 11.9976 22.5015C17.7961 22.5015 22.4976 17.7999 22.4976 12.0015C22.4976 6.20306 17.8007 1.49681 12.0023 1.49681Z" fill="#666666"/>
</svg>
