<svg width="24" height="24" viewBox="0 0 24 24" fill="none" xmlns="http://www.w3.org/2000/svg">
<path d="M20.8205 1.49863H3.29441C2.33676 1.49863 1.50004 2.18769 1.50004 3.1341V20.6986C1.50004 21.6507 2.33676 22.4986 3.29441 22.4986H20.8154C21.7782 22.4986 22.5 21.6455 22.5 20.6991V3.1341C22.5057 2.18769 21.7782 1.49863 20.8205 1.49863ZM13.0313 18.1393H8.17129L6.2227 6.488L10.4766 6.08394L11.5079 14.3747C12.4702 12.8068 13.6585 10.3435 13.6585 8.66207C13.6585 7.74238 13.501 7.11519 13.2549 6.59957L17.1282 5.81581C17.5763 6.5555 17.7779 7.31581 17.7779 8.28003C17.7774 11.3503 15.1566 15.3389 13.0313 18.1393Z" fill="#666666"/>
</svg>
