<svg width="24" height="24" viewBox="0 0 24 24" fill="none" xmlns="http://www.w3.org/2000/svg">
<path d="M5.08872 16.0686C4.52995 16.0707 3.98431 16.2382 3.52063 16.55C3.05696 16.8618 2.69603 17.304 2.4834 17.8207C2.27076 18.3375 2.21595 18.9056 2.32587 19.4534C2.43578 20.0013 2.70551 20.5043 3.10102 20.899C3.49652 21.2938 4.00008 21.5625 4.54815 21.6713C5.09622 21.7802 5.66425 21.7242 6.18056 21.5106C6.69687 21.2969 7.13832 20.9351 7.44923 20.4708C7.76013 20.0065 7.92654 19.4605 7.92747 18.9018C7.92512 18.1501 7.6251 17.43 7.09308 16.8991C6.56106 16.3681 5.84037 16.0695 5.08872 16.0686Z" fill="#666666"/>
<path d="M2.25003 8.74892V12.8059C4.68753 12.8059 7.02847 13.5274 8.75019 15.2486C10.4719 16.9699 11.1877 19.3061 11.1877 21.7488H15.2499C15.2499 14.6444 9.35957 8.74892 2.25003 8.74892Z" fill="#666666"/>
<path d="M2.25003 2.24951V6.30701C10.9336 6.30701 17.6822 13.0608 17.6822 21.7495H21.75C21.75 10.9992 13.0158 2.24951 2.25003 2.24951Z" fill="#666666"/>
</svg>
