<svg width="24" height="24" viewBox="0 0 24 24" fill="none" xmlns="http://www.w3.org/2000/svg">
<path d="M14.7094 14.2449L21.9844 1.49954H17.1094L9.81561 14.2402C9.80648 14.2514 9.8015 14.2655 9.8015 14.28C9.8015 14.2945 9.80648 14.3086 9.81561 14.3199L14.4516 22.4667C14.4703 22.4995 14.4891 22.4995 14.5266 22.4995H19.3594L14.7047 14.3105C14.7009 14.2998 14.6993 14.2885 14.7001 14.2772C14.7009 14.2659 14.7041 14.2549 14.7094 14.2449ZM10.4016 10.1339L7.64061 5.29642C7.63143 5.28016 7.6176 5.26701 7.6009 5.25865C7.5842 5.2503 7.56538 5.24713 7.54686 5.24954H3.04686L5.8078 10.1433C5.81392 10.1548 5.81559 10.1681 5.81249 10.1808L2.01561 16.4995H6.55311C6.56849 16.5015 6.58408 16.4984 6.59759 16.4908C6.61109 16.4832 6.6218 16.4715 6.62811 16.4574L10.4016 10.1902C10.4062 10.1717 10.4062 10.1524 10.4016 10.1339Z" fill="#666666"/>
</svg>
