<svg width="24" height="24" viewBox="0 0 24 24" fill="none" xmlns="http://www.w3.org/2000/svg">
<path fill-rule="evenodd" clip-rule="evenodd" d="M19.4404 4.55024C18.4696 3.57902 17.3164 2.8094 16.047 2.28568C14.7776 1.76197 13.4171 1.4945 12.044 1.49867C6.28116 1.49867 1.58991 6.16649 1.58756 11.9049C1.58502 13.7322 2.06667 15.5275 2.9835 17.1081L1.49991 22.4987L7.04288 21.0516C8.5772 21.8829 10.2948 22.3179 12.0398 22.3173H12.044C17.8063 22.3173 22.4971 17.649 22.4999 11.911C22.5034 10.5425 22.2347 9.18701 21.7095 7.92333C21.1842 6.65966 20.4129 5.51305 19.4404 4.55024ZM12.044 20.5609H12.0402C10.4846 20.5613 8.9573 20.145 7.6171 19.3552L7.29975 19.1677L4.01053 20.0265L4.8885 16.8348L4.68178 16.5066C3.81196 15.1295 3.35112 13.5337 3.35288 11.9049C3.35288 7.13633 7.25335 3.25649 12.0473 3.25649C14.3469 3.25238 16.5541 4.16189 18.1832 5.78498C19.8124 7.40807 20.7301 9.61181 20.7346 11.9115C20.7327 16.6806 16.8341 20.5609 12.044 20.5609ZM16.8107 14.0832C16.5496 13.9529 15.2638 13.3238 15.0257 13.2371C14.7876 13.1504 14.6118 13.1068 14.4379 13.3674C14.264 13.6281 13.7629 14.2112 13.6105 14.387C13.4582 14.5627 13.3058 14.582 13.0448 14.4516C12.7837 14.3213 11.9413 14.0471 10.9433 13.1612C10.1666 12.4716 9.64257 11.6204 9.49022 11.3602C9.33788 11.1001 9.47382 10.959 9.6046 10.8296C9.72225 10.7129 9.86569 10.5259 9.99647 10.374C10.1273 10.2221 10.1708 10.1134 10.2576 9.93993C10.3443 9.76649 10.3012 9.61461 10.236 9.48477C10.1708 9.35493 9.64819 8.07477 9.43069 7.55399C9.21835 7.0468 9.00319 7.11571 8.84288 7.10774C8.69053 7.10024 8.51475 7.09836 8.34178 7.09836C8.20956 7.10181 8.07946 7.13247 7.95961 7.18844C7.83976 7.24441 7.73274 7.32449 7.64522 7.42368C7.40569 7.6843 6.73069 8.3143 6.73069 9.59305C6.73069 10.8718 7.66819 12.1093 7.79757 12.2827C7.92694 12.4562 9.63975 15.0826 12.2605 16.209C12.7472 16.4174 13.2444 16.6002 13.7502 16.7565C14.376 16.9543 14.9455 16.9266 15.3955 16.8596C15.8976 16.7851 16.9424 16.2306 17.1594 15.6231C17.3765 15.0156 17.3769 14.4952 17.3118 14.387C17.2466 14.2787 17.0723 14.2131 16.8107 14.0832Z" fill="#666666"/>
</svg>
