<svg width="24" height="24" viewBox="0 0 24 24" fill="none" xmlns="http://www.w3.org/2000/svg">
<g clip-path="url(#clip0_32_2217)">
<path d="M-7.62939e-05 3.7468V20.2468H23.9999V3.7468H-7.62939e-05ZM21.7499 11.9865C21.7499 13.193 21.6749 14.1109 21.5732 15.6062C21.4715 17.1015 20.6732 18.1534 18.8034 18.3184C16.9335 18.4834 14.3141 18.4988 11.9999 18.4937C9.70305 18.4988 7.07149 18.4885 5.19649 18.3184C3.32149 18.1482 2.53399 17.0996 2.42664 15.6062C2.3193 14.1127 2.24992 13.193 2.24992 11.9865C2.24992 10.7799 2.25508 9.99617 2.42664 8.3668C2.59821 6.73742 3.50477 5.82992 5.19649 5.66492C6.88821 5.49992 9.80336 5.49992 11.9999 5.49992C14.1965 5.49992 17.1093 5.49992 18.8034 5.66492C20.4974 5.82992 21.4016 6.74305 21.5732 8.3668C21.7448 9.99055 21.7499 10.7851 21.7499 11.9865Z" fill="#666666"/>
<path d="M17.2299 13.2544V13.2905C17.2299 14.131 16.7091 14.626 16.0135 14.626C15.3178 14.626 14.8491 14.0691 14.782 13.2905C14.782 13.2905 14.7206 12.8832 14.7206 12.0582C14.7166 11.6102 14.7406 11.1625 14.7924 10.7175C14.9161 9.84098 15.3441 9.38207 16.0392 9.38207C16.7344 9.38207 17.281 9.9802 17.281 10.8877V10.9135H19.605C19.605 9.78426 19.3214 8.76848 18.7495 8.1291C18.1777 7.48973 17.3325 7.16817 16.2094 7.16817C15.6854 7.16161 15.1636 7.23641 14.6625 7.38989C14.1952 7.5368 13.7755 7.80555 13.4466 8.16848C13.1077 8.5416 12.8438 9.0366 12.6563 9.66051C12.4688 10.2844 12.375 11.0668 12.375 12.0169C12.375 12.945 12.4524 13.7185 12.6019 14.3424C12.7514 14.9663 12.9769 15.4613 13.2769 15.8325C13.5664 16.1968 13.9581 16.4661 14.4019 16.606C14.855 16.7504 15.3863 16.8225 15.9956 16.8225C17.2833 16.8225 18.211 16.4944 18.7674 15.8583C19.3238 15.2222 19.5938 14.296 19.5938 13.0791H17.2195C17.2299 13.0791 17.2299 13.208 17.2299 13.2544ZM9.24845 13.2544V13.2905C9.24845 14.131 8.72814 14.626 8.03251 14.626C7.33689 14.626 6.86814 14.0691 6.80111 13.2905C6.80111 13.2905 6.7397 12.8832 6.7397 12.0582C6.73567 11.6102 6.75962 11.1625 6.81142 10.7175C6.93517 9.84098 7.36314 9.38207 8.05829 9.38207C8.75345 9.38207 9.30001 9.98067 9.30001 10.8877V10.9135H11.625C11.625 9.78426 11.3438 8.76848 10.7695 8.1291C10.1953 7.48973 9.35157 7.16817 8.22845 7.16817C7.70446 7.16161 7.18263 7.23641 6.68157 7.38989C6.2143 7.5368 5.79459 7.80555 5.46564 8.16848C5.12532 8.53973 4.86282 9.03473 4.67204 9.65864C4.48126 10.2825 4.39079 11.0649 4.39079 12.015C4.39079 12.9432 4.46814 13.7166 4.61767 14.3405C4.7672 14.9644 4.99267 15.4594 5.29267 15.8307C5.58214 16.1949 5.97392 16.4643 6.41767 16.6041C6.87111 16.7485 7.40236 16.8207 8.01142 16.8207C9.29954 16.8207 10.2272 16.4925 10.7836 15.8564C11.34 15.2204 11.6185 14.2941 11.6185 13.0772H9.23814C9.24845 13.0791 9.24845 13.208 9.24845 13.2544Z" fill="#666666"/>
</g>
<defs>
<clipPath id="clip0_32_2217">
<rect width="24" height="24" fill="white" transform="translate(-0.00012207 -0.00390625)"/>
</clipPath>
</defs>
</svg>
