<svg width="24" height="24" viewBox="0 0 24 24" fill="none" xmlns="http://www.w3.org/2000/svg">
<path d="M21.8982 14.2281C22.0526 13.5333 22.1296 12.8235 22.1278 12.1117C22.1278 6.65918 17.6424 2.23512 12.1064 2.23512C11.5329 2.2347 10.9603 2.28174 10.3946 2.37574C9.46937 1.79816 8.39991 1.49351 7.30924 1.49684C4.10393 1.49684 1.50002 4.06184 1.50002 7.22262C1.49661 8.24357 1.77216 9.24606 2.2969 10.1218C2.1627 10.775 2.09486 11.4401 2.0944 12.107C2.0944 17.5651 6.57987 21.9836 12.1102 21.9836C12.7247 21.9851 13.3381 21.9302 13.9425 21.8195C14.7898 22.2657 15.7332 22.4982 16.6908 22.4968C19.9017 22.4968 22.5 19.9318 22.5 16.7711C22.5054 15.8875 22.299 15.0155 21.8982 14.2281ZM17.25 16.825C16.785 17.47 16.1011 17.9842 15.2152 18.3451C14.3292 18.7061 13.2825 18.8875 12.0792 18.8875C10.6406 18.8875 9.43737 18.6357 8.49096 18.1436C7.83489 17.7983 7.26907 17.3038 6.83909 16.6998C6.41206 16.0984 6.19877 15.497 6.19877 14.9186C6.19877 14.5576 6.3394 14.2459 6.61456 13.9834C6.88831 13.7317 7.24362 13.6004 7.6594 13.6004C8.00393 13.6004 8.29924 13.6989 8.54018 13.9014C8.76987 14.0926 8.96674 14.3772 9.12518 14.7489C9.27875 15.1049 9.47267 15.4421 9.70315 15.7539C9.90065 16.0107 10.1797 16.224 10.5403 16.3937C10.9069 16.5634 11.3935 16.6506 11.9935 16.6506C12.8194 16.6506 13.4977 16.4757 14.0063 16.1312C14.5097 15.7975 14.7506 15.3929 14.7506 14.9007C14.7506 14.5126 14.6246 14.2061 14.3621 13.9656C14.0888 13.7139 13.733 13.517 13.29 13.3857C12.8358 13.2451 12.218 13.0961 11.4521 12.9376C10.4128 12.7187 9.53018 12.4562 8.82706 12.1609C8.11081 11.86 7.53096 11.439 7.10393 10.9197C6.67174 10.389 6.45846 9.722 6.45846 8.93965C6.45112 8.21658 6.69036 7.51259 7.13674 6.94371C7.58534 6.36949 8.23643 5.9209 9.0844 5.61481C9.91596 5.30871 10.906 5.15543 12.0216 5.15543C12.9188 5.15543 13.7011 5.25949 14.3574 5.45637C15.0136 5.65324 15.5719 5.93215 16.0149 6.27106C16.4578 6.60996 16.7808 6.9709 16.9885 7.34918C17.1961 7.72746 17.3006 8.1095 17.3006 8.47418C17.3006 8.82387 17.1638 9.14684 16.89 9.42575C16.7573 9.5639 16.5974 9.6731 16.4204 9.74651C16.2434 9.81992 16.0532 9.85594 15.8616 9.85231C15.4899 9.85231 15.1997 9.76465 14.9977 9.58981C14.8102 9.42575 14.6147 9.17403 14.4014 8.80746C14.1497 8.34293 13.8488 7.97075 13.5042 7.70825C13.1649 7.457 12.6071 7.32575 11.8303 7.32575C11.1136 7.32575 10.5286 7.46637 10.096 7.74762C9.68018 8.01575 9.47768 8.32746 9.47768 8.69356C9.47252 8.90331 9.54458 9.10766 9.68018 9.26778C9.84516 9.45759 10.0483 9.61045 10.2764 9.71637C10.5333 9.84548 10.8027 9.94805 11.0803 10.0225C11.3616 10.0993 11.8242 10.2142 12.4646 10.3562C13.2792 10.5259 14.0232 10.7228 14.6799 10.9248C15.3474 11.1381 15.9216 11.3936 16.3917 11.6959C16.8587 11.9907 17.2473 12.3942 17.5242 12.872C17.7924 13.3407 17.9292 13.9328 17.9292 14.6111C17.959 15.4045 17.7197 16.1847 17.25 16.825Z" fill="#666666"/>
</svg>
