<svg width="24" height="24" viewBox="0 0 24 24" fill="none" xmlns="http://www.w3.org/2000/svg">
<path d="M22.0997 9.12142V9.11814C22.0893 9.08252 22.0786 9.04689 22.0678 9.01127C22.0654 9.00236 22.0626 8.99345 22.0598 8.98502C22.0397 8.91752 22.019 8.85002 21.9975 8.78298L21.9947 8.77361C21.8631 8.365 21.7066 7.96487 21.5259 7.57548C21.3509 7.18983 21.1488 6.81703 20.9212 6.45986C20.0421 5.04768 18.8417 3.86329 17.4178 3.0033C15.7833 2.01609 13.9095 1.49568 12 1.49861C11.6718 1.49861 11.3437 1.51455 11.024 1.54548C9.8934 1.66455 7.98747 2.07095 6.44106 3.42892C12.0703 0.554546 19.5909 4.0158 18.9511 10.4517C18.7232 12.7486 16.7732 14.3269 14.9578 14.5931C14.6349 14.6425 14.3066 14.6458 13.9828 14.603C9.54887 13.9866 9.82028 10.3524 11.1675 8.79845C9.38622 8.7872 8.00481 10.9917 8.67606 13.1578C7.13153 10.29 8.69247 5.79845 12.0009 4.43908C8.11262 3.87658 4.46762 5.76095 3.29622 9.03611C3.43611 7.83895 3.71534 6.66223 4.12825 5.52986C4.12825 5.52986 2.00856 7.20517 1.57637 10.7283C1.56981 10.7827 1.56372 10.837 1.55809 10.8919C1.55575 10.9106 1.55387 10.9294 1.552 10.9486C1.53543 11.1127 1.52293 11.2778 1.5145 11.4441V11.482C1.51122 11.5514 1.5084 11.6227 1.50653 11.6911V11.7497C1.50653 11.8322 1.50325 11.9147 1.50325 11.9977C1.50325 17.7966 6.20434 22.4977 12.0032 22.4977C17.8022 22.4977 22.5 17.7975 22.5 11.9986C22.5005 11.0256 22.3658 10.0573 22.0997 9.12142Z" fill="#666666"/>
</svg>
