<svg width="24" height="24" viewBox="0 0 24 24" fill="none" xmlns="http://www.w3.org/2000/svg">
<g clip-path="url(#clip0_32_2310)">
<path d="M8.10287 13.5978C7.64584 13.5978 7.25397 13.8115 6.93756 14.2479C6.62116 14.6843 6.46553 15.2126 6.46553 15.8417C6.46553 16.4707 6.62631 17.0093 6.93756 17.4411C7.24881 17.8728 7.64069 18.0922 8.10287 18.0922C8.52944 18.0922 8.89975 17.8737 9.21287 17.442C9.526 17.0103 9.68491 16.4773 9.68491 15.8426C9.68491 15.2079 9.52412 14.6797 9.21287 14.2489C8.90162 13.8181 8.53131 13.5978 8.10287 13.5978ZM15.9526 13.5978C15.5007 13.5978 15.1037 13.8115 14.7873 14.2479C14.4708 14.6843 14.3152 15.2126 14.3152 15.8417C14.3152 16.4707 14.476 17.0093 14.7873 17.4411C15.0985 17.8728 15.4955 18.0922 15.9526 18.0922C16.3796 18.0922 16.7494 17.8737 17.0677 17.442C17.386 17.0103 17.5398 16.4773 17.5398 15.8426C17.5398 15.2079 17.379 14.6797 17.0677 14.2489C16.7565 13.8181 16.3848 13.5978 15.9526 13.5978Z" fill="#666666"/>
<path d="M21.5325 7.73299C21.5273 7.73299 21.6679 7.00689 21.5475 5.74221C21.4368 4.47658 21.1725 3.31502 20.7389 2.24861C20.7389 2.24861 20.5176 2.28939 20.0957 2.3958C19.6739 2.50221 18.9843 2.71736 18.0417 3.14767C17.1126 3.57892 16.1334 4.15267 15.1139 4.84877C14.4206 4.65049 13.3861 4.54924 12 4.54924C10.679 4.54924 9.6445 4.65049 8.88606 4.84877C6.64637 3.27939 4.76965 2.41267 3.2559 2.24861C2.82434 3.31517 2.55652 4.48314 2.45246 5.75252C2.33199 7.01814 2.47262 7.74846 2.47262 7.74846C1.25199 9.08392 0.749962 11.0086 0.749962 12.5977C0.749962 13.8267 0.785118 14.9386 1.05652 15.9258C1.33777 16.906 1.69402 17.7071 2.1159 18.323C2.55238 18.9458 3.08865 19.4924 3.70309 19.9406C4.33074 20.4131 4.90824 20.7535 5.4309 20.9667C5.95824 21.1899 6.5559 21.3525 7.23887 21.4692C7.74504 21.5672 8.25656 21.6351 8.77075 21.6727C8.77075 21.6727 10.177 21.7486 12.0051 21.7486C13.8332 21.7486 15.2343 21.6727 15.2343 21.6727C15.7485 21.6338 16.26 21.5653 16.7662 21.4674C17.384 21.3677 17.9887 21.1991 18.569 20.9649C19.0917 20.7464 19.6692 20.4113 20.3034 19.9388C20.9176 19.4912 21.4523 18.9437 21.8854 18.3192C22.3073 17.7047 22.6636 16.9022 22.9448 15.9221C23.2261 14.9419 23.25 13.8216 23.25 12.5925C23.25 11.0541 22.7479 9.10408 21.5325 7.73299ZM18.2479 19.5956C16.8464 20.2608 14.7872 20.5299 12.0553 20.5299H11.9498C9.21746 20.5299 7.15824 20.266 5.78246 19.5956C4.40668 18.9253 3.70824 17.5589 3.70824 15.4974C3.70824 14.2636 4.13996 13.2633 4.98887 12.4974C5.36059 12.1692 5.81246 11.9386 6.37496 11.8017C6.93746 11.6649 7.44981 11.6611 7.93168 11.6747C8.40418 11.6949 9.067 11.7863 9.90559 11.8524C10.7442 11.9185 11.377 12.0047 12.0051 12.0047C12.5925 12.0047 13.3711 11.903 14.6217 11.8017C15.8723 11.7005 16.8065 11.6494 17.4089 11.7506C18.0267 11.8524 18.5643 12.0656 19.0214 12.4974C19.9101 13.2996 20.3554 14.2996 20.3573 15.4974C20.3522 17.5589 19.6439 18.9305 18.2479 19.5956Z" fill="#666666"/>
</g>
<defs>
<clipPath id="clip0_32_2310">
<rect width="24" height="24" fill="white"/>
</clipPath>
</defs>
</svg>
