<svg width="24" height="24" viewBox="0 0 24 24" fill="none" xmlns="http://www.w3.org/2000/svg">
<path d="M19.9129 6.97217C19.8927 7.10154 19.8693 7.23373 19.8431 7.36967C18.9445 11.9634 15.8699 13.5478 11.9427 13.5478H9.94352C9.71222 13.5472 9.48834 13.6294 9.31236 13.7795C9.13638 13.9296 9.01991 14.1377 8.98399 14.3662L7.96024 20.8275L7.67055 22.6589C7.66014 22.725 7.6629 22.7926 7.67864 22.8577C7.69439 22.9228 7.72283 22.9841 7.76232 23.0382C7.80182 23.0923 7.85159 23.138 7.9088 23.1729C7.96601 23.2077 8.02952 23.2309 8.09571 23.2411C8.12206 23.2452 8.14871 23.2473 8.17539 23.2472H11.7215C11.9243 23.2478 12.1207 23.176 12.2753 23.0448C12.43 22.9136 12.5328 22.7316 12.5652 22.5314L12.5999 22.3519L13.2674 18.1331L13.3101 17.9015C13.3421 17.701 13.4447 17.5185 13.5994 17.387C13.7541 17.2555 13.9508 17.1836 14.1538 17.1844H14.684C18.1199 17.1844 20.8091 15.7959 21.5952 11.7787C21.9234 10.1006 21.7537 8.69951 20.8846 7.71373C20.6084 7.40967 20.2791 7.15839 19.9129 6.97217Z" fill="#666666"/>
<path d="M18.0714 2.39256C17.0551 1.24084 15.2209 0.747714 12.8734 0.747714H6.0587C5.8269 0.747164 5.60253 0.82941 5.42601 0.979636C5.24948 1.12986 5.13241 1.33819 5.09588 1.56709L2.2576 19.4733C2.24567 19.5491 2.24881 19.6265 2.26684 19.701C2.28488 19.7756 2.31746 19.8458 2.3627 19.9078C2.40795 19.9697 2.46498 20.0221 2.53052 20.0619C2.59606 20.1017 2.66883 20.1283 2.74463 20.1399C2.77472 20.1446 2.80512 20.1469 2.83557 20.1469H7.04307L8.09963 13.4771L8.06682 13.6862C8.10274 13.4577 8.21922 13.2496 8.3952 13.0994C8.57118 12.9493 8.79505 12.8671 9.02635 12.8677H11.0256C14.9523 12.8677 18.0268 11.2805 18.9259 6.68959C18.9526 6.55365 18.9751 6.42146 18.9957 6.29209C19.2629 4.59428 18.9934 3.43881 18.0714 2.39256Z" fill="#666666"/>
</svg>
