<svg width="24" height="24" viewBox="0 0 24 24" fill="none" xmlns="http://www.w3.org/2000/svg">
<path d="M12.0001 7.21465C11.0535 7.21465 10.1282 7.49534 9.34118 8.02122C8.55414 8.54711 7.94071 9.29457 7.57848 10.1691C7.21624 11.0436 7.12146 12.0059 7.30613 12.9343C7.4908 13.8627 7.94661 14.7154 8.61594 15.3848C9.28526 16.0541 10.138 16.5099 11.0664 16.6946C11.9948 16.8792 12.9571 16.7845 13.8316 16.4222C14.7061 16.06 15.4536 15.4466 15.9795 14.6595C16.5054 13.8725 16.786 12.9472 16.786 12.0006C16.7844 10.7318 16.2797 9.51538 15.3825 8.6182C14.4853 7.72101 13.2689 7.21626 12.0001 7.21465Z" fill="#666666"/>
<path d="M18.8715 7.6366C20.0758 7.6366 21.0521 6.6603 21.0521 5.45597C21.0521 4.25164 20.0758 3.27534 18.8715 3.27534C17.6672 3.27534 16.6909 4.25164 16.6909 5.45597C16.6909 6.6603 17.6672 7.6366 18.8715 7.6366Z" fill="#666666"/>
<path d="M21.5559 7.64953L21.4645 7.44891L21.3188 7.61391C20.9616 8.0195 20.5098 8.33058 20.0034 8.51953L19.8628 8.5711L19.92 8.70844C20.3558 9.75086 20.5796 10.8697 20.5781 11.9995C20.5781 16.7302 16.7297 20.5777 12 20.5777C7.27032 20.5777 3.42188 16.7302 3.42188 11.9995C3.42188 7.26891 7.26938 3.42141 12 3.42141C13.2722 3.41875 14.5287 3.70231 15.6764 4.2511L15.8109 4.31203L15.8695 4.17516C16.0832 3.67894 16.4158 3.24298 16.838 2.90578L17.01 2.76844L16.8145 2.67141C15.3277 1.89814 13.6759 1.49608 12 1.49953C6.21047 1.49953 1.50001 6.21 1.50001 11.9995C1.50001 17.7891 6.21047 22.4995 12 22.4995C17.7895 22.4995 22.5 17.7891 22.5 11.9995C22.5025 10.4984 22.1804 9.01456 21.5559 7.64953Z" fill="#666666"/>
</svg>
