<svg width="24" height="24" viewBox="0 0 24 24" fill="none" xmlns="http://www.w3.org/2000/svg">
<path d="M2.27247 17.7498C4.14425 19.9474 6.64602 21.517 9.43919 22.246C11.9517 22.7611 14.5624 22.4784 16.9064 21.4374C18.0754 20.8997 19.1363 20.1531 20.0372 19.2343C20.0758 19.1683 20.0876 19.0901 20.0701 19.0157C20.0527 18.9412 20.0073 18.8764 19.9434 18.8344C19.8225 18.7899 19.6898 18.789 19.5684 18.8321C17.8527 19.7235 16.0101 20.3455 14.1051 20.6762C12.1075 20.8965 10.0865 20.7563 8.13841 20.2623C6.14588 19.6022 4.26391 18.6464 2.5556 17.4268C2.51205 17.4127 2.46531 17.4116 2.42116 17.4237C2.37701 17.4359 2.33738 17.4607 2.30717 17.4951C2.27695 17.5295 2.25748 17.572 2.25115 17.6173C2.24481 17.6627 2.2519 17.7089 2.27154 17.7502L2.27247 17.7498Z" fill="#666666"/>
<path d="M18.1478 18.2049C18.9033 18.0582 19.6762 18.023 20.4419 18.1004L20.4733 18.1065C20.5939 18.1357 20.698 18.2116 20.7628 18.3175C20.8276 18.4233 20.8477 18.5506 20.8187 18.6713C20.6688 19.4169 20.4307 20.142 20.1095 20.8313C20.1002 20.8614 20.1032 20.8939 20.1178 20.9218C20.1324 20.9497 20.1573 20.9708 20.1873 20.9804C20.2049 20.9859 20.2235 20.9871 20.2417 20.9841C20.2598 20.9811 20.277 20.9739 20.2919 20.963C20.7439 20.5996 21.1094 20.14 21.3616 19.6177C21.6139 19.0953 21.7466 18.5234 21.7501 17.9433C21.7615 17.799 21.7187 17.6556 21.6301 17.5411C21.5416 17.4265 21.4136 17.349 21.2711 17.3237C20.1486 17.1303 18.9945 17.3709 18.0428 17.9968C18.0173 18.0154 18.0001 18.0433 17.9951 18.0745C17.9901 18.1056 17.9977 18.1375 18.0161 18.1632C18.0309 18.1831 18.0516 18.1978 18.0752 18.2053C18.0988 18.2128 18.1242 18.2127 18.1478 18.2049ZM14.2614 15.2274C13.8576 15.6745 13.4026 16.0725 12.9058 16.4133C11.9579 16.9734 10.8805 17.2768 9.77968 17.2937C8.80629 17.2724 7.86396 16.947 7.08483 16.3632C6.44828 15.7812 5.98988 15.0307 5.76287 14.1986C5.53585 13.3665 5.54954 12.4871 5.80233 11.6626C6.04497 10.9321 6.44478 10.2636 6.97363 9.70434C7.50247 9.14505 8.14749 8.70848 8.86327 8.42537C10.4555 7.94696 12.1086 7.70144 13.7711 7.69646V5.9499C13.717 5.56383 13.5371 5.20637 13.2593 4.93283C12.9816 4.6593 12.6214 4.48495 12.2345 4.43678C11.7391 4.36931 11.2347 4.43533 10.7734 4.62803C10.4491 4.78061 10.1652 5.00712 9.9443 5.28936C9.72343 5.57161 9.57184 5.90172 9.50171 6.25318C9.45004 6.36186 9.36488 6.4511 9.25874 6.50779C9.1526 6.56449 9.03108 6.58566 8.91202 6.56818L6.52608 6.35724C6.41931 6.32838 6.32416 6.26704 6.25378 6.18172C6.18341 6.09639 6.14129 5.9913 6.13327 5.88099C6.32426 4.71377 6.93442 3.65628 7.84936 2.90677C9.06071 1.96912 10.5552 1.47183 12.0869 1.49677C13.5061 1.50976 14.8863 1.96296 16.037 2.79381C16.5128 3.19576 16.8899 3.70155 17.1394 4.27221C17.3889 4.84287 17.5041 5.46318 17.4761 6.08537V12.128C17.5056 12.6363 17.633 13.1342 17.8511 13.5943L18.595 14.6832C18.6343 14.7653 18.6548 14.8553 18.6548 14.9464C18.6548 15.0375 18.6343 15.1274 18.595 15.2096L16.3923 17.071C16.3004 17.1209 16.1969 17.1453 16.0923 17.1417C15.9878 17.1381 15.8862 17.1065 15.798 17.0504C15.2239 16.4977 14.7089 15.8868 14.2614 15.2274ZM13.7645 9.75099C13.0744 9.73714 12.3844 9.78246 11.702 9.88646C11.2898 9.97907 10.9022 10.1591 10.5655 10.4143C10.2288 10.6695 9.95073 10.994 9.75014 11.3658C9.58468 11.772 9.51174 12.2099 9.53664 12.6477C9.56153 13.0855 9.68362 13.5123 9.89405 13.8971C10.151 14.2181 10.505 14.4473 10.9031 14.5503C11.3012 14.6533 11.7219 14.6246 12.1023 14.4685C12.5515 14.1805 12.9328 13.7983 13.2197 13.3485C13.5067 12.8987 13.6926 12.3919 13.7645 11.8632V9.75099Z" fill="#666666"/>
</svg>
