<svg width="24" height="24" viewBox="0 0 24 24" fill="none" xmlns="http://www.w3.org/2000/svg">
<path d="M10.8656 12.7446V10.4946H17.625L18 8.24462H10.8656V7.864C10.8656 6.0504 11.6376 4.9315 14.9522 4.9315C16.3064 4.9315 17.8326 5.05759 19.7569 5.37306L20.25 2.09181C18.4582 1.68282 16.625 1.48242 14.7872 1.49462C8.87155 1.49462 6.32811 3.57587 6.32811 7.42243V8.24462H3.74998V10.4946H6.32811V12.7446H3.74998V14.9946H6.32811V16.5668C6.32811 20.4134 8.87014 22.4946 14.7858 22.4946C16.6222 22.5062 18.4537 22.3051 20.2439 21.8956L19.748 18.6143C17.8237 18.9298 16.3045 19.0559 14.9503 19.0559C11.6362 19.0559 10.8656 18.1099 10.8656 15.8712V14.9946H16.8876L17.2566 12.7446H10.8656Z" fill="#666666"/>
</svg>
