<svg width="24" height="24" viewBox="0 0 24 24" fill="none" xmlns="http://www.w3.org/2000/svg">
<g clip-path="url(#clip0_32_2355)">
<path d="M11.376 15.9483H12.6239V12.5452H15.7645V11.3349H12.6239V7.93175H11.376V11.3349H8.27526V12.5452H11.376V15.9483ZM5.59026 20.8646H6.64917V17.8393H9.44761V16.8938H6.64917V13.831H5.59026V16.8938H2.79182V17.8393H5.59026V20.8646ZM17.3507 9.93425H18.4096V6.91082H21.2456V6.00285H18.4096V2.94003H17.3507V6.00285H14.5523V6.91082H17.3507V9.93425ZM11.565 23.2468H12.4725V21.0905H14.4014V20.2974H12.4725V18.1411H11.565V20.2974H9.67448V21.0905H11.565V23.2468ZM5.62823 9.93425H6.61261V6.87285H9.44901V6.00285H6.60933V2.94003H5.62495V6.00285H2.79182V6.87285H5.62823V9.93425ZM20.4243 14.4736H21.3318V12.3558H23.25V11.5243H21.3318V9.40644H20.4243V11.5243H18.5339V12.3558H20.4243V14.4736Z" fill="#666666"/>
<path fill-rule="evenodd" clip-rule="evenodd" d="M17.3507 20.8631H18.4096V17.8378H21.2456V16.8923H18.4096V13.8295H17.3507V16.8923H14.5523V17.8378H17.3507V20.8631Z" fill="#666666"/>
<path d="M14.3907 3.47201V2.82936H12.4997V0.749512H11.8191V2.82936H9.92865V3.47201H11.8191V5.55186H12.4997V3.47201H14.3907ZM2.63021 14.325H3.31084V12.2451H5.20318V11.6025H3.31084V9.56201H2.63021V11.6039H0.750057V12.2845L2.63021 12.2808V14.325Z" fill="#666666"/>
</g>
<defs>
<clipPath id="clip0_32_2355">
<rect width="24" height="24" fill="white" transform="translate(0 -0.00390625)"/>
</clipPath>
</defs>
</svg>
