<svg width="24" height="24" viewBox="0 0 24 24" fill="none" xmlns="http://www.w3.org/2000/svg">
<path d="M22.4438 9.758C22.4438 10.0918 22.3448 10.418 22.1594 10.6955C21.974 10.973 21.7104 11.1893 21.4021 11.317C21.0937 11.4448 20.7544 11.4782 20.4271 11.4131C20.0997 11.348 19.799 11.1872 19.563 10.9512C19.327 10.7152 19.1663 10.4146 19.1012 10.0872C19.0361 9.75987 19.0695 9.42057 19.1972 9.11222C19.325 8.80387 19.5413 8.54032 19.8188 8.3549C20.0963 8.16947 20.4225 8.0705 20.7563 8.0705C21.2038 8.0705 21.6331 8.24829 21.9495 8.56476C22.266 8.88123 22.4438 9.31045 22.4438 9.758ZM20.7469 6.51425C19.8899 6.51445 19.0675 6.85276 18.4584 7.45571C17.8493 8.05866 17.5027 8.87756 17.4938 9.73456L15.4688 12.6408C15.3847 12.6315 15.3002 12.6268 15.2157 12.6268C14.7798 12.6265 14.352 12.7448 13.9782 12.9689L4.80004 9.27988C4.70191 8.83259 4.4793 8.42217 4.1579 8.09598C3.8365 7.7698 3.42942 7.54115 2.98363 7.43642C2.53784 7.33169 2.07153 7.35516 1.63851 7.50411C1.20549 7.65306 0.823411 7.92142 0.536382 8.27822C0.249352 8.63502 0.0690681 9.06572 0.0163393 9.5206C-0.0363896 9.97547 0.0405858 10.436 0.238381 10.849C0.436176 11.262 0.746728 11.6106 1.13419 11.8547C1.52166 12.0988 1.97024 12.2283 2.42816 12.2283C2.86406 12.2286 3.29183 12.1103 3.66566 11.8861L12.8438 15.5705C12.9662 16.1357 13.2865 16.6387 13.7469 16.9886C14.2074 17.3386 14.7777 17.5126 15.355 17.4792C15.9324 17.4458 16.4789 17.2073 16.896 16.8067C17.313 16.406 17.5732 15.8695 17.6297 15.2939L20.7469 13.0158C21.6091 13.0158 22.4359 12.6733 23.0456 12.0637C23.6552 11.454 23.9977 10.6272 23.9977 9.76503C23.9977 8.90287 23.6552 8.07602 23.0456 7.46638C22.4359 6.85674 21.6091 6.51425 20.7469 6.51425ZM20.7469 7.58769C21.1774 7.58815 21.598 7.71619 21.9557 7.95561C22.3134 8.19504 22.5921 8.53512 22.7566 8.93288C22.9211 9.33064 22.964 9.76824 22.88 10.1904C22.7959 10.6125 22.5885 11.0003 22.2842 11.3046C21.9798 11.609 21.5921 11.8163 21.1699 11.9004C20.7478 11.9845 20.3102 11.9416 19.9124 11.7771C19.5147 11.6126 19.1746 11.3339 18.9352 10.9762C18.6957 10.6185 18.5677 10.1978 18.5672 9.76738C18.5677 9.18944 18.7975 8.63532 19.2062 8.22665C19.6149 7.81799 20.169 7.58819 20.7469 7.58769ZM2.42816 8.00956C2.75256 8.00941 3.07091 8.09742 3.34915 8.26421C3.6274 8.43099 3.85508 8.67026 4.00785 8.95644L3.12191 8.60019V8.60488C2.77671 8.47838 2.39585 8.4911 2.05986 8.64033C1.72387 8.78957 1.45908 9.06362 1.3215 9.40455C1.18391 9.74547 1.1843 10.1265 1.32259 10.4672C1.46089 10.8078 1.72624 11.0813 2.06254 11.2299V11.2346L2.81722 11.5346C2.69108 11.563 2.56215 11.5771 2.43285 11.5768C1.95981 11.5774 1.5059 11.3901 1.17097 11.056C0.836042 10.722 0.647532 10.2685 0.646911 9.7955C0.646289 9.32246 0.833607 8.86855 1.16766 8.53362C1.50171 8.1987 1.95512 8.01019 2.42816 8.00956ZM15.2157 13.2689C15.532 13.2691 15.8426 13.3532 16.1157 13.5127C16.3888 13.6722 16.6147 13.9014 16.7702 14.1769C16.9257 14.4523 17.0053 14.7641 17.0008 15.0804C16.9963 15.3967 16.9078 15.7061 16.7445 15.977C16.5812 16.2478 16.3489 16.4705 16.0713 16.6222C15.7937 16.7738 15.4808 16.849 15.1647 16.8401C14.8485 16.8312 14.5403 16.7385 14.2717 16.5714C14.0032 16.4043 13.7838 16.1689 13.636 15.8893C13.9313 16.0064 14.2219 16.1236 14.5172 16.2455C14.6906 16.317 14.8765 16.3535 15.0641 16.3527C15.2517 16.352 15.4372 16.314 15.6101 16.2411C15.7829 16.1682 15.9395 16.0617 16.0709 15.9278C16.2023 15.7939 16.3059 15.6354 16.3756 15.4612C16.4453 15.2871 16.4798 15.1008 16.4771 14.9133C16.4744 14.7257 16.4345 14.5405 16.3598 14.3685C16.285 14.1964 16.1769 14.0409 16.0417 13.9109C15.9064 13.7809 15.7468 13.679 15.5719 13.6111L14.8266 13.3111C14.9548 13.2855 15.085 13.2714 15.2157 13.2689Z" fill="#666666"/>
</svg>
