<svg width="24" height="24" viewBox="0 0 24 24" fill="none" xmlns="http://www.w3.org/2000/svg">
<g clip-path="url(#clip0_32_2287)">
<path d="M23.6987 10.9964C23.545 10.831 22.4415 9.48283 21.8467 8.75627C21.5303 8.37002 21.2805 8.06486 21.1755 7.9383L21.167 7.92799L21.1576 7.91814C20.913 7.64486 20.5651 7.33174 20.043 7.33174C19.958 7.33283 19.8733 7.33972 19.7894 7.35236C19.772 7.35471 19.7542 7.35752 19.7355 7.35939C19.6206 7.37205 19.2639 7.42971 18.4164 7.56939C17.7601 7.67674 16.7706 7.83986 16.6206 7.85393L16.5873 7.85674L16.555 7.86283C16.0862 7.94627 15.7759 8.15439 15.6381 8.48111C15.5655 8.65361 15.4872 9.00377 15.7759 9.41205C15.8476 9.51611 16.0961 9.86018 16.5231 10.4513C16.8072 10.845 17.1264 11.2866 17.402 11.67L12.183 12.8892L7.06233 4.50096L7.05295 4.48502L7.04217 4.46955L7.02154 4.43908C6.81201 4.13158 6.55139 3.74861 5.79857 3.74861C5.74561 3.74861 5.69029 3.74861 5.62842 3.75377C5.41279 3.76549 4.62436 3.82736 3.7117 3.89955C2.70436 3.97877 1.32576 4.08705 1.1467 4.09174H1.11248L1.07545 4.09549C0.647011 4.13721 0.336229 4.31111 0.152011 4.61111C-0.155021 5.11221 0.0854481 5.67471 0.164198 5.85939C0.322167 6.23299 1.76076 9.2658 3.02967 11.9428C3.87342 13.7213 4.74436 15.5602 4.81561 15.7233C4.9409 16.028 5.15541 16.2877 5.43097 16.4684C5.70653 16.649 6.03026 16.742 6.35967 16.7353C6.51513 16.7346 6.67007 16.7174 6.82186 16.6838H6.8317L6.84107 16.6814C7.49076 16.523 9.55186 15.9999 11.0223 15.6225C11.1114 15.7781 11.2051 15.9427 11.3036 16.1119C12.3315 17.9166 13.0801 19.2221 13.3267 19.5553C13.4533 19.733 13.8283 20.2486 14.5342 20.2486C14.7901 20.2486 15.0245 20.183 15.272 20.1131L15.3437 20.093H15.3494C15.843 19.9524 22.413 17.648 22.7495 17.4985L22.7598 17.4938C23.0148 17.3808 23.4001 17.2102 23.5183 16.7719C23.5956 16.485 23.5267 16.1939 23.313 15.9066L23.3097 15.9024L23.3064 15.8981C23.2665 15.8466 23.1189 15.6539 22.9187 15.3872C22.4908 14.8214 21.7994 13.9074 21.1919 13.1119C22.0061 12.901 23.0106 12.638 23.2253 12.5705C23.763 12.4097 23.9256 12.0694 23.9753 11.88C24.0123 11.7324 24.0606 11.355 23.6987 10.9964ZM8.69873 13.7241C7.86389 13.9196 7.28217 14.056 6.92264 14.1413C6.60998 13.516 5.99732 12.2827 5.3992 11.0789C4.00514 8.27018 3.28514 6.82408 2.90639 6.06799L3.28842 6.03517C3.91373 5.98127 4.77014 5.90767 5.24686 5.86783C6.03248 7.19252 8.73061 11.7413 9.76092 13.4756L8.69873 13.7241ZM17.05 16.8478C15.9151 17.2228 15.3001 17.4277 14.9678 17.5388C14.6725 17.0541 14.0228 15.9675 13.4458 14.9986L18.8692 13.6167C19.1036 13.936 19.5522 14.5411 20.4376 15.7228C19.5906 16.006 18.1783 16.4738 17.05 16.8478ZM19.6689 11.1464L18.5551 9.66846C19.1959 9.55643 19.5648 9.49174 19.7809 9.45283L20.3434 10.1503L20.9031 10.845C20.5187 10.9383 20.0715 11.0475 19.6689 11.1464Z" fill="#666666"/>
</g>
<defs>
<clipPath id="clip0_32_2287">
<rect width="24" height="24" fill="white"/>
</clipPath>
</defs>
</svg>
