<svg width="24" height="24" viewBox="0 0 24 24" fill="none" xmlns="http://www.w3.org/2000/svg">
<g clip-path="url(#clip0_32_2359)">
<path d="M19.3214 5.5617C19.1695 5.48321 19.0217 5.39716 18.8784 5.30389C18.4618 5.02848 18.0799 4.70396 17.7408 4.33732C16.8923 3.36654 16.5755 2.3817 16.4587 1.69217H16.4634C16.3659 1.11982 16.4062 0.749512 16.4123 0.749512H12.548V15.6923C12.548 15.893 12.548 16.0912 12.5395 16.2872C12.5395 16.3115 12.5372 16.334 12.5358 16.3603C12.5358 16.3711 12.5358 16.3823 12.5334 16.3936V16.402C12.4927 16.9382 12.3208 17.4561 12.0329 17.9102C11.7451 18.3643 11.35 18.7408 10.8825 19.0064C10.3952 19.2836 9.84416 19.429 9.28358 19.4283C7.48312 19.4283 6.0239 17.9601 6.0239 16.147C6.0239 14.3339 7.48312 12.8658 9.28358 12.8658C9.6244 12.8654 9.96313 12.9191 10.2872 13.0247L10.2919 9.08998C9.30813 8.96291 8.30873 9.04109 7.35673 9.31959C6.40472 9.5981 5.52076 10.0709 4.76061 10.7081C4.09455 11.2868 3.53459 11.9773 3.10593 12.7486C2.9428 13.0298 2.32733 14.16 2.2528 15.9942C2.20593 17.0353 2.51858 18.1139 2.66765 18.5597V18.569C2.7614 18.8315 3.12468 19.7273 3.71671 20.4825C4.1941 21.0882 4.75812 21.6204 5.39061 22.0617V22.0523L5.39999 22.0617C7.27077 23.333 9.34499 23.2495 9.34499 23.2495C9.70405 23.235 10.9069 23.2495 12.2728 22.6022C13.7878 21.8845 14.6503 20.8153 14.6503 20.8153C15.2013 20.1764 15.6395 19.4484 15.9459 18.6623C16.2956 17.7431 16.4123 16.6406 16.4123 16.2V8.27248C16.4592 8.30061 17.0836 8.71358 17.0836 8.71358C17.0836 8.71358 17.9831 9.29014 19.3866 9.66561C20.3934 9.93279 21.75 9.98904 21.75 9.98904V6.15279C21.2747 6.20436 20.3095 6.05436 19.3214 5.5617Z" fill="#666666"/>
</g>
<defs>
<clipPath id="clip0_32_2359">
<rect width="24" height="24" fill="white" transform="translate(0 -0.00390625)"/>
</clipPath>
</defs>
</svg>
