<svg width="24" height="24" viewBox="0 0 24 24" fill="none" xmlns="http://www.w3.org/2000/svg">
<path d="M20.1451 6.09326L12.8593 1.72357C12.5976 1.57437 12.3016 1.49591 12.0003 1.49591C11.6991 1.49591 11.403 1.57437 11.1413 1.72357L3.85509 6.09279C3.59251 6.25369 3.37587 6.4796 3.2261 6.74868C3.07633 7.01777 2.99848 7.32093 3.00009 7.62888V16.3556C2.99851 16.6637 3.07636 16.9671 3.22612 17.2364C3.37587 17.5057 3.59249 17.7319 3.85509 17.8931L5.76571 19.034L5.77649 19.0401C6.74118 19.5337 7.11056 19.5337 7.53853 19.5337C9.04509 19.5337 9.98118 18.5587 9.98118 16.9889V8.52747C9.98206 8.42184 9.94099 8.32017 9.867 8.24477C9.79301 8.16937 9.69213 8.1264 9.58649 8.12529H8.53743C8.4318 8.1264 8.33092 8.16937 8.25692 8.24477C8.18293 8.32017 8.14187 8.42184 8.14274 8.52747V16.9889C8.14656 17.11 8.119 17.2301 8.06274 17.3374C8.00648 17.4448 7.92343 17.5357 7.82165 17.6015C7.54509 17.7703 7.14337 17.7347 6.69009 17.5008L4.85915 16.3987C4.85214 16.3939 4.84642 16.3875 4.84249 16.38C4.83857 16.3725 4.83656 16.3641 4.83665 16.3556V7.75216C4.83695 7.74227 4.83962 7.7326 4.84443 7.72395C4.84924 7.71531 4.85606 7.70794 4.86431 7.70247L11.9818 3.3431C11.9871 3.34046 11.993 3.33908 11.9989 3.33908C12.0049 3.33908 12.0107 3.34046 12.016 3.3431L19.1377 7.70247C19.1458 7.70838 19.1524 7.71615 19.1569 7.72512C19.1614 7.73409 19.1637 7.74401 19.1635 7.75404V16.3556C19.1637 16.3645 19.1619 16.3733 19.1583 16.3814C19.1546 16.3895 19.1492 16.3967 19.1424 16.4025L12.0146 20.6517C12.0025 20.6559 11.9893 20.6559 11.9771 20.6517L10.157 19.5708C10.1029 19.5354 10.0405 19.5151 9.97604 19.5117C9.91157 19.5083 9.84736 19.5221 9.78993 19.5515L9.77399 19.5609C9.27149 19.8586 9.13649 19.9359 8.67056 20.1056C8.59462 20.1333 8.41603 20.1993 8.40056 20.3761C8.38509 20.5528 8.55478 20.6784 8.70571 20.7661L11.1385 22.26C11.3977 22.4152 11.6942 22.4974 11.9963 22.4976H12.0235C12.3181 22.493 12.6063 22.4111 12.8593 22.26L20.1451 17.8945C20.4075 17.7328 20.624 17.5063 20.7737 17.2368C20.9235 16.9673 21.0014 16.6639 21.0001 16.3556V7.62888C21.0016 7.32101 20.9237 7.01797 20.7739 6.74898C20.6241 6.47999 20.4076 6.25415 20.1451 6.09326Z" fill="#666666"/>
<path d="M14.432 14.9061C12.684 14.9061 12.3114 14.4176 12.2007 13.6292C12.1883 13.5353 12.1425 13.4491 12.0718 13.3861C12.0011 13.3231 11.9101 13.2876 11.8154 13.2861H10.8873C10.7827 13.2883 10.6832 13.3319 10.6107 13.4072C10.5381 13.4826 10.4984 13.5837 10.5001 13.6883C10.5001 14.3717 10.7401 16.6025 14.4339 16.6025C15.5767 16.6025 16.5273 16.3353 17.1822 15.8295C17.837 15.3237 18.1876 14.5878 18.1876 13.7108C18.1876 11.9506 17.0392 11.4687 14.7775 11.1537C12.4782 10.8341 12.4782 10.6714 12.4782 10.3151C12.4782 10.0587 12.4782 9.45827 14.1404 9.45827C15.3231 9.45827 15.9564 9.6078 16.1589 10.3958C16.1768 10.4831 16.224 10.5617 16.2927 10.6186C16.3614 10.6755 16.4475 10.7072 16.5367 10.7084H17.4681C17.523 10.7079 17.5771 10.6956 17.6269 10.6725C17.6767 10.6494 17.721 10.6159 17.7568 10.5744C17.8285 10.4908 17.8642 10.3823 17.8562 10.2725C17.7357 8.60608 16.5175 7.76093 14.1418 7.76093C11.9828 7.76093 10.6942 8.73358 10.6942 10.3625C10.6942 12.1484 12.0297 12.6533 14.0359 12.8623C16.3797 13.1047 16.3797 13.4581 16.3797 13.7703C16.3811 14.2569 16.179 14.9061 14.432 14.9061Z" fill="#666666"/>
</svg>
