<svg width="24" height="24" viewBox="0 0 24 24" fill="none" xmlns="http://www.w3.org/2000/svg">
<path d="M12.1407 12.7149L10.6032 17.2009H10.5985L9.40785 20.6274C9.49223 20.6509 9.57191 20.6696 9.65629 20.6931H9.67035C10.4273 20.8949 11.2073 20.9973 11.9907 20.9977C12.3814 21.0006 12.7716 20.9724 13.1579 20.9134C13.6747 20.8486 14.1846 20.7372 14.6813 20.5806C14.8032 20.5431 14.925 20.5009 15.0469 20.4587C14.9157 20.1774 14.6344 19.554 14.6204 19.5259L12.1407 12.7149ZM3.78754 8.45868C3.31879 9.51805 3.00004 10.8212 3.00004 11.9977C3.00004 12.2931 3.0141 12.5884 3.04223 12.879C3.36566 16.2165 5.52191 19.0196 8.48441 20.2806C8.60629 20.3321 8.73285 20.3837 8.85941 20.4306L4.50004 8.46337C4.12504 8.4493 4.05473 8.47274 3.78754 8.45868Z" fill="#666666"/>
<path d="M20.1657 8.22231C19.964 7.78815 19.7273 7.37115 19.4579 6.97544C19.3829 6.86294 19.2985 6.75044 19.2188 6.63794C18.2031 5.27469 16.8238 4.22522 15.2391 3.60981C14.2055 3.20551 13.1052 2.99881 11.9954 3.00044C10.6509 3.00047 9.32356 3.30249 8.11144 3.88421C6.89932 4.46593 5.83334 5.31249 4.99223 6.36138C4.68752 6.73908 4.41323 7.14034 4.17191 7.56138C4.83754 7.56606 5.66254 7.56606 5.75629 7.56606C6.60473 7.56606 7.91254 7.46294 7.91254 7.46294C8.35316 7.43481 8.40004 8.077 7.9641 8.12856C7.9641 8.12856 7.52348 8.18013 7.03598 8.20356L9.98441 16.9692L11.7563 11.6583L10.5 8.20825C10.0594 8.18481 9.6516 8.13325 9.6516 8.13325C9.21098 8.10981 9.26723 7.4395 9.69848 7.46763C9.69848 7.46763 11.0344 7.57075 11.8313 7.57075C12.6797 7.57075 13.9875 7.46763 13.9875 7.46763C14.4235 7.4395 14.4797 8.08169 14.0391 8.13325C14.0391 8.13325 13.6032 8.18481 13.1157 8.20825L16.036 16.9083L16.8469 14.2083C17.2547 13.1583 17.461 12.2911 17.461 11.5973C17.461 10.5989 17.1 9.90513 16.7907 9.36606C16.3829 8.69575 15.9985 8.13325 15.9985 7.47231C15.9985 6.727 16.561 6.03325 17.3579 6.03325H17.461C18.6891 6.00044 19.0922 7.21919 19.1438 8.04888V8.077C19.1625 8.4145 19.1485 8.66294 19.1485 8.95825C19.1485 9.77388 18.9938 10.6973 18.5344 11.8551L16.7063 17.1426L15.661 20.2223C15.7454 20.1848 15.825 20.1473 15.9094 20.1051C18.5672 18.8208 20.5032 16.2614 20.911 13.2286C20.9714 12.8252 21.0012 12.4177 21 12.0098C21.0018 10.7015 20.717 9.40874 20.1657 8.22231Z" fill="#666666"/>
<path d="M12 2.24954C14.2494 2.2507 16.4293 3.02941 18.1704 4.45375C19.9114 5.87809 21.1066 7.86049 21.5534 10.0651C22.0002 12.2697 21.6712 14.561 20.6221 16.5509C19.573 18.5407 17.8683 20.1067 15.7969 20.9836C13.4141 21.9906 10.729 22.0098 8.33208 21.037C5.93519 20.0642 4.02291 18.1791 3.01591 15.7964C2.00892 13.4137 1.9897 10.7285 2.96249 8.33165C3.93528 5.93476 5.82038 4.02247 8.2031 3.01548C9.40427 2.50721 10.6957 2.2467 12 2.24954ZM12 1.49954C6.20107 1.49954 1.49998 6.20064 1.49998 11.9995C1.49998 17.7985 6.20107 22.4995 12 22.4995C17.7989 22.4995 22.5 17.7985 22.5 11.9995C22.5 6.20064 17.7989 1.49954 12 1.49954Z" fill="#666666"/>
</svg>
