<svg width="24" height="24" viewBox="0 0 24 24" fill="none" xmlns="http://www.w3.org/2000/svg">
<path d="M22.3548 5.34258C22.1204 4.24617 21.534 3.52476 20.4512 3.17367C19.3684 2.82258 17.4081 2.96273 16.0393 3.9607C14.7836 4.87523 13.8709 6.51164 13.5081 7.63008C13.4974 7.66329 13.4962 7.69883 13.5046 7.7327C13.513 7.76656 13.5307 7.79741 13.5557 7.82176C13.5807 7.84612 13.612 7.86302 13.6461 7.87056C13.6801 7.8781 13.7156 7.87599 13.7486 7.86445C14.2534 7.68633 14.7667 7.53164 15.3423 7.56211C16.0454 7.59961 16.4912 8.12461 16.51 8.74758C16.524 9.20648 16.5006 9.62367 16.3412 10.0451C15.8378 11.3895 15.047 12.6916 14.1123 13.8302C13.9715 13.9996 13.8145 14.1549 13.6436 14.2938C13.165 14.6824 12.7618 14.5798 12.4525 14.0501C12.1993 13.6146 12.0306 13.1651 11.8806 12.687C11.2993 10.8274 11.0926 8.89758 10.7645 6.9907C10.6098 6.07758 10.4364 5.12648 9.92074 4.32539C9.37699 3.49148 8.57965 3.1732 7.57699 3.29414C6.88793 3.37851 5.84684 4.11398 5.3359 4.53117C5.3359 4.53117 2.7109 6.7282 1.50059 7.8757L2.49434 9.14133C2.49434 9.14133 3.33387 8.55586 3.78387 8.28398C4.05106 8.12508 4.36512 8.09226 4.59012 8.29336C4.80153 8.47617 5.04059 8.71523 5.16715 8.9543C5.43434 9.45539 5.69215 9.97992 5.85621 10.5185C6.47496 12.5937 7.05199 14.6735 7.62856 16.7632C7.92387 17.831 8.28012 18.8337 8.94106 19.7421C9.84621 20.9885 10.7978 21.274 12.2654 20.7495C13.4565 20.3234 14.4503 19.5223 15.3592 18.693C16.9112 17.2784 18.1304 15.6293 19.3679 13.9521C20.3246 12.6551 21.1168 11.3426 21.7778 9.87633C22.4298 8.42414 22.6876 6.90164 22.3548 5.34258Z" fill="#666666"/>
</svg>
