<svg width="24" height="24" viewBox="0 0 24 24" fill="none" xmlns="http://www.w3.org/2000/svg">
<path d="M5.94375 11.6386C7.80468 8.89174 9.59531 7.28861 9.59531 7.28861C9.59531 7.28861 7.62187 4.99642 5.24531 4.12924L5.09062 4.09174C3.09179 5.83948 1.82884 8.27923 1.55577 10.9203C1.28271 13.5614 2.01977 16.2079 3.61875 18.3277C3.61875 18.1214 3.64687 15.0324 5.94375 11.6386ZM22.5 11.9995C22.5011 10.5015 22.1812 9.02052 21.5618 7.65646C20.9424 6.29239 20.038 5.07687 18.9094 4.09174L18.7594 4.13392C16.3828 5.00111 14.4047 7.2933 14.4047 7.2933C14.4047 7.2933 16.1953 8.89642 18.0562 11.6433C20.3531 15.037 20.3812 18.1261 20.3766 18.3324C21.7585 16.5108 22.5045 14.286 22.5 11.9995ZM9.43125 3.79174C10.8047 4.4058 11.9906 5.41361 11.9906 5.41361C11.9906 5.41361 13.1859 4.41049 14.5594 3.79174C16.2844 3.0183 17.6016 3.26205 17.9484 3.34642C16.198 2.14349 14.1239 1.49954 12 1.49954C9.87605 1.49954 7.80202 2.14349 6.05156 3.34642C6.38906 3.26205 7.70156 3.01361 9.43125 3.79174ZM16.8141 13.7292C14.6437 11.062 11.9906 9.32767 11.9906 9.32767C11.9906 9.32767 9.35156 11.062 7.17656 13.7292C5.31093 16.0214 4.61718 17.7042 4.24218 18.7824L4.18125 19.0074C5.16604 20.106 6.37132 20.9848 7.71851 21.5864C9.06571 22.1881 10.5246 22.499 12 22.499C13.4754 22.499 14.9343 22.1881 16.2815 21.5864C17.6287 20.9848 18.834 20.106 19.8187 19.0074L19.7531 18.7824C19.3781 17.7042 18.6797 16.0214 16.8141 13.7292Z" fill="#666666"/>
</svg>
