<svg width="24" height="24" viewBox="0 0 24 24" fill="none" xmlns="http://www.w3.org/2000/svg">
<path d="M8.85005 11.9935C8.84987 12.6166 9.03445 13.2257 9.38047 13.7438C9.72648 14.262 10.2184 14.6658 10.7939 14.9044C11.3695 15.143 12.0029 15.2055 12.614 15.084C13.2251 14.9626 13.7865 14.6627 14.2271 14.2222C14.6677 13.7817 14.9678 13.2204 15.0895 12.6093C15.2111 11.9983 15.1488 11.3649 14.9104 10.7892C14.672 10.2136 14.2682 9.72156 13.7502 9.37539C13.2322 9.02922 12.6231 8.84445 12.0001 8.84445C11.1655 8.84668 10.3657 9.17914 9.77546 9.76919C9.18522 10.3592 8.85253 11.1589 8.85005 11.9935Z" fill="#666666"/>
<path d="M22.3477 10.2075V10.2098C22.2709 9.75194 22.1612 9.30015 22.0196 8.85797H22.0144C22.1582 9.30231 22.269 9.75667 22.3458 10.2173C22.2688 9.75672 22.158 9.30237 22.0144 8.85797H14.73C15.623 9.65485 16.2 10.7409 16.2 12.0009C16.2021 12.7393 16.0026 13.4643 15.623 14.0977L10.8282 22.4259C10.8284 22.4302 10.8284 22.4344 10.8282 22.4386V22.4517V22.4395C11.2174 22.4811 11.6086 22.5008 12 22.4986C12.3207 22.4986 12.638 22.4803 12.9516 22.4517C13.4214 22.4093 13.8878 22.335 14.3475 22.2295C19.0163 21.1636 22.5 16.9861 22.5 11.9958C22.5001 11.3964 22.4491 10.7982 22.3477 10.2075Z" fill="#666666"/>
<path d="M11.9999 16.1956C10.4249 16.1956 9.11242 15.3561 8.37695 14.0961L3.56242 5.76825L3.55585 5.757C2.51697 7.16352 1.84579 8.80722 1.60325 10.5389C1.36071 12.2706 1.55447 14.0354 2.16697 15.6733C2.77946 17.3111 3.79128 18.77 5.11059 19.9176C6.4299 21.0652 8.01492 21.8651 9.72179 22.2448V22.2425L13.3635 15.9331C12.9281 16.1006 12.4664 16.1894 11.9999 16.1956Z" fill="#666666"/>
<path d="M4.27916 4.89776L7.90495 11.1439C8.09318 10.1958 8.60405 9.34234 9.35065 8.72856C10.0972 8.11477 11.0334 7.77861 11.9999 7.77729H21.6173C21.2867 7.05083 20.8817 6.36059 20.4089 5.7176L20.4145 5.72135C20.8855 6.36317 21.2886 7.05218 21.6173 7.77729H21.6253C21.2968 7.05001 20.8937 6.3588 20.4224 5.71479C20.4167 5.71119 20.4112 5.70711 20.406 5.7026C19.4822 4.46756 18.2976 3.45127 16.9364 2.72604C15.5752 2.0008 14.071 1.58444 12.5306 1.50657C10.9902 1.4287 9.45164 1.69123 8.02426 2.2755C6.59688 2.85976 5.3158 3.7514 4.27213 4.88698L4.2787 4.89823L4.27916 4.89776Z" fill="#666666"/>
</svg>
