<svg width="24" height="24" viewBox="0 0 24 24" fill="none" xmlns="http://www.w3.org/2000/svg">
<path d="M15.1875 11.9986C14.8537 11.9986 14.5275 12.0976 14.25 12.283C13.9724 12.4684 13.7562 12.732 13.6284 13.0403C13.5007 13.3487 13.4673 13.688 13.5324 14.0153C13.5975 14.3427 13.7582 14.6434 13.9942 14.8794C14.2302 15.1154 14.5309 15.2761 14.8583 15.3412C15.1856 15.4063 15.5249 15.3729 15.8333 15.2452C16.1416 15.1174 16.4052 14.9011 16.5906 14.6236C16.776 14.3461 16.875 14.0199 16.875 13.6861C16.875 13.2386 16.6972 12.8093 16.3807 12.4929C16.0643 12.1764 15.635 11.9986 15.1875 11.9986Z" fill="#666666"/>
<path d="M9.45849 15.2462C10.3195 14.8895 10.7284 13.9024 10.3718 13.0414C10.0151 12.1803 9.02797 11.7714 8.16693 12.1281C7.30589 12.4847 6.89701 13.4719 7.25366 14.3329C7.61032 15.1939 8.59745 15.6028 9.45849 15.2462Z" fill="#666666"/>
<path d="M23.2499 11.895C23.2499 10.433 22.0715 9.24373 20.6249 9.24373C20.0152 9.24368 19.4247 9.45694 18.9557 9.84654C17.3151 8.73233 15.1692 8.05029 12.8784 7.91201L13.9096 4.20889L17.0226 4.82764C17.1117 6.06889 18.1476 7.05373 19.3968 7.05373C20.7093 7.05373 21.7771 5.97561 21.7771 4.65326C21.7771 3.33092 20.6718 2.24951 19.3593 2.24951C18.4439 2.24951 17.6573 2.77404 17.257 3.59811L13.0382 2.75951L11.5804 7.89326L11.3634 7.89936C8.9901 8.00295 6.75369 8.69295 5.04604 9.84607C4.57717 9.45503 3.98548 9.24175 3.37494 9.24373C1.92697 9.24373 0.749942 10.433 0.749942 11.895C0.747875 12.3603 0.868611 12.818 1.09996 13.2218C1.33131 13.6255 1.66509 13.9611 2.0676 14.1947C2.03957 14.4019 2.02563 14.6108 2.02588 14.82C2.03104 16.6828 3.0801 18.4294 4.97901 19.7419C6.86057 21.0356 9.35198 21.7495 11.9999 21.7495C14.6479 21.7495 17.1449 21.0356 19.0232 19.739C20.9231 18.4265 21.9693 16.6795 21.9693 14.8144C21.9689 14.6059 21.9557 14.3977 21.9299 14.1909C22.3327 13.9584 22.6669 13.6236 22.8987 13.2204C23.1305 12.8173 23.2516 12.36 23.2499 11.895ZM19.4062 3.51514C19.6287 3.51514 19.8462 3.58112 20.0312 3.70473C20.2162 3.82835 20.3604 4.00405 20.4456 4.20962C20.5307 4.41518 20.553 4.64138 20.5096 4.85961C20.4662 5.07784 20.359 5.2783 20.2017 5.43563C20.0444 5.59297 19.8439 5.70011 19.6257 5.74352C19.4074 5.78693 19.1812 5.76465 18.9757 5.6795C18.7701 5.59435 18.5944 5.45016 18.4708 5.26515C18.3472 5.08015 18.2812 4.86264 18.2812 4.64014C18.2812 4.34177 18.3997 4.05562 18.6107 3.84464C18.8217 3.63366 19.1078 3.51514 19.4062 3.51514ZM2.00244 11.895C2.00107 11.5276 2.14549 11.1746 2.40402 10.9135C2.66255 10.6524 3.01409 10.5046 3.38151 10.5023C3.60428 10.5028 3.82352 10.558 4.01994 10.6631C3.29338 11.3386 2.7576 12.0886 2.42291 12.8981C2.29021 12.7668 2.18475 12.6106 2.1126 12.4385C2.04044 12.2663 2.00301 12.0816 2.00244 11.895ZM18.3196 18.7026C16.6443 19.8553 14.4009 20.4905 12.0023 20.4905C9.60369 20.4905 7.35932 19.8562 5.68541 18.7026C4.13854 17.6344 3.28354 16.253 3.28354 14.812C3.2844 14.3754 3.36297 13.9424 3.51557 13.5333C3.78182 12.7955 4.27307 12.1045 4.97572 11.4806C5.19526 11.2867 5.4263 11.1062 5.6676 10.9401L5.68166 10.9303L5.69291 10.9223C7.36729 9.77295 9.60791 9.14108 12.0028 9.14108C14.3976 9.14108 16.6387 9.77436 18.3131 10.9223L18.3239 10.9303L18.3398 10.942C18.5808 11.1075 18.8116 11.2872 19.0312 11.4801C19.7343 12.1045 20.2256 12.795 20.4918 13.5337C20.5884 13.8019 20.6562 14.0795 20.6939 14.362C20.7127 14.5121 20.7221 14.6631 20.722 14.8144C20.7215 16.2544 19.8684 17.6358 18.3196 18.7026ZM21.5821 12.8939C21.2479 12.0839 20.7121 11.3334 19.9851 10.657C20.1823 10.553 20.402 10.4989 20.6249 10.4995C20.9923 10.5017 21.3438 10.6496 21.6023 10.9107C21.8607 11.1718 22.005 11.5248 22.0035 11.8922C22.0032 12.0789 21.9658 12.2637 21.8934 12.4358C21.8211 12.6079 21.7153 12.7639 21.5821 12.8948V12.8939Z" fill="#666666"/>
<path d="M15.1514 16.977C15.1397 16.9887 13.9533 18.199 12.0038 18.2084C10.035 18.199 8.8969 17.0257 8.84862 16.977C8.81227 16.9409 8.76316 16.9207 8.71198 16.9207C8.66079 16.9207 8.61168 16.9409 8.57534 16.977L7.93315 17.6084C7.91494 17.6264 7.90048 17.648 7.89062 17.6716C7.88076 17.6953 7.87568 17.7207 7.87568 17.7464C7.87568 17.7721 7.88076 17.7975 7.89062 17.8212C7.90048 17.8449 7.91494 17.8664 7.93315 17.8845C8.09253 18.0438 9.55971 19.489 12.001 19.4993C14.4356 19.489 15.9094 18.0438 16.0688 17.8845C16.087 17.8663 16.1015 17.8448 16.1113 17.8211C16.1212 17.7973 16.1263 17.7719 16.1263 17.7462C16.1263 17.7205 16.1212 17.695 16.1113 17.6713C16.1015 17.6476 16.087 17.626 16.0688 17.6079L15.4261 16.9765C15.3899 16.9406 15.3409 16.9205 15.2899 16.9205C15.239 16.9205 15.19 16.9406 15.1538 16.9765L15.1514 16.977Z" fill="#666666"/>
</svg>
