<svg width="24" height="24" viewBox="0 0 24 24" fill="none" xmlns="http://www.w3.org/2000/svg">
<path d="M23.25 5.13236C22.406 5.49909 21.513 5.7407 20.5993 5.84955C21.5596 5.28723 22.2817 4.39388 22.6303 3.33705C21.7224 3.86795 20.7308 4.24046 19.6978 4.43861C19.2629 3.98277 18.7398 3.62013 18.1603 3.37274C17.5809 3.12536 16.9571 2.99839 16.3271 2.99955C13.7761 2.99955 11.7118 5.03392 11.7118 7.54174C11.7099 7.89056 11.7499 8.23835 11.8308 8.57767C10.0016 8.49192 8.21044 8.02529 6.5719 7.20764C4.93336 6.38998 3.48354 5.23931 2.31519 3.82924C1.9053 4.52023 1.68853 5.30863 1.68753 6.11205C1.68753 7.68705 2.50925 9.07924 3.75003 9.89486C3.0149 9.87742 2.29484 9.68285 1.65097 9.32767V9.38392C1.65097 11.587 3.24472 13.4199 5.35409 13.8371C4.95743 13.9428 4.54867 13.9964 4.13816 13.9964C3.84686 13.9969 3.55624 13.9687 3.2705 13.912C3.85691 15.7167 5.56363 17.0292 7.58534 17.0667C5.94255 18.3328 3.92563 19.0171 1.85159 19.0121C1.48345 19.0115 1.11564 18.9896 0.750031 18.9464C2.85996 20.2937 5.31258 21.0064 7.81597 20.9995C16.3172 20.9996 20.9616 14.0761 20.9616 8.07142C20.9616 7.87455 20.9564 7.67767 20.9471 7.48549C21.8485 6.84427 22.6284 6.04741 23.25 5.13236Z" fill="#666666"/>
</svg>
