<svg width="24" height="24" viewBox="0 0 24 24" fill="none" xmlns="http://www.w3.org/2000/svg">
<path d="M19.2497 8.46812C19.01 8.38624 18.7686 8.30999 18.5255 8.23937C18.5658 8.0753 18.603 7.9103 18.637 7.74437C19.1855 5.07718 18.8269 2.92843 17.603 2.22108C16.4311 1.54233 14.5092 2.24968 12.5705 3.94093C12.3798 4.1078 12.1931 4.27968 12.0103 4.45655C11.8884 4.33905 11.7634 4.22405 11.6353 4.11155C9.60328 2.30311 7.56656 1.5414 6.34406 2.25108C5.17218 2.93124 4.8239 4.95108 5.3175 7.47905C5.36687 7.72905 5.42234 7.97796 5.4839 8.22577C5.20376 8.30519 4.92599 8.39273 4.65093 8.48827C2.27156 9.3203 0.749994 10.6248 0.749994 11.9776C0.749994 13.3755 2.38312 14.777 4.86421 15.6269C5.06546 15.6953 5.26859 15.7589 5.47359 15.8176C5.40703 16.083 5.34812 16.3512 5.29687 16.6225C4.82812 19.1069 5.19375 21.0789 6.36328 21.7548C7.57125 22.4528 9.59765 21.7356 11.573 20.0059C11.7292 19.8691 11.8855 19.7245 12.0417 19.5723C12.2392 19.7633 12.4423 19.9486 12.6511 20.1283C14.5636 21.7773 16.4522 22.4434 17.6198 21.7656C18.8269 21.0653 19.2192 18.9466 18.7097 16.3689C18.6706 16.172 18.6256 15.9711 18.5747 15.7661C18.7172 15.7239 18.8567 15.6803 18.9933 15.6353C21.5714 14.7789 23.2509 13.3942 23.2509 11.9791C23.25 10.6197 21.6797 9.30671 19.2497 8.46812ZM13.2028 4.66749C14.8636 3.21858 16.4161 2.64671 17.1239 3.05546C17.8772 3.49093 18.1702 5.24687 17.6967 7.54983C17.6655 7.69983 17.6317 7.84937 17.5955 7.99843C16.6044 7.77299 15.5993 7.61389 14.587 7.52218C14.0074 6.68728 13.3721 5.8925 12.6853 5.14327C12.8534 4.98015 13.0256 4.82155 13.2019 4.66749H13.2028ZM7.39359 13.1336C7.59703 13.5273 7.80968 13.9162 8.03156 14.3003C8.2575 14.6922 8.49296 15.0783 8.73796 15.4586C8.04143 15.3829 7.34927 15.2713 6.66421 15.1244C6.86296 14.4812 7.10765 13.8133 7.39359 13.1336ZM7.39359 10.8681C7.11234 10.203 6.87421 9.54858 6.67874 8.91671C7.32093 8.7728 8.00531 8.65515 8.71875 8.56608C8.47968 8.93921 8.24968 9.3178 8.02875 9.70187C7.80781 10.0859 7.59562 10.4747 7.39218 10.8681H7.39359ZM7.90453 12.0011C8.20078 11.3833 8.51984 10.7773 8.86171 10.1833C9.20328 9.58952 9.56687 9.00937 9.9525 8.4428C10.6219 8.39218 11.3081 8.36546 12.0014 8.36546C12.6947 8.36546 13.3852 8.39218 14.0541 8.44327C14.4356 9.00858 14.797 9.58671 15.1383 10.1776C15.4795 10.7686 15.8028 11.3717 16.1081 11.987C15.8069 12.607 15.4844 13.2155 15.1406 13.8123C14.7997 14.4061 14.4403 14.988 14.0625 15.558C13.3945 15.6048 12.7031 15.6306 12 15.6306C11.2969 15.6306 10.6186 15.6086 9.96281 15.5659C9.57437 14.9975 9.20781 14.4148 8.86312 13.818C8.51843 13.2211 8.19843 12.6155 7.90312 12.0011H7.90453ZM15.9727 14.2937C16.1992 13.9006 16.4167 13.5023 16.6252 13.0989C16.9109 13.7468 17.1631 14.4089 17.3808 15.0826C16.6877 15.2387 15.9869 15.3584 15.2812 15.4412C15.5194 15.0634 15.7498 14.6809 15.9727 14.2937ZM16.6158 10.8686C16.4083 10.4733 16.1925 10.0826 15.9684 9.69671C15.7497 9.31608 15.5217 8.94015 15.2845 8.5689C16.0022 8.65983 16.6908 8.78077 17.3362 8.92843C17.1287 9.5868 16.8883 10.2343 16.6158 10.8686ZM12.0108 5.83187C12.4788 6.34332 12.9208 6.87806 13.335 7.43405C12.4491 7.39187 11.5625 7.39187 10.6753 7.43405C11.1127 6.85562 11.5603 6.3189 12.0108 5.83187ZM6.82781 3.08405C7.58062 2.64718 9.24515 3.27155 10.9997 4.83108C11.1117 4.93093 11.2247 5.03546 11.3372 5.14374C10.6469 5.89286 10.007 6.68695 9.42187 7.52077C8.41183 7.61178 7.40878 7.76836 6.41906 7.98952C6.36187 7.75952 6.31031 7.52796 6.26437 7.29483C5.84015 5.1278 6.12093 3.49421 6.82781 3.08405ZM5.73046 14.8895C5.54296 14.8361 5.35781 14.7781 5.17499 14.7156C4.07812 14.3406 3.17203 13.8512 2.54999 13.3183C1.99312 12.8406 1.71093 12.3639 1.71093 11.9776C1.71093 11.1569 2.93249 10.1097 4.96968 9.39952C5.22562 9.31046 5.48375 9.22905 5.74406 9.1553C6.04661 10.1276 6.41303 11.0789 6.84093 12.003C6.40793 12.9398 6.03698 13.904 5.73046 14.8895ZM10.9397 19.2803C10.0664 20.0453 9.19171 20.5877 8.42062 20.8609C7.72781 21.1061 7.17609 21.1131 6.84281 20.9205C6.13312 20.5103 5.83781 18.9264 6.24046 16.802C6.28828 16.552 6.34296 16.302 6.40453 16.052C7.40415 16.2674 8.41728 16.4144 9.43687 16.4922C10.0278 17.3304 10.6729 18.1289 11.3681 18.8828C11.2284 19.0201 11.0855 19.1523 10.9397 19.2803ZM12.0375 18.1919C11.5819 17.6992 11.1272 17.1541 10.6837 16.5681C11.1147 16.585 11.5534 16.5934 12 16.5934C12.4584 16.5934 12.9122 16.5836 13.3594 16.5634C12.9467 17.1283 12.5055 17.6719 12.0375 18.1919ZM17.8744 19.532C17.7403 20.2558 17.4708 20.7386 17.1375 20.9317C16.4283 21.3433 14.9119 20.8084 13.2769 19.398C13.0894 19.2367 12.9019 19.0637 12.7111 18.8823C13.3928 18.1255 14.0228 17.3237 14.5969 16.4823C15.6221 16.3955 16.6401 16.2381 17.6437 16.0112C17.6897 16.1969 17.7303 16.3787 17.7656 16.5569C17.9911 17.6959 18.0234 18.7262 17.8744 19.532ZM18.69 14.7208C18.5672 14.7616 18.4406 14.8009 18.3122 14.8394C17.9975 13.8625 17.6168 12.9081 17.1727 11.9828C17.6001 11.0699 17.9659 10.1293 18.2677 9.16749C18.4978 9.23452 18.7214 9.30483 18.9366 9.37937C21.0187 10.0975 22.2891 11.1606 22.2891 11.9776C22.2891 12.8495 20.917 13.9811 18.69 14.7208Z" fill="#666666"/>
<path d="M12.0001 13.9926C12.399 13.9939 12.7894 13.8768 13.1217 13.6561C13.4541 13.4354 13.7134 13.1211 13.867 12.7529C14.0205 12.3847 14.0614 11.9792 13.9844 11.5878C13.9073 11.1964 13.7159 10.8366 13.4343 10.5541C13.1526 10.2715 12.7935 10.0789 12.4023 10.0006C12.0112 9.92227 11.6055 9.9618 11.2369 10.1142C10.8682 10.2665 10.553 10.5249 10.3312 10.8565C10.1094 11.1881 9.99106 11.578 9.99105 11.977C9.9905 12.2413 10.042 12.5031 10.1427 12.7475C10.2434 12.9918 10.3913 13.214 10.5779 13.4012C10.7644 13.5884 10.9861 13.7369 11.2301 13.8384C11.4742 13.9399 11.7358 13.9923 12.0001 13.9926Z" fill="#666666"/>
</svg>
