<svg width="24" height="24" viewBox="0 0 24 24" fill="none" xmlns="http://www.w3.org/2000/svg">
<path d="M17.8552 9.32411L19.8459 5.87552C19.8993 5.78295 19.9139 5.67302 19.8865 5.56974C19.8591 5.46645 19.7919 5.37821 19.6997 5.32427C19.6541 5.29752 19.6037 5.28008 19.5514 5.27296C19.499 5.26584 19.4458 5.26918 19.3947 5.28278C19.3436 5.29638 19.2958 5.31998 19.2539 5.35221C19.2121 5.38443 19.177 5.42465 19.1508 5.47052L17.1352 8.96364C15.5963 8.26052 13.8642 7.86911 12.0014 7.86911C10.1386 7.86911 8.40656 8.26099 6.86766 8.96364L4.85203 5.47052C4.79833 5.37802 4.71008 5.31065 4.6067 5.28323C4.50332 5.2558 4.39328 5.27056 4.30078 5.32427C4.20829 5.37797 4.14092 5.46622 4.11349 5.5696C4.08606 5.67298 4.10083 5.78302 4.15453 5.87552L6.14063 9.32411C2.70938 11.1822 0.383906 14.6571 0 18.7249H24C23.6161 14.6571 21.2906 11.1822 17.8552 9.32411ZM6.48985 15.3546C6.29089 15.3546 6.0964 15.2956 5.93098 15.1851C5.76555 15.0745 5.63662 14.9174 5.56048 14.7336C5.48434 14.5498 5.46442 14.3475 5.50324 14.1524C5.54205 13.9573 5.63786 13.778 5.77854 13.6373C5.91922 13.4967 6.09846 13.4009 6.2936 13.362C6.48873 13.3232 6.69099 13.3431 6.8748 13.4193C7.05861 13.4954 7.21572 13.6244 7.32625 13.7898C7.43679 13.9552 7.49578 14.1497 7.49578 14.3486C7.49566 14.6154 7.38964 14.8712 7.20101 15.0598C7.01239 15.2484 6.7566 15.3545 6.48985 15.3546ZM17.5055 15.3546C17.3067 15.3537 17.1126 15.294 16.9478 15.183C16.7829 15.072 16.6546 14.9146 16.5791 14.7307C16.5036 14.5468 16.4843 14.3447 16.5236 14.1498C16.5629 13.955 16.659 13.7761 16.7999 13.6359C16.9407 13.4956 17.12 13.4002 17.315 13.3617C17.51 13.3233 17.712 13.3434 17.8956 13.4197C18.0792 13.496 18.236 13.6249 18.3464 13.7902C18.4567 13.9555 18.5156 14.1499 18.5156 14.3486C18.5156 14.4809 18.4894 14.6119 18.4387 14.7341C18.388 14.8562 18.3137 14.9672 18.22 15.0606C18.1264 15.1541 18.0152 15.2281 17.893 15.2786C17.7707 15.329 17.6396 15.3548 17.5073 15.3546H17.5055Z" fill="#666666"/>
</svg>
