<svg width="24" height="24" viewBox="0 0 24 24" fill="none" xmlns="http://www.w3.org/2000/svg">
<g clip-path="url(#clip0_32_2346)">
<path d="M0.271799 13.0299C0.247338 13.0311 0.224209 13.0414 0.20689 13.0587C0.189571 13.076 0.179294 13.0992 0.178049 13.1236L-7.62939e-05 14.4661L0.175236 15.7861C0.176631 15.8109 0.187271 15.8343 0.205059 15.8517C0.222847 15.869 0.246491 15.8791 0.27133 15.8799C0.295687 15.8783 0.318644 15.868 0.335901 15.8507C0.353158 15.8334 0.363532 15.8105 0.36508 15.7861L0.573205 14.4657L0.366955 13.1236C0.365407 13.0993 0.355033 13.0763 0.337776 13.0591C0.320519 13.0418 0.297562 13.0314 0.273205 13.0299H0.271799ZM1.25852 12.2949C1.25852 12.2684 1.248 12.243 1.22927 12.2243C1.21055 12.2056 1.18515 12.195 1.15867 12.195C1.13219 12.195 1.1068 12.2056 1.08807 12.2243C1.06935 12.243 1.05883 12.2684 1.05883 12.2949L0.824455 14.4661L1.05883 16.5896C1.05883 16.616 1.06935 16.6414 1.08807 16.6602C1.1068 16.6789 1.13219 16.6894 1.15867 16.6894C1.18515 16.6894 1.21055 16.6789 1.22927 16.6602C1.248 16.6414 1.25852 16.616 1.25852 16.5896L1.52711 14.4657L1.25852 12.2944V12.2949ZM4.97664 10.2919C4.92901 10.2934 4.88375 10.313 4.85006 10.3467C4.81636 10.3804 4.79676 10.4257 4.79524 10.4733L4.60774 14.468L4.79524 17.0499C4.7976 17.0965 4.81777 17.1403 4.85158 17.1725C4.88538 17.2046 4.93024 17.2225 4.97688 17.2225C5.02352 17.2225 5.06837 17.2046 5.10218 17.1725C5.13598 17.1403 5.15615 17.0965 5.15852 17.0499L5.37086 14.468L5.15852 10.4733C5.15699 10.4256 5.13732 10.3803 5.10353 10.3466C5.06973 10.3129 5.02435 10.2933 4.97664 10.2919ZM3.05242 11.6803C3.01546 11.6814 2.98031 11.6966 2.95416 11.7227C2.92802 11.7489 2.91286 11.784 2.9118 11.821L2.69992 14.4671L2.91133 17.0278C2.91133 17.0651 2.92615 17.1009 2.95252 17.1273C2.97889 17.1537 3.01466 17.1685 3.05196 17.1685C3.08925 17.1685 3.12502 17.1537 3.15139 17.1273C3.17776 17.1009 3.19258 17.0651 3.19258 17.0278L3.43305 14.4671L3.19258 11.8196C3.19107 11.783 3.17579 11.7483 3.1498 11.7225C3.12381 11.6967 3.08903 11.6816 3.05242 11.6803ZM6.9318 17.2299C6.99047 17.2289 7.04648 17.2052 7.08801 17.1638C7.12955 17.1223 7.15337 17.0664 7.15446 17.0077L7.33867 14.4694L7.15446 9.15097C7.15446 9.09192 7.131 9.03528 7.08924 8.99353C7.04749 8.95177 6.99085 8.92831 6.9318 8.92831C6.87275 8.92831 6.81611 8.95177 6.77436 8.99353C6.7326 9.03528 6.70914 9.09192 6.70914 9.15097L6.54555 14.4689L6.70914 17.0082C6.71011 17.0668 6.73391 17.1228 6.77549 17.1642C6.81706 17.2056 6.87313 17.2292 6.9318 17.2299ZM10.9349 17.2416C11.0155 17.2404 11.0925 17.2078 11.1494 17.1507C11.2063 17.0936 11.2386 17.0166 11.2396 16.936L11.3681 14.4703L11.2396 8.32972C11.2396 8.24891 11.2075 8.17141 11.1504 8.11427C11.0932 8.05713 11.0157 8.02503 10.9349 8.02503C10.8541 8.02503 10.7766 8.05713 10.7195 8.11427C10.6623 8.17141 10.6302 8.24891 10.6302 8.32972L10.5154 14.4703C10.5154 14.4741 10.6302 16.9393 10.6302 16.9393C10.6319 17.0193 10.6646 17.0956 10.7215 17.152C10.7783 17.2084 10.8549 17.2405 10.9349 17.2416ZM8.91836 17.2322C8.9882 17.2316 9.05499 17.2035 9.10429 17.1541C9.15359 17.1046 9.18143 17.0377 9.1818 16.9678L9.33836 14.468L9.1818 9.11113C9.1833 9.07557 9.17759 9.04007 9.16502 9.00677C9.15244 8.97347 9.13326 8.94306 9.10863 8.91737C9.084 8.89168 9.05442 8.87123 9.02168 8.85727C8.98895 8.8433 8.95372 8.8361 8.91813 8.8361C8.88254 8.8361 8.84731 8.8433 8.81457 8.85727C8.78183 8.87123 8.75226 8.89168 8.72763 8.91737C8.703 8.94306 8.68382 8.97347 8.67124 9.00677C8.65867 9.04007 8.65296 9.07557 8.65446 9.11113L8.51383 14.4685L8.65446 16.9678C8.65519 17.0375 8.68328 17.104 8.73265 17.1531C8.78202 17.2023 8.84873 17.23 8.91836 17.2303V17.2322ZM4.01055 17.2088C4.05274 17.2077 4.09294 17.1906 4.12292 17.1609C4.15289 17.1312 4.17038 17.0911 4.1718 17.0489L4.39821 14.4666L4.1718 12.0103C4.1718 11.9676 4.15481 11.9266 4.12457 11.8963C4.09433 11.8661 4.05332 11.8491 4.01055 11.8491C3.96778 11.8491 3.92677 11.8661 3.89653 11.8963C3.86629 11.9266 3.8493 11.9676 3.8493 12.0103L3.64961 14.4657L3.8493 17.0475C3.85002 17.0901 3.86724 17.1307 3.89733 17.1608C3.92741 17.1908 3.96801 17.2081 4.01055 17.2088ZM2.1018 17.0672C2.13299 17.0661 2.16264 17.0534 2.18493 17.0315C2.20722 17.0097 2.22053 16.9803 2.22227 16.9491L2.4768 14.4647L2.22274 11.8866C2.22274 11.8546 2.21004 11.824 2.18745 11.8014C2.16486 11.7788 2.13422 11.7661 2.10227 11.7661C2.07032 11.7661 2.03968 11.7788 2.01708 11.8014C1.99449 11.824 1.9818 11.8546 1.9818 11.8866L1.75774 14.4647L1.9818 16.9491C1.98287 16.9805 1.9959 17.0102 2.01821 17.0323C2.04053 17.0543 2.07043 17.067 2.1018 17.0677V17.0672ZM9.92289 9.02347C9.84738 9.02384 9.77509 9.05407 9.72178 9.10755C9.66847 9.16103 9.63848 9.23343 9.63836 9.30894L9.51133 14.4703L9.63836 16.9547C9.64134 17.0281 9.6726 17.0975 9.72559 17.1484C9.77858 17.1993 9.8492 17.2277 9.92266 17.2277C9.99612 17.2277 10.0667 17.1993 10.1197 17.1484C10.1727 17.0975 10.204 17.0281 10.207 16.9547L10.3476 14.4703L10.207 9.308C10.2066 9.23273 10.1766 9.16065 10.1234 9.10738C10.0702 9.05411 9.99816 9.02396 9.92289 9.02347ZM5.95305 17.235C6.00618 17.2338 6.05681 17.2122 6.09443 17.1747C6.13205 17.1372 6.15377 17.0866 6.15508 17.0335L6.35336 14.4689L6.15274 9.56113C6.15023 9.50917 6.12783 9.46016 6.09018 9.42427C6.05252 9.38839 6.00249 9.36837 5.95047 9.36837C5.89845 9.36837 5.84843 9.38839 5.81077 9.42427C5.77311 9.46016 5.75071 9.50917 5.74821 9.56113L5.57289 14.4689L5.74867 17.0344C5.7499 17.0879 5.77194 17.1388 5.81011 17.1762C5.84828 17.2137 5.89956 17.2348 5.95305 17.235ZM8.16414 16.9927L8.3343 14.4708L8.16414 8.97331C8.16559 8.9405 8.16037 8.90773 8.1488 8.87699C8.13724 8.84624 8.11957 8.81816 8.09686 8.79443C8.07415 8.7707 8.04686 8.75181 8.01666 8.73891C7.98645 8.72601 7.95394 8.71936 7.9211 8.71936C7.88825 8.71936 7.85574 8.72601 7.82554 8.73891C7.79533 8.75181 7.76805 8.7707 7.74534 8.79443C7.72263 8.81816 7.70496 8.84624 7.69339 8.87699C7.68183 8.90773 7.67661 8.9405 7.67805 8.97331L7.52664 14.4708L7.67805 16.9941C7.67805 17.0585 7.70363 17.1203 7.74917 17.1658C7.7947 17.2113 7.85646 17.2369 7.92086 17.2369C7.98526 17.2369 8.04702 17.2113 8.09256 17.1658C8.13809 17.1203 8.16368 17.0585 8.16368 16.9941L8.16414 16.9927ZM21.0468 11.3002C20.6551 11.2996 20.2673 11.3777 19.9063 11.5299C19.672 8.84956 17.4402 6.74863 14.7191 6.74863C14.0733 6.74983 13.4332 6.87029 12.831 7.10394C12.6084 7.19066 12.5498 7.28019 12.547 7.45363V16.8924C12.5482 16.9797 12.5813 17.0636 12.64 17.1283C12.6986 17.193 12.7789 17.2341 12.8657 17.2439L21.0482 17.2491C22.6785 17.2491 24.0013 15.9174 24.0013 14.2749C24.0013 12.6324 22.6795 11.3002 21.0482 11.3002H21.0468ZM11.9432 7.44566C11.8567 7.4464 11.7739 7.4813 11.713 7.54275C11.6521 7.60421 11.6179 7.68724 11.6179 7.77378L11.4843 14.4713L11.6179 16.9027C11.6164 16.9464 11.6238 16.99 11.6396 17.0308C11.6553 17.0716 11.6792 17.1088 11.7097 17.1402C11.7402 17.1716 11.7767 17.1965 11.817 17.2135C11.8573 17.2304 11.9007 17.239 11.9444 17.2389C11.9882 17.2387 12.0315 17.2297 12.0716 17.2124C12.1118 17.1951 12.1481 17.1698 12.1783 17.1382C12.2085 17.1065 12.2321 17.0691 12.2475 17.0282C12.2629 16.9872 12.2699 16.9436 12.2681 16.8999V16.9027L12.4129 14.4713L12.2681 7.77144C12.2674 7.68539 12.233 7.60302 12.1723 7.54208C12.1115 7.48114 12.0293 7.44652 11.9432 7.44566Z" fill="#666666"/>
</g>
<defs>
<clipPath id="clip0_32_2346">
<rect width="24" height="24" fill="white" transform="translate(-0.00012207 -0.00390625)"/>
</clipPath>
</defs>
</svg>
