<svg width="24" height="24" viewBox="0 0 24 24" fill="none" xmlns="http://www.w3.org/2000/svg">
<path d="M5.91178 14.7671C5.91141 15.2033 5.78172 15.6296 5.53911 15.9922C5.29649 16.3547 4.95184 16.6371 4.54872 16.8038C4.14561 16.9705 3.70213 17.0139 3.27434 16.9286C2.84655 16.8432 2.45367 16.633 2.14535 16.3244C1.83703 16.0158 1.62712 15.6228 1.54216 15.1949C1.45719 14.7671 1.50099 14.3236 1.66801 13.9206C1.83502 13.5177 2.11776 13.1733 2.48049 12.931C2.84321 12.6886 3.26963 12.5593 3.70585 12.5593H5.91178V14.7671ZM7.02366 14.7671C7.02366 14.1821 7.25607 13.621 7.66976 13.2073C8.08346 12.7936 8.64455 12.5612 9.2296 12.5612C9.81465 12.5612 10.3757 12.7936 10.7894 13.2073C11.2031 13.621 11.4355 14.1821 11.4355 14.7671V20.2909C11.4355 20.8759 11.2031 21.437 10.7894 21.8507C10.3757 22.2644 9.81465 22.4968 9.2296 22.4968C8.64455 22.4968 8.08346 22.2644 7.66976 21.8507C7.25607 21.437 7.02366 20.8759 7.02366 20.2909V14.7671ZM9.2296 5.90869C8.79338 5.90832 8.36707 5.77862 8.00455 5.53601C7.64204 5.29339 7.35959 4.94874 7.19291 4.54563C7.02624 4.14251 6.98282 3.69903 7.06815 3.27124C7.15348 2.84346 7.36372 2.45057 7.6723 2.14225C7.98088 1.83394 8.37395 1.62403 8.8018 1.53906C9.22966 1.4541 9.67311 1.49789 10.0761 1.66491C10.4791 1.83193 10.8235 2.11467 11.0658 2.47739C11.3081 2.84011 11.4374 3.26654 11.4374 3.70275V5.90869H9.2296ZM9.2296 7.02056C9.81465 7.02056 10.3757 7.25297 10.7894 7.66667C11.2031 8.08036 11.4355 8.64145 11.4355 9.2265C11.4355 9.81155 11.2031 10.3726 10.7894 10.7863C10.3757 11.2 9.81465 11.4324 9.2296 11.4324H3.70585C3.1208 11.4324 2.55971 11.2 2.14601 10.7863C1.73232 10.3726 1.49991 9.81155 1.49991 9.2265C1.49991 8.64145 1.73232 8.08036 2.14601 7.66667C2.55971 7.25297 3.1208 7.02056 3.70585 7.02056H9.2296ZM18.088 9.2265C18.0884 8.79029 18.2181 8.36398 18.4607 8.00146C18.7033 7.63894 19.048 7.35649 19.4511 7.18982C19.8542 7.02314 20.2977 6.97972 20.7255 7.06505C21.1533 7.15038 21.5461 7.36062 21.8545 7.6692C22.1628 7.97778 22.3727 8.37085 22.4577 8.79871C22.5426 9.22657 22.4988 9.67001 22.3318 10.073C22.1648 10.476 21.8821 10.8204 21.5193 11.0627C21.1566 11.305 20.7302 11.4343 20.294 11.4343H18.088V9.2265ZM16.9762 9.2265C16.9762 9.81155 16.7437 10.3726 16.3301 10.7863C15.9164 11.2 15.3553 11.4324 14.7702 11.4324C14.1852 11.4324 13.6241 11.2 13.2104 10.7863C12.7967 10.3726 12.5643 9.81155 12.5643 9.2265V3.70275C12.5643 3.1177 12.7967 2.55661 13.2104 2.14292C13.6241 1.72922 14.1852 1.49681 14.7702 1.49681C15.3553 1.49681 15.9164 1.72922 16.3301 2.14292C16.7437 2.55661 16.9762 3.1177 16.9762 3.70275V9.2265ZM14.7702 18.0849C15.2064 18.0853 15.6327 18.215 15.9953 18.4576C16.3578 18.7002 16.6402 19.0449 16.8069 19.448C16.9736 19.8511 17.017 20.2946 16.9317 20.7224C16.8463 21.1502 16.6361 21.5431 16.3275 21.8514C16.0189 22.1597 15.6259 22.3696 15.198 22.4546C14.7702 22.5395 14.3267 22.4957 13.9237 22.3287C13.5208 22.1617 13.1764 21.879 12.934 21.5162C12.6917 21.1535 12.5624 20.7271 12.5624 20.2909V18.0849H14.7702ZM14.7702 16.9731C14.1852 16.9731 13.6241 16.7407 13.2104 16.327C12.7967 15.9133 12.5643 15.3522 12.5643 14.7671C12.5643 14.1821 12.7967 13.621 13.2104 13.2073C13.6241 12.7936 14.1852 12.5612 14.7702 12.5612H20.294C20.879 12.5612 21.4401 12.7936 21.8538 13.2073C22.2675 13.621 22.4999 14.1821 22.4999 14.7671C22.4999 15.3522 22.2675 15.9133 21.8538 16.327C21.4401 16.7407 20.879 16.9731 20.294 16.9731H14.7702Z" fill="#666666"/>
</svg>
