<svg width="24" height="24" viewBox="0 0 24 24" fill="none" xmlns="http://www.w3.org/2000/svg">
<g clip-path="url(#clip0_32_2387)">
<path d="M19.1563 13.9883C18.9615 13.9893 18.7707 13.9323 18.6082 13.8247C18.4457 13.7171 18.3188 13.5637 18.2436 13.3839C18.1683 13.2041 18.1482 13.0061 18.1856 12.8148C18.2231 12.6235 18.3165 12.4477 18.4539 12.3096C18.5914 12.1714 18.7668 12.0772 18.9579 12.0388C19.149 12.0005 19.3471 12.0197 19.5273 12.0941C19.7074 12.1684 19.8614 12.2946 19.9698 12.4566C20.0782 12.6186 20.136 12.8091 20.136 13.0039C20.137 13.1331 20.1123 13.2611 20.0634 13.3807C20.0146 13.5002 19.9425 13.6089 19.8514 13.7004C19.7604 13.7919 19.652 13.8645 19.5327 13.9139C19.4134 13.9634 19.2855 13.9886 19.1563 13.9883ZM14.3671 13.9883C14.1722 13.9893 13.9815 13.9323 13.819 13.8247C13.6565 13.7171 13.5296 13.5637 13.4543 13.3839C13.3791 13.2041 13.359 13.0061 13.3964 12.8148C13.4339 12.6235 13.5272 12.4477 13.6647 12.3096C13.8022 12.1714 13.9776 12.0772 14.1687 12.0388C14.3597 12.0005 14.5579 12.0197 14.738 12.0941C14.9182 12.1684 15.0722 12.2946 15.1806 12.4566C15.289 12.6186 15.3468 12.8091 15.3468 13.0039C15.3478 13.1331 15.3232 13.2612 15.2744 13.3807C15.2255 13.5003 15.1535 13.609 15.0624 13.7006C14.9713 13.7921 14.8629 13.8647 14.7436 13.9141C14.6242 13.9635 14.4963 13.9887 14.3671 13.9883ZM21.4963 19.5599C23.0203 18.4672 23.9999 16.8289 23.9999 14.9718C23.9999 11.6399 20.789 8.90848 16.762 8.90848C12.7349 8.90848 9.52353 11.6399 9.52353 14.9718C9.52353 18.3036 12.7345 21.0346 16.762 21.0346C17.5781 21.0346 18.3946 20.9254 19.102 20.7064C19.2187 20.6661 19.2651 20.6516 19.3195 20.6516C19.4538 20.6548 19.5851 20.6926 19.7006 20.7613L21.2812 21.6899C21.3323 21.7167 21.3874 21.7352 21.4443 21.7447C21.5009 21.7409 21.5542 21.7166 21.5943 21.6764C21.6344 21.6363 21.6586 21.5829 21.6623 21.5263C21.6587 21.4646 21.6465 21.4037 21.6262 21.3454C21.607 21.2769 21.3918 20.5954 21.2812 20.1608C21.271 20.1072 21.2659 20.0527 21.2657 19.9982C21.2664 19.9116 21.288 19.8265 21.3289 19.7501C21.3697 19.6738 21.4284 19.6085 21.5001 19.5599" fill="#666666"/>
<path d="M11.5374 8.36448C11.2332 8.36448 10.9415 8.24364 10.7263 8.02853C10.5112 7.81342 10.3904 7.52166 10.3904 7.21745C10.3904 6.91324 10.5112 6.62149 10.7263 6.40638C10.9415 6.19127 11.2332 6.07042 11.5374 6.07042C12.136 6.07042 12.6802 6.61651 12.6802 7.21745C12.7346 7.81839 12.1904 8.36448 11.5374 8.36448ZM5.76898 8.36448C5.54202 8.36532 5.31992 8.2988 5.13078 8.17336C4.94164 8.04791 4.79396 7.86917 4.70644 7.65976C4.61893 7.45036 4.5955 7.21969 4.63913 6.99696C4.68276 6.77424 4.79148 6.56946 4.95154 6.40855C5.1116 6.24763 5.31579 6.13782 5.53829 6.09301C5.76078 6.0482 5.99157 6.0704 6.20144 6.1568C6.41131 6.2432 6.59083 6.38992 6.71728 6.5784C6.84373 6.76687 6.91142 6.98862 6.9118 7.21558C6.91057 7.51868 6.78991 7.80909 6.57597 8.02381C6.36204 8.23853 6.07208 8.36027 5.76898 8.36261V8.36448ZM8.6532 2.24683C3.86398 2.24683 7.62939e-05 5.46948 7.62939e-05 9.51245C7.62939e-05 11.6973 1.14289 13.6637 2.99305 14.9748C3.15664 15.0831 3.18758 15.325 3.18758 15.4187C3.1915 15.4902 3.18098 15.5618 3.15664 15.6292C2.99305 16.1753 2.78445 17.0593 2.77555 17.1062C2.76664 17.1531 2.72117 17.2703 2.72117 17.3246C2.71885 17.361 2.72428 17.3975 2.73711 17.4316C2.74993 17.4657 2.76985 17.4967 2.79555 17.5225C2.82126 17.5484 2.85215 17.5684 2.8862 17.5814C2.92025 17.5944 2.95666 17.6001 2.99305 17.5979C3.05143 17.5942 3.10783 17.5753 3.15664 17.5431L5.06258 16.45C5.22617 16.3407 5.33492 16.3407 5.49805 16.3407C5.59138 16.3421 5.68368 16.3605 5.77039 16.3951C6.64086 16.6684 7.62055 16.7776 8.60023 16.7776H9.09008C8.91164 16.1934 8.81989 15.5861 8.81773 14.9753C8.81773 11.3153 12.3554 8.36589 16.7091 8.36589H17.199C16.5985 4.92339 13.007 2.24683 8.6532 2.24683Z" fill="#666666"/>
</g>
<defs>
<clipPath id="clip0_32_2387">
<rect width="24" height="24" fill="white" transform="translate(0.00012207 -0.00390625)"/>
</clipPath>
</defs>
</svg>
