<svg width="24" height="24" viewBox="0 0 24 24" fill="none" xmlns="http://www.w3.org/2000/svg">
<g clip-path="url(#clip0_32_2363)">
<path d="M20.7967 18.9862C20.7282 18.9492 20.6631 18.914 20.6092 18.8831C20.3059 18.7036 19.9998 18.39 20.0537 18.0473C20.1672 17.3001 20.1892 16.9472 20.0307 16.6978C19.9455 16.5646 19.8193 16.4626 19.6712 16.4072V16.4044C19.7373 16.2844 19.7772 16.139 19.8039 15.93C19.8714 15.4144 19.5695 13.8675 19.1617 12.6159C18.7829 11.459 17.7911 10.2722 17.0664 9.40217L16.8971 9.19873C15.7778 7.84264 15.7562 7.40858 15.6526 5.32358C15.6376 5.02029 15.6203 4.6767 15.5978 4.29233C15.4628 1.94154 14.2501 0.749512 12.0001 0.749512C10.8189 0.749512 9.90855 1.08467 9.29449 1.74607C8.80277 2.27529 8.53137 2.99951 8.53137 3.78607C8.53137 5.16983 8.62512 6.27045 8.63215 6.33092C8.69777 8.00436 8.67902 8.26311 8.24262 9.02858C8.13809 9.21279 7.8498 9.53811 7.54465 9.88217C7.14715 10.3308 6.69668 10.8389 6.44965 11.2519C6.27293 11.5476 6.17402 11.8439 6.06949 12.158C5.91012 12.6365 5.72918 13.1789 5.21871 13.8722C4.62949 14.6723 4.49121 15.2601 4.70309 16.0964C4.47152 16.3987 4.47668 16.77 4.48043 17.0447C4.48702 17.14 4.4823 17.2359 4.46637 17.3301C4.35902 17.6859 3.88418 17.7708 3.43512 17.8073C3.36105 17.813 3.2898 17.8172 3.22184 17.8209C2.88152 17.8392 2.58762 17.8556 2.41887 18.1162C2.25621 18.3675 2.36637 18.7631 2.51918 19.3106C2.55293 19.4315 2.58762 19.5567 2.62184 19.6884C2.70762 20.0165 2.61434 20.1797 2.49621 20.384C2.38183 20.5814 2.25199 20.8059 2.25199 21.2067C2.25199 21.8944 3.18949 22.0505 4.26996 22.2351C4.61496 22.2933 4.97309 22.3537 5.33074 22.4339C5.87564 22.5583 6.40981 22.7257 6.92824 22.9345C7.38387 23.1094 7.74387 23.2476 8.16715 23.2476C8.92559 23.2476 9.49137 22.7897 10.0384 22.3472L10.1392 22.2651C10.3984 22.0547 11.147 22.0776 11.7489 22.0945C11.9111 22.0992 12.0643 22.1039 12.2012 22.1039H12.4928C13.1246 22.1001 13.99 22.0955 14.4723 22.2211C14.6481 22.268 14.7629 22.3955 14.9078 22.5581C15.1829 22.8656 15.5251 23.2495 16.4729 23.2495C17.3818 23.2495 17.8581 22.8412 18.4098 22.3683C18.7454 22.0809 19.0923 21.7833 19.585 21.5311C19.7687 21.4373 19.9422 21.3497 20.1043 21.2681C21.1656 20.7347 21.7501 20.4408 21.7501 19.964C21.7501 19.4995 21.1764 19.1906 20.7967 18.9862ZM9.8959 4.14232C10.024 4.14738 10.1478 4.1901 10.2518 4.26514C10.3557 4.34017 10.4353 4.4442 10.4804 4.5642C10.5718 4.82436 10.5653 5.05264 10.4903 5.17076C10.4903 5.17076 10.48 5.12389 10.4734 5.10326C10.4265 4.93609 10.3188 4.79248 10.1715 4.70061C10.1101 4.66096 10.0413 4.63438 9.96917 4.62253C9.89707 4.61067 9.8233 4.61379 9.75246 4.6317C9.55277 4.68467 9.35824 4.86608 9.33481 5.51248C9.09293 5.0217 9.22652 4.66873 9.37793 4.43436C9.48621 4.25951 9.72809 4.13764 9.8959 4.14232ZM9.07559 21.7205C9.00012 22.4639 8.21262 22.4526 7.97309 22.4334C7.51324 22.395 6.95777 22.2136 6.42012 22.0383C6.20824 21.9694 5.98934 21.8976 5.77652 21.8348C5.15777 21.6525 4.36465 21.5189 3.72715 21.413C3.57621 21.3872 3.43324 21.3633 3.30293 21.3403C3.17262 21.3173 3.08684 21.2808 3.05918 21.2325C3.0123 21.1551 3.07699 20.9864 3.14965 20.7914C3.24715 20.5308 3.38027 20.1717 3.37512 19.7339C3.37512 19.5506 3.30621 19.3448 3.24199 19.1451C3.16605 18.9108 3.08824 18.6684 3.15152 18.5536C3.20918 18.449 3.46793 18.4369 3.69527 18.4369H3.80121C3.96762 18.4369 4.11152 18.4397 4.21137 18.412C4.51652 18.3272 4.90793 18.0876 5.04621 17.7614C5.0884 17.6597 5.11043 17.4361 5.13996 17.1051C5.1573 16.912 5.17465 16.7128 5.19715 16.6092C5.20269 16.5827 5.21459 16.558 5.23182 16.5372C5.24905 16.5164 5.2711 16.5001 5.29605 16.4897C5.3734 16.4536 5.61387 16.4001 6.16934 16.6809C6.6934 16.9458 7.24184 17.8922 7.77246 18.8076C7.93934 19.0955 8.09684 19.3673 8.25527 19.6214C8.9134 20.678 9.13793 21.1026 9.07559 21.7214V21.7205ZM15.115 20.2411C15.0587 20.4172 14.9873 20.5881 14.9017 20.752C14.8988 20.7584 14.8937 20.7635 14.8872 20.7661C14.8807 20.7688 14.8735 20.7689 14.867 20.7664C14.8604 20.7638 14.8552 20.7589 14.8522 20.7525C14.8492 20.7462 14.8488 20.739 14.8511 20.7323C14.9313 20.4518 14.9647 20.1599 14.95 19.8684C14.9382 19.6467 14.9312 19.5126 14.8253 19.4695C14.7193 19.4264 14.6256 19.5084 14.3823 19.7292C14.3307 19.7761 14.2717 19.8295 14.2051 19.8886C13.6989 20.3325 12.9451 20.858 11.5984 20.984C10.809 21.0586 10.3051 20.767 10.149 20.6025C10.1399 20.5927 10.1289 20.5849 10.1166 20.5794C10.1044 20.5739 10.0912 20.5709 10.0779 20.5706C10.0645 20.5702 10.0512 20.5725 10.0387 20.5774C10.0262 20.5822 10.0148 20.5895 10.0051 20.5987C9.99155 20.6126 9.98213 20.63 9.97791 20.649C9.97368 20.668 9.97483 20.6877 9.98121 20.7061C10.0806 21.0267 10.0375 21.2808 9.95824 21.465C9.91371 21.5681 9.87152 21.5611 9.86449 21.449C9.85277 21.2315 9.81762 20.9859 9.72387 20.7839C9.57809 20.4586 9.39574 20.1117 9.30715 19.9458V19.9434C9.45902 19.8736 9.72246 19.717 9.84012 19.4334C9.95777 19.1498 10.0501 18.5897 9.3798 17.9456C9.08543 17.662 8.34387 17.1412 7.68949 16.68C7.17855 16.3214 6.65027 15.9506 6.5809 15.8592C6.37043 15.5831 6.2823 15.4233 6.25559 14.9381C6.25887 14.8303 6.26168 14.723 6.26449 14.6151L6.27715 14.4984C6.27801 14.4919 6.28122 14.4859 6.28618 14.4815C6.29114 14.4772 6.29751 14.4748 6.3041 14.4748C6.31069 14.4748 6.31706 14.4772 6.32202 14.4815C6.32698 14.4859 6.33019 14.4919 6.33105 14.4984C6.35029 14.6525 6.38164 14.8049 6.4248 14.954C6.47543 15.1289 6.5373 15.3094 6.59449 15.3844C6.74402 15.5822 6.94887 15.7308 7.14152 15.7823C7.18043 15.7959 7.22204 15.7999 7.26283 15.7941C7.30362 15.7882 7.3424 15.7726 7.3759 15.7486C7.51324 15.6394 7.50012 15.3923 7.47855 14.9826C7.45652 14.5608 7.42652 13.9823 7.56527 13.3631C7.82871 12.1912 8.07668 11.8392 8.39074 11.3944C8.43105 11.3372 8.47277 11.2786 8.51496 11.2167C8.58246 11.1192 8.65559 11.0245 8.73387 10.9247C9.08402 10.4742 9.48059 9.9642 9.38637 9.00514C9.36246 8.76186 9.35074 8.59123 9.34605 8.47123C9.3446 8.46029 9.34706 8.44918 9.35299 8.43988C9.35893 8.43057 9.36795 8.42365 9.37849 8.42035C9.38902 8.41704 9.40038 8.41756 9.41057 8.42181C9.42076 8.42606 9.42912 8.43377 9.43418 8.44358L9.45715 8.47967L9.51387 8.57342C9.74168 8.94842 10.1532 9.63139 10.6904 9.63139C10.7275 9.63133 10.7645 9.62803 10.8011 9.62154C11.8975 9.43733 13.2339 8.20358 13.2465 8.19139C13.3928 8.05076 13.3796 7.90358 13.3234 7.82061C13.2906 7.77368 13.2423 7.73985 13.1869 7.7251C13.1316 7.71035 13.0729 7.71562 13.0211 7.73998C12.8668 7.80561 12.6864 7.88764 12.4951 7.97436C11.8473 8.26826 10.7607 8.75951 10.5146 8.64654C10.4024 8.58455 10.3021 8.50313 10.2184 8.40608C10.2133 8.40257 10.209 8.39809 10.2056 8.39291C10.2023 8.38772 10.2 8.38193 10.1989 8.37586C10.1978 8.36978 10.1979 8.36355 10.1992 8.35752C10.2005 8.35148 10.2029 8.34576 10.2064 8.34069C10.21 8.33561 10.2144 8.33127 10.2196 8.32792C10.2248 8.32457 10.2306 8.32228 10.2367 8.32117C10.2427 8.32006 10.249 8.32015 10.255 8.32145C10.261 8.32275 10.2668 8.32522 10.2718 8.32873C10.5339 8.43608 10.7195 8.3967 10.9375 8.32498L10.9843 8.30904C11.4236 8.1642 11.65 8.08545 12.4262 7.74279C12.6715 7.62774 12.9266 7.53472 13.1884 7.46483C13.3759 7.41795 13.4893 7.38842 13.5498 7.26139C13.5781 7.20923 13.591 7.15007 13.5868 7.09086C13.5827 7.03166 13.5617 6.97487 13.5264 6.92717C13.4546 6.83951 13.3356 6.8067 13.1982 6.83811C13.0473 6.87326 12.9779 6.97873 12.8978 7.04858C12.7853 7.14467 12.6634 7.24358 12.092 7.45404C10.8264 7.92279 10.4711 7.95139 9.97277 7.61483C9.51152 7.30123 9.26262 6.99467 9.26262 6.86483C9.26262 6.76498 9.51809 6.59764 9.6709 6.49733C9.73324 6.45654 9.7923 6.41811 9.84059 6.38201C10.044 6.23108 10.45 5.84811 10.4678 5.83217C10.7209 5.57858 11.3073 5.72998 11.6396 5.95311C11.6511 5.96164 11.6641 5.96774 11.678 5.97105C11.6918 5.97435 11.7062 5.97479 11.7203 5.97233C11.7335 5.96977 11.7461 5.96458 11.7572 5.95706C11.7684 5.94955 11.778 5.93986 11.7853 5.92857C11.7927 5.91728 11.7977 5.90463 11.8 5.89137C11.8024 5.87811 11.802 5.86451 11.799 5.85139C11.6021 5.03295 11.7929 4.56983 11.9865 4.32561C12.0849 4.20254 12.2095 4.10299 12.3513 4.03422C12.493 3.96546 12.6483 3.9292 12.8059 3.92811C13.4064 3.92811 13.8259 4.39686 13.8259 5.07279C13.8259 5.58842 13.6937 5.85983 13.569 6.02436C13.562 6.03343 13.5532 6.04091 13.5431 6.04632C13.533 6.05173 13.5219 6.05494 13.5105 6.05573C13.499 6.05653 13.4876 6.0549 13.4768 6.05094C13.4661 6.04699 13.4563 6.04081 13.4481 6.03279C13.4348 6.0194 13.4265 6.00192 13.4245 5.98319C13.4224 5.96447 13.4268 5.94561 13.4368 5.92967C13.5406 5.75173 13.5948 5.54925 13.5939 5.34326C13.5944 5.23981 13.5744 5.13729 13.5348 5.0417C13.4952 4.94612 13.437 4.85939 13.3635 4.78661C13.2899 4.71383 13.2026 4.65647 13.1066 4.61787C13.0107 4.57928 12.9079 4.56023 12.8045 4.56186C12.6198 4.56186 12.1726 4.63217 12.0184 5.28561C11.9807 5.45606 11.9753 5.63207 12.0025 5.80451L12.0062 5.83779C12.0484 6.18373 12.7234 6.4242 13.2826 6.56483C13.8151 6.69842 13.892 6.85639 13.697 7.48498C13.502 8.11358 13.8428 8.71451 13.9642 8.87108C14.1124 9.05302 14.2429 9.24876 14.3537 9.45561C14.4813 9.70271 14.5853 9.96137 14.664 10.2281C14.7657 10.5464 14.8539 10.8211 15.1623 11.2228C15.6812 11.8978 15.9901 13.5028 15.8654 14.879C15.8556 14.992 15.8406 15.0801 15.8293 15.1448C15.8092 15.2634 15.7956 15.3417 15.8603 15.397C15.925 15.4523 16.0084 15.4298 16.2006 15.3675L16.3614 15.3164C16.5552 15.2611 16.7521 15.2173 16.9511 15.1851C16.9669 15.1827 16.9819 15.1764 16.9949 15.167C17.0079 15.1575 17.0184 15.1451 17.0256 15.1308C17.1864 14.8069 17.2061 14.4173 17.2131 14.0775C17.2131 14.0365 17.214 13.993 17.2159 13.9467C17.2248 13.5825 17.237 13.0594 17.0776 12.4467C17.0736 12.4347 17.0746 12.4216 17.0803 12.4103C17.0859 12.399 17.0959 12.3904 17.1079 12.3865C17.1198 12.3825 17.1329 12.3834 17.1442 12.3891C17.1555 12.3948 17.1641 12.4047 17.1681 12.4167C17.3286 12.799 17.4337 13.2023 17.4803 13.6144C17.5998 14.6728 17.3912 15.1186 17.3893 15.1223C17.3845 15.1321 17.3818 15.1427 17.3815 15.1536C17.3811 15.1645 17.3832 15.1753 17.3874 15.1853C17.3916 15.1953 17.398 15.2043 17.406 15.2116C17.414 15.219 17.4235 15.2245 17.4339 15.2278C17.5589 15.2727 17.6708 15.3479 17.7596 15.4467C17.8281 15.5245 17.8032 15.5592 17.7062 15.5226C17.5148 15.4512 17.312 15.4148 17.1076 15.4153C16.6201 15.4153 16.2597 15.6473 16.0993 15.8461C15.9498 16.0308 15.9259 16.2056 15.9198 16.3744L15.917 16.3767C15.5664 16.3415 15.3104 16.4334 15.0981 16.6678L15.0943 16.672C14.8009 17.0353 14.9068 17.8265 15.0339 18.4758C15.0939 18.7781 15.2959 19.672 15.115 20.242V20.2411ZM19.6196 20.7131C18.8832 21.0276 18.4276 21.3933 18.0259 21.7158C17.7611 21.9281 17.5103 22.1287 17.2159 22.2848C16.7415 22.5351 16.0482 22.5909 15.6564 21.9239C15.5453 21.7364 15.6231 21.4617 15.7304 21.0825C15.8734 20.5786 16.0693 19.889 15.9043 18.9895C15.8603 18.7495 15.8214 18.5437 15.7876 18.3656C15.6564 17.6714 15.6048 17.4103 15.6564 17.2026C15.6859 17.0878 15.8171 17.062 15.9315 17.062C15.9728 17.0624 16.0139 17.0654 16.0548 17.0709C16.1172 17.2835 16.2297 17.4781 16.3829 17.6381C16.6501 17.9128 17.0218 18.052 17.4873 18.053C17.5857 18.0609 18.7032 18.1256 19.2001 17.003C19.2686 17.0114 19.3712 17.0358 19.4017 17.1108C19.4617 17.2603 19.389 17.5284 19.3304 17.7436C19.2882 17.8987 19.2517 18.0323 19.254 18.1359C19.2686 18.8859 19.7696 19.2037 20.4648 19.6434C20.5487 19.6964 20.6364 19.7517 20.725 19.8094C20.8136 19.867 20.8595 19.9214 20.8595 19.9683C20.8351 20.1928 19.922 20.5851 19.6196 20.714V20.7131Z" fill="#666666"/>
</g>
<defs>
<clipPath id="clip0_32_2363">
<rect width="24" height="24" fill="white" transform="translate(0.00012207 -0.00390625)"/>
</clipPath>
</defs>
</svg>
