<svg width="24" height="24" viewBox="0 0 24 24" fill="none" xmlns="http://www.w3.org/2000/svg">
<path d="M21.9568 12.6151C21.833 11.0499 21.4055 9.89631 20.483 9.92491C20.4754 9.92498 20.4679 9.9269 20.4612 9.93051C20.4545 9.93413 20.4488 9.93932 20.4445 9.94565C20.4403 9.95197 20.4376 9.95924 20.4368 9.96681C20.436 9.97439 20.4371 9.98205 20.4399 9.98913C20.6794 10.5793 20.8937 11.7188 20.8697 12.7112C20.8702 12.7236 20.8658 12.7357 20.8573 12.7449C20.8489 12.754 20.8372 12.7594 20.8247 12.7599C20.8123 12.7604 20.8002 12.7559 20.7911 12.7475C20.7819 12.7391 20.7765 12.7273 20.776 12.7149C20.6733 11.7207 20.4432 10.7841 20.0157 9.92913C19.212 8.3172 17.9305 6.99253 16.3461 6.13588C14.7617 5.27923 12.9516 4.93234 11.1627 5.14254C9.37387 5.35275 7.69345 6.10981 6.35079 7.31042C5.00813 8.51102 4.06864 10.0967 3.66053 11.851C3.65244 11.8883 3.63316 11.9222 3.60527 11.9483C3.57737 11.9743 3.5422 11.9913 3.50443 11.9968L3.09897 12.054C2.29271 12.1665 1.83803 13.6899 2.08178 15.4524C2.32553 17.2149 3.18334 18.5555 3.98959 18.443L4.61022 18.3563C4.64596 18.3514 4.68236 18.357 4.71504 18.3723C4.74771 18.3876 4.77528 18.412 4.79443 18.4426C5.71534 19.8913 7.04196 21.0372 8.6092 21.7377C10.1764 22.4383 11.9151 22.6624 13.6087 22.3823C15.3024 22.1021 16.8763 21.3301 18.1345 20.1623C19.3927 18.9945 20.2797 17.4824 20.6851 15.8143C20.6943 15.7748 20.7162 15.7394 20.7473 15.7134C20.7784 15.6873 20.8171 15.6721 20.8576 15.6699L21.0638 15.6587C21.774 15.5401 22.0833 14.1948 21.9568 12.6151ZM4.42975 12.6727C4.424 12.6628 4.42211 12.6511 4.42441 12.6399C4.42671 12.6286 4.43306 12.6186 4.44224 12.6117C4.45143 12.6049 4.46282 12.6016 4.47425 12.6026C4.48568 12.6035 4.49637 12.6086 4.50428 12.6169C4.95568 13.0857 5.4535 13.913 5.5974 14.9541C5.74928 16.0346 5.4924 17.0729 5.16943 17.6668C5.16382 17.6766 5.15488 17.684 5.14424 17.6877C5.13359 17.6914 5.12197 17.6912 5.11149 17.687C5.10101 17.6829 5.09238 17.6751 5.08718 17.6651C5.08199 17.6551 5.08057 17.6435 5.08318 17.6326C5.27397 16.9557 5.32506 16.0468 5.18959 15.0666C5.05834 14.1141 4.78131 13.2727 4.42975 12.6727ZM12.8096 17.8191C12.6305 17.8188 12.4579 17.7525 12.3246 17.6329C12.1914 17.5133 12.1068 17.3488 12.0872 17.1708C12.0716 17.0249 12.1006 16.8776 12.1704 16.7485C12.2402 16.6194 12.3475 16.5145 12.4781 16.4476C12.6088 16.3807 12.7566 16.355 12.9022 16.3739C13.0478 16.3928 13.1842 16.4554 13.2934 16.5535C13.4026 16.6515 13.4796 16.7804 13.5141 16.923C13.5485 17.0657 13.5389 17.2155 13.4865 17.3526C13.4341 17.4897 13.3414 17.6077 13.2205 17.691C13.0996 17.7743 12.9564 17.819 12.8096 17.8191ZM16.6458 17.5979C16.5037 17.6048 16.3627 17.5695 16.2407 17.4964C16.1186 17.4232 16.0209 17.3156 15.9599 17.1871C15.8989 17.0585 15.8774 16.9148 15.898 16.774C15.9186 16.6332 15.9804 16.5016 16.0757 16.3959C16.1709 16.2902 16.2953 16.2151 16.4332 16.18C16.5711 16.1449 16.7163 16.1515 16.8505 16.1988C16.9847 16.2462 17.1019 16.3322 17.1873 16.446C17.2726 16.5599 17.3224 16.6964 17.3302 16.8385C17.34 17.0299 17.2735 17.2174 17.1452 17.3598C17.0168 17.5022 16.8373 17.5878 16.6458 17.5979Z" fill="#666666"/>
<path d="M7.75835 3.2793C7.76103 3.28173 7.7627 3.28507 7.76304 3.28867C7.76773 3.29805 7.77242 3.30273 7.7771 3.31211V3.3168C7.79889 3.36924 7.8366 3.41351 7.88492 3.44336C7.97867 3.51367 8.11929 3.55586 8.28804 3.58398C8.47284 3.6092 8.65959 3.61705 8.84585 3.60742C8.8913 3.60663 8.93667 3.6035 8.98179 3.59805C8.96304 3.5793 8.94429 3.55586 8.92554 3.53711H8.8646C8.68235 3.54343 8.49995 3.52928 8.32085 3.49492C8.17901 3.4731 8.04419 3.41853 7.9271 3.33555C7.90294 3.31609 7.88094 3.29408 7.86148 3.26992C7.8521 3.2346 7.8521 3.19743 7.86148 3.16211C7.88492 3.0543 7.97398 2.93711 8.11929 2.81523C8.27664 2.68688 8.44805 2.5768 8.63023 2.48711C8.67242 2.46836 8.70992 2.44492 8.7521 2.42617C8.75679 2.42148 8.76617 2.42148 8.77554 2.4168C8.73716 2.57829 8.73396 2.74615 8.76617 2.90898C8.87398 3.4668 9.30992 3.86055 9.85367 3.87461L10.0412 5.01367L10.6365 4.87305L10.449 3.78086C10.9552 3.56523 11.213 3.02617 11.1052 2.46836C11.0747 2.30917 11.0126 2.15773 10.9224 2.02305C10.674 1.98555 10.1912 1.98555 9.55367 2.12148C9.60523 2.10742 9.6521 2.08867 9.70367 2.07461C10.0337 1.98185 10.3708 1.916 10.7115 1.87773C10.7396 1.87305 10.7677 1.87305 10.7959 1.86836L10.9599 1.8543H10.988C11.1569 1.8442 11.3263 1.84891 11.4943 1.86836C11.5917 1.87986 11.6876 1.90186 11.7802 1.93398C11.7516 1.97869 11.7369 2.03091 11.738 2.08398C11.7385 2.14482 11.7582 2.20394 11.7945 2.25281C11.8307 2.30168 11.8815 2.33777 11.9396 2.35586C11.9098 2.40181 11.8769 2.44566 11.8412 2.48711C11.7993 2.53431 11.7539 2.57819 11.7052 2.61836C11.6537 2.66055 11.5974 2.70273 11.5412 2.74492L11.2365 2.92305L11.2224 2.99336C11.226 2.99286 11.2293 2.99122 11.2318 2.98867L11.6255 2.76836C11.6818 2.73086 11.738 2.69336 11.7849 2.65586C11.838 2.61582 11.8882 2.57195 11.9349 2.52461C11.9751 2.48322 12.0127 2.43939 12.0474 2.39336L12.0615 2.36523C12.1305 2.35686 12.1942 2.32376 12.2408 2.27205C12.2873 2.22035 12.3135 2.15354 12.3146 2.08398C12.3149 2.04637 12.3076 2.00907 12.2933 1.97427C12.2791 1.93946 12.258 1.90784 12.2314 1.88124C12.2048 1.85464 12.1732 1.83359 12.1384 1.81931C12.1036 1.80502 12.0663 1.7978 12.0287 1.79805C11.9831 1.79948 11.9383 1.81067 11.8974 1.83086C11.7778 1.76634 11.6476 1.7235 11.513 1.7043C11.2729 1.66526 11.0289 1.65581 10.7865 1.67617C10.7535 1.67697 10.7206 1.6801 10.688 1.68555C10.6571 1.69099 10.6257 1.69412 10.5943 1.69492C10.3362 1.52433 10.0214 1.46203 9.71773 1.52148C9.54235 1.55531 9.37661 1.62748 9.23237 1.73282C9.08812 1.83817 8.96894 1.97409 8.88335 2.13086C8.82242 2.1543 8.76148 2.18242 8.70523 2.21055C8.67242 2.22461 8.64429 2.23867 8.61148 2.25273C8.37578 2.36441 8.15654 2.50794 7.95992 2.6793C7.8146 2.81523 7.73023 2.94648 7.71148 3.06836C7.70083 3.13277 7.7124 3.19889 7.74429 3.25586C7.75 3.26301 7.75473 3.27089 7.75835 3.2793Z" fill="#666666"/>
</svg>
