<svg width="24" height="24" viewBox="0 0 24 24" fill="none" xmlns="http://www.w3.org/2000/svg">
<path fill-rule="evenodd" clip-rule="evenodd" d="M22.7204 6.18613C22.8872 5.65738 22.7204 5.273 21.9821 5.273H19.5272C18.908 5.273 18.6221 5.60956 18.4552 5.96956C18.4552 5.96956 17.1924 9.04456 15.429 11.0382C14.8571 11.6147 14.5951 11.8069 14.2852 11.8069C14.1183 11.8069 13.9037 11.6147 13.9037 11.0864V6.16128C13.9037 5.53691 13.7133 5.24863 13.1888 5.24863H9.32818C8.94662 5.24863 8.7085 5.53691 8.7085 5.82519C8.7085 6.42566 9.59021 6.57003 9.68537 8.25144V11.9049C9.68537 12.6975 9.54475 12.8424 9.23256 12.8424C8.39865 12.8424 6.37318 9.74347 5.15818 6.21238C4.92193 5.513 4.68193 5.24863 4.06225 5.24863H1.58396C0.86912 5.24863 0.750057 5.58472 0.750057 5.94519C0.750057 6.59394 1.58396 9.86066 4.63412 14.1844C6.65959 17.1375 9.54287 18.7247 12.1402 18.7247C13.7133 18.7247 13.9037 18.3643 13.9037 17.7638V15.5297C13.9037 14.8093 14.0466 14.6893 14.5472 14.6893C14.9044 14.6893 15.548 14.881 17.0016 16.2985C18.6694 17.9799 18.9554 18.7486 19.8849 18.7486H22.3393C23.0541 18.7486 23.3879 18.3882 23.1971 17.6916C22.9829 16.995 22.1724 15.9863 21.1238 14.7853C20.5519 14.1132 19.6941 13.3683 19.4321 13.0078C19.0749 12.5274 19.1701 12.3352 19.4321 11.903C19.4082 11.903 22.411 7.62706 22.7204 6.18425" fill="#666666"/>
</svg>
