<svg width="24" height="24" viewBox="0 0 24 24" fill="none" xmlns="http://www.w3.org/2000/svg">
<path d="M22.1795 10.3814L22.0736 9.93186H12.3029V14.0672H18.1407C17.5347 16.9453 14.7222 18.4603 12.4248 18.4603C10.7532 18.4603 8.99122 17.7572 7.82497 16.627C7.20965 16.0212 6.71987 15.3 6.38365 14.5047C6.04743 13.7093 5.87139 12.8555 5.86559 11.992C5.86559 10.2501 6.6484 8.50779 7.78747 7.3617C8.92653 6.21561 10.6468 5.57436 12.3573 5.57436C14.3162 5.57436 15.7201 6.61451 16.2451 7.08889L19.1837 4.16576C18.3217 3.40826 15.9536 1.49951 12.2626 1.49951C9.41497 1.49951 6.6845 2.59029 4.68856 4.57967C2.71887 6.53857 1.69934 9.37123 1.69934 11.9995C1.69934 14.6278 2.66403 17.3189 4.57278 19.2933C6.61231 21.3989 9.50075 22.4995 12.475 22.4995C15.1811 22.4995 17.7461 21.4392 19.5742 19.5155C21.3714 17.6217 22.3009 15.0014 22.3009 12.2545C22.3009 11.0981 22.1847 10.4114 22.1795 10.3814Z" fill="#666666"/>
</svg>
