<svg width="24" height="24" viewBox="0 0 24 24" fill="none" xmlns="http://www.w3.org/2000/svg">
<path d="M1.87181 6.99288L11.1249 11.461C11.3659 11.5758 11.6874 11.6358 12.0057 11.6358C12.324 11.6358 12.6456 11.5758 12.886 11.461L22.1392 6.99288C22.6257 6.7585 22.6257 6.37506 22.1392 6.13975L12.886 1.67162C12.6456 1.55678 12.3235 1.49678 12.0057 1.49678C11.6879 1.49678 11.3659 1.55678 11.1249 1.67162L1.87181 6.13975C1.38525 6.37506 1.38525 6.75756 1.87181 6.99288Z" fill="#666666"/>
<path d="M22.1391 11.569C22.1391 11.569 20.4492 10.7543 20.2252 10.6446C20.0011 10.5349 19.9407 10.541 19.7053 10.6503C19.47 10.7595 12.8803 13.9423 12.8803 13.9423C12.6026 14.0622 12.3026 14.122 12 14.1176C11.6827 14.1176 11.3602 14.0571 11.1197 13.9423C11.1197 13.9423 4.70487 10.8485 4.40393 10.6995C4.07815 10.5424 3.9844 10.5424 3.68768 10.6831L1.85956 11.5634C1.373 11.7978 1.373 12.1817 1.85956 12.4165L11.1141 16.8846C11.3546 16.9995 11.6766 17.0595 11.9944 17.0595C12.3122 17.0595 12.6342 16.9995 12.8752 16.8846L22.1283 12.4174C22.6257 12.1868 22.6257 11.8043 22.1391 11.569Z" fill="#666666"/>
<path d="M22.1391 17.0021C22.1391 17.0021 20.4492 16.1875 20.2252 16.0764C20.0011 15.9653 19.9406 15.9728 19.7053 16.082C19.47 16.1912 12.886 19.3811 12.886 19.3811C12.6081 19.5008 12.3081 19.5604 12.0056 19.5559C11.6883 19.5559 11.3658 19.4959 11.1249 19.3811C11.1249 19.3811 4.71001 16.2873 4.40955 16.1382C4.08142 15.9793 3.98767 15.9793 3.69283 16.1218L1.8647 17.0021C1.37767 17.2365 1.37767 17.62 1.8647 17.8553L11.1178 22.3234C11.3583 22.4434 11.6803 22.4982 11.9981 22.4982C12.316 22.4982 12.638 22.4382 12.8785 22.3234L22.1335 17.8576C22.6256 17.62 22.6256 17.2375 22.1391 17.0021Z" fill="#666666"/>
</svg>
