<svg width="24" height="24" viewBox="0 0 24 24" fill="none" xmlns="http://www.w3.org/2000/svg">
<g clip-path="url(#clip0_32_2255)">
<path d="M4.36817 15.4356L6.59239 1.18231C6.66926 0.696217 7.3213 0.581373 7.55145 1.0159L9.94208 5.49012L4.36817 15.4356ZM20.2499 18.7459L18.059 5.77137C18.0431 5.67863 18.0021 5.59201 17.9405 5.52088C17.8789 5.44976 17.799 5.39684 17.7095 5.36787C17.62 5.3389 17.5242 5.33498 17.4326 5.35653C17.3411 5.37808 17.2571 5.42428 17.1899 5.49012L3.74989 18.7459L11.2199 23.0542C11.4491 23.1799 11.7063 23.2458 11.9678 23.2458C12.2292 23.2458 12.4864 23.1799 12.7157 23.0542L20.2499 18.7459ZM14.173 7.44575L12.4602 4.18606C12.4176 4.10232 12.3527 4.032 12.2726 3.98289C12.1925 3.93377 12.1004 3.90777 12.0065 3.90777C11.9125 3.90777 11.8204 3.93377 11.7403 3.98289C11.6602 4.032 11.5953 4.10232 11.5527 4.18606L4.02317 17.6087L14.173 7.44575Z" fill="#666666"/>
</g>
<defs>
<clipPath id="clip0_32_2255">
<rect width="24" height="24" fill="white" transform="translate(0 -0.00390625)"/>
</clipPath>
</defs>
</svg>
