<svg width="24" height="24" viewBox="0 0 24 24" fill="none" xmlns="http://www.w3.org/2000/svg">
<path d="M11.25 22.4986V20.7914C7.52482 20.5768 5.2617 18.6577 5.24998 15.7486H8.62498C8.70795 16.9833 9.74342 17.926 11.25 18.0924V13.4986L9.99513 13.1705C7.13576 12.5058 5.60576 10.8553 5.60576 8.3855C5.60576 5.4741 7.69123 3.56488 11.25 3.27988V1.49863H12.75V3.27988C16.3776 3.57519 18.3281 5.51769 18.375 8.24863H15C14.9644 7.12081 14.2579 6.21472 12.75 6.09238V10.4049L14.1947 10.7461C17.2317 11.4108 18.75 12.983 18.75 15.5611C18.75 18.5771 16.6997 20.5243 12.75 20.7793V22.4986H11.25ZM11.25 10.1236V6.09238C9.9567 6.16363 9.0342 6.95816 9.0342 8.08597C9.0342 9.13128 9.80248 9.81472 11.25 10.1236ZM12.75 13.7799V18.0924C14.5383 18.0202 15.3928 17.2055 15.3928 15.9469C15.3928 14.7947 14.5383 14.0189 12.75 13.7799Z" fill="#666666"/>
</svg>
