<svg width="24" height="24" viewBox="0 0 24 24" fill="none" xmlns="http://www.w3.org/2000/svg">
<path d="M16.3655 6.41415C14.4755 6.41415 13.6767 7.31603 12.3605 7.31603C11.0109 7.31603 9.98154 6.42072 8.34373 6.42072C6.74061 6.42072 5.03107 7.39947 3.94545 9.06681C2.42107 11.4181 2.67982 15.8463 5.14873 19.6188C6.03186 20.9693 7.21123 22.4838 8.75811 22.5003H8.78623C10.1306 22.5003 10.53 21.6199 12.3801 21.6096H12.4083C14.2308 21.6096 14.5964 22.4951 15.9351 22.4951H15.9633C17.5101 22.4787 18.7528 20.8006 19.6359 19.4553C20.2715 18.4878 20.5078 18.0021 20.9953 16.9076C17.4239 15.552 16.8501 10.489 20.3822 8.5479C19.304 7.1979 17.789 6.41603 16.3608 6.41603L16.3655 6.41415Z" fill="#666666"/>
<path d="M15.9493 1.49678C14.8243 1.57319 13.5118 2.28944 12.743 3.22459C12.0455 4.07209 11.4718 5.32928 11.6968 6.5485H11.7868C12.9849 6.5485 14.2112 5.82709 14.9274 4.90272C15.6174 4.02287 16.1405 2.776 15.9493 1.49678Z" fill="#666666"/>
</svg>
