<svg width="24" height="24" viewBox="0 0 24 24" fill="none" xmlns="http://www.w3.org/2000/svg">
<g clip-path="url(#clip0_32_2318)">
<path d="M18.7392 9.51334C18.7017 8.71177 18.5845 7.89615 18.2329 7.1649C18.0401 6.76029 17.7784 6.39231 17.4595 6.0774C17.1605 5.78131 16.825 5.52455 16.4611 5.31334C15.6595 4.83521 14.7033 4.51646 12.5048 3.86021C10.3064 3.20396 8.99997 2.99771 8.99997 2.99771V19.793L12.7453 20.9977C12.7453 20.9977 12.75 11.679 12.75 6.95865V6.78052C12.75 6.34459 13.1015 5.99302 13.5047 5.99302H13.5281C13.9265 5.99302 14.2547 6.34459 14.2547 6.78052V13.029C14.7703 13.2774 15.6234 13.4649 16.214 13.4555C16.606 13.4664 16.9939 13.3743 17.339 13.1883C17.6952 12.9914 17.9929 12.7035 18.2015 12.354C18.4343 11.9599 18.5917 11.5259 18.6656 11.0743C18.7533 10.568 18.7579 10.0383 18.7392 9.51334ZM4.06263 16.7696C5.347 16.3102 8.24856 15.3868 8.24856 15.3868V13.1743C8.24856 13.1743 4.66263 14.3368 3.03138 14.9133C2.62825 15.0587 2.22044 15.1899 1.82669 15.3587C1.36731 15.5508 0.917313 15.7665 0.5095 16.0524C0.32654 16.1695 0.177767 16.3328 0.0782499 16.5258C0.031605 16.625 0.00548484 16.7326 0.00145732 16.8422C-0.0025702 16.9517 0.0155779 17.061 0.0548124 17.1633C0.148562 17.4024 0.326687 17.5993 0.52825 17.754C0.893875 18.0305 1.32981 18.1993 1.76575 18.3258C3.10118 18.7691 4.50276 18.98 5.9095 18.9493C6.58919 18.9399 7.597 18.8602 8.25325 18.743V16.7743C8.25325 16.7743 7.73763 16.8915 6.31731 17.3602C6.10169 17.4305 5.88606 17.5149 5.66106 17.5618C5.32804 17.6311 4.98872 17.6656 4.64856 17.6649C4.34388 17.6508 4.02981 17.6321 3.74388 17.5196C3.64075 17.4727 3.52825 17.4165 3.48606 17.304C3.44856 17.2102 3.50013 17.1165 3.56575 17.0508C3.697 16.9149 3.8845 16.8399 4.06263 16.7696Z" fill="#666666"/>
<path d="M24 16.2125C23.9953 15.9313 23.8266 15.6875 23.6297 15.5094C23.2969 15.2141 22.8844 15.0266 22.4719 14.8766C22.2141 14.7875 22.0359 14.7219 21.7828 14.6422C20.6016 14.2578 19.35 14.1172 18.1125 14.1125C17.7375 14.1266 17.0297 14.1359 16.6594 14.1781C15.6328 14.2953 13.5047 14.9 13.5047 14.9V17.1875C13.5047 17.1875 16.6688 16.175 18.0281 15.6969C18.4867 15.5481 18.9664 15.4753 19.4484 15.4813C19.7531 15.4906 20.0672 15.5141 20.3578 15.6266C20.4609 15.6688 20.5688 15.7297 20.6156 15.8375C20.6578 15.9594 20.5734 16.0719 20.4797 16.1422C20.2594 16.3203 19.9781 16.3906 19.7203 16.4891C17.7984 17.1688 13.5 18.5844 13.5 18.5844V20.7875C13.5 20.7875 18.9938 18.9313 21.5063 18.0313C21.9234 17.8766 22.3453 17.7453 22.7438 17.5438C23.1141 17.3563 23.4844 17.1406 23.7656 16.8266C23.9163 16.6575 23.9997 16.439 24 16.2125Z" fill="#666666"/>
</g>
<defs>
<clipPath id="clip0_32_2318">
<rect width="24" height="24" fill="white"/>
</clipPath>
</defs>
</svg>
