<svg width="24" height="24" viewBox="0 0 24 24" fill="none" xmlns="http://www.w3.org/2000/svg">
<path d="M4.0669 11.952C4.14694 11.9519 4.22558 11.931 4.29518 11.8915C4.34785 11.8615 4.39407 11.8214 4.43119 11.7735C4.46831 11.7256 4.4956 11.6708 4.5115 11.6123C4.5274 11.5538 4.53159 11.4927 4.52383 11.4326C4.51606 11.3725 4.49651 11.3145 4.46628 11.262C3.69471 9.92323 3.63143 8.81886 4.11706 7.98073C4.78549 6.82902 6.63003 6.40339 9.05159 6.84214C9.17183 6.8639 9.2958 6.83716 9.39638 6.76777C9.49697 6.69837 9.56597 6.59197 9.58831 6.47183C9.59913 6.41221 9.5981 6.35104 9.58527 6.29182C9.57244 6.2326 9.54807 6.17649 9.51355 6.12669C9.47903 6.07689 9.43504 6.03438 9.38408 6.00159C9.33313 5.9688 9.27621 5.94637 9.21659 5.93558C7.84831 5.68808 6.59159 5.69276 5.58893 5.94964C4.54362 6.2173 3.76081 6.75964 3.31784 7.51901C2.66159 8.65292 2.72252 10.0845 3.66565 11.72C3.70614 11.7906 3.76458 11.8492 3.83505 11.89C3.90552 11.9307 3.9855 11.9521 4.0669 11.952ZM16.9505 6.7362C18.4617 6.75589 19.4166 7.17261 19.8938 7.99527C20.5599 9.14277 20.0119 10.9395 18.428 12.8009C18.371 12.8679 18.3344 12.9499 18.3226 13.0371C18.3108 13.1243 18.3242 13.213 18.3612 13.2928C18.3982 13.3726 18.4574 13.4401 18.5316 13.4874C18.6058 13.5346 18.692 13.5596 18.78 13.5593C18.847 13.5594 18.9132 13.5449 18.9741 13.5169C19.0349 13.4889 19.089 13.4481 19.1325 13.3971C20.0288 12.3439 20.6489 11.2625 20.9255 10.2701C21.2133 9.23886 21.1332 8.29152 20.6911 7.53355C20.0442 6.41886 18.81 5.83901 16.9603 5.81464H16.9538C16.8316 5.81389 16.7141 5.86173 16.6271 5.94761C16.5402 6.0335 16.4909 6.1504 16.4902 6.27261C16.4894 6.39482 16.5373 6.51231 16.6232 6.59925C16.709 6.68619 16.8259 6.73546 16.9482 6.7362H16.9505ZM15.3033 19.4468C15.1984 19.3843 15.0731 19.3657 14.9546 19.3951C14.8361 19.4245 14.734 19.4995 14.6705 19.6039C13.9013 20.8765 12.9563 21.5773 12.0094 21.5773C10.6739 21.5773 9.3844 20.2034 8.55331 17.9014C8.51151 17.7866 8.426 17.6929 8.31543 17.641C8.20487 17.589 8.07823 17.5828 7.96315 17.6239C7.90587 17.644 7.85313 17.6752 7.80796 17.7158C7.76279 17.7564 7.72609 17.8054 7.69995 17.8602C7.67382 17.915 7.65877 17.9745 7.65567 18.0351C7.65257 18.0957 7.66149 18.1564 7.6819 18.2135C8.15065 19.5153 8.78206 20.5925 9.51003 21.3289C10.2652 22.0948 11.1296 22.5007 12.0094 22.5007C13.2928 22.5007 14.5191 21.6415 15.4617 20.0815C15.4931 20.0296 15.5138 19.972 15.5228 19.9121C15.5318 19.8521 15.5289 19.791 15.5142 19.7322C15.4994 19.6733 15.4732 19.618 15.437 19.5694C15.4009 19.5207 15.3554 19.4797 15.3033 19.4487V19.4468ZM20.236 15.8679C19.988 15.8667 19.7436 15.9266 19.5244 16.0425C19.3052 16.1583 19.118 16.3265 18.9794 16.532C18.8407 16.7376 18.755 16.9742 18.7297 17.2208C18.7044 17.4674 18.7404 17.7165 18.8344 17.9459C16.875 18.86 13.2188 18.1704 9.8405 16.2293C8.29784 15.3434 6.92674 14.2671 5.87487 13.1173C5.7921 13.0274 5.6772 12.9738 5.55512 12.968C5.43304 12.9623 5.31364 13.005 5.22284 13.0868C5.17784 13.1275 5.14133 13.1766 5.11543 13.2315C5.08952 13.2863 5.07472 13.3457 5.07189 13.4063C5.06906 13.4668 5.07824 13.5274 5.09892 13.5844C5.1196 13.6414 5.15136 13.6937 5.19237 13.7384C6.30753 14.9571 7.7555 16.0953 9.37971 17.0281C11.2678 18.1123 13.2361 18.8389 15.0717 19.1285C15.6142 19.2166 16.1628 19.2622 16.7124 19.265C17.7961 19.265 18.728 19.0634 19.455 18.6654C19.6541 18.787 19.8786 18.8608 20.111 18.881C20.3434 18.9012 20.5773 18.8673 20.7944 18.7819C21.0114 18.6965 21.2057 18.5619 21.3621 18.3888C21.5184 18.2157 21.6324 18.0087 21.6953 17.784C21.7582 17.5594 21.7681 17.3233 21.7243 17.0941C21.6806 16.865 21.5843 16.6492 21.4431 16.4635C21.3019 16.2779 21.1196 16.1275 20.9104 16.0241C20.7013 15.9208 20.4711 15.8673 20.2378 15.8679H20.236ZM20.236 17.9614C20.1029 17.9614 19.9737 17.9164 19.8694 17.8339C19.8407 17.7941 19.8059 17.7592 19.7663 17.7303C19.685 17.6244 19.6419 17.4942 19.6441 17.3608C19.6462 17.2273 19.6935 17.0986 19.7781 16.9954C19.8627 16.8922 19.9798 16.8207 20.1102 16.7925C20.2406 16.7643 20.3768 16.7811 20.4965 16.8401C20.6162 16.8991 20.7124 16.9969 20.7694 17.1175C20.8265 17.2381 20.8411 17.3745 20.8108 17.5045C20.7804 17.6344 20.7071 17.7503 20.6025 17.8333C20.498 17.9162 20.3685 17.9614 20.235 17.9614H20.236Z" fill="#666666"/>
<path d="M3.84803 15.8661C3.87475 14.8695 4.42975 13.6629 5.42678 12.4367C6.51381 11.1031 8.08412 9.81168 9.84897 8.79684C11.4076 7.90153 12.9052 7.30152 14.446 6.97293C14.5061 6.96121 14.5633 6.93763 14.6141 6.90356C14.665 6.8695 14.7086 6.82564 14.7423 6.77454C14.7761 6.72344 14.7993 6.66613 14.8106 6.60596C14.8219 6.54579 14.8212 6.48396 14.8083 6.42409C14.7955 6.36422 14.7709 6.30751 14.7359 6.25727C14.7009 6.20703 14.6562 6.16427 14.6045 6.13149C14.5528 6.09871 14.495 6.07657 14.4347 6.06635C14.3743 6.05613 14.3125 6.05805 14.2529 6.07199C12.6193 6.42027 11.0288 7.05637 9.38772 7.99809C5.44178 10.2645 2.80787 13.5828 2.92787 16.115C2.62761 16.3135 2.40785 16.6125 2.30796 16.9583C2.20807 17.3041 2.23458 17.6742 2.38274 18.0023C2.53089 18.3303 2.79102 18.5949 3.11651 18.7486C3.442 18.9023 3.81158 18.9351 4.15906 18.8411C4.50653 18.7471 4.80918 18.5325 5.0128 18.2357C5.21641 17.9388 5.30768 17.5792 5.27025 17.2212C5.23282 16.8632 5.06914 16.5302 4.80854 16.2819C4.54793 16.0336 4.20743 15.8862 3.84803 15.8661ZM3.76412 17.9572C3.64842 17.9563 3.53555 17.9212 3.43975 17.8564C3.34395 17.7915 3.26951 17.6997 3.2258 17.5925C3.1821 17.4854 3.1711 17.3677 3.19418 17.2543C3.21726 17.141 3.2734 17.0369 3.35551 16.9554C3.43762 16.8739 3.54203 16.8185 3.65557 16.7962C3.76912 16.774 3.88671 16.7858 3.99353 16.8303C4.10035 16.8748 4.19162 16.9499 4.25582 17.0461C4.32001 17.1424 4.35428 17.2555 4.35428 17.3712C4.35353 17.5271 4.29098 17.6764 4.18035 17.7862C4.06971 17.896 3.92003 17.9575 3.76412 17.9572Z" fill="#666666"/>
<path d="M12.0094 4.5132C12.2536 4.51383 12.4943 4.45526 12.7109 4.34252C12.9274 4.22978 13.1135 4.06622 13.253 3.86586C14.0916 4.41383 14.8468 5.50648 15.4004 6.96523C16.0097 8.57726 16.3304 10.4987 16.3304 12.5218C16.3304 14.2646 16.0871 15.9132 15.6272 17.378C15.6088 17.4357 15.6021 17.4964 15.6074 17.5567C15.6127 17.617 15.63 17.6756 15.6582 17.7291C15.6863 17.783 15.7248 17.8308 15.7714 17.8698C15.8181 17.9087 15.872 17.938 15.93 17.956C16.0468 17.9921 16.173 17.9806 16.2814 17.9241C16.3897 17.8675 16.4713 17.7705 16.5085 17.6541C16.9969 16.1007 17.2552 14.357 17.2552 12.5218C17.2552 10.3107 16.891 8.22008 16.2019 6.47492C15.5264 4.76492 14.6021 3.54992 13.5235 2.9518C13.5142 2.65454 13.4175 2.3666 13.2456 2.12392C13.0737 1.88124 12.8341 1.69456 12.5568 1.58719C12.2794 1.47982 11.9766 1.45651 11.6861 1.52017C11.3956 1.58382 11.1302 1.73163 10.9232 1.94514C10.7162 2.15865 10.5766 2.42841 10.5219 2.72074C10.4672 3.01308 10.4998 3.31504 10.6157 3.58895C10.7316 3.86287 10.9255 4.09659 11.1734 4.26096C11.4212 4.42533 11.712 4.51306 12.0094 4.5132ZM12.0094 2.41976C12.1251 2.4206 12.238 2.45567 12.3338 2.52056C12.4296 2.58545 12.504 2.67724 12.5477 2.78438C12.5914 2.89152 12.6024 3.0092 12.5794 3.12258C12.5563 3.23596 12.5001 3.33997 12.418 3.42149C12.3359 3.50301 12.2315 3.5584 12.118 3.58067C12.0044 3.60294 11.8868 3.59109 11.78 3.54662C11.6732 3.50215 11.5819 3.42705 11.5177 3.33079C11.4535 3.23453 11.4193 3.12141 11.4193 3.0057C11.42 2.8498 11.4826 2.70056 11.5932 2.59071C11.7038 2.48087 11.8535 2.41939 12.0094 2.41976ZM11.7657 11.4057C11.4898 11.4648 11.2455 11.624 11.0801 11.8525C10.9146 12.0811 10.8397 12.3628 10.8698 12.6434C10.8998 12.9239 11.0328 13.1834 11.2429 13.3717C11.453 13.5601 11.7254 13.6639 12.0075 13.6632C12.0888 13.6631 12.1699 13.6545 12.2494 13.6374C12.3976 13.6074 12.5384 13.5482 12.6636 13.4632C12.7887 13.3783 12.8957 13.2694 12.9785 13.1428C13.0612 13.0162 13.1179 12.8744 13.1454 12.7257C13.1728 12.5769 13.1705 12.4242 13.1384 12.2764C13.1064 12.1286 13.0453 11.9887 12.9587 11.8647C12.8721 11.7406 12.7618 11.6351 12.6341 11.5541C12.5064 11.4731 12.3638 11.4182 12.2148 11.3928C12.0657 11.3673 11.913 11.3717 11.7657 11.4057Z" fill="#666666"/>
</svg>
