<svg width="24" height="24" viewBox="0 0 24 24" fill="none" xmlns="http://www.w3.org/2000/svg">
<path d="M22.6467 1.50763C22.6073 1.50146 22.5675 1.49786 22.5277 1.49685H1.48079C1.07813 1.49123 0.755634 1.81935 0.750009 2.23513C0.748197 2.27916 0.751818 2.32324 0.760791 2.36638L3.82173 21.6437C3.86001 21.8771 3.97557 22.0909 4.14985 22.2508C4.32227 22.4087 4.54747 22.4964 4.78126 22.4969H19.4616C19.6374 22.4971 19.8072 22.4335 19.9396 22.3177C20.0719 22.202 20.1575 22.0421 20.1806 21.8678L22.0031 10.247H15.2433L14.378 15.497H9.61923L8.41314 8.55951H22.2685L23.2416 2.37201C23.3011 1.96185 23.0363 1.57326 22.6467 1.50763Z" fill="#666666"/>
</svg>
