<svg width="24" height="24" viewBox="0 0 24 24" fill="none" xmlns="http://www.w3.org/2000/svg">
<g clip-path="url(#clip0_32_2235)">
<path d="M23.7656 9.897C23.699 9.84122 23.0976 9.38419 21.8066 9.38419C21.4671 9.38615 21.1283 9.41594 20.7937 9.47325C20.549 7.767 19.1352 6.942 19.0795 6.89513L18.7345 6.6945L18.5118 7.01794C18.2311 7.45704 18.0242 7.93923 17.8996 8.44529C17.6652 9.4156 17.8106 10.3297 18.3004 11.1101C17.7102 11.4448 16.7535 11.5226 16.5529 11.532H0.747115C0.648619 11.5319 0.551084 11.5514 0.460127 11.5892C0.36917 11.6269 0.286588 11.6824 0.217137 11.7522C0.147687 11.822 0.0927398 11.9049 0.0554613 11.9961C0.0181827 12.0873 -0.000690868 12.1849 -7.25447e-05 12.2834C-0.021305 13.6711 0.213069 15.0508 0.691334 16.3536C1.23696 17.7809 2.0493 18.8426 3.09368 19.4867C4.27587 20.2114 6.20149 20.6239 8.3718 20.6239C9.3537 20.6239 10.3335 20.5343 11.2991 20.3562C12.6453 20.1121 13.9402 19.6409 15.1284 18.9626C16.1065 18.3943 16.9862 17.6714 17.7332 16.8218C18.9909 15.4058 19.7366 13.8218 20.2823 12.4156H20.5049C21.8741 12.4156 22.7202 11.869 23.1876 11.4008C23.4978 11.1068 23.7408 10.7492 23.9001 10.3526L24.0004 10.0629L23.7656 9.897Z" fill="#666666"/>
<path d="M2.21674 11.0775H4.33128C4.381 11.0775 4.42869 11.0578 4.46386 11.0226C4.49902 10.9875 4.51878 10.9398 4.51878 10.89V8.99254C4.51878 8.94281 4.49902 8.89512 4.46386 8.85996C4.42869 8.82479 4.381 8.80504 4.33128 8.80504H2.21674C2.16702 8.80504 2.11932 8.82479 2.08416 8.85996C2.049 8.89512 2.02924 8.94281 2.02924 8.99254V10.8882C2.0311 10.9373 2.05145 10.9839 2.08622 11.0187C2.12099 11.0535 2.16761 11.0738 2.21674 11.0757V11.0775ZM5.13284 11.0775H7.24784C7.29757 11.0775 7.34526 11.0578 7.38042 11.0226C7.41558 10.9875 7.43534 10.9398 7.43534 10.89V8.99254C7.43534 8.94281 7.41558 8.89512 7.38042 8.85996C7.34526 8.82479 7.29757 8.80504 7.24784 8.80504H5.13284C5.08311 8.80504 5.03542 8.82479 5.00026 8.85996C4.96509 8.89512 4.94534 8.94281 4.94534 8.99254V10.8882C4.94719 10.9373 4.96754 10.9839 5.00231 11.0187C5.03708 11.0535 5.0837 11.0738 5.13284 11.0757V11.0775ZM8.10471 11.0775H10.2188C10.2685 11.0775 10.3162 11.0578 10.3514 11.0226C10.3865 10.9875 10.4063 10.9398 10.4063 10.89V8.99254C10.4063 8.94281 10.3865 8.89512 10.3514 8.85996C10.3162 8.82479 10.2685 8.80504 10.2188 8.80504H8.10471C8.05499 8.80504 8.00729 8.82479 7.97213 8.85996C7.93697 8.89512 7.91721 8.94281 7.91721 8.99254V10.8882C7.91636 10.913 7.92063 10.9378 7.92975 10.9609C7.93888 10.984 7.95266 11.0051 7.97024 11.0226C7.98782 11.0402 8.00883 11.054 8.03197 11.0631C8.0551 11.0722 8.07986 11.0765 8.10471 11.0757V11.0775ZM11.0325 11.0775H13.1475C13.1973 11.0775 13.2449 11.0578 13.2801 11.0226C13.3153 10.9875 13.335 10.9398 13.335 10.89V8.99254C13.335 8.94281 13.3153 8.89512 13.2801 8.85996C13.2449 8.82479 13.1973 8.80504 13.1475 8.80504H11.0325C10.9828 8.80504 10.9351 8.82479 10.8999 8.85996C10.8648 8.89512 10.845 8.94281 10.845 8.99254V10.8882C10.845 10.9379 10.8648 10.9856 10.8999 11.0207C10.9351 11.0559 10.9828 11.0757 11.0325 11.0757V11.0775ZM5.13284 8.36817H7.24784C7.29697 8.36631 7.34359 8.34596 7.37836 8.31119C7.41313 8.27642 7.43348 8.2298 7.43534 8.18067V6.28316C7.43534 6.23344 7.41558 6.18575 7.38042 6.15058C7.34526 6.11542 7.29757 6.09566 7.24784 6.09566H5.13284C5.08311 6.09566 5.03542 6.11542 5.00026 6.15058C4.96509 6.18575 4.94534 6.23344 4.94534 6.28316V8.17879C4.94901 8.2273 4.96994 8.27289 5.00434 8.30729C5.03874 8.34168 5.08433 8.36262 5.13284 8.36629V8.36817ZM8.10471 8.36817H10.2188C10.2679 8.36631 10.3145 8.34596 10.3493 8.31119C10.3841 8.27642 10.4044 8.2298 10.4063 8.18067V6.28316C10.4063 6.23344 10.3865 6.18575 10.3514 6.15058C10.3162 6.11542 10.2685 6.09566 10.2188 6.09566H8.10471C8.05499 6.09566 8.00729 6.11542 7.97213 6.15058C7.93697 6.18575 7.91721 6.23344 7.91721 6.28316V8.17879C7.91721 8.22852 7.93697 8.27621 7.97213 8.31137C8.00729 8.34654 8.05499 8.36629 8.10471 8.36629V8.36817ZM11.0325 8.36817H13.1475C13.1967 8.36631 13.2433 8.34596 13.2781 8.31119C13.3128 8.27642 13.3332 8.2298 13.335 8.18067V6.28316C13.3332 6.23403 13.3128 6.18741 13.2781 6.15264C13.2433 6.11787 13.1967 6.09752 13.1475 6.09566H11.0325C10.9828 6.09566 10.9351 6.11542 10.8999 6.15058C10.8648 6.18575 10.845 6.23344 10.845 6.28316V8.17879C10.8469 8.22793 10.8672 8.27455 10.902 8.30932C10.9368 8.34408 10.9834 8.36443 11.0325 8.36629V8.36817ZM11.0325 5.64754H13.1475C13.1973 5.64754 13.2449 5.62779 13.2801 5.59262C13.3153 5.55746 13.335 5.50977 13.335 5.46004V3.5602C13.3332 3.51106 13.3128 3.46444 13.2781 3.42967C13.2433 3.3949 13.1967 3.37455 13.1475 3.3727H11.0325C10.9828 3.3727 10.9351 3.39245 10.8999 3.42761C10.8648 3.46278 10.845 3.51047 10.845 3.5602V5.45582C10.847 5.50492 10.8674 5.55148 10.9021 5.58623C10.9369 5.62097 10.9834 5.64136 11.0325 5.64332V5.64754ZM13.9819 11.0775H16.0969C16.1466 11.0775 16.1943 11.0578 16.2295 11.0226C16.2646 10.9875 16.2844 10.9398 16.2844 10.89V8.99254C16.2844 8.94281 16.2646 8.89512 16.2295 8.85996C16.1943 8.82479 16.1466 8.80504 16.0969 8.80504H13.9819C13.9322 8.80504 13.8845 8.82479 13.8493 8.85996C13.8142 8.89512 13.7944 8.94281 13.7944 8.99254V10.8882C13.7963 10.9373 13.8166 10.9839 13.8514 11.0187C13.8861 11.0535 13.9328 11.0738 13.9819 11.0757" fill="#666666"/>
</g>
<defs>
<clipPath id="clip0_32_2235">
<rect width="24" height="24" fill="white" transform="translate(0 -0.00390625)"/>
</clipPath>
</defs>
</svg>
