<svg width="24" height="24" viewBox="0 0 24 24" fill="none" xmlns="http://www.w3.org/2000/svg">
<path d="M16.1297 10.9484C14.775 10.9484 14.5875 12.2984 14.5875 12.2984H17.4656C17.4656 12.2984 17.4844 10.9484 16.1297 10.9484ZM9.60001 12.2984H7.05001V14.6422H9.47345C9.83908 14.6328 10.5235 14.5297 10.5235 13.5031C10.5235 12.2843 9.60001 12.2984 9.60001 12.2984Z" fill="#666666"/>
<path d="M11.9999 1.49678C6.20151 1.49678 1.49994 6.19834 1.49994 11.9968C1.49994 17.7952 6.20151 22.4968 11.9999 22.4968C17.7984 22.4968 22.4999 17.7952 22.4999 11.9968C22.4999 6.19834 17.7984 1.49678 11.9999 1.49678ZM14.2124 7.94678H17.8265V9.02491H14.2124V7.94678ZM12.3843 13.6093C12.3843 16.2812 9.59994 16.1968 9.59994 16.1968H5.04369V7.43116H9.59994C10.9874 7.43116 12.0796 8.19522 12.0796 9.76553C12.0796 11.3358 10.7437 11.4343 10.7437 11.4343C12.5062 11.4343 12.3843 13.6093 12.3843 13.6093ZM19.1437 13.464H14.6015C14.6015 15.0905 16.1437 14.9874 16.1437 14.9874C17.6015 14.9874 17.5499 14.0452 17.5499 14.0452H19.0921C19.0921 16.5483 16.0921 16.3749 16.0921 16.3749C12.4968 16.3749 12.7265 13.0233 12.7265 13.0233C12.7265 13.0233 12.7218 9.65772 16.0921 9.65772C19.6406 9.66241 19.1437 13.464 19.1437 13.464Z" fill="#666666"/>
<path d="M10.2188 9.90165C10.2188 8.99228 9.60001 8.99228 9.60001 8.99228H7.05001V10.947H9.44064C9.85314 10.947 10.2188 10.811 10.2188 9.90165Z" fill="#666666"/>
</svg>
