<svg width="24" height="24" viewBox="0 0 24 24" fill="none" xmlns="http://www.w3.org/2000/svg">
<g clip-path="url(#clip0_32_2406)">
<path d="M23.8426 6.97496C23.8426 4.86558 22.291 3.16871 20.3738 3.16871C17.777 3.0473 15.1285 3.00043 12.422 3.00043H11.5782C8.87822 3.00043 6.2251 3.0473 3.62822 3.16918C1.71572 3.16918 0.164157 4.87543 0.164157 6.9848C0.0469693 8.65308 -0.00271818 10.3218 9.43158e-05 11.9906C-0.00459319 13.6593 0.0485318 15.3296 0.159469 17.0015C0.159469 19.1109 1.71103 20.8218 3.62353 20.8218C6.35166 20.9484 9.1501 21.0046 11.9954 21C14.8454 21.0093 17.636 20.95 20.3673 20.8218C22.2845 20.8218 23.836 19.1109 23.836 17.0015C23.9485 15.3281 24.0001 13.6593 23.9954 11.9859C24.006 10.3171 23.9551 8.64683 23.8426 6.97496ZM9.70322 16.589V7.37808L16.5001 11.9812L9.70322 16.589Z" fill="#666666"/>
</g>
<defs>
<clipPath id="clip0_32_2406">
<rect width="24" height="24" fill="white"/>
</clipPath>
</defs>
</svg>
