<svg width="24" height="24" viewBox="0 0 24 24" fill="none" xmlns="http://www.w3.org/2000/svg">
<path d="M1.49999 1.49951V22.4995H22.5V1.49951H1.49999ZM12.75 17.812C12.75 19.8562 11.5425 20.8528 9.79452 20.8528C8.21577 20.8528 7.29937 20.0353 6.83437 19.0486L8.44124 18.0759C8.75109 18.6258 8.9864 19.0908 9.66281 19.0908C10.2253 19.0908 10.6875 18.8372 10.6875 17.8505V11.2495H12.75V17.812ZM17.407 20.8059C15.5747 20.8059 14.3906 19.979 13.8127 18.8372L15.4219 17.9058C15.8437 18.5967 16.3945 19.057 17.3672 19.057C18.1847 19.057 18.6595 18.6951 18.6595 18.1312C18.6595 17.4548 18.1706 17.2153 17.2683 16.8187L16.7751 16.6069C15.3511 16.0012 14.407 15.24 14.407 13.6326C14.407 12.1528 15.5344 11.0719 17.2964 11.0719C18.5512 11.0719 19.4527 11.4619 20.1019 12.6037L18.5625 13.5933C18.2241 12.9872 17.8594 12.7495 17.2941 12.7495C16.7161 12.7495 16.3495 13.1161 16.3495 13.5933C16.3495 14.1853 16.7161 14.4248 17.5617 14.7914L18.0548 15.0028C19.7325 15.7219 20.677 16.4559 20.677 18.104C20.6775 19.8806 19.282 20.8059 17.407 20.8059Z" fill="#666666"/>
</svg>
