<svg width="24" height="24" viewBox="0 0 24 24" fill="none" xmlns="http://www.w3.org/2000/svg">
<path d="M14.7187 1.70231C13.8473 1.55888 12.5718 1.49278 11.7061 1.497C10.8946 1.49794 10.0846 1.56662 9.2845 1.70231C7.14044 2.07731 6.74997 2.86013 6.74997 4.30575V5.997H12V6.747H5.04466C3.09653 6.747 1.51544 9.07528 1.49997 11.9558V11.997C1.49929 12.5006 1.54844 13.0031 1.64669 13.497C2.08216 15.6664 3.43872 17.247 5.04466 17.247H5.99997V14.7158C5.99997 13.2486 6.97684 11.9056 8.57809 11.6173L9.04075 11.5597H14.7187C14.9572 11.5606 15.1947 11.5291 15.4247 11.4659C15.9504 11.3255 16.4148 11.0147 16.7451 10.5822C17.0754 10.1497 17.2529 9.61994 17.25 9.07575V4.30575C17.25 2.95013 16.0931 1.92778 14.7187 1.70231ZM9.13731 4.94231C8.94819 4.94296 8.76313 4.88743 8.6056 4.78276C8.44808 4.67809 8.32518 4.529 8.25251 4.35439C8.17983 4.17978 8.16064 3.98752 8.19738 3.802C8.23412 3.61647 8.32513 3.44603 8.45886 3.3123C8.5926 3.17856 8.76303 3.08756 8.94856 3.05082C9.13409 3.01408 9.32635 3.03327 9.50095 3.10594C9.67556 3.17862 9.82465 3.30151 9.92932 3.45904C10.034 3.61656 10.0895 3.80162 10.0889 3.99075C10.0889 4.11573 10.0644 4.23949 10.0166 4.35497C9.96877 4.47045 9.89868 4.57537 9.81031 4.66374C9.72194 4.75212 9.61701 4.82221 9.50153 4.87001C9.38606 4.9178 9.26229 4.94238 9.13731 4.94231Z" fill="#666666"/>
<path d="M22.2788 10.1696C21.7772 8.17224 20.4783 6.74771 18.9553 6.74771H18.1252V8.97193C18.1252 10.8268 16.9064 12.1697 15.4186 12.3999C15.2683 12.4232 15.1165 12.4349 14.9644 12.4351H9.28502C9.04412 12.4348 8.80419 12.4655 8.57111 12.5265C7.52533 12.8011 6.75002 13.6711 6.75002 14.7994V19.5699C6.75002 20.9293 8.11596 21.7262 9.45611 22.1157C11.0597 22.5821 12.8067 22.6665 14.7258 22.1157C16.0003 21.7515 17.25 21.0151 17.25 19.5699V17.9977H12V17.2477H18.9553C20.3353 17.2477 21.5311 16.0791 22.1171 14.3738C22.3744 13.6082 22.5038 12.8054 22.5 11.9977C22.5013 11.3816 22.427 10.7676 22.2788 10.1696ZM14.8364 18.9352C15.0256 18.9346 15.2106 18.9901 15.3681 19.0948C15.5257 19.1994 15.6486 19.3485 15.7212 19.5231C15.7939 19.6977 15.8131 19.89 15.7764 20.0755C15.7396 20.2611 15.6486 20.4315 15.5149 20.5652C15.3811 20.699 15.2107 20.79 15.0252 20.8267C14.8397 20.8634 14.6474 20.8443 14.4728 20.7716C14.2982 20.6989 14.1491 20.576 14.0444 20.4185C13.9397 20.261 13.8842 20.0759 13.8849 19.8868C13.8848 19.7618 13.9094 19.638 13.9572 19.5226C14.005 19.4071 14.0751 19.3022 14.1634 19.2138C14.2518 19.1254 14.3567 19.0553 14.4722 19.0075C14.5877 18.9597 14.7114 18.9352 14.8364 18.9352Z" fill="#666666"/>
</svg>
