<svg width="24" height="24" viewBox="0 0 24 24" fill="none" xmlns="http://www.w3.org/2000/svg">
<path d="M16.8751 11.9977H17.6251V14.2477H16.8751V11.9977ZM5.25009 14.2477H11.3251L9.07509 11.9977H5.25009V14.2477Z" fill="#666666"/>
<path d="M17.0859 2.8131C17.0697 2.80477 17.054 2.79538 17.039 2.78497C16.5223 2.50806 15.9828 2.27596 15.4265 2.09122L15.1734 2.00685C14.1482 1.67409 13.0778 1.50174 11.9999 1.49591C6.20151 1.49591 1.49994 6.19747 1.49994 11.9959C1.49946 13.8695 2.00096 15.709 2.95227 17.3231C3.90358 18.9372 5.26997 20.2669 6.90932 21.174C6.92807 21.1834 6.94213 21.1975 6.96088 21.2069C7.47757 21.4838 8.01704 21.7159 8.57338 21.9006L8.82651 21.985C9.8516 22.3181 10.9221 22.4905 11.9999 22.4959C17.7984 22.4959 22.4999 17.7943 22.4999 11.9959C22.5006 10.1211 21.9986 8.28042 21.0465 6.66543C20.0943 5.05043 18.7266 3.72017 17.0859 2.8131ZM11.9999 19.9834C11.5725 19.9819 11.146 19.9443 10.7249 19.8709C10.2706 19.7956 9.8236 19.6811 9.38901 19.5287C9.29995 19.5006 9.21088 19.4725 9.12651 19.4397C8.8213 19.3245 8.52381 19.1899 8.23588 19.0365C6.95963 18.3551 5.89253 17.3396 5.14864 16.0987C4.40476 14.8578 4.01203 13.438 4.01244 11.9912C4.01244 10.2475 4.5937 8.64435 5.54526 7.33185L16.664 18.4506C15.3468 19.4022 13.7437 19.9834 11.9999 19.9834ZM18.4593 16.6553L7.34057 5.53654C8.65307 4.58966 10.2515 4.00841 11.9999 4.00841C12.4273 4.01014 12.8538 4.04777 13.2749 4.12091C13.7293 4.19619 14.1763 4.31068 14.6109 4.4631C14.6953 4.49122 14.7843 4.51935 14.8734 4.55216C15.1621 4.66146 15.4439 4.78825 15.7171 4.93185C17.0068 5.60796 18.0869 6.62404 18.8404 7.87004C19.594 9.11603 19.9923 10.5445 19.9921 12.0006C19.9874 13.7443 19.4062 15.3428 18.4593 16.6553Z" fill="#666666"/>
<path d="M16.4999 11.9981H14.9062L16.4999 13.5918V11.9981ZM17.9999 11.9981H18.7499V14.2481H17.9999V11.9981ZM16.8796 9.96838C16.4671 9.77619 15.8484 9.70119 14.7421 9.70119H14.5734C13.9781 9.70588 13.8281 9.69651 13.6359 9.41526C13.5046 9.21838 13.589 8.72151 13.8093 8.38869C13.8469 8.3323 13.8685 8.26677 13.8718 8.19909C13.8751 8.13141 13.86 8.0641 13.8281 8.00432C13.7957 7.94502 13.7484 7.89521 13.6908 7.85985C13.6333 7.82449 13.5675 7.80481 13.4999 7.80276C13.2055 7.79252 12.9152 7.73064 12.6421 7.61994C12.1452 7.40901 11.9109 7.05276 11.9109 6.53713C11.9109 5.32776 12.9327 5.23869 12.9796 5.23869V4.48869C12.4171 4.48869 11.1609 5.00432 11.1609 6.53713C11.1609 7.35744 11.5827 7.99026 12.3656 8.31838C12.5473 8.39219 12.7357 8.44869 12.9281 8.48713C12.7734 8.94651 12.7593 9.46682 13.0077 9.83244C13.4296 10.4559 13.9593 10.4512 14.5687 10.4465H14.7327C15.9656 10.4465 16.3546 10.5543 16.5562 10.6481C16.8234 10.7699 16.8749 10.9996 16.8656 11.384V11.4309H17.6156V11.384C17.6156 11.0512 17.6296 10.3153 16.8796 9.96838Z" fill="#666666"/>
<path d="M18.75 11.435C18.75 10.2303 18.6094 9.59753 18.3235 9.11003C17.9203 8.43503 17.2735 8.06003 16.5 8.06003H15.6844C15.8203 7.67096 15.9375 7.1319 15.8485 6.61159C15.6985 5.73034 14.9532 5.20534 13.8282 5.20534V5.95534C14.8125 5.95534 15.0516 6.3819 15.1125 6.73815C15.2297 7.41784 14.7938 8.24284 14.7891 8.25221C14.7578 8.30906 14.7417 8.37308 14.7425 8.43799C14.7434 8.5029 14.761 8.56649 14.7938 8.62253C14.8274 8.67828 14.8748 8.72441 14.9315 8.75644C14.9881 8.78846 15.0521 8.80531 15.1172 8.80534H16.5C17.011 8.80534 17.4094 9.03503 17.6766 9.48971C17.8219 9.73815 18 10.1225 18 11.4303H18.75V11.435Z" fill="#666666"/>
</svg>
