<svg width="24" height="24" viewBox="0 0 24 24" fill="none" xmlns="http://www.w3.org/2000/svg">
<path d="M23.1596 13.1997L21.9793 9.53969C21.973 9.506 21.9634 9.47303 21.9507 9.44125L19.5835 2.08468C19.5214 1.89556 19.401 1.73098 19.2396 1.61459C19.0781 1.49819 18.8839 1.43597 18.6849 1.43687C18.4864 1.43628 18.2929 1.49945 18.133 1.61709C17.9731 1.73473 17.8551 1.90061 17.7966 2.09031L15.54 9.10047H8.41504L6.1566 2.08984C6.09834 1.90079 5.98108 1.73537 5.822 1.61778C5.66291 1.5002 5.47036 1.43664 5.27254 1.4364H5.26738C5.06782 1.43708 4.8736 1.50095 4.71259 1.61885C4.55158 1.73674 4.43204 1.90261 4.37113 2.09265L2.0016 9.45578C2.0016 9.46234 1.99645 9.46797 1.9941 9.47453L0.792695 13.2002C0.704217 13.473 0.703871 13.7669 0.791705 14.04C0.87954 14.313 1.0511 14.5516 1.28207 14.7217L11.6621 22.3347C11.7532 22.4014 11.8633 22.437 11.9762 22.4364C12.0891 22.4358 12.1988 22.399 12.2893 22.3314L22.6711 14.7217C22.9021 14.5515 23.0737 14.3129 23.1614 14.0396C23.249 13.7664 23.2484 13.4725 23.1596 13.1997ZM7.64395 10.1758L10.5375 19.1645L3.59207 10.1758H7.64395ZM13.4189 19.1664L16.1935 10.5489L16.313 10.1739H20.3686L14.0846 18.3016L13.4189 19.1664ZM18.6938 2.77984L20.7268 9.1H16.6571L18.6938 2.77984ZM15.195 10.1716L13.1794 16.4331L11.9766 20.1625L8.76285 10.1716H15.195ZM5.2627 2.77984L7.29988 9.1H3.23441L5.2627 2.77984ZM1.90691 13.855C1.85786 13.8188 1.82145 13.7681 1.80285 13.71C1.78426 13.652 1.78442 13.5895 1.80332 13.5316L2.69395 10.7659L9.23817 19.2311L1.90691 13.855ZM22.0472 13.855L14.715 19.2288L14.7394 19.1964L21.2579 10.7641L22.1485 13.5297C22.1676 13.5877 22.168 13.6502 22.1496 13.7085C22.1312 13.7667 22.0949 13.8176 22.0458 13.8541" fill="#666666"/>
</svg>
