<svg width="24" height="24" viewBox="0 0 24 24" fill="none" xmlns="http://www.w3.org/2000/svg">
<g clip-path="url(#clip0_32_2242)">
<path d="M11.9765 0.700821C5.78901 0.700821 0.726509 5.76332 0.726509 11.9508C0.726509 18.1383 5.78901 23.2008 11.9765 23.2008C15.9796 23.2008 19.514 21.0821 21.5062 17.9086C21.5443 17.8483 21.5613 17.7771 21.5546 17.7061C21.5478 17.635 21.5177 17.5683 21.4688 17.5163C21.42 17.4642 21.3553 17.4299 21.2849 17.4186C21.2144 17.4073 21.1422 17.4198 21.0796 17.4539C20.8054 17.615 20.5166 17.7499 20.2171 17.8571C18.4921 18.4477 17.5406 18.4711 16.3687 18.4196C15.0609 18.3633 13.4671 17.9133 12.3468 17.2477C11.2265 16.5821 10.3078 15.6258 9.81089 14.7961C9.31401 13.9664 9.01401 12.9258 9.14995 11.5946C9.28588 10.2352 10.5281 9.12895 11.9812 9.12895C13.5515 9.12895 14.8312 10.3758 14.8312 11.9461C14.8312 12.743 14.4515 13.4321 13.964 13.9852C13.8562 14.0836 13.6078 14.4399 14.2359 14.9227C14.9812 15.4946 16.6546 15.7664 17.9812 15.7008C19.3078 15.6352 20.7515 15.1102 21.7406 14.0696C22.5281 13.2399 23.2312 11.9086 23.2312 10.4414C23.2265 4.57738 17.789 0.700821 11.9765 0.700821Z" fill="#666666"/>
</g>
<defs>
<clipPath id="clip0_32_2242">
<rect width="24" height="24" fill="white" transform="translate(0 -0.00390625)"/>
</clipPath>
</defs>
</svg>
