<svg width="24" height="24" viewBox="0 0 24 24" fill="none" xmlns="http://www.w3.org/2000/svg">
<path d="M16.3748 3.24936C17.5341 3.25282 18.645 3.7149 19.4648 4.53468C20.2846 5.35446 20.7466 6.46533 20.7501 7.62467V16.3744C20.7466 17.5337 20.2846 18.6446 19.4648 19.4643C18.645 20.2841 17.5341 20.7462 16.3748 20.7497H7.6251C6.46576 20.7462 5.35489 20.2841 4.53511 19.4643C3.71533 18.6446 3.25325 17.5337 3.24979 16.3744V7.62467C3.25325 6.46533 3.71533 5.35446 4.53511 4.53468C5.35489 3.7149 6.46576 3.25282 7.6251 3.24936H16.3748ZM16.3748 1.49951H7.6251C4.25619 1.49951 1.49994 4.25576 1.49994 7.62467V16.3744C1.49994 19.7433 4.25619 22.4995 7.6251 22.4995H16.3748C19.7437 22.4995 22.4999 19.7433 22.4999 16.3744V7.62467C22.4999 4.25576 19.7437 1.49951 16.3748 1.49951Z" fill="#666666"/>
<path d="M17.6873 7.6221C17.4278 7.6221 17.174 7.54513 16.9582 7.40091C16.7423 7.25669 16.5741 7.0517 16.4748 6.81187C16.3754 6.57205 16.3494 6.30815 16.4001 6.05355C16.4507 5.79895 16.5757 5.56508 16.7593 5.38152C16.9428 5.19797 17.1767 5.07296 17.4313 5.02232C17.6859 4.97168 17.9498 4.99767 18.1896 5.09701C18.4294 5.19635 18.6344 5.36458 18.7787 5.58042C18.9229 5.79626 18.9998 6.05001 18.9998 6.3096C19.0002 6.48207 18.9665 6.6529 18.9007 6.81231C18.8349 6.97172 18.7382 7.11656 18.6163 7.23851C18.4943 7.36046 18.3495 7.45712 18.1901 7.52295C18.0307 7.58878 17.8598 7.62247 17.6873 7.6221ZM12 8.49679C12.6923 8.49679 13.369 8.70207 13.9446 9.08667C14.5202 9.47127 14.9688 10.0179 15.2337 10.6575C15.4986 11.2971 15.568 12.0008 15.4329 12.6798C15.2979 13.3588 14.9645 13.9824 14.475 14.4719C13.9855 14.9614 13.3618 15.2948 12.6829 15.4298C12.0039 15.5649 11.3001 15.4956 10.6606 15.2307C10.021 14.9658 9.47433 14.5171 9.08973 13.9415C8.70513 13.3659 8.49985 12.6892 8.49985 11.9969C8.50084 11.069 8.86992 10.1792 9.52612 9.52306C10.1823 8.86687 11.072 8.49778 12 8.49679ZM12 6.74695C10.9617 6.74695 9.94662 7.05485 9.08326 7.63173C8.2199 8.20861 7.547 9.02855 7.14964 9.98786C6.75228 10.9472 6.64831 12.0028 6.85088 13.0212C7.05345 14.0396 7.55347 14.975 8.28769 15.7093C9.02192 16.4435 9.95738 16.9435 10.9758 17.1461C11.9942 17.3486 13.0498 17.2447 14.0091 16.8473C14.9684 16.45 15.7883 15.777 16.3652 14.9137C16.9421 14.0503 17.25 13.0353 17.25 11.9969C17.25 10.6046 16.6969 9.2692 15.7123 8.28464C14.7277 7.30007 13.3924 6.74695 12 6.74695Z" fill="#666666"/>
</svg>
