<svg width="24" height="24" viewBox="0 0 24 24" fill="none" xmlns="http://www.w3.org/2000/svg">
<path d="M1.31263 1.31111V22.6861H22.6876V1.31111H1.31263ZM19.0703 6.37549L17.9237 7.47471C17.8753 7.51169 17.8378 7.56115 17.8154 7.6178C17.7929 7.67445 17.7863 7.73614 17.7962 7.79627V15.8719C17.7756 15.9942 17.8248 16.1185 17.9237 16.1935L19.0431 17.2927V17.5341H13.4125V17.2927L14.5722 16.1667C14.6861 16.0528 14.6861 16.0191 14.6861 15.8452V9.31783L11.4615 17.5074H11.0256L7.27138 9.31783V14.8069C7.23997 15.0375 7.31685 15.27 7.47904 15.4369L8.98747 17.2664V17.5078H4.7106V17.2664L6.21904 15.4369C6.38029 15.2696 6.45247 15.0356 6.41357 14.8069V8.45955C6.43138 8.2833 6.36435 8.10892 6.23263 7.99033L4.892 6.37502V6.13361H9.05497L12.2729 13.1906L15.1019 6.13361H19.0703V6.37549Z" fill="#666666"/>
</svg>
