<svg width="24" height="24" viewBox="0 0 24 24" fill="none" xmlns="http://www.w3.org/2000/svg">
<path d="M19.2407 13.0843C19.0063 12.5452 18.6454 12.0718 17.9235 11.6733C17.5504 11.4624 17.1496 11.3046 16.7329 11.2046C17.0133 11.0743 17.2712 10.9003 17.4969 10.689C17.8288 10.3923 18.0803 10.0166 18.2282 9.59678C18.3643 9.17012 18.4199 8.72189 18.3922 8.27491C18.3407 7.48741 18.186 6.72334 17.7735 6.17491C17.361 5.62647 16.7797 5.20459 16.011 4.90928C15.4204 4.68428 14.8157 4.54366 13.8782 4.49209V1.49678H12.0032V4.49678H10.5032V1.49678H8.58131V4.49678H4.4999V6.74678H5.80631C6.21412 6.74678 6.49068 6.78428 6.63131 6.85459C6.76215 6.91057 6.86974 7.00989 6.936 7.13584C6.99693 7.25303 7.02506 7.52959 7.02506 7.95616V16.0749C7.02506 16.4968 6.99693 16.7687 6.936 16.8905C6.87506 17.0124 6.84224 17.1202 6.69693 17.1858C6.55162 17.2515 6.54693 17.2468 6.14381 17.2468H4.90631L4.4999 19.4968H8.57803V22.4968H10.4999V19.4968H11.9999V22.4968H13.8749V19.478C15.0937 19.4171 15.9608 19.2577 16.6593 18.9952C17.564 18.6577 18.2577 18.1655 18.7546 17.5187C19.2515 16.8718 19.4108 15.8827 19.4544 15.1187C19.4858 14.439 19.453 13.5624 19.2407 13.0843ZM10.4999 7.02803H11.9999V10.4968H10.4999V7.02803ZM10.4999 16.9655V12.7468H11.9999V16.9655H10.4999ZM13.8749 7.21084C14.1562 7.32803 14.339 7.56241 14.5218 7.80616C14.7233 8.07334 14.8265 8.42959 14.8265 8.80928C14.8265 9.17491 14.6905 9.48897 14.4749 9.77022C14.2968 9.99991 14.1562 10.1593 13.8749 10.2905V7.21084ZM15.2249 15.9624C14.8593 16.2858 14.6483 16.4358 14.189 16.6093C14.0862 16.6454 13.9813 16.6752 13.8749 16.6983V12.8171C14.0583 12.8442 14.2367 12.8979 14.4046 12.9765C14.7702 13.1312 15.1171 13.2999 15.3327 13.5952C15.5718 13.9344 15.7025 14.3381 15.7077 14.753C15.7063 15.264 15.5751 15.653 15.2235 15.9624H15.2249Z" fill="#666666"/>
</svg>
