<svg width="24" height="24" viewBox="0 0 24 24" fill="none" xmlns="http://www.w3.org/2000/svg">
<path d="M12 1.49678C6.19973 1.49678 1.50004 6.19647 1.50004 11.9968C1.50004 17.7971 6.19973 22.4968 12 22.4968C17.8004 22.4968 22.5 17.7971 22.5 11.9968C22.5 6.19647 17.8004 1.49678 12 1.49678ZM8.01566 16.5854C7.95123 16.6953 7.859 16.7863 7.74824 16.8492C7.63749 16.9122 7.51212 16.9448 7.38473 16.944C7.25489 16.9451 7.12731 16.91 7.01629 16.8427C6.93362 16.7948 6.86124 16.7311 6.80328 16.6551C6.74531 16.5792 6.70292 16.4925 6.67853 16.4001C6.65414 16.3078 6.64824 16.2115 6.66115 16.1168C6.67406 16.0221 6.70555 15.931 6.75379 15.8485L7.47051 14.6569C7.50673 14.5954 7.5584 14.5445 7.6204 14.5091C7.6824 14.4738 7.75257 14.4552 7.82395 14.4554H7.92988C8.44973 14.4554 8.81348 14.768 8.91941 15.0708L8.01566 16.5854ZM14.0836 14.2416L9.39004 14.2468H6.27051C6.17236 14.2472 6.07515 14.2277 5.98477 14.1894C5.8944 14.1511 5.81274 14.0949 5.74476 14.0241C5.67677 13.9533 5.62388 13.8694 5.58928 13.7776C5.55468 13.6857 5.53909 13.5878 5.54348 13.4897C5.55848 13.096 5.90207 12.7979 6.29348 12.7979H8.55473L11.2355 8.23459L10.3674 6.75569C10.1719 6.41866 10.2586 5.97428 10.5938 5.76241C10.6764 5.70897 10.769 5.67279 10.866 5.65605C10.9629 5.63931 11.0623 5.64235 11.158 5.66498C11.2538 5.68762 11.344 5.72939 11.4232 5.78778C11.5024 5.84617 11.569 5.91997 11.6189 6.00475L12.083 6.79741H12.0882L12.5527 6.00475C12.6027 5.92041 12.6692 5.847 12.7482 5.78891C12.8272 5.73081 12.917 5.68922 13.0124 5.6666C13.1078 5.64399 13.2068 5.64081 13.3035 5.65727C13.4001 5.67373 13.4925 5.70949 13.575 5.76241C13.9083 5.97428 13.9941 6.41866 13.7972 6.75709L12.9291 8.236L12.0854 9.67459L10.253 12.7993V12.8044H12.9535C13.2919 12.8044 13.7161 12.9863 13.8877 13.2788L13.9027 13.3093C14.0541 13.5666 14.1399 13.7433 14.1399 14.0007C14.1374 14.0843 14.1188 14.1665 14.085 14.243L14.0836 14.2416ZM17.7282 14.2468H16.4574V14.2519L17.3864 15.8321C17.4864 15.9985 17.517 16.1975 17.4716 16.3863C17.4263 16.575 17.3087 16.7384 17.1441 16.8413C17.03 16.9109 16.899 16.9477 16.7654 16.9477C16.6383 16.9477 16.5134 16.9147 16.4029 16.8522C16.2923 16.7896 16.1998 16.6994 16.1344 16.5905L14.7614 14.2533L13.9083 12.8002L12.8077 10.9187C12.6483 10.65 12.5616 10.3444 12.5563 10.0321C12.5509 9.71972 12.6271 9.41136 12.7772 9.13741C12.9947 8.7535 13.1611 8.65272 13.1611 8.65272L15.6094 12.7937H17.7146C18.1083 12.7937 18.4463 13.0965 18.4646 13.4851C18.4684 13.5839 18.4521 13.6824 18.4169 13.7748C18.3816 13.8671 18.3281 13.9514 18.2594 14.0226C18.1908 14.0937 18.1084 14.1503 18.0174 14.1888C17.9263 14.2273 17.8284 14.247 17.7296 14.2468H17.7282Z" fill="#666666"/>
</svg>
