<svg width="24" height="24" viewBox="0 0 24 24" fill="none" xmlns="http://www.w3.org/2000/svg">
<g clip-path="url(#clip0_32_2252)">
<path d="M15.75 8.2459C16.7446 8.2459 17.6984 7.85081 18.4017 7.14755C19.1049 6.44429 19.5 5.49046 19.5 4.4959C19.5 3.50133 19.1049 2.54751 18.4017 1.84425C17.6984 1.14098 16.7446 0.745895 15.75 0.745895H8.25C7.25544 0.745895 6.30161 1.14098 5.59835 1.84425C4.89509 2.54751 4.5 3.50133 4.5 4.4959C4.5 5.49046 4.89509 6.44429 5.59835 7.14755C6.30161 7.85081 7.25544 8.2459 8.25 8.2459C7.25544 8.2459 6.30161 8.64099 5.59835 9.34425C4.89509 10.0475 4.5 11.0013 4.5 11.9959C4.5 12.9905 4.89509 13.9443 5.59835 14.6475C6.30161 15.3508 7.25544 15.7459 8.25 15.7459C7.50832 15.7459 6.78329 15.9658 6.16661 16.3779C5.54993 16.7899 5.06928 17.3756 4.78545 18.0608C4.50162 18.7461 4.42736 19.5001 4.57205 20.2275C4.71675 20.9549 5.0739 21.6231 5.59835 22.1475C6.12279 22.672 6.79098 23.0292 7.51841 23.1738C8.24584 23.3185 8.99984 23.2443 9.68506 22.9604C10.3703 22.6766 10.956 22.196 11.368 21.5793C11.7801 20.9626 12 20.2376 12 19.4959V8.2459H15.75Z" fill="#666666"/>
<path d="M15.75 15.7459C17.8211 15.7459 19.5 14.067 19.5 11.9959C19.5 9.92483 17.8211 8.2459 15.75 8.2459C13.6789 8.2459 12 9.92483 12 11.9959C12 14.067 13.6789 15.7459 15.75 15.7459Z" fill="#666666"/>
</g>
<defs>
<clipPath id="clip0_32_2252">
<rect width="24" height="24" fill="white" transform="translate(0 -0.00390625)"/>
</clipPath>
</defs>
</svg>
