<svg width="24" height="24" viewBox="0 0 24 24" fill="none" xmlns="http://www.w3.org/2000/svg">
<g clip-path="url(#clip0_32_2291)">
<path d="M22.2656 2.99681H1.7343C0.777111 2.99681 -7.62939e-05 3.8115 -7.62939e-05 4.81415V19.1776C-7.62939e-05 20.1807 0.777111 20.9968 1.7343 20.9968H22.2656C23.2209 20.9968 23.9999 20.1807 23.9999 19.1776V4.81415C23.9999 3.8115 23.2227 2.99681 22.2656 2.99681ZM13.4999 17.2468H10.4999V11.9968L8.24993 14.9968L5.99993 11.9968V17.2468H2.99992V6.74681H5.99993L8.24993 10.4968L10.4999 6.74681H13.4999V17.2468ZM17.9999 17.2468L14.2499 11.9968H16.5023L16.4999 6.74681H19.4999V11.9968H21.7499L17.9999 17.2468Z" fill="#666666"/>
</g>
<defs>
<clipPath id="clip0_32_2291">
<rect width="24" height="24" fill="white"/>
</clipPath>
</defs>
</svg>
