<svg width="24" height="24" viewBox="0 0 24 24" fill="none" xmlns="http://www.w3.org/2000/svg">
<path d="M22.5 8.13474C22.5 3.25365 19.3003 1.82302 19.3003 1.82302C17.686 1.08287 14.9156 0.771149 12.0375 0.747711H11.9667C9.08861 0.771149 6.32018 1.08287 4.70674 1.82302C4.70674 1.82302 1.50658 3.25365 1.50658 8.13474C1.50658 9.25271 1.48502 10.5887 1.52018 12.0062C1.63643 16.779 2.3958 21.4838 6.8119 22.6519C8.84768 23.1905 10.5961 23.303 12.0038 23.2257C14.5571 23.0851 15.9881 22.3154 15.9881 22.3154L15.9042 20.4638C15.9042 20.4638 14.0794 21.039 12.0305 20.9687C10.0003 20.8993 7.85861 20.7497 7.53049 18.2588C7.49883 18.0274 7.48317 17.794 7.48361 17.5604C8.96935 17.892 10.4812 18.0936 12.0019 18.1627C13.5464 18.2335 14.9944 18.0722 16.4653 17.8969C19.2863 17.5604 21.7425 15.8232 22.051 14.2365C22.5394 11.7362 22.5 8.13474 22.5 8.13474ZM18.7247 14.4235H16.381V8.6874C16.381 7.47803 15.8719 6.86443 14.8538 6.86443C13.7288 6.86443 13.1635 7.5924 13.1635 9.03193V12.1726H10.8356V9.03193C10.8356 7.5924 10.2731 6.86443 9.14533 6.86443C8.12721 6.86443 7.61815 7.47803 7.61815 8.6874V14.4235H5.2744V8.51349C5.2744 7.30568 5.58299 6.34646 6.20018 5.63584C6.83768 4.92568 7.67205 4.56146 8.70846 4.56146C9.90752 4.56146 10.8155 5.02177 11.4155 5.94334L12 6.92068L12.5836 5.94334C13.1841 5.02177 14.0916 4.56146 15.2906 4.56146C16.3271 4.56146 17.1614 4.92568 17.7989 5.63584C18.4174 6.34584 18.726 7.30506 18.7247 8.51349V14.4235Z" fill="#666666"/>
</svg>
