<svg width="24" height="24" viewBox="0 0 24 24" fill="none" xmlns="http://www.w3.org/2000/svg">
<path d="M2.25001 2.78825V21.2101C2.25013 21.2501 2.26205 21.2891 2.28427 21.3224C2.3065 21.3556 2.33803 21.3815 2.37493 21.3969C2.41182 21.4122 2.45243 21.4164 2.49167 21.4087C2.5309 21.4011 2.56702 21.3821 2.59548 21.354L12.1875 11.9997L2.59548 2.64434C2.56702 2.61628 2.5309 2.59725 2.49167 2.58963C2.45243 2.58201 2.41182 2.58614 2.37493 2.60151C2.33803 2.61688 2.3065 2.6428 2.28427 2.67602C2.26205 2.70924 2.25013 2.74828 2.25001 2.78825ZM16.2094 8.1559L4.1822 1.52965L4.1747 1.52543C3.96751 1.41293 3.77063 1.69325 3.94032 1.85637L13.3683 10.8714L16.2094 8.1559ZM3.94126 22.1429C3.77063 22.3061 3.96751 22.5864 4.17563 22.4739L4.18313 22.4697L16.2094 15.8434L13.3683 13.127L3.94126 22.1429ZM21.0647 10.8278L17.7061 8.97809L14.5481 11.9997L17.7061 15.0198L21.0647 13.1715C21.9783 12.6667 21.9783 11.3326 21.0647 10.8278Z" fill="#666666"/>
</svg>
