<svg width="24" height="24" viewBox="0 0 24 24" fill="none" xmlns="http://www.w3.org/2000/svg">
<g clip-path="url(#clip0_32_2226)">
<path d="M13.8427 5.75485L10.4466 2.9986L13.8534 8.74735L13.8427 5.75485Z" fill="#666666"/>
<path d="M15.9108 2.9986V12.1673H13.9607L10.575 6.6211L10.6659 12.1673H8.51762V6.1486L6.51981 4.4986C6.57325 4.5661 6.62669 4.6336 6.67497 4.70672C7.21075 5.4886 7.4784 6.42235 7.4784 7.54735C7.4784 10.313 5.83778 12.1655 3.35903 12.1655H-3.43323e-05V12.188L10.6926 20.9986H24V9.64172L15.9108 2.9986Z" fill="#666666"/>
<path d="M5.24483 7.61781C5.24483 5.98656 4.48405 5.08093 3.11764 5.08093H2.0892V10.0872H3.10733C4.49998 10.0872 5.24483 9.22093 5.24483 7.61781Z" fill="#666666"/>
</g>
<defs>
<clipPath id="clip0_32_2226">
<rect width="24" height="24" fill="white" transform="translate(0 -0.00390625)"/>
</clipPath>
</defs>
</svg>
