<svg width="24" height="24" viewBox="0 0 24 24" fill="none" xmlns="http://www.w3.org/2000/svg">
<path d="M20.8204 1.49591H3.29429C2.33663 1.49591 1.49992 2.18497 1.49992 3.13138V20.6964C1.49992 21.6479 2.33663 22.4959 3.29429 22.4959H20.8152C21.778 22.4959 22.4999 21.6423 22.4999 20.6964V3.13138C22.5055 2.18497 21.778 1.49591 20.8204 1.49591ZM8.00945 19.0004H5.00101V9.64654H8.00945V19.0004ZM6.60929 8.22435H6.58773C5.62492 8.22435 5.00148 7.50763 5.00148 6.61044C5.00148 5.69685 5.64132 4.997 6.6257 4.997C7.61007 4.997 8.21242 5.69169 8.23398 6.61044C8.23351 7.50763 7.61007 8.22435 6.60929 8.22435ZM19.0044 19.0004H15.996V13.8859C15.996 12.6606 15.5582 11.8234 14.4698 11.8234C13.6382 11.8234 13.146 12.3859 12.9271 12.9339C12.8451 13.1308 12.823 13.3989 12.823 13.6726V19.0004H9.8146V9.64654H12.823V10.9483C13.2609 10.3248 13.9448 9.42763 15.5362 9.42763C17.511 9.42763 19.0049 10.7293 19.0049 13.5358L19.0044 19.0004Z" fill="#666666"/>
</svg>
