<svg width="24" height="24" viewBox="0 0 24 24" fill="none" xmlns="http://www.w3.org/2000/svg">
<path d="M18.2812 1.49771H5.62493C3.31915 1.49771 1.49993 3.31693 1.49993 5.62271V18.279C1.49993 20.5847 3.31915 22.4977 5.62493 22.4977H18.2812C20.587 22.4977 22.4999 20.5847 22.4999 18.279V5.62271C22.4999 3.31693 20.587 1.49771 18.2812 1.49771ZM15.7499 18.5602H13.3124C11.3198 18.5602 9.93743 17.4502 9.93743 14.9977V11.2477H8.24993V8.99771C10.2426 8.48209 10.9663 6.73271 11.0624 5.24771H13.1249V8.62271H15.5624V11.2477H13.1249L13.1066 14.5529C13.1066 15.578 13.6223 15.9324 14.4482 15.9324L15.7499 15.9352V18.5602Z" fill="#666666"/>
</svg>
