<svg width="24" height="24" viewBox="0 0 24 24" fill="none" xmlns="http://www.w3.org/2000/svg">
<g clip-path="url(#clip0_32_2338)">
<path d="M23.9897 15.3777C23.9208 14.819 23.6377 14.3343 23.146 13.9354C23.1398 13.9279 23.1331 13.921 23.1258 13.9148L23.101 13.8969L23.093 13.8913L22.8319 13.7038L22.823 13.6973L22.7897 13.6738C22.7775 13.6667 22.7644 13.6612 22.7508 13.6574C21.9249 13.1657 20.5575 12.8212 18.4655 13.5594C17.9663 12.7194 17.9095 12.0463 18.2438 11.0151C18.3033 10.8355 18.248 10.7169 18.0699 10.6401C17.7117 10.4877 17.2214 10.5655 16.8736 10.6574C16.7114 10.6996 16.6139 10.7915 16.583 10.9307C16.3627 11.9619 15.7224 12.9041 15.1031 13.8135L15.0666 13.8669C14.685 13.0579 14.7642 12.4312 15.03 11.646C15.083 11.4894 15.0413 11.3854 14.8945 11.3076C14.4849 11.0962 13.8703 11.2415 13.6256 11.3137C13.3153 11.4041 12.9825 12.2427 12.6108 13.2468C12.517 13.4994 12.4364 13.7155 12.3881 13.8163C12.2733 14.0507 12.1636 14.3179 12.0474 14.6015C11.7849 15.2432 11.4891 15.9655 11.0663 16.4193C10.9125 16.0794 11.1544 15.5437 11.3892 15.0238C11.6672 14.4093 11.9297 13.8285 11.6274 13.4577C11.5795 13.3991 11.5202 13.3509 11.4531 13.3161C11.3859 13.2812 11.3123 13.2605 11.2369 13.2552C11.1384 13.2477 11.0396 13.2638 10.9486 13.3021C10.98 13.0373 10.9814 12.8282 10.9041 12.5755C10.7934 12.2151 10.5061 12.013 10.1105 12.0238C9.20954 12.0501 8.44736 12.7213 7.96595 13.2801C7.64532 13.6551 6.9347 13.941 6.31079 14.1918C6.06423 14.2963 5.82986 14.3901 5.63439 14.4838C5.32267 14.2204 4.92657 13.9546 4.50939 13.6738C3.33751 12.8873 2.00954 11.9952 1.96361 10.7859C1.89798 8.99944 3.93236 7.73241 5.70798 6.82819C7.05376 6.14382 8.22376 5.69007 9.28501 5.4421C10.7756 5.09382 12.0347 5.16413 13.0266 5.65023C13.5694 5.91601 13.8235 6.49398 13.6622 7.08835C13.2403 8.63288 11.4924 9.69132 9.99751 10.1676C9.09704 10.4544 8.33064 10.5744 7.65376 10.5351C6.80532 10.4859 6.11251 10.0602 5.81626 9.87882C5.7688 9.84641 5.71861 9.81818 5.66626 9.79445L5.65267 9.79116C5.62584 9.78449 5.5977 9.78533 5.57132 9.7936C5.54494 9.80187 5.52135 9.81724 5.50314 9.83804C5.4422 9.9107 5.46376 10.0255 5.48579 10.0837C5.77407 10.8369 6.36939 11.3127 7.25486 11.4979C7.54465 11.5559 7.83963 11.584 8.13517 11.5818C10.2075 11.5818 12.8517 10.3869 13.823 9.40304C14.4853 8.73273 14.9677 8.04366 15.1674 6.85538C15.376 5.61085 14.5322 4.74601 13.6725 4.34757C11.5833 3.38335 9.21048 3.76444 7.58767 4.25382C5.68923 4.82616 3.72517 5.86679 2.19986 7.10991C0.31923 8.64132 -0.360458 10.063 0.178605 11.3404C0.732199 12.6496 2.0822 13.4685 3.38767 14.2607C3.80954 14.5162 4.21079 14.7594 4.5722 15.0107C4.46345 15.0637 4.35236 15.1176 4.23939 15.1715C3.14345 15.7026 1.90032 16.3002 1.21079 17.2879C0.710167 18.0074 0.616417 18.7237 0.932355 19.4169C1.1011 19.7859 1.4011 20.0362 1.81782 20.1609C2.0346 20.2223 2.2591 20.2521 2.48439 20.2494C3.29579 20.2494 4.18876 19.9213 4.67486 19.618C5.53361 19.079 6.09001 18.3552 6.32907 17.4669C6.54189 16.6766 6.49079 15.8915 6.18142 15.1907L7.23376 14.6601C6.72611 16.3476 7.11517 17.3554 7.54267 17.9113C7.70017 18.1162 7.98423 18.2394 8.30157 18.2451C8.61892 18.2507 8.91095 18.1312 9.07595 17.9277C9.38814 17.541 9.61876 17.0887 9.83111 16.6363C9.81986 16.9316 9.83392 17.2307 9.9347 17.4843C10.0252 17.7126 10.1742 17.864 10.3664 17.9221C10.5708 17.9844 10.8103 17.9319 11.0409 17.7744C12.0802 17.0634 12.7908 15.3566 13.3617 13.9846C13.4428 13.7896 13.5206 13.6021 13.5961 13.4268C13.7374 13.9323 13.9339 14.4207 14.182 14.8832C14.2374 14.9835 14.2327 15.0276 14.1577 15.1101C14.0447 15.2338 13.8872 15.3834 13.7203 15.5418C13.215 16.0213 12.586 16.6199 12.5016 17.1463C12.4688 17.3573 12.6141 17.5494 12.8395 17.593C13.5178 17.728 14.3349 17.5307 15.0258 17.0657C15.6539 16.6438 15.8902 16.0555 15.7289 15.3224C15.5728 14.6165 15.9291 13.7399 16.7878 12.7152C16.9285 13.3026 17.116 13.7774 17.3747 14.1932L17.3677 14.1988C16.7424 14.7449 15.8855 15.4926 16.0186 16.3996C16.0298 16.4859 16.0588 16.5688 16.1038 16.6433C16.1489 16.7177 16.2089 16.7819 16.2802 16.8318C16.3563 16.8832 16.4422 16.9183 16.5326 16.9349C16.6229 16.9515 16.7157 16.9493 16.8052 16.9284C17.6241 16.7563 18.2405 16.4099 18.6886 15.8704C19.1367 15.3309 18.9731 14.7327 18.8222 14.2687C19.9941 13.9509 21.0375 13.9588 22.0144 14.2921C22.5628 14.4796 22.9561 14.7876 23.183 15.2127C23.4685 15.7476 23.3142 16.2412 22.7475 16.6026C22.5736 16.7137 22.4897 16.7816 22.4845 16.8674C22.4834 16.8873 22.4871 16.9072 22.4952 16.9254C22.5034 16.9436 22.5158 16.9596 22.5314 16.9719C22.597 17.0259 22.7995 17.1196 23.2575 16.8313C23.6794 16.5665 23.9269 16.206 23.9902 15.7532C24.0029 15.6284 24.0027 15.5025 23.9897 15.3777ZM5.25236 16.5524L5.24767 16.6124C5.17454 17.2987 4.82579 17.8968 4.20939 18.3937C3.8222 18.7059 3.40173 18.8976 3.02579 18.9341C2.76329 18.9594 2.57251 18.9238 2.45907 18.8277C2.37423 18.756 2.32876 18.6487 2.31845 18.4996C2.24157 17.3052 4.1147 16.1184 5.16892 15.7279C5.24415 15.9958 5.27238 16.2748 5.25236 16.5524ZM10.05 13.184C9.87657 14.1726 9.37079 16.0387 8.57579 16.7629C8.53782 16.7976 8.50595 16.8098 8.49142 16.8065C8.47689 16.8032 8.46564 16.7859 8.45392 16.7596C8.18861 16.1446 8.28658 15.1059 8.68829 14.2898C8.9972 13.6607 9.43829 13.244 9.93142 13.1179C9.95189 13.1122 9.973 13.1092 9.99423 13.109C10.0108 13.1078 10.0273 13.1123 10.0411 13.1216C10.0469 13.1308 10.0507 13.1411 10.0522 13.1519C10.0538 13.1626 10.053 13.1735 10.05 13.184ZM13.9636 16.7877C13.8141 16.9438 13.6092 16.9227 13.6575 16.8655L14.4188 16.0574C14.3574 16.3354 14.176 16.5655 13.9636 16.7877ZM17.1216 16.0888C17.0492 16.1245 16.9709 16.1466 16.8905 16.154C16.8689 15.7288 17.281 15.2502 17.6874 14.931C17.7966 15.3744 17.573 15.8432 17.1216 16.0888Z" fill="#666666"/>
</g>
<defs>
<clipPath id="clip0_32_2338">
<rect width="24" height="24" fill="white"/>
</clipPath>
</defs>
</svg>
