<svg width="24" height="24" viewBox="0 0 24 24" fill="none" xmlns="http://www.w3.org/2000/svg">
<path d="M17.6607 1.4986H6.49417C4.95339 1.4986 4.50011 2.6611 4.50011 3.39282V21.1884C4.50011 22.013 4.94167 22.3191 5.19011 22.4198C5.43854 22.5206 6.12339 22.6073 6.53401 22.1306C6.53401 22.1306 11.806 15.9952 11.8965 15.9042C12.0334 15.7669 12.0334 15.7669 12.1703 15.7669H15.5814C17.0148 15.7669 17.245 14.7417 17.395 14.138C17.5192 13.6322 18.9175 6.45047 19.3848 4.17422C19.741 2.4361 19.3004 1.4986 17.6607 1.4986ZM17.395 14.138C17.5192 13.6322 18.9175 6.45047 19.3848 4.17422L17.395 14.138ZM17.0012 4.53L16.5325 6.95485C16.4767 7.21969 16.1443 7.4986 15.8359 7.4986H11.3396C10.8503 7.4986 10.5001 7.78641 10.5001 8.27672V8.90719C10.5001 9.39797 10.8526 9.74578 11.3439 9.74578H15.1806C15.5265 9.74578 15.8654 10.1259 15.79 10.4958C15.7145 10.8656 15.3639 12.6788 15.3212 12.8813C15.2785 13.0838 15.0475 13.4306 14.6364 13.4306H11.6251C11.0767 13.4306 10.9107 13.5028 10.5437 13.9603C10.1767 14.4178 6.87526 18.3942 6.87526 18.3942C6.84198 18.4327 6.80917 18.4214 6.80917 18.3797V4.49391C6.80917 4.18032 7.08104 3.81282 7.48792 3.81282H16.4476C16.5345 3.81471 16.6198 3.83602 16.6973 3.87518C16.7749 3.91434 16.8427 3.97036 16.8958 4.03913C16.9489 4.1079 16.9859 4.18768 17.0041 4.27262C17.0224 4.35756 17.0214 4.4455 17.0012 4.53Z" fill="#666666"/>
</svg>
