<svg width="24" height="24" viewBox="0 0 24 24" fill="none" xmlns="http://www.w3.org/2000/svg">
<path d="M23.25 16.2732C22.7314 16.2352 22.2171 16.1519 21.713 16.0243C20.4343 15.7135 19.1424 14.8871 18.5199 13.5666C18.1964 12.8808 18.3961 12.6952 19.0758 12.4416C19.7405 12.1946 20.4727 12.0797 20.8036 11.3635C21.0797 10.7654 20.8566 10.0622 20.3157 9.6999C19.5793 9.20631 18.893 9.69006 18.1303 9.79693C18.3052 7.60974 18.5363 5.64521 17.0677 3.80959C15.8503 2.28802 13.9378 1.49771 12.0136 1.49771C10.0894 1.49771 8.17644 2.28802 6.96003 3.81006C5.48909 5.65037 5.72253 7.61537 5.89738 9.80631C5.13238 9.70084 4.45316 9.20678 3.71159 9.70412C3.02159 10.1658 2.91472 11.0991 3.45659 11.7197C3.99847 12.3404 4.93972 12.1651 5.49331 12.6854C5.79753 12.9708 5.65691 13.2765 5.47691 13.6294C4.79816 14.9607 3.63659 15.7735 2.20316 16.0463C2.01566 16.0819 1.15737 16.1808 0.750031 16.2174C0.750031 16.6524 0.774405 17.004 0.826437 17.236C0.964249 17.8482 1.40394 18.3413 1.93691 18.6469C2.46097 18.9469 3.60003 18.9483 3.89066 19.374C4.03128 19.584 3.97316 19.9496 4.1405 20.1887C4.31062 20.4304 4.56974 20.5948 4.86097 20.6457C5.73331 20.8149 6.61034 20.3082 7.50566 20.5472C8.20175 20.7324 8.74878 21.2912 9.34597 21.6722C10.073 22.134 10.8619 22.4419 11.7286 22.4921C13.5146 22.5957 14.5378 21.6057 15.9746 20.7849C16.8886 20.2627 17.7628 20.604 18.7346 20.6593C19.6768 20.7132 19.8375 20.2257 20.123 19.493C20.1541 19.4197 20.1782 19.3435 20.1952 19.2657C20.2336 19.2474 20.2696 19.2243 20.3021 19.1968C20.3958 19.1232 20.7966 19.0871 20.9002 19.0627C21.3821 18.9483 21.8536 18.8213 22.2675 18.5377C22.7977 18.174 23.0949 17.6705 23.1853 17.0077C23.2275 16.7651 23.2491 16.5194 23.25 16.2732ZM9.75003 5.99771C10.1644 5.99771 10.5 6.50115 10.5 7.12271C10.5 7.74427 10.1644 8.24771 9.75003 8.24771C9.33566 8.24771 9.00003 7.74427 9.00003 7.12271C9.00003 6.50115 9.33566 5.99771 9.75003 5.99771ZM14.6072 9.6399C13.8924 10.343 12.9666 10.7321 12 10.7321C11.5144 10.7312 11.0338 10.6341 10.586 10.4463C10.1381 10.2585 9.73196 9.98378 9.39097 9.63803C9.3206 9.56766 9.28107 9.47222 9.28107 9.37271C9.28107 9.2732 9.3206 9.17776 9.39097 9.1074C9.46134 9.03703 9.55677 8.9975 9.65628 8.9975C9.75579 8.9975 9.85123 9.03703 9.9216 9.1074C10.193 9.38335 10.5165 9.60273 10.8732 9.75287C11.23 9.90301 11.613 9.98092 12 9.98209C12.7683 9.98209 13.5071 9.67084 14.0808 9.10553C14.1517 9.03572 14.2474 8.99692 14.3468 8.99767C14.4463 8.99842 14.5414 9.03865 14.6112 9.10951C14.681 9.18037 14.7198 9.27606 14.7191 9.37553C14.7183 9.475 14.6781 9.57009 14.6072 9.6399ZM14.25 8.24771C13.8357 8.24771 13.5 7.74381 13.5 7.12271C13.5 6.50162 13.8357 5.99771 14.25 5.99771C14.6644 5.99771 15 6.50162 15 7.12271C15 7.74381 14.6644 8.24771 14.25 8.24771Z" fill="#666666"/>
</svg>
