<svg width="24" height="24" viewBox="0 0 24 24" fill="none" xmlns="http://www.w3.org/2000/svg">
<path d="M12 1.4977C6.20296 1.4977 1.49999 6.20066 1.49999 11.9977C1.49999 17.7947 6.20296 22.4977 12 22.4977C17.797 22.4977 22.5 17.7999 22.5 11.9977C22.5 6.19551 17.797 1.4977 12 1.4977ZM18.6666 6.33754C19.8815 7.76574 20.6046 9.54695 20.7291 11.4179C18.8367 11.3194 16.5726 11.3194 14.7572 11.4891C14.5275 10.9093 14.2922 10.3407 14.0353 9.79363C16.1287 8.88613 17.7422 7.69363 18.6666 6.33754ZM12 3.24754C14.0395 3.24403 16.0156 3.95636 17.5837 5.26035C16.6322 6.46316 15.1392 7.51035 13.2797 8.30067C12.2625 6.41957 11.092 4.80098 9.84374 3.52645C10.5482 3.3446 11.2725 3.25091 12 3.24754ZM8.04046 4.20473C9.30374 5.46238 10.4906 7.0641 11.5298 8.9391C9.55546 9.54238 7.2914 9.88832 4.87499 9.88832C4.41562 9.88832 3.96749 9.87191 3.52452 9.84426C3.83265 8.63704 4.39489 7.5095 5.17366 6.53696C5.95243 5.56443 6.9298 4.7693 8.04046 4.20473ZM3.26624 11.5819C3.76406 11.6039 4.26702 11.6147 4.77562 11.6096C7.53187 11.5768 10.0969 11.1446 12.3009 10.4377C12.5087 10.8699 12.7056 11.3129 12.8916 11.7666C12.6252 11.8249 12.3637 11.9033 12.1092 12.001C9.09609 13.2666 6.72281 15.3061 5.43749 17.7727C4.02813 16.1791 3.25006 14.1251 3.24984 11.9977C3.24984 11.8571 3.25546 11.7188 3.26624 11.5819ZM12 20.7479C10.056 20.7502 8.16724 20.1013 6.63515 18.9047C7.79999 16.5971 9.87796 14.686 12.4978 13.5014C12.7439 13.3866 13.072 13.2938 13.4494 13.2118C13.7619 14.0755 14.0408 14.9724 14.2861 15.9024C14.6525 17.306 14.9223 18.7331 15.0937 20.1736C14.1061 20.552 13.0576 20.7466 12 20.7479ZM16.7306 19.3533C16.5595 17.8978 16.2871 16.4561 15.9155 15.0385C15.728 14.3274 15.5166 13.6383 15.2869 12.9657C17.0039 12.825 19.0603 12.8452 20.6953 12.9657C20.5512 14.2583 20.1206 15.5024 19.4347 16.6074C18.7488 17.7125 17.825 18.6506 16.7306 19.3533Z" fill="#666666"/>
</svg>
