<svg width="24" height="24" viewBox="0 0 24 24" fill="none" xmlns="http://www.w3.org/2000/svg">
<path d="M8.99924 21.7396V19.4896V21.7396ZM4.22643 19.7624L5.81736 18.1715L4.22643 19.7624ZM2.24924 14.9896H4.49924H2.24924Z" fill="#666666"/>
<path d="M2.24924 14.9896H4.49924M8.99924 21.7396V19.4896V21.7396ZM4.22643 19.7624L5.81736 18.1715L4.22643 19.7624Z" stroke="#666666" stroke-width="1.5" stroke-miterlimit="10" stroke-linecap="round"/>
<path d="M12.5418 14.6394L11.0836 16.0977C11.0139 16.1673 10.9586 16.25 10.9209 16.341C10.8832 16.432 10.8638 16.5296 10.8638 16.6281C10.8638 16.7266 10.8832 16.8241 10.9209 16.9151C10.9586 17.0061 11.0139 17.0888 11.0836 17.1585L13.2051 19.2795C13.3458 19.4201 13.5364 19.499 13.7353 19.499C13.9341 19.499 14.1248 19.4201 14.2654 19.2795L15.7242 17.8213C15.7416 17.8039 15.7554 17.7832 15.7649 17.7604C15.7743 17.7376 15.7792 17.7132 15.7792 17.6886C15.7792 17.664 15.7743 17.6396 15.7649 17.6168C15.7554 17.594 15.7416 17.5734 15.7242 17.556L12.8071 14.6394C12.7897 14.622 12.7691 14.6081 12.7463 14.5987C12.7235 14.5893 12.6991 14.5844 12.6745 14.5844C12.6499 14.5844 12.6255 14.5893 12.6027 14.5987C12.5799 14.6081 12.5592 14.622 12.5418 14.6394ZM6.17808 8.27517L4.7198 9.73392C4.57926 9.87456 4.50031 10.0652 4.50031 10.2641C4.50031 10.4629 4.57926 10.6536 4.7198 10.7942L6.8409 12.9158C6.91054 12.9855 6.99323 13.0407 7.08423 13.0784C7.17524 13.1161 7.27278 13.1355 7.37129 13.1355C7.46979 13.1355 7.56733 13.1161 7.65834 13.0784C7.74934 13.0407 7.83203 12.9855 7.90168 12.9158L9.35996 11.4575C9.37739 11.4401 9.39122 11.4194 9.40066 11.3967C9.41009 11.3739 9.41495 11.3495 9.41495 11.3249C9.41495 11.3002 9.41009 11.2758 9.40066 11.2531C9.39122 11.2303 9.37739 11.2096 9.35996 11.1922L6.4434 8.27517C6.42598 8.25774 6.4053 8.24391 6.38254 8.23447C6.35978 8.22503 6.33538 8.22018 6.31074 8.22018C6.2861 8.22018 6.2617 8.22503 6.23894 8.23447C6.21618 8.24391 6.1955 8.25774 6.17808 8.27517ZM20.1023 3.90314C19.4756 3.27571 18.7315 2.77792 17.9124 2.43819C17.0932 2.09847 16.2152 1.92348 15.3284 1.92322C14.4417 1.92296 13.5635 2.09743 12.7442 2.43667C11.9249 2.77591 11.1804 3.27327 10.5534 3.90032L7.50371 6.94954C7.48627 6.96696 7.47245 6.98764 7.46301 7.0104C7.45357 7.03316 7.44872 7.05756 7.44872 7.0822C7.44872 7.10684 7.45357 7.13124 7.46301 7.154C7.47245 7.17676 7.48627 7.19744 7.50371 7.21486L10.4207 10.1314C10.4382 10.1489 10.4588 10.1627 10.4816 10.1721C10.5044 10.1816 10.5288 10.1864 10.5534 10.1864C10.578 10.1864 10.6024 10.1816 10.6252 10.1721C10.648 10.1627 10.6686 10.1489 10.6861 10.1314L13.7329 7.0822C13.9442 6.87098 14.1953 6.70393 14.4718 6.59081C14.7483 6.47769 15.0445 6.42075 15.3433 6.42333C15.642 6.4259 15.9372 6.48793 16.2117 6.6058C16.4862 6.72367 16.7344 6.89502 16.942 7.10986C17.7998 7.99673 17.7609 9.41798 16.8886 10.2903L13.8679 13.3119C13.8505 13.3293 13.8367 13.35 13.8272 13.3727C13.8178 13.3955 13.8129 13.4199 13.8129 13.4445C13.8129 13.4692 13.8178 13.4936 13.8272 13.5163C13.8367 13.5391 13.8505 13.5598 13.8679 13.5772L16.7845 16.4942C16.8019 16.5117 16.8226 16.5255 16.8453 16.5349C16.8681 16.5444 16.8925 16.5492 16.9171 16.5492C16.9418 16.5492 16.9662 16.5444 16.9889 16.5349C17.0117 16.5255 17.0324 16.5117 17.0498 16.4942L20.0536 13.4905C22.6959 10.8495 22.7428 6.54689 20.1023 3.90314Z" fill="#666666"/>
</svg>
