<svg width="24" height="24" viewBox="0 0 24 24" fill="none" xmlns="http://www.w3.org/2000/svg">
<path d="M16.5911 10.589C17.0073 10.1659 17.2396 9.59544 17.2371 9.00188C17.2347 8.40832 16.9979 7.83976 16.5781 7.42005C16.1584 7.00034 15.5899 6.76348 14.9963 6.76106C14.4028 6.75864 13.8323 6.99087 13.4092 7.40715M19.7734 13.7709C21.0393 12.505 21.7505 10.7881 21.7505 8.99785C21.7505 7.20761 21.0393 5.49069 19.7734 4.2248C18.5075 2.95891 16.7906 2.24774 15.0003 2.24774C13.2101 2.24774 11.4932 2.95891 10.2273 4.2248L19.7734 13.7709Z" stroke="#666666" stroke-width="1.5" stroke-miterlimit="10"/>
<path d="M8.99996 21.7486V19.4986V21.7486ZM4.22714 19.7714L5.81808 18.1805L4.22714 19.7714ZM2.24995 14.9986H4.49995H2.24995Z" fill="#666666"/>
<path d="M2.24995 14.9986H4.49995M8.99996 21.7486V19.4986V21.7486ZM4.22714 19.7714L5.81808 18.1805L4.22714 19.7714Z" stroke="#666666" stroke-width="1.5" stroke-miterlimit="10" stroke-linecap="round"/>
<path d="M12.9075 14.3317L16.0899 17.5136M13.4091 7.40875L8.10564 12.7117C7.82435 12.993 7.44287 13.151 7.0451 13.151C6.64733 13.151 6.26585 12.993 5.98455 12.7117L4.92189 11.6514C4.78257 11.5121 4.67205 11.3467 4.59665 11.1647C4.52124 10.9827 4.48243 10.7876 4.48243 10.5906C4.48243 10.3936 4.52124 10.1985 4.59665 10.0165C4.67205 9.83452 4.78257 9.66914 4.92189 9.52985L10.2272 4.22641L13.4091 7.40875ZM19.7733 13.7725L14.4699 19.0778C14.3306 19.2171 14.1652 19.3277 13.9832 19.4031C13.8012 19.4785 13.6061 19.5173 13.4091 19.5173C13.2121 19.5173 13.017 19.4785 12.835 19.4031C12.653 19.3277 12.4876 19.2171 12.3483 19.0778L11.288 18.017C11.1487 17.8777 11.0381 17.7124 10.9627 17.5304C10.8873 17.3484 10.8485 17.1533 10.8485 16.9563C10.8485 16.7592 10.8873 16.5642 10.9627 16.3822C11.0381 16.2001 11.1487 16.0348 11.288 15.8955L16.591 10.5906L19.7733 13.7725ZM6.54377 7.9675L9.72564 11.1498L6.54377 7.9675Z" stroke="#666666" stroke-width="1.5" stroke-linejoin="round"/>
</svg>
