<svg width="24" height="24" viewBox="0 0 24 24" fill="none" xmlns="http://www.w3.org/2000/svg">
<path d="M8.99903 21.7261V19.4761V21.7261ZM4.22622 19.7489L5.81716 18.158L4.22622 19.7489ZM2.24903 14.9761H4.49903H2.24903Z" fill="#666666"/>
<path d="M2.24903 14.9761H4.49903M8.99903 21.7261V19.4761V21.7261ZM4.22622 19.7489L5.81716 18.158L4.22622 19.7489Z" stroke="#666666" stroke-width="1.5" stroke-miterlimit="10" stroke-linecap="square"/>
<path d="M19.7906 4.20986C19.164 3.5824 18.4199 3.08457 17.6008 2.74481C16.7817 2.40505 15.9036 2.23001 15.0169 2.22971C14.1301 2.2294 13.2519 2.40383 12.4326 2.74303C11.6133 3.08223 10.8688 3.57955 10.2417 4.20658L7.05984 7.38845L10.2417 10.5708L13.4236 7.38845C13.6348 7.17723 13.886 7.01018 14.1625 6.89706C14.439 6.78394 14.7352 6.727 15.0339 6.72958C15.3326 6.73215 15.6278 6.79419 15.9023 6.91206C16.1768 7.02993 16.4251 7.20128 16.6327 7.41611C17.4905 8.30298 17.452 9.72423 16.5792 10.597L13.4236 13.7527L16.6055 16.9345L19.7419 13.7981C22.3842 11.1558 22.4311 6.85361 19.7906 4.20986ZM3.8774 10.5707L5.99873 8.44938L9.18075 11.6313L7.05937 13.7527L3.8774 10.5707ZM10.2417 16.9341L12.363 14.8128L15.545 17.9948L13.4236 20.1161L10.2417 16.9341Z" fill="#666666"/>
</svg>
