<svg width="24" height="24" viewBox="0 0 24 24" fill="none" xmlns="http://www.w3.org/2000/svg">
<path d="M21.0315 7.23668L12.8485 3.19371C12.5844 3.06417 12.2942 2.99683 12 2.99683C11.7059 2.99683 11.4157 3.06417 11.1516 3.19371L2.96863 7.23668C2.52801 7.45046 2.15653 7.78406 1.89679 8.19926C1.63704 8.61445 1.49954 9.09443 1.50004 9.58418V18.2378C1.50004 19.6853 2.6916 20.8628 4.15645 20.8628H19.8436C21.3085 20.8628 22.5 19.6853 22.5 18.2378V9.58418C22.5005 9.09443 22.363 8.61445 22.1033 8.19926C21.8435 7.78406 21.4721 7.45046 21.0315 7.23668ZM11.8304 4.53527C11.8832 4.50936 11.9412 4.49589 12 4.49589C12.0589 4.49589 12.1169 4.50936 12.1697 4.53527L20.1094 8.45683L12.0469 12.4412C11.9941 12.4671 11.9361 12.4806 11.8772 12.4806C11.8184 12.4806 11.7604 12.4671 11.7075 12.4412L3.76645 8.51918L11.8304 4.53527Z" fill="#666666"/>
</svg>
