<svg width="24" height="24" viewBox="0 0 24 24" fill="none" xmlns="http://www.w3.org/2000/svg">
<path d="M15.0001 4.49774H4.12511C3.62783 4.49774 3.15092 4.69529 2.79929 5.04692C2.44766 5.39855 2.25011 5.87546 2.25011 6.37274V17.6227C2.25011 18.12 2.44766 18.5969 2.79929 18.9486C3.15092 19.3002 3.62783 19.4977 4.12511 19.4977H19.8156C20.3129 19.4977 20.7898 19.3002 21.1414 18.9486C21.493 18.5969 21.6906 18.12 21.6906 17.6227V11.2009" stroke="#666666" stroke-width="1.5" stroke-linecap="round" stroke-linejoin="round"/>
<path d="M5.25009 7.49954L12.0001 12.7495L16.0782 9.67126" stroke="#666666" stroke-width="1.5" stroke-linecap="round" stroke-linejoin="round"/>
<path d="M20.2477 8.24486C21.489 8.24486 22.4953 7.23855 22.4953 5.9972C22.4953 4.75585 21.489 3.74954 20.2477 3.74954C19.0063 3.74954 18 4.75585 18 5.9972C18 7.23855 19.0063 8.24486 20.2477 8.24486Z" fill="#666666"/>
<path d="M20.25 8.99666C19.6571 8.99666 19.0776 8.82085 18.5846 8.49146C18.0917 8.16207 17.7074 7.6939 17.4806 7.14615C17.2537 6.5984 17.1943 5.99568 17.31 5.41419C17.4256 4.8327 17.7111 4.29857 18.1304 3.87934C18.5496 3.46011 19.0837 3.17461 19.6652 3.05894C20.2467 2.94328 20.8494 3.00264 21.3972 3.22953C21.9449 3.45641 22.4131 3.84063 22.7425 4.33359C23.0719 4.82655 23.2477 5.40612 23.2477 5.999C23.2471 6.79384 22.931 7.55594 22.369 8.11798C21.807 8.68001 21.0449 8.99604 20.25 8.99666ZM20.25 4.50134C19.9533 4.50088 19.663 4.58846 19.416 4.753C19.1691 4.91754 18.9764 5.15164 18.8625 5.42569C18.7486 5.69974 18.7186 6.00141 18.7762 6.29254C18.8338 6.58367 18.9765 6.85116 19.1862 7.06117C19.3959 7.27119 19.6632 7.41428 19.9542 7.47235C20.2452 7.53042 20.5469 7.50085 20.8212 7.38739C21.0954 7.27392 21.3298 7.08167 21.4947 6.83494C21.6597 6.58822 21.7477 6.29812 21.7477 6.00134C21.7477 5.60393 21.59 5.22275 21.3092 4.94151C21.0284 4.66027 20.6474 4.50197 20.25 4.50134Z" fill="#666666"/>
</svg>
