<svg width="24" height="24" viewBox="0 0 24 24" fill="none" xmlns="http://www.w3.org/2000/svg">
<path d="M21.75 3.74954H2.25002C2.05111 3.74954 1.86035 3.82856 1.71969 3.96921C1.57904 4.10986 1.50002 4.30063 1.50002 4.49954V19.4995C1.50002 19.6985 1.57904 19.8892 1.71969 20.0299C1.86035 20.1705 2.05111 20.2495 2.25002 20.2495H21.75C21.9489 20.2495 22.1397 20.1705 22.2804 20.0299C22.421 19.8892 22.5 19.6985 22.5 19.4995V4.49954C22.5 4.30063 22.421 4.10986 22.2804 3.96921C22.1397 3.82856 21.9489 3.74954 21.75 3.74954ZM12.4603 13.3416C12.3287 13.4439 12.1667 13.4994 12 13.4994C11.8333 13.4994 11.6713 13.4439 11.5397 13.3416L4.19768 7.63126L5.1183 6.4472L12 11.7994L18.8817 6.4472L19.8024 7.63126L12.4603 13.3416Z" fill="#666666"/>
</svg>
