<svg width="24" height="24" viewBox="0 0 24 24" fill="none" xmlns="http://www.w3.org/2000/svg">
<path d="M17.5354 4.73206C17.5303 4.74284 17.5256 4.75362 17.5209 4.76487C17.505 4.80003 17.4895 4.83518 17.474 4.87081L17.4571 4.913C17.4445 4.94628 17.4318 4.97956 17.4201 5.01331C17.4145 5.02971 17.4089 5.04612 17.4037 5.06018C17.3929 5.09206 17.3831 5.1244 17.3737 5.15721L17.3582 5.21112C17.3498 5.24237 17.3418 5.27362 17.3343 5.30487C17.3296 5.32409 17.325 5.34331 17.3212 5.36253C17.3142 5.39393 17.3081 5.42628 17.3025 5.45628C17.2987 5.47596 17.295 5.49565 17.2917 5.51581C17.2865 5.54815 17.2823 5.58143 17.2781 5.61425C17.2757 5.63393 17.2729 5.65315 17.2706 5.67284C17.2668 5.70893 17.2645 5.74503 17.2617 5.78112C17.2617 5.798 17.2589 5.81487 17.2579 5.83221C17.2551 5.88518 17.2537 5.93862 17.2537 5.99206C17.2537 6.03893 17.2537 6.08581 17.257 6.12987V6.15893C17.2593 6.20346 17.2626 6.24753 17.2668 6.29159L17.2696 6.31315C17.2739 6.35393 17.279 6.39378 17.2846 6.43362C17.2846 6.44065 17.2846 6.44815 17.2879 6.45518C17.2945 6.49831 17.3025 6.54143 17.3109 6.58409L17.3165 6.61175C17.3259 6.65487 17.3353 6.698 17.3465 6.74065C17.3573 6.78378 17.37 6.82596 17.3826 6.86768C17.3854 6.87659 17.3882 6.8855 17.3906 6.8944C17.4037 6.93565 17.4173 6.97597 17.4318 7.01581C17.4342 7.02284 17.437 7.0294 17.4393 7.03596C17.4529 7.07253 17.4675 7.10862 17.4825 7.14471C17.4848 7.15128 17.4876 7.15784 17.4904 7.1644C17.5068 7.20331 17.5246 7.24175 17.5425 7.28018L17.5551 7.30503C17.5739 7.34346 17.5931 7.3819 17.6132 7.4194C17.9235 7.98917 18.4095 8.44345 18.9989 8.71456L19.0162 8.72253C19.0996 8.76003 19.1845 8.79425 19.2717 8.82425L19.3162 8.83925L19.3865 8.86128C19.4076 8.86784 19.4287 8.87347 19.4503 8.87956L19.5403 8.903C19.567 8.90956 19.5937 8.91565 19.6209 8.92128L19.6748 8.93253L19.7606 8.94753L19.8042 8.95503C19.8464 8.96112 19.889 8.96628 19.9317 8.97096L19.9678 8.97425C20.002 8.97753 20.0367 8.98034 20.0718 8.98222L20.1117 8.98456C20.1585 8.98456 20.2026 8.98784 20.249 8.98784C20.3029 8.98784 20.3564 8.98784 20.4098 8.98362L20.4609 8.9794C20.497 8.9794 20.5331 8.97425 20.5687 8.9705C20.5884 8.9705 20.6076 8.96581 20.6273 8.963C20.6601 8.95925 20.6934 8.95503 20.7257 8.94987L20.7853 8.93909C20.8171 8.93347 20.849 8.92737 20.879 8.92081L20.9371 8.90722C20.9685 8.89972 21.0004 8.89222 21.0309 8.88331C21.0492 8.87862 21.0675 8.87347 21.0853 8.86784C21.1176 8.85847 21.1495 8.84862 21.1814 8.83831L21.2315 8.82143C21.2643 8.81018 21.2971 8.798 21.33 8.78534L21.374 8.768C21.4087 8.75393 21.4429 8.73893 21.4767 8.72346L21.5128 8.70753C21.5503 8.69018 21.5868 8.67143 21.6234 8.65268C21.6314 8.64847 21.6398 8.64471 21.6478 8.64003C21.6904 8.61753 21.7321 8.59315 21.7734 8.56972L21.779 8.56643C22.1768 8.32986 22.5144 8.00438 22.7654 7.61551C23.0164 7.22665 23.1739 6.78495 23.2256 6.32502C23.2773 5.8651 23.2219 5.39945 23.0635 4.96455C22.9052 4.52964 22.6483 4.13731 22.313 3.81828C21.9777 3.49926 21.5731 3.2622 21.1309 3.1257C20.6886 2.98919 20.2208 2.95693 19.764 3.03146C19.3072 3.10599 18.8739 3.28527 18.498 3.55526C18.1221 3.82526 17.8138 4.17862 17.5973 4.58768L17.5875 4.60596C17.5734 4.65425 17.5537 4.69315 17.5354 4.73206Z" fill="#666666"/>
<path d="M17.4145 9.48845L12.4603 13.3416C12.3287 13.4439 12.1667 13.4994 12 13.4994C11.8333 13.4994 11.6713 13.4439 11.5397 13.3416L4.19766 7.63126L5.11829 6.4472L12 11.7994L16.4231 8.35923C15.9969 7.66836 15.7659 6.87489 15.7547 6.06319C15.7434 5.25149 15.9524 4.45193 16.3594 3.74954H2.25001C2.05109 3.74954 1.86033 3.82856 1.71968 3.96921C1.57902 4.10986 1.50001 4.30063 1.50001 4.49954V19.4995C1.50001 19.6985 1.57902 19.8892 1.71968 20.0299C1.86033 20.1705 2.05109 20.2495 2.25001 20.2495H21.75C21.9489 20.2495 22.1397 20.1705 22.2803 20.0299C22.421 19.8892 22.5 19.6985 22.5 19.4995V9.89626C21.7112 10.3526 20.8021 10.558 19.8937 10.4852C18.9853 10.4123 18.1206 10.0647 17.4145 9.48845Z" fill="#666666"/>
</svg>
