<svg width="24" height="24" viewBox="0 0 24 24" fill="none" xmlns="http://www.w3.org/2000/svg">
<path d="M19.875 3.74954H4.12499C3.42903 3.75029 2.76178 4.02709 2.26966 4.51921C1.77754 5.01133 1.50074 5.67858 1.49999 6.37454V17.6245C1.50074 18.3205 1.77754 18.9878 2.26966 19.4799C2.76178 19.972 3.42903 20.2488 4.12499 20.2495H19.875C20.571 20.2488 21.2382 19.972 21.7303 19.4799C22.2224 18.9878 22.4993 18.3205 22.5 17.6245V6.37454C22.4993 5.67858 22.2224 5.01133 21.7303 4.51921C21.2382 4.02709 20.571 3.75029 19.875 3.74954ZM19.2103 8.09157L12.4603 13.3416C12.3287 13.4439 12.1667 13.4994 12 13.4994C11.8333 13.4994 11.6713 13.4439 11.5397 13.3416L4.78968 8.09157C4.71037 8.03168 4.64376 7.95663 4.59371 7.87077C4.54366 7.78492 4.51118 7.68997 4.49814 7.59145C4.4851 7.49293 4.49178 7.3928 4.51777 7.29688C4.54377 7.20096 4.58857 7.11116 4.64957 7.03271C4.71057 6.95425 4.78656 6.8887 4.87311 6.83987C4.95966 6.79103 5.05506 6.75988 5.15375 6.74823C5.25245 6.73659 5.35247 6.74467 5.44801 6.77201C5.54356 6.79935 5.63272 6.84541 5.71031 6.90751L12 11.7994L18.2897 6.90751C18.447 6.78874 18.6447 6.73665 18.84 6.7625C19.0354 6.78835 19.2128 6.89007 19.3338 7.04566C19.4547 7.20125 19.5096 7.39821 19.4865 7.59393C19.4634 7.78966 19.3642 7.96842 19.2103 8.09157Z" fill="#666666"/>
</svg>
