<svg width="24" height="24" viewBox="0 0 24 24" fill="none" xmlns="http://www.w3.org/2000/svg">
<path d="M23.25 6.00116C23.2508 5.42319 23.0847 4.85729 22.7716 4.3715C22.4584 3.8857 22.0117 3.5007 21.4849 3.26279C20.9582 3.02487 20.374 2.94418 19.8025 3.0304C19.231 3.11662 18.6965 3.36609 18.2634 3.74882C18.029 3.95565 17.828 4.19758 17.6677 4.466V4.46882C17.6423 4.511 17.6184 4.55413 17.595 4.59725L17.5838 4.62022C17.5641 4.65725 17.5458 4.69475 17.528 4.73272C17.5223 4.74444 17.5172 4.75616 17.512 4.76788C17.4966 4.8021 17.4816 4.83679 17.4675 4.87194C17.4614 4.88647 17.4558 4.901 17.4502 4.91554C17.4375 4.94835 17.4253 4.98116 17.4136 5.01444L17.3967 5.06413C17.3864 5.096 17.3766 5.12835 17.3672 5.16069C17.3616 5.17897 17.3564 5.19679 17.3517 5.21507C17.3428 5.24647 17.3353 5.27835 17.3278 5.30882C17.3231 5.32804 17.3184 5.34725 17.3142 5.36647C17.3077 5.39835 17.3016 5.43069 17.2959 5.46022C17.2922 5.47991 17.2884 5.4996 17.2852 5.51929C17.28 5.5521 17.2758 5.58538 17.2716 5.61866C17.2692 5.63788 17.2664 5.6571 17.2641 5.67679C17.2603 5.71288 17.258 5.74897 17.2552 5.78554C17.2552 5.80241 17.2523 5.81929 17.2514 5.83616C17.2486 5.8896 17.2467 5.94304 17.2467 5.99741C17.2467 6.04429 17.2467 6.09116 17.2505 6.13522V6.16522C17.253 6.20929 17.2563 6.25335 17.2603 6.29741L17.2631 6.31991C17.2673 6.35975 17.272 6.39913 17.2781 6.43804C17.2781 6.446 17.2781 6.45444 17.2814 6.46241C17.288 6.50507 17.2959 6.54725 17.3044 6.58944C17.3044 6.59975 17.3086 6.6096 17.3105 6.61991C17.3189 6.66022 17.3283 6.70054 17.3386 6.74038V6.74929C17.3494 6.791 17.3611 6.83179 17.3738 6.87257L17.3836 6.90444C17.3963 6.94429 17.4094 6.98319 17.4234 7.0221C17.4263 7.03054 17.4295 7.03897 17.4328 7.04741C17.4455 7.08069 17.4586 7.11397 17.4722 7.14679C17.4759 7.15663 17.4797 7.166 17.4839 7.17538C17.4998 7.21241 17.5163 7.24944 17.5336 7.286L17.5491 7.31741C17.5655 7.35022 17.5819 7.38304 17.5992 7.41538C17.8439 7.87012 18.2012 8.25442 18.637 8.53147C18.7514 8.60455 18.8708 8.66955 18.9942 8.726L19.0125 8.73444C19.0956 8.77194 19.1805 8.80569 19.267 8.83569L19.3116 8.85069L19.3819 8.87272C19.403 8.87929 19.4241 8.88491 19.4456 8.891L19.5356 8.91444L19.6167 8.93319L19.6706 8.94397L19.7564 8.95944L19.8005 8.96647C19.8427 8.97257 19.8853 8.97819 19.928 8.98288L19.9641 8.98616C19.9983 8.98897 20.033 8.99179 20.0677 8.99366L20.108 8.996C20.1548 8.996 20.1989 8.99975 20.2448 8.99975C20.2992 8.99975 20.3527 8.99975 20.4061 8.99507L20.4567 8.99132C20.4933 8.9885 20.5294 8.98616 20.5655 8.98241L20.6241 8.97491C20.6569 8.97069 20.6902 8.96647 20.723 8.96132L20.782 8.95054C20.8139 8.94491 20.8463 8.93882 20.8758 8.93225L20.9334 8.91866C20.9653 8.91116 20.9972 8.90366 21.0272 8.89475C21.0455 8.89007 21.0633 8.88491 21.0816 8.87929C21.1139 8.86991 21.1463 8.86007 21.1781 8.84975L21.2278 8.83288C21.2611 8.82116 21.2939 8.80897 21.3267 8.79632L21.3703 8.77897C21.4055 8.76491 21.4402 8.74991 21.4744 8.73444L21.5095 8.7185C21.5475 8.70069 21.585 8.68241 21.622 8.66272L21.645 8.65147C21.6881 8.62804 21.7313 8.6046 21.7734 8.57882H21.7763C22.0468 8.41976 22.291 8.21955 22.5 7.98538C22.984 7.43781 23.2508 6.73198 23.25 6.00116Z" fill="#666666"/>
<path d="M17.4084 9.49314L12.4602 13.3416C12.3286 13.4439 12.1666 13.4994 11.9999 13.4994C11.8332 13.4994 11.6712 13.4439 11.5396 13.3416L4.78962 8.09157C4.71031 8.03168 4.6437 7.95663 4.59365 7.87077C4.5436 7.78492 4.51111 7.68997 4.49808 7.59145C4.48504 7.49293 4.49171 7.3928 4.51771 7.29688C4.54371 7.20096 4.58851 7.11116 4.64951 7.03271C4.71051 6.95425 4.78649 6.8887 4.87304 6.83987C4.9596 6.79103 5.05499 6.75988 5.15369 6.74823C5.25238 6.73659 5.35241 6.74467 5.44795 6.77201C5.54349 6.79935 5.63265 6.84541 5.71024 6.90751L11.9999 11.7994L16.4165 8.36439C15.9892 7.67306 15.7573 6.87876 15.7457 6.0661C15.734 5.25343 15.943 4.45283 16.3504 3.74954H4.12493C3.42896 3.75029 2.76172 4.02709 2.26959 4.51921C1.77747 5.01133 1.50067 5.67858 1.49993 6.37454V17.6245C1.50067 18.3205 1.77747 18.9878 2.26959 19.4799C2.76172 19.972 3.42896 20.2488 4.12493 20.2495H19.8749C20.5709 20.2488 21.2381 19.972 21.7303 19.4799C22.2224 18.9878 22.4992 18.3205 22.4999 17.6245V9.89908C21.7104 10.3564 20.8004 10.5625 19.8909 10.49C18.9813 10.4175 18.1154 10.0698 17.4084 9.49314Z" fill="#666666"/>
</svg>
