<svg width="24" height="24" viewBox="0 0 24 24" fill="none" xmlns="http://www.w3.org/2000/svg">
<path d="M20.6999 8.04159L12.5095 3.99909C12.351 3.92091 12.1767 3.88025 11.9999 3.88025C11.8232 3.88025 11.6489 3.92091 11.4904 3.99909L3.29995 8.04159C2.98595 8.19544 2.72123 8.43402 2.53569 8.7304C2.35014 9.02677 2.25117 9.36912 2.24995 9.71878V18.3724C2.24995 19.4078 3.10026 20.2474 4.14932 20.2474H19.8524C20.9015 20.2474 21.7518 19.4078 21.7518 18.3724V9.71878C21.7504 9.36892 21.6512 9.02643 21.4653 8.73004C21.2794 8.43365 21.0143 8.19518 20.6999 8.04159V8.04159Z" stroke="#666666" stroke-width="1.5" stroke-linecap="round" stroke-linejoin="round"/>
<path d="M18.6249 17.2459L12.5658 12.5331C12.3684 12.3795 12.1253 12.2961 11.8751 12.2961C11.625 12.2961 11.3819 12.3795 11.1844 12.5331L5.1249 17.2459M14.4999 13.8241L20.8749 8.99594M2.8749 8.99594L9.39053 13.9178" stroke="#666666" stroke-width="1.5" stroke-linecap="round" stroke-linejoin="round"/>
</svg>
