<svg width="24" height="24" viewBox="0 0 24 24" fill="none" xmlns="http://www.w3.org/2000/svg">
<path d="M22.0804 7.88861L12.3394 3.07595C12.2338 3.0239 12.1177 2.99683 12 2.99683C11.8823 2.99683 11.7662 3.0239 11.6606 3.07595L1.92185 7.88861C1.79592 7.94988 1.68965 8.04519 1.61509 8.16374C1.54053 8.28229 1.50066 8.41935 1.49998 8.55939V20.2467C1.50053 20.3458 1.5206 20.4438 1.55904 20.5352C1.59749 20.6265 1.65355 20.7093 1.72403 20.779C1.79451 20.8486 1.87802 20.9037 1.96979 20.9411C2.06156 20.9784 2.1598 20.9974 2.25888 20.9967H21.7411C21.8402 20.9974 21.9384 20.9784 22.0302 20.9411C22.1219 20.9037 22.2055 20.8486 22.2759 20.779C22.3464 20.7093 22.4025 20.6265 22.4409 20.5352C22.4794 20.4438 22.4994 20.3458 22.5 20.2467V8.55939C22.4995 8.41959 22.46 8.28271 22.3859 8.16418C22.3117 8.04566 22.2059 7.95021 22.0804 7.88861ZM12 4.58533L20.1094 8.59033L11.8734 12.6581L3.76404 8.65314L12 4.58533Z" fill="#666666"/>
</svg>
