<svg width="24" height="24" viewBox="0 0 24 24" fill="none" xmlns="http://www.w3.org/2000/svg">
<path d="M15.4687 2.24954V4.31204H18.2292L15.3984 7.14282C12.2015 4.66501 7.57026 4.89282 4.6387 7.82579C1.4587 11.0063 1.4587 16.1803 4.64057 19.3589C6.1713 20.8851 8.24466 21.7421 10.4062 21.7421C12.5677 21.7421 14.6411 20.8851 16.1718 19.3589C19.1048 16.4255 19.3326 11.7961 16.8548 8.59923L19.6875 5.77032V8.53079H21.75V2.24954H15.4687ZM14.715 17.902C13.5714 19.0432 12.0218 19.6842 10.4062 19.6842C8.79062 19.6842 7.24102 19.0432 6.09745 17.902C3.72136 15.5264 3.72136 11.6602 6.09745 9.28454C8.47354 6.90892 12.3393 6.90845 14.715 9.28454C17.0906 11.6606 17.091 15.5264 14.715 17.902Z" fill="#666666"/>
</svg>
