<svg width="24" height="24" viewBox="0 0 24 24" fill="none" xmlns="http://www.w3.org/2000/svg">
<g clip-path="url(#clip0_32_2448)">
<path d="M19.9688 0.748657H16.5C16.2265 0.748657 15.9642 0.857307 15.7708 1.0507C15.5774 1.2441 15.4688 1.5064 15.4688 1.77991C15.4688 2.05341 15.5774 2.31571 15.7708 2.50911C15.9642 2.70251 16.2265 2.81116 16.5 2.81116H17.4792L15.7402 4.54975C15.046 3.73957 14.1847 3.08925 13.2155 2.64349C12.2462 2.19773 11.1919 1.96709 10.125 1.96741C6.04126 1.96741 2.71876 5.28991 2.71876 9.37366C2.71876 13.1077 5.49657 16.2043 9.09376 16.7077V18.4674H7.78126C7.50775 18.4674 7.24545 18.5761 7.05205 18.7695C6.85866 18.9629 6.75001 19.2252 6.75001 19.4987C6.75001 19.7722 6.85866 20.0345 7.05205 20.2279C7.24545 20.4213 7.50775 20.5299 7.78126 20.5299H9.09376V22.2174C9.09376 22.4909 9.20241 22.7532 9.39581 22.9466C9.5892 23.14 9.8515 23.2487 10.125 23.2487C10.3985 23.2487 10.6608 23.14 10.8542 22.9466C11.0476 22.7532 11.1563 22.4909 11.1563 22.2174V20.5299H12.4688C12.7423 20.5299 13.0046 20.4213 13.198 20.2279C13.3914 20.0345 13.5 19.7722 13.5 19.4987C13.5 19.2252 13.3914 18.9629 13.198 18.7695C13.0046 18.5761 12.7423 18.4674 12.4688 18.4674H11.1563V16.7077C14.7534 16.2043 17.5313 13.1077 17.5313 9.37366C17.5318 8.32412 17.3081 7.28658 16.875 6.33053L18.9375 4.26803V5.24866C18.9375 5.52216 19.0462 5.78447 19.2396 5.97786C19.433 6.17126 19.6953 6.27991 19.9688 6.27991C20.2423 6.27991 20.5046 6.17126 20.698 5.97786C20.8914 5.78447 21 5.52216 21 5.24866V1.77991C21 1.5064 20.8914 1.2441 20.698 1.0507C20.5046 0.857307 20.2423 0.748657 19.9688 0.748657ZM10.125 14.7174C9.06812 14.7174 8.03496 14.404 7.15618 13.8168C6.2774 13.2296 5.59248 12.3951 5.18803 11.4186C4.78357 10.4422 4.67775 9.36773 4.88394 8.33115C5.09013 7.29456 5.59907 6.34239 6.34641 5.59506C7.09374 4.84772 8.04591 4.33878 9.0825 4.13259C10.1191 3.9264 11.1935 4.03222 12.17 4.43668C13.1464 4.84113 13.981 5.52605 14.5682 6.40483C15.1554 7.28361 15.4688 8.31677 15.4688 9.37366C15.4671 10.7904 14.9036 12.1487 13.9018 13.1505C12.9 14.1523 11.5418 14.7158 10.125 14.7174Z" fill="#666666"/>
</g>
<defs>
<clipPath id="clip0_32_2448">
<rect width="24" height="24" fill="white" transform="translate(-0.00012207 -0.00390625)"/>
</clipPath>
</defs>
</svg>
