<svg width="24" height="24" viewBox="0 0 24 24" fill="none" xmlns="http://www.w3.org/2000/svg">
<path d="M20.7188 2.24954H16.5C16.2265 2.24954 15.9642 2.35819 15.7708 2.55159C15.5774 2.74499 15.4688 3.00729 15.4688 3.28079C15.4688 3.5543 15.5774 3.8166 15.7708 4.01C15.9642 4.20339 16.2265 4.31204 16.5 4.31204H18.2292L15.3985 7.14282C12.202 4.66501 7.57032 4.89282 4.63876 7.82579C1.45876 11.0063 1.45876 16.1803 4.64064 19.3589C6.17137 20.8851 8.24473 21.7421 10.4063 21.7421C12.5678 21.7421 14.6412 20.8851 16.1719 19.3589C19.1049 16.4255 19.3327 11.7956 16.8549 8.59923L19.6875 5.77032V7.49954C19.6875 7.77305 19.7962 8.03535 19.9896 8.22875C20.183 8.42214 20.4453 8.53079 20.7188 8.53079C20.9923 8.53079 21.2546 8.42214 21.448 8.22875C21.6414 8.03535 21.75 7.77305 21.75 7.49954V3.28079C21.75 3.14537 21.7233 3.01127 21.6715 2.88615C21.6197 2.76103 21.5437 2.64735 21.448 2.55159C21.3522 2.45583 21.2385 2.37987 21.1134 2.32804C20.9883 2.27622 20.8542 2.24954 20.7188 2.24954ZM14.715 17.902C13.5714 19.0432 12.0218 19.6842 10.4063 19.6842C8.79068 19.6842 7.24109 19.0432 6.09751 17.902C3.72142 15.5264 3.72142 11.6602 6.09751 9.28454C8.47361 6.90892 12.3394 6.90845 14.715 9.28454C17.0906 11.6606 17.0911 15.5264 14.715 17.902Z" fill="#666666"/>
</svg>
