<svg width="24" height="24" viewBox="0 0 24 24" fill="none" xmlns="http://www.w3.org/2000/svg">
<g clip-path="url(#clip0_32_2446)">
<path d="M15.4687 0.748657V2.81116H17.4792L15.7401 4.54975C15.046 3.73954 14.1847 3.08921 13.2154 2.64345C12.2461 2.19769 11.1918 1.96706 10.1249 1.96741C6.0412 1.96741 2.7187 5.28991 2.7187 9.37366C2.7187 13.1077 5.49651 16.2043 9.0937 16.7077V18.4674H6.74995V20.5299H9.0937V23.2487H11.1562V20.5299H13.4999V18.4674H11.1562V16.7077C14.7534 16.2043 17.5312 13.1077 17.5312 9.37366C17.5317 8.32397 17.3079 7.28629 16.875 6.33007L18.9375 4.26756V6.27991H21V0.748657H15.4687ZM10.1249 14.7174C9.06805 14.7174 8.03489 14.404 7.15612 13.8168C6.27734 13.2296 5.59242 12.3951 5.18797 11.4186C4.78351 10.4422 4.67769 9.36773 4.88388 8.33115C5.09007 7.29456 5.59901 6.34239 6.34635 5.59506C7.09368 4.84772 8.04585 4.33878 9.08243 4.13259C10.119 3.9264 11.1935 4.03222 12.1699 4.43668C13.1464 4.84113 13.9809 5.52605 14.5681 6.40483C15.1553 7.28361 15.4687 8.31677 15.4687 9.37366C15.4671 10.7904 14.9036 12.1487 13.9018 13.1505C12.9 14.1523 11.5417 14.7158 10.1249 14.7174Z" fill="#666666"/>
</g>
<defs>
<clipPath id="clip0_32_2446">
<rect width="24" height="24" fill="white" transform="translate(0 -0.00390625)"/>
</clipPath>
</defs>
</svg>
