<svg width="24" height="24" viewBox="0 0 24 24" fill="none" xmlns="http://www.w3.org/2000/svg">
<g clip-path="url(#clip0_32_2462)">
<path d="M12 5.24594C13.4497 5.24594 14.625 4.07069 14.625 2.62094C14.625 1.17119 13.4497 -0.00405884 12 -0.00405884C10.5502 -0.00405884 9.37495 1.17119 9.37495 2.62094C9.37495 4.07069 10.5502 5.24594 12 5.24594Z" fill="#666666"/>
<path d="M15.7501 5.99503H8.25006C7.85224 5.99503 7.47071 6.15306 7.1894 6.43437C6.9081 6.71567 6.75006 7.0972 6.75006 7.49503V14.995H9.00007V8.99503H9.37507V23.995H11.8126V15.37H12.1876V23.995H14.6251V8.99503H15.0001V14.995H17.2501V7.49503C17.2501 7.0972 17.092 6.71567 16.8107 6.43437C16.5294 6.15306 16.1479 5.99503 15.7501 5.99503Z" fill="#666666"/>
</g>
<defs>
<clipPath id="clip0_32_2462">
<rect width="24" height="24" fill="white" transform="translate(0 -0.00390625)"/>
</clipPath>
</defs>
</svg>
