<svg width="24" height="24" viewBox="0 0 24 24" fill="none" xmlns="http://www.w3.org/2000/svg">
<g clip-path="url(#clip0_32_2457)">
<path d="M9.74991 9.74954V22.1245C9.74821 22.2728 9.77615 22.4198 9.83209 22.5571C9.88802 22.6943 9.97083 22.819 10.0756 22.9238C10.1804 23.0286 10.3051 23.1114 10.4424 23.1674C10.5796 23.2233 10.7267 23.2512 10.8749 23.2495V23.2495C11.0231 23.2512 11.1702 23.2233 11.3074 23.1674C11.4447 23.1114 11.5694 23.0286 11.6742 22.9238C11.779 22.819 11.8618 22.6943 11.9177 22.5571C11.9737 22.4198 12.0016 22.2728 11.9999 22.1245" stroke="#666666" stroke-width="1.5" stroke-miterlimit="10" stroke-linecap="round"/>
<path d="M12 15.7495V22.1245C11.9983 22.2728 12.0262 22.4198 12.0822 22.5571C12.1381 22.6943 12.2209 22.819 12.3257 22.9238C12.4305 23.0286 12.5552 23.1114 12.6925 23.1674C12.8297 23.2233 12.9768 23.2512 13.125 23.2495C13.2732 23.2512 13.4203 23.2233 13.5575 23.1674C13.6948 23.1114 13.8195 23.0286 13.9243 22.9238C14.0291 22.819 14.1119 22.6943 14.1678 22.5571C14.2237 22.4198 14.2517 22.2728 14.25 22.1245V9.74954" stroke="#666666" stroke-width="1.5" stroke-miterlimit="10" stroke-linecap="round"/>
<path d="M9.74997 8.99774V13.1227C9.75173 13.271 9.72383 13.418 9.66792 13.5553C9.612 13.6926 9.5292 13.8173 9.42439 13.9222C9.31957 14.027 9.19485 14.1098 9.05756 14.1657C8.92027 14.2216 8.77319 14.2495 8.62497 14.2477V14.2477C8.47674 14.2495 8.32966 14.2216 8.19237 14.1657C8.05509 14.1098 7.93037 14.027 7.82555 13.9222C7.72073 13.8173 7.63793 13.6926 7.58202 13.5553C7.5261 13.418 7.49821 13.271 7.49997 13.1227V8.99774C7.49997 8.401 7.73702 7.82871 8.15898 7.40675C8.58093 6.98479 9.15323 6.74774 9.74997 6.74774H14.25C14.8467 6.74774 15.419 6.98479 15.841 7.40675C16.2629 7.82871 16.5 8.401 16.5 8.99774V13.1227C16.5017 13.271 16.4738 13.418 16.4179 13.5553C16.362 13.6926 16.2792 13.8173 16.1744 13.9222C16.0696 14.027 15.9448 14.1098 15.8076 14.1657C15.6703 14.2216 15.5232 14.2495 15.375 14.2477V14.2477C15.2267 14.2495 15.0797 14.2216 14.9424 14.1657C14.8051 14.1098 14.6804 14.027 14.5756 13.9222C14.4707 13.8173 14.3879 13.6926 14.332 13.5553C14.2761 13.418 14.2482 13.271 14.25 13.1227V8.99774" stroke="#666666" stroke-width="1.5" stroke-miterlimit="10" stroke-linecap="round"/>
<path d="M11.9999 4.49866C13.0355 4.49866 13.8749 3.65919 13.8749 2.62366C13.8749 1.58812 13.0355 0.748657 11.9999 0.748657C10.9644 0.748657 10.1249 1.58812 10.1249 2.62366C10.1249 3.65919 10.9644 4.49866 11.9999 4.49866Z" stroke="#666666" stroke-width="1.5" stroke-miterlimit="10" stroke-linecap="round"/>
</g>
<defs>
<clipPath id="clip0_32_2457">
<rect width="24" height="24" fill="white" transform="translate(0 -0.00390625)"/>
</clipPath>
</defs>
</svg>
