<svg width="24" height="24" viewBox="0 0 24 24" fill="none" xmlns="http://www.w3.org/2000/svg">
<g clip-path="url(#clip0_32_2465)">
<path d="M12 5.24594C13.4498 5.24594 14.625 4.07069 14.625 2.62094C14.625 1.17119 13.4498 -0.00405884 12 -0.00405884C10.5503 -0.00405884 9.37502 1.17119 9.37502 2.62094C9.37502 4.07069 10.5503 5.24594 12 5.24594Z" fill="#666666"/>
<path d="M14.25 5.99503H9.74998C8.95506 5.99738 8.19336 6.3142 7.63126 6.8763C7.06916 7.4384 6.75233 8.2001 6.74998 8.99503V14.035C6.74998 14.5436 7.14514 14.9763 7.65327 14.9946C7.77919 14.9992 7.90475 14.9783 8.02244 14.9333C8.14013 14.8883 8.24754 14.82 8.33824 14.7325C8.42895 14.6451 8.50109 14.5402 8.55036 14.4242C8.59962 14.3083 8.62501 14.1835 8.62498 14.0575V9.38268C8.62379 9.28594 8.65922 9.19232 8.72416 9.12059C8.7891 9.04887 8.87875 9.00435 8.97514 8.99596C9.02644 8.99256 9.07788 8.99973 9.12629 9.01705C9.17469 9.03436 9.21902 9.06145 9.25652 9.09661C9.29401 9.13178 9.32388 9.17428 9.34426 9.22148C9.36464 9.26867 9.3751 9.31956 9.37498 9.37096V22.9169C9.37498 23.2028 9.48857 23.4771 9.69076 23.6793C9.89295 23.8814 10.1672 23.995 10.4531 23.995C10.739 23.995 11.0133 23.8814 11.2155 23.6793C11.4176 23.4771 11.5312 23.2028 11.5312 22.9169V16.2297C11.5296 16.1087 11.5737 15.9915 11.6548 15.9016C11.7359 15.8117 11.848 15.7558 11.9686 15.745C12.0327 15.7407 12.0971 15.7497 12.1576 15.7713C12.2182 15.7929 12.2736 15.8267 12.3205 15.8707C12.3674 15.9147 12.4048 15.9678 12.4303 16.0268C12.4558 16.0859 12.4689 16.1495 12.4687 16.2138V22.9169C12.4687 23.2028 12.5823 23.4771 12.7845 23.6793C12.9867 23.8814 13.2609 23.995 13.5469 23.995C13.8328 23.995 14.107 23.8814 14.3092 23.6793C14.5114 23.4771 14.625 23.2028 14.625 22.9169V9.38268C14.6238 9.28594 14.6592 9.19232 14.7242 9.12059C14.7891 9.04887 14.8788 9.00435 14.9751 8.99596C15.0264 8.99256 15.0779 8.99973 15.1263 9.01705C15.1747 9.03436 15.219 9.06145 15.2565 9.09661C15.294 9.13178 15.3239 9.17428 15.3443 9.22148C15.3646 9.26867 15.3751 9.31956 15.375 9.37096V14.036C15.375 14.5446 15.7701 14.9772 16.2783 14.9955C16.4043 15.0001 16.5299 14.9792 16.6477 14.9342C16.7654 14.8891 16.8729 14.8207 16.9636 14.7331C17.0543 14.6456 17.1264 14.5406 17.1756 14.4245C17.2248 14.3084 17.2501 14.1836 17.25 14.0575V8.99503C17.2476 8.2001 16.9308 7.4384 16.3687 6.8763C15.8066 6.3142 15.0449 5.99738 14.25 5.99503Z" fill="#666666"/>
</g>
<defs>
<clipPath id="clip0_32_2465">
<rect width="24" height="24" fill="white" transform="translate(0 -0.00390625)"/>
</clipPath>
</defs>
</svg>
