<svg width="24" height="24" viewBox="0 0 24 24" fill="none" xmlns="http://www.w3.org/2000/svg">
<path d="M8.62502 2.25015V18.0001M14.6845 5.84265L9.31548 2.40765C9.10191 2.30096 8.86596 2.2468 8.62725 2.24965C8.38853 2.2525 8.15394 2.31229 7.94298 2.42405L2.64892 5.97624C2.52848 6.04004 2.4277 6.13547 2.35742 6.25225C2.28713 6.36903 2.25 6.50275 2.25002 6.63905V20.5047C2.25 20.634 2.28344 20.7612 2.34708 20.8738C2.41072 20.9864 2.5024 21.0806 2.61322 21.1473C2.72403 21.214 2.85021 21.2509 2.97951 21.2545C3.1088 21.258 3.23681 21.228 3.35111 21.1675L7.93642 18.1773C8.1491 18.0647 8.38578 18.0048 8.62645 18.0029C8.86713 18.0009 9.10475 18.0569 9.31923 18.1661L14.5627 21.588C14.7753 21.6963 15.0107 21.7523 15.2493 21.7514C15.4879 21.7506 15.7229 21.6927 15.9347 21.5828L21.3455 18.0231C21.4674 17.9598 21.5696 17.8643 21.6409 17.7469C21.7123 17.6296 21.75 17.4948 21.75 17.3575V3.49561C21.75 3.36627 21.7166 3.23912 21.6529 3.12652C21.5893 3.01392 21.4976 2.91969 21.3868 2.85298C21.276 2.78628 21.1498 2.74937 21.0205 2.74583C20.8912 2.74229 20.7632 2.77225 20.6489 2.8328L16.0552 5.82624C15.8445 5.93769 15.6102 5.99731 15.3718 6.00016C15.1335 6.00301 14.8979 5.94902 14.6845 5.84265V5.84265ZM15.375 6.00015V21.7501V6.00015Z" stroke="#666666" stroke-width="1.5" stroke-linecap="round" stroke-linejoin="round"/>
</svg>
