<svg width="24" height="24" viewBox="0 0 24 24" fill="none" xmlns="http://www.w3.org/2000/svg">
<path d="M2.25789 5.30793C2.02709 5.43931 1.8353 5.62961 1.70213 5.85939C1.56896 6.08916 1.49918 6.35017 1.49992 6.61575V20.5264C1.49909 20.7855 1.56541 21.0405 1.69245 21.2664C1.81948 21.4923 2.00287 21.6815 2.22476 21.8154C2.44665 21.9493 2.69945 22.0235 2.95853 22.0307C3.2176 22.0378 3.47411 21.9777 3.70305 21.8562C3.72321 21.8454 3.74289 21.8342 3.76211 21.8215L7.70618 19.2411C7.75855 19.2069 7.80155 19.1602 7.83127 19.1052C7.86099 19.0502 7.87648 18.9886 7.87633 18.9261V2.17247C7.87652 2.10415 7.85805 2.03709 7.82291 1.97851C7.78777 1.91993 7.7373 1.87206 7.67694 1.84007C7.61658 1.80808 7.54863 1.79319 7.48042 1.797C7.41222 1.80081 7.34635 1.82317 7.28993 1.86168L2.25789 5.30793ZM9.9543 1.83778C9.89776 1.80103 9.83236 1.7802 9.76497 1.77749C9.69759 1.77479 9.63073 1.7903 9.57142 1.8224C9.51212 1.8545 9.46256 1.902 9.42798 1.95989C9.3934 2.01779 9.37507 2.08394 9.37493 2.15137V18.912C9.37478 18.9745 9.39027 19.0361 9.41998 19.0911C9.4497 19.1461 9.49271 19.1928 9.54508 19.227L14.0451 22.1529C14.1017 22.1898 14.1672 22.2108 14.2347 22.2135C14.3021 22.2163 14.3691 22.2007 14.4285 22.1686C14.4879 22.1364 14.5375 22.0888 14.5721 22.0307C14.6067 21.9727 14.6249 21.9064 14.6249 21.8389V5.08903C14.6251 5.02638 14.6096 4.96468 14.5798 4.90957C14.55 4.85447 14.5068 4.8077 14.4543 4.77356L9.9543 1.83778ZM21.7748 2.1734C21.5537 2.03811 21.3011 1.96311 21.042 1.95588C20.7829 1.94864 20.5265 2.00942 20.2982 2.13215C20.278 2.14253 20.2584 2.15411 20.2396 2.16684L16.2951 4.74497C16.2427 4.77912 16.1997 4.82583 16.17 4.88085C16.1403 4.93586 16.1248 4.99744 16.1249 5.05997V21.8159C16.1247 21.8843 16.1431 21.9514 16.1783 22.0101C16.2135 22.0688 16.264 22.1167 16.3244 22.1487C16.3849 22.1807 16.4529 22.1956 16.5212 22.1917C16.5895 22.1878 16.6554 22.1653 16.7118 22.1267L21.7307 18.6832C21.9643 18.5529 22.1588 18.3625 22.2941 18.1318C22.4293 17.901 22.5004 17.6382 22.4999 17.3707V3.49575C22.503 3.23157 22.4379 2.97107 22.3109 2.73942C22.1838 2.50778 21.9992 2.31282 21.7748 2.1734Z" fill="#666666"/>
</svg>
