<svg width="24" height="24" viewBox="0 0 24 24" fill="none" xmlns="http://www.w3.org/2000/svg">
<path d="M12 17.9969C12.8284 17.9969 13.5 17.3253 13.5 16.4969C13.5 15.6684 12.8284 14.9969 12 14.9969C11.1716 14.9969 10.5 15.6684 10.5 16.4969C10.5 17.3253 11.1716 17.9969 12 17.9969Z" fill="#666666"/>
<path d="M4.6771 1.49774C4.25921 1.49766 3.84955 1.61396 3.49404 1.83361C3.13852 2.05326 2.85121 2.36758 2.66429 2.74134L1.21116 5.64759C1.06917 5.93337 0.98924 6.24597 0.976638 6.56484C0.964035 6.88371 1.01904 7.20164 1.13804 7.49774H14.1787C14.2104 7.49778 14.2416 7.48975 14.2694 7.47442C14.2972 7.45909 14.3207 7.43695 14.3376 7.41009L17.8766 1.78509C17.8945 1.75677 17.9044 1.7242 17.9053 1.69076C17.9063 1.65732 17.8984 1.62423 17.8822 1.59491C17.8661 1.5656 17.8425 1.54112 17.8137 1.52404C17.7849 1.50695 17.7521 1.49787 17.7187 1.49774H4.6771Z" fill="#666666"/>
<path d="M22.7892 5.65154L21.3361 2.74529C21.1864 2.4434 20.9704 2.17925 20.7042 1.97259C20.4381 1.76593 20.1286 1.6221 19.7991 1.55185L16.0547 7.50029L13.9687 10.8322C12.6936 10.3892 11.3064 10.3892 10.0312 10.8322L8.93811 9.08841C8.92127 9.06146 8.89785 9.03923 8.87005 9.02381C8.84225 9.0084 8.81099 9.0003 8.77921 9.00029H2.39718C2.36354 9.00034 2.33055 9.00944 2.30164 9.02664C2.27274 9.04383 2.24899 9.06848 2.23288 9.098C2.21678 9.12753 2.20891 9.16084 2.21011 9.19445C2.2113 9.22806 2.22151 9.26073 2.23968 9.28904L6.11624 15.3233C5.94159 16.1939 5.96238 17.0925 6.1771 17.9541C6.39182 18.8158 6.79513 19.619 7.35791 20.3059C7.9207 20.9928 8.62894 21.5462 9.43153 21.9262C10.2341 22.3062 11.1111 22.5033 11.9991 22.5033C12.8871 22.5033 13.764 22.3062 14.5666 21.9262C15.3692 21.5462 16.0774 20.9928 16.6402 20.3059C17.203 19.619 17.6063 18.8158 17.821 17.9541C18.0357 17.0925 18.0565 16.1939 17.8819 15.3233L22.6697 7.87529C22.8799 7.54648 23.0014 7.16885 23.0223 6.77915C23.0433 6.38946 22.963 6.00098 22.7892 5.65154ZM12.1955 19.4942C11.5867 19.534 10.9803 19.3872 10.4571 19.0735C9.93395 18.7599 9.51882 18.2941 9.26711 17.7384C9.0154 17.1828 8.93907 16.5636 9.0483 15.9634C9.15754 15.3632 9.44714 14.8106 9.87849 14.3793C10.3098 13.9479 10.8625 13.6583 11.4626 13.5491C12.0628 13.4398 12.682 13.5162 13.2377 13.7679C13.7934 14.0196 14.2591 14.4347 14.5728 14.9579C14.8865 15.4811 15.0332 16.0875 14.9934 16.6962C14.9452 17.4223 14.635 18.1063 14.1204 18.6209C13.6059 19.1355 12.922 19.4458 12.1959 19.4942H12.1955Z" fill="#666666"/>
</svg>
