<svg width="24" height="24" viewBox="0 0 24 24" fill="none" xmlns="http://www.w3.org/2000/svg">
<g clip-path="url(#clip0_32_2474)">
<path d="M12 21.7469C14.8995 21.7469 17.25 19.3964 17.25 16.4969C17.25 13.5974 14.8995 11.2469 12 11.2469C9.10054 11.2469 6.75004 13.5974 6.75004 16.4969C6.75004 19.3964 9.10054 21.7469 12 21.7469Z" stroke="#666666" stroke-width="1.5" stroke-linecap="round" stroke-linejoin="round"/>
<path d="M12 18.7487C13.2426 18.7487 14.25 17.7413 14.25 16.4987C14.25 15.256 13.2426 14.2487 12 14.2487C10.7574 14.2487 9.75001 15.256 9.75001 16.4987C9.75001 17.7413 10.7574 18.7487 12 18.7487Z" stroke="#666666" stroke-width="1.5" stroke-linecap="round" stroke-linejoin="round"/>
<path d="M6.89067 15.1411L1.96129 7.46858C1.82066 7.24972 1.73936 6.99804 1.72539 6.73827C1.71142 6.47849 1.76525 6.21955 1.8816 5.98686L3.33473 3.08061C3.45924 2.83114 3.65081 2.62131 3.88795 2.47467C4.12509 2.32803 4.39841 2.25039 4.67723 2.25046H19.3229C19.6014 2.25048 19.8745 2.32806 20.1114 2.47452C20.3484 2.62098 20.5398 2.83052 20.6644 3.07968L22.1175 5.98593C22.2339 6.21861 22.2877 6.47755 22.2738 6.73733C22.2598 6.99711 22.1785 7.24878 22.0379 7.46765L17.1094 15.1411M17.3907 6.75046H1.73441M20.0972 2.46608L14.2969 11.7192M6.58832 6.75046L9.70317 11.7192" stroke="#666666" stroke-width="1.5" stroke-linecap="round" stroke-linejoin="round"/>
</g>
<defs>
<clipPath id="clip0_32_2474">
<rect width="24" height="24" fill="white" transform="translate(-0.00012207 -0.00390625)"/>
</clipPath>
</defs>
</svg>
