<svg width="24" height="24" viewBox="0 0 24 24" fill="none" xmlns="http://www.w3.org/2000/svg">
<g clip-path="url(#clip0_32_2478)">
<path d="M3.75002 1.49774L0.750015 7.49774H14.302L18.0624 1.49774H3.75002Z" fill="#666666"/>
<path d="M23.2501 6.74774L19.8751 1.49774L13.9688 10.8296C12.6937 10.3867 11.3065 10.3867 10.0313 10.8296L8.8843 8.99774H2.05415L6.11633 15.3207C5.94169 16.1914 5.96247 17.0899 6.1772 17.9516C6.39192 18.8132 6.79522 19.6165 7.35801 20.3034C7.9208 20.9903 8.62903 21.5437 9.43162 21.9237C10.2342 22.3037 11.1111 22.5008 11.9991 22.5008C12.8871 22.5008 13.7641 22.3037 14.5667 21.9237C15.3693 21.5437 16.0775 20.9903 16.6403 20.3034C17.2031 19.6165 17.6064 18.8132 17.8211 17.9516C18.0358 17.0899 18.0566 16.1914 17.882 15.3207L23.2501 6.74774ZM12.0001 19.779C11.3511 19.779 10.7167 19.5866 10.1771 19.226C9.63752 18.8655 9.21695 18.353 8.9686 17.7534C8.72025 17.1539 8.65527 16.4941 8.78188 15.8576C8.90849 15.2211 9.221 14.6364 9.67989 14.1776C10.1388 13.7187 10.7234 13.4062 11.3599 13.2795C11.9964 13.1529 12.6562 13.2179 13.2558 13.4663C13.8553 13.7146 14.3678 14.1352 14.7283 14.6748C15.0889 15.2144 15.2813 15.8488 15.2813 16.4977C15.2803 17.3677 14.9343 18.2017 14.3192 18.8168C13.704 19.432 12.87 19.778 12.0001 19.779Z" fill="#666666"/>
<path d="M12 17.9969C12.8284 17.9969 13.5 17.3253 13.5 16.4969C13.5 15.6684 12.8284 14.9969 12 14.9969C11.1715 14.9969 10.5 15.6684 10.5 16.4969C10.5 17.3253 11.1715 17.9969 12 17.9969Z" fill="#666666"/>
</g>
<defs>
<clipPath id="clip0_32_2478">
<rect width="24" height="24" fill="white" transform="translate(0.00012207 -0.00390625)"/>
</clipPath>
</defs>
</svg>
