<svg width="24" height="24" viewBox="0 0 24 24" fill="none" xmlns="http://www.w3.org/2000/svg">
<path d="M12.75 21.7505H11.25C10.8522 21.7505 10.4707 21.5924 10.1894 21.3111C9.90807 21.0298 9.75003 20.6483 9.75003 20.2505L9.75238 16.2276C9.75242 16.1947 9.7438 16.1623 9.72736 16.1338C9.71092 16.1053 9.68726 16.0815 9.65875 16.0651C9.63023 16.0486 9.59788 16.0399 9.56495 16.0399C9.53201 16.0399 9.49965 16.0485 9.47113 16.065L5.98644 18.0834C5.64753 18.2791 5.24479 18.3321 4.8668 18.2308C4.4888 18.1296 4.16651 17.8823 3.97081 17.5434L3.19737 16.2009L3.19456 16.1962C3.00414 15.8575 2.95422 15.4576 3.05555 15.0824C3.15688 14.7072 3.40136 14.3868 3.73644 14.19L7.23378 12.1626C7.2622 12.1462 7.28578 12.1225 7.30218 12.094C7.31857 12.0656 7.3272 12.0333 7.3272 12.0005C7.3272 11.9676 7.31857 11.9353 7.30218 11.9069C7.28578 11.8784 7.2622 11.8548 7.23378 11.8383L3.73972 9.8128C3.57148 9.71633 3.42397 9.58758 3.30564 9.43393C3.1873 9.28029 3.10049 9.10478 3.05018 8.91749C2.99988 8.7302 2.98707 8.53481 3.01249 8.34256C3.03791 8.1503 3.10106 7.96496 3.19831 7.79718L3.96894 6.4589C4.06631 6.2897 4.19629 6.14152 4.35134 6.02291C4.5064 5.90431 4.68344 5.81765 4.87222 5.76796C5.05885 5.71787 5.25356 5.70534 5.44507 5.73109C5.63658 5.75684 5.82107 5.82036 5.98784 5.91796L9.47113 7.93358C9.49965 7.95005 9.53201 7.95872 9.56495 7.9587C9.59788 7.95869 9.63023 7.95 9.65875 7.93351C9.68726 7.91702 9.71092 7.89332 9.72736 7.86477C9.7438 7.83623 9.75242 7.80386 9.75238 7.77093L9.75003 3.75046C9.75003 3.35263 9.90807 2.9711 10.1894 2.6898C10.4707 2.40849 10.8522 2.25046 11.25 2.25046H12.75C13.1479 2.25046 13.5294 2.40849 13.8107 2.6898C14.092 2.9711 14.25 3.35263 14.25 3.75046V7.76858C14.25 7.80152 14.2586 7.83389 14.275 7.86243C14.2915 7.89097 14.3152 7.91468 14.3437 7.93117C14.3722 7.94766 14.4045 7.95635 14.4375 7.95636C14.4704 7.95637 14.5028 7.94771 14.5313 7.93124L18.016 5.9128C18.355 5.71753 18.7576 5.66472 19.1355 5.76595C19.5133 5.86719 19.8356 6.11421 20.0316 6.4528L20.8046 7.7953L20.8074 7.79952C21 8.13862 21.0507 8.54012 20.9485 8.91647C20.8463 9.29282 20.5994 9.6135 20.2618 9.80858L16.7682 11.8336C16.7397 11.8501 16.7162 11.8737 16.6998 11.9022C16.6834 11.9307 16.6747 11.9629 16.6747 11.9958C16.6747 12.0286 16.6834 12.0609 16.6998 12.0894C16.7162 12.1178 16.7397 12.1415 16.7682 12.158L20.2618 14.183C20.43 14.2794 20.5775 14.4082 20.6958 14.5618C20.8142 14.7154 20.901 14.8909 20.9514 15.0782C21.0017 15.2655 21.0146 15.4609 20.9892 15.6531C20.9639 15.8454 20.9008 16.0308 20.8036 16.1986L20.033 17.5369C19.9356 17.7061 19.8056 17.8542 19.6506 17.9728C19.4955 18.0914 19.3185 18.1781 19.1297 18.2278C18.9431 18.2779 18.7484 18.2904 18.5569 18.2647C18.3654 18.2389 18.1809 18.1754 18.0141 18.0778L14.5308 16.0622C14.5023 16.0457 14.47 16.0371 14.4371 16.0371C14.4042 16.037 14.3719 16.0457 14.3434 16.0621C14.3149 16.0786 14.2912 16.1022 14.2748 16.1307C14.2583 16.1592 14.2496 16.1915 14.2496 16.2244L14.25 20.2505C14.25 20.6483 14.092 21.0298 13.8107 21.3111C13.5294 21.5924 13.1479 21.7505 12.75 21.7505Z" fill="#666666"/>
</svg>
