<svg width="24" height="24" viewBox="0 0 24 24" fill="none" xmlns="http://www.w3.org/2000/svg">
<path d="M20.1529 8.16756L19.3809 6.82741C19.2849 6.66052 19.1265 6.53861 18.9405 6.48851C18.7546 6.4384 18.5564 6.4642 18.3895 6.56022L13.7775 9.2321C13.7488 9.24862 13.7164 9.25729 13.6833 9.25722C13.6502 9.25715 13.6178 9.24834 13.5892 9.23168C13.5607 9.21502 13.537 9.19111 13.5207 9.16237C13.5044 9.13364 13.4959 9.10109 13.4962 9.06803L13.5 3.74866C13.5 3.54974 13.421 3.35898 13.2803 3.21833C13.1396 3.07768 12.9489 2.99866 12.75 2.99866H11.25C11.0511 2.99866 10.8603 3.07768 10.7196 3.21833C10.579 3.35898 10.5 3.54974 10.5 3.74866L10.5033 9.07225C10.5035 9.10531 10.4951 9.13785 10.4788 9.16659C10.4624 9.19533 10.4388 9.21924 10.4102 9.2359C10.3817 9.25255 10.3492 9.26137 10.3162 9.26144C10.2831 9.26151 10.2506 9.25284 10.222 9.23631L5.60997 6.56444C5.44307 6.46842 5.24486 6.44262 5.05893 6.49273C4.87301 6.54283 4.71461 6.66474 4.61856 6.83163L3.847 8.17225C3.79936 8.25465 3.76847 8.34566 3.7561 8.44003C3.74373 8.5344 3.75012 8.63029 3.7749 8.72219C3.79968 8.81409 3.84237 8.90019 3.90051 8.97554C3.95866 9.0509 4.03111 9.11403 4.11372 9.16131L8.73044 11.8369C8.75863 11.8535 8.78201 11.8771 8.79826 11.9055C8.81451 11.9338 8.82305 11.966 8.82305 11.9987C8.82305 12.0313 8.81451 12.0635 8.79826 12.0918C8.78201 12.1202 8.75863 12.1438 8.73044 12.1604L4.11372 14.836C3.94801 14.9326 3.82707 15.0906 3.77713 15.2757C3.7272 15.4609 3.7523 15.6583 3.847 15.8251L4.61903 17.1652C4.71508 17.3321 4.87348 17.454 5.0594 17.5041C5.24532 17.5542 5.44353 17.5284 5.61044 17.4324L10.2225 14.7605C10.2511 14.744 10.2836 14.7353 10.3166 14.7354C10.3497 14.7355 10.3821 14.7443 10.4107 14.761C10.4393 14.7776 10.4629 14.8015 10.4792 14.8303C10.4956 14.859 10.504 14.8915 10.5037 14.9246L10.5 20.2487C10.5 20.4476 10.579 20.6383 10.7196 20.779C10.8603 20.9196 11.0511 20.9987 11.25 20.9987H12.75C12.9489 20.9987 13.1396 20.9196 13.2803 20.779C13.421 20.6383 13.5 20.4476 13.5 20.2487L13.4967 14.9204C13.4964 14.8873 13.5048 14.8548 13.5212 14.826C13.5375 14.7973 13.5612 14.7734 13.5897 14.7567C13.6183 14.7401 13.6507 14.7313 13.6838 14.7312C13.7168 14.7311 13.7493 14.7398 13.7779 14.7563L18.39 17.4282C18.5569 17.5242 18.7551 17.55 18.941 17.4999C19.1269 17.4498 19.2853 17.3279 19.3814 17.161L20.1534 15.8208C20.201 15.7384 20.2319 15.6474 20.2443 15.5531C20.2567 15.4587 20.2503 15.3628 20.2255 15.2709C20.2007 15.179 20.158 15.0929 20.0999 15.0176C20.0418 14.9422 19.9693 14.8791 19.8867 14.8318L15.27 12.1562C15.2418 12.1396 15.2184 12.116 15.2021 12.0876C15.1859 12.0593 15.1774 12.0271 15.1774 11.9944C15.1774 11.9617 15.1859 11.9296 15.2021 11.9013C15.2184 11.8729 15.2418 11.8493 15.27 11.8327L19.8867 9.1571C20.0527 9.06072 20.1739 8.90259 20.2238 8.71721C20.2737 8.53183 20.2482 8.33424 20.1529 8.16756V8.16756Z" stroke="#666666" stroke-width="1.5" stroke-linecap="round" stroke-linejoin="round"/>
</svg>
