<svg width="24" height="24" viewBox="0 0 24 24" fill="none" xmlns="http://www.w3.org/2000/svg">
<g clip-path="url(#clip0_32_2495)">
<path d="M22.6875 4.49774H18V1.87274C18 1.77329 17.9605 1.6779 17.8901 1.60758C17.8198 1.53725 17.7244 1.49774 17.625 1.49774H6.37496C6.27551 1.49774 6.18012 1.53725 6.1098 1.60758C6.03947 1.6779 5.99996 1.77329 5.99996 1.87274V4.49774H1.31246C1.16328 4.49774 1.0202 4.55701 0.914714 4.66249C0.809225 4.76798 0.749962 4.91106 0.749962 5.06024V21.9352C0.749962 22.0844 0.809225 22.2275 0.914714 22.333C1.0202 22.4385 1.16328 22.4977 1.31246 22.4977H22.6875C22.8367 22.4977 22.9797 22.4385 23.0852 22.333C23.1907 22.2275 23.25 22.0844 23.25 21.9352V5.06024C23.25 4.91106 23.1907 4.76798 23.0852 4.66249C22.9797 4.55701 22.8367 4.49774 22.6875 4.49774ZM7.87496 3.37274H16.125V4.49774H7.87496V3.37274ZM16.5 14.529H13.0312V17.9977H10.9687V14.529H7.49996V12.4665H10.9687V8.99774H13.0312V12.4665H16.5V14.529Z" fill="#666666"/>
</g>
<defs>
<clipPath id="clip0_32_2495">
<rect width="24" height="24" fill="white" transform="translate(0.00012207 -0.00390625)"/>
</clipPath>
</defs>
</svg>
