<svg width="24" height="24" viewBox="0 0 24 24" fill="none" xmlns="http://www.w3.org/2000/svg">
<path d="M20.2499 5.24774H3.74993C2.50729 5.24774 1.49993 6.2551 1.49993 7.49774V19.4977C1.49993 20.7404 2.50729 21.7477 3.74993 21.7477H20.2499C21.4926 21.7477 22.4999 20.7404 22.4999 19.4977V7.49774C22.4999 6.2551 21.4926 5.24774 20.2499 5.24774Z" stroke="#666666" stroke-width="1.5" stroke-linejoin="round"/>
<path d="M15.75 13.5005H8.24998M6.74998 5.25046V3.75046C6.74998 3.35263 6.90802 2.9711 7.18932 2.6898C7.47063 2.40849 7.85216 2.25046 8.24998 2.25046H15.75C16.1478 2.25046 16.5293 2.40849 16.8106 2.6898C17.092 2.9711 17.25 3.35263 17.25 3.75046V5.25046H6.74998ZM12 9.75046V17.2505V9.75046Z" stroke="#666666" stroke-width="1.5" stroke-linecap="round" stroke-linejoin="round"/>
</svg>
