<svg width="24" height="24" viewBox="0 0 24 24" fill="none" xmlns="http://www.w3.org/2000/svg">
<path d="M20.25 4.49774H18V3.74774C17.9994 3.1512 17.7622 2.57926 17.3403 2.15744C16.9185 1.73561 16.3466 1.49836 15.75 1.49774H8.25002C7.65348 1.49836 7.08154 1.73561 6.65972 2.15744C6.2379 2.57926 6.00064 3.1512 6.00002 3.74774V4.49774H3.75002C2.95464 4.49861 2.19208 4.81496 1.62966 5.37738C1.06724 5.9398 0.750891 6.70236 0.750023 7.49774V19.4977C0.750023 20.2934 1.06609 21.0565 1.6287 21.6191C2.19131 22.1817 2.95437 22.4977 3.75002 22.4977H20.25C21.0457 22.4977 21.8087 22.1817 22.3713 21.6191C22.934 21.0565 23.25 20.2934 23.25 19.4977V7.49774C23.2492 6.70236 22.9328 5.9398 22.3704 5.37738C21.808 4.81496 21.0454 4.49861 20.25 4.49774ZM15.75 14.2477H12.75V17.2477C12.75 17.4467 12.671 17.6374 12.5304 17.7781C12.3897 17.9187 12.1989 17.9977 12 17.9977C11.8011 17.9977 11.6103 17.9187 11.4697 17.7781C11.329 17.6374 11.25 17.4467 11.25 17.2477V14.2477H8.25002C8.05111 14.2477 7.86035 14.1687 7.71969 14.0281C7.57904 13.8874 7.50002 13.6967 7.50002 13.4977C7.50002 13.2988 7.57904 13.1081 7.71969 12.9674C7.86035 12.8268 8.05111 12.7477 8.25002 12.7477H11.25V9.74774C11.25 9.54883 11.329 9.35806 11.4697 9.21741C11.6103 9.07676 11.8011 8.99774 12 8.99774C12.1989 8.99774 12.3897 9.07676 12.5304 9.21741C12.671 9.35806 12.75 9.54883 12.75 9.74774V12.7477H15.75C15.9489 12.7477 16.1397 12.8268 16.2804 12.9674C16.421 13.1081 16.5 13.2988 16.5 13.4977C16.5 13.6967 16.421 13.8874 16.2804 14.0281C16.1397 14.1687 15.9489 14.2477 15.75 14.2477ZM16.5 4.49774H7.50002V3.74774C7.50002 3.54883 7.57904 3.35806 7.71969 3.21741C7.86035 3.07676 8.05111 2.99774 8.25002 2.99774H15.75C15.9489 2.99774 16.1397 3.07676 16.2804 3.21741C16.421 3.35806 16.5 3.54883 16.5 3.74774V4.49774Z" fill="#666666"/>
</svg>
