<svg width="24" height="24" viewBox="0 0 24 24" fill="none" xmlns="http://www.w3.org/2000/svg">
<path d="M5.24995 7.49692V13.4969M19.1221 2.44473C19.1221 2.44473 15.0609 7.49692 11.2499 7.49692H3.74995C3.55103 7.49692 3.36027 7.57594 3.21962 7.71659C3.07896 7.85724 2.99995 8.04801 2.99995 8.24692V12.7469C2.99995 12.9458 3.07896 13.1366 3.21962 13.2773C3.36027 13.4179 3.55103 13.4969 3.74995 13.4969H11.2499C15.0609 13.4969 19.1221 18.5702 19.1221 18.5702C19.4062 18.9452 20.2499 18.6883 20.2499 18.1094V2.90317C20.2499 2.32614 19.4531 2.02098 19.1221 2.44473ZM2.99995 11.9969C2.99995 11.9969 2.24995 11.7157 2.24995 10.4969C2.24995 9.27817 2.99995 8.99692 2.99995 8.99692V11.9969ZM20.9999 11.5282C20.9999 11.5282 21.7499 11.3252 21.7499 10.4969C21.7499 9.66864 20.9999 9.46567 20.9999 9.46567V11.5282ZM11.9999 7.49692V13.4969V7.49692Z" stroke="#666666" stroke-width="1.5" stroke-linecap="round" stroke-linejoin="round"/>
<path d="M6.74997 13.4969V21.3719C6.74997 21.4713 6.78948 21.5667 6.8598 21.637C6.93013 21.7074 7.02551 21.7469 7.12497 21.7469H9.60935C9.72683 21.7469 9.84269 21.7193 9.94757 21.6664C10.0525 21.6134 10.1434 21.5366 10.2132 21.442C10.2829 21.3475 10.3295 21.2379 10.3491 21.122C10.3687 21.0062 10.3608 20.8874 10.3261 20.7751C9.93325 19.5151 8.99997 18.0944 8.99997 15.7469H9.74997C9.94888 15.7469 10.1396 15.6678 10.2803 15.5272C10.421 15.3865 10.5 15.1958 10.5 14.9969V14.2469C10.5 14.0479 10.421 13.8572 10.2803 13.7165C10.1396 13.5759 9.94888 13.4969 9.74997 13.4969H8.99997" stroke="#666666" stroke-width="1.5" stroke-linecap="round" stroke-linejoin="round"/>
</svg>
