<svg width="24" height="24" viewBox="0 0 24 24" fill="none" xmlns="http://www.w3.org/2000/svg">
<path d="M2.25004 8.24655V8.27749C2.24893 8.47076 2.17915 8.65734 2.05316 8.8039V8.80624C1.80004 9.1053 1.50004 9.64062 1.50004 10.4966C1.50004 11.2723 1.74848 11.8198 2.04754 12.1798C2.17875 12.3395 2.25034 12.5399 2.25004 12.7466C2.25004 13.1444 2.40807 13.5259 2.68938 13.8072C2.97068 14.0885 3.35221 14.2466 3.75004 14.2466H4.12504C4.22449 14.2466 4.31988 14.207 4.3902 14.1367C4.46053 14.0664 4.50004 13.971 4.50004 13.8716V7.12155C4.50004 7.0221 4.46053 6.92671 4.3902 6.85639C4.31988 6.78606 4.22449 6.74655 4.12504 6.74655H3.75004C3.35221 6.74655 2.97068 6.90459 2.68938 7.18589C2.40807 7.4672 2.25004 7.84873 2.25004 8.24655ZM21.196 8.74108L21.1524 8.73312C21.1095 8.72493 21.0709 8.70206 21.043 8.66843C21.0152 8.63481 21 8.59253 21 8.5489V2.9028C21 2.3103 20.6068 1.7778 20.0208 1.5753C19.4621 1.38265 18.8799 1.53968 18.5358 1.97515C17.8039 2.84919 16.9993 3.65974 16.1307 4.39812C15.023 5.33562 13.9632 6.00358 12.99 6.3814C12.9191 6.40845 12.858 6.45642 12.8149 6.51894C12.7718 6.58147 12.7487 6.65561 12.7486 6.73155V14.0122C12.7488 14.1588 12.7918 14.3021 12.8726 14.4245C12.9533 14.5469 13.0681 14.643 13.2029 14.7008C14.1094 15.0894 15.0891 15.7241 16.1091 16.5889C16.9843 17.334 17.7947 18.1519 18.5316 19.0339C18.6497 19.182 18.8004 19.3008 18.9719 19.3811C19.1435 19.4613 19.3313 19.5009 19.5207 19.4966C19.6871 19.4958 19.8524 19.4683 20.01 19.415C20.6114 19.2153 21 18.702 21 18.1091V12.4433C21.0001 12.399 21.0158 12.3562 21.0443 12.3224C21.0729 12.2886 21.1125 12.266 21.1561 12.2586L21.196 12.252C21.6469 12.1297 22.5 11.6061 22.5 10.4966C22.5 9.38702 21.6469 8.86343 21.196 8.74108ZM11.25 14.9966V7.12155C11.25 7.0221 11.2105 6.92671 11.1402 6.85639C11.0699 6.78606 10.9745 6.74655 10.875 6.74655H6.37504C6.27558 6.74655 6.1802 6.78606 6.10987 6.85639C6.03955 6.92671 6.00004 7.0221 6.00004 7.12155V21.3716C6.00004 21.6699 6.11856 21.9561 6.32954 22.167C6.54052 22.378 6.82667 22.4966 7.12504 22.4966H9.58363C9.81734 22.4985 10.0484 22.4469 10.2591 22.3458C10.4698 22.2446 10.6545 22.0966 10.7991 21.913C10.9474 21.7229 11.0471 21.4996 11.0897 21.2623C11.1322 21.025 11.1163 20.781 11.0433 20.5512C10.9674 20.3084 10.8732 20.0356 10.7729 19.7455C10.4021 18.672 9.91316 18.0078 9.78285 16.4961C10.1749 16.4875 10.548 16.3258 10.8222 16.0455C11.0964 15.7652 11.25 15.3887 11.25 14.9966Z" fill="#666666"/>
</svg>
