<svg width="24" height="24" viewBox="0 0 24 24" fill="none" xmlns="http://www.w3.org/2000/svg">
<path d="M5.99998 6.74866V22.3112C5.99998 22.3609 6.01973 22.4086 6.05489 22.4437C6.09006 22.4789 6.13775 22.4987 6.18748 22.4987H10.8783C10.9343 22.4987 10.9896 22.4861 11.0401 22.462C11.0907 22.4378 11.1352 22.4026 11.1703 22.359C11.2055 22.3154 11.2304 22.2645 11.2433 22.2099C11.2562 22.1554 11.2567 22.0987 11.2448 22.044L9.78326 16.4987H10.875C10.9744 16.4987 11.0698 16.4592 11.1401 16.3888C11.2105 16.3185 11.25 16.2231 11.25 16.1237V6.74866H5.99998ZM21.1959 8.74319L21 8.69397V1.68616C21 1.63643 20.9802 1.58874 20.9451 1.55357C20.9099 1.51841 20.8622 1.49866 20.8125 1.49866H18.8203C18.7749 1.49884 18.7311 1.51549 18.697 1.54553L12.75 6.74866V14.2487L18.697 19.4518C18.7311 19.4818 18.7749 19.4985 18.8203 19.4987H20.8125C20.8622 19.4987 20.9099 19.4789 20.9451 19.4437C20.9802 19.4086 21 19.3609 21 19.3112V12.3033L21.1959 12.2541C21.6469 12.1318 22.5 11.6082 22.5 10.4987C22.5 9.38913 21.6469 8.86553 21.1959 8.74319ZM4.49998 6.74866H2.43748C2.38775 6.74866 2.34006 6.76841 2.30489 6.80358C2.26973 6.83874 2.24998 6.88643 2.24998 6.93616V8.60444C2.179 8.66764 2.11259 8.73578 2.05123 8.80835C1.79998 9.10741 1.49998 9.64272 1.49998 10.4987C1.49998 11.4451 1.86982 12.0516 2.24998 12.3933V14.0612C2.24998 14.1109 2.26973 14.1586 2.30489 14.1937C2.34006 14.2289 2.38775 14.2487 2.43748 14.2487H4.49998V6.74866Z" fill="#666666"/>
</svg>
