<svg width="24" height="24" viewBox="0 0 24 24" fill="none" xmlns="http://www.w3.org/2000/svg">
<path d="M20.25 18.7505L4.50002 3.00046" stroke="#666666" stroke-width="1.5" stroke-miterlimit="10" stroke-linecap="round"/>
<path d="M18.75 11.2484V9.7695C18.75 9.3659 18.4397 9.0195 18.0361 8.99934C17.9347 8.99445 17.8334 9.01021 17.7382 9.04565C17.6431 9.08108 17.5562 9.13547 17.4827 9.20551C17.4092 9.27554 17.3506 9.35977 17.3107 9.45309C17.2707 9.54641 17.2501 9.64688 17.25 9.7484V11.2484C17.2502 11.6156 17.2117 11.9819 17.1352 12.3411C17.1286 12.3718 17.1297 12.4037 17.1385 12.4339C17.1472 12.4641 17.1633 12.4916 17.1854 12.514L18.2082 13.5364C18.2193 13.5475 18.233 13.5556 18.2481 13.5601C18.2632 13.5645 18.2791 13.565 18.2945 13.5617C18.3099 13.5583 18.3241 13.5511 18.336 13.5408C18.3479 13.5305 18.3569 13.5174 18.3624 13.5026C18.6196 12.7789 18.7507 12.0164 18.75 11.2484ZM12 16.4984C10.609 16.494 9.27625 15.9394 8.29264 14.9558C7.30904 13.9722 6.75449 12.6394 6.75004 11.2484V9.7695C6.75004 9.3659 6.43973 9.0195 6.03613 8.99934C5.93473 8.99445 5.83338 9.01021 5.73824 9.04565C5.6431 9.08108 5.55615 9.13547 5.48265 9.20551C5.40915 9.27554 5.35064 9.35977 5.31065 9.45309C5.27067 9.54641 5.25005 9.64688 5.25004 9.7484V11.2484C5.25004 14.7172 7.87973 17.5822 11.25 17.9567V20.2484H9.02113C8.61754 20.2484 8.27113 20.5587 8.25098 20.9623C8.24609 21.0637 8.26184 21.1651 8.29728 21.2602C8.33272 21.3553 8.38711 21.4423 8.45714 21.5158C8.52718 21.5893 8.61141 21.6478 8.70473 21.6878C8.79805 21.7278 8.89851 21.7484 9.00004 21.7484H14.9789C15.3825 21.7484 15.7289 21.4381 15.7491 21.0345C15.754 20.9331 15.7382 20.8317 15.7028 20.7366C15.6674 20.6415 15.613 20.5545 15.5429 20.481C15.4729 20.4075 15.3887 20.349 15.2954 20.309C15.202 20.269 15.1016 20.2484 15 20.2484H12.75V17.9567C13.6037 17.8617 14.4312 17.6036 15.1875 17.1964C15.2132 17.1824 15.2352 17.1627 15.2519 17.1387C15.2686 17.1147 15.2794 17.0872 15.2836 17.0583C15.2877 17.0293 15.285 16.9999 15.2758 16.9722C15.2665 16.9445 15.2509 16.9193 15.2302 16.8987L14.3907 16.0592C14.3634 16.0322 14.3285 16.0142 14.2907 16.0077C14.2529 16.0011 14.214 16.0064 14.1793 16.0226C13.4959 16.3372 12.7523 16.4995 12 16.4984ZM12 3.7484C12.2969 3.74319 12.5919 3.79784 12.8672 3.90906C13.1425 4.02029 13.3927 4.18583 13.6026 4.39581C13.8126 4.60579 13.9781 4.85591 14.0894 5.13124C14.2006 5.40658 14.2552 5.70149 14.25 5.9984V9.5009C14.2501 9.55048 14.2698 9.59801 14.3049 9.63309L15.5902 10.9203C15.6033 10.9333 15.62 10.9422 15.6382 10.9458C15.6564 10.9494 15.6752 10.9475 15.6923 10.9403C15.7094 10.9332 15.724 10.9212 15.7343 10.9058C15.7446 10.8904 15.7501 10.8722 15.75 10.8537V6.04106C15.75 3.98278 14.1094 2.27653 12.0535 2.2484C11.4167 2.23672 10.7875 2.38809 10.2258 2.68813C9.66402 2.98817 9.18834 3.4269 8.84395 3.96262C8.82071 3.99869 8.81055 4.04163 8.81516 4.08428C8.81977 4.12694 8.83886 4.16672 8.86926 4.197L9.7852 5.11293C9.79604 5.12374 9.80937 5.13172 9.82401 5.13618C9.83865 5.14065 9.85417 5.14146 9.86919 5.13855C9.88422 5.13563 9.89831 5.12908 9.91022 5.11947C9.92214 5.10986 9.93152 5.09747 9.93754 5.0834C10.1121 4.68286 10.4009 4.34263 10.7677 4.10521C11.1345 3.86778 11.5631 3.74368 12 3.7484Z" fill="#666666"/>
<path d="M9.7158 11.3848L8.40986 10.077C8.39672 10.0639 8.38001 10.0551 8.36183 10.0515C8.34365 10.0479 8.32483 10.0498 8.30773 10.0569C8.29062 10.0641 8.27602 10.0761 8.26575 10.0915C8.25547 10.1069 8.25 10.125 8.25002 10.1436V11.202C8.25069 12.2012 8.64572 13.1597 9.34923 13.8692C9.81058 14.3489 10.3933 14.6946 11.0355 14.8695C11.6777 15.0444 12.3552 15.042 12.9961 14.8625C13.0119 14.858 13.0263 14.8495 13.0377 14.8377C13.0492 14.826 13.0574 14.8115 13.0615 14.7956C13.0655 14.7797 13.0654 14.763 13.061 14.7472C13.0566 14.7313 13.0481 14.717 13.0364 14.7054L11.8688 13.5378C11.8381 13.5076 11.7981 13.4886 11.7553 13.4839C10.7405 13.3658 9.9047 12.5258 9.76923 11.495C9.76425 11.4533 9.74543 11.4145 9.7158 11.3848Z" fill="#666666"/>
</svg>
