<svg width="24" height="24" viewBox="0 0 24 24" fill="none" xmlns="http://www.w3.org/2000/svg">
<path d="M12 17.2478V20.9978M9.00004 20.9978H15H9.00004ZM18 9.74777V11.2478C18 14.5478 15.3 17.2478 12 17.2478C8.70004 17.2478 6.00004 14.5478 6.00004 11.2478V9.74777H18Z" stroke="#666666" stroke-width="1.5" stroke-miterlimit="10" stroke-linecap="square"/>
<path d="M12 14.9978C11.505 14.9966 11.0153 14.896 10.56 14.702C10.1046 14.5079 9.69288 14.2244 9.34923 13.8681C8.64571 13.1586 8.25069 12.2001 8.25001 11.2009V5.9978C8.24809 5.50481 8.34377 5.01631 8.53155 4.56047C8.71932 4.10463 8.99547 3.69047 9.34407 3.34187C9.69268 2.99326 10.1068 2.71711 10.5627 2.52934C11.0185 2.34156 11.507 2.24588 12 2.2478C14.1028 2.2478 15.75 3.89499 15.75 5.9978V11.2009C15.75 13.2944 14.0677 14.9978 12 14.9978Z" fill="#666666"/>
</svg>
