<svg width="24" height="24" viewBox="0 0 24 24" fill="none" xmlns="http://www.w3.org/2000/svg">
<path d="M12 2.24777C6.62391 2.24777 2.25001 6.62168 2.25001 11.9978C2.25001 17.3739 6.62391 21.7478 12 21.7478C17.3761 21.7478 21.75 17.3739 21.75 11.9978C21.75 6.62168 17.3761 2.24777 12 2.24777ZM12 5.99777C12.5962 5.9995 13.1675 6.23711 13.5891 6.65869C14.0107 7.08028 14.2483 7.65157 14.25 8.24777V11.2478C14.2499 11.3688 14.2401 11.4897 14.2205 11.6092C14.2175 11.6266 14.2097 11.6427 14.198 11.6559C14.1862 11.669 14.171 11.6786 14.1541 11.6835C14.1372 11.6884 14.1192 11.6884 14.1022 11.6836C14.0853 11.6787 14.0701 11.6692 14.0583 11.6561L10.1011 7.30324C10.0738 7.27335 10.0569 7.23541 10.0529 7.19511C10.0489 7.1548 10.0581 7.1143 10.0791 7.07965C10.2798 6.7499 10.5619 6.47723 10.8982 6.28779C11.2346 6.09835 11.614 5.99849 12 5.99777ZM13.5 17.9978H10.5211C10.1175 17.9978 9.7711 17.6875 9.75095 17.2839C9.74606 17.1825 9.76181 17.0811 9.79725 16.986C9.83269 16.8908 9.88708 16.8039 9.95711 16.7304C10.0271 16.6569 10.1114 16.5984 10.2047 16.5584C10.298 16.5184 10.3985 16.4978 10.5 16.4978H11.25V15.6662C10.3972 15.513 9.60079 15.1346 8.94329 14.5703C8.01282 13.7711 7.50001 12.7281 7.50001 11.6331V10.4978C7.4994 10.3976 7.51899 10.2982 7.55761 10.2058C7.59624 10.1133 7.6531 10.0296 7.72482 9.95956C7.79653 9.88955 7.88161 9.83472 7.97499 9.79833C8.06837 9.76194 8.16812 9.74475 8.26829 9.74777C8.46625 9.75568 8.65335 9.84036 8.78994 9.98387C8.92653 10.1274 9.00187 10.3184 9.00001 10.5165V11.6331C9.00001 12.8359 10.3125 14.2337 12 14.2337C12.0783 14.2337 12.158 14.2295 12.2372 14.2225C12.2658 14.2198 12.2947 14.2239 12.3215 14.2344C12.3482 14.2449 12.3722 14.2615 12.3914 14.2829L13.3791 15.37C13.3897 15.3816 13.3973 15.3958 13.401 15.4112C13.4047 15.4265 13.4044 15.4426 13.4003 15.4578C13.3961 15.4731 13.3881 15.487 13.3772 15.4984C13.3662 15.5097 13.3525 15.5181 13.3374 15.5228C13.1448 15.5831 12.9487 15.631 12.75 15.6662V16.4978H13.4789C13.8825 16.4978 14.2289 16.8081 14.2491 17.2117C14.254 17.3131 14.2382 17.4144 14.2028 17.5096C14.1673 17.6047 14.1129 17.6917 14.0429 17.7652C13.9729 17.8387 13.8886 17.8972 13.7953 17.9372C13.702 17.9771 13.6015 17.9978 13.5 17.9978ZM9.84891 11.4864L11.558 13.3665C11.5649 13.3738 11.5692 13.3832 11.5704 13.3931C11.5715 13.4031 11.5695 13.4132 11.5645 13.4219C11.5595 13.4306 11.5519 13.4375 11.5427 13.4415C11.5335 13.4456 11.5232 13.4466 11.5134 13.4443C11.0603 13.342 10.6496 13.1027 10.3372 12.7589C10.0248 12.415 9.82584 11.9833 9.76735 11.5225C9.76633 11.5126 9.76845 11.5027 9.77342 11.4941C9.77839 11.4855 9.78595 11.4788 9.79501 11.4748C9.80407 11.4707 9.81416 11.4697 9.82385 11.4718C9.83353 11.4739 9.84231 11.479 9.84891 11.4864ZM17.0044 17.0996C16.8572 17.2334 16.6629 17.3032 16.4642 17.2937C16.2655 17.2842 16.0788 17.1962 15.945 17.049L6.94501 7.20527C6.81404 7.05764 6.74654 6.86433 6.75714 6.66726C6.76774 6.47019 6.85559 6.28524 7.00164 6.15251C7.1477 6.01978 7.34018 5.94997 7.53736 5.95821C7.73455 5.96644 7.92054 6.05207 8.05501 6.19652L17.055 16.0403C17.1888 16.1875 17.2586 16.3818 17.2491 16.5804C17.2396 16.7791 17.1516 16.9659 17.0044 17.0996ZM16.5 11.6331C16.4971 12.3115 16.3033 12.9754 15.9408 13.5489C15.9332 13.5613 15.9228 13.5718 15.9104 13.5795C15.8981 13.5873 15.8841 13.592 15.8695 13.5934C15.855 13.5947 15.8404 13.5927 15.8268 13.5874C15.8132 13.5821 15.801 13.5737 15.7913 13.5629L14.8917 12.5739C14.8682 12.5479 14.8523 12.5159 14.846 12.4815C14.8397 12.447 14.8432 12.4115 14.8561 12.3789C14.9505 12.1415 14.9993 11.8885 15 11.6331V10.5175C14.9982 10.3352 15.0617 10.1582 15.179 10.0186C15.2962 9.87903 15.4595 9.78595 15.6394 9.75621C16.1025 9.68683 16.5 10.0614 16.5 10.5118V11.6331Z" fill="#666666"/>
</svg>
