<svg width="24" height="24" viewBox="0 0 24 24" fill="none" xmlns="http://www.w3.org/2000/svg">
<path d="M20.25 18.7505L4.5 3.00046" stroke="#666666" stroke-width="1.5" stroke-miterlimit="10" stroke-linecap="round"/>
<path d="M18.75 11.2484V9.7695C18.75 9.3659 18.4397 9.0195 18.0361 8.99934C17.9347 8.99445 17.8334 9.01021 17.7382 9.04565C17.6431 9.08108 17.5561 9.13547 17.4826 9.20551C17.4091 9.27554 17.3506 9.35977 17.3106 9.45309C17.2707 9.54641 17.25 9.64688 17.25 9.7484V11.2484C17.2502 11.6328 17.2081 12.016 17.1244 12.3912C17.121 12.4065 17.1215 12.4224 17.1258 12.4375C17.1302 12.4526 17.1382 12.4663 17.1492 12.4775L18.2082 13.5364C18.2193 13.5475 18.233 13.5556 18.2481 13.5601C18.2632 13.5645 18.2791 13.565 18.2945 13.5617C18.3099 13.5583 18.3241 13.5511 18.336 13.5408C18.3478 13.5305 18.3569 13.5174 18.3624 13.5026C18.6195 12.7789 18.7507 12.0164 18.75 11.2484ZM12 16.4984C10.609 16.494 9.27623 15.9394 8.29263 14.9558C7.30903 13.9722 6.75447 12.6394 6.75003 11.2484V9.7695C6.75003 9.3659 6.43971 9.0195 6.03612 8.99934C5.93471 8.99445 5.83337 9.01021 5.73823 9.04565C5.64309 9.08108 5.55614 9.13547 5.48264 9.20551C5.40914 9.27554 5.35062 9.35977 5.31064 9.45309C5.27066 9.54641 5.25003 9.64688 5.25002 9.7484V11.2484C5.25002 14.7172 7.87971 17.5822 11.25 17.9567V20.2484H9.02112C8.61753 20.2484 8.27112 20.5587 8.25096 20.9623C8.24608 21.0637 8.26183 21.1651 8.29727 21.2602C8.33271 21.3553 8.38709 21.4423 8.45713 21.5158C8.52717 21.5893 8.6114 21.6478 8.70472 21.6878C8.79804 21.7278 8.8985 21.7484 9.00003 21.7484H14.9789C15.3825 21.7484 15.7289 21.4381 15.7491 21.0345C15.754 20.9331 15.7382 20.8317 15.7028 20.7366C15.6673 20.6415 15.613 20.5545 15.5429 20.481C15.4729 20.4075 15.3887 20.349 15.2953 20.309C15.202 20.269 15.1016 20.2484 15 20.2484H12.75V17.9567C13.6037 17.8617 14.4312 17.6036 15.1875 17.1964C15.2132 17.1824 15.2352 17.1627 15.2519 17.1387C15.2686 17.1147 15.2794 17.0872 15.2836 17.0583C15.2877 17.0293 15.285 16.9999 15.2758 16.9722C15.2665 16.9445 15.2509 16.9193 15.2302 16.8987L14.3677 16.0367C14.3471 16.0162 14.3207 16.0026 14.2921 15.9977C14.2635 15.9929 14.234 15.997 14.2078 16.0095C13.5166 16.3324 12.7629 16.4993 12 16.4984ZM12.0535 2.2484C11.4167 2.23672 10.7875 2.38809 10.2258 2.68813C9.66401 2.98817 9.18832 3.4269 8.84393 3.96262C8.8207 3.99869 8.81054 4.04163 8.81515 4.08428C8.81975 4.12694 8.83885 4.16672 8.86925 4.197L15.5902 10.9203C15.6033 10.9333 15.62 10.9422 15.6382 10.9458C15.6564 10.9494 15.6752 10.9475 15.6923 10.9403C15.7094 10.9332 15.724 10.9212 15.7343 10.9058C15.7446 10.8904 15.75 10.8722 15.75 10.8537V6.04106C15.75 3.98278 14.1094 2.27653 12.0535 2.2484Z" fill="#666666"/>
<path d="M8.40984 10.077C8.3967 10.0639 8.37999 10.0551 8.36181 10.0515C8.34364 10.0479 8.32481 10.0498 8.30771 10.0569C8.29061 10.0641 8.276 10.0761 8.26573 10.0915C8.25546 10.1069 8.24998 10.125 8.25 10.1436V11.202C8.25067 12.2012 8.6457 13.1597 9.34922 13.8692C9.81057 14.3489 10.3933 14.6946 11.0355 14.8695C11.6776 15.0444 12.3552 15.042 12.9961 14.8625C13.0119 14.858 13.0262 14.8495 13.0377 14.8377C13.0492 14.826 13.0574 14.8115 13.0614 14.7956C13.0655 14.7797 13.0654 14.763 13.061 14.7472C13.0566 14.7313 13.0481 14.717 13.0364 14.7054L8.40984 10.077Z" fill="#666666"/>
</svg>
