<svg width="24" height="24" viewBox="0 0 24 24" fill="none" xmlns="http://www.w3.org/2000/svg">
<path d="M12 2.24686C6.62386 2.24686 2.24995 6.62076 2.24995 11.9969C2.24995 17.373 6.62386 21.7469 12 21.7469C17.376 21.7469 21.75 17.373 21.75 11.9969C21.75 6.62076 17.376 2.24686 12 2.24686ZM9.74995 8.24686C9.75169 7.65065 9.9893 7.07936 10.4109 6.65778C10.8325 6.2362 11.4038 5.99859 12 5.99686C12.5962 5.99859 13.1675 6.2362 13.589 6.65778C14.0106 7.07936 14.2482 7.65065 14.25 8.24686V11.2469C14.2482 11.8431 14.0106 12.4144 13.589 12.8359C13.1675 13.2575 12.5962 13.4951 12 13.4969C11.4038 13.4951 10.8325 13.2575 10.4109 12.8359C9.9893 12.4144 9.75169 11.8431 9.74995 11.2469V8.24686ZM16.5 11.6322C16.5 12.7272 15.9871 13.7701 15.0567 14.5694C14.3992 15.1337 13.6028 15.5121 12.75 15.6653V16.4969H14.25V17.9969H9.74995V16.4969H11.25V15.6653C10.3971 15.5121 9.60073 15.1337 8.94324 14.5694C8.01277 13.7701 7.49995 12.7272 7.49995 11.6322V9.76092H8.99995V11.6322C8.99995 12.835 10.3125 14.2328 12 14.2328C13.3875 14.2328 15 13.097 15 11.6322V9.76092H16.5V11.6322Z" fill="#666666"/>
</svg>
