<svg width="24" height="24" viewBox="0 0 24 24" fill="none" xmlns="http://www.w3.org/2000/svg">
<path d="M11.9999 2.24777C6.62385 2.24777 2.24995 6.62168 2.24995 11.9978C2.24995 17.3739 6.62385 21.7478 11.9999 21.7478C17.376 21.7478 21.7499 17.3739 21.7499 11.9978C21.7499 6.62168 17.376 2.24777 11.9999 2.24777ZM14.9999 11.6331V9.74777H16.4999V11.6331C16.4961 12.3539 16.2779 13.0573 15.8732 13.6539L14.8124 12.4853C14.9349 12.2178 14.9988 11.9273 14.9999 11.6331ZM11.9999 5.99777C12.5962 5.9995 13.1674 6.23711 13.589 6.65869C14.0106 7.08028 14.2482 7.65157 14.2499 8.24777V11.2478C14.2498 11.4317 14.2271 11.615 14.1824 11.7934L10.0106 7.2034C10.2014 6.8407 10.4874 6.53683 10.8379 6.32442C11.1884 6.11201 11.5901 5.99909 11.9999 5.99777ZM14.2499 17.9978H9.74995V16.4978H11.2499V15.6662C10.3971 15.513 9.60073 15.1346 8.94323 14.5703C8.01276 13.7711 7.49995 12.7281 7.49995 11.6331V9.74777H8.99995V11.6331C8.99995 12.8359 10.3124 14.2337 11.9999 14.2337C12.1097 14.2334 12.2192 14.2264 12.3281 14.2126L13.4774 15.4782C13.2407 15.5601 12.9977 15.6228 12.7509 15.6657V16.4978H14.2509L14.2499 17.9978ZM9.75417 11.3823L11.6526 13.4706C11.1461 13.3897 10.6822 13.1388 10.3372 12.7593C9.9922 12.3798 9.78658 11.8942 9.75417 11.3823ZM16.1324 17.2365L6.73401 6.99433L7.84401 5.98558L17.2424 16.2278L16.1324 17.2365Z" fill="#666666"/>
</svg>
