<svg width="24" height="24" viewBox="0 0 24 24" fill="none" xmlns="http://www.w3.org/2000/svg">
<path d="M12 17.2478V20.9978M8.99997 20.9978H15H8.99997ZM18 9.74777V11.2478C18 14.5478 15.3 17.2478 12 17.2478C8.69997 17.2478 5.99997 14.5478 5.99997 11.2478V9.74777H18Z" stroke="#666666" stroke-width="1.5" stroke-linecap="round" stroke-linejoin="round"/>
<path d="M12.0001 3.0005C11.6056 2.99851 11.2146 3.07475 10.8497 3.22481C10.4849 3.37487 10.1533 3.59577 9.87437 3.87474C9.5954 4.15372 9.3745 4.48522 9.22444 4.8501C9.07438 5.21497 8.99814 5.60597 9.00012 6.0005V11.2036C9.00012 12.8536 10.3595 14.2505 12.0001 14.2505C13.6408 14.2505 15.0001 12.8911 15.0001 11.2036V6.0005C15.0001 4.313 13.6876 3.0005 12.0001 3.0005Z" stroke="#666666" stroke-width="1.5" stroke-linecap="round" stroke-linejoin="round"/>
</svg>
