<svg width="24" height="24" viewBox="0 0 24 24" fill="none" xmlns="http://www.w3.org/2000/svg">
<path d="M21.0001 11.9995C21.0001 7.03079 16.9688 2.99954 12.0001 2.99954C7.03131 2.99954 3.00006 7.03079 3.00006 11.9995C3.00006 16.9683 7.03131 20.9995 12.0001 20.9995C16.9688 20.9995 21.0001 16.9683 21.0001 11.9995Z" stroke="#666666" stroke-width="1.5" stroke-miterlimit="10"/>
<path d="M12.0001 14.999V17.249M10.5001 17.249H13.5001H10.5001ZM15.7501 10.5131V11.6343C15.7501 13.4822 13.8479 14.985 12.0001 14.985C10.1523 14.985 8.25012 13.4822 8.25012 11.6343V10.5131H15.7501Z" stroke="#666666" stroke-width="1.5" stroke-linecap="round" stroke-linejoin="round"/>
<path d="M14.25 8.24686C14.25 7.00422 13.2427 5.99686 12 5.99686C10.7574 5.99686 9.75004 7.00422 9.75004 8.24686V11.2469C9.75004 12.4895 10.7574 13.4969 12 13.4969C13.2427 13.4969 14.25 12.4895 14.25 11.2469V8.24686Z" fill="#666666"/>
</svg>
