<svg width="24" height="24" viewBox="0 0 24 24" fill="none" xmlns="http://www.w3.org/2000/svg">
<path d="M20.2501 18.7505L4.50008 3.00046" stroke="#666666" stroke-width="1.5" stroke-miterlimit="10" stroke-linecap="square"/>
<path d="M17.25 8.9978V11.2478C17.2501 11.6494 17.204 12.0497 17.1126 12.4408L18.3117 13.6384C18.6022 12.8749 18.7507 12.0647 18.75 11.2478V8.9978H17.25ZM12.75 20.2478V17.9561C13.6873 17.8518 14.5922 17.551 15.4054 17.0734L14.2968 15.9658C13.4965 16.3533 12.611 16.5315 11.723 16.4836C10.8351 16.4357 9.97382 16.1634 9.21982 15.692C8.46581 15.2206 7.84372 14.5657 7.41177 13.7884C6.97981 13.0112 6.7521 12.137 6.74996 11.2478V8.9978H5.24996V11.2478C5.24996 14.7165 7.87965 17.5815 11.25 17.9561V20.2478H8.24996V21.7478H15.75V20.2478H12.75ZM15.75 11.0776V5.9978C15.75 3.89498 14.1028 2.2478 12 2.2478C11.3467 2.24545 10.7042 2.41451 10.1366 2.73809C9.56908 3.06167 9.09634 3.52846 8.76559 4.09186" fill="#666666"/>
<path d="M8.25008 9.91904V11.202C8.25075 12.2012 8.64578 13.1597 9.3493 13.8692C9.82915 14.368 10.4399 14.7215 11.1115 14.889C11.783 15.0566 12.4882 15.0315 13.1462 14.8165L8.25008 9.91904Z" fill="#666666"/>
</svg>
