<svg width="24" height="24" viewBox="0 0 24 24" fill="none" xmlns="http://www.w3.org/2000/svg">
<path d="M12.0001 21.7469C6.62398 21.7469 2.25008 17.373 2.25008 11.9969C2.25008 6.62076 6.62398 2.24686 12.0001 2.24686C17.3762 2.24686 21.7501 6.62076 21.7501 11.9969C21.7501 17.373 17.3762 21.7469 12.0001 21.7469ZM12.0001 3.74686C7.4532 3.74686 3.75008 7.44998 3.75008 11.9969C3.75008 16.5437 7.4532 20.2469 12.0001 20.2469C16.547 20.2469 20.2501 16.5461 20.2501 11.9969C20.2501 7.44764 16.5493 3.74686 12.0001 3.74686Z" fill="#666666"/>
<path d="M16.5 17.2934C16.3954 17.2936 16.292 17.2718 16.1964 17.2295C16.1008 17.1872 16.0151 17.1253 15.945 17.0478L6.94498 7.20402C6.81401 7.05639 6.74651 6.86308 6.75711 6.66601C6.76771 6.46894 6.85556 6.28399 7.00162 6.15126C7.14767 6.01853 7.34015 5.94871 7.53734 5.95695C7.73452 5.96519 7.92051 6.05082 8.05498 6.19527L17.055 16.039C17.1527 16.1465 17.2171 16.2801 17.2403 16.4235C17.2635 16.5669 17.2446 16.714 17.1858 16.8469C17.127 16.9797 17.0309 17.0926 16.9092 17.1719C16.7874 17.2512 16.6453 17.2934 16.5 17.2934ZM16.5 11.6318V10.5162C16.5018 10.3339 16.4383 10.157 16.321 10.0174C16.2038 9.87778 16.0405 9.7847 15.8606 9.75496C15.3975 9.68558 15 10.0601 15 10.5106V11.6318C14.9993 11.8873 14.9505 12.1403 14.8561 12.3776C14.8432 12.4102 14.8397 12.4457 14.846 12.4802C14.8523 12.5147 14.8681 12.5467 14.8917 12.5726L15.7912 13.5617C15.801 13.5725 15.8132 13.5809 15.8268 13.5862C15.8404 13.5914 15.855 13.5935 15.8695 13.5921C15.884 13.5907 15.898 13.586 15.9104 13.5783C15.9228 13.5706 15.9332 13.5601 15.9408 13.5476C16.3032 12.9741 16.497 12.3102 16.5 11.6318ZM14.25 11.2465V8.24652C14.2483 7.65032 14.0106 7.07902 13.5891 6.65744C13.1675 6.23586 12.5962 5.99825 12 5.99652C11.6137 5.99717 11.2341 6.09711 10.8975 6.28672C10.561 6.47634 10.2788 6.74927 10.0781 7.07933C10.0571 7.11398 10.048 7.15449 10.0519 7.19479C10.0559 7.2351 10.0728 7.27304 10.1001 7.30293L14.0573 11.6557C14.0691 11.6689 14.0843 11.6784 14.1013 11.6832C14.1182 11.6881 14.1362 11.6881 14.1531 11.6832C14.1701 11.6783 14.1853 11.6687 14.197 11.6556C14.2088 11.6424 14.2166 11.6262 14.2195 11.6089C14.2395 11.4891 14.2497 11.3679 14.25 11.2465ZM11.558 13.3653L9.84889 11.4851C9.84222 11.4776 9.8333 11.4724 9.82344 11.4703C9.81359 11.4682 9.80332 11.4693 9.79417 11.4736C9.78502 11.4778 9.77746 11.4848 9.77263 11.4936C9.76779 11.5025 9.76593 11.5126 9.76733 11.5226C9.82581 11.9835 10.0248 12.4152 10.3372 12.759C10.6496 13.1029 11.0603 13.3422 11.5134 13.4445C11.5235 13.4472 11.5342 13.4465 11.5438 13.4425C11.5534 13.4384 11.5614 13.4313 11.5665 13.4222C11.5716 13.4131 11.5736 13.4026 11.572 13.3923C11.5705 13.382 11.5655 13.3725 11.558 13.3653Z" fill="#666666"/>
<path d="M13.4789 16.4972H12.75V15.6656C12.9487 15.6305 13.1449 15.5826 13.3374 15.5222C13.3525 15.5176 13.3662 15.5092 13.3772 15.4978C13.3882 15.4865 13.3961 15.4725 13.4003 15.4573C13.4044 15.442 13.4047 15.426 13.401 15.4106C13.3973 15.3952 13.3897 15.3811 13.3791 15.3694L12.3914 14.2824C12.3722 14.261 12.3482 14.2444 12.3215 14.2339C12.2947 14.2234 12.2658 14.2193 12.2372 14.2219C12.158 14.2289 12.0783 14.2331 12 14.2331C10.3125 14.2331 9.00001 12.8353 9.00001 11.6325V10.5159C9.00188 10.3178 8.92653 10.1268 8.78994 9.98329C8.65335 9.83979 8.46625 9.75511 8.2683 9.7472C8.16812 9.74417 8.06837 9.76137 7.975 9.79775C7.88162 9.83414 7.79653 9.88898 7.72482 9.95898C7.65311 10.029 7.59624 10.1127 7.55762 10.2052C7.51899 10.2977 7.4994 10.397 7.50001 10.4972V11.6325C7.50001 12.7275 8.01283 13.7705 8.9433 14.5697C9.60079 15.1341 10.3972 15.5124 11.25 15.6656V16.4972H10.5211C10.1175 16.4972 9.77111 16.8075 9.75095 17.2111C9.74607 17.3125 9.76182 17.4139 9.79726 17.509C9.8327 17.6041 9.88708 17.6911 9.95712 17.7646C10.0272 17.8381 10.1114 17.8966 10.2047 17.9366C10.298 17.9766 10.3985 17.9972 10.5 17.9972H13.5C13.6016 17.9973 13.7022 17.9768 13.7956 17.9369C13.889 17.8969 13.9734 17.8384 14.0435 17.7649C14.1137 17.6914 14.1681 17.6044 14.2036 17.5092C14.2391 17.414 14.2549 17.3126 14.25 17.2111C14.2303 16.8075 13.8825 16.4972 13.4789 16.4972Z" fill="#666666"/>
</svg>
