<svg width="24" height="24" viewBox="0 0 24 24" fill="none" xmlns="http://www.w3.org/2000/svg">
<path d="M12 2.24686C6.62392 2.24686 2.25002 6.62076 2.25002 11.9969C2.25002 17.373 6.62392 21.7469 12 21.7469C17.3761 21.7469 21.75 17.373 21.75 11.9969C21.75 6.62076 17.3761 2.24686 12 2.24686ZM9.75002 8.24686C9.75175 7.65065 9.98936 7.07936 10.4109 6.65778C10.8325 6.2362 11.4038 5.99859 12 5.99686C12.5962 5.99859 13.1675 6.2362 13.5891 6.65778C14.0107 7.07936 14.2483 7.65065 14.25 8.24686V11.2469C14.2483 11.8431 14.0107 12.4144 13.5891 12.8359C13.1675 13.2575 12.5962 13.4951 12 13.4969C11.4038 13.4951 10.8325 13.2575 10.4109 12.8359C9.98936 12.4144 9.75175 11.8431 9.75002 11.2469V8.24686ZM16.5 11.6322C16.5 12.7272 15.9872 13.7701 15.0567 14.5694C14.3992 15.1337 13.6029 15.5121 12.75 15.6653V16.4969H13.5C13.6989 16.4969 13.8897 16.5759 14.0303 16.7165C14.171 16.8572 14.25 17.0479 14.25 17.2469C14.25 17.4458 14.171 17.6365 14.0303 17.7772C13.8897 17.9178 13.6989 17.9969 13.5 17.9969H10.5C10.3011 17.9969 10.1103 17.9178 9.96969 17.7772C9.82903 17.6365 9.75002 17.4458 9.75002 17.2469C9.75002 17.0479 9.82903 16.8572 9.96969 16.7165C10.1103 16.5759 10.3011 16.4969 10.5 16.4969H11.25V15.6653C10.3972 15.5121 9.60079 15.1337 8.9433 14.5694C8.01283 13.7701 7.50002 12.7272 7.50002 11.6322V10.5109C7.50002 10.312 7.57903 10.1212 7.71969 9.98059C7.86034 9.83994 8.0511 9.76092 8.25002 9.76092C8.44893 9.76092 8.63969 9.83994 8.78035 9.98059C8.921 10.1212 9.00002 10.312 9.00002 10.5109V11.6322C9.00002 12.835 10.3125 14.2328 12 14.2328C13.3875 14.2328 15 13.097 15 11.6322V10.5109C15 10.312 15.079 10.1212 15.2197 9.98059C15.3603 9.83994 15.5511 9.76092 15.75 9.76092C15.9489 9.76092 16.1397 9.83994 16.2803 9.98059C16.421 10.1212 16.5 10.312 16.5 10.5109V11.6322Z" fill="#666666"/>
</svg>
