<svg width="24" height="24" viewBox="0 0 24 24" fill="none" xmlns="http://www.w3.org/2000/svg">
<path d="M12 17.2478V20.9978M8.99996 20.9978H15H8.99996ZM18 9.74777V11.2478C18 14.5478 15.3 17.2478 12 17.2478C8.69996 17.2478 5.99996 14.5478 5.99996 11.2478V9.74777H18Z" stroke="#666666" stroke-width="1.5" stroke-linecap="round" stroke-linejoin="round"/>
<path d="M12.0001 14.9978C11.5051 14.9966 11.0154 14.896 10.56 14.702C10.1047 14.5079 9.69294 14.2244 9.34929 13.8681C8.64578 13.1586 8.25075 12.2001 8.25007 11.2009V5.9978C8.24815 5.50481 8.34383 5.01631 8.53161 4.56047C8.71938 4.10463 8.99553 3.69047 9.34414 3.34187C9.69274 2.99326 10.1069 2.71711 10.5627 2.52934C11.0186 2.34156 11.5071 2.24588 12.0001 2.2478C14.1029 2.2478 15.7501 3.89499 15.7501 5.9978V11.2009C15.7501 13.2944 14.0677 14.9978 12.0001 14.9978Z" fill="#666666"/>
</svg>
