<svg width="24" height="24" viewBox="0 0 24 24" fill="none" xmlns="http://www.w3.org/2000/svg">
<path d="M12.3749 22.5006C9.49069 22.5006 6.72459 21.3548 4.68513 19.3154C2.64567 17.2759 1.49992 14.5098 1.49992 11.6256C1.49992 7.21933 4.03117 3.2687 7.95039 1.56292C8.08851 1.50272 8.24157 1.48552 8.38961 1.51356C8.53766 1.5416 8.67382 1.61358 8.78036 1.72013C8.88691 1.82667 8.95889 1.96284 8.98693 2.11088C9.01497 2.25892 8.99777 2.41198 8.93757 2.55011C8.48757 3.58323 8.24992 4.90651 8.24992 6.37558C8.24992 11.545 12.4555 15.7506 17.6249 15.7506C19.094 15.7506 20.4173 15.5129 21.4504 15.0629C21.5885 15.0027 21.7416 14.9855 21.8896 15.0136C22.0377 15.0416 22.1738 15.1136 22.2804 15.2201C22.3869 15.3267 22.4589 15.4628 22.4869 15.6109C22.515 15.7589 22.4978 15.912 22.4376 16.0501C20.7318 19.9693 16.7812 22.5006 12.3749 22.5006Z" fill="#666666"/>
</svg>
