<svg width="24" height="24" viewBox="0 0 24 24" fill="none" xmlns="http://www.w3.org/2000/svg">
<path d="M9.00007 10.2178V9.93652C9.00007 9.2409 9.46882 8.6709 10.1363 8.50261L18.3202 6.31449C18.4589 6.27737 18.6043 6.27261 18.7451 6.30057C18.8859 6.32852 19.0185 6.38845 19.1325 6.47573C19.2465 6.56301 19.3389 6.67531 19.4026 6.80396C19.4664 6.93262 19.4997 7.07419 19.5001 7.21777V8.24902" stroke="#666666" stroke-width="1.5" stroke-linecap="round" stroke-linejoin="round"/>
<path d="M19.4999 13.8732V17.6232C19.4999 18.2752 19.0813 18.8227 18.4687 19.0295L17.4374 19.4045C16.2233 19.8132 14.9999 18.916 14.9999 17.6232C14.9971 17.2911 15.1001 16.9667 15.2939 16.6971C15.4877 16.4274 15.7624 16.2264 16.078 16.1232L18.4687 15.2724C19.0813 15.0662 19.4999 14.5252 19.4999 13.8732ZM19.4999 13.8732V2.71977C19.4996 2.648 19.4828 2.57727 19.4508 2.51302C19.4188 2.44877 19.3725 2.39273 19.3154 2.34921C19.2584 2.30569 19.1921 2.27585 19.1217 2.26199C19.0512 2.24814 18.9786 2.25064 18.9093 2.2693L9.5624 4.78227C9.39938 4.82831 9.25601 4.92666 9.15437 5.06218C9.05273 5.1977 8.99846 5.36287 8.9999 5.53227V16.126C8.9999 16.7781 8.58131 17.326 7.96865 17.5323L5.53115 18.376C4.88053 18.5954 4.4999 19.1832 4.4999 19.876C4.4999 21.1688 5.74303 22.0581 6.9374 21.6573L7.96865 21.2823C8.58131 21.076 8.9999 20.5285 8.9999 19.876V16.126" stroke="#666666" stroke-width="1.5" stroke-linecap="round" stroke-linejoin="round"/>
</svg>
