<svg width="24" height="24" viewBox="0 0 24 24" fill="none" xmlns="http://www.w3.org/2000/svg">
<path d="M8.61708 22.5002C8.07198 22.4992 7.54111 22.3261 7.1002 22.0056C6.75987 21.7598 6.48271 21.4367 6.29147 21.0629C6.10022 20.6891 6.00035 20.2753 6.00004 19.8555C5.99881 19.3619 6.15262 18.8804 6.43976 18.479C6.7269 18.0776 7.13287 17.7764 7.60036 17.6181L9.98442 16.8156C10.1357 16.764 10.2669 16.6661 10.3594 16.5358C10.4519 16.4055 10.5011 16.2494 10.5 16.0895V4.31267C10.4994 3.97843 10.61 3.65349 10.8145 3.38909C11.0189 3.1247 11.3056 2.93591 11.6293 2.85251L16.71 1.53345C16.8625 1.49394 17.0219 1.48986 17.1761 1.52151C17.3303 1.55316 17.4753 1.61971 17.5998 1.71605C17.7243 1.81239 17.8252 1.93596 17.8945 2.07729C17.9639 2.21863 18 2.37397 18 2.53142V5.23845C18.0009 5.57371 17.8898 5.89966 17.6843 6.16454C17.4788 6.42942 17.1906 6.61805 16.8657 6.70048L12.5696 7.7847C12.4055 7.82739 12.2604 7.9236 12.1573 8.0581C12.0541 8.19261 11.9988 8.35769 12 8.5272V19.8752C12.0013 20.349 11.8536 20.8112 11.5779 21.1965C11.3022 21.5819 10.9124 21.8708 10.4635 22.0225L9.45708 22.3614C9.18649 22.4531 8.90276 22.4999 8.61708 22.5002Z" fill="#666666"/>
</svg>
