<svg width="24" height="24" viewBox="0 0 24 24" fill="none" xmlns="http://www.w3.org/2000/svg">
<path d="M20.131 1.50394C19.0248 1.81003 10.4959 4.26066 8.38695 4.85222C8.34773 4.86322 8.31316 4.88669 8.28847 4.91908C8.26377 4.95147 8.2503 4.99102 8.25008 5.03175V16.6099C8.25013 16.6293 8.24416 16.6482 8.233 16.6641C8.22183 16.68 8.20602 16.692 8.18773 16.6985L6.88226 17.1461C5.99164 17.4949 3.75008 17.928 3.75008 19.9207C3.75008 21.5866 4.90461 22.3366 5.89976 22.465C6.02068 22.4867 6.14306 22.4993 6.26586 22.5025C6.61133 22.5025 7.97117 22.1707 8.7643 21.655C9.75008 21.0124 9.75008 21.0007 9.75008 19.3132V9.46941C9.75008 9.42722 9.77914 9.43004 9.81945 9.41925L18.632 6.9855C18.6461 6.98159 18.6611 6.98108 18.6755 6.984C18.6899 6.98693 18.7035 6.99321 18.715 7.00234C18.7265 7.01147 18.7358 7.02319 18.742 7.03655C18.7481 7.04991 18.7511 7.06454 18.7505 7.07925V14.3702C18.7505 14.3898 18.7443 14.4088 18.7329 14.4247C18.7215 14.4406 18.7053 14.4525 18.6868 14.4588C18.2696 14.5994 17.7854 14.7635 17.4455 14.8863C16.0027 15.4075 14.2501 15.7343 14.2501 17.6257C14.2501 19.4308 15.5748 20.1841 16.4204 20.2427C16.7543 20.268 17.0901 20.2523 17.4202 20.1958C17.8421 20.1311 18.5495 19.9193 19.208 19.4993C20.2501 18.8346 20.2501 18.8214 20.2501 16.8757V1.59441C20.2501 1.57992 20.2468 1.56562 20.2404 1.55263C20.2339 1.53965 20.2246 1.52833 20.2131 1.51956C20.2015 1.5108 20.1881 1.50482 20.1739 1.50211C20.1596 1.4994 20.145 1.50003 20.131 1.50394Z" fill="#666666"/>
</svg>
