<svg width="24" height="24" viewBox="0 0 24 24" fill="none" xmlns="http://www.w3.org/2000/svg">
<path d="M19.7737 1.7524C19.6253 1.63805 19.4524 1.55967 19.2686 1.52339C19.0848 1.48712 18.8951 1.49395 18.7143 1.54334L9.37119 4.0549C9.04701 4.14197 8.76095 4.33431 8.55799 4.60167C8.35502 4.86904 8.24666 5.19627 8.24994 5.53193V16.1257C8.24994 16.4416 8.04557 16.7144 7.72916 16.8208L7.72354 16.8232L5.28604 17.6669C4.35369 17.9787 3.74994 18.8444 3.74994 19.8715C3.74653 20.2892 3.84368 20.7016 4.03321 21.0739C4.22273 21.4462 4.49906 21.7674 4.83885 22.0104C5.27641 22.3282 5.80317 22.4998 6.34401 22.5007C6.62695 22.5002 6.90794 22.4538 7.17604 22.3633L7.19385 22.3572L8.2176 21.9851C8.66169 21.8368 9.04824 21.5533 9.32304 21.1742C9.59785 20.7952 9.74713 20.3396 9.74994 19.8715V9.93396C9.74994 9.59225 9.97354 9.31474 10.3199 9.22756L10.3298 9.22475L18.5156 7.0385C18.5432 7.03135 18.5722 7.03063 18.6001 7.03637C18.6281 7.04211 18.6544 7.05417 18.677 7.07162C18.6996 7.08908 18.718 7.11147 18.7306 7.13709C18.7432 7.1627 18.7499 7.19087 18.7499 7.21943V13.8724C18.7499 14.1888 18.5507 14.4527 18.2292 14.5605L18.2174 14.5647L15.832 15.4137C15.3681 15.5662 14.9647 15.8624 14.6803 16.2594C14.3959 16.6564 14.2452 17.1336 14.2499 17.6219C14.2458 18.0409 14.3425 18.4547 14.5321 18.8284C14.7216 19.2021 14.9983 19.5247 15.3389 19.7688C15.6722 20.0098 16.0588 20.167 16.4658 20.2269C16.8728 20.2869 17.2882 20.2479 17.677 20.1133L17.6939 20.1077L18.7176 19.7351C19.1617 19.5869 19.5482 19.3034 19.823 18.9245C20.0978 18.5455 20.2471 18.09 20.2499 17.6219V2.71943C20.251 2.53236 20.2085 2.3476 20.1258 2.17977C20.0432 2.01194 19.9226 1.86563 19.7737 1.7524Z" fill="#666666"/>
</svg>
