<svg width="24" height="24" viewBox="0 0 24 24" fill="none" xmlns="http://www.w3.org/2000/svg">
<path d="M17.8851 1.50265C17.0353 1.70328 11.9522 2.95906 10.5726 3.29281C10.552 3.29756 10.5337 3.30913 10.5205 3.32563C10.5073 3.34214 10.5001 3.36262 10.5 3.38374V16.5612C10.5 16.5805 10.494 16.5993 10.483 16.6151C10.4719 16.6308 10.4562 16.6428 10.4381 16.6494L8.53122 17.3384C7.13341 17.8381 5.99997 18.2262 5.99997 20.1069C5.99997 21.6289 7.10294 22.3184 7.77888 22.4506C8.0112 22.4891 8.24657 22.506 8.48201 22.5012C8.89872 22.5012 9.93513 22.333 10.7095 21.8337C12 21.0003 12 21.0003 12 19.497V7.92968C11.9999 7.90893 12.0067 7.88875 12.0194 7.87229C12.032 7.85583 12.0498 7.84404 12.0698 7.83875L17.9292 6.29187C17.9493 6.28658 17.967 6.27478 17.9796 6.25832C17.9923 6.24187 17.9991 6.22168 17.999 6.20093V1.59406C17.999 1.58005 17.9959 1.56622 17.9898 1.55359C17.9837 1.54096 17.9749 1.52986 17.964 1.52109C17.953 1.51232 17.9403 1.50611 17.9266 1.50292C17.913 1.49973 17.8988 1.49964 17.8851 1.50265Z" fill="#666666"/>
</svg>
