<svg width="24" height="24" viewBox="0 0 24 24" fill="none" xmlns="http://www.w3.org/2000/svg">
<path d="M11.2499 16.091V19.8733C11.2508 20.19 11.1524 20.499 10.9684 20.7568C10.7844 21.0145 10.5241 21.208 10.2243 21.3101L9.21791 21.649C8.00385 22.0572 6.74995 21.1451 6.74995 19.8527C6.74901 19.5163 6.85367 19.188 7.0492 18.9142C7.24472 18.6403 7.52124 18.4348 7.83979 18.3265L10.2243 17.524C10.524 17.4219 10.7841 17.2284 10.9681 16.9708C11.1521 16.7131 11.2507 16.4043 11.2499 16.0877V4.31083C11.2494 4.14311 11.3047 3.97996 11.407 3.84707C11.5093 3.71418 11.653 3.61909 11.8153 3.57677L16.8979 2.25771C16.9395 2.2469 16.9829 2.24576 17.025 2.25435C17.0671 2.26295 17.1066 2.28107 17.1406 2.30731C17.1746 2.33356 17.2021 2.36723 17.2211 2.40576C17.24 2.44429 17.2499 2.48665 17.2499 2.52958V5.23709C17.2504 5.40527 17.1948 5.56881 17.0919 5.70184C16.989 5.83488 16.8447 5.92981 16.6818 5.97162L12.3862 7.05584C12.0603 7.1394 11.7715 7.32931 11.5657 7.59549C11.3599 7.86167 11.2488 8.1889 11.2499 8.52537V10.3718" stroke="#666666" stroke-width="1.5" stroke-linecap="round" stroke-linejoin="round"/>
</svg>
