<svg width="24" height="24" viewBox="0 0 24 24" fill="none" xmlns="http://www.w3.org/2000/svg">
<path d="M12.75 21.7493C12.6498 21.7493 12.5506 21.7293 12.4583 21.6904C12.366 21.6515 12.2825 21.5945 12.2125 21.5227C12.1426 21.451 12.0878 21.366 12.0513 21.2727C12.0148 21.1794 11.9973 21.0798 12 20.9796V12.3804C12 12.2809 11.9605 12.1856 11.8901 12.1152C11.8198 12.0449 11.7244 12.0054 11.625 12.0054H3.01918C2.86143 12.0073 2.70697 11.9603 2.57698 11.8709C2.44698 11.7815 2.34782 11.6541 2.29308 11.5062C2.23075 11.3297 2.23663 11.1364 2.30957 10.964C2.38251 10.7917 2.51724 10.6529 2.6873 10.5748L20.6873 2.31774C20.8264 2.25402 20.9816 2.23435 21.1322 2.26136C21.2827 2.28837 21.4214 2.36078 21.5297 2.46887C21.6379 2.57696 21.7105 2.71556 21.7377 2.86609C21.765 3.01661 21.7455 3.17186 21.682 3.31102L13.432 21.311C13.3723 21.4417 13.2762 21.5526 13.1553 21.6303C13.0344 21.708 12.8937 21.7493 12.75 21.7493Z" fill="#666666"/>
</svg>
