<svg width="24" height="24" viewBox="0 0 24 24" fill="none" xmlns="http://www.w3.org/2000/svg">
<path d="M12.1359 2.25048C6.65249 2.17642 2.17593 6.65298 2.24999 12.1364C2.32312 17.3953 6.60515 21.6774 11.8641 21.7505C17.3484 21.8255 21.8241 17.3489 21.7491 11.8655C21.6769 6.60564 17.3948 2.3236 12.1359 2.25048ZM16.4531 8.21486L12.5981 16.958C12.3736 17.4488 11.6241 17.2861 11.6241 16.7442V12.563C11.6241 12.5133 11.6043 12.4656 11.5691 12.4304C11.534 12.3952 11.4863 12.3755 11.4366 12.3755H7.25624C6.71624 12.3755 6.55312 11.6316 7.04202 11.4066L15.7856 7.54735C15.879 7.50421 15.9834 7.49076 16.0847 7.50882C16.186 7.52688 16.2794 7.57557 16.3521 7.64833C16.4249 7.72109 16.4736 7.81442 16.4917 7.91573C16.5097 8.01703 16.4963 8.12144 16.4531 8.21486Z" fill="#666666"/>
</svg>
