<svg width="24" height="24" viewBox="0 0 24 24" fill="none" xmlns="http://www.w3.org/2000/svg">
<path d="M15.7856 7.54683L7.042 11.407C6.55122 11.632 6.71622 12.3759 7.25622 12.3759H11.4375C11.4872 12.3759 11.5349 12.3956 11.57 12.4308C11.6052 12.466 11.625 12.5137 11.625 12.5634V16.7437C11.625 17.2837 12.375 17.4468 12.599 16.9575L16.4531 8.21433C16.4962 8.12091 16.5097 8.0165 16.4916 7.9152C16.4736 7.81389 16.4249 7.72057 16.3521 7.64781C16.2794 7.57504 16.186 7.52635 16.0847 7.50829C15.9834 7.49024 15.879 7.50369 15.7856 7.54683Z" fill="#666666"/>
<path d="M21 11.9978C21 7.02902 16.9687 2.99777 12 2.99777C7.03122 2.99777 2.99997 7.02902 2.99997 11.9978C2.99997 16.9665 7.03122 20.9978 12 20.9978C16.9687 20.9978 21 16.9665 21 11.9978Z" stroke="#666666" stroke-width="1.5" stroke-miterlimit="10"/>
</svg>
