<svg width="24" height="24" viewBox="0 0 24 24" fill="none" xmlns="http://www.w3.org/2000/svg">
<path d="M20.6209 5.24686H19.5043C19.5032 5.24686 19.5021 5.2473 19.5013 5.24809C19.5006 5.24888 19.5001 5.24996 19.5001 5.25108V19.4969C19.5001 19.8947 19.6581 20.2762 19.9394 20.5575C20.2208 20.8388 20.6023 20.9969 21.0001 20.9969C21.3979 20.9969 21.7795 20.8388 22.0608 20.5575C22.3421 20.2762 22.5001 19.8947 22.5001 19.4969V7.12608C22.5001 6.62768 22.3021 6.14969 21.9497 5.79727C21.5973 5.44485 21.1193 5.24686 20.6209 5.24686Z" fill="#666666"/>
<path d="M18 19.4969V3.37186C18 3.12563 17.9515 2.88181 17.8573 2.65433C17.763 2.42684 17.6249 2.22014 17.4508 2.04603C17.2767 1.87192 17.07 1.73381 16.8425 1.63958C16.615 1.54536 16.3712 1.49686 16.125 1.49686H3.37499C2.87771 1.49686 2.4008 1.6944 2.04917 2.04603C1.69754 2.39766 1.49999 2.87458 1.49999 3.37186V19.8719C1.49999 20.5681 1.77655 21.2357 2.26884 21.728C2.76112 22.2203 3.4288 22.4969 4.12499 22.4969H20.1961C20.2032 22.4969 20.2102 22.4956 20.2168 22.4929C20.2234 22.4902 20.2293 22.4862 20.2343 22.4812C20.2394 22.4762 20.2433 22.4702 20.246 22.4637C20.2487 22.4571 20.2501 22.45 20.25 22.443C20.25 22.4312 20.246 22.4197 20.2388 22.4104C20.2316 22.4011 20.2215 22.3944 20.2101 22.3914C19.5757 22.2174 19.0159 21.8399 18.6167 21.3171C18.2174 20.7942 18.0008 20.1547 18 19.4969ZM4.49999 5.99686C4.49999 5.79794 4.57901 5.60718 4.71966 5.46653C4.86031 5.32587 5.05108 5.24686 5.24999 5.24686H8.24999C8.4489 5.24686 8.63967 5.32587 8.78032 5.46653C8.92097 5.60718 8.99999 5.79794 8.99999 5.99686V8.99686C8.99999 9.19577 8.92097 9.38654 8.78032 9.52719C8.63967 9.66784 8.4489 9.74686 8.24999 9.74686H5.24999C5.05108 9.74686 4.86031 9.66784 4.71966 9.52719C4.57901 9.38654 4.49999 9.19577 4.49999 8.99686V5.99686ZM14.25 18.7469H5.27109C4.86749 18.7469 4.52109 18.4365 4.50093 18.033C4.49604 17.9315 4.5118 17.8302 4.54724 17.7351C4.58267 17.6399 4.63706 17.553 4.7071 17.4795C4.77713 17.406 4.86136 17.3475 4.95468 17.3075C5.048 17.2675 5.14847 17.2469 5.24999 17.2469H14.2289C14.6325 17.2469 14.9789 17.5572 14.9991 17.9608C15.0039 18.0622 14.9882 18.1635 14.9527 18.2587C14.9173 18.3538 14.8629 18.4407 14.7929 18.5142C14.7229 18.5877 14.6386 18.6463 14.5453 18.6862C14.452 18.7262 14.3515 18.7468 14.25 18.7469ZM14.25 15.7469H5.27109C4.86749 15.7469 4.52109 15.4365 4.50093 15.033C4.49604 14.9315 4.5118 14.8302 4.54724 14.7351C4.58267 14.6399 4.63706 14.553 4.7071 14.4795C4.77713 14.406 4.86136 14.3475 4.95468 14.3075C5.048 14.2675 5.14847 14.2469 5.24999 14.2469H14.2289C14.6325 14.2469 14.9789 14.5572 14.9991 14.9608C15.0039 15.0622 14.9882 15.1635 14.9527 15.2587C14.9173 15.3538 14.8629 15.4407 14.7929 15.5142C14.7229 15.5877 14.6386 15.6463 14.5453 15.6862C14.452 15.7262 14.3515 15.7468 14.25 15.7469ZM14.25 12.7469H5.27109C4.86749 12.7469 4.52109 12.4365 4.50093 12.033C4.49604 11.9315 4.5118 11.8302 4.54724 11.7351C4.58267 11.6399 4.63706 11.553 4.7071 11.4795C4.77713 11.406 4.86136 11.3475 4.95468 11.3075C5.048 11.2675 5.14847 11.2469 5.24999 11.2469H14.2289C14.6325 11.2469 14.9789 11.5572 14.9991 11.9608C15.0039 12.0622 14.9882 12.1635 14.9527 12.2587C14.9173 12.3538 14.8629 12.4407 14.7929 12.5142C14.7229 12.5877 14.6386 12.6463 14.5453 12.6862C14.452 12.7262 14.3515 12.7468 14.25 12.7469ZM14.25 9.74686H11.2711C10.8675 9.74686 10.5211 9.43654 10.5009 9.03295C10.496 8.93154 10.5118 8.8302 10.5472 8.73506C10.5827 8.63992 10.6371 8.55297 10.7071 8.47947C10.7771 8.40597 10.8614 8.34746 10.9547 8.30747C11.048 8.26749 11.1485 8.24687 11.25 8.24686H14.2289C14.6325 8.24686 14.9789 8.55717 14.9991 8.96076C15.0039 9.06217 14.9882 9.16351 14.9527 9.25865C14.9173 9.35379 14.8629 9.44074 14.7929 9.51424C14.7229 9.58774 14.6386 9.64626 14.5453 9.68624C14.452 9.72623 14.3515 9.74685 14.25 9.74686ZM14.25 6.74686H11.2711C10.8675 6.74686 10.5211 6.43654 10.5009 6.03295C10.496 5.93154 10.5118 5.8302 10.5472 5.73506C10.5827 5.63992 10.6371 5.55297 10.7071 5.47947C10.7771 5.40597 10.8614 5.34746 10.9547 5.30747C11.048 5.26749 11.1485 5.24687 11.25 5.24686H14.2289C14.6325 5.24686 14.9789 5.55717 14.9991 5.96076C15.0039 6.06217 14.9882 6.16351 14.9527 6.25865C14.9173 6.35379 14.8629 6.44074 14.7929 6.51424C14.7229 6.58774 14.6386 6.64626 14.5453 6.68624C14.452 6.72623 14.3515 6.74685 14.25 6.74686Z" fill="#666666"/>
</svg>
