<svg width="24" height="24" viewBox="0 0 24 24" fill="none" xmlns="http://www.w3.org/2000/svg">
<path d="M17.25 19.493V3.37457C17.2492 3.07647 17.1304 2.79083 16.9196 2.58003C16.7088 2.36924 16.4231 2.25044 16.125 2.24957H3.37503C3.07693 2.25044 2.79129 2.36924 2.5805 2.58003C2.3697 2.79083 2.2509 3.07647 2.25003 3.37457V19.8746C2.25152 20.3714 2.44954 20.8475 2.80085 21.1988C3.15216 21.5501 3.62821 21.7481 4.12503 21.7496H19.5" stroke="#666666" stroke-width="1.5" stroke-linejoin="round"/>
<path d="M19.5 21.7496C18.9033 21.7496 18.331 21.5125 17.909 21.0906C17.4871 20.6686 17.25 20.0963 17.25 19.4996V5.99957H20.625C20.9234 5.99957 21.2096 6.1181 21.4205 6.32908C21.6315 6.54006 21.75 6.8262 21.75 7.12457V19.4996C21.75 20.0963 21.513 20.6686 21.091 21.0906C20.6691 21.5125 20.0968 21.7496 19.5 21.7496Z" stroke="#666666" stroke-width="1.5" stroke-linejoin="round"/>
<path d="M5.25015 17.9996H14.2501M11.2501 5.99957H14.2501H11.2501ZM11.2501 8.99957H14.2501H11.2501ZM5.25015 11.9996H14.2501H5.25015ZM5.25015 14.9996H14.2501H5.25015Z" stroke="#666666" stroke-width="1.5" stroke-linecap="round" stroke-linejoin="round"/>
<path d="M8.25012 9.74686H5.25012C5.05121 9.74686 4.86044 9.66784 4.71979 9.52719C4.57914 9.38653 4.50012 9.19577 4.50012 8.99686V5.99686C4.50012 5.79794 4.57914 5.60718 4.71979 5.46653C4.86044 5.32587 5.05121 5.24686 5.25012 5.24686H8.25012C8.44903 5.24686 8.6398 5.32587 8.78045 5.46653C8.9211 5.60718 9.00012 5.79794 9.00012 5.99686V8.99686C9.00012 9.19577 8.9211 9.38653 8.78045 9.52719C8.6398 9.66784 8.44903 9.74686 8.25012 9.74686Z" fill="#666666"/>
</svg>
