<svg width="24" height="24" viewBox="0 0 24 24" fill="none" xmlns="http://www.w3.org/2000/svg">
<path d="M21.9375 5.24686H19.5V19.4969C19.5 19.8947 19.6581 20.2762 19.9394 20.5575C20.2207 20.8388 20.6022 20.9969 21 20.9969C21.3979 20.9969 21.7794 20.8388 22.0607 20.5575C22.342 20.2762 22.5 19.8947 22.5 19.4969V5.80936C22.5 5.66017 22.4408 5.5171 22.3353 5.41161C22.2298 5.30612 22.0867 5.24686 21.9375 5.24686Z" fill="#666666"/>
<path d="M20.2101 22.3914C19.5756 22.2174 19.0159 21.8399 18.6166 21.3171C18.2174 20.7942 18.0007 20.1547 17.9999 19.4969V2.05936C17.9999 1.91017 17.9407 1.7671 17.8352 1.66161C17.7297 1.55612 17.5866 1.49686 17.4374 1.49686H2.06243C1.91324 1.49686 1.77017 1.55612 1.66468 1.66161C1.55919 1.7671 1.49993 1.91017 1.49993 2.05936V19.8719C1.49993 20.5681 1.77649 21.2357 2.26877 21.728C2.76106 22.2203 3.42873 22.4969 4.12493 22.4969H20.196C20.2093 22.4974 20.2223 22.4929 20.2325 22.4843C20.2427 22.4758 20.2493 22.4637 20.251 22.4505C20.2528 22.4373 20.2496 22.424 20.242 22.413C20.2344 22.4021 20.2231 22.3944 20.2101 22.3914ZM4.49993 9.74686V5.24686H8.99993V9.74686H4.49993ZM14.9999 18.7469H4.49993V17.2469H14.9999V18.7469ZM14.9999 15.7469H4.49993V14.2469H14.9999V15.7469ZM14.9999 12.7469H4.49993V11.2469H14.9999V12.7469ZM14.9999 9.74686H10.4999V8.24686H14.9999V9.74686ZM14.9999 6.74686H10.4999V5.24686H14.9999V6.74686Z" fill="#666666"/>
</svg>
