<svg width="24" height="24" viewBox="0 0 24 24" fill="none" xmlns="http://www.w3.org/2000/svg">
<path d="M12 2.24597C6.62391 2.24597 2.25001 6.61988 2.25001 11.996C2.25001 17.3721 6.62391 21.746 12 21.746C17.3761 21.746 21.75 17.3721 21.75 11.996C21.75 6.61988 17.3761 2.24597 12 2.24597ZM12 17.996C11.0203 17.996 10.2413 17.5807 10.1367 16.7032C10.134 16.6769 10.1368 16.6504 10.1449 16.6253C10.1531 16.6003 10.1665 16.5772 10.1842 16.5577C10.2019 16.5381 10.2235 16.5225 10.2476 16.5119C10.2718 16.5012 10.2979 16.4958 10.3242 16.496H13.6734C13.7001 16.4958 13.7265 16.5013 13.7508 16.5121C13.7752 16.5229 13.7969 16.5387 13.8147 16.5586C13.8324 16.5785 13.8457 16.6019 13.8537 16.6273C13.8617 16.6527 13.8641 16.6795 13.8609 16.706C13.7414 17.5671 12.9694 17.996 12 17.996ZM16.5938 15.746H7.40626C6.85126 15.746 6.56251 15.0428 6.88173 14.6678C7.6472 13.7613 8.18813 13.3802 8.18813 10.8803C8.18813 8.58957 9.3947 7.77675 10.3913 7.38019C10.4598 7.35161 10.5217 7.30898 10.5728 7.25505C10.6239 7.20112 10.6631 7.13708 10.688 7.06707C10.8609 6.49285 11.3503 5.99597 12 5.99597C12.6497 5.99597 13.1381 6.49285 13.3125 7.06753C13.3375 7.13754 13.3769 7.20155 13.428 7.25547C13.4792 7.30939 13.5411 7.35203 13.6097 7.38066C14.6039 7.77628 15.8128 8.5905 15.8128 10.8808C15.8128 13.3807 16.3533 13.7618 17.1188 14.6683C17.4347 15.0428 17.1455 15.746 16.5938 15.746Z" fill="#666666"/>
</svg>
