<svg width="24" height="24" viewBox="0 0 24 24" fill="none" xmlns="http://www.w3.org/2000/svg">
<path d="M21 21.7478C20.9015 21.7479 20.804 21.7286 20.713 21.6909C20.622 21.6531 20.5394 21.5978 20.4699 21.5279L2.46988 3.52793C2.33517 3.38613 2.26118 3.19732 2.26368 3.00175C2.26618 2.80618 2.34499 2.61932 2.48329 2.48102C2.62159 2.34272 2.80845 2.26392 3.00402 2.26141C3.19959 2.25891 3.3884 2.3329 3.5302 2.46762L21.5302 20.4676C21.635 20.5725 21.7064 20.7061 21.7353 20.8516C21.7642 20.997 21.7494 21.1477 21.6926 21.2847C21.6359 21.4217 21.5398 21.5388 21.4165 21.6213C21.2933 21.7037 21.1483 21.7477 21 21.7478ZM20.6288 15.9967C20.551 15.9029 20.4746 15.8092 20.3996 15.7187C19.3683 14.4714 18.7444 13.7186 18.7444 10.1875C18.7444 8.35934 18.3071 6.85933 17.445 5.73433C16.8094 4.90324 15.9502 4.27277 14.8177 3.80683C14.8031 3.79873 14.7901 3.78809 14.7793 3.77543C14.3719 2.41137 13.2572 1.49777 12 1.49777C10.7429 1.49777 9.62864 2.41137 9.22129 3.77402C9.21042 3.78622 9.19759 3.79652 9.18332 3.80449C8.82861 3.94955 8.48571 4.12195 8.1577 4.32012C8.10922 4.34967 8.06809 4.38985 8.0374 4.43762C8.00671 4.48539 7.98727 4.53951 7.98054 4.59588C7.97382 4.65226 7.97998 4.70943 7.99857 4.76308C8.01716 4.81673 8.04769 4.86545 8.08785 4.90558L20.3588 17.1746C20.414 17.2299 20.4851 17.2665 20.5621 17.2795C20.6391 17.2924 20.7182 17.2809 20.7884 17.2467C20.8586 17.2125 20.9164 17.1572 20.9536 17.0886C20.9909 17.0199 21.0058 16.9414 20.9963 16.8639C20.9601 16.5454 20.8325 16.2442 20.6288 15.9967ZM5.2566 10.1861C5.2566 13.7186 4.63364 14.4714 3.60145 15.7173C3.52645 15.8078 3.45004 15.8996 3.37223 15.9953C3.17123 16.2377 3.04388 16.5326 3.00525 16.8451C2.96662 17.1576 3.01833 17.4747 3.15426 17.7587C3.44348 18.3681 4.05989 18.7464 4.76348 18.7464H14.6625C14.7368 18.7464 14.8093 18.7245 14.871 18.6833C14.9328 18.6421 14.9809 18.5835 15.0093 18.5149C15.0377 18.4464 15.0451 18.3709 15.0306 18.2981C15.0161 18.2253 14.9804 18.1585 14.9279 18.1061L5.92785 9.10605C5.87725 9.05561 5.81328 9.02067 5.74348 9.00536C5.67368 8.99004 5.60096 8.99499 5.53388 9.01962C5.4668 9.04424 5.40816 9.08752 5.36485 9.14436C5.32153 9.20119 5.29536 9.26922 5.28942 9.34043C5.26754 9.61199 5.2566 9.89387 5.2566 10.1861ZM12 22.4978C12.6774 22.4972 13.342 22.3134 13.9233 21.9657C14.5046 21.618 14.981 21.1194 15.3019 20.5229C15.317 20.4943 15.3245 20.4623 15.3236 20.43C15.3227 20.3977 15.3134 20.3661 15.2967 20.3384C15.28 20.3108 15.2565 20.2878 15.2283 20.272C15.2001 20.2561 15.1683 20.2477 15.136 20.2478H8.86504C8.83266 20.2477 8.80081 20.2559 8.77257 20.2718C8.74434 20.2876 8.7207 20.3105 8.70394 20.3382C8.68719 20.3659 8.67789 20.3975 8.67696 20.4299C8.67603 20.4623 8.6835 20.4943 8.69864 20.5229C9.01951 21.1194 9.49582 21.6179 10.077 21.9656C10.6583 22.3132 11.3228 22.4971 12 22.4978Z" fill="#666666"/>
</svg>
