<svg width="24" height="24" viewBox="0 0 24 24" fill="none" xmlns="http://www.w3.org/2000/svg">
<path d="M21 11.9987C21 7.02994 16.9687 2.99869 12 2.99869C7.0312 2.99869 2.99995 7.02994 2.99995 11.9987C2.99995 16.9674 7.0312 20.9987 12 20.9987C16.9687 20.9987 21 16.9674 21 11.9987Z" stroke="#666666" stroke-width="1.5" stroke-miterlimit="10"/>
<path d="M10.3237 16.5005C10.2974 16.5003 10.2712 16.5058 10.2471 16.5164C10.223 16.527 10.2014 16.5426 10.1837 16.5622C10.166 16.5817 10.1526 16.6048 10.1444 16.6299C10.1362 16.6549 10.1335 16.6815 10.1362 16.7077C10.2417 17.5852 11.0208 18.0005 12 18.0005C12.9792 18.0005 13.7578 17.5852 13.8623 16.7077C13.8651 16.6815 13.8623 16.6549 13.8541 16.6299C13.8459 16.6048 13.8326 16.5817 13.8149 16.5622C13.7972 16.5426 13.7756 16.527 13.7514 16.5164C13.7273 16.5058 13.7012 16.5003 13.6748 16.5005H10.3237ZM16.5 17.7192C16.3954 17.7194 16.292 17.6977 16.1964 17.6554C16.1008 17.613 16.0151 17.5511 15.945 17.4736L6.94497 7.53611C6.814 7.38848 6.7465 7.19517 6.7571 6.9981C6.76771 6.80103 6.85556 6.61608 7.00161 6.48335C7.14766 6.35062 7.34015 6.28081 7.53733 6.28905C7.73451 6.29729 7.9205 6.38291 8.05497 6.52736L17.055 16.4649C17.1527 16.5724 17.217 16.706 17.2403 16.8494C17.2635 16.9928 17.2445 17.1398 17.1858 17.2727C17.127 17.4056 17.0309 17.5185 16.9091 17.5977C16.7874 17.677 16.6453 17.7192 16.5 17.7192ZM8.1881 10.8853C8.1881 13.3852 7.64716 13.7663 6.88169 14.6728C6.56435 15.0478 6.85122 15.751 7.40622 15.751H12.9764C13.0128 15.7509 13.0483 15.7404 13.0788 15.7205C13.1092 15.7006 13.1333 15.6723 13.1479 15.639C13.1626 15.6057 13.1672 15.5689 13.1613 15.533C13.1554 15.4971 13.1392 15.4637 13.1147 15.4369L8.52091 10.4274C8.49586 10.4001 8.46332 10.3809 8.42737 10.3721C8.39142 10.3634 8.35368 10.3654 8.3189 10.378C8.28412 10.3907 8.25385 10.4133 8.23191 10.4431C8.20997 10.4729 8.19733 10.5085 8.1956 10.5455C8.19091 10.6547 8.1881 10.7681 8.1881 10.8853ZM17.1187 14.6724C16.3533 13.7658 15.8128 13.3847 15.8128 10.8849C15.8128 8.59455 14.6044 7.78033 13.6097 7.38471C13.5411 7.35608 13.4792 7.31344 13.428 7.25952C13.3768 7.2056 13.3375 7.14159 13.3125 7.07158C13.1386 6.49736 12.6506 6.00049 12 6.00049C11.3494 6.00049 10.8604 6.49736 10.6875 7.07205C10.6626 7.14207 10.6234 7.20611 10.5723 7.26004C10.5212 7.31397 10.4593 7.35659 10.3908 7.38518C10.3308 7.40908 10.2703 7.43439 10.2089 7.46158C10.1818 7.47377 10.158 7.49223 10.1394 7.51543C10.1208 7.53864 10.108 7.56592 10.1021 7.59504C10.0961 7.62416 10.0972 7.65428 10.1052 7.68291C10.1131 7.71154 10.1278 7.73786 10.1479 7.75971L16.9219 15.151C16.9481 15.1795 16.9825 15.1993 17.0203 15.2075C17.0582 15.2157 17.0977 15.2119 17.1334 15.1968C17.169 15.1816 17.1991 15.1558 17.2195 15.1228C17.2399 15.0898 17.2495 15.0514 17.2472 15.0127C17.2432 14.8881 17.198 14.7684 17.1187 14.6724Z" fill="#666666"/>
</svg>
