<svg width="24" height="24" viewBox="0 0 24 24" fill="none" xmlns="http://www.w3.org/2000/svg">
<path d="M12.0001 2.24597C6.62396 2.24597 2.25005 6.61988 2.25005 11.996C2.25005 17.3721 6.62396 21.746 12.0001 21.746C17.3761 21.746 21.7501 17.3721 21.7501 11.996C21.7501 6.61988 17.3761 2.24597 12.0001 2.24597ZM6.88271 14.6678C7.64818 13.7613 8.18865 13.3802 8.18865 10.8803C8.18865 10.7632 8.19177 10.6497 8.19802 10.54C8.19918 10.5024 8.21162 10.4661 8.23371 10.4357C8.25581 10.4052 8.28654 10.3821 8.32192 10.3694C8.3573 10.3567 8.39569 10.3549 8.43211 10.3642C8.46853 10.3736 8.50129 10.3937 8.52615 10.4219L13.1199 15.4314C13.1444 15.4582 13.1606 15.4916 13.1665 15.5274C13.1725 15.5633 13.1679 15.6001 13.1533 15.6333C13.1387 15.6666 13.1147 15.6949 13.0843 15.7148C13.0539 15.7347 13.0184 15.7454 12.9821 15.7455H7.4063C6.85224 15.746 6.56536 15.0428 6.88271 14.6678ZM13.8638 16.7027C13.7593 17.5807 12.9807 17.996 12.0001 17.996C11.0194 17.996 10.2418 17.5807 10.1368 16.7032C10.134 16.6769 10.1368 16.6504 10.145 16.6253C10.1531 16.6003 10.1665 16.5772 10.1842 16.5577C10.2019 16.5381 10.2235 16.5225 10.2477 16.5119C10.2718 16.5012 10.2979 16.4958 10.3243 16.496H13.6772C13.7035 16.496 13.7295 16.5015 13.7536 16.5122C13.7776 16.5228 13.7991 16.5385 13.8167 16.558C13.8343 16.5775 13.8476 16.6006 13.8557 16.6256C13.8638 16.6506 13.8666 16.677 13.8638 16.7032V16.7027ZM17.0044 17.5193C16.8572 17.653 16.6629 17.7228 16.4643 17.7133C16.2656 17.7038 16.0788 17.6158 15.9451 17.4686L6.94505 7.53113C6.81408 7.38349 6.74658 7.19019 6.75718 6.99312C6.76778 6.79605 6.85564 6.6111 7.00169 6.47837C7.14774 6.34564 7.34022 6.27582 7.53741 6.28406C7.73459 6.2923 7.92058 6.37793 8.05505 6.52238L17.0551 16.4599C17.1214 16.5328 17.1726 16.618 17.206 16.7108C17.2393 16.8035 17.2541 16.9019 17.2494 17.0003C17.2447 17.0987 17.2206 17.1953 17.1786 17.2844C17.1366 17.3735 17.0774 17.4535 17.0044 17.5197V17.5193ZM16.9219 15.1464L10.148 7.75519C10.1279 7.73334 10.1132 7.70702 10.1052 7.67839C10.0973 7.64976 10.0962 7.61964 10.1022 7.59052C10.1081 7.56141 10.1209 7.53412 10.1395 7.51092C10.158 7.48771 10.1819 7.46925 10.209 7.45707C10.2704 7.42988 10.3313 7.40457 10.3913 7.38066C10.4598 7.35207 10.5216 7.30944 10.5726 7.2555C10.6237 7.20157 10.6628 7.13754 10.6876 7.06753C10.8619 6.49285 11.3508 5.99597 12.0001 5.99597C12.6493 5.99597 13.1386 6.49285 13.3126 7.06753C13.3374 7.13761 13.3767 7.20169 13.4279 7.25562C13.4791 7.30956 13.5411 7.35216 13.6097 7.38066C14.604 7.77628 15.8129 8.5905 15.8129 10.8808C15.8129 13.3807 16.3538 13.7618 17.1193 14.6683C17.1986 14.7643 17.244 14.8837 17.2486 15.0082C17.2514 15.0472 17.2419 15.086 17.2215 15.1194C17.201 15.1527 17.1707 15.1788 17.1347 15.194C17.0987 15.2093 17.0588 15.2129 17.0207 15.2043C16.9825 15.1958 16.948 15.1756 16.9219 15.1464Z" fill="#666666"/>
</svg>
