<svg width="24" height="24" viewBox="0 0 24 24" fill="none" xmlns="http://www.w3.org/2000/svg">
<path d="M1.93932 2.99777L3.00001 1.93708L22.0607 20.9978L21.0001 22.0584L1.93932 2.99777ZM12.0001 22.4978C12.7295 22.497 13.4428 22.2839 14.053 21.8843C14.6632 21.4847 15.1438 20.916 15.436 20.2478H8.56417C8.85641 20.916 9.33698 21.4847 9.94717 21.8843C10.5574 22.2839 11.2707 22.497 12.0001 22.4978ZM5.2501 10.6604V13.4978L3.0001 16.4978V18.7478H15.5682L5.43151 8.61105C5.30771 9.28709 5.24698 9.97316 5.2501 10.6604ZM21.0001 16.4978L18.7501 13.4978V10.6604C18.7501 7.35715 17.4676 4.47949 14.2501 3.74777L13.8751 1.49777H10.1251L9.7501 3.74777C9.04517 3.90014 8.37705 4.18953 7.7837 4.59949L21.0024 17.8182L21.0001 16.4978Z" fill="#666666"/>
</svg>
