<svg width="24" height="24" viewBox="0 0 24 24" fill="none" xmlns="http://www.w3.org/2000/svg">
<path d="M15 17.996V18.746C15 19.5416 14.684 20.3047 14.1213 20.8673C13.5587 21.4299 12.7957 21.746 12 21.746C11.2044 21.746 10.4413 21.4299 9.87871 20.8673C9.3161 20.3047 9.00003 19.5416 9.00003 18.746V17.996M20.0475 16.4693C18.8438 14.996 17.9939 14.246 17.9939 10.1843C17.9939 6.46472 16.0946 5.13957 14.5313 4.49597C14.3236 4.41066 14.1282 4.21472 14.0649 4.00144C13.7907 3.06816 13.0219 2.24597 12 2.24597C10.9782 2.24597 10.2089 3.06863 9.93753 4.00238C9.87425 4.218 9.67878 4.41066 9.47112 4.49597C7.90596 5.1405 6.00846 6.46097 6.00846 10.1843C6.00612 14.246 5.15628 14.996 3.95253 16.4693C3.45378 17.0796 3.89065 17.996 4.76299 17.996H19.2417C20.1094 17.996 20.5435 17.0768 20.0475 16.4693Z" stroke="#666666" stroke-width="1.5" stroke-linecap="round" stroke-linejoin="round"/>
</svg>
