<svg width="24" height="24" viewBox="0 0 24 24" fill="none" xmlns="http://www.w3.org/2000/svg">
<path d="M15 17.996V18.746C15 19.5416 14.6839 20.3047 14.1213 20.8673C13.5587 21.4299 12.7957 21.746 12 21.746C11.2044 21.746 10.4413 21.4299 9.8787 20.8673C9.31609 20.3047 9.00002 19.5416 9.00002 18.746V17.996M6.02392 9.58613C6.01236 9.77832 6.00658 9.97769 6.00658 10.1843C6.00658 14.246 5.15627 14.996 3.95299 16.4693C3.45424 17.0796 3.89064 17.996 4.76345 17.996H15L6.02392 9.58613ZM19.4297 15.7132C18.5635 14.6139 17.9944 13.5077 17.9944 10.1819C17.9944 6.46472 16.095 5.13957 14.5313 4.49597C14.3236 4.41066 14.1281 4.21472 14.0649 4.00144C13.7911 3.06816 13.0228 2.24597 12 2.24597C10.9772 2.24597 10.2094 3.06863 9.93752 4.00238C9.87424 4.218 9.67877 4.41066 9.46877 4.49597C9.17863 4.61431 8.89674 4.75196 8.62502 4.908L19.4297 15.7132Z" stroke="#666666" stroke-width="1.5" stroke-linecap="round" stroke-linejoin="round"/>
<path d="M21 20.9987L3 2.99869" stroke="#666666" stroke-width="1.5" stroke-miterlimit="10" stroke-linecap="round"/>
</svg>
