<svg width="24" height="24" viewBox="0 0 24 24" fill="none" xmlns="http://www.w3.org/2000/svg">
<path d="M13.86 16.4708V16.497H13.8747L13.86 16.4708Z" fill="#666666"/>
<path d="M11.9999 2.24597C6.62385 2.24597 2.24995 6.61988 2.24995 11.996C2.24995 17.3721 6.62385 21.746 11.9999 21.746C17.376 21.746 21.7499 17.3721 21.7499 11.996C21.7499 6.61988 17.376 2.24597 11.9999 2.24597ZM11.9999 17.996C10.9462 17.996 10.1249 17.5155 10.1249 16.496H13.8749C13.8609 17.4977 13.0448 17.996 11.9999 17.996ZM17.2499 15.746H6.74995V14.4335L8.06245 12.746V11.2319C8.06245 9.33769 8.80401 7.69988 10.6874 7.28175L10.8749 5.99597H13.1249L13.3124 7.28175C15.1874 7.69988 15.9374 9.34425 15.9374 11.2319V12.746L17.2499 14.4335V15.746Z" fill="#666666"/>
</svg>
