<svg width="24" height="24" viewBox="0 0 24 24" fill="none" xmlns="http://www.w3.org/2000/svg">
<path d="M12 2.24597C6.6239 2.24597 2.24999 6.61988 2.24999 11.996C2.24999 17.3721 6.6239 21.746 12 21.746C17.3761 21.746 21.75 17.3721 21.75 11.996C21.75 6.61988 17.3761 2.24597 12 2.24597ZM6.74999 14.4335L8.06249 12.746V11.2319C8.06042 10.8321 8.09715 10.4331 8.17218 10.0403L13.4025 15.746H6.74999V14.4335ZM12.0084 17.996C10.95 17.996 10.125 17.5155 10.125 16.496H13.875C13.8609 17.4977 13.057 17.996 12.0084 17.996ZM16.3903 17.8207L6.49968 7.18003L7.60968 6.17128L17.5003 16.8119L16.3903 17.8207ZM17.25 15.5046L17.235 15.4868L9.94593 7.53535C10.1826 7.42285 10.4314 7.33776 10.6875 7.28175L10.875 5.99597H13.125L13.3125 7.28175C15.1875 7.69988 15.9375 9.34425 15.9375 11.2319V12.746L17.25 14.4335V15.5046Z" fill="#666666"/>
</svg>
