<svg width="24" height="24" viewBox="0 0 24 24" fill="none" xmlns="http://www.w3.org/2000/svg">
<path d="M20.6288 15.9976C20.551 15.9038 20.4746 15.8101 20.3996 15.7196C19.3684 14.4723 18.7444 13.7194 18.7444 10.1883C18.7444 8.36022 18.3071 6.86022 17.4451 5.73522C16.8094 4.90413 15.9502 4.27366 14.8177 3.80772C14.8032 3.79961 14.7901 3.78898 14.7793 3.77631C14.3719 2.41225 13.2573 1.49866 12.0001 1.49866C10.7429 1.49866 9.62867 2.41225 9.22132 3.77491C9.21045 3.78711 9.19762 3.79741 9.18335 3.80538C6.54054 4.89334 5.25617 6.98069 5.25617 10.1869C5.25617 13.7194 4.6332 14.4723 3.60101 15.7182C3.52601 15.8087 3.4496 15.9005 3.37179 15.9962C3.17079 16.2386 3.04344 16.5335 3.00481 16.846C2.96618 17.1585 3.01789 17.4755 3.15382 17.7596C3.44304 18.369 4.05945 18.7473 4.76304 18.7473H19.2423C19.9426 18.7473 20.5548 18.3694 20.8449 17.7629C20.9814 17.4788 21.0336 17.1615 20.9953 16.8486C20.957 16.5357 20.8298 16.2404 20.6288 15.9976ZM12.0001 22.4987C12.6774 22.4981 13.342 22.3142 13.9233 21.9666C14.5047 21.6189 14.981 21.1203 15.3019 20.5238C15.3171 20.4952 15.3245 20.4632 15.3236 20.4309C15.3227 20.3986 15.3135 20.367 15.2968 20.3393C15.2801 20.3116 15.2565 20.2887 15.2283 20.2728C15.2001 20.257 15.1683 20.2486 15.136 20.2487H8.86507C8.83269 20.2485 8.80084 20.2568 8.7726 20.2727C8.74437 20.2885 8.72073 20.3114 8.70397 20.3391C8.68722 20.3668 8.67792 20.3984 8.67699 20.4308C8.67606 20.4631 8.68353 20.4952 8.69867 20.5238C9.01954 21.1203 9.49585 21.6188 10.0771 21.9664C10.6583 22.3141 11.3228 22.498 12.0001 22.4987Z" fill="#666666"/>
</svg>
