<svg width="24" height="24" viewBox="0 0 24 24" fill="none" xmlns="http://www.w3.org/2000/svg">
<path d="M12.1358 2.24779C6.65241 2.17373 2.17585 6.65029 2.24991 12.1337C2.32304 17.3926 6.60507 21.6747 11.864 21.7478C17.3484 21.8228 21.824 17.3462 21.749 11.8628C21.6768 6.60295 17.3948 2.32092 12.1358 2.24779ZM20.1093 11.244L15.7462 11.2394C15.7248 11.2393 15.7041 11.232 15.6875 11.2186C15.6709 11.2053 15.6593 11.1866 15.6548 11.1658C15.4683 10.3517 15.0156 9.62316 14.3685 9.09529C14.352 9.08196 14.3406 9.06345 14.336 9.04276C14.3314 9.02207 14.3339 9.00044 14.3432 8.98139L16.2801 5.07061C16.2859 5.05875 16.2941 5.04825 16.3042 5.03979C16.3143 5.03134 16.3261 5.02511 16.3388 5.02153C16.3515 5.01795 16.3649 5.01708 16.3779 5.019C16.391 5.02091 16.4035 5.02556 16.4146 5.03264C17.4654 5.69949 18.352 6.59521 19.008 7.65285C19.664 8.7105 20.0726 9.90273 20.203 11.1405C20.2044 11.1536 20.203 11.1668 20.1989 11.1794C20.1949 11.1919 20.1882 11.2034 20.1793 11.2132C20.1705 11.223 20.1597 11.2308 20.1476 11.2361C20.1355 11.2414 20.1225 11.2441 20.1093 11.244ZM9.75929 12.2031C9.71708 11.7425 9.81786 11.2801 10.0479 10.8788C10.2779 10.4775 10.626 10.1569 11.0448 9.96057C11.4636 9.76424 11.9327 9.70174 12.3883 9.78159C12.8439 9.86144 13.2638 10.0798 13.5909 10.4068C13.918 10.7339 14.1363 11.1538 14.2161 11.6094C14.296 12.065 14.2335 12.5341 14.0371 12.9529C13.8408 13.3717 13.5202 13.7198 13.1189 13.9498C12.7176 14.1799 12.2552 14.2806 11.7946 14.2384C11.271 14.1904 10.7807 13.9606 10.4089 13.5888C10.0371 13.217 9.80726 12.7267 9.75929 12.2031ZM7.71788 5.07061L9.65616 8.98139C9.66544 9.00044 9.66798 9.02207 9.66339 9.04276C9.65879 9.06345 9.64732 9.08196 9.63085 9.09529C8.98338 9.62302 8.53041 10.3516 8.34366 11.1658C8.33899 11.187 8.32709 11.206 8.30999 11.2194C8.29288 11.2328 8.27165 11.2399 8.24991 11.2394L3.88679 11.244C3.8736 11.2441 3.86055 11.2414 3.84848 11.2361C3.83641 11.2308 3.8256 11.223 3.81676 11.2132C3.80791 11.2034 3.80122 11.1919 3.79713 11.1794C3.79305 11.1668 3.79165 11.1536 3.79304 11.1405C3.92352 9.90273 4.33203 8.7105 4.98805 7.65285C5.64407 6.59521 6.53062 5.69949 7.58147 5.03264C7.59267 5.02523 7.60533 5.02032 7.61859 5.01822C7.63185 5.01613 7.6454 5.01691 7.65834 5.02051C7.67127 5.02411 7.68328 5.03045 7.69355 5.03909C7.70382 5.04773 7.71212 5.05848 7.71788 5.07061ZM7.70054 18.9147L10.3401 15.4417C10.353 15.4248 10.3714 15.4127 10.3921 15.4076C10.4128 15.4025 10.4346 15.4046 10.454 15.4136C10.9398 15.6341 11.4673 15.7482 12.0008 15.7482C12.5344 15.7482 13.0619 15.6341 13.5477 15.4136C13.5671 15.4046 13.5889 15.4025 13.6096 15.4076C13.6303 15.4127 13.6487 15.4248 13.6616 15.4417L16.3012 18.9147C16.3091 18.9251 16.3148 18.9371 16.3179 18.9498C16.321 18.9626 16.3213 18.9758 16.3189 18.9887C16.3165 19.0016 16.3115 19.0139 16.3041 19.0247C16.2966 19.0355 16.287 19.0447 16.2758 19.0515C14.9875 19.834 13.5091 20.2478 12.0018 20.2478C10.4945 20.2478 9.01606 19.834 7.72772 19.0515C7.7164 19.0448 7.70662 19.0358 7.69901 19.0251C7.69141 19.0143 7.68616 19.0021 7.68359 18.9892C7.68103 18.9763 7.68121 18.963 7.68413 18.9501C7.68705 18.9373 7.69264 18.9252 7.70054 18.9147Z" fill="#666666"/>
</svg>
