<svg width="24" height="24" viewBox="0 0 24 24" fill="none" xmlns="http://www.w3.org/2000/svg">
<path d="M12.0001 14.2514C13.2427 14.2514 14.2501 13.244 14.2501 12.0014C14.2501 10.7588 13.2427 9.7514 12.0001 9.7514C10.7574 9.7514 9.75007 10.7588 9.75007 12.0014C9.75007 13.244 10.7574 14.2514 12.0001 14.2514Z" fill="#666666"/>
<path d="M18.8944 5.10263C17.0659 3.27413 14.5859 2.24689 12 2.24689C9.41415 2.24689 6.93417 3.27413 5.10567 5.10263C3.27717 6.93113 2.24992 9.41112 2.24992 11.997C2.24992 14.5829 3.27717 17.0629 5.10567 18.8914C6.93417 20.7199 9.41415 21.7471 12 21.7471C14.5859 21.7471 17.0659 20.7199 18.8944 18.8914C20.7229 17.0629 21.7502 14.5829 21.7502 11.997C21.7502 9.41112 20.7229 6.93113 18.8944 5.10263ZM16.0313 11.997C16.0303 12.7973 15.7915 13.5792 15.3452 14.2434C14.899 14.9077 14.2654 15.4243 13.5249 15.7278L15.9488 18.9153C14.7463 19.6028 13.3852 19.9644 12 19.9644C10.6149 19.9644 9.25378 19.6028 8.05129 18.9153L10.4752 15.7278C9.56759 15.3569 8.82628 14.6679 8.39004 13.7898C7.9538 12.9117 7.85253 11.9047 8.1052 10.9573L4.09832 10.9615C4.24654 9.83949 4.63178 8.7618 5.22846 7.80006C5.82514 6.83833 6.61961 6.01454 7.55911 5.38341L9.33754 8.97357C10.0724 8.32419 11.0193 7.96578 12 7.96578C12.9807 7.96578 13.9276 8.32419 14.6625 8.97357L16.441 5.38341C17.3805 6.01454 18.1749 6.83833 18.7716 7.80006C19.3683 8.7618 19.7536 9.83949 19.9018 10.9615L15.8949 10.9573C15.9855 11.2965 16.0314 11.646 16.0313 11.997Z" fill="#666666"/>
</svg>
