<svg width="24" height="24" viewBox="0 0 24 24" fill="none" xmlns="http://www.w3.org/2000/svg">
<path d="M12 20.9996C16.9706 20.9996 21 16.9701 21 11.9996C21 7.02901 16.9706 2.99957 12 2.99957C7.02948 2.99957 3.00004 7.02901 3.00004 11.9996C3.00004 16.9701 7.02948 20.9996 12 20.9996Z" stroke="#666666" stroke-width="1.5" stroke-miterlimit="10" stroke-linecap="round"/>
<path d="M12 14.9987C13.6568 14.9987 15 13.6555 15 11.9987C15 10.3418 13.6568 8.99866 12 8.99866C10.3431 8.99866 8.99998 10.3418 8.99998 11.9987C8.99998 13.6555 10.3431 14.9987 12 14.9987Z" stroke="#666666" stroke-width="1.5" stroke-miterlimit="10"/>
<path d="M9.98017 14.6758L6.59346 19.1317M10.5 8.9978L8.01564 3.98218L10.5 8.9978ZM13.5 8.9978L15.9844 3.98218L13.5 8.9978ZM15.3539 11.9889L20.9513 11.995L15.3539 11.9889ZM14.0199 14.6758L17.4066 19.1317L14.0199 14.6758ZM8.64611 11.9889L3.04877 11.995L8.64611 11.9889Z" stroke="#666666" stroke-width="1.5" stroke-miterlimit="10" stroke-linecap="round"/>
</svg>
