<svg width="24" height="24" viewBox="0 0 24 24" fill="none" xmlns="http://www.w3.org/2000/svg">
<g clip-path="url(#clip0_32_2640)">
<path d="M16.5001 5.9984C14.9879 5.86293 13.5001 6.7484 12.0001 6.7484C10.5001 6.7484 9.0118 5.85777 7.50008 5.9984C4.50008 6.27965 3.00008 8.9984 3.00008 13.4984C3.00008 17.2484 6.00008 22.4984 8.21258 22.4984C10.4251 22.4984 10.6473 21.3734 12.0001 21.3734C13.3529 21.3734 13.5746 22.4984 15.7876 22.4984C18.0005 22.4984 21.0001 17.2484 21.0001 13.4984C21.0001 8.9984 19.6407 6.27965 16.5001 5.9984Z" stroke="#666666" stroke-width="1.5" stroke-miterlimit="10"/>
<path d="M15.1837 3.89377C14.1993 4.87815 13.0434 5.1594 12.4265 5.24331C12.3701 5.25143 12.3126 5.2466 12.2584 5.22918C12.2041 5.21176 12.1545 5.1822 12.1134 5.14275C12.0723 5.1033 12.0407 5.055 12.0211 5.00152C12.0014 4.94804 11.9942 4.89077 12 4.83409C12.1112 3.77966 12.5853 2.79661 13.3411 2.05299C14.3723 1.02174 15.4973 0.792055 16.0936 0.747523C16.1492 0.742444 16.2053 0.749872 16.2577 0.769264C16.3102 0.788656 16.3576 0.819521 16.3965 0.859602C16.4355 0.899683 16.465 0.947965 16.4829 1.00092C16.5008 1.05387 16.5066 1.11015 16.5 1.16565C16.3823 2.19768 15.9183 3.15937 15.1837 3.89377Z" fill="#666666"/>
<path d="M10.125 16.496C10.7463 16.496 11.25 15.4886 11.25 14.246C11.25 13.0033 10.7463 11.996 10.125 11.996C9.5037 11.996 9.00002 13.0033 9.00002 14.246C9.00002 15.4886 9.5037 16.496 10.125 16.496Z" fill="#666666"/>
<path d="M13.875 16.496C14.4963 16.496 15 15.4886 15 14.246C15 13.0033 14.4963 11.996 13.875 11.996C13.2537 11.996 12.75 13.0033 12.75 14.246C12.75 15.4886 13.2537 16.496 13.875 16.496Z" fill="#666666"/>
</g>
<defs>
<clipPath id="clip0_32_2640">
<rect width="24" height="24" fill="white" transform="translate(0 -0.00390625)"/>
</clipPath>
</defs>
</svg>
