<svg width="24" height="24" viewBox="0 0 24 24" fill="none" xmlns="http://www.w3.org/2000/svg">
<g clip-path="url(#clip0_32_2648)">
<path d="M20.5782 7.79537C19.703 6.26865 18.3535 5.41365 16.5671 5.25334C15.6211 5.16896 14.7389 5.4113 13.8844 5.64615C13.2211 5.82849 12.5944 6.00052 12 6.00052C11.4057 6.00052 10.7813 5.82802 10.1222 5.64568C9.26535 5.4113 8.37941 5.16474 7.43019 5.2538C5.72441 5.41365 4.35941 6.29021 3.47816 7.7888C2.66347 9.17677 2.25003 11.0986 2.25003 13.5005C2.25003 15.3943 2.95316 17.7422 4.12503 19.7818C4.72597 20.8247 6.32816 23.2505 8.21066 23.2505C9.65301 23.2505 10.4208 22.808 10.9814 22.4851C11.3705 22.261 11.6053 22.1255 11.9982 22.1255C12.391 22.1255 12.6258 22.261 13.0149 22.4851C13.5774 22.808 14.3438 23.2505 15.7875 23.2505C17.6705 23.2505 19.2722 20.8243 19.8732 19.7818C21.0483 17.7427 21.7482 15.3947 21.7482 13.5005C21.75 11.0363 21.3666 9.17021 20.5782 7.79537ZM10.125 16.5005C9.50394 16.5005 9.00004 15.4932 9.00004 14.2505C9.00004 13.0079 9.50394 12.0005 10.125 12.0005C10.7461 12.0005 11.25 13.0079 11.25 14.2505C11.25 15.4932 10.7461 16.5005 10.125 16.5005ZM13.875 16.5005C13.2539 16.5005 12.75 15.4932 12.75 14.2505C12.75 13.0079 13.2539 12.0005 13.875 12.0005C14.4961 12.0005 15 13.0079 15 14.2505C15 15.4932 14.4961 16.5005 13.875 16.5005Z" fill="#666666"/>
<path d="M12.4265 5.24378C13.0434 5.16175 14.2012 4.87675 15.1842 3.89425C15.9174 3.1593 16.38 2.19768 16.4967 1.16612C16.5033 1.11106 16.4977 1.05521 16.4802 1.00258C16.4627 0.949953 16.4337 0.901867 16.3954 0.861784C16.3571 0.821701 16.3103 0.790621 16.2585 0.770782C16.2067 0.750943 16.1512 0.74284 16.0959 0.747057C15.5001 0.791588 14.3728 1.02221 13.3429 2.05253C12.5862 2.79611 12.1115 3.77955 11.9999 4.83456C11.9942 4.89125 12.0014 4.94851 12.021 5.00199C12.0407 5.05547 12.0723 5.10377 12.1134 5.14322C12.1545 5.18267 12.2041 5.21223 12.2583 5.22965C12.3126 5.24708 12.3701 5.25191 12.4265 5.24378Z" fill="#666666"/>
</g>
<defs>
<clipPath id="clip0_32_2648">
<rect width="24" height="24" fill="white" transform="translate(0 -0.00390625)"/>
</clipPath>
</defs>
</svg>
