<svg width="24" height="24" viewBox="0 0 24 24" fill="none" xmlns="http://www.w3.org/2000/svg">
<g clip-path="url(#clip0_32_2645)">
<path d="M20.5646 7.47374C19.7396 6.14671 18.4318 5.42061 16.5671 5.25327C15.4975 5.15952 14.2126 5.48483 13.1804 5.7478C12.7154 5.8664 12.1876 6.00046 12.0001 6.00046C11.8126 6.00046 11.2886 5.8664 10.8282 5.7478C9.79324 5.48296 8.50511 5.15296 7.43215 5.25374C5.62605 5.42296 4.3384 6.15327 3.49465 7.48593C2.6509 8.81858 2.25011 10.7348 2.25011 13.5005C2.25011 16.373 3.63433 18.8714 4.45933 20.1047C5.47605 21.6258 6.99621 23.2505 8.21261 23.2505C9.08308 23.2505 9.81199 22.9116 10.4542 22.6111C11.3907 22.1723 12.0001 22.1255 12.0001 22.1255C12.0001 22.1255 12.5157 22.1255 13.4973 22.5994C14.14 22.9097 14.8736 23.2505 15.7876 23.2505C17.0336 23.2505 18.557 21.6244 19.5671 20.1028C20.3823 18.8747 21.7501 16.3842 21.7501 13.5005C21.7501 10.688 21.3751 8.77405 20.5646 7.47374ZM10.1251 16.5005C9.50402 16.5005 9.00011 15.4931 9.00011 14.2505C9.00011 13.0078 9.50402 12.0005 10.1251 12.0005C10.7462 12.0005 11.2501 13.0078 11.2501 14.2505C11.2501 15.4931 10.7462 16.5005 10.1251 16.5005ZM13.8751 16.5005C13.254 16.5005 12.7501 15.4931 12.7501 14.2505C12.7501 13.0078 13.254 12.0005 13.8751 12.0005C14.4962 12.0005 15.0001 13.0078 15.0001 14.2505C15.0001 15.4931 14.4962 16.5005 13.8751 16.5005Z" fill="#666666"/>
<path d="M15.1743 3.87606C16.5787 2.47263 16.5 0.755125 16.5 0.75325C16.5 0.751375 14.8232 0.577 13.3486 2.05028C11.8739 3.52356 12.0028 5.24669 12.0028 5.24669C12.0028 5.24669 13.769 5.27997 15.1743 3.87606Z" fill="#666666"/>
</g>
<defs>
<clipPath id="clip0_32_2645">
<rect width="24" height="24" fill="white" transform="translate(0 -0.00390625)"/>
</clipPath>
</defs>
</svg>
