<svg width="24" height="24" viewBox="0 0 24 24" fill="none" xmlns="http://www.w3.org/2000/svg">
<path d="M15.75 2.99957H21V8.24957M10.5 13.4996L20.625 3.37457M18 10.4996V19.1246C18 19.3708 17.9515 19.6146 17.8573 19.8421C17.763 20.0696 17.6249 20.2763 17.4508 20.4504C17.2767 20.6245 17.07 20.7626 16.8425 20.8568C16.615 20.9511 16.3712 20.9996 16.125 20.9996H4.87498C4.3777 20.9996 3.90079 20.802 3.54916 20.4504C3.19753 20.0988 2.99998 19.6219 2.99998 19.1246V7.87457C2.99998 7.37729 3.19753 6.90038 3.54916 6.54875C3.90079 6.19712 4.3777 5.99957 4.87498 5.99957H12.7256L18 10.4996Z" stroke="#666666" stroke-width="1.5" stroke-linecap="round" stroke-linejoin="round"/>
</svg>
