<svg width="24" height="24" viewBox="0 0 24 24" fill="none" xmlns="http://www.w3.org/2000/svg">
<path d="M10.5001 14.2487C10.3518 14.2486 10.2069 14.2046 10.0836 14.1222C9.96031 14.0397 9.86423 13.9226 9.8075 13.7856C9.75076 13.6486 9.73591 13.4979 9.76482 13.3524C9.79373 13.207 9.8651 13.0734 9.96992 12.9685L17.3734 5.56506C16.9902 5.35703 16.5611 5.24825 16.1251 5.24866H4.87508C4.17911 5.2494 3.51187 5.5262 3.01974 6.01833C2.52762 6.51045 2.25082 7.17769 2.25008 7.87366V19.1237C2.25082 19.8196 2.52762 20.4869 3.01974 20.979C3.51187 21.4711 4.17911 21.7479 4.87508 21.7487H16.1251C16.821 21.7479 17.4883 21.4711 17.9804 20.979C18.4725 20.4869 18.7493 19.8196 18.7501 19.1237V7.87366C18.7505 7.43767 18.6417 7.00853 18.4337 6.62538L11.0302 14.0288C10.9607 14.0986 10.8781 14.154 10.7871 14.1917C10.6961 14.2295 10.5986 14.2488 10.5001 14.2487Z" fill="#666666"/>
<path d="M21 2.24689H15.75C15.5511 2.24689 15.3603 2.3259 15.2197 2.46656C15.079 2.60721 15 2.79797 15 2.99689C15 3.1958 15.079 3.38657 15.2197 3.52722C15.3603 3.66787 15.5511 3.74689 15.75 3.74689H19.1892L17.3733 5.56329C17.8217 5.80688 18.19 6.17516 18.4336 6.62361L20.25 4.80767V8.24689C20.25 8.4458 20.329 8.63657 20.4697 8.77722C20.6103 8.91787 20.8011 8.99689 21 8.99689C21.1989 8.99689 21.3897 8.91787 21.5303 8.77722C21.671 8.63657 21.75 8.4458 21.75 8.24689V2.99689C21.75 2.79797 21.671 2.60721 21.5303 2.46656C21.3897 2.3259 21.1989 2.24689 21 2.24689Z" fill="#666666"/>
</svg>
