<svg width="24" height="24" viewBox="0 0 24 24" fill="none" xmlns="http://www.w3.org/2000/svg">
<path d="M2.99997 11.9978H6.74997M17.25 5.9978H21H17.25ZM2.99997 5.9978H14.25H2.99997ZM17.25 17.9978H21H17.25ZM2.99997 17.9978H14.25H2.99997ZM9.74997 11.9978H21H9.74997Z" stroke="#666666" stroke-width="1.5" stroke-linecap="round" stroke-linejoin="round"/>
<path d="M15.75 7.49689C16.5784 7.49689 17.25 6.82531 17.25 5.99689C17.25 5.16846 16.5784 4.49689 15.75 4.49689C14.9216 4.49689 14.25 5.16846 14.25 5.99689C14.25 6.82531 14.9216 7.49689 15.75 7.49689Z" stroke="#666666" stroke-width="1.5" stroke-linecap="round" stroke-linejoin="round"/>
<path d="M8.24997 13.5005C9.0784 13.5005 9.74997 12.8289 9.74997 12.0005C9.74997 11.1721 9.0784 10.5005 8.24997 10.5005C7.42154 10.5005 6.74997 11.1721 6.74997 12.0005C6.74997 12.8289 7.42154 13.5005 8.24997 13.5005Z" stroke="#666666" stroke-width="1.5" stroke-linecap="round" stroke-linejoin="round"/>
<path d="M15.75 19.4951C16.5784 19.4951 17.25 18.8235 17.25 17.9951C17.25 17.1667 16.5784 16.4951 15.75 16.4951C14.9216 16.4951 14.25 17.1667 14.25 17.9951C14.25 18.8235 14.9216 19.4951 15.75 19.4951Z" stroke="#666666" stroke-width="1.5" stroke-linecap="round" stroke-linejoin="round"/>
</svg>
