<svg width="24" height="24" viewBox="0 0 24 24" fill="none" xmlns="http://www.w3.org/2000/svg">
<path d="M3.00007 6.74808H13.629C13.7842 7.1866 14.0715 7.56624 14.4513 7.83475C14.8312 8.10326 15.2849 8.24744 15.7501 8.24744C16.2152 8.24744 16.669 8.10326 17.0488 7.83475C17.4287 7.56624 17.716 7.1866 17.8712 6.74808H21.0001C21.199 6.74808 21.3897 6.66906 21.5304 6.52841C21.6711 6.38776 21.7501 6.19699 21.7501 5.99808C21.7501 5.79917 21.6711 5.6084 21.5304 5.46775C21.3897 5.3271 21.199 5.24808 21.0001 5.24808H17.8712C17.716 4.80956 17.4287 4.42991 17.0488 4.1614C16.669 3.8929 16.2152 3.74872 15.7501 3.74872C15.2849 3.74872 14.8312 3.8929 14.4513 4.1614C14.0715 4.42991 13.7842 4.80956 13.629 5.24808H3.00007C2.80116 5.24808 2.61039 5.3271 2.46974 5.46775C2.32909 5.6084 2.25007 5.79917 2.25007 5.99808C2.25007 6.19699 2.32909 6.38776 2.46974 6.52841C2.61039 6.66906 2.80116 6.74808 3.00007 6.74808ZM21.0001 17.2481H17.8712C17.716 16.8096 17.4287 16.4299 17.0488 16.1614C16.669 15.8929 16.2152 15.7487 15.7501 15.7487C15.2849 15.7487 14.8312 15.8929 14.4513 16.1614C14.0715 16.4299 13.7842 16.8096 13.629 17.2481H3.00007C2.80116 17.2481 2.61039 17.3271 2.46974 17.4677C2.32909 17.6084 2.25007 17.7992 2.25007 17.9981C2.25007 18.197 2.32909 18.3878 2.46974 18.5284C2.61039 18.6691 2.80116 18.7481 3.00007 18.7481H13.629C13.7842 19.1866 14.0715 19.5662 14.4513 19.8348C14.8312 20.1033 15.2849 20.2474 15.7501 20.2474C16.2152 20.2474 16.669 20.1033 17.0488 19.8348C17.4287 19.5662 17.716 19.1866 17.8712 18.7481H21.0001C21.199 18.7481 21.3897 18.6691 21.5304 18.5284C21.6711 18.3878 21.7501 18.197 21.7501 17.9981C21.7501 17.7992 21.6711 17.6084 21.5304 17.4677C21.3897 17.3271 21.199 17.2481 21.0001 17.2481ZM21.0001 11.2481H10.3712C10.216 10.8096 9.92868 10.4299 9.54883 10.1614C9.16898 9.8929 8.71524 9.74872 8.25007 9.74872C7.7849 9.74872 7.33116 9.8929 6.95131 10.1614C6.57146 10.4299 6.28416 10.8096 6.12898 11.2481H3.00007C2.80116 11.2481 2.61039 11.3271 2.46974 11.4677C2.32909 11.6084 2.25007 11.7992 2.25007 11.9981C2.25007 12.197 2.32909 12.3878 2.46974 12.5284C2.61039 12.6691 2.80116 12.7481 3.00007 12.7481H6.12898C6.28416 13.1866 6.57146 13.5662 6.95131 13.8348C7.33116 14.1033 7.7849 14.2474 8.25007 14.2474C8.71524 14.2474 9.16898 14.1033 9.54883 13.8348C9.92868 13.5662 10.216 13.1866 10.3712 12.7481H21.0001C21.199 12.7481 21.3897 12.6691 21.5304 12.5284C21.6711 12.3878 21.7501 12.197 21.7501 11.9981C21.7501 11.7992 21.6711 11.6084 21.5304 11.4677C21.3897 11.3271 21.199 11.2481 21.0001 11.2481Z" fill="#666666"/>
</svg>
