<svg width="24" height="24" viewBox="0 0 24 24" fill="none" xmlns="http://www.w3.org/2000/svg">
<path d="M17.8711 5.24808C17.7159 4.80956 17.4286 4.42991 17.0488 4.1614C16.6689 3.8929 16.2152 3.74872 15.75 3.74872C15.2848 3.74872 14.8311 3.8929 14.4512 4.1614C14.0714 4.42991 13.7841 4.80956 13.6289 5.24808H2.25001V6.74808H13.6289C13.7841 7.1866 14.0714 7.56624 14.4512 7.83475C14.8311 8.10326 15.2848 8.24744 15.75 8.24744C16.2152 8.24744 16.6689 8.10326 17.0488 7.83475C17.4286 7.56624 17.7159 7.1866 17.8711 6.74808H21.75V5.24808H17.8711ZM8.25001 9.74808C7.7849 9.74874 7.33139 9.89325 6.95165 10.1618C6.57191 10.4303 6.28453 10.8098 6.12891 11.2481H2.25001V12.7481H6.12891C6.2841 13.1866 6.5714 13.5662 6.95125 13.8348C7.3311 14.1033 7.78484 14.2474 8.25001 14.2474C8.71518 14.2474 9.16892 14.1033 9.54877 13.8348C9.92862 13.5662 10.2159 13.1866 10.3711 12.7481H21.75V11.2481H10.3711C10.2155 10.8098 9.92811 10.4303 9.54837 10.1618C9.16862 9.89325 8.71511 9.74874 8.25001 9.74808ZM15.75 15.7481C15.2849 15.7487 14.8314 15.8933 14.4517 16.1618C14.0719 16.4303 13.7845 16.8098 13.6289 17.2481H2.25001V18.7481H13.6289C13.7841 19.1866 14.0714 19.5662 14.4512 19.8348C14.8311 20.1033 15.2848 20.2474 15.75 20.2474C16.2152 20.2474 16.6689 20.1033 17.0488 19.8348C17.4286 19.5662 17.7159 19.1866 17.8711 18.7481H21.75V17.2481H17.8711C17.7155 16.8098 17.4281 16.4303 17.0484 16.1618C16.6686 15.8933 16.2151 15.7487 15.75 15.7481Z" fill="#666666"/>
</svg>
