<svg width="24" height="24" viewBox="0 0 24 24" fill="none" xmlns="http://www.w3.org/2000/svg">
<path d="M21.5625 2.43427L10.6406 13.3561M2.48996 9.36895L21.24 2.27255C21.3076 2.24668 21.3813 2.24095 21.4521 2.25604C21.5229 2.27114 21.5879 2.30643 21.6391 2.35764C21.6903 2.40885 21.7256 2.47379 21.7407 2.54461C21.7558 2.61544 21.7501 2.68913 21.7242 2.75677L14.6278 21.5068C14.5995 21.578 14.5502 21.6388 14.4864 21.6811C14.4225 21.7235 14.3472 21.7452 14.2707 21.7435C14.1941 21.7417 14.1199 21.7166 14.058 21.6714C13.9962 21.6263 13.9496 21.5632 13.9246 21.4908L10.7653 13.7054C10.7284 13.595 10.6664 13.4948 10.5842 13.4125C10.502 13.3303 10.4017 13.2683 10.2914 13.2315L2.5059 10.0749C2.43255 10.0505 2.36854 10.004 2.32263 9.94184C2.27671 9.87966 2.25113 9.80481 2.24938 9.72753C2.24764 9.65026 2.26982 9.57433 2.31288 9.51014C2.35594 9.44595 2.41779 9.39664 2.48996 9.36895V9.36895Z" stroke="#666666" stroke-width="1.5" stroke-linecap="round" stroke-linejoin="round"/>
</svg>
