<svg width="24" height="24" viewBox="0 0 24 24" fill="none" xmlns="http://www.w3.org/2000/svg">
<path d="M22.1718 1.82899C22.0185 1.67565 21.8241 1.56991 21.612 1.52451C21.3999 1.4791 21.1792 1.49596 20.9765 1.57305L2.22512 8.67039H2.22137C2.00517 8.75355 1.8199 8.90142 1.69088 9.09381C1.56186 9.2862 1.49537 9.51372 1.5005 9.74531C1.50563 9.9769 1.58212 10.2013 1.71953 10.3878C1.85695 10.5742 2.04858 10.7138 2.26825 10.7873L2.28747 10.7934L8.72341 13.5416C8.84894 13.5798 8.98227 13.5843 9.11009 13.5547C9.23791 13.5252 9.35575 13.4627 9.45184 13.3734L19.7812 3.74852C19.812 3.71774 19.8485 3.69333 19.8888 3.67667C19.929 3.66001 19.9721 3.65144 20.0156 3.65144C20.0591 3.65144 20.1022 3.66001 20.1424 3.67667C20.1827 3.69333 20.2192 3.71774 20.25 3.74852C20.2807 3.7793 20.3052 3.81584 20.3218 3.85605C20.3385 3.89627 20.3471 3.93937 20.3471 3.98289C20.3471 4.02642 20.3385 4.06952 20.3218 4.10974C20.3052 4.14995 20.2807 4.18649 20.25 4.21727L10.6247 14.542C10.5353 14.6381 10.4728 14.7559 10.4433 14.8837C10.4138 15.0115 10.4183 15.1449 10.4564 15.2704L13.2056 21.7101C13.2084 21.7195 13.2112 21.7279 13.2145 21.7368C13.3645 22.1713 13.7442 22.4779 14.2031 22.4985H14.25C14.4816 22.4998 14.7084 22.4314 14.9006 22.3022C15.0929 22.173 15.2418 21.9889 15.3281 21.7738L22.4245 3.02758C22.5027 2.82474 22.5204 2.6036 22.4756 2.39088C22.4308 2.17817 22.3253 1.983 22.1718 1.82899Z" fill="#666666"/>
</svg>
