<svg width="24" height="24" viewBox="0 0 24 24" fill="none" xmlns="http://www.w3.org/2000/svg">
<g clip-path="url(#clip0_32_2679)">
<path d="M15.9376 22.4996H4.96883C3.58601 22.4996 2.39445 22.1325 1.52211 21.4383C0.526483 20.6452 7.62939e-05 19.4691 7.62939e-05 18.0371C7.62939e-05 16.7874 0.472576 15.7027 1.36601 14.9007C2.08039 14.2594 3.06148 13.8127 4.13164 13.6425C4.13445 13.6425 4.13539 13.6425 4.13586 13.6402C4.43773 11.8121 5.25289 10.261 6.49414 9.1552C7.70168 8.08421 9.26103 7.49491 10.8751 7.49957C12.2921 7.49957 13.6163 7.93973 14.7052 8.77317C15.5562 9.43271 16.2347 10.2885 16.6829 11.2674C16.7314 11.3737 16.8041 11.4672 16.8952 11.5405C16.9862 11.6137 17.0932 11.6647 17.2074 11.6893C18.4262 11.9522 19.4762 12.4997 20.2623 13.283C21.2345 14.2547 21.7501 15.5485 21.7501 17.0246C21.7501 18.5644 21.1346 19.9716 20.0157 20.9865C18.9427 21.9624 17.4938 22.4996 15.9376 22.4996ZM18.1824 10.3908C18.7496 10.559 19.2962 10.7903 19.8118 11.0804C19.8367 11.0943 19.8644 11.1024 19.8929 11.1041C19.9214 11.1057 19.9498 11.1008 19.9761 11.0898C20.0025 11.0788 20.0259 11.0619 20.0447 11.0404C20.0635 11.019 20.0771 10.9935 20.0846 10.966C20.1976 10.5588 20.2533 10.1379 20.2501 9.71535C20.2318 7.2577 18.212 5.25192 15.7543 5.24957C14.8303 5.24724 13.9282 5.53101 13.172 6.06192H13.1691C13.1449 6.07912 13.1259 6.10281 13.1145 6.13028C13.1031 6.15775 13.0996 6.18788 13.1045 6.21723C13.1094 6.24657 13.1224 6.27395 13.1422 6.29622C13.1619 6.3185 13.1875 6.33476 13.216 6.34317C14.0847 6.60899 14.8987 7.02809 15.6198 7.58067C16.486 8.25017 17.2085 9.08729 17.7441 10.0421C17.8397 10.2106 17.9968 10.3355 18.1824 10.3908ZM23.2501 10.4996H21.7501C21.5512 10.4996 21.3604 10.4206 21.2198 10.2799C21.0791 10.1393 21.0001 9.94849 21.0001 9.74957C21.0001 9.55066 21.0791 9.3599 21.2198 9.21924C21.3604 9.07859 21.5512 8.99957 21.7501 8.99957H23.2501C23.449 8.99957 23.6398 9.07859 23.7804 9.21924C23.9211 9.3599 24.0001 9.55066 24.0001 9.74957C24.0001 9.94849 23.9211 10.1393 23.7804 10.2799C23.6398 10.4206 23.449 10.4996 23.2501 10.4996ZM15.7501 4.49957C15.5512 4.49957 15.3604 4.42056 15.2197 4.2799C15.0791 4.13925 15.0001 3.94849 15.0001 3.74957V2.24957C15.0001 2.05066 15.0791 1.85989 15.2197 1.71924C15.3604 1.57859 15.5512 1.49957 15.7501 1.49957C15.949 1.49957 16.1398 1.57859 16.2804 1.71924C16.4211 1.85989 16.5001 2.05066 16.5001 2.24957V3.74957C16.5001 3.94849 16.4211 4.13925 16.2804 4.2799C16.1398 4.42056 15.949 4.49957 15.7501 4.49957ZM11.5074 6.25692C11.4089 6.25708 11.3114 6.23773 11.2204 6.2C11.1294 6.16227 11.0468 6.10689 10.9773 6.03707L9.91648 4.97676C9.77582 4.83609 9.69679 4.6453 9.69679 4.44637C9.69679 4.24743 9.77582 4.05665 9.91648 3.91598C10.0572 3.77531 10.2479 3.69628 10.4469 3.69628C10.6458 3.69628 10.8366 3.77531 10.9773 3.91598L12.0376 4.97676C12.1424 5.08165 12.2138 5.21525 12.2427 5.36069C12.2716 5.50613 12.2567 5.65688 12.2 5.79388C12.1433 5.93088 12.0472 6.04799 11.9239 6.13041C11.8006 6.21282 11.6557 6.25685 11.5074 6.25692ZM19.9927 6.25692C19.8445 6.25685 19.6995 6.21282 19.5762 6.13041C19.453 6.04799 19.3569 5.93088 19.3002 5.79388C19.2434 5.65688 19.2286 5.50613 19.2575 5.36069C19.2864 5.21525 19.3578 5.08165 19.4626 4.97676L20.5229 3.91598C20.6636 3.77531 20.8543 3.69628 21.0533 3.69628C21.2522 3.69628 21.443 3.77531 21.5837 3.91598C21.7243 4.05665 21.8034 4.24743 21.8034 4.44637C21.8034 4.6453 21.7243 4.83609 21.5837 4.97676L20.5229 6.03707C20.4534 6.10689 20.3708 6.16227 20.2798 6.2C20.1888 6.23773 20.0912 6.25708 19.9927 6.25692Z" fill="#666666"/>
</g>
<defs>
<clipPath id="clip0_32_2679">
<rect width="24" height="24" fill="white"/>
</clipPath>
</defs>
</svg>
