<svg width="24" height="24" viewBox="0 0 24 24" fill="none" xmlns="http://www.w3.org/2000/svg">
<g clip-path="url(#clip0_32_2677)">
<path d="M15.9375 22.4996H4.96876C3.58595 22.4996 2.39439 22.1325 1.52204 21.4383C0.526418 20.6452 1.14441e-05 19.4691 1.14441e-05 18.0371C1.14441e-05 16.7874 0.472512 15.7027 1.36595 14.9007C2.08032 14.2594 3.06142 13.8127 4.13158 13.6425C4.13439 13.6425 4.13532 13.6425 4.13579 13.6402C4.43767 11.8121 5.25282 10.261 6.49408 9.1552C7.70162 8.08421 9.26097 7.49491 10.875 7.49957C12.292 7.49957 13.6163 7.93973 14.7052 8.77317C15.6571 9.51212 16.3918 10.4946 16.8314 11.6166C18.21 11.8425 19.3964 12.4186 20.2622 13.2825C21.2344 14.2547 21.75 15.5485 21.75 17.0246C21.75 18.5644 21.1345 19.9716 20.0156 20.9865C18.9427 21.9624 17.4938 22.4996 15.9375 22.4996ZM17.8828 10.3069C18.6325 10.4983 19.3501 10.7984 20.0128 11.1975C20.3184 10.2993 20.3322 9.32739 20.0522 8.4208C19.7723 7.51421 19.213 6.7193 18.4542 6.14965C17.6954 5.58001 16.776 5.26479 15.8273 5.24903C14.8786 5.23327 13.9492 5.51779 13.1719 6.06192C13.0828 6.12442 12.9963 6.19004 12.9122 6.25879C13.8933 6.51531 14.8134 6.96521 15.6183 7.58207C16.5631 8.31404 17.3361 9.24413 17.8828 10.3069ZM21 8.99957H24V10.4996H21V8.99957ZM15 1.49957H16.5V4.49957H15V1.49957ZM11.9695 6.07598L12.5531 5.49239L10.4616 3.40035L9.40079 4.46114L10.9556 6.01598H10.9838C11.3133 6.01582 11.6425 6.03585 11.9695 6.07598ZM18.947 5.49192L21.0389 3.40012L22.0995 4.46081L20.0077 6.5526L18.947 5.49192Z" fill="#666666"/>
</g>
<defs>
<clipPath id="clip0_32_2677">
<rect width="24" height="24" fill="white"/>
</clipPath>
</defs>
</svg>
