<svg width="24" height="24" viewBox="0 0 24 24" fill="none" xmlns="http://www.w3.org/2000/svg">
<path d="M4.24732 14.385C4.40399 14.3607 4.549 14.2876 4.6617 14.1761C4.7744 14.0645 4.84903 13.9203 4.87498 13.7639C5.4417 10.3219 7.95139 8.2514 10.875 8.2514C13.5904 8.2514 15.404 10.0209 16.1344 11.8955C16.1813 12.0156 16.2587 12.1215 16.359 12.2026C16.4593 12.2837 16.5789 12.3373 16.7062 12.3581C19.05 12.7402 21 14.3053 21 17.0264C21 19.8108 18.7219 21.7514 15.9375 21.7514H4.96873C2.64842 21.7514 0.749979 20.5936 0.749979 18.0389C0.749979 15.7669 2.56264 14.6536 4.24732 14.385V14.385Z" stroke="#666666" stroke-width="1.5" stroke-linejoin="round"/>
<path d="M21.0534 4.44437L19.9926 5.50515M18.0375 12.7197C18.496 12.3661 18.8663 11.9111 19.1196 11.3904C19.3728 10.8698 19.5021 10.2975 19.4972 9.71854C19.4923 9.13957 19.3534 8.56959 19.0914 8.05326C18.8294 7.53694 18.4514 7.0883 17.987 6.7425C17.5226 6.3967 16.9844 6.16312 16.4147 6.06008C15.8449 5.95704 15.2591 5.98733 14.703 6.14858C14.1469 6.30983 13.6357 6.59766 13.2094 6.98951C12.7832 7.38136 12.4534 7.86659 12.2461 8.40718L18.0375 12.7197ZM21.75 9.7478H23.25H21.75ZM15.75 2.2478V3.7478V2.2478ZM10.4465 4.44437L11.5073 5.50515L10.4465 4.44437Z" stroke="#666666" stroke-width="1.5" stroke-linecap="round" stroke-linejoin="round"/>
</svg>
