<svg width="24" height="24" viewBox="0 0 24 24" fill="none" xmlns="http://www.w3.org/2000/svg">
<path d="M12 2.24872C6.62391 2.24872 2.25001 6.62262 2.25001 11.9987C2.25001 17.3748 6.62391 21.7487 12 21.7487C17.3761 21.7487 21.75 17.3748 21.75 11.9987C21.75 6.62262 17.3761 2.24872 12 2.24872ZM10.5 14.9987C10.5 15.1976 10.421 15.3884 10.2803 15.529C10.1397 15.6697 9.94892 15.7487 9.75001 15.7487C9.5511 15.7487 9.36033 15.6697 9.21968 15.529C9.07903 15.3884 9.00001 15.1976 9.00001 14.9987V8.99872C9.00001 8.79981 9.07903 8.60904 9.21968 8.46839C9.36033 8.32774 9.5511 8.24872 9.75001 8.24872C9.94892 8.24872 10.1397 8.32774 10.2803 8.46839C10.421 8.60904 10.5 8.79981 10.5 8.99872V14.9987ZM15 14.9987C15 15.1976 14.921 15.3884 14.7803 15.529C14.6397 15.6697 14.4489 15.7487 14.25 15.7487C14.0511 15.7487 13.8603 15.6697 13.7197 15.529C13.579 15.3884 13.5 15.1976 13.5 14.9987V8.99872C13.5 8.79981 13.579 8.60904 13.7197 8.46839C13.8603 8.32774 14.0511 8.24872 14.25 8.24872C14.4489 8.24872 14.6397 8.32774 14.7803 8.46839C14.921 8.60904 15 8.79981 15 8.99872V14.9987Z" fill="#666666"/>
</svg>
