<svg width="24" height="24" viewBox="0 0 24 24" fill="none" xmlns="http://www.w3.org/2000/svg">
<path d="M9.74994 20.2496H7.49994C7.30103 20.2496 7.11026 20.1706 6.96961 20.0299C6.82896 19.8893 6.74994 19.6985 6.74994 19.4996V4.49957C6.74994 4.30066 6.82896 4.1099 6.96961 3.96924C7.11026 3.82859 7.30103 3.74957 7.49994 3.74957H9.74994C9.94885 3.74957 10.1396 3.82859 10.2803 3.96924C10.4209 4.1099 10.4999 4.30066 10.4999 4.49957V19.4996C10.4999 19.6985 10.4209 19.8893 10.2803 20.0299C10.1396 20.1706 9.94885 20.2496 9.74994 20.2496ZM16.4999 20.2496H14.2499C14.051 20.2496 13.8603 20.1706 13.7196 20.0299C13.579 19.8893 13.4999 19.6985 13.4999 19.4996V4.49957C13.4999 4.30066 13.579 4.1099 13.7196 3.96924C13.8603 3.82859 14.051 3.74957 14.2499 3.74957H16.4999C16.6989 3.74957 16.8896 3.82859 17.0303 3.96924C17.1709 4.1099 17.2499 4.30066 17.2499 4.49957V19.4996C17.2499 19.6985 17.1709 19.8893 17.0303 20.0299C16.8896 20.1706 16.6989 20.2496 16.4999 20.2496Z" fill="#666666"/>
</svg>
