<svg width="24" height="24" viewBox="0 0 24 24" fill="none" xmlns="http://www.w3.org/2000/svg">
<path d="M21.4566 7.97033C21.29 7.90479 21.1125 7.87139 20.9334 7.87189H20.9147C19.9692 7.88595 18.9089 8.77142 18.3525 10.1106C17.6855 11.7128 17.9925 13.352 19.0434 13.7735C19.2099 13.839 19.3872 13.8724 19.5661 13.8719C20.5163 13.8719 21.5911 12.9813 22.1522 11.6331C22.8145 10.031 22.5028 8.39173 21.4566 7.97033V7.97033ZM15.3563 14.2225C14.0531 12.0602 13.4906 11.2469 12 11.2469C10.5094 11.2469 9.94219 12.0653 8.63906 14.2225C7.52344 16.0675 5.26875 16.2213 4.70625 17.7883C4.59213 18.0753 4.53482 18.3818 4.5375 18.6906C4.5375 19.9652 5.5125 20.9969 6.7125 20.9969C8.20313 20.9969 10.2328 19.8067 12.0047 19.8067C13.7766 19.8067 15.7969 20.9969 17.2875 20.9969C18.4875 20.9969 19.4578 19.9656 19.4578 18.6906C19.4589 18.3815 19.4 18.075 19.2844 17.7883C18.7219 16.2156 16.4719 16.0675 15.3563 14.2225ZM9.02391 9.18439C9.08667 9.18444 9.14935 9.17974 9.21141 9.17033C10.2994 9.01236 10.9786 7.50486 10.732 5.80236C10.5 4.19736 9.52594 2.99689 8.50734 2.99689C8.44458 2.99684 8.3819 3.00154 8.31984 3.01095C7.23188 3.16892 6.55266 4.67642 6.79922 6.37892C7.03125 7.97923 8.00531 9.18439 9.02391 9.18439ZM17.1994 6.37892C17.4459 4.67642 16.7667 3.16892 15.6788 3.01095C15.6167 3.00154 15.554 2.99684 15.4913 2.99689C14.4727 2.99689 13.5005 4.19736 13.268 5.80236C13.0214 7.50486 13.7006 9.01236 14.7886 9.17033C14.8507 9.17974 14.9133 9.18444 14.9761 9.18439C15.9947 9.18439 16.9688 7.97923 17.1994 6.37892V6.37892ZM4.95797 13.7735C6.0075 13.3516 6.31406 11.711 5.64797 10.1106C5.08734 8.76251 4.01344 7.87189 3.06469 7.87189C2.88582 7.8714 2.70847 7.9048 2.54203 7.97033C1.4925 8.3922 1.18594 10.0328 1.85203 11.6331C2.41266 12.9813 3.48656 13.8719 4.43531 13.8719C4.61419 13.8724 4.79153 13.839 4.95797 13.7735V13.7735Z" stroke="#666666" stroke-width="1.5" stroke-miterlimit="10"/>
</svg>
