<svg width="24" height="24" viewBox="0 0 24 24" fill="none" xmlns="http://www.w3.org/2000/svg">
<path d="M20.7563 16.9563C20.3438 15.7797 19.3824 15.1835 18.4542 14.6069C17.6466 14.1049 16.8839 13.6305 16.3852 12.7788C15.0103 10.4196 14.2552 8.99597 12.0028 8.99597C9.75048 8.99597 8.99298 10.42 7.61485 12.7783C7.11563 13.6319 6.34923 14.1072 5.54063 14.6102C4.61251 15.1872 3.65298 15.7821 3.23907 16.9563C3.07798 17.3797 2.99692 17.8294 3.00001 18.2824C3.00001 20.1921 4.5211 21.746 6.20626 21.746C7.89141 21.746 10.1114 20.8961 12.0075 20.8961C13.9036 20.8961 16.0927 21.746 17.7989 21.746C19.5052 21.746 21 20.1921 21 18.2824C21.0013 17.8291 20.9187 17.3795 20.7563 16.9563Z" fill="#666666"/>
<path d="M3.37498 13.4969C4.82473 13.4969 5.99998 11.9858 5.99998 10.1219C5.99998 8.25793 4.82473 6.74689 3.37498 6.74689C1.92523 6.74689 0.749979 8.25793 0.749979 10.1219C0.749979 11.9858 1.92523 13.4969 3.37498 13.4969Z" fill="#666666"/>
<path d="M8.62504 8.99872C10.0748 8.99872 11.25 7.48768 11.25 5.62372C11.25 3.75976 10.0748 2.24872 8.62504 2.24872C7.17529 2.24872 6.00004 3.75976 6.00004 5.62372C6.00004 7.48768 7.17529 8.99872 8.62504 8.99872Z" fill="#666666"/>
<path d="M15.375 8.99872C16.8248 8.99872 18 7.48768 18 5.62372C18 3.75976 16.8248 2.24872 15.375 2.24872C13.9253 2.24872 12.75 3.75976 12.75 5.62372C12.75 7.48768 13.9253 8.99872 15.375 8.99872Z" fill="#666666"/>
<path d="M20.6251 13.4969C22.0748 13.4969 23.2501 11.9858 23.2501 10.1219C23.2501 8.25793 22.0748 6.74689 20.6251 6.74689C19.1753 6.74689 18.0001 8.25793 18.0001 10.1219C18.0001 11.9858 19.1753 13.4969 20.6251 13.4969Z" fill="#666666"/>
</svg>
