<svg width="24" height="24" viewBox="0 0 24 24" fill="none" xmlns="http://www.w3.org/2000/svg">
<path d="M22.9872 8.56155C22.727 7.94327 22.2948 7.49748 21.737 7.27295L21.7295 7.27014C21.4756 7.1707 21.2053 7.11981 20.9326 7.12014H20.9026C19.6257 7.13936 18.3222 8.22452 17.6593 9.82061C17.1732 10.9878 17.1175 12.2431 17.5103 13.1787C17.77 13.7975 18.2031 14.2433 18.7632 14.4678L18.7693 14.4701C19.0233 14.5695 19.2935 14.6204 19.5662 14.6201C20.8553 14.6201 22.1725 13.535 22.8475 11.9178C23.3275 10.752 23.3804 9.49764 22.9872 8.56155ZM17.8853 15.4456C17.1489 15.0031 16.4528 14.5845 15.9981 13.8326C14.7437 11.7514 13.9862 10.4951 12.0001 10.4951C10.014 10.4951 9.25465 11.7514 7.99746 13.8326C7.54184 14.5855 6.84434 15.0045 6.10559 15.4489C5.25855 15.958 4.3834 16.4839 4.00559 17.5189C3.85871 17.892 3.78472 18.2898 3.78762 18.6908C3.78762 20.3759 5.10012 21.747 6.71262 21.747C7.54465 21.747 8.43012 21.4587 9.36715 21.1536C10.2681 20.8601 11.1995 20.5569 12.0048 20.5569C12.8101 20.5569 13.7392 20.8601 14.6368 21.1536C15.572 21.4569 16.4532 21.7451 17.2876 21.7451C18.8978 21.7451 20.2079 20.3741 20.2079 18.6889C20.2093 18.2876 20.1337 17.8898 19.9853 17.517C19.6075 16.4811 18.7318 15.9547 17.8853 15.4456ZM7.03137 8.84749C7.58918 9.54733 8.29699 9.93264 9.02449 9.93264C9.12381 9.93264 9.22299 9.92527 9.32121 9.91061C10.8386 9.68749 11.784 7.83592 11.4737 5.69186C11.3439 4.79045 10.997 3.95092 10.5001 3.32842C9.94324 2.62998 9.23449 2.24514 8.50746 2.24514C8.40815 2.24514 8.30897 2.25251 8.21074 2.26717C6.6934 2.4903 5.74793 4.34186 6.05824 6.48592C6.18762 7.38592 6.53449 8.22452 7.03137 8.84749ZM14.6795 9.91061C14.7777 9.92527 14.8769 9.93264 14.9762 9.93264C15.7042 9.93264 16.4115 9.54733 16.9693 8.84749C17.4657 8.22452 17.8107 7.38592 17.942 6.48498C18.2523 4.34186 17.3068 2.4903 15.7895 2.26623C15.6913 2.25157 15.5921 2.2442 15.4928 2.2442C14.7657 2.24514 14.057 2.62998 13.5001 3.32842C13.0032 3.95092 12.6564 4.79045 12.527 5.6928C12.2167 7.83592 13.1622 9.68749 14.6795 9.91061ZM5.2309 14.4701L5.23746 14.4678C5.79668 14.2433 6.22934 13.798 6.48855 13.1797C6.88137 12.2422 6.82606 10.9883 6.3409 9.82108C5.66918 8.20577 4.35246 7.12014 3.0648 7.12014C2.79212 7.11975 2.5218 7.17063 2.26793 7.27014L2.26137 7.27248C1.70355 7.49514 1.2709 7.94233 1.01168 8.56061C0.618866 9.49811 0.674179 10.752 1.15933 11.9192C1.83105 13.5345 3.14777 14.6201 4.43543 14.6201C4.70764 14.6204 4.97746 14.5695 5.2309 14.4701Z" fill="#666666"/>
</svg>
