<svg width="24" height="24" viewBox="0 0 24 24" fill="none" xmlns="http://www.w3.org/2000/svg">
<path d="M16.8103 6.06032L4.05422 18.8478L3.28125 20.7191L5.1525 19.9461L17.94 7.19001L16.8103 6.06032ZM19.3627 3.50844L18.81 4.06063L19.9397 5.19032L20.4923 4.63766C20.6374 4.49254 20.7188 4.29578 20.7188 4.09063C20.7188 3.88548 20.6374 3.68872 20.4923 3.5436L20.4572 3.50844C20.3853 3.43657 20.3 3.37956 20.2061 3.34066C20.1122 3.30176 20.0116 3.28174 19.9099 3.28174C19.8083 3.28174 19.7076 3.30176 19.6137 3.34066C19.5198 3.37956 19.4345 3.43657 19.3627 3.50844Z" stroke="#666666" stroke-width="2.0625" stroke-linecap="round" stroke-linejoin="round"/>
</svg>
