<svg width="24" height="24" viewBox="0 0 24 24" fill="none" xmlns="http://www.w3.org/2000/svg">
<path d="M15.7501 11.996C14.7863 11.996 13.8544 11.5657 13.1251 10.7847C12.4158 10.023 11.9827 9.00722 11.9063 7.92535C11.8248 6.77128 12.1768 5.71003 12.8973 4.9366C13.6177 4.16316 14.6251 3.74597 15.7501 3.74597C16.8671 3.74597 17.8773 4.17066 18.5954 4.94222C19.3205 5.72128 19.6735 6.78066 19.5919 7.92488C19.5137 9.00816 19.081 10.0235 18.3732 10.7843C17.6457 11.5657 16.7143 11.996 15.7501 11.996ZM21.9296 20.246H9.571C9.37231 20.247 9.17601 20.2025 8.99723 20.1158C8.81845 20.0291 8.66194 19.9025 8.53975 19.7458C8.41015 19.576 8.32064 19.379 8.27794 19.1696C8.23524 18.9603 8.24046 18.744 8.29319 18.5369C8.68788 16.9521 9.66569 15.6377 11.1207 14.7363C12.4121 13.9366 14.056 13.496 15.7501 13.496C17.4774 13.496 19.0782 13.9178 20.3771 14.7171C21.8354 15.6138 22.8146 16.9357 23.2074 18.5397C23.2595 18.7469 23.2641 18.9632 23.221 19.1725C23.1778 19.3817 23.0879 19.5785 22.958 19.7482C22.836 19.9041 22.6798 20.0301 22.5016 20.1164C22.3233 20.2027 22.1276 20.247 21.9296 20.246ZM6.89069 12.1835C5.24116 12.1835 3.79085 10.6497 3.65632 8.76488C3.58975 7.79925 3.89069 6.90628 4.50007 6.25144C5.10288 5.60316 5.95319 5.24597 6.89069 5.24597C7.82819 5.24597 8.67194 5.60503 9.27804 6.25707C9.8921 6.91707 10.1921 7.80816 10.1218 8.76582C9.98725 10.6502 8.53741 12.1835 6.89069 12.1835ZM9.9685 13.6577C9.14397 13.2546 8.07382 13.053 6.89116 13.053C5.51022 13.053 4.16913 13.413 3.11444 14.0664C1.91866 14.8085 1.11428 15.8889 0.78944 17.1935C0.741902 17.3811 0.737405 17.5771 0.776287 17.7667C0.81517 17.9563 0.896423 18.1347 1.01397 18.2885C1.12551 18.4317 1.2684 18.5474 1.43166 18.6267C1.59492 18.706 1.77419 18.7468 1.95569 18.746H7.15882C7.24664 18.746 7.33167 18.7151 7.39908 18.6588C7.4665 18.6026 7.51202 18.5244 7.52772 18.438C7.53288 18.4085 7.53944 18.3789 7.54694 18.3499C7.94444 16.7533 8.87585 15.4043 10.2521 14.4208C10.3027 14.3843 10.3434 14.3358 10.3706 14.2796C10.3977 14.2234 10.4103 14.1613 10.4074 14.099C10.4045 14.0367 10.386 13.976 10.3538 13.9226C10.3215 13.8692 10.2764 13.8247 10.2226 13.7932C10.149 13.75 10.0646 13.7046 9.9685 13.6577Z" fill="#666666"/>
</svg>
