<svg width="24" height="24" viewBox="0 0 24 24" fill="none" xmlns="http://www.w3.org/2000/svg">
<path d="M12.0001 2.24957C6.62398 2.24957 2.25007 6.62348 2.25007 11.9996C2.25007 17.3757 6.62398 21.7496 12.0001 21.7496C17.3762 21.7496 21.7501 17.3757 21.7501 11.9996C21.7501 6.62348 17.3762 2.24957 12.0001 2.24957ZM15.2485 6.75754C15.9205 6.75847 16.577 6.95857 17.1353 7.33256C17.6936 7.70655 18.1284 8.23763 18.3849 8.8587C18.6414 9.47976 18.708 10.1629 18.5764 10.8219C18.4447 11.4808 18.1207 12.0859 17.6452 12.5607C17.1698 13.0355 16.5642 13.3587 15.9051 13.4895C15.246 13.6202 14.5629 13.5526 13.9422 13.2953C13.3215 13.0379 12.791 12.6023 12.4178 12.0436C12.0446 11.4848 11.8454 10.8279 11.8454 10.156C11.8457 9.70938 11.934 9.26722 12.1051 8.85474C12.2763 8.44225 12.5271 8.06752 12.8431 7.75195C13.1591 7.43638 13.5342 7.18613 13.9469 7.01551C14.3596 6.84489 14.8019 6.75723 15.2485 6.75754ZM7.97819 7.99317C8.52799 7.99391 9.06523 8.15762 9.522 8.46361C9.97878 8.7696 10.3346 9.20413 10.5445 9.71229C10.7544 10.2204 10.8089 10.7794 10.7012 11.3186C10.5935 11.8577 10.3283 12.3528 9.93932 12.7413C9.55029 13.1298 9.05483 13.3943 8.51554 13.5013C7.97625 13.6082 7.41736 13.553 6.90948 13.3424C6.40161 13.1318 5.96755 12.7754 5.66218 12.3182C5.35681 11.861 5.19382 11.3236 5.19382 10.7738C5.194 10.4084 5.26618 10.0466 5.40622 9.70904C5.54626 9.37152 5.75142 9.0649 6.00998 8.80668C6.26855 8.54846 6.57545 8.34371 6.91316 8.20413C7.25087 8.06454 7.61277 7.99286 7.97819 7.99317ZM4.42272 15.2588C5.57116 14.6358 7.04163 14.3241 7.97819 14.3241C8.68132 14.3241 9.58694 14.4647 10.478 14.8022C9.88069 15.1356 9.34225 15.5649 8.88429 16.073C8.26601 16.7761 7.91116 17.6161 7.91116 18.4557V19.1588C6.35864 18.2695 5.13503 16.9024 4.42272 15.2611V15.2588ZM12.0001 20.2496C11.0509 20.2504 10.1088 20.0865 9.21569 19.7654V18.4974C9.21569 16.0322 13.2352 14.79 15.2485 14.79C16.3266 14.79 17.9851 15.1477 19.2896 15.8593C18.5876 17.1839 17.5382 18.2924 16.254 19.0658C14.9698 19.8393 13.4992 20.2485 12.0001 20.2496Z" fill="#666666"/>
</svg>
