<svg width="24" height="24" viewBox="0 0 24 24" fill="none" xmlns="http://www.w3.org/2000/svg">
<path d="M12.1358 2.25048C6.65241 2.17642 2.17585 6.65298 2.24991 12.1364C2.32304 17.3953 6.60507 21.6774 11.864 21.7505C17.3484 21.8255 21.824 17.3489 21.749 11.8655C21.6768 6.60564 17.3948 2.3236 12.1358 2.25048ZM11.9633 9.38064C11.9732 9.32439 11.984 9.26814 11.9966 9.21236C12.115 8.66492 12.3788 8.15953 12.7602 7.74939C13.3644 7.10579 14.2208 6.75048 15.1719 6.75048C15.5721 6.74884 15.9695 6.81639 16.3466 6.95017C16.8154 7.11708 17.2376 7.39349 17.578 7.75642C18.0789 8.29773 18.377 8.99564 18.4218 9.73173C18.4347 9.90962 18.4347 10.0882 18.4218 10.2661C18.3857 10.7703 18.2553 11.2632 18.0374 11.7192C18.0137 11.7689 17.9888 11.8181 17.9629 11.8669C17.9108 11.9639 17.8551 12.0591 17.7951 12.1509C17.6756 12.3344 17.5403 12.5069 17.3905 12.6666C16.7755 13.3228 15.988 13.6852 15.1729 13.6852C14.8672 13.685 14.5636 13.6346 14.2743 13.5361C14.1771 13.5031 14.0816 13.4651 13.9884 13.4222C13.5977 13.2399 13.2463 12.9833 12.9538 12.6666C12.345 12.0063 11.9811 11.1572 11.9226 10.261C11.9141 10.1397 11.9113 10.0197 11.9141 9.90095C11.9178 9.72685 11.9342 9.55326 11.9633 9.38157V9.38064ZM4.94475 10.5216C4.96756 10.1871 5.05012 9.85943 5.1885 9.55407C5.22754 9.46903 5.27104 9.3861 5.31882 9.30564C5.41437 9.14435 5.5274 8.99407 5.65585 8.85751C5.84613 8.65451 6.06769 8.48329 6.3121 8.35032C6.43417 8.28361 6.56128 8.22656 6.69226 8.1797C7.19415 8.00416 7.73374 7.96549 8.25554 8.06767C8.80843 8.17461 9.31341 8.45351 9.69835 8.86454C10.1551 9.35763 10.4125 10.0028 10.4207 10.6749C10.423 10.7738 10.4207 10.8731 10.4137 10.9739C10.3851 11.3599 10.2899 11.7379 10.1324 12.0914C10.057 12.2616 9.96714 12.425 9.86382 12.5799C9.6651 12.8801 9.41503 13.1431 9.12507 13.3566C9.05476 13.4067 8.98163 13.4536 8.90616 13.5005C8.75773 13.5889 8.60067 13.6619 8.43741 13.7185C8.19331 13.8037 7.93662 13.8475 7.67804 13.8478C7.63444 13.8478 7.59085 13.8478 7.54772 13.8441C7.46161 13.8394 7.37584 13.8297 7.29085 13.815C7.20628 13.8003 7.12257 13.781 7.04007 13.7574C6.91614 13.7216 6.79516 13.6763 6.67819 13.6219C6.63882 13.6036 6.60038 13.5844 6.56194 13.5642C5.71819 13.1194 5.0821 12.1974 4.95741 11.1211C4.95179 11.0719 4.9471 11.0227 4.94382 10.973C4.93323 10.8227 4.93355 10.6718 4.94475 10.5216ZM7.47225 18.8934C6.22419 18.0708 5.22114 16.9267 4.56882 15.5817C4.54751 15.5387 4.54351 15.4892 4.55764 15.4433C4.57177 15.3974 4.60294 15.3587 4.64475 15.3352C5.51569 14.8453 6.62804 14.5786 7.67897 14.5786C8.47585 14.5786 9.11804 14.6724 9.68007 14.8542C9.74379 14.8752 9.80071 14.9129 9.84491 14.9633C9.88911 15.0138 9.91897 15.0752 9.93137 15.1411C9.94377 15.207 9.93826 15.2751 9.91541 15.3382C9.89256 15.4012 9.85322 15.457 9.80147 15.4997C8.70694 16.3903 8.00147 17.4938 7.67007 18.8161C7.66511 18.8363 7.65536 18.8551 7.64164 18.8707C7.62792 18.8864 7.61063 18.8985 7.59124 18.9061C7.57184 18.9137 7.55091 18.9165 7.5302 18.9143C7.50949 18.9121 7.48962 18.905 7.47225 18.8934ZM11.9999 20.2505C10.9446 20.2515 9.89891 20.0491 8.92022 19.6542C8.88023 19.6377 8.84718 19.6079 8.82667 19.5698C8.80617 19.5317 8.79947 19.4876 8.80772 19.4452C8.82647 19.3491 8.8471 19.2614 8.86538 19.1883C9.19913 17.8556 10.026 16.7508 11.256 15.9924C12.3477 15.3197 13.7404 14.9494 15.171 14.9494C16.6316 14.9494 17.9835 15.3047 19.0841 15.9764C19.1122 15.994 19.1323 16.0217 19.1402 16.0538C19.1482 16.0859 19.1434 16.1198 19.1268 16.1484C18.401 17.3954 17.361 18.4303 16.1105 19.1501C14.86 19.8698 13.4427 20.2492 11.9999 20.2505Z" fill="#666666"/>
<path d="M7.54691 13.8377C7.4608 13.833 7.37503 13.8233 7.29004 13.8086C7.37503 13.8233 7.4608 13.833 7.54691 13.8377ZM6.31129 8.34626C6.06688 8.47923 5.84532 8.65045 5.65504 8.85345C5.52659 8.99 5.41356 9.14028 5.31801 9.30158C5.41356 9.14028 5.52659 8.99 5.65504 8.85345C5.84532 8.65045 6.06688 8.47923 6.31129 8.34626ZM10.133 12.085C10.2905 11.7315 10.3857 11.3534 10.4143 10.9675C10.4213 10.8667 10.4236 10.7674 10.4213 10.6685C10.4238 10.7669 10.4214 10.8666 10.4143 10.9675C10.3857 11.3534 10.2905 11.7315 10.133 12.085ZM6.31129 8.34626C6.43336 8.27955 6.56047 8.2225 6.69144 8.17564C6.56047 8.2225 6.43336 8.27955 6.31129 8.34626ZM7.04113 13.751C6.91721 13.7152 6.79622 13.6699 6.67926 13.6155C6.79622 13.6699 6.91721 13.7152 7.04113 13.751ZM4.95848 11.1147C5.08316 12.1928 5.72066 13.113 6.56301 13.5578C5.71879 13.113 5.08316 12.191 4.95848 11.1147ZM11.9222 10.262C11.9807 11.1583 12.3447 12.0073 12.9535 12.6677C13.2459 12.9844 13.5973 13.241 13.988 13.4233C13.5973 13.241 13.2459 12.9844 12.9535 12.6677C12.3447 12.0073 11.9807 11.1583 11.9222 10.262C11.9138 10.1408 11.911 10.0208 11.9138 9.90204C11.911 10.0192 11.9138 10.1392 11.9222 10.262ZM14.2735 13.5349C14.1763 13.5018 14.0808 13.4638 13.9875 13.421C14.0808 13.4638 14.1763 13.5018 14.2735 13.5349ZM11.9968 9.20923C12.1152 8.6618 12.3789 8.15641 12.7604 7.74626C12.3789 8.15641 12.1152 8.6618 11.9968 9.20923ZM17.5782 7.75236C18.079 8.29367 18.3771 8.99158 18.4219 9.72767C18.3771 8.99158 18.079 8.29367 17.5782 7.75236C17.2377 7.38943 16.8155 7.11302 16.3468 6.94611C16.8155 7.11302 17.2377 7.38943 17.5782 7.75236ZM18.4219 10.262C18.3858 10.7662 18.2554 11.2591 18.0375 11.7152C18.2554 11.2591 18.3858 10.7662 18.4219 10.262ZM11.9138 9.8997C11.9174 9.72465 11.934 9.55011 11.9635 9.37751C11.934 9.55011 11.9174 9.72465 11.9138 9.8997ZM9.69754 8.85814C10.1543 9.35122 10.4117 9.99635 10.4199 10.6685C10.4117 9.99635 10.1543 9.35122 9.69754 8.85814C9.3126 8.4471 8.80762 8.1682 8.25473 8.06126C8.80762 8.1682 9.3126 8.4471 9.69754 8.85814ZM8.90629 13.4964C8.75785 13.5848 8.60079 13.6579 8.43754 13.7144C8.60079 13.6579 8.75785 13.5848 8.90629 13.4964ZM4.94488 10.5175C4.96769 10.183 5.05025 9.85537 5.18863 9.55001C5.05025 9.85537 4.96769 10.183 4.94488 10.5175ZM9.12566 13.3502C9.05488 13.4027 8.98176 13.4495 8.90629 13.4964C8.98176 13.4495 9.05488 13.4027 9.12566 13.3502ZM10.133 12.085C10.0576 12.2552 9.96774 12.4186 9.86441 12.5735C9.96774 12.4186 10.0576 12.2552 10.133 12.085ZM5.18863 9.55001C5.22767 9.46497 5.27117 9.38204 5.31894 9.30158C5.27117 9.38204 5.22767 9.46497 5.18863 9.55001ZM9.12566 13.3502C9.41562 13.1367 9.6657 12.8737 9.86441 12.5735C9.6657 12.8737 9.41562 13.1367 9.12566 13.3502Z" fill="#666666"/>
</svg>
