<svg width="24" height="24" viewBox="0 0 24 24" fill="none" xmlns="http://www.w3.org/2000/svg">
<path d="M12 21.7496C6.62391 21.7496 2.25001 17.3757 2.25001 11.9996C2.25001 6.62348 6.62391 2.24957 12 2.24957C17.3761 2.24957 21.75 6.62348 21.75 11.9996C21.75 17.3757 17.3761 21.7496 12 21.7496ZM12 3.74957C7.45313 3.74957 3.75001 7.4527 3.75001 11.9996C3.75001 16.5464 7.45313 20.2496 12 20.2496C16.5469 20.2496 20.25 16.5488 20.25 11.9996C20.25 7.45035 16.5492 3.74957 12 3.74957Z" fill="#666666"/>
<path d="M15.172 13.6853C14.3564 13.6853 13.5684 13.3234 12.953 12.6667C12.3442 12.0064 11.9802 11.1573 11.9217 10.2611C11.8528 9.29077 12.1505 8.3978 12.7598 7.74765C13.3692 7.09749 14.2209 6.7478 15.172 6.7478C16.1161 6.7478 16.9706 7.10499 17.5781 7.75374C18.1856 8.40249 18.4908 9.30062 18.4219 10.262C18.3623 11.1577 17.9984 12.0061 17.3906 12.6667C16.7747 13.3234 15.9872 13.6853 15.172 13.6853ZM7.67905 13.8428C6.28405 13.8428 5.05733 12.5533 4.94483 10.968C4.88718 10.1561 5.13936 9.40562 5.65593 8.85483C6.17249 8.30405 6.88499 8.01108 7.67858 8.01108C8.47218 8.01108 9.18421 8.31296 9.69749 8.8614C10.2108 9.40983 10.4709 10.1655 10.4123 10.9708C10.298 12.5537 9.07171 13.8428 7.67905 13.8428ZM19.7048 16.6516C19.6303 16.4312 19.4489 16.1964 19.0851 15.9737C17.9855 15.302 16.6326 14.9467 15.172 14.9467C13.7391 14.9467 12.3487 15.317 11.2566 15.9897C10.0261 16.7476 9.19921 17.853 8.86593 19.1856C8.78718 19.4992 8.67233 20.0828 8.79514 20.4095C10.766 21.159 12.9373 21.1934 14.9309 20.5067C16.9245 19.82 18.6141 18.4558 19.7053 16.6516H19.7048ZM7.67014 18.812C8.00155 17.4897 8.70702 16.3872 9.80155 15.4956C9.8533 15.4529 9.89264 15.3971 9.91549 15.3341C9.93833 15.271 9.94385 15.203 9.93145 15.137C9.91905 15.0711 9.88919 15.0097 9.84499 14.9593C9.80079 14.9088 9.74386 14.8711 9.68014 14.8501C9.11764 14.6706 8.47546 14.5745 7.67905 14.5745C6.56249 14.5745 5.37702 14.8769 4.48499 15.4262C4.23186 15.5823 3.98343 15.6423 3.79218 15.6958C4.56002 17.3928 5.83339 18.8113 7.43811 19.757L7.52202 19.7505C7.54037 19.4335 7.58998 19.1192 7.67014 18.812Z" fill="#666666"/>
</svg>
