<svg width="24" height="24" viewBox="0 0 24 24" fill="none" xmlns="http://www.w3.org/2000/svg">
<path d="M18.8437 7.87372C18.7064 9.78013 17.2922 11.2487 15.75 11.2487C14.2078 11.2487 12.7912 9.78059 12.6562 7.87372C12.5156 5.89044 13.8923 4.49872 15.75 4.49872C17.6076 4.49872 18.9844 5.92653 18.8437 7.87372Z" stroke="#666666" stroke-width="1.5" stroke-linecap="round" stroke-linejoin="round"/>
<path d="M15.75 14.2478C12.6951 14.2478 9.75748 15.7651 9.02154 18.7201C8.92404 19.1111 9.1692 19.4978 9.57092 19.4978H21.9295C22.3312 19.4978 22.575 19.1111 22.4789 18.7201C21.7429 15.7178 18.8053 14.2478 15.75 14.2478Z" stroke="#666666" stroke-width="1.5" stroke-miterlimit="10"/>
<path d="M9.37511 8.71557C9.26542 10.2381 8.1226 11.4371 6.89073 11.4371C5.65885 11.4371 4.51417 10.2385 4.40635 8.71557C4.29432 7.13167 5.40667 5.99963 6.89073 5.99963C8.37479 5.99963 9.48714 7.16073 9.37511 8.71557Z" stroke="#666666" stroke-width="1.5" stroke-linecap="round" stroke-linejoin="round"/>
<path d="M9.65631 14.3428C8.81022 13.9552 7.87834 13.8061 6.89069 13.8061C4.45319 13.8061 2.10475 15.0178 1.51647 17.378C1.43912 17.6902 1.63506 17.9991 1.95569 17.9991H7.21881" stroke="#666666" stroke-width="1.5" stroke-miterlimit="10" stroke-linecap="round"/>
</svg>
