<svg width="24" height="24" viewBox="0 0 24 24" fill="none" xmlns="http://www.w3.org/2000/svg">
<path d="M7.12489 12.0014C8.98885 12.0014 10.4999 10.4904 10.4999 8.6264C10.4999 6.76244 8.98885 5.2514 7.12489 5.2514C5.26093 5.2514 3.74989 6.76244 3.74989 8.6264C3.74989 10.4904 5.26093 12.0014 7.12489 12.0014Z" fill="#666666"/>
<path d="M10.9688 13.8737C9.64881 13.2034 8.19193 12.9362 7.12506 12.9362C5.03537 12.9362 0.750057 14.2178 0.750057 16.78V18.7487H7.78131V17.9954C7.78131 17.1048 8.15631 16.2118 8.81256 15.4675C9.33615 14.8731 10.0693 14.3214 10.9688 13.8737Z" fill="#666666"/>
<path d="M15.9375 13.4996C13.4967 13.4996 8.625 15.0071 8.625 17.9996V20.2496H23.25V17.9996C23.25 15.0071 18.3783 13.4996 15.9375 13.4996Z" fill="#666666"/>
<path d="M15.9374 11.996C18.2156 11.996 20.0624 10.1491 20.0624 7.87097C20.0624 5.5928 18.2156 3.74597 15.9374 3.74597C13.6593 3.74597 11.8124 5.5928 11.8124 7.87097C11.8124 10.1491 13.6593 11.996 15.9374 11.996Z" fill="#666666"/>
</svg>
