<svg width="24" height="24" viewBox="0 0 24 24" fill="none" xmlns="http://www.w3.org/2000/svg">
<path d="M13.5 11.9978C15.9745 11.9978 18.1608 9.66765 18.375 6.80312C18.4814 5.36405 18.03 4.02202 17.1037 3.02499C16.1873 2.04015 14.9062 1.4978 13.5 1.4978C12.0825 1.4978 10.8004 2.03687 9.89061 3.01562C8.97045 4.00515 8.52186 5.34999 8.62498 6.80218C8.83545 9.66718 11.0212 11.9978 13.5 11.9978ZM23.2209 20.6116C22.8253 18.4169 21.5901 16.5733 19.6495 15.2795C17.9259 14.1306 15.742 13.4978 13.5 13.4978C11.2579 13.4978 9.07404 14.1306 7.35045 15.2791C5.40982 16.5728 4.17467 18.4164 3.77904 20.6111C3.68857 21.1141 3.81139 21.6114 4.11607 21.9756C4.25427 22.1416 4.42779 22.2746 4.62397 22.365C4.82014 22.4553 5.03402 22.5007 5.24998 22.4978H21.75C21.9661 22.5009 22.1801 22.4556 22.3764 22.3654C22.5728 22.2751 22.7465 22.1421 22.8848 21.9761C23.1886 21.6119 23.3114 21.1145 23.2209 20.6116ZM6.74998 10.1228H1.49998C1.30107 10.1228 1.1103 10.2018 0.969649 10.3425C0.828997 10.4831 0.749979 10.6739 0.749979 10.8728C0.749979 11.0717 0.828997 11.2625 0.969649 11.4031C1.1103 11.5438 1.30107 11.6228 1.49998 11.6228H6.74998C6.94889 11.6228 7.13966 11.5438 7.28031 11.4031C7.42096 11.2625 7.49998 11.0717 7.49998 10.8728C7.49998 10.6739 7.42096 10.4831 7.28031 10.3425C7.13966 10.2018 6.94889 10.1228 6.74998 10.1228Z" fill="#666666"/>
</svg>
