<svg width="24" height="24" viewBox="0 0 24 24" fill="none" xmlns="http://www.w3.org/2000/svg">
<g clip-path="url(#clip0_32_2734)">
<path d="M4.96871 14.246V11.7147H7.49996V10.0272H4.96871V7.49597H3.28121V10.0272H0.749962V11.7147H3.28121V14.246H4.96871Z" fill="#666666"/>
<path d="M13.5 11.9969C16.3995 11.9969 18.75 9.64638 18.75 6.74689C18.75 3.84739 16.3995 1.49689 13.5 1.49689C10.6005 1.49689 8.24996 3.84739 8.24996 6.74689C8.24996 9.64638 10.6005 11.9969 13.5 11.9969Z" fill="#666666"/>
<path d="M13.5001 13.4996C10.246 13.4996 3.75008 15.5096 3.75008 19.4996V22.4996H23.2501V19.4996C23.2501 15.5096 16.7541 13.4996 13.5001 13.4996Z" fill="#666666"/>
</g>
<defs>
<clipPath id="clip0_32_2734">
<rect width="24" height="24" fill="white" transform="translate(0.00012207 -0.00390625)"/>
</clipPath>
</defs>
</svg>
