<svg width="24" height="24" viewBox="0 0 24 24" fill="none" xmlns="http://www.w3.org/2000/svg">
<path d="M15.5925 3.02499C14.6803 2.04015 13.4063 1.4978 12 1.4978C10.5863 1.4978 9.30797 2.03687 8.4 3.01562C7.48219 4.00515 7.035 5.34999 7.14 6.80218C7.34813 9.66718 9.52828 11.9978 12 11.9978C14.4717 11.9978 16.6481 9.66765 16.8595 6.80312C16.9659 5.36405 16.5159 4.02202 15.5925 3.02499ZM20.25 22.4978H3.75C3.53403 22.5006 3.32015 22.4552 3.12392 22.365C2.92769 22.2747 2.75405 22.1419 2.61563 21.9761C2.31094 21.6119 2.18813 21.1145 2.27906 20.6116C2.67469 18.4169 3.90938 16.5733 5.85 15.2791C7.57407 14.1301 9.75797 13.4978 12 13.4978C14.242 13.4978 16.4259 14.1306 18.15 15.2791C20.0906 16.5728 21.3253 18.4164 21.7209 20.6111C21.8119 21.1141 21.6891 21.6114 21.3844 21.9756C21.246 22.1415 21.0724 22.2745 20.8761 22.3648C20.6799 22.4551 20.466 22.5006 20.25 22.4978Z" fill="#666666"/>
</svg>
