<svg width="24" height="24" viewBox="0 0 24 24" fill="none" xmlns="http://www.w3.org/2000/svg">
<path d="M17.6251 6.74957C17.4414 9.22785 15.5626 11.2496 13.5001 11.2496C11.4376 11.2496 9.55561 9.22832 9.37514 6.74957C9.18764 4.17145 11.0158 2.24957 13.5001 2.24957C15.9845 2.24957 17.8126 4.21832 17.6251 6.74957Z" stroke="#666666" stroke-width="1.5" stroke-linecap="round" stroke-linejoin="round"/>
<path d="M13.5 14.2478C9.42187 14.2478 5.2828 16.4978 4.51687 20.7447C4.42312 21.2566 4.71421 21.7478 5.25046 21.7478H21.75C22.2862 21.7478 22.5759 21.2566 22.4836 20.7447C21.7172 16.4978 17.5781 14.2478 13.5 14.2478Z" stroke="#666666" stroke-width="1.5" stroke-miterlimit="10"/>
<path d="M6.74993 10.8737H1.49993M4.12493 8.24872V13.4987V8.24872Z" stroke="#666666" stroke-width="1.5" stroke-linecap="round" stroke-linejoin="round"/>
</svg>
