<svg width="24" height="24" viewBox="0 0 24 24" fill="none" xmlns="http://www.w3.org/2000/svg">
<path d="M12.0001 2.25049C6.62398 2.25049 2.25007 6.62439 2.25007 12.0005C2.25007 17.3766 6.62398 21.7505 12.0001 21.7505C17.3762 21.7505 21.7501 17.3766 21.7501 12.0005C21.7501 6.62439 17.3762 2.25049 12.0001 2.25049ZM9.64601 7.72643C10.2399 7.0969 11.0757 6.75049 12.0001 6.75049C12.9244 6.75049 13.7527 7.09924 14.349 7.73205C14.9532 8.3733 15.2471 9.23486 15.1777 10.1611C15.039 12.0005 13.614 13.5005 12.0001 13.5005C10.3862 13.5005 8.95835 12.0005 8.82241 10.1606C8.75351 9.22689 9.04694 8.36252 9.64601 7.72643ZM12.0001 20.2505C10.8987 20.2512 9.80845 20.0308 8.79389 19.6023C7.77934 19.1737 6.86116 18.5458 6.09382 17.7558C6.5333 17.1291 7.09327 16.5962 7.74101 16.1883C8.93585 15.4224 10.448 15.0005 12.0001 15.0005C13.5521 15.0005 15.0643 15.4224 16.2577 16.1883C16.906 16.596 17.4665 17.1289 17.9063 17.7558C17.139 18.5459 16.2209 19.1739 15.2063 19.6024C14.1917 20.0309 13.1014 20.2513 12.0001 20.2505Z" fill="#666666"/>
</svg>
