<svg width="24" height="24" viewBox="0 0 24 24" fill="none" xmlns="http://www.w3.org/2000/svg">
<path d="M13.5 11.9969C15.9746 11.9969 18.1608 9.66673 18.375 6.8022C18.4814 5.36314 18.03 4.02111 17.1038 3.02408C16.1874 2.03923 14.9063 1.49689 13.5 1.49689C12.0825 1.49689 10.8005 2.03595 9.89065 3.0147C8.97049 4.00423 8.5219 5.34908 8.62502 6.80126C8.83549 9.66626 11.0213 11.9969 13.5 11.9969ZM23.221 20.6106C22.8253 18.416 21.5902 16.5724 19.6496 15.2786C17.926 14.1297 15.7421 13.4969 13.5 13.4969C11.258 13.4969 9.07409 14.1297 7.35049 15.2781C5.40987 16.5719 4.17471 18.4155 3.77909 20.6102C3.68862 21.1131 3.81143 21.6105 4.11612 21.9747C4.25431 22.1407 4.42783 22.2737 4.62401 22.364C4.82019 22.4544 5.03406 22.4998 5.25002 22.4969H21.75C21.9661 22.5 22.1801 22.4547 22.3765 22.3645C22.5728 22.2742 22.7465 22.1412 22.8849 21.9752C23.1886 21.611 23.3114 21.1136 23.221 20.6106ZM4.87502 13.4969V11.6219H6.75002C6.94894 11.6219 7.1397 11.5429 7.28035 11.4022C7.42101 11.2616 7.50002 11.0708 7.50002 10.8719C7.50002 10.673 7.42101 10.4822 7.28035 10.3416C7.1397 10.2009 6.94894 10.1219 6.75002 10.1219H4.87502V8.24689C4.87502 8.04798 4.79601 7.85721 4.65535 7.71656C4.5147 7.57591 4.32394 7.49689 4.12502 7.49689C3.92611 7.49689 3.73535 7.57591 3.59469 7.71656C3.45404 7.85721 3.37502 8.04798 3.37502 8.24689V10.1219H1.50002C1.30111 10.1219 1.11035 10.2009 0.969693 10.3416C0.82904 10.4822 0.750023 10.673 0.750023 10.8719C0.750023 11.0708 0.82904 11.2616 0.969693 11.4022C1.11035 11.5429 1.30111 11.6219 1.50002 11.6219H3.37502V13.4969C3.37502 13.6958 3.45404 13.8866 3.59469 14.0272C3.73535 14.1679 3.92611 14.2469 4.12502 14.2469C4.32394 14.2469 4.5147 14.1679 4.65535 14.0272C4.79601 13.8866 4.87502 13.6958 4.87502 13.4969Z" fill="#666666"/>
</svg>
