<svg width="24" height="24" viewBox="0 0 24 24" fill="none" xmlns="http://www.w3.org/2000/svg">
<path d="M12.1358 2.25139C6.65236 2.17733 2.1758 6.65389 2.24986 12.1373C2.32299 17.3962 6.60502 21.6783 11.8639 21.7514C17.3483 21.8264 21.8239 17.3498 21.7489 11.8664C21.6767 6.60655 17.3947 2.32452 12.1358 2.25139ZM18.0617 17.5912C18.0431 17.6114 18.0202 17.6273 17.9947 17.6376C17.9692 17.648 17.9418 17.6526 17.9143 17.6512C17.8869 17.6498 17.86 17.6423 17.8358 17.6293C17.8115 17.6164 17.7904 17.5983 17.7739 17.5762C17.3547 17.0277 16.8412 16.558 16.2575 16.1892C15.0641 15.4233 13.5519 15.0014 11.9999 15.0014C10.4478 15.0014 8.93564 15.4233 7.74221 16.1892C7.15855 16.5579 6.64509 17.0274 6.2258 17.5758C6.20933 17.5978 6.18821 17.6159 6.16395 17.6289C6.13969 17.6418 6.11287 17.6493 6.08541 17.6507C6.05794 17.6522 6.0305 17.6475 6.00502 17.6372C5.97954 17.6268 5.95666 17.611 5.93799 17.5908C4.56252 16.1059 3.78337 14.1658 3.74986 12.142C3.67345 7.58061 7.41642 3.76264 11.9797 3.75139C16.543 3.74014 20.2499 7.44561 20.2499 12.0014C20.2514 14.0739 19.4699 16.0705 18.0617 17.5912Z" fill="#666666"/>
<path d="M12 6.74872C11.0756 6.74872 10.2398 7.09512 9.64592 7.72466C9.05202 8.35419 8.7553 9.22466 8.82233 10.1589C8.95827 11.9987 10.3837 13.4987 12 13.4987C13.6162 13.4987 15.0389 11.9987 15.1776 10.1593C15.247 9.23403 14.9526 8.37153 14.3489 7.73028C13.7526 7.09747 12.9183 6.74872 12 6.74872Z" fill="#666666"/>
</svg>
