<svg width="24" height="24" viewBox="0 0 24 24" fill="none" xmlns="http://www.w3.org/2000/svg">
<path d="M12 2.25049C6.62391 2.25049 2.25001 6.62439 2.25001 12.0005C2.25001 17.3766 6.62391 21.7505 12 21.7505C17.3761 21.7505 21.75 17.3766 21.75 12.0005C21.75 6.62439 17.3761 2.25049 12 2.25049ZM12.0938 6.75049C12.7613 6.75049 13.4138 6.94843 13.9688 7.31928C14.5238 7.69013 14.9564 8.21723 15.2119 8.83393C15.4673 9.45063 15.5341 10.1292 15.4039 10.7839C15.2737 11.4386 14.9522 12.04 14.4802 12.512C14.0082 12.984 13.4069 13.3054 12.7522 13.4356C12.0975 13.5659 11.4189 13.499 10.8022 13.2436C10.1855 12.9881 9.6584 12.5556 9.28755 12.0005C8.9167 11.4455 8.71876 10.793 8.71876 10.1255C8.71876 9.23038 9.07434 8.37194 9.70727 7.739C10.3402 7.10607 11.1987 6.75049 12.0938 6.75049ZM12 20.2505C10.8621 20.251 9.73646 20.0154 8.6942 19.5588C7.65194 19.1021 6.71573 18.4342 5.9447 17.5974C6.35907 15.4514 10.0809 15.0005 12 15.0005C13.9191 15.0005 17.6409 15.4514 18.0553 17.5969C17.2844 18.4339 16.3482 19.1019 15.3059 19.5587C14.2637 20.0154 13.138 20.251 12 20.2505Z" fill="#666666"/>
</svg>
