<svg width="24" height="24" viewBox="0 0 24 24" fill="none" xmlns="http://www.w3.org/2000/svg">
<path d="M12 11.9978C13.0383 11.9978 14.0533 11.6899 14.9167 11.113C15.7801 10.5361 16.453 9.71621 16.8503 8.75689C17.2477 7.79758 17.3517 6.74198 17.1491 5.72358C16.9465 4.70518 16.4465 3.76972 15.7123 3.03549C14.978 2.30127 14.0426 1.80125 13.0242 1.59868C12.0058 1.39611 10.9502 1.50008 9.99087 1.89744C9.03155 2.2948 8.21162 2.9677 7.63474 3.83106C7.05786 4.69442 6.74995 5.70945 6.74995 6.74781C6.74995 8.14019 7.30308 9.47555 8.28764 10.4601C9.27221 11.4447 10.6076 11.9978 12 11.9978ZM12 13.4978C8.74589 13.4978 2.24995 15.5078 2.24995 19.4978V22.4978H21.75V19.4978C21.75 15.5078 15.254 13.4978 12 13.4978Z" fill="#666666"/>
</svg>
