<svg width="24" height="24" viewBox="0 0 24 24" fill="none" xmlns="http://www.w3.org/2000/svg">
<g clip-path="url(#clip0_32_2778)">
<path d="M15.75 -0.00219727H8.25003C7.45438 -0.00219727 6.69131 0.313873 6.1287 0.876483C5.5661 1.43909 5.25002 2.20215 5.25002 2.9978V20.9978C5.25002 21.7935 5.5661 22.5565 6.1287 23.1191C6.69131 23.6817 7.45438 23.9978 8.25003 23.9978H15.75C16.5457 23.9978 17.3087 23.6817 17.8713 23.1191C18.434 22.5565 18.75 21.7935 18.75 20.9978V2.9978C18.75 2.20215 18.434 1.43909 17.8713 0.876483C17.3087 0.313873 16.5457 -0.00219727 15.75 -0.00219727V-0.00219727ZM17.25 20.9978C17.25 21.3956 17.092 21.7772 16.8107 22.0585C16.5294 22.3398 16.1479 22.4978 15.75 22.4978H8.25003C7.8522 22.4978 7.47067 22.3398 7.18937 22.0585C6.90806 21.7772 6.75003 21.3956 6.75003 20.9978V2.9978C6.75003 2.59998 6.90806 2.21845 7.18937 1.93714C7.47067 1.65584 7.8522 1.4978 8.25003 1.4978H8.78206C8.85459 1.49754 8.92561 1.51847 8.9864 1.55803C9.04719 1.59758 9.0951 1.65404 9.12424 1.72046C9.24071 1.98855 9.43296 2.21678 9.67738 2.37709C9.9218 2.5374 10.2077 2.6228 10.5 2.6228H13.5C13.7923 2.6228 14.0783 2.5374 14.3227 2.37709C14.5671 2.21678 14.7593 1.98855 14.8758 1.72046C14.9049 1.65404 14.9529 1.59758 15.0136 1.55803C15.0744 1.51847 15.1455 1.49754 15.218 1.4978H15.75C16.1479 1.4978 16.5294 1.65584 16.8107 1.93714C17.092 2.21845 17.25 2.59998 17.25 2.9978V20.9978Z" fill="#666666"/>
<path d="M15.7501 2.2469C15.6637 2.24637 15.5783 2.26596 15.5008 2.30412C15.4233 2.34227 15.3557 2.39795 15.3034 2.46674C15.094 2.74758 14.822 2.97564 14.5089 3.13279C14.1958 3.28993 13.8504 3.37181 13.5001 3.3719H10.5001C10.1498 3.37181 9.80438 3.28993 9.49132 3.13279C9.17825 2.97564 8.9062 2.74758 8.69683 2.46674C8.64453 2.39795 8.57694 2.34227 8.49941 2.30412C8.42187 2.26596 8.33652 2.24637 8.25011 2.2469C8.0512 2.2469 7.86043 2.32592 7.71978 2.46657C7.57913 2.60722 7.50011 2.79799 7.50011 2.9969V20.9969C7.50011 21.1958 7.57913 21.3866 7.71978 21.5272C7.86043 21.6679 8.0512 21.7469 8.25011 21.7469H15.7501C15.949 21.7469 16.1398 21.6679 16.2804 21.5272C16.4211 21.3866 16.5001 21.1958 16.5001 20.9969V2.9969C16.5001 2.79799 16.4211 2.60722 16.2804 2.46657C16.1398 2.32592 15.949 2.2469 15.7501 2.2469Z" fill="#666666"/>
<path d="M15.75 -0.00219727H8.25003C7.45438 -0.00219727 6.69131 0.313873 6.1287 0.876483C5.5661 1.43909 5.25002 2.20215 5.25002 2.9978V20.9978C5.25002 21.7935 5.5661 22.5565 6.1287 23.1191C6.69131 23.6817 7.45438 23.9978 8.25003 23.9978H15.75C16.5457 23.9978 17.3087 23.6817 17.8713 23.1191C18.434 22.5565 18.75 21.7935 18.75 20.9978V2.9978C18.75 2.20215 18.434 1.43909 17.8713 0.876483C17.3087 0.313873 16.5457 -0.00219727 15.75 -0.00219727V-0.00219727ZM17.25 20.9978C17.25 21.3956 17.092 21.7772 16.8107 22.0585C16.5294 22.3398 16.1479 22.4978 15.75 22.4978H8.25003C7.8522 22.4978 7.47067 22.3398 7.18937 22.0585C6.90806 21.7772 6.75003 21.3956 6.75003 20.9978V2.9978C6.75003 2.59998 6.90806 2.21845 7.18937 1.93714C7.47067 1.65584 7.8522 1.4978 8.25003 1.4978H8.78206C8.85459 1.49754 8.92561 1.51847 8.9864 1.55803C9.04719 1.59758 9.0951 1.65404 9.12424 1.72046C9.24071 1.98855 9.43296 2.21678 9.67738 2.37709C9.9218 2.5374 10.2077 2.6228 10.5 2.6228H13.5C13.7923 2.6228 14.0783 2.5374 14.3227 2.37709C14.5671 2.21678 14.7593 1.98855 14.8758 1.72046C14.9049 1.65404 14.9529 1.59758 15.0136 1.55803C15.0744 1.51847 15.1455 1.49754 15.218 1.4978H15.75C16.1479 1.4978 16.5294 1.65584 16.8107 1.93714C17.092 2.21845 17.25 2.59998 17.25 2.9978V20.9978Z" fill="#666666"/>
</g>
<defs>
<clipPath id="clip0_32_2778">
<rect width="24" height="24" fill="white" transform="translate(0 -0.00390625)"/>
</clipPath>
</defs>
</svg>
