<svg width="24" height="24" viewBox="0 0 24 24" fill="none" xmlns="http://www.w3.org/2000/svg">
<path d="M0.750023 8.24872L0.750023 15.7487C0.750023 16.9914 1.75738 17.9987 3.00002 17.9987H21C22.2427 17.9987 23.25 16.9914 23.25 15.7487V8.24872C23.25 7.00607 22.2427 5.99872 21 5.99872L3.00002 5.99872C1.75738 5.99872 0.750023 7.00607 0.750023 8.24872Z" stroke="#666666" stroke-width="1.5" stroke-linecap="round" stroke-linejoin="round"/>
<path d="M0.750023 15.7496V14.6246C0.750023 14.5252 0.789532 14.4298 0.859858 14.3595C0.930184 14.2891 1.02557 14.2496 1.12502 14.2496V14.2496C1.32394 14.2496 1.5147 14.1706 1.65535 14.03C1.79601 13.8893 1.87502 13.6985 1.87502 13.4996V10.4996C1.87502 10.3007 1.79601 10.11 1.65535 9.9693C1.5147 9.82865 1.32394 9.74963 1.12502 9.74963V9.74963C1.02557 9.74963 0.930184 9.71013 0.859858 9.6398C0.789532 9.56947 0.750023 9.47409 0.750023 9.37463V8.24963" stroke="#666666" stroke-width="1.5" stroke-linecap="round" stroke-linejoin="round"/>
</svg>
