<svg width="24" height="24" viewBox="0 0 24 24" fill="none" xmlns="http://www.w3.org/2000/svg">
<path d="M0 6.09247V17.905C0 18.1287 0.0888949 18.3434 0.247129 18.5016C0.405363 18.6598 0.619974 18.7487 0.84375 18.7487H23.1563C23.38 18.7487 23.5946 18.6598 23.7529 18.5016C23.9111 18.3434 24 18.1287 24 17.905V6.09247C24 5.86869 23.9111 5.65408 23.7529 5.49585C23.5946 5.33761 23.38 5.24872 23.1563 5.24872H0.84375C0.619974 5.24872 0.405363 5.33761 0.247129 5.49585C0.0888949 5.65408 0 5.86869 0 6.09247H0ZM21 17.0612H3V6.93622H21V17.0612Z" fill="#666666"/>
</svg>
