<svg width="24" height="24" viewBox="0 0 24 24" fill="none" xmlns="http://www.w3.org/2000/svg">
<g clip-path="url(#clip0_32_2773)">
<path d="M15.7499 0.746033H8.24993C7.00729 0.746033 5.99993 1.75339 5.99993 2.99603V20.996C5.99993 22.2387 7.00729 23.246 8.24993 23.246H15.7499C16.9926 23.246 17.9999 22.2387 17.9999 20.996V2.99603C17.9999 1.75339 16.9926 0.746033 15.7499 0.746033Z" stroke="#666666" stroke-width="1.5" stroke-linecap="round" stroke-linejoin="round"/>
<path d="M8.25002 0.746033H9.37502C9.47447 0.746033 9.56985 0.785542 9.64018 0.855868C9.71051 0.926194 9.75002 1.02158 9.75002 1.12103C9.75002 1.31995 9.82903 1.51071 9.96969 1.65136C10.1103 1.79202 10.3011 1.87103 10.5 1.87103H13.5C13.6989 1.87103 13.8897 1.79202 14.0303 1.65136C14.171 1.51071 14.25 1.31995 14.25 1.12103C14.25 1.02158 14.2895 0.926194 14.3599 0.855868C14.4302 0.785542 14.5256 0.746033 14.625 0.746033H15.75" stroke="#666666" stroke-width="1.5" stroke-linecap="round" stroke-linejoin="round"/>
</g>
<defs>
<clipPath id="clip0_32_2773">
<rect width="24" height="24" fill="white" transform="translate(0.00012207 -0.00390625)"/>
</clipPath>
</defs>
</svg>
