<svg width="24" height="24" viewBox="0 0 24 24" fill="none" xmlns="http://www.w3.org/2000/svg">
<g clip-path="url(#clip0_32_2776)">
<path d="M17.9062 -0.00219727H6.09371C5.86994 -0.00219727 5.65532 0.0866976 5.49709 0.244931C5.33886 0.403165 5.24996 0.617776 5.24996 0.841553V23.1541C5.24996 23.3778 5.33886 23.5924 5.49709 23.7507C5.65532 23.9089 5.86994 23.9978 6.09371 23.9978H17.9062C18.13 23.9978 18.3446 23.9089 18.5028 23.7507C18.6611 23.5924 18.75 23.3778 18.75 23.1541V0.841553C18.75 0.617776 18.6611 0.403165 18.5028 0.244931C18.3446 0.0866976 18.13 -0.00219727 17.9062 -0.00219727V-0.00219727ZM6.93746 20.9978V2.9978H17.0625V20.9978H6.93746Z" fill="#666666"/>
</g>
<defs>
<clipPath id="clip0_32_2776">
<rect width="24" height="24" fill="white" transform="translate(0 -0.00390625)"/>
</clipPath>
</defs>
</svg>
