<svg width="24" height="24" viewBox="0 0 24 24" fill="none" xmlns="http://www.w3.org/2000/svg">
<g clip-path="url(#clip0_32_2769)">
<path d="M-7.62939e-05 8.24872V15.7487C-7.62939e-05 16.5444 0.315994 17.3074 0.878604 17.87C1.44121 18.4326 2.20427 18.7487 2.99992 18.7487H20.9999C21.7956 18.7487 22.5586 18.4326 23.1212 17.87C23.6839 17.3074 23.9999 16.5444 23.9999 15.7487V8.24872C23.9999 7.45307 23.6839 6.69001 23.1212 6.1274C22.5586 5.56479 21.7956 5.24872 20.9999 5.24872H2.99992C2.20427 5.24872 1.44121 5.56479 0.878604 6.1274C0.315994 6.69001 -7.62939e-05 7.45307 -7.62939e-05 8.24872H-7.62939e-05ZM20.9999 6.74872C21.3978 6.74872 21.7793 6.90675 22.0606 7.18806C22.3419 7.46936 22.4999 7.85089 22.4999 8.24872V15.7487C22.4999 16.1465 22.3419 16.5281 22.0606 16.8094C21.7793 17.0907 21.3978 17.2487 20.9999 17.2487H2.99992C2.6021 17.2487 2.22057 17.0907 1.93926 16.8094C1.65796 16.5281 1.49992 16.1465 1.49992 15.7487V15.2167C1.49966 15.1442 1.52059 15.0731 1.56015 15.0123C1.59971 14.9516 1.65616 14.9036 1.72258 14.8745C1.99068 14.758 2.2189 14.5658 2.37921 14.3214C2.53952 14.0769 2.62492 13.791 2.62492 13.4987V10.4987C2.62492 10.2064 2.53952 9.92049 2.37921 9.67607C2.2189 9.43166 1.99068 9.2394 1.72258 9.12294C1.65616 9.0938 1.59971 9.04589 1.56015 8.9851C1.52059 8.9243 1.49966 8.85328 1.49992 8.78075V8.24872C1.49992 7.85089 1.65796 7.46936 1.93926 7.18806C2.22057 6.90675 2.6021 6.74872 2.99992 6.74872H20.9999Z" fill="#666666"/>
<path d="M2.25002 8.2478C2.24949 8.33422 2.26908 8.41957 2.30724 8.4971C2.34539 8.57463 2.40107 8.64222 2.46986 8.69452C2.7507 8.90389 2.97877 9.17595 3.13591 9.48901C3.29305 9.80208 3.37493 10.1475 3.37502 10.4978V13.4978C3.37493 13.8481 3.29305 14.1935 3.13591 14.5066C2.97877 14.8197 2.7507 15.0917 2.46986 15.3011C2.40107 15.3534 2.34539 15.421 2.30724 15.4985C2.26908 15.576 2.24949 15.6614 2.25002 15.7478C2.25002 15.9467 2.32904 16.1375 2.46969 16.2781C2.61034 16.4188 2.80111 16.4978 3.00002 16.4978H21C21.1989 16.4978 21.3897 16.4188 21.5304 16.2781C21.671 16.1375 21.75 15.9467 21.75 15.7478V8.2478C21.75 8.04889 21.671 7.85813 21.5304 7.71747C21.3897 7.57682 21.1989 7.4978 21 7.4978H3.00002C2.80111 7.4978 2.61034 7.57682 2.46969 7.71747C2.32904 7.85813 2.25002 8.04889 2.25002 8.2478Z" fill="#666666"/>
<path d="M-7.62939e-05 8.24872V15.7487C-7.62939e-05 16.5444 0.315994 17.3074 0.878604 17.87C1.44121 18.4326 2.20427 18.7487 2.99992 18.7487H20.9999C21.7956 18.7487 22.5586 18.4326 23.1212 17.87C23.6839 17.3074 23.9999 16.5444 23.9999 15.7487V8.24872C23.9999 7.45307 23.6839 6.69001 23.1212 6.1274C22.5586 5.56479 21.7956 5.24872 20.9999 5.24872H2.99992C2.20427 5.24872 1.44121 5.56479 0.878604 6.1274C0.315994 6.69001 -7.62939e-05 7.45307 -7.62939e-05 8.24872H-7.62939e-05ZM20.9999 6.74872C21.3978 6.74872 21.7793 6.90675 22.0606 7.18806C22.3419 7.46936 22.4999 7.85089 22.4999 8.24872V15.7487C22.4999 16.1465 22.3419 16.5281 22.0606 16.8094C21.7793 17.0907 21.3978 17.2487 20.9999 17.2487H2.99992C2.6021 17.2487 2.22057 17.0907 1.93926 16.8094C1.65796 16.5281 1.49992 16.1465 1.49992 15.7487V15.2167C1.49966 15.1442 1.52059 15.0731 1.56015 15.0123C1.59971 14.9516 1.65616 14.9036 1.72258 14.8745C1.99068 14.758 2.2189 14.5658 2.37921 14.3214C2.53952 14.0769 2.62492 13.791 2.62492 13.4987V10.4987C2.62492 10.2064 2.53952 9.92049 2.37921 9.67607C2.2189 9.43166 1.99068 9.2394 1.72258 9.12294C1.65616 9.0938 1.59971 9.04589 1.56015 8.9851C1.52059 8.9243 1.49966 8.85328 1.49992 8.78075V8.24872C1.49992 7.85089 1.65796 7.46936 1.93926 7.18806C2.22057 6.90675 2.6021 6.74872 2.99992 6.74872H20.9999Z" fill="#666666"/>
</g>
<defs>
<clipPath id="clip0_32_2769">
<rect width="24" height="24" fill="white" transform="translate(-0.00012207 -0.00390625)"/>
</clipPath>
</defs>
</svg>
