<svg width="24" height="24" viewBox="0 0 24 24" fill="none" xmlns="http://www.w3.org/2000/svg">
<path d="M3.09847 16.7331C2.9537 16.7332 2.812 16.6913 2.69048 16.6126C2.56895 16.534 2.4728 16.4218 2.41363 16.2897C1.6976 14.6905 1.39313 12.9376 1.52797 11.1906C1.66282 9.4437 2.23268 7.75828 3.18564 6.28795C4.1386 4.81762 5.44435 3.60914 6.98392 2.77263C8.52348 1.93613 10.2479 1.49818 12 1.49872C12.1989 1.49872 12.3897 1.57774 12.5304 1.71839C12.671 1.85904 12.75 2.04981 12.75 2.24872V11.9987C12.7501 12.1435 12.7082 12.2853 12.6294 12.4068C12.5506 12.5283 12.4383 12.6245 12.3061 12.6836L3.40456 16.6656C3.30846 16.7095 3.20413 16.7325 3.09847 16.7331Z" fill="#666666"/>
<path d="M14.6996 3.19639C14.6452 3.18536 14.5891 3.18653 14.5352 3.19983C14.4813 3.21313 14.4311 3.23821 14.3881 3.27328C14.3451 3.30834 14.3104 3.35251 14.2865 3.40261C14.2627 3.4527 14.2502 3.50746 14.2501 3.56295V12.0004C14.2497 12.4347 14.1239 12.8596 13.8877 13.224C13.6515 13.5884 13.3151 13.8768 12.9188 14.0545L4.8343 17.6723C4.78419 17.6947 4.73959 17.7278 4.70367 17.7693C4.66775 17.8108 4.64137 17.8596 4.62639 17.9124C4.61142 17.9652 4.60821 18.0207 4.617 18.0748C4.62579 18.129 4.64636 18.1806 4.67727 18.2259C5.29598 19.1359 6.06397 19.9348 6.94883 20.5889C8.62531 21.836 10.6606 22.5067 12.7501 22.5005C18.1262 22.5005 22.5001 18.1265 22.5001 12.7504C22.5001 8.04185 19.1448 4.10201 14.6996 3.19639Z" fill="#666666"/>
</svg>
