<svg width="24" height="24" viewBox="0 0 24 24" fill="none" xmlns="http://www.w3.org/2000/svg">
<path d="M2.71887 16.9717L2.41371 16.2878C1.69809 14.6887 1.39395 12.936 1.529 11.1893C1.66405 9.44264 2.23398 7.7575 3.1869 6.28744C4.13981 4.81737 5.4454 3.6091 6.98474 2.77269C8.52407 1.93628 10.2482 1.49832 12.0001 1.49872H12.7501V12.4848L2.71887 16.9717Z" fill="#666666"/>
<path d="M14.25 3.1123V13.4553L4.43533 17.8461C5.30871 19.2668 6.53144 20.4402 7.98696 21.2544C9.44248 22.0686 11.0823 22.4963 12.75 22.497C18.1261 22.497 22.5 18.1231 22.5 12.747C22.5 7.8809 18.9164 3.83605 14.25 3.1123Z" fill="#666666"/>
</svg>
