<svg width="24" height="24" viewBox="0 0 24 24" fill="none" xmlns="http://www.w3.org/2000/svg">
<g clip-path="url(#clip0_32_2791)">
<path d="M12 7.49872C13.6568 7.49872 15 6.15557 15 4.49872C15 2.84186 13.6568 1.49872 12 1.49872C10.3431 1.49872 8.99999 2.84186 8.99999 4.49872C8.99999 6.15557 10.3431 7.49872 12 7.49872Z" stroke="#666666" stroke-width="1.5" stroke-linecap="round" stroke-linejoin="round"/>
<path d="M12.7501 7.6853C12.7501 7.57341 12.7056 7.46611 12.6265 7.38699C12.5474 7.30787 12.4401 7.26343 12.3282 7.26343H11.672C11.5601 7.26343 11.4528 7.30787 11.3736 7.38699C11.2945 7.46611 11.2501 7.57341 11.2501 7.6853V21.4459C11.2502 21.6452 11.2898 21.8424 11.3668 22.0262L11.8388 23.1512C11.8546 23.1802 11.878 23.2043 11.9063 23.2212C11.9347 23.238 11.9671 23.2469 12.0001 23.2469C12.0331 23.2469 12.0654 23.238 12.0938 23.2212C12.1222 23.2043 12.1455 23.1802 12.1613 23.1512L12.6334 22.0262C12.7103 21.8424 12.75 21.6452 12.7501 21.4459V7.6853Z" fill="#666666"/>
<path d="M13.125 4.49689C13.7463 4.49689 14.25 3.99321 14.25 3.37189C14.25 2.75057 13.7463 2.24689 13.125 2.24689C12.5036 2.24689 12 2.75057 12 3.37189C12 3.99321 12.5036 4.49689 13.125 4.49689Z" fill="#666666"/>
</g>
<defs>
<clipPath id="clip0_32_2791">
<rect width="24" height="24" fill="white" transform="translate(0.00012207 -0.00390625)"/>
</clipPath>
</defs>
</svg>
