<svg width="24" height="24" viewBox="0 0 24 24" fill="none" xmlns="http://www.w3.org/2000/svg">
<g clip-path="url(#clip0_32_2795)">
<path d="M15.8906 4.63648C15.8905 3.90522 15.6844 3.18877 15.2958 2.56929C14.9073 1.94981 14.352 1.45238 13.6936 1.13404C13.0353 0.815703 12.3006 0.689343 11.5737 0.76945C10.8469 0.849558 10.1573 1.13289 9.5841 1.58696C9.01089 2.04103 8.57726 2.64745 8.33292 3.33668C8.08859 4.02591 8.04344 4.77005 8.20265 5.48377C8.36187 6.19748 8.71901 6.85188 9.23311 7.37192C9.74722 7.89196 10.3975 8.25658 11.1093 8.42398V21.7459L11.9999 23.2459L12.8906 21.7459V8.42398C13.7432 8.22108 14.5027 7.73715 15.0469 7.05012C15.5911 6.36309 15.8883 5.51292 15.8906 4.63648ZM13.1249 4.35523C12.9302 4.35523 12.7399 4.29749 12.5781 4.18933C12.4162 4.08116 12.29 3.92743 12.2155 3.74755C12.141 3.56768 12.1215 3.36976 12.1595 3.17881C12.1975 2.98786 12.2912 2.81246 12.4289 2.67479C12.5665 2.53712 12.7419 2.44337 12.9329 2.40539C13.1238 2.36741 13.3218 2.3869 13.5016 2.46141C13.6815 2.53591 13.8353 2.66208 13.9434 2.82396C14.0516 2.98584 14.1093 3.17616 14.1093 3.37085C14.1093 3.63192 14.0056 3.8823 13.821 4.06691C13.6364 4.25151 13.386 4.35523 13.1249 4.35523Z" fill="#666666"/>
</g>
<defs>
<clipPath id="clip0_32_2795">
<rect width="24" height="24" fill="white" transform="translate(0 -0.00390625)"/>
</clipPath>
</defs>
</svg>
