<svg width="24" height="24" viewBox="0 0 24 24" fill="none" xmlns="http://www.w3.org/2000/svg">
<path d="M15.75 4.49659C15.75 3.78705 15.5486 3.09208 15.1694 2.49241C14.7901 1.89274 14.2485 1.41298 13.6074 1.10884C12.9663 0.804711 12.2522 0.68869 11.5478 0.774258C10.8434 0.859826 10.1778 1.14347 9.62821 1.59225C9.07862 2.04102 8.66762 2.63651 8.44296 3.30955C8.21831 3.98259 8.1892 4.70555 8.35903 5.39447C8.52887 6.08338 8.89066 6.70998 9.4024 7.20148C9.91414 7.69299 10.5548 8.02922 11.25 8.17112V21.4447C11.2501 21.644 11.2898 21.8412 11.3668 22.025L11.8388 23.15C11.8546 23.179 11.8779 23.2031 11.9063 23.22C11.9347 23.2368 11.967 23.2457 12 23.2457C12.033 23.2457 12.0654 23.2368 12.0938 23.22C12.1221 23.2031 12.1455 23.179 12.1613 23.15L12.6333 22.025C12.7103 21.8412 12.7499 21.644 12.75 21.4447V8.17112C13.5965 7.99718 14.357 7.53672 14.9035 6.86736C15.45 6.19801 15.749 5.3607 15.75 4.49659ZM13.125 4.49659C12.9025 4.49659 12.685 4.43061 12.5 4.307C12.315 4.18338 12.1708 4.00768 12.0857 3.80211C12.0005 3.59655 11.9782 3.37034 12.0216 3.15212C12.0651 2.93389 12.1722 2.73343 12.3295 2.5761C12.4869 2.41876 12.6873 2.31162 12.9056 2.26821C13.1238 2.2248 13.35 2.24708 13.5556 2.33223C13.7611 2.41738 13.9368 2.56157 14.0604 2.74658C14.1841 2.93158 14.25 3.14909 14.25 3.37159C14.25 3.66996 14.1315 3.95611 13.9205 4.16709C13.7095 4.37807 13.4234 4.49659 13.125 4.49659Z" fill="#666666"/>
</svg>
