<svg width="24" height="24" viewBox="0 0 24 24" fill="none" xmlns="http://www.w3.org/2000/svg">
<path d="M6.33796 4.49963H17.662M6.20764 7.59338C5.91514 5.99963 5.99717 5.45823 6.06374 4.3876L6.20014 2.20276C6.21205 2.01257 6.29592 1.83404 6.4347 1.70344C6.57348 1.57285 6.75677 1.49998 6.94733 1.49963H17.0522C17.2427 1.49998 17.426 1.57285 17.5648 1.70344C17.7036 1.83404 17.7875 2.01257 17.7994 2.20276L17.9358 4.3876C18.0028 5.45917 18.0853 5.99963 17.7923 7.5962C17.5144 9.10979 15.7434 13.8432 15.7434 18.7674V22.1246C15.7434 22.2241 15.7039 22.3195 15.6336 22.3898C15.5633 22.4601 15.4679 22.4996 15.3684 22.4996H8.63061C8.53116 22.4996 8.43577 22.4601 8.36545 22.3898C8.29512 22.3195 8.25561 22.2241 8.25561 22.1246V18.767C8.25608 14.4324 6.49967 9.19042 6.20764 7.59338Z" stroke="#666666" stroke-width="1.5" stroke-linecap="round" stroke-linejoin="round"/>
</svg>
