<svg width="24" height="24" viewBox="0 0 24 24" fill="none" xmlns="http://www.w3.org/2000/svg">
<path d="M18.7031 4.65111C18.6961 4.55126 18.6891 4.4472 18.6825 4.33798L18.548 2.15314C18.5242 1.77251 18.3562 1.41525 18.0784 1.15402C17.8005 0.892796 17.4336 0.747214 17.0522 0.746887H6.94736C6.56599 0.747214 6.19906 0.892796 5.9212 1.15402C5.64334 1.41525 5.47541 1.77251 5.45158 2.15314L5.31517 4.33892C5.30861 4.4472 5.30158 4.55033 5.29502 4.64923C5.23455 5.55111 5.19049 6.20267 5.46986 7.72705C5.54814 8.15408 5.71455 8.78923 5.92595 9.59361C6.51705 11.8436 7.50611 15.6105 7.50611 18.7638V22.1219C7.50611 22.4203 7.62464 22.7064 7.83562 22.9174C8.04659 23.1284 8.33274 23.2469 8.63111 23.2469H15.3689C15.6673 23.2469 15.9534 23.1284 16.1644 22.9174C16.3754 22.7064 16.4939 22.4203 16.4939 22.1219V18.7647C16.4939 15.1511 17.4928 11.5792 18.0877 9.44548C18.293 8.71283 18.4547 8.13298 18.5288 7.72892C18.8095 6.20501 18.7655 5.55298 18.7031 4.65111ZM17.0625 2.42267L17.1328 3.54767C17.1344 3.57326 17.1308 3.59891 17.1221 3.62303C17.1134 3.64714 17.0998 3.66922 17.0822 3.68789C17.0647 3.70657 17.0434 3.72143 17.0199 3.73158C16.9963 3.74173 16.971 3.74694 16.9453 3.74689H7.0547C7.02906 3.74694 7.00369 3.74173 6.98014 3.73158C6.95659 3.72143 6.93537 3.70657 6.9178 3.68789C6.90023 3.66922 6.88667 3.64714 6.87797 3.62303C6.86926 3.59891 6.8656 3.57326 6.8672 3.54767L6.93658 2.42267C6.93957 2.37484 6.96077 2.32997 6.99582 2.29728C7.03086 2.26458 7.07709 2.24655 7.12502 2.24689H16.875C16.9228 2.24679 16.9688 2.26493 17.0036 2.2976C17.0385 2.33027 17.0595 2.375 17.0625 2.42267Z" fill="#666666"/>
</svg>
