<svg width="24" height="24" viewBox="0 0 24 24" fill="none" xmlns="http://www.w3.org/2000/svg">
<path d="M20.7104 3.17917C17.9738 2.09635 14.8735 1.49963 11.9794 1.49963C9.00003 1.49963 5.89503 2.08698 3.23441 3.15245C2.28284 3.53823 2.11925 4.21838 2.28331 4.72557L2.47409 5.20276C2.51152 5.29621 2.56738 5.38116 2.63834 5.45257C2.7093 5.52397 2.79391 5.58036 2.88712 5.61837C2.98033 5.65638 3.08025 5.67524 3.1809 5.67382C3.28156 5.6724 3.3809 5.65073 3.473 5.6101C3.97925 5.38698 4.59472 5.11604 4.73863 5.05792C6.8016 4.20151 9.31456 3.74963 12 3.74963C14.6939 3.74963 17.0668 4.18276 19.2544 5.07385C19.4616 5.15823 19.9519 5.37479 20.4811 5.61104C20.573 5.65209 20.6723 5.67422 20.7729 5.67611C20.8736 5.678 20.9736 5.65961 21.0669 5.62204C21.1603 5.58447 21.2452 5.52848 21.3165 5.45741C21.3878 5.38634 21.444 5.30165 21.4819 5.20838L21.6563 4.78088L21.6722 4.7387C21.8339 4.2601 21.6788 3.56448 20.7104 3.17917Z" fill="#666666"/>
<path d="M19.1803 6.60245C17.047 5.74323 14.4225 5.24963 11.9793 5.24963C9.51405 5.25125 7.07048 5.71044 4.77277 6.60385C4.74793 6.6137 4.67621 6.6451 4.57168 6.69198C4.4813 6.73248 4.39985 6.79048 4.33201 6.86263C4.26417 6.93479 4.21129 7.01966 4.17643 7.11235C4.14156 7.20505 4.1254 7.30373 4.12888 7.40271C4.13235 7.50168 4.1554 7.59899 4.19668 7.68901C4.38418 8.09729 4.63824 8.6537 4.92324 9.2776C6.4659 12.6559 9.33793 18.9371 10.6528 21.6559C10.7746 21.9095 10.9658 22.1234 11.2042 22.2728C11.4427 22.4221 11.7186 22.5008 12 22.4996C12.2818 22.5008 12.5581 22.4218 12.7968 22.2719C13.0355 22.122 13.2267 21.9074 13.3481 21.6531L13.3509 21.647L19.7868 7.69838C19.8294 7.60711 19.8531 7.50816 19.8565 7.4075C19.8598 7.30683 19.8428 7.20653 19.8064 7.11261C19.77 7.01869 19.715 6.9331 19.6447 6.86097C19.5744 6.78885 19.4903 6.73169 19.3973 6.69292C19.2914 6.64838 19.2168 6.61745 19.1864 6.60526L19.1803 6.60245ZM9.09746 10.4964C8.79311 10.5162 8.48994 10.4428 8.22838 10.2859C7.96682 10.1291 7.75929 9.89619 7.63346 9.61836C7.50763 9.34053 7.46949 9.03095 7.52411 8.73088C7.57874 8.43082 7.72353 8.15454 7.9392 7.93887C8.15486 7.72321 8.43114 7.57841 8.73121 7.52379C9.03127 7.46916 9.34086 7.50731 9.61869 7.63313C9.89652 7.75896 10.1294 7.96649 10.2863 8.22805C10.4431 8.48962 10.5165 8.79279 10.4967 9.09714C10.473 9.46045 10.318 9.80275 10.0605 10.0602C9.80307 10.3176 9.46077 10.4727 9.09746 10.4964ZM12.0975 16.4964C11.7931 16.5162 11.4899 16.4428 11.2284 16.2859C10.9668 16.1291 10.7593 15.8962 10.6335 15.6184C10.5076 15.3405 10.4695 15.0309 10.5241 14.7309C10.5787 14.4308 10.7235 14.1545 10.9392 13.9389C11.1549 13.7232 11.4311 13.5784 11.7312 13.5238C12.0313 13.4692 12.3409 13.5073 12.6187 13.6331C12.8965 13.759 13.1294 13.9665 13.2863 14.2281C13.4431 14.4896 13.5165 14.7928 13.4967 15.0971C13.473 15.4605 13.318 15.8027 13.0605 16.0602C12.8031 16.3176 12.4608 16.4727 12.0975 16.4964ZM15.0975 11.2464C14.7931 11.2662 14.4899 11.1928 14.2284 11.0359C13.9668 10.8791 13.7593 10.6462 13.6335 10.3684C13.5076 10.0905 13.4695 9.78095 13.5241 9.48088C13.5787 9.18082 13.7235 8.90454 13.9392 8.68887C14.1549 8.47321 14.4311 8.32841 14.7312 8.27379C15.0313 8.21916 15.3409 8.25731 15.6187 8.38313C15.8965 8.50896 16.1294 8.71649 16.2863 8.97806C16.4431 9.23962 16.5165 9.54279 16.4967 9.84714C16.473 10.2104 16.318 10.5527 16.0605 10.8102C15.8031 11.0676 15.4608 11.2227 15.0975 11.2464Z" fill="#666666"/>
</svg>
