<svg width="24" height="24" viewBox="0 0 24 24" fill="none" xmlns="http://www.w3.org/2000/svg">
<path d="M20.7328 3.1787C17.9962 2.09588 14.8959 1.49963 11.9999 1.49963C9.0201 1.49963 5.91557 2.08604 3.25494 3.15198C2.30526 3.53776 1.96869 3.74963 1.96869 3.74963L2.99994 5.81214L4.75916 5.05557C6.91776 4.19635 9.33698 3.74963 12.0239 3.74963C14.7187 3.74963 17.0906 4.18229 19.2778 5.07385L20.9999 5.81214L22.0312 3.74963C22.0312 3.74963 21.7031 3.56213 20.7328 3.1787Z" fill="#666666"/>
<path d="M19.2028 6.60198C17.0695 5.74276 14.445 5.24963 12 5.24963C9.53531 5.25164 7.0924 5.71097 4.79531 6.60432C4.78359 6.60901 4.36218 6.8026 3.90468 7.0126C4.25437 7.77292 4.74843 8.84823 4.94531 9.27807L12 22.4996L20.1441 6.99151L19.2103 6.60526L19.2028 6.60198ZM10.5192 9.09667C10.5006 9.38448 10.3994 9.66083 10.2277 9.89259C10.056 10.1244 9.82119 10.3017 9.5513 10.4034C9.2814 10.5051 8.98791 10.5269 8.70598 10.466C8.42405 10.4052 8.16563 10.2644 7.96169 10.0604C7.75774 9.8565 7.61692 9.59808 7.55609 9.31615C7.49526 9.03422 7.517 8.74073 7.6187 8.47084C7.72041 8.20094 7.89777 7.96609 8.12954 7.79443C8.3613 7.62276 8.63765 7.52154 8.92546 7.50292C9.13811 7.49006 9.35106 7.52247 9.55025 7.59802C9.74944 7.67356 9.93033 7.79052 10.081 7.94116C10.2316 8.0918 10.3486 8.27269 10.4241 8.47188C10.4997 8.67107 10.5321 8.88402 10.5192 9.09667ZM13.5192 15.0967C13.5006 15.3845 13.3994 15.6608 13.2277 15.8926C13.056 16.1244 12.8212 16.3017 12.5513 16.4034C12.2814 16.5051 11.9879 16.5269 11.706 16.466C11.424 16.4052 11.1656 16.2644 10.9617 16.0604C10.7577 15.8565 10.6169 15.5981 10.5561 15.3162C10.4953 15.0342 10.517 14.7407 10.6187 14.4708C10.7204 14.2009 10.8978 13.9661 11.1295 13.7944C11.3613 13.6228 11.6376 13.5215 11.9255 13.5029C12.1381 13.4901 12.3511 13.5225 12.5503 13.598C12.7494 13.6736 12.9303 13.7905 13.081 13.9412C13.2316 14.0918 13.3486 14.2727 13.4241 14.4719C13.4997 14.6711 13.5321 14.884 13.5192 15.0967ZM16.5192 9.84667C16.5006 10.1345 16.3994 10.4108 16.2277 10.6426C16.056 10.8744 15.8212 11.0517 15.5513 11.1534C15.2814 11.2551 14.9879 11.2769 14.706 11.216C14.424 11.1552 14.1656 11.0144 13.9617 10.8104C13.7577 10.6065 13.6169 10.3481 13.5561 10.0662C13.4953 9.78422 13.517 9.49073 13.6187 9.22084C13.7204 8.95094 13.8978 8.71609 14.1295 8.54443C14.3613 8.37276 14.6376 8.27154 14.9255 8.25292C15.1381 8.24006 15.3511 8.27247 15.5503 8.34802C15.7494 8.42356 15.9303 8.54052 16.081 8.69116C16.2316 8.8418 16.3486 9.02269 16.4241 9.22188C16.4997 9.42107 16.5321 9.63402 16.5192 9.84667Z" fill="#666666"/>
</svg>
