<svg width="24" height="24" viewBox="0 0 24 24" fill="none" xmlns="http://www.w3.org/2000/svg">
<path d="M18.9732 5.76626C16.7987 4.88032 14.5168 4.49689 12.0001 4.49689C9.48334 4.49689 7.02662 4.91876 5.02037 5.74751C4.64162 5.9022 4.30505 6.16939 4.54834 6.66157C4.74568 7.06142 9.51568 17.575 11.3279 21.325C11.3889 21.4517 11.4845 21.5586 11.6035 21.6334C11.7226 21.7082 11.8604 21.7479 12.001 21.7479C12.1416 21.7479 12.2794 21.7082 12.3985 21.6334C12.5175 21.5586 12.6131 21.4517 12.6741 21.325L19.4265 6.6897C19.576 6.36626 19.4687 5.96783 18.9732 5.76626V5.76626Z" stroke="#666666" stroke-width="1.5" stroke-miterlimit="10"/>
<path d="M20.4554 3.87343C18.0146 2.9078 15.0081 2.2478 12.0001 2.2478C8.99213 2.2478 6.03057 2.84687 3.53823 3.8453C3.31838 3.9353 2.90635 4.14296 3.01932 4.49218L3.47307 5.6228C3.66057 6.00718 3.87948 6.00718 4.17901 6.00718C4.26291 6.00718 4.3801 5.9603 4.52026 5.90499C6.90539 4.97855 9.44137 4.50145 12.0001 4.4978C14.6607 4.4978 17.3865 5.0603 19.4814 5.90405C19.6496 5.96968 19.7434 6.00624 19.8226 6.00624C20.131 6.00624 20.3092 6.1089 20.5257 5.62655L20.9837 4.4978C21.0779 4.21655 20.7498 3.99062 20.4554 3.87343Z" stroke="#666666" stroke-width="1.5" stroke-miterlimit="10"/>
<path d="M9.00011 10.4987C9.82854 10.4987 10.5001 9.82715 10.5001 8.99872C10.5001 8.17029 9.82854 7.49872 9.00011 7.49872C8.17168 7.49872 7.50011 8.17029 7.50011 8.99872C7.50011 9.82715 8.17168 10.4987 9.00011 10.4987Z" fill="#666666"/>
<path d="M15.0001 11.2514C15.8285 11.2514 16.5001 10.5798 16.5001 9.7514C16.5001 8.92298 15.8285 8.2514 15.0001 8.2514C14.1716 8.2514 13.5001 8.92298 13.5001 9.7514C13.5001 10.5798 14.1716 11.2514 15.0001 11.2514Z" fill="#666666"/>
<path d="M12.0001 16.4978C12.8285 16.4978 13.5001 15.8262 13.5001 14.9978C13.5001 14.1694 12.8285 13.4978 12.0001 13.4978C11.1717 13.4978 10.5001 14.1694 10.5001 14.9978C10.5001 15.8262 11.1717 16.4978 12.0001 16.4978Z" fill="#666666"/>
</svg>
