<svg width="24" height="24" viewBox="0 0 24 24" fill="none" xmlns="http://www.w3.org/2000/svg">
<g clip-path="url(#clip0_32_2825)">
<path d="M4.53988 13.434C4.47816 13.3887 4.40405 13.3634 4.3275 13.3614C4.25095 13.3594 4.17563 13.381 4.11167 13.4231C4.04772 13.4652 3.99818 13.5259 3.96974 13.597C3.94129 13.668 3.93528 13.7461 3.95253 13.8208C4.78457 17.4962 8.0766 20.2487 12 20.2487C12.8332 20.249 13.6616 20.1225 14.4568 19.8737C14.5301 19.8511 14.5948 19.8065 14.642 19.7459C14.6892 19.6854 14.7167 19.6118 14.7208 19.5351C14.7248 19.4584 14.7052 19.3823 14.6646 19.3171C14.624 19.252 14.5644 19.2008 14.4938 19.1706C12.7368 18.3962 11.0236 17.526 9.36191 16.5639C7.69891 15.609 6.08918 14.5641 4.53988 13.434ZM23.0963 15.9133C22.8999 15.6517 22.6693 15.377 22.4072 15.0915C22.3216 14.9972 22.2131 14.9265 22.0923 14.8863C21.9714 14.846 21.8422 14.8376 21.7171 14.8618C21.592 14.8859 21.4753 14.9419 21.3781 15.0242C21.2809 15.1066 21.2066 15.2126 21.1622 15.332C21.1622 15.3395 21.1571 15.3465 21.1543 15.354C21.1075 15.481 21.0966 15.6184 21.1226 15.7511C21.1487 15.8839 21.2107 16.0069 21.3019 16.1068C22.3679 17.2787 22.5404 17.912 22.4963 18.0456C22.4025 18.1501 21.6971 18.3686 19.7705 17.8801C19.4946 17.8101 19.1927 17.7248 18.8649 17.6242C18.6536 17.5592 18.4382 17.489 18.2185 17.4137C18.5636 17.0179 18.8703 16.5902 19.1344 16.1364C19.1424 16.1228 19.1508 16.1092 19.1588 16.0951C19.8744 14.8485 20.2506 13.4361 20.25 11.9987C20.2502 11.7012 20.2346 11.4039 20.2032 11.1081C19.7546 6.97513 16.2469 3.74872 12 3.74872C10.1981 3.74771 8.44571 4.3388 7.01254 5.43106C6.14388 6.0922 5.41391 6.91791 4.86425 7.86106C4.85675 7.87466 4.84832 7.88825 4.84035 7.90185C4.57911 8.35695 4.36203 8.83601 4.19207 9.33247C4.01738 9.18028 3.84878 9.02919 3.68628 8.87919C3.43363 8.64481 3.20957 8.42778 3.01035 8.22294C1.62425 6.8045 1.45925 6.08497 1.50285 5.95184C1.5966 5.84731 2.23128 5.67669 3.78191 6.01325C3.91448 6.0424 4.05251 6.03461 4.18095 5.99072C4.3094 5.94683 4.42334 5.86853 4.51035 5.76434L4.52722 5.74372C4.6081 5.64653 4.66264 5.53019 4.68562 5.40585C4.70859 5.28152 4.69923 5.15337 4.65843 5.03369C4.61763 4.91402 4.54676 4.80684 4.45261 4.72243C4.35847 4.63803 4.24422 4.57923 4.12082 4.55169C3.75278 4.4683 3.38073 4.40368 3.00613 4.35809C1.56613 4.19263 0.623471 4.47622 0.20394 5.20184C0.0520647 5.46341 -0.0937166 5.90919 0.0764397 6.54247C0.328158 7.48278 1.22535 8.62372 2.49519 9.81903C2.89972 10.2001 3.34175 10.5864 3.81332 10.974C4.15644 11.2553 4.51644 11.5393 4.88675 11.8215C5.13394 12.009 5.38628 12.1965 5.64378 12.384C5.90129 12.5715 6.16222 12.7556 6.4266 12.9362C7.61769 13.7617 8.87629 14.5543 10.1105 15.2654C10.5586 15.5236 11.0061 15.7736 11.453 16.0154C11.8999 16.2573 12.3432 16.4887 12.7829 16.7097C13.8094 17.2253 14.8149 17.6903 15.7763 18.0892C16.1885 18.2604 16.5918 18.4192 16.9861 18.5654C17.5435 18.7726 18.0816 18.955 18.5944 19.1087L18.646 19.1242C19.8521 19.4833 20.8688 19.6722 21.6685 19.6867H21.75C22.7644 19.6867 23.4516 19.3876 23.7929 18.7961C24.2189 18.0639 23.9841 17.0936 23.0963 15.9133Z" fill="#666666"/>
</g>
<defs>
<clipPath id="clip0_32_2825">
<rect width="24" height="24" fill="white"/>
</clipPath>
</defs>
</svg>
