<svg width="24" height="24" viewBox="0 0 24 24" fill="none" xmlns="http://www.w3.org/2000/svg">
<g clip-path="url(#clip0_32_2823)">
<path d="M3.79685 12.8758C4.2356 17.0143 7.74654 20.2487 12 20.2487C13.1547 20.25 14.2966 20.0074 15.3511 19.5367C13.462 18.7618 11.4112 17.7475 9.36185 16.5667C7.35935 15.414 5.42997 14.1315 3.79685 12.8758ZM23.0962 15.9133C22.6978 15.3831 22.1587 14.7976 21.5025 14.1789C21.3773 14.7241 21.2047 15.2574 20.9869 15.7726C22.3331 17.1554 22.5431 17.8979 22.4948 18.0437C22.4011 18.1483 21.6956 18.3667 19.769 17.8783C19.4931 17.8083 19.1912 17.7229 18.8634 17.6223C18.6522 17.5573 18.4367 17.4872 18.217 17.4118C18.5621 17.0161 18.8688 16.5883 19.1329 16.1345C19.1409 16.1209 19.1494 16.1073 19.1573 16.0933C19.8731 14.8473 20.2498 13.4356 20.25 11.9987C20.2502 11.7012 20.2345 11.4039 20.2031 11.1081C19.7545 6.97513 16.2469 3.74872 12 3.74872C10.198 3.74771 8.44565 4.3388 7.01247 5.43106C6.14382 6.0922 5.41385 6.91791 4.86419 7.86106C4.85669 7.87466 4.84826 7.88825 4.84029 7.90185C4.57905 8.35695 4.36197 8.83601 4.192 9.33247C4.01732 9.18028 3.84872 9.02919 3.68622 8.87919C3.43357 8.64481 3.2095 8.42778 3.01029 8.22294C1.62419 6.8045 1.45919 6.08497 1.50279 5.95184C1.60404 5.83794 2.35122 5.64528 4.22763 6.11825C4.56649 5.67197 4.94286 5.25546 5.35263 4.87325C4.46857 4.61028 3.67497 4.43497 3.00654 4.35763C1.56607 4.19263 0.62341 4.47622 0.203879 5.20184C0.0520037 5.46341 -0.0937776 5.90919 0.0763787 6.54247C0.328097 7.48278 1.22529 8.62372 2.49513 9.81903C2.89966 10.2001 3.34169 10.5864 3.81325 10.974C4.15638 11.2553 4.51638 11.5393 4.88669 11.8215C5.13388 12.009 5.38622 12.1965 5.64372 12.384C5.90122 12.5715 6.16216 12.7556 6.42654 12.9362C7.61763 13.7617 8.87622 14.5543 10.1104 15.2654C10.5586 15.5236 11.0061 15.7736 11.4529 16.0154C11.8998 16.2573 12.3431 16.4887 12.7828 16.7097C13.8094 17.2253 14.8148 17.6903 15.7762 18.0892C16.1884 18.2604 16.5917 18.4192 16.9861 18.5654C17.5434 18.7726 18.0815 18.955 18.5944 19.1087L18.6459 19.1242C19.852 19.4833 20.8687 19.6722 21.6684 19.6867H21.75C22.7644 19.6867 23.4515 19.3876 23.7928 18.7961C24.2189 18.0639 23.984 17.0936 23.0962 15.9133Z" fill="#666666"/>
</g>
<defs>
<clipPath id="clip0_32_2823">
<rect width="24" height="24" fill="white"/>
</clipPath>
</defs>
</svg>
