<svg width="24" height="24" viewBox="0 0 24 24" fill="none" xmlns="http://www.w3.org/2000/svg">
<path d="M5.25002 2.99872C5.44893 2.99872 5.63969 3.07774 5.78035 3.21839C5.921 3.35904 6.00002 3.54981 6.00002 3.74872V10.1439L16.9111 3.61325C17.1631 3.45995 17.4517 3.37716 17.7466 3.37353C18.0416 3.3699 18.3321 3.44557 18.5878 3.59262C19.1503 3.91137 19.5 4.53012 19.5 5.20184V18.7956C19.5 19.4692 19.1503 20.0861 18.5878 20.4048C18.3321 20.5517 18.0415 20.6273 17.7466 20.6236C17.4516 20.6199 17.1631 20.537 16.9111 20.3837L6.00002 13.8536V20.2487C6.00002 20.4476 5.921 20.6384 5.78035 20.7791C5.63969 20.9197 5.44893 20.9987 5.25002 20.9987C5.0511 20.9987 4.86034 20.9197 4.71969 20.7791C4.57903 20.6384 4.50002 20.4476 4.50002 20.2487V3.74872C4.50002 3.54981 4.57903 3.35904 4.71969 3.21839C4.86034 3.07774 5.0511 2.99872 5.25002 2.99872Z" fill="#666666"/>
</svg>
