<svg width="24" height="24" viewBox="0 0 24 24" fill="none" xmlns="http://www.w3.org/2000/svg">
<path d="M12 2.24963C6.62391 2.24963 2.25001 6.62354 2.25001 11.9996C2.25001 17.3757 6.62391 21.7496 12 21.7496C17.3761 21.7496 21.75 17.3757 21.75 11.9996C21.75 6.62354 17.3761 2.24963 12 2.24963ZM18.5049 12.4356L13.14 15.6765C13.0631 15.7226 12.9753 15.7474 12.8857 15.7483C12.7961 15.7493 12.7078 15.7264 12.6299 15.682C12.5521 15.6375 12.4874 15.5732 12.4426 15.4956C12.3978 15.4179 12.3745 15.3297 12.375 15.2401V12.7407L7.51501 15.6765C7.43811 15.7226 7.35034 15.7474 7.2607 15.7483C7.17107 15.7493 7.08279 15.7264 7.00493 15.682C6.92706 15.6375 6.86242 15.5732 6.81762 15.4956C6.77282 15.4179 6.74949 15.3297 6.75001 15.2401V8.75917C6.74949 8.66952 6.77282 8.58136 6.81762 8.50371C6.86242 8.42607 6.92706 8.36173 7.00493 8.31732C7.08279 8.2729 7.17107 8.24999 7.2607 8.25095C7.35034 8.2519 7.43811 8.27669 7.51501 8.32276L12.375 11.2585V8.75917C12.3745 8.66952 12.3978 8.58136 12.4426 8.50371C12.4874 8.42607 12.5521 8.36173 12.6299 8.31732C12.7078 8.2729 12.7961 8.24999 12.8857 8.25095C12.9753 8.2519 13.0631 8.27669 13.14 8.32276L18.5049 11.5637C18.5796 11.6093 18.6414 11.6733 18.6843 11.7496C18.7272 11.826 18.7497 11.9121 18.7497 11.9996C18.7497 12.0872 18.7272 12.1733 18.6843 12.2496C18.6414 12.326 18.5796 12.39 18.5049 12.4356Z" fill="#666666"/>
</svg>
