<svg width="24" height="24" viewBox="0 0 24 24" fill="none" xmlns="http://www.w3.org/2000/svg">
<path d="M22.5605 10.7538L13.7073 5.45695C13.4882 5.32369 13.2374 5.25168 12.9811 5.24847C12.7247 5.24525 12.4722 5.31094 12.2499 5.43867C12.0087 5.57913 11.809 5.78091 11.671 6.02353C11.533 6.26616 11.4617 6.54097 11.4643 6.82008V10.5255L2.99304 5.45555C2.77401 5.32228 2.52322 5.25028 2.26686 5.24706C2.01051 5.24385 1.75799 5.30953 1.53569 5.43726C1.29449 5.57772 1.09476 5.7795 0.956776 6.02213C0.818793 6.26475 0.747476 6.53957 0.750067 6.81867V17.178C0.747393 17.4572 0.81867 17.7321 0.956657 17.9749C1.09464 18.2176 1.29442 18.4194 1.53569 18.5599C1.75799 18.6877 2.01051 18.7533 2.26686 18.7501C2.52322 18.7469 2.77401 18.6749 2.99304 18.5416L11.4643 13.4693V17.1762C11.4613 17.4557 11.5324 17.731 11.6704 17.974C11.8084 18.2171 12.0084 18.4193 12.2499 18.5599C12.4722 18.6877 12.7247 18.7533 12.9811 18.7501C13.2374 18.7469 13.4882 18.6749 13.7073 18.5416L22.5605 13.2448C22.771 13.1129 22.9445 12.9298 23.0648 12.7125C23.1851 12.4952 23.2482 12.2509 23.2482 12.0026C23.2482 11.7542 23.1851 11.5099 23.0648 11.2927C22.9445 11.0754 22.771 10.8922 22.5605 10.7604V10.7538Z" fill="#666666"/>
</svg>
