<svg width="24" height="24" viewBox="0 0 24 24" fill="none" xmlns="http://www.w3.org/2000/svg">
<path d="M21 11.9987C21 7.02997 16.9688 2.99872 12 2.99872C7.03127 2.99872 3.00002 7.02997 3.00002 11.9987C3.00002 16.9675 7.03127 20.9987 12 20.9987C16.9688 20.9987 21 16.9675 21 11.9987Z" stroke="#666666" stroke-width="1.5" stroke-miterlimit="10"/>
<path d="M15.0001 8.24963C14.8012 8.24963 14.6104 8.32865 14.4698 8.4693C14.3291 8.60996 14.2501 8.80072 14.2501 8.99963V11.484L9.01509 8.32276C8.93819 8.27669 8.85042 8.2519 8.76078 8.25095C8.67114 8.24999 8.58287 8.2729 8.505 8.31732C8.42714 8.36173 8.36249 8.42607 8.3177 8.50371C8.2729 8.58136 8.24956 8.66952 8.25008 8.75916V15.2401C8.24956 15.3297 8.2729 15.4179 8.3177 15.4956C8.36249 15.5732 8.42714 15.6375 8.505 15.682C8.58287 15.7264 8.67114 15.7493 8.76078 15.7483C8.85042 15.7474 8.93819 15.7226 9.01509 15.6765L14.2501 12.5153V14.9996C14.2501 15.1985 14.3291 15.3893 14.4698 15.53C14.6104 15.6706 14.8012 15.7496 15.0001 15.7496C15.199 15.7496 15.3898 15.6706 15.5304 15.53C15.6711 15.3893 15.7501 15.1985 15.7501 14.9996V8.99963C15.7501 8.80072 15.6711 8.60996 15.5304 8.4693C15.3898 8.32865 15.199 8.24963 15.0001 8.24963Z" fill="#666666"/>
</svg>
