<svg width="24" height="24" viewBox="0 0 24 24" fill="none" xmlns="http://www.w3.org/2000/svg">
<path d="M12 2.24872C6.62392 2.24872 2.25002 6.62262 2.25002 11.9987C2.25002 17.3748 6.62392 21.7487 12 21.7487C17.3761 21.7487 21.75 17.3748 21.75 11.9987C21.75 6.62262 17.3761 2.24872 12 2.24872ZM15.5049 12.4347L10.14 15.6756C10.0631 15.7217 9.97535 15.7464 9.88571 15.7474C9.79607 15.7484 9.7078 15.7255 9.62993 15.681C9.55207 15.6366 9.48742 15.5723 9.44263 15.4946C9.39783 15.417 9.3745 15.3288 9.37502 15.2392V8.75825C9.3745 8.66861 9.39783 8.58044 9.44263 8.5028C9.48742 8.42515 9.55207 8.36082 9.62993 8.3164C9.7078 8.27198 9.79607 8.24908 9.88571 8.25003C9.97535 8.25099 10.0631 8.27577 10.14 8.32184L15.5049 11.5628C15.5796 11.6083 15.6414 11.6724 15.6843 11.7487C15.7272 11.8251 15.7497 11.9112 15.7497 11.9987C15.7497 12.0863 15.7272 12.1724 15.6843 12.2487C15.6414 12.3251 15.5796 12.3891 15.5049 12.4347Z" fill="#666666"/>
</svg>
