<svg width="24" height="24" viewBox="0 0 24 24" fill="none" xmlns="http://www.w3.org/2000/svg">
<path d="M18.7501 2.99872C18.5512 2.99872 18.3604 3.07774 18.2198 3.21839C18.0791 3.35904 18.0001 3.54981 18.0001 3.74872V10.1439L7.08901 3.61325C6.837 3.45995 6.54843 3.37716 6.25348 3.37353C5.95852 3.3699 5.668 3.44557 5.41229 3.59262C4.84979 3.91137 4.50011 4.52825 4.50011 5.20184V18.7956C4.50011 19.4692 4.84979 20.0861 5.41229 20.4048C5.66806 20.5517 5.95859 20.6273 6.25354 20.6236C6.54849 20.6199 6.83702 20.537 7.08901 20.3837L18.0001 13.8536V20.2487C18.0001 20.4476 18.0791 20.6384 18.2198 20.7791C18.3604 20.9197 18.5512 20.9987 18.7501 20.9987C18.949 20.9987 19.1398 20.9197 19.2804 20.7791C19.4211 20.6384 19.5001 20.4476 19.5001 20.2487V3.74872C19.5001 3.54981 19.4211 3.35904 19.2804 3.21839C19.1398 3.07774 18.949 2.99872 18.7501 2.99872Z" fill="#666666"/>
</svg>
