<svg width="24" height="24" viewBox="0 0 24 24" fill="none" xmlns="http://www.w3.org/2000/svg">
<path d="M2.25008 11.9996C2.25008 17.3757 6.62398 21.7496 12.0001 21.7496C17.3762 21.7496 21.7501 17.3757 21.7501 11.9996C21.7501 6.62354 17.3762 2.24963 12.0001 2.24963C6.62398 2.24963 2.25008 6.62354 2.25008 11.9996ZM8.25008 8.99963C8.25008 8.80072 8.32909 8.60996 8.46975 8.4693C8.6104 8.32865 8.80116 8.24963 9.00008 8.24963C9.19899 8.24963 9.38975 8.32865 9.53041 8.4693C9.67106 8.60996 9.75008 8.80072 9.75008 8.99963V11.484L14.9851 8.32182C15.062 8.27571 15.1499 8.25092 15.2396 8.25C15.3293 8.24909 15.4177 8.27208 15.4956 8.31661C15.5735 8.36114 15.6381 8.4256 15.6828 8.50338C15.7276 8.58116 15.7508 8.66945 15.7501 8.75917V15.2401C15.7506 15.3297 15.7273 15.4179 15.6825 15.4956C15.6377 15.5732 15.573 15.6375 15.4952 15.682C15.4173 15.7264 15.329 15.7493 15.2394 15.7483C15.1497 15.7474 15.062 15.7226 14.9851 15.6765L9.75008 12.5153V14.9996C9.75008 15.1985 9.67106 15.3893 9.53041 15.53C9.38975 15.6706 9.19899 15.7496 9.00008 15.7496C8.80116 15.7496 8.6104 15.6706 8.46975 15.53C8.32909 15.3893 8.25008 15.1985 8.25008 14.9996V8.99963Z" fill="#666666"/>
</svg>
