<svg width="24" height="24" viewBox="0 0 24 24" fill="none" xmlns="http://www.w3.org/2000/svg">
<path d="M2.25007 11.9987C2.25007 17.3748 6.62398 21.7487 12.0001 21.7487C17.3762 21.7487 21.7501 17.3748 21.7501 11.9987C21.7501 6.62262 17.3762 2.24872 12.0001 2.24872C6.62398 2.24872 2.25007 6.62262 2.25007 11.9987ZM5.49523 11.5628L10.8601 8.32184C10.937 8.27577 11.0247 8.25099 11.1144 8.25003C11.204 8.24908 11.2923 8.27198 11.3702 8.3164C11.448 8.36082 11.5127 8.42515 11.5575 8.5028C11.6023 8.58044 11.6256 8.66861 11.6251 8.75825V11.2576L16.4851 8.32184C16.562 8.27577 16.6497 8.25099 16.7394 8.25003C16.829 8.24908 16.9173 8.27198 16.9952 8.3164C17.073 8.36082 17.1377 8.42515 17.1825 8.5028C17.2273 8.58044 17.2506 8.66861 17.2501 8.75825V15.2392C17.2506 15.3288 17.2273 15.417 17.1825 15.4946C17.1377 15.5723 17.073 15.6366 16.9952 15.681C16.9173 15.7255 16.829 15.7484 16.7394 15.7474C16.6497 15.7464 16.562 15.7217 16.4851 15.6756L11.6251 12.7398V15.2392C11.6256 15.3288 11.6023 15.417 11.5575 15.4946C11.5127 15.5723 11.448 15.6366 11.3702 15.681C11.2923 15.7255 11.204 15.7484 11.1144 15.7474C11.0247 15.7464 10.937 15.7217 10.8601 15.6756L5.49523 12.4347C5.42044 12.3891 5.35864 12.3251 5.31576 12.2487C5.27287 12.1724 5.25034 12.0863 5.25034 11.9987C5.25034 11.9112 5.27287 11.8251 5.31576 11.7487C5.35864 11.6724 5.42044 11.6083 5.49523 11.5628Z" fill="#666666"/>
</svg>
