<svg width="24" height="24" viewBox="0 0 24 24" fill="none" xmlns="http://www.w3.org/2000/svg">
<path d="M12.0001 2.24603C6.62402 2.24603 2.25011 6.61994 2.25011 11.996C2.25011 17.3721 6.62402 21.746 12.0001 21.746C17.3762 21.746 21.7501 17.3721 21.7501 11.996C21.7501 6.61994 17.3762 2.24603 12.0001 2.24603ZM15.7501 14.996C15.7501 15.1949 15.6711 15.3857 15.5304 15.5264C15.3898 15.667 15.199 15.746 15.0001 15.746C14.8012 15.746 14.6104 15.667 14.4698 15.5264C14.3291 15.3857 14.2501 15.1949 14.2501 14.996V12.5117L9.01511 15.6729C8.93822 15.719 8.85045 15.7438 8.76081 15.7447C8.67117 15.7457 8.5829 15.7228 8.50503 15.6784C8.42717 15.6339 8.36252 15.5696 8.31773 15.492C8.27293 15.4143 8.24959 15.3261 8.25011 15.2365V8.75556C8.24959 8.66592 8.27293 8.57776 8.31773 8.50011C8.36252 8.42247 8.42717 8.35813 8.50503 8.31371C8.5829 8.2693 8.67117 8.24639 8.76081 8.24735C8.85045 8.2483 8.93822 8.27309 9.01511 8.31916L14.2501 11.4804V8.99603C14.2501 8.79712 14.3291 8.60636 14.4698 8.4657C14.6104 8.32505 14.8012 8.24603 15.0001 8.24603C15.199 8.24603 15.3898 8.32505 15.5304 8.4657C15.6711 8.60636 15.7501 8.79712 15.7501 8.99603V14.996Z" fill="#666666"/>
</svg>
