<svg width="24" height="24" viewBox="0 0 24 24" fill="none" xmlns="http://www.w3.org/2000/svg">
<path d="M12 20.9978C16.9687 20.9978 21 16.9666 21 11.9978C21 7.02905 16.9687 2.9978 12 2.9978C7.03124 2.9978 2.99998 7.02905 2.99998 11.9978C2.99998 16.9666 7.03124 20.9978 12 20.9978Z" stroke="#666666" stroke-width="1.5" stroke-miterlimit="10"/>
<path d="M9.00004 8.24872C9.19895 8.24872 9.38972 8.32774 9.53037 8.46839C9.67102 8.60904 9.75004 8.79981 9.75004 8.99872V11.4831L14.985 8.32091C15.062 8.27479 15.1499 8.25001 15.2396 8.24909C15.3293 8.24817 15.4176 8.27116 15.4955 8.31569C15.5734 8.36022 15.6381 8.42469 15.6828 8.50247C15.7275 8.58024 15.7507 8.66853 15.75 8.75825V15.2392C15.7506 15.3288 15.7272 15.417 15.6824 15.4946C15.6376 15.5723 15.573 15.6366 15.4951 15.681C15.4173 15.7255 15.329 15.7484 15.2393 15.7474C15.1497 15.7464 15.0619 15.7217 14.985 15.6756L9.75004 12.5143V14.9987C9.75004 15.1976 9.67102 15.3884 9.53037 15.5291C9.38972 15.6697 9.19895 15.7487 9.00004 15.7487C8.80113 15.7487 8.61036 15.6697 8.46971 15.5291C8.32906 15.3884 8.25004 15.1976 8.25004 14.9987V8.99872C8.25004 8.79981 8.32906 8.60904 8.46971 8.46839C8.61036 8.32774 8.80113 8.24872 9.00004 8.24872Z" fill="#666666"/>
</svg>
