<svg width="24" height="24" viewBox="0 0 24 24" fill="none" xmlns="http://www.w3.org/2000/svg">
<path d="M21.0001 11.9969C21.0001 7.0282 16.9689 2.99695 12.0001 2.99695C7.03136 2.99695 3.00011 7.0282 3.00011 11.9969C3.00011 16.9657 7.03136 20.9969 12.0001 20.9969C16.9689 20.9969 21.0001 16.9657 21.0001 11.9969Z" stroke="#666666" stroke-width="1.5" stroke-miterlimit="10"/>
<path d="M18.5048 11.5606L13.14 8.31964C13.0631 8.27357 12.9753 8.24879 12.8857 8.24783C12.796 8.24687 12.7078 8.26978 12.6299 8.3142C12.552 8.35862 12.4874 8.42295 12.4426 8.5006C12.3978 8.57824 12.3745 8.66641 12.375 8.75605V11.2554L7.51498 8.31964C7.43808 8.27357 7.35031 8.24879 7.26067 8.24783C7.17104 8.24687 7.08276 8.26978 7.0049 8.3142C6.92703 8.35862 6.86239 8.42295 6.81759 8.5006C6.77279 8.57824 6.74946 8.66641 6.74998 8.75605V15.237C6.74946 15.3266 6.77279 15.4148 6.81759 15.4924C6.86239 15.5701 6.92703 15.6344 7.0049 15.6788C7.08276 15.7233 7.17104 15.7462 7.26067 15.7452C7.35031 15.7442 7.43808 15.7195 7.51498 15.6734L12.375 12.7376V15.237C12.3745 15.3266 12.3978 15.4148 12.4426 15.4924C12.4874 15.5701 12.552 15.6344 12.6299 15.6788C12.7078 15.7233 12.796 15.7462 12.8857 15.7452C12.9753 15.7442 13.0631 15.7195 13.14 15.6734L18.5048 12.4325C18.5796 12.3869 18.6414 12.3229 18.6843 12.2465C18.7272 12.1702 18.7497 12.0841 18.7497 11.9965C18.7497 11.909 18.7272 11.8229 18.6843 11.7465C18.6414 11.6702 18.5796 11.6061 18.5048 11.5606Z" fill="#666666"/>
</svg>
