<svg width="24" height="24" viewBox="0 0 24 24" fill="none" xmlns="http://www.w3.org/2000/svg">
<path d="M12 20.9969C16.9687 20.9969 21 16.9657 21 11.9969C21 7.0282 16.9687 2.99695 12 2.99695C7.03122 2.99695 2.99997 7.0282 2.99997 11.9969C2.99997 16.9657 7.03122 20.9969 12 20.9969Z" stroke="#666666" stroke-width="1.5" stroke-miterlimit="10"/>
<path d="M5.49508 11.5606L10.8599 8.31964C10.9368 8.27357 11.0246 8.24879 11.1142 8.24783C11.2039 8.24687 11.2921 8.26978 11.37 8.3142C11.4479 8.35862 11.5125 8.42295 11.5573 8.5006C11.6021 8.57824 11.6254 8.66641 11.6249 8.75605V11.2554L16.4849 8.31964C16.5618 8.27357 16.6496 8.24879 16.7392 8.24783C16.8289 8.24687 16.9171 8.26978 16.995 8.3142C17.0729 8.35862 17.1375 8.42295 17.1823 8.5006C17.2271 8.57824 17.2504 8.66641 17.2499 8.75605V15.237C17.2504 15.3266 17.2271 15.4148 17.1823 15.4924C17.1375 15.5701 17.0729 15.6344 16.995 15.6788C16.9171 15.7233 16.8289 15.7462 16.7392 15.7452C16.6496 15.7442 16.5618 15.7195 16.4849 15.6734L11.6249 12.7376V15.237C11.6254 15.3266 11.6021 15.4148 11.5573 15.4924C11.5125 15.5701 11.4479 15.6344 11.37 15.6788C11.2921 15.7233 11.2039 15.7462 11.1142 15.7452C11.0246 15.7442 10.9368 15.7195 10.8599 15.6734L5.49508 12.4325C5.4203 12.3869 5.35849 12.3229 5.31561 12.2465C5.27272 12.1702 5.2502 12.0841 5.2502 11.9965C5.2502 11.909 5.27272 11.8229 5.31561 11.7465C5.35849 11.6702 5.4203 11.6061 5.49508 11.5606Z" fill="#666666"/>
</svg>
