<svg width="24" height="24" viewBox="0 0 24 24" fill="none" xmlns="http://www.w3.org/2000/svg">
<path d="M1.43954 10.7529L10.2928 5.45604C10.5118 5.32277 10.7626 5.25077 11.019 5.24755C11.2754 5.24434 11.5279 5.31002 11.7502 5.43775C11.9914 5.57821 12.1911 5.78 12.3291 6.02262C12.4671 6.26524 12.5384 6.54006 12.5358 6.81916V10.5246L21.007 5.45463C21.2261 5.32136 21.4769 5.24936 21.7332 5.24615C21.9896 5.24293 22.2421 5.30862 22.4644 5.43635C22.7056 5.5768 22.9053 5.77859 23.0433 6.02121C23.1813 6.26383 23.2526 6.53865 23.25 6.81775V17.1771C23.2527 17.4563 23.1815 17.7313 23.0435 17.974C22.9055 18.2167 22.7057 18.4185 22.4644 18.559C22.2421 18.6867 21.9896 18.7524 21.7332 18.7492C21.4769 18.746 21.2261 18.674 21.007 18.5407L12.5358 13.4684V17.1753C12.5388 17.4548 12.4677 17.7301 12.3297 17.9732C12.1917 18.2162 11.9917 18.4184 11.7502 18.559C11.5279 18.6867 11.2754 18.7524 11.019 18.7492C10.7626 18.746 10.5118 18.674 10.2928 18.5407L1.43954 13.2438C1.22907 13.112 1.05556 12.9289 0.935273 12.7116C0.814991 12.4943 0.751888 12.25 0.751888 12.0017C0.751888 11.7533 0.814991 11.509 0.935273 11.2918C1.05556 11.0745 1.22907 10.8913 1.43954 10.7595V10.7529Z" fill="#666666"/>
</svg>
