<svg width="24" height="24" viewBox="0 0 24 24" fill="none" xmlns="http://www.w3.org/2000/svg">
<path d="M21.0001 11.9969C21.0001 7.0282 16.9688 2.99695 12.0001 2.99695C7.03131 2.99695 3.00006 7.0282 3.00006 11.9969C3.00006 16.9657 7.03131 20.9969 12.0001 20.9969C16.9688 20.9969 21.0001 16.9657 21.0001 11.9969Z" stroke="#666666" stroke-width="1.5" stroke-miterlimit="10"/>
<path d="M10.14 15.6734L15.5048 12.4325C15.5796 12.3869 15.6414 12.3229 15.6843 12.2465C15.7272 12.1702 15.7497 12.0841 15.7497 11.9965C15.7497 11.909 15.7272 11.8229 15.6843 11.7465C15.6414 11.6702 15.5796 11.6061 15.5048 11.5606L10.14 8.31964C10.0631 8.27357 9.9753 8.24879 9.88566 8.24783C9.79602 8.24687 9.70774 8.26978 9.62988 8.3142C9.55202 8.35862 9.48737 8.42295 9.44257 8.5006C9.39778 8.57824 9.37444 8.66641 9.37496 8.75605V15.237C9.37444 15.3266 9.39778 15.4148 9.44257 15.4924C9.48737 15.5701 9.55202 15.6344 9.62988 15.6788C9.70774 15.7233 9.79602 15.7462 9.88566 15.7452C9.9753 15.7442 10.0631 15.7195 10.14 15.6734Z" fill="#666666"/>
</svg>
