<svg width="24" height="24" viewBox="0 0 24 24" fill="none" xmlns="http://www.w3.org/2000/svg">
<path d="M6.2345 20.6229C5.9467 20.6224 5.66399 20.547 5.41419 20.404C4.85169 20.0853 4.502 19.4665 4.502 18.7948V5.20107C4.502 4.52748 4.85169 3.9106 5.41419 3.59185C5.66994 3.44487 5.96048 3.36928 6.25543 3.37299C6.55039 3.3767 6.83893 3.45958 7.09091 3.61295L18.7089 10.5673C18.951 10.7191 19.1506 10.93 19.289 11.18C19.4273 11.4301 19.4999 11.7112 19.4999 11.997C19.4999 12.2828 19.4273 12.5639 19.289 12.814C19.1506 13.064 18.951 13.2749 18.7089 13.4267L7.08903 20.3829C6.83117 20.5388 6.53582 20.6218 6.2345 20.6229Z" fill="#666666"/>
</svg>
