<svg width="24" height="24" viewBox="0 0 24 24" fill="none" xmlns="http://www.w3.org/2000/svg">
<path d="M1.49992 7.49695V21.3719C1.49992 21.4714 1.53942 21.5668 1.60975 21.6371C1.68008 21.7074 1.77546 21.7469 1.87492 21.7469H8.24992V7.49695C8.24992 7.29804 8.1709 7.10727 8.03025 6.96662C7.88959 6.82597 7.69883 6.74695 7.49992 6.74695H2.24992C2.051 6.74695 1.86024 6.82597 1.71959 6.96662C1.57893 7.10727 1.49992 7.29804 1.49992 7.49695V7.49695ZM14.9999 2.24695H8.99992C8.801 2.24695 8.61024 2.32597 8.46959 2.46662C8.32893 2.60727 8.24992 2.79804 8.24992 2.99695V21.7469H15.7499V2.99695C15.7499 2.79804 15.6709 2.60727 15.5302 2.46662C15.3896 2.32597 15.1988 2.24695 14.9999 2.24695V2.24695ZM21.7499 9.74695H16.4999C16.301 9.74695 16.1102 9.82597 15.9696 9.96662C15.8289 10.1073 15.7499 10.298 15.7499 10.4969V21.7469H22.1249C22.2244 21.7469 22.3198 21.7074 22.3901 21.6371C22.4604 21.5668 22.4999 21.4714 22.4999 21.3719V10.4969C22.4999 10.298 22.4209 10.1073 22.2802 9.96662C22.1396 9.82597 21.9488 9.74695 21.7499 9.74695Z" stroke="#666666" stroke-width="1.5" stroke-linecap="round" stroke-linejoin="round"/>
</svg>
