<svg width="24" height="24" viewBox="0 0 24 24" fill="none" xmlns="http://www.w3.org/2000/svg">
<g clip-path="url(#clip0_32_2898)">
<path d="M15 1.49872H9.00002C8.60219 1.49872 8.22066 1.65675 7.93936 1.93806C7.65805 2.21936 7.50002 2.60089 7.50002 2.99872V22.3112C7.50002 22.3609 7.51977 22.4086 7.55493 22.4438C7.5901 22.479 7.63779 22.4987 7.68752 22.4987H16.3125C16.3622 22.4987 16.4099 22.479 16.4451 22.4438C16.4803 22.4086 16.5 22.3609 16.5 22.3112V2.99872C16.5 2.60089 16.342 2.21936 16.0607 1.93806C15.7794 1.65675 15.3978 1.49872 15 1.49872ZM21.75 8.99872H18.375C18.2756 8.99872 18.1802 9.03823 18.1099 9.10855C18.0395 9.17888 18 9.27426 18 9.37372V22.1237C18 22.2232 18.0395 22.3186 18.1099 22.3889C18.1802 22.4592 18.2756 22.4987 18.375 22.4987H22.125C22.4234 22.4987 22.7095 22.3802 22.9205 22.1692C23.1315 21.9582 23.25 21.6721 23.25 21.3737V10.4987C23.25 10.1009 23.092 9.71936 22.8107 9.43806C22.5294 9.15675 22.1478 8.99872 21.75 8.99872ZM2.25002 5.99872C1.85219 5.99872 1.47066 6.15675 1.18936 6.43806C0.908051 6.71936 0.750015 7.10089 0.750015 7.49872V21.3737C0.750015 21.6721 0.868542 21.9582 1.07952 22.1692C1.2905 22.3802 1.57665 22.4987 1.87502 22.4987H5.62502C5.72447 22.4987 5.81986 22.4592 5.89018 22.3889C5.96051 22.3186 6.00002 22.2232 6.00002 22.1237V6.37372C6.00002 6.27426 5.96051 6.17888 5.89018 6.10855C5.81986 6.03823 5.72447 5.99872 5.62502 5.99872H2.25002Z" fill="#666666"/>
</g>
<defs>
<clipPath id="clip0_32_2898">
<rect width="24" height="24" fill="white" transform="translate(0.00012207 -0.00390625)"/>
</clipPath>
</defs>
</svg>
