<svg width="24" height="24" viewBox="0 0 24 24" fill="none" xmlns="http://www.w3.org/2000/svg">
<path d="M12 21.7487C6.62387 21.7487 2.24996 17.3786 2.24996 12.0072C2.24534 10.5752 2.55706 9.15982 3.16285 7.86227C3.76864 6.56471 4.65355 5.41697 5.75434 4.50106L6.54653 3.84481L7.86699 5.42544L7.07481 6.08169C6.20647 6.80504 5.50862 7.71125 5.0311 8.73556C4.55358 9.75988 4.30819 10.877 4.31246 12.0072C4.31246 16.2442 7.76106 19.6914 12 19.6914C16.2389 19.6914 19.6875 16.2442 19.6875 12.0072C19.6874 10.8739 19.4358 9.75473 18.9508 8.73045C18.4658 7.70618 17.7595 6.80231 16.8829 6.08403L16.0861 5.42778L17.3986 3.84247L18.1954 4.49872C19.3065 5.40935 20.2016 6.55518 20.8163 7.85358C21.431 9.15198 21.7498 10.5706 21.75 12.0072C21.75 17.3786 17.3761 21.7487 12 21.7487Z" fill="#666666"/>
<path d="M10.9687 2.24695H13.0312V12.7469H10.9687V2.24695Z" fill="#666666"/>
</svg>
