<svg width="24" height="24" viewBox="0 0 24 24" fill="none" xmlns="http://www.w3.org/2000/svg">
<path d="M12.0001 21.7503C6.62402 21.7503 2.25011 17.3689 2.25011 11.9839C2.25011 9.05655 3.52746 6.31202 5.75449 4.45812C5.85847 4.37103 5.97861 4.30531 6.10803 4.26473C6.23745 4.22414 6.3736 4.20948 6.5087 4.22159C6.64379 4.2337 6.77516 4.27234 6.8953 4.3353C7.01544 4.39826 7.12197 4.48429 7.20881 4.58849C7.29565 4.69268 7.36108 4.81298 7.40135 4.94249C7.44163 5.07201 7.45596 5.2082 7.44353 5.34326C7.43109 5.47832 7.39214 5.6096 7.32889 5.72959C7.26565 5.84957 7.17936 5.9559 7.07496 6.04249C5.31949 7.50499 4.31261 9.67062 4.31261 11.9839C4.31261 16.2317 7.76121 19.6878 12.0001 19.6878C16.239 19.6878 19.6876 16.2317 19.6876 11.9839C19.6875 10.8487 19.4359 9.72753 18.951 8.70106C18.4661 7.6746 17.7599 6.76826 16.8831 6.04718C16.7745 5.96239 16.684 5.85669 16.6169 5.73633C16.5498 5.61597 16.5075 5.48339 16.4926 5.34642C16.4776 5.20945 16.4902 5.07087 16.5297 4.93886C16.5692 4.80684 16.6347 4.68408 16.7224 4.57782C16.8101 4.47156 16.9182 4.38395 17.0404 4.32018C17.1625 4.2564 17.2962 4.21775 17.4335 4.2065C17.5708 4.19526 17.709 4.21165 17.8399 4.2547C17.9708 4.29776 18.0917 4.3666 18.1956 4.45718C19.3071 5.3714 20.2024 6.5205 20.817 7.8219C21.4316 9.1233 21.7502 10.5447 21.7501 11.9839C21.7501 17.3689 17.3762 21.7503 12.0001 21.7503Z" fill="#666666"/>
<path d="M12 12.7469C11.7265 12.7469 11.4642 12.6383 11.2708 12.4449C11.0774 12.2515 10.9688 11.9892 10.9688 11.7157V3.2782C10.9688 3.00469 11.0774 2.74239 11.2708 2.54899C11.4642 2.3556 11.7265 2.24695 12 2.24695C12.2735 2.24695 12.5358 2.3556 12.7292 2.54899C12.9226 2.74239 13.0313 3.00469 13.0313 3.2782V11.7157C13.0313 11.9892 12.9226 12.2515 12.7292 12.4449C12.5358 12.6383 12.2735 12.7469 12 12.7469Z" fill="#666666"/>
</svg>
