<svg width="24" height="24" viewBox="0 0 24 24" fill="none" xmlns="http://www.w3.org/2000/svg">
<g clip-path="url(#clip0_32_2915)">
<path d="M18.9043 1.49872H13.1419C12.9628 1.49859 12.7909 1.56937 12.6638 1.6956L1.14378 13.2128C0.891594 13.4662 0.750023 13.8092 0.750023 14.1667C0.750023 14.5242 0.891594 14.8672 1.14378 15.1206L6.62815 20.605C6.88165 20.8572 7.2247 20.9988 7.58229 20.9988C7.93989 20.9988 8.28293 20.8572 8.53643 20.605L20.0532 9.09247C20.1794 8.96537 20.2502 8.79348 20.25 8.61435V2.84872C20.2509 2.67155 20.2167 2.49596 20.1494 2.33205C20.0822 2.16815 19.9831 2.01917 19.8581 1.89369C19.733 1.76821 19.5843 1.66872 19.4206 1.60093C19.2569 1.53315 19.0814 1.49841 18.9043 1.49872V1.49872Z" stroke="#666666" stroke-width="1.5" stroke-linecap="round" stroke-linejoin="round"/>
<path d="M16.5 6.74787C16.2033 6.74787 15.9133 6.65989 15.6666 6.49507C15.42 6.33025 15.2277 6.09598 15.1142 5.82189C15.0006 5.5478 14.9709 5.2462 15.0288 4.95523C15.0867 4.66426 15.2296 4.39698 15.4393 4.1872C15.6491 3.97743 15.9164 3.83456 16.2074 3.77669C16.4983 3.71881 16.7999 3.74851 17.074 3.86205C17.3481 3.97558 17.5824 4.16784 17.7472 4.41451C17.912 4.66118 18 4.95119 18 5.24787C18 5.64569 17.842 6.02722 17.5607 6.30853C17.2794 6.58983 16.8978 6.74787 16.5 6.74787Z" fill="#666666"/>
<path d="M10.7812 22.4979L23.0625 10.2166C23.1236 10.155 23.1716 10.0818 23.2038 10.0013C23.236 9.92075 23.2517 9.83457 23.25 9.74786V3.74786" stroke="#666666" stroke-width="1.5" stroke-linecap="round" stroke-linejoin="round"/>
</g>
<defs>
<clipPath id="clip0_32_2915">
<rect width="24" height="24" fill="white" transform="translate(0 -0.00390625)"/>
</clipPath>
</defs>
</svg>
