<svg width="24" height="24" viewBox="0 0 24 24" fill="none" xmlns="http://www.w3.org/2000/svg">
<path d="M20.4024 2.24695H14.6415C14.4624 2.24682 14.2905 2.3176 14.1634 2.44382L2.64618 13.961C2.394 14.2144 2.25243 14.5574 2.25243 14.9149C2.25243 15.2724 2.394 15.6154 2.64618 15.8688L8.13056 21.3532C8.38398 21.6054 8.72695 21.747 9.08447 21.747C9.44198 21.747 9.78495 21.6054 10.0384 21.3532L21.5509 9.8407C21.6771 9.7136 21.7479 9.5417 21.7478 9.36258V3.59695C21.7486 3.41982 21.7144 3.24426 21.6472 3.08039C21.58 2.91651 21.481 2.76756 21.3559 2.64209C21.2309 2.51662 21.0823 2.41711 20.9186 2.3493C20.755 2.28148 20.5796 2.2467 20.4024 2.24695V2.24695Z" stroke="#666666" stroke-width="1.5" stroke-linecap="round" stroke-linejoin="round"/>
<path d="M18.0002 7.49603C17.7035 7.49603 17.4135 7.40806 17.1668 7.24324C16.9201 7.07842 16.7279 6.84415 16.6143 6.57006C16.5008 6.29597 16.4711 5.99437 16.529 5.7034C16.5869 5.41243 16.7297 5.14515 16.9395 4.93537C17.1493 4.72559 17.4165 4.58273 17.7075 4.52486C17.9985 4.46698 18.3001 4.49668 18.5742 4.61021C18.8483 4.72375 19.0825 4.916 19.2474 5.16268C19.4122 5.40935 19.5002 5.69936 19.5002 5.99603C19.5002 6.39386 19.3421 6.77539 19.0608 7.05669C18.7795 7.338 18.398 7.49603 18.0002 7.49603Z" fill="#666666"/>
</svg>
