<svg width="24" height="24" viewBox="0 0 24 24" fill="none" xmlns="http://www.w3.org/2000/svg">
<g clip-path="url(#clip0_32_2911)">
<path d="M14.25 1.49872L0.750042 14.9987L9.00004 23.2487L22.5 9.74872V1.49872H14.25ZM18 7.49872C17.7034 7.49872 17.4134 7.41075 17.1667 7.24592C16.92 7.0811 16.7278 6.84683 16.6142 6.57274C16.5007 6.29866 16.471 5.99706 16.5289 5.70608C16.5867 5.41511 16.7296 5.14784 16.9394 4.93806C17.1492 4.72828 17.4164 4.58542 17.7074 4.52754C17.9984 4.46966 18.3 4.49937 18.5741 4.6129C18.8482 4.72643 19.0824 4.91869 19.2473 5.16536C19.4121 5.41204 19.5 5.70205 19.5 5.99872C19.5 6.39654 19.342 6.77807 19.0607 7.05938C18.7794 7.34068 18.3979 7.49872 18 7.49872Z" fill="#666666"/>
</g>
<defs>
<clipPath id="clip0_32_2911">
<rect width="24" height="24" fill="white" transform="translate(0 -0.00390625)"/>
</clipPath>
</defs>
</svg>
