<svg width="24" height="24" viewBox="0 0 24 24" fill="none" xmlns="http://www.w3.org/2000/svg">
<g clip-path="url(#clip0_32_2922)">
<path d="M21 8.61258V2.84695C21.0009 2.57129 20.9473 2.29817 20.8423 2.04327C20.7373 1.78837 20.5831 1.55671 20.3883 1.36159C20.1936 1.16647 19.9623 1.01173 19.7076 0.906254C19.4529 0.800777 19.1799 0.74664 18.9042 0.74695H13.1419C12.764 0.747727 12.4017 0.897463 12.1336 1.16367L0.613583 12.6804C0.220684 13.0745 6.10352e-05 13.6084 6.10352e-05 14.1649C6.10352e-05 14.7215 0.220684 15.2553 0.613583 15.6495L6.09796 21.1338C6.49198 21.5268 7.02576 21.7475 7.58226 21.7475C8.13875 21.7475 8.67253 21.5268 9.06655 21.1338L20.5833 9.62086C20.8496 9.35277 20.9993 8.99044 21 8.61258ZM16.5 6.74695C16.2033 6.74695 15.9133 6.65898 15.6666 6.49415C15.42 6.32933 15.2277 6.09506 15.1142 5.82098C15.0006 5.54689 14.9709 5.24529 15.0288 4.95431C15.0867 4.66334 15.2296 4.39607 15.4393 4.18629C15.6491 3.97651 15.9164 3.83365 16.2074 3.77577C16.4983 3.71789 16.7999 3.7476 17.074 3.86113C17.3481 3.97466 17.5824 4.16692 17.7472 4.41359C17.912 4.66027 18 4.95028 18 5.24695C18 5.64477 17.842 6.02631 17.5607 6.30761C17.2793 6.58891 16.8978 6.74695 16.5 6.74695Z" fill="#666666"/>
<path d="M23.2501 3.00055C23.0512 3.00055 22.8604 3.07957 22.7198 3.22022C22.5791 3.36087 22.5001 3.55164 22.5001 3.75055V9.72102L10.2512 21.9704C10.1786 22.0393 10.1206 22.1221 10.0805 22.2139C10.0404 22.3056 10.0191 22.4044 10.0178 22.5045C10.0165 22.6046 10.0353 22.704 10.073 22.7967C10.1107 22.8894 10.1666 22.9737 10.2374 23.0445C10.3082 23.1152 10.3925 23.1711 10.4852 23.2089C10.5779 23.2466 10.6773 23.2654 10.7774 23.2641C10.8775 23.2628 10.9763 23.2415 11.068 23.2014C11.1598 23.1613 11.2425 23.1033 11.3115 23.0307L23.5927 10.7495C23.7234 10.6182 23.8267 10.4623 23.8966 10.2909C23.9665 10.1194 24.0017 9.93573 24.0001 9.75055V3.75055C24.0001 3.55164 23.9211 3.36087 23.7804 3.22022C23.6398 3.07957 23.449 3.00055 23.2501 3.00055Z" fill="#666666"/>
</g>
<defs>
<clipPath id="clip0_32_2922">
<rect width="24" height="24" fill="white"/>
</clipPath>
</defs>
</svg>
