<svg width="24" height="24" viewBox="0 0 24 24" fill="none" xmlns="http://www.w3.org/2000/svg">
<path d="M21.8907 2.11747C21.6964 1.9209 21.4649 1.76495 21.2097 1.65873C20.9545 1.5525 20.6807 1.49811 20.4043 1.49872H14.642C14.264 1.49943 13.9015 1.64917 13.6332 1.91544L2.11367 13.4326C1.7206 13.8265 1.49985 14.3602 1.49985 14.9167C1.49985 15.4732 1.7206 16.0069 2.11367 16.4008L7.59805 21.8851C7.99203 22.2784 8.52593 22.4992 9.08258 22.4992C9.63923 22.4992 10.1731 22.2784 10.5671 21.8851L22.082 10.3726C22.3488 10.1048 22.499 9.74241 22.5001 9.36435V3.59872C22.5018 3.32375 22.4488 3.05119 22.3442 2.79689C22.2396 2.54259 22.0854 2.31164 21.8907 2.11747ZM18.0001 7.49872C17.7034 7.49872 17.4134 7.41075 17.1667 7.24593C16.9201 7.08111 16.7278 6.84684 16.6143 6.57275C16.5007 6.29866 16.471 5.99706 16.5289 5.70609C16.5868 5.41512 16.7296 5.14784 16.9394 4.93806C17.1492 4.72828 17.4165 4.58542 17.7074 4.52755C17.9984 4.46967 18.3 4.49937 18.5741 4.6129C18.8482 4.72644 19.0825 4.91869 19.2473 5.16537C19.4121 5.41204 19.5001 5.70205 19.5001 5.99872C19.5001 6.39655 19.342 6.77808 19.0607 7.05938C18.7794 7.34069 18.3979 7.49872 18.0001 7.49872Z" fill="#666666"/>
</svg>
