<svg width="24" height="24" viewBox="0 0 24 24" fill="none" xmlns="http://www.w3.org/2000/svg">
<path d="M13.5 0.746948L0 14.247L8.25 22.497L21.75 8.99695V0.746948H13.5ZM17.25 6.74695C16.9533 6.74695 16.6633 6.65898 16.4166 6.49415C16.17 6.32933 15.9777 6.09506 15.8642 5.82097C15.7507 5.54689 15.7209 5.24529 15.7788 4.95431C15.8367 4.66334 15.9796 4.39607 16.1893 4.18629C16.3991 3.97651 16.6664 3.83365 16.9574 3.77577C17.2483 3.71789 17.5499 3.7476 17.824 3.86113C18.0981 3.97466 18.3324 4.16692 18.4972 4.41359C18.662 4.66027 18.75 4.95028 18.75 5.24695C18.75 5.64477 18.592 6.0263 18.3107 6.30761C18.0294 6.58891 17.6478 6.74695 17.25 6.74695Z" fill="#666666"/>
<path d="M22.5 3.00055V9.75055L10.1671 22.0834L11.3437 23.2506L24 10.5006V3.00055H22.5Z" fill="#666666"/>
</svg>
