<svg width="24" height="24" viewBox="0 0 24 24" fill="none" xmlns="http://www.w3.org/2000/svg">
<path d="M19.1251 5.24786H4.9688C4.24774 5.24786 3.55622 5.5343 3.04636 6.04417C2.53649 6.55403 2.25005 7.24556 2.25005 7.96661V15.3729C2.25005 16.0691 2.52661 16.7367 3.0189 17.229C3.51118 17.7213 4.17886 17.9979 4.87505 17.9979H5.25005V19.8579C5.25005 20.3591 5.44918 20.8399 5.80362 21.1943C6.15806 21.5487 6.63879 21.7479 7.14005 21.7479H16.8601C17.3613 21.7479 17.842 21.5487 18.1965 21.1943C18.5509 20.8399 18.7501 20.3591 18.7501 19.8579V17.9979H19.1251C19.8212 17.9979 20.4889 17.7213 20.9812 17.229C21.4735 16.7367 21.7501 16.0691 21.7501 15.3729V7.87286C21.7501 7.17667 21.4735 6.50899 20.9812 6.01671C20.4889 5.52443 19.8212 5.24786 19.1251 5.24786ZM17.2501 19.8579C17.2497 19.9612 17.2085 20.0602 17.1354 20.1332C17.0624 20.2063 16.9634 20.2475 16.8601 20.2479H7.14005C7.03673 20.2475 6.93775 20.2063 6.86469 20.1332C6.79163 20.0602 6.75042 19.9612 6.75005 19.8579V12.3879C6.75042 12.2845 6.79163 12.1856 6.86469 12.1125C6.93775 12.0394 7.03673 11.9982 7.14005 11.9979H16.8601C16.9634 11.9982 17.0624 12.0394 17.1354 12.1125C17.2085 12.1856 17.2497 12.2845 17.2501 12.3879V19.8579ZM18.4688 9.74411C18.2393 9.76256 18.0098 9.71017 17.811 9.59402C17.6123 9.47787 17.4539 9.30354 17.3574 9.09457C17.2609 8.8856 17.2307 8.65205 17.2711 8.42542C17.3115 8.19879 17.4204 7.99001 17.5832 7.82724C17.7459 7.66446 17.9547 7.55554 18.1814 7.51517C18.408 7.4748 18.6415 7.50491 18.8505 7.60146C19.0595 7.69801 19.2338 7.85634 19.35 8.05508C19.4661 8.25382 19.5185 8.48341 19.5001 8.71286C19.4786 8.97923 19.3631 9.22927 19.1742 9.41823C18.9852 9.60718 18.7352 9.7227 18.4688 9.74411ZM16.1251 2.24786H7.87505C7.24412 2.2488 6.63456 2.4766 6.15764 2.88966C5.68072 3.30273 5.36824 3.87353 5.27724 4.49786H18.7229C18.6319 3.87353 18.3194 3.30273 17.8425 2.88966C17.3655 2.4766 16.756 2.2488 16.1251 2.24786Z" fill="#666666"/>
</svg>
