<svg width="24" height="24" viewBox="0 0 24 24" fill="none" xmlns="http://www.w3.org/2000/svg">
<path d="M18 17.2479H19.125C19.6218 17.2464 20.0978 17.0484 20.4491 16.6971C20.8005 16.3457 20.9985 15.8697 21 15.3729V7.87286C20.9985 7.37604 20.8005 6.89999 20.4491 6.54868C20.0978 6.19737 19.6218 5.99935 19.125 5.99786H4.87495C4.37813 5.99935 3.90208 6.19737 3.55077 6.54868C3.19946 6.89999 3.00144 7.37604 2.99995 7.87286V15.3729C3.00144 15.8697 3.19946 16.3457 3.55077 16.6971C3.90208 17.0484 4.37813 17.2464 4.87495 17.2479H5.99995" stroke="#666666" stroke-width="1.5" stroke-linejoin="round"/>
<path d="M16.8599 11.2488H7.13993C6.51033 11.2488 5.99993 11.7592 5.99993 12.3888V19.8588C5.99993 20.4884 6.51033 20.9988 7.13993 20.9988H16.8599C17.4895 20.9988 17.9999 20.4884 17.9999 19.8588V12.3888C17.9999 11.7592 17.4895 11.2488 16.8599 11.2488Z" stroke="#666666" stroke-width="1.5" stroke-linejoin="round"/>
<path d="M17.9999 6.00055V4.87555C17.9985 4.37873 17.8004 3.90267 17.4491 3.55136C17.0978 3.20005 16.6218 3.00203 16.1249 3.00055H7.87493C7.37811 3.00203 6.90206 3.20005 6.55075 3.55136C6.19944 3.90267 6.00142 4.37873 5.99993 4.87555V6.00055" stroke="#666666" stroke-width="1.5" stroke-linejoin="round"/>
<path d="M18.3751 9.74872C18.9964 9.74872 19.5001 9.24504 19.5001 8.62372C19.5001 8.0024 18.9964 7.49872 18.3751 7.49872C17.7538 7.49872 17.2501 8.0024 17.2501 8.62372C17.2501 9.24504 17.7538 9.74872 18.3751 9.74872Z" fill="#666666"/>
</svg>
