<svg width="24" height="24" viewBox="0 0 24 24" fill="none" xmlns="http://www.w3.org/2000/svg">
<path d="M18.75 4.49786V2.62286C18.75 2.52341 18.7105 2.42802 18.6401 2.3577C18.5698 2.28737 18.4744 2.24786 18.375 2.24786H5.62496C5.52551 2.24786 5.43012 2.28737 5.3598 2.3577C5.28947 2.42802 5.24996 2.52341 5.24996 2.62286V4.49786" fill="#666666"/>
<path d="M19.125 5.24963H4.87499C4.1788 5.24963 3.51112 5.5262 3.01883 6.01848C2.52655 6.51076 2.24999 7.17844 2.24999 7.87463V17.6246C2.24999 17.7241 2.2895 17.8195 2.35982 17.8898C2.43015 17.9601 2.52553 17.9996 2.62499 17.9996H5.24999V21.3746C5.24999 21.4741 5.2895 21.5695 5.35982 21.6398C5.43015 21.7101 5.52553 21.7496 5.62499 21.7496H18.375C18.4744 21.7496 18.5698 21.7101 18.6402 21.6398C18.7105 21.5695 18.75 21.4741 18.75 21.3746V17.9996H21.375C21.4744 17.9996 21.5698 17.9601 21.6402 17.8898C21.7105 17.8195 21.75 17.7241 21.75 17.6246V7.87463C21.75 7.17844 21.4734 6.51076 20.9811 6.01848C20.4889 5.5262 19.8212 5.24963 19.125 5.24963ZM16.875 19.6871C16.875 19.7369 16.8552 19.7846 16.8201 19.8197C16.7849 19.8549 16.7372 19.8746 16.6875 19.8746H7.31249C7.26276 19.8746 7.21507 19.8549 7.17991 19.8197C7.14474 19.7846 7.12499 19.7369 7.12499 19.6871V12.5621C7.12499 12.5124 7.14474 12.4647 7.17991 12.4296C7.21507 12.3944 7.26276 12.3746 7.31249 12.3746H16.6875C16.7372 12.3746 16.7849 12.3944 16.8201 12.4296C16.8552 12.4647 16.875 12.5124 16.875 12.5621V19.6871ZM18.4687 9.74588C18.2393 9.76433 18.0097 9.71194 17.811 9.59579C17.6122 9.47964 17.4539 9.30531 17.3573 9.09634C17.2608 8.88737 17.2307 8.65382 17.271 8.42719C17.3114 8.20056 17.4203 7.99178 17.5831 7.82901C17.7459 7.66623 17.9547 7.55731 18.1813 7.51694C18.4079 7.47657 18.6415 7.50668 18.8504 7.60323C19.0594 7.69978 19.2337 7.85811 19.3499 8.05685C19.466 8.25559 19.5184 8.48518 19.5 8.71463C19.4786 8.981 19.3631 9.23104 19.1741 9.42C18.9851 9.60895 18.7351 9.72448 18.4687 9.74588Z" fill="#666666"/>
</svg>
