<svg width="24" height="24" viewBox="0 0 24 24" fill="none" xmlns="http://www.w3.org/2000/svg">
<path d="M22.8671 14.9725L13.8577 1.72746C13.6512 1.42524 13.3741 1.17798 13.0504 1.00712C12.7266 0.836253 12.3661 0.746948 12.0001 0.746948C11.6341 0.746948 11.2735 0.836253 10.9498 1.00712C10.6261 1.17798 10.349 1.42524 10.1424 1.72746L1.13306 14.9725C0.958381 15.2292 0.839845 15.52 0.785195 15.8257C0.730544 16.1314 0.74101 16.4453 0.815907 16.7467C0.890805 17.0481 1.02845 17.3303 1.21985 17.5749C1.41125 17.8194 1.65209 18.0209 1.92665 18.166L10.936 22.9825C11.2633 23.1579 11.6288 23.2496 12.0001 23.2496C12.3714 23.2496 12.7369 23.1579 13.0642 22.9825L22.0735 18.166C22.3481 18.0209 22.5889 17.8194 22.7803 17.5749C22.9717 17.3303 23.1094 17.0481 23.1843 16.7467C23.2592 16.4453 23.2696 16.1314 23.215 15.8257C23.1603 15.52 23.0418 15.2292 22.8671 14.9725ZM2.65181 16.8943C2.55872 16.844 2.47723 16.7747 2.41263 16.6909C2.34803 16.6071 2.30176 16.5106 2.27681 16.4078C2.24898 16.2996 2.24449 16.1867 2.26364 16.0766C2.2828 15.9665 2.32515 15.8618 2.3879 15.7693L10.906 3.24527C11.0082 3.0948 11.2501 3.16464 11.2501 3.34511V20.8764C11.2501 21.1529 10.9435 21.3278 10.6937 21.1942L2.65181 16.8943Z" fill="#666666"/>
</svg>
