<svg width="24" height="24" viewBox="0 0 24 24" fill="none" xmlns="http://www.w3.org/2000/svg">
<path d="M12 1.49963V22.4996M10.7686 2.15026L1.75925 15.3648C1.64102 15.5378 1.5606 15.7338 1.52325 15.94C1.48589 16.1462 1.49245 16.3579 1.54248 16.5614C1.59251 16.7649 1.68489 16.9555 1.8136 17.1209C1.9423 17.2862 2.10443 17.4226 2.28941 17.521L11.2969 22.3243C11.5127 22.4395 11.7535 22.4998 11.9982 22.4998C12.2428 22.4998 12.4836 22.4395 12.6994 22.3243L21.7088 17.5192C21.8938 17.4207 22.0559 17.2844 22.1846 17.119C22.3133 16.9536 22.4057 16.763 22.4557 16.5595C22.5057 16.356 22.5123 16.1443 22.4749 15.9381C22.4376 15.7319 22.3572 15.5359 22.2389 15.3629L13.2314 2.15026C13.0947 1.94975 12.911 1.78568 12.6964 1.67229C12.4818 1.5589 12.2427 1.49963 12 1.49963C11.7573 1.49963 11.5183 1.5589 11.3037 1.67229C11.0891 1.78568 10.9054 1.94975 10.7686 2.15026Z" stroke="#666666" stroke-width="1.5" stroke-linecap="round" stroke-linejoin="round"/>
</svg>
