<svg width="24" height="24" viewBox="0 0 24 24" fill="none" xmlns="http://www.w3.org/2000/svg">
<path d="M19.9687 12.4664C19.4798 12.467 19.0016 12.6089 18.5916 12.875C18.1816 13.1412 17.8573 13.5202 17.6577 13.9664H16.4933L15.2277 10.1696C15.1577 9.96106 15.0229 9.78038 14.843 9.65392C14.663 9.52747 14.4474 9.46186 14.2275 9.46668C14.0076 9.47149 13.795 9.54648 13.6208 9.6807C13.4465 9.81491 13.3198 10.0013 13.259 10.2127L11.5152 16.3158L9.26522 3.10925C9.22529 2.87647 9.10665 2.66444 8.92915 2.50863C8.75165 2.35281 8.52604 2.26264 8.29004 2.2532C8.05404 2.24376 7.82195 2.31562 7.63257 2.45676C7.44319 2.5979 7.308 2.79977 7.2496 3.02863L4.4446 13.9664H1.49991V16.0289H5.24991C5.47984 16.0289 5.70317 15.9521 5.88441 15.8106C6.06566 15.6691 6.19441 15.4711 6.25022 15.248L8.04788 8.06019L10.2327 20.8861C10.2709 21.1173 10.3867 21.3286 10.561 21.4853C10.7354 21.6419 10.9578 21.7344 11.1918 21.7477H11.2499C11.4742 21.7475 11.6924 21.6742 11.8713 21.5389C12.0502 21.4035 12.1801 21.2135 12.2413 20.9977L14.3258 13.9843L14.7716 15.3258C14.8404 15.5308 14.9719 15.7089 15.1474 15.8351C15.323 15.9613 15.5337 16.0291 15.7499 16.0289H17.6577C17.8433 16.4449 18.1377 16.8032 18.5099 17.0658C18.8821 17.3285 19.3182 17.4858 19.7724 17.5213C20.2265 17.5567 20.6818 17.469 21.0902 17.2673C21.4986 17.0656 21.8451 16.7574 22.093 16.3752C22.3409 15.9931 22.481 15.5511 22.4987 15.0959C22.5164 14.6407 22.4109 14.1892 22.1934 13.789C21.9759 13.3888 21.6544 13.0547 21.2629 12.8219C20.8713 12.5891 20.4242 12.4663 19.9687 12.4664Z" fill="#666666"/>
</svg>
