<svg width="24" height="24" viewBox="0 0 24 24" fill="none" xmlns="http://www.w3.org/2000/svg">
<path d="M20.2499 12.7487C19.7848 12.7494 19.3313 12.8939 18.9516 13.1624C18.5718 13.431 18.2844 13.8104 18.1288 14.2487H16.2904L14.9615 10.2615C14.9108 10.1096 14.8128 9.97789 14.6819 9.88568C14.551 9.79346 14.3939 9.74557 14.2338 9.74903C14.0737 9.75249 13.9189 9.80711 13.7921 9.90489C13.6653 10.0027 13.5731 10.1385 13.529 10.2925L11.4426 17.5937L8.9896 2.87496C8.96116 2.70502 8.87507 2.55006 8.7458 2.43613C8.61654 2.3222 8.45199 2.25625 8.27982 2.24938C8.10766 2.2425 7.93837 2.29512 7.80044 2.39837C7.6625 2.50163 7.56432 2.64924 7.52242 2.81637L4.66445 14.2487H2.24992C2.051 14.2487 1.86024 14.3277 1.71959 14.4684C1.57893 14.609 1.49992 14.7998 1.49992 14.9987C1.49992 15.1976 1.57893 15.3884 1.71959 15.529C1.86024 15.6697 2.051 15.7487 2.24992 15.7487H5.24992C5.41716 15.7487 5.5796 15.6928 5.71142 15.5898C5.84323 15.4869 5.93686 15.3428 5.97742 15.1806L8.10273 6.67887L10.5102 21.122C10.538 21.2902 10.6222 21.4439 10.749 21.5578C10.8757 21.6717 11.0376 21.7391 11.2077 21.7487H11.2504C11.4132 21.7486 11.5716 21.6954 11.7016 21.5974C11.8316 21.4993 11.9261 21.3615 11.9709 21.205L14.3052 13.0356L15.0384 15.2359C15.0881 15.3852 15.1837 15.5151 15.3114 15.6072C15.4391 15.6992 15.5925 15.7487 15.7499 15.7487H18.1288C18.2663 16.1376 18.5081 16.4813 18.8277 16.742C19.1473 17.0028 19.5325 17.1707 19.9411 17.2274C20.3497 17.284 20.766 17.2273 21.1445 17.0633C21.523 16.8994 21.8492 16.6345 22.0873 16.2977C22.3255 15.9608 22.4664 15.565 22.4948 15.1535C22.5232 14.742 22.4379 14.3306 22.2482 13.9642C22.0586 13.5979 21.7719 13.2908 21.4194 13.0764C21.067 12.862 20.6624 12.7487 20.2499 12.7487Z" fill="#666666"/>
</svg>
