<svg width="24" height="24" viewBox="0 0 24 24" fill="none" xmlns="http://www.w3.org/2000/svg">
<path d="M17.625 16.5006H12.75V9.31133L15.2199 11.7807C15.3617 11.9154 15.5505 11.9894 15.7461 11.9869C15.9416 11.9844 16.1285 11.9056 16.2668 11.7673C16.4051 11.629 16.4839 11.4421 16.4864 11.2466C16.4889 11.051 16.4149 10.8622 16.2802 10.7204L12.5302 6.97039C12.3896 6.82985 12.1989 6.7509 12 6.7509C11.8012 6.7509 11.6105 6.82985 11.4699 6.97039L7.71989 10.7204C7.58518 10.8622 7.51118 11.051 7.51369 11.2466C7.51619 11.4421 7.59499 11.629 7.73329 11.7673C7.8716 11.9056 8.05845 11.9844 8.25402 11.9869C8.44959 11.9894 8.63841 11.9154 8.7802 11.7807L11.25 9.31133V16.5006H6.37505C5.67908 16.4998 5.01183 16.223 4.51971 15.7309C4.02759 15.2388 3.75079 14.5715 3.75005 13.8756V4.12555C3.75079 3.42958 4.02759 2.76234 4.51971 2.27022C5.01183 1.77809 5.67908 1.50129 6.37505 1.50055H17.625C18.321 1.50129 18.9883 1.77809 19.4804 2.27022C19.9725 2.76234 20.2493 3.42958 20.25 4.12555V13.8756C20.2493 14.5715 19.9725 15.2388 19.4804 15.7309C18.9883 16.223 18.321 16.4998 17.625 16.5006ZM12.75 21.7506C12.75 21.9495 12.671 22.1402 12.5304 22.2809C12.3897 22.4215 12.199 22.5006 12 22.5006C11.8011 22.5006 11.6104 22.4215 11.4697 22.2809C11.3291 22.1402 11.25 21.9495 11.25 21.7506V16.5006H12.75V21.7506Z" fill="#666666"/>
</svg>
