<svg width="24" height="24" viewBox="0 0 24 24" fill="none" xmlns="http://www.w3.org/2000/svg">
<path d="M15.7501 15.7488H17.6251C18.1224 15.7488 18.5993 15.5512 18.9509 15.1996C19.3026 14.848 19.5001 14.3711 19.5001 13.8738V4.12378C19.5001 3.6265 19.3026 3.14958 18.9509 2.79795C18.5993 2.44632 18.1224 2.24878 17.6251 2.24878H6.37509C5.87781 2.24878 5.4009 2.44632 5.04927 2.79795C4.69764 3.14958 4.50009 3.6265 4.50009 4.12378V13.8738C4.50009 14.3711 4.69764 14.848 5.04927 15.1996C5.4009 15.5512 5.87781 15.7488 6.37509 15.7488H8.25009" stroke="#666666" stroke-width="1.5" stroke-linecap="round" stroke-linejoin="round"/>
<path d="M12 21.7496V8.24963M8.24995 11.2496L12 7.49963L15.75 11.2496H8.24995Z" stroke="#666666" stroke-width="1.5" stroke-linecap="round" stroke-linejoin="round"/>
</svg>
