<svg width="24" height="24" viewBox="0 0 24 24" fill="none" xmlns="http://www.w3.org/2000/svg">
<path d="M12.75 16.5006V9.59258L15.75 12.5926L16.8108 11.5318L12 6.72102L7.1892 11.5318L8.24999 12.5926L11.25 9.59258V16.5006H4.31248C4.1633 16.5006 4.02023 16.4413 3.91474 16.3358C3.80925 16.2303 3.74998 16.0872 3.74998 15.9381V2.06305C3.74998 1.91387 3.80925 1.77079 3.91474 1.6653C4.02023 1.55981 4.1633 1.50055 4.31248 1.50055H19.6875C19.8367 1.50055 19.9797 1.55981 20.0852 1.6653C20.1907 1.77079 20.25 1.91387 20.25 2.06305V15.9381C20.25 16.0872 20.1907 16.2303 20.0852 16.3358C19.9797 16.4413 19.8367 16.5006 19.6875 16.5006H12.75ZM11.25 16.5006H12.75V22.5006H11.25V16.5006Z" fill="#666666"/>
</svg>
