<svg width="24" height="24" viewBox="0 0 24 24" fill="none" xmlns="http://www.w3.org/2000/svg">
<path d="M15.7501 15.7479H19.5001V19.4979H15.7501V15.7479ZM12.7501 12.7479H15.7501V15.7479H12.7501V12.7479ZM19.5001 19.4979H22.5001V22.4979H19.5001V19.4979ZM20.2501 12.7479H22.5001V14.9979H20.2501V12.7479ZM12.7501 20.2479H15.0001V22.4979H12.7501V20.2479ZM15.7501 4.49786H19.5001V8.24786H15.7501V4.49786Z" fill="#666666"/>
<path d="M22.4999 11.2506H12.7499V1.50055H22.4999V11.2506ZM14.8124 9.18805H20.4374V3.56305H14.8124V9.18805ZM4.49992 4.50055H8.24992V8.25055H4.49992V4.50055Z" fill="#666666"/>
<path d="M11.2499 11.2506H1.49994V1.50055H11.2499V11.2506ZM3.56244 9.18805H9.18744V3.56305H3.56244V9.18805ZM4.49994 15.7506H8.24994V19.5006H4.49994V15.7506Z" fill="#666666"/>
<path d="M11.2499 22.496H1.49994V12.746H11.2499V22.496ZM3.56244 20.4335H9.18744V14.8085H3.56244V20.4335Z" fill="#666666"/>
</svg>
