<svg width="24" height="24" viewBox="0 0 24 24" fill="none" xmlns="http://www.w3.org/2000/svg">
<path d="M19.1251 15.7479H16.1251C15.918 15.7479 15.7501 15.9158 15.7501 16.1229V19.1229C15.7501 19.33 15.918 19.4979 16.1251 19.4979H19.1251C19.3322 19.4979 19.5001 19.33 19.5001 19.1229V16.1229C19.5001 15.9158 19.3322 15.7479 19.1251 15.7479Z" fill="#666666"/>
<path d="M15.375 12.746H13.125C12.9179 12.746 12.75 12.9139 12.75 13.121V15.371C12.75 15.5781 12.9179 15.746 13.125 15.746H15.375C15.5821 15.746 15.75 15.5781 15.75 15.371V13.121C15.75 12.9139 15.5821 12.746 15.375 12.746Z" fill="#666666"/>
<path d="M22.125 19.4979H19.875C19.6679 19.4979 19.5 19.6658 19.5 19.8729V22.1229C19.5 22.33 19.6679 22.4979 19.875 22.4979H22.125C22.3321 22.4979 22.5 22.33 22.5 22.1229V19.8729C22.5 19.6658 22.3321 19.4979 22.125 19.4979Z" fill="#666666"/>
<path d="M22.125 12.746H20.625C20.4179 12.746 20.25 12.9139 20.25 13.121V14.621C20.25 14.8281 20.4179 14.996 20.625 14.996H22.125C22.3321 14.996 22.5 14.8281 22.5 14.621V13.121C22.5 12.9139 22.3321 12.746 22.125 12.746Z" fill="#666666"/>
<path d="M14.625 20.246H13.125C12.9179 20.246 12.75 20.4139 12.75 20.621V22.121C12.75 22.3281 12.9179 22.496 13.125 22.496H14.625C14.8321 22.496 15 22.3281 15 22.121V20.621C15 20.4139 14.8321 20.246 14.625 20.246Z" fill="#666666"/>
<path d="M21 1.50055H14.25C13.8522 1.50055 13.4707 1.65858 13.1893 1.93989C12.908 2.22119 12.75 2.60272 12.75 3.00055V9.75055C12.75 10.1484 12.908 10.5299 13.1893 10.8112C13.4707 11.0925 13.8522 11.2506 14.25 11.2506H21C21.3978 11.2506 21.7794 11.0925 22.0607 10.8112C22.342 10.5299 22.5 10.1484 22.5 9.75055V3.00055C22.5 2.60272 22.342 2.22119 22.0607 1.93989C21.7794 1.65858 21.3978 1.50055 21 1.50055ZM19.5 7.87555C19.5 7.97501 19.4605 8.07039 19.3902 8.14072C19.3198 8.21104 19.2245 8.25055 19.125 8.25055H16.125C16.0256 8.25055 15.9302 8.21104 15.8598 8.14072C15.7895 8.07039 15.75 7.97501 15.75 7.87555V4.87555C15.75 4.77609 15.7895 4.68071 15.8598 4.61038C15.9302 4.54006 16.0256 4.50055 16.125 4.50055H19.125C19.2245 4.50055 19.3198 4.54006 19.3902 4.61038C19.4605 4.68071 19.5 4.77609 19.5 4.87555V7.87555ZM9.75001 1.50055H3.00001C2.60218 1.50055 2.22065 1.65858 1.93935 1.93989C1.65804 2.22119 1.50001 2.60272 1.50001 3.00055V9.75055C1.50001 10.1484 1.65804 10.5299 1.93935 10.8112C2.22065 11.0925 2.60218 11.2506 3.00001 11.2506H9.75001C10.1478 11.2506 10.5294 11.0925 10.8107 10.8112C11.092 10.5299 11.25 10.1484 11.25 9.75055V3.00055C11.25 2.60272 11.092 2.22119 10.8107 1.93989C10.5294 1.65858 10.1478 1.50055 9.75001 1.50055ZM8.25001 7.87555C8.25001 7.97501 8.2105 8.07039 8.14017 8.14072C8.06985 8.21104 7.97446 8.25055 7.87501 8.25055H4.87501C4.77555 8.25055 4.68017 8.21104 4.60984 8.14072C4.53951 8.07039 4.50001 7.97501 4.50001 7.87555V4.87555C4.50001 4.77609 4.53951 4.68071 4.60984 4.61038C4.68017 4.54006 4.77555 4.50055 4.87501 4.50055H7.87501C7.97446 4.50055 8.06985 4.54006 8.14017 4.61038C8.2105 4.68071 8.25001 4.77609 8.25001 4.87555V7.87555ZM9.75001 12.7506H3.00001C2.60218 12.7506 2.22065 12.9086 1.93935 13.1899C1.65804 13.4712 1.50001 13.8527 1.50001 14.2506V21.0006C1.50001 21.3984 1.65804 21.7799 1.93935 22.0612C2.22065 22.3425 2.60218 22.5006 3.00001 22.5006H9.75001C10.1478 22.5006 10.5294 22.3425 10.8107 22.0612C11.092 21.7799 11.25 21.3984 11.25 21.0006V14.2506C11.25 13.8527 11.092 13.4712 10.8107 13.1899C10.5294 12.9086 10.1478 12.7506 9.75001 12.7506ZM8.25001 19.1256C8.25001 19.225 8.2105 19.3204 8.14017 19.3907C8.06985 19.461 7.97446 19.5006 7.87501 19.5006H4.87501C4.77555 19.5006 4.68017 19.461 4.60984 19.3907C4.53951 19.3204 4.50001 19.225 4.50001 19.1256V16.1256C4.50001 16.0261 4.53951 15.9307 4.60984 15.8604C4.68017 15.7901 4.77555 15.7506 4.87501 15.7506H7.87501C7.97446 15.7506 8.06985 15.7901 8.14017 15.8604C8.2105 15.9307 8.25001 16.0261 8.25001 16.1256V19.1256Z" fill="#666666"/>
</svg>
