<svg width="24" height="24" viewBox="0 0 24 24" fill="none" xmlns="http://www.w3.org/2000/svg">
<path d="M19.125 15.7479H16.125C15.9179 15.7479 15.75 15.9158 15.75 16.1229V19.1229C15.75 19.33 15.9179 19.4979 16.125 19.4979H19.125C19.3321 19.4979 19.5 19.33 19.5 19.1229V16.1229C19.5 15.9158 19.3321 15.7479 19.125 15.7479Z" fill="#666666"/>
<path d="M15.375 12.746H13.125C12.9179 12.746 12.75 12.9139 12.75 13.121V15.371C12.75 15.5781 12.9179 15.746 13.125 15.746H15.375C15.5821 15.746 15.75 15.5781 15.75 15.371V13.121C15.75 12.9139 15.5821 12.746 15.375 12.746Z" fill="#666666"/>
<path d="M22.125 19.4979H19.875C19.6679 19.4979 19.5 19.6658 19.5 19.8729V22.1229C19.5 22.33 19.6679 22.4979 19.875 22.4979H22.125C22.3321 22.4979 22.5 22.33 22.5 22.1229V19.8729C22.5 19.6658 22.3321 19.4979 22.125 19.4979Z" fill="#666666"/>
<path d="M22.125 12.746H20.625C20.4179 12.746 20.25 12.9139 20.25 13.121V14.621C20.25 14.8281 20.4179 14.996 20.625 14.996H22.125C22.3321 14.996 22.5 14.8281 22.5 14.621V13.121C22.5 12.9139 22.3321 12.746 22.125 12.746Z" fill="#666666"/>
<path d="M14.625 20.246H13.125C12.9179 20.246 12.75 20.4139 12.75 20.621V22.121C12.75 22.3281 12.9179 22.496 13.125 22.496H14.625C14.8321 22.496 15 22.3281 15 22.121V20.621C15 20.4139 14.8321 20.246 14.625 20.246Z" fill="#666666"/>
<path d="M19.125 4.49786H16.125C15.9179 4.49786 15.75 4.66576 15.75 4.87286V7.87286C15.75 8.07997 15.9179 8.24786 16.125 8.24786H19.125C19.3321 8.24786 19.5 8.07997 19.5 7.87286V4.87286C19.5 4.66576 19.3321 4.49786 19.125 4.49786Z" fill="#666666"/>
<path d="M21.0001 2.24878H14.2501C13.8358 2.24878 13.5001 2.58457 13.5001 2.99878V9.74878C13.5001 10.163 13.8358 10.4988 14.2501 10.4988H21.0001C21.4143 10.4988 21.7501 10.163 21.7501 9.74878V2.99878C21.7501 2.58457 21.4143 2.24878 21.0001 2.24878Z" stroke="#666666" stroke-width="1.5" stroke-linecap="round" stroke-linejoin="round"/>
<path d="M7.875 4.49786H4.875C4.66789 4.49786 4.5 4.66576 4.5 4.87286V7.87286C4.5 8.07997 4.66789 8.24786 4.875 8.24786H7.875C8.0821 8.24786 8.25 8.07997 8.25 7.87286V4.87286C8.25 4.66576 8.0821 4.49786 7.875 4.49786Z" fill="#666666"/>
<path d="M9.75005 2.24878H3.00005C2.58584 2.24878 2.25005 2.58457 2.25005 2.99878V9.74878C2.25005 10.163 2.58584 10.4988 3.00005 10.4988H9.75005C10.1643 10.4988 10.5001 10.163 10.5001 9.74878V2.99878C10.5001 2.58457 10.1643 2.24878 9.75005 2.24878Z" stroke="#666666" stroke-width="1.5" stroke-linecap="round" stroke-linejoin="round"/>
<path d="M7.875 15.7479H4.875C4.66789 15.7479 4.5 15.9158 4.5 16.1229V19.1229C4.5 19.33 4.66789 19.4979 4.875 19.4979H7.875C8.0821 19.4979 8.25 19.33 8.25 19.1229V16.1229C8.25 15.9158 8.0821 15.7479 7.875 15.7479Z" fill="#666666"/>
<path d="M9.75005 13.4988H3.00005C2.58584 13.4988 2.25005 13.8346 2.25005 14.2488V20.9988C2.25005 21.413 2.58584 21.7488 3.00005 21.7488H9.75005C10.1643 21.7488 10.5001 21.413 10.5001 20.9988V14.2488C10.5001 13.8346 10.1643 13.4988 9.75005 13.4988Z" stroke="#666666" stroke-width="1.5" stroke-linecap="round" stroke-linejoin="round"/>
</svg>
