<svg width="24" height="24" viewBox="0 0 24 24" fill="none" xmlns="http://www.w3.org/2000/svg">
<g clip-path="url(#clip0_32_3004)">
<path d="M12 13.6835C12.932 13.6835 13.6875 12.928 13.6875 11.996C13.6875 11.0641 12.932 10.3085 12 10.3085C11.0681 10.3085 10.3125 11.0641 10.3125 11.996C10.3125 12.928 11.0681 13.6835 12 13.6835Z" fill="#666666"/>
<path d="M8.91752 16.0182C8.77177 16.0183 8.62765 15.9876 8.49465 15.9279C8.36166 15.8683 8.24282 15.7812 8.14596 15.6722C7.24634 14.6598 6.74944 13.3525 6.74944 11.9982C6.74944 10.6438 7.24634 9.33653 8.14596 8.32412C8.23518 8.22024 8.3442 8.13517 8.46664 8.07387C8.58909 8.01258 8.72252 7.97628 8.85915 7.9671C8.99578 7.95792 9.13287 7.97605 9.26241 8.02042C9.39196 8.06479 9.51137 8.13451 9.61369 8.22553C9.716 8.31654 9.79916 8.42702 9.85832 8.55051C9.91748 8.67401 9.95145 8.80805 9.95825 8.94482C9.96505 9.08159 9.94454 9.21834 9.89793 9.34709C9.85131 9.47585 9.77952 9.59403 9.68674 9.69475C9.1228 10.3296 8.81131 11.1493 8.81131 11.9984C8.81131 12.8476 9.1228 13.6672 9.68674 14.3021C9.8187 14.4506 9.90492 14.6342 9.93505 14.8306C9.96518 15.027 9.93793 15.2279 9.85657 15.4092C9.77522 15.5905 9.64322 15.7444 9.47646 15.8524C9.3097 15.9605 9.11528 16.018 8.91658 16.0182H8.91752ZM15.0825 16.0182C14.8838 16.018 14.6894 15.9605 14.5226 15.8524C14.3559 15.7444 14.2239 15.5905 14.1425 15.4092C14.0612 15.2279 14.0339 15.027 14.0641 14.8306C14.0942 14.6342 14.1804 14.4506 14.3124 14.3021C14.8763 13.6672 15.1878 12.8476 15.1878 11.9984C15.1878 11.1493 14.8763 10.3296 14.3124 9.69475C14.2196 9.59403 14.1478 9.47585 14.1012 9.34709C14.0546 9.21834 14.0341 9.08159 14.0409 8.94482C14.0477 8.80805 14.0816 8.67401 14.1408 8.55051C14.1999 8.42702 14.2831 8.31654 14.3854 8.22553C14.4877 8.13451 14.6071 8.06479 14.7367 8.02042C14.8662 7.97605 15.0033 7.95792 15.14 7.9671C15.2766 7.97628 15.41 8.01258 15.5325 8.07387C15.6549 8.13517 15.7639 8.22024 15.8531 8.32412C16.7528 9.33653 17.2497 10.6438 17.2497 11.9982C17.2497 13.3525 16.7528 14.6598 15.8531 15.6722C15.7564 15.781 15.6377 15.8681 15.5049 15.9277C15.3721 15.9874 15.2281 16.0182 15.0825 16.0182Z" fill="#666666"/>
<path d="M6.52927 18.4076C6.38781 18.4078 6.24785 18.3787 6.11815 18.3222C5.98844 18.2658 5.8718 18.1831 5.77552 18.0795C4.23346 16.4298 3.37565 14.2559 3.37565 11.9977C3.37565 9.73951 4.23346 7.56562 5.77552 5.91592C5.86781 5.81616 5.97892 5.73563 6.10245 5.67896C6.22598 5.62229 6.35949 5.59059 6.4953 5.58569C6.63112 5.58079 6.76657 5.60279 6.89386 5.65042C7.02115 5.69805 7.13777 5.77036 7.23701 5.86321C7.33625 5.95606 7.41617 6.06762 7.47215 6.19146C7.52814 6.3153 7.55909 6.44898 7.56324 6.58482C7.56738 6.72067 7.54464 6.85599 7.4963 6.98301C7.44797 7.11003 7.37501 7.22625 7.28161 7.32498C6.0969 8.5926 5.43789 10.2629 5.43789 11.9979C5.43789 13.733 6.0969 15.4033 7.28161 16.6709C7.41848 16.8178 7.50952 17.0014 7.54355 17.1992C7.57758 17.397 7.55314 17.6005 7.47321 17.7847C7.39328 17.9688 7.26135 18.1256 7.09359 18.2359C6.92583 18.3461 6.72954 18.405 6.5288 18.4053L6.52927 18.4076ZM17.4708 18.4076C17.2701 18.4073 17.0738 18.3484 16.906 18.2382C16.7383 18.128 16.6063 17.9711 16.5264 17.787C16.4465 17.6029 16.422 17.3994 16.4561 17.2015C16.4901 17.0037 16.5811 16.8201 16.718 16.6733C17.9027 15.4056 18.5617 13.7353 18.5617 12.0003C18.5617 10.2652 17.9027 8.59495 16.718 7.32732C16.6246 7.22859 16.5517 7.11238 16.5033 6.98536C16.455 6.85833 16.4322 6.72301 16.4364 6.58717C16.4405 6.45132 16.4715 6.31764 16.5275 6.1938C16.5835 6.06996 16.6634 5.95841 16.7626 5.86556C16.8619 5.77271 16.9785 5.70039 17.1058 5.65276C17.2331 5.60514 17.3685 5.58314 17.5043 5.58804C17.6401 5.59293 17.7736 5.62463 17.8972 5.6813C18.0207 5.73797 18.1318 5.8185 18.2241 5.91826C19.7662 7.56797 20.624 9.74186 20.624 12.0001C20.624 14.2583 19.7662 16.4321 18.2241 18.0819C18.1277 18.185 18.011 18.2672 17.8814 18.3232C17.7518 18.3793 17.612 18.408 17.4708 18.4076Z" fill="#666666"/>
<path d="M20.1093 20.5287C19.9103 20.5286 19.7155 20.471 19.5484 20.3627C19.3814 20.2543 19.2493 20.1 19.1681 19.9182C19.0869 19.7365 19.06 19.5351 19.0907 19.3384C19.1214 19.1417 19.2083 18.9581 19.3411 18.8098C21.0134 16.9347 21.9376 14.5099 21.9376 11.9974C21.9376 9.48491 21.0134 7.06017 19.3411 5.18508C19.1645 4.98047 19.0753 4.71471 19.0927 4.445C19.1101 4.1753 19.2327 3.9232 19.434 3.74295C19.6354 3.5627 19.8995 3.46871 20.1695 3.48121C20.4395 3.4937 20.6938 3.61169 20.8776 3.80977C22.8884 6.06304 23.9997 8.97744 23.9997 11.9974C23.9997 15.0174 22.8884 17.9318 20.8776 20.1851C20.7809 20.2932 20.6625 20.3796 20.5301 20.4388C20.3978 20.498 20.2544 20.5287 20.1093 20.5287ZM3.8906 20.5287C3.74539 20.529 3.60177 20.4985 3.46919 20.4393C3.33661 20.38 3.21807 20.2934 3.12138 20.1851C1.11062 17.9318 -0.000675642 15.0174 -0.000675642 11.9974C-0.000675642 8.97744 1.11062 6.06304 3.12138 3.80977C3.30525 3.61169 3.55953 3.4937 3.82951 3.48121C4.09949 3.46871 4.36358 3.5627 4.56496 3.74295C4.76634 3.9232 4.88892 4.1753 4.90631 4.445C4.9237 4.71471 4.83451 4.98047 4.65794 5.18508C2.98557 7.06017 2.06137 9.48491 2.06137 11.9974C2.06137 14.5099 2.98557 16.9347 4.65794 18.8098C4.79063 18.9581 4.87759 19.1416 4.90831 19.3382C4.93904 19.5348 4.91223 19.7361 4.83111 19.9178C4.74999 20.0995 4.61803 20.2539 4.45115 20.3623C4.28427 20.4707 4.08959 20.5285 3.8906 20.5287Z" fill="#666666"/>
</g>
<defs>
<clipPath id="clip0_32_3004">
<rect width="24" height="24" fill="white"/>
</clipPath>
</defs>
</svg>
