<svg width="24" height="24" viewBox="0 0 24 24" fill="none" xmlns="http://www.w3.org/2000/svg">
<path d="M12 13.5024C12.8284 13.5024 13.5 12.8308 13.5 12.0024C13.5 11.174 12.8284 10.5024 12 10.5024C11.1716 10.5024 10.5 11.174 10.5 12.0024C10.5 12.8308 11.1716 13.5024 12 13.5024Z" fill="#666666"/>
<path d="M8.63673 9.00598C7.90501 9.8296 7.50086 10.893 7.50086 11.9947C7.50086 13.0964 7.90501 14.1599 8.63673 14.9835M15.3642 14.9835C16.0959 14.1599 16.5001 13.0964 16.5001 11.9947C16.5001 10.893 16.0959 9.8296 15.3642 9.00598M6.24751 6.61676C4.88406 8.07544 4.12561 9.99758 4.12561 11.9943C4.12561 13.9909 4.88406 15.9131 6.24751 17.3718M17.7525 17.3718C19.116 15.9131 19.8744 13.9909 19.8744 11.9943C19.8744 9.99758 19.116 8.07544 17.7525 6.61676M20.3906 19.4943C22.2322 17.4301 23.25 14.7605 23.25 11.9943C23.25 9.22801 22.2322 6.55844 20.3906 4.49426M3.60939 4.49426C1.76782 6.55844 0.750072 9.22801 0.750072 11.9943C0.750072 14.7605 1.76782 17.4301 3.60939 19.4943" stroke="#666666" stroke-width="1.5" stroke-linecap="round" stroke-linejoin="round"/>
</svg>
