<svg width="24" height="24" viewBox="0 0 24 24" fill="none" xmlns="http://www.w3.org/2000/svg">
<g clip-path="url(#clip0_32_2999)">
<path d="M12 13.6826C12.932 13.6826 13.6875 12.9273 13.6875 11.9956C13.6875 11.0638 12.932 10.3085 12 10.3085C11.068 10.3085 10.3125 11.0638 10.3125 11.9956C10.3125 12.9273 11.068 13.6826 12 13.6826Z" fill="#666666"/>
<path d="M8.83117 16.4412L8.14586 15.6706C7.24603 14.6587 6.74895 13.3518 6.74895 11.9977C6.74895 10.6436 7.24603 9.33663 8.14586 8.32478L8.83117 7.55463L10.372 8.92525L9.68664 9.69541C9.12255 10.3298 8.81094 11.1492 8.81094 11.9981C8.81094 12.8471 9.12255 13.6665 9.68664 14.3009L10.372 15.0715L8.83117 16.4412ZM15.1687 16.4412L13.627 15.0715L14.3123 14.3009C14.8764 13.6665 15.188 12.8471 15.188 11.9981C15.188 11.1492 14.8764 10.3298 14.3123 9.69541L13.627 8.92525L15.1677 7.55463L15.853 8.32478C16.7529 9.33663 17.25 10.6436 17.25 11.9977C17.25 13.3518 16.7529 14.6587 15.853 15.6706L15.1687 16.4412Z" fill="#666666"/>
<path d="M6.48005 18.8313L5.77692 18.0785C4.23453 16.4298 3.37643 14.2565 3.37643 11.9988C3.37643 9.74111 4.23453 7.56781 5.77692 5.91911L6.48005 5.16583L7.98661 6.57443L7.28348 7.32724C6.09835 8.59409 5.439 10.264 5.439 11.9988C5.439 13.7336 6.09835 15.4035 7.28348 16.6704L7.98661 17.4232L6.48005 18.8313ZM17.5201 18.8313L16.0135 17.4251L16.7166 16.6722C17.9018 15.4054 18.5611 13.7355 18.5611 12.0007C18.5611 10.2659 17.9018 8.59596 16.7166 7.32911L16.0135 6.5763L17.5201 5.17005L18.2232 5.92333C19.7656 7.57203 20.6237 9.74533 20.6237 12.003C20.6237 14.2607 19.7656 16.434 18.2232 18.0827L17.5201 18.8313Z" fill="#666666"/>
<path d="M20.1905 20.9537L18.6535 19.5788L19.3407 18.8106C21.0131 16.9364 21.9374 14.5124 21.9374 12.0006C21.9374 9.48871 21.0131 7.06469 19.3407 5.19055L18.653 4.42274L20.19 3.04742L20.8777 3.81571C22.8884 6.06787 23.9998 8.98139 23.9998 12.0006C23.9998 15.0197 22.8884 17.9332 20.8777 20.1854L20.1905 20.9537ZM3.80958 20.9537L3.12192 20.1854C1.11118 17.9332 -0.000173569 15.0197 -0.000173569 12.0006C-0.000173569 8.98139 1.11118 6.06787 3.12192 3.81571L3.81005 3.04742L5.34708 4.42274L4.65895 5.19055C2.98654 7.06469 2.06224 9.48871 2.06224 12.0006C2.06224 14.5124 2.98654 16.9364 4.65895 18.8106L5.34614 19.5788L3.80958 20.9537Z" fill="#666666"/>
</g>
<defs>
<clipPath id="clip0_32_2999">
<rect width="24" height="24" fill="white"/>
</clipPath>
</defs>
</svg>
