<svg width="24" height="24" viewBox="0 0 24 24" fill="none" xmlns="http://www.w3.org/2000/svg">
<path d="M21.3872 6.53178C20.6011 5.74756 19.5511 5.20006 18.3324 4.93803C18.2181 4.91344 18.1112 4.86249 18.0201 4.78925C17.9291 4.716 17.8564 4.62248 17.8079 4.51616C17.3597 3.53728 16.6811 2.68148 15.8302 2.02194C14.7413 1.18897 13.4171 0.748812 12 0.748812C10.3854 0.743687 8.82526 1.33302 7.61723 2.40444C6.48286 3.41506 5.69958 4.811 5.34708 6.42772C5.31768 6.56457 5.25069 6.69051 5.15364 6.79137C5.05659 6.89223 4.93332 6.96402 4.7977 6.99866C3.62583 7.29397 3.1238 7.58647 2.49098 8.14991C1.5938 8.94866 1.12505 10.0366 1.12505 11.2863C1.12505 12.7183 1.65145 13.8944 2.64708 14.6876C3.51942 15.3818 4.71098 15.7488 6.0938 15.7488H17.0625C18.6188 15.7488 20.0677 15.2116 21.1407 14.2357C22.2582 13.2208 22.8751 11.8137 22.8751 10.2738C22.8751 8.79772 22.3594 7.50397 21.3872 6.53178ZM5.25005 20.9988C5.11431 20.9987 4.98114 20.9618 4.86474 20.892C4.74834 20.8222 4.65306 20.7221 4.58907 20.6024C4.52508 20.4827 4.49478 20.3479 4.50139 20.2123C4.508 20.0767 4.55128 19.9455 4.62661 19.8326L6.12661 17.5826C6.18127 17.5006 6.25154 17.4303 6.33339 17.3755C6.41525 17.3207 6.50709 17.2826 6.60368 17.2633C6.70027 17.244 6.79971 17.244 6.89632 17.2631C6.99294 17.2823 7.08483 17.3202 7.16677 17.3749C7.2487 17.4296 7.31906 17.4998 7.37384 17.5817C7.42862 17.6635 7.46673 17.7554 7.48602 17.852C7.5053 17.9486 7.50537 18.048 7.48622 18.1446C7.46707 18.2412 7.42909 18.3331 7.37442 18.4151L5.87442 20.6651C5.80588 20.7678 5.71302 20.852 5.60409 20.9102C5.49517 20.9685 5.37355 20.9989 5.25005 20.9988ZM7.50005 23.2488C7.36435 23.2486 7.23125 23.2117 7.11491 23.1418C6.99857 23.072 6.90336 22.9719 6.83943 22.8522C6.7755 22.7325 6.74523 22.5977 6.75186 22.4622C6.75849 22.3266 6.80177 22.1954 6.87708 22.0826L9.87708 17.5826C9.93174 17.5006 10.002 17.4303 10.0839 17.3755C10.1657 17.3207 10.2576 17.2826 10.3541 17.2633C10.4507 17.244 10.5502 17.244 10.6468 17.2631C10.7434 17.2823 10.8353 17.3202 10.9172 17.3749C10.9992 17.4296 11.0695 17.4998 11.1243 17.5817C11.1791 17.6635 11.2172 17.7554 11.2365 17.852C11.2558 17.9486 11.2558 18.048 11.2367 18.1446C11.2175 18.2412 11.1796 18.3331 11.1249 18.4151L8.12489 22.9151C8.0563 23.0179 7.96337 23.1021 7.85436 23.1604C7.74535 23.2186 7.62363 23.249 7.50005 23.2488ZM12.75 20.9988C12.6143 20.9987 12.4811 20.9618 12.3647 20.892C12.2483 20.8222 12.1531 20.7221 12.0891 20.6024C12.0251 20.4827 11.9948 20.3479 12.0014 20.2123C12.008 20.0767 12.0513 19.9455 12.1266 19.8326L13.6266 17.5826C13.737 17.4171 13.9086 17.3023 14.1037 17.2633C14.2987 17.2244 14.5013 17.2645 14.6668 17.3749C14.8322 17.4853 14.9471 17.6569 14.986 17.852C15.025 18.047 14.9848 18.2496 14.8744 18.4151L13.3744 20.6651C13.3059 20.7678 13.213 20.852 13.1041 20.9102C12.9952 20.9685 12.8736 20.9989 12.75 20.9988ZM15 23.2488C14.8643 23.2487 14.7311 23.2118 14.6147 23.142C14.4983 23.0722 14.4031 22.9721 14.3391 22.8524C14.2751 22.7327 14.2448 22.5979 14.2514 22.4623C14.258 22.3267 14.3013 22.1955 14.3766 22.0826L17.3766 17.5826C17.487 17.4171 17.6586 17.3023 17.8537 17.2633C18.0487 17.2244 18.2513 17.2645 18.4168 17.3749C18.5822 17.4853 18.6971 17.6569 18.736 17.852C18.775 18.047 18.7348 18.2496 18.6244 18.4151L15.6244 22.9151C15.5559 23.0178 15.463 23.102 15.3541 23.1602C15.2452 23.2185 15.1236 23.2489 15 23.2488Z" fill="#666666"/>
</svg>
