<svg width="24" height="24" viewBox="0 0 24 24" fill="none" xmlns="http://www.w3.org/2000/svg">
<path d="M5.37244 7.63054C5.52911 7.60624 5.67412 7.53312 5.78681 7.42161C5.89951 7.31009 5.97414 7.16586 6.00009 7.00945C6.56681 3.56742 9.0765 1.49695 12.0001 1.49695C14.7156 1.49695 16.5292 3.26648 17.2595 5.14101C17.3064 5.26116 17.3838 5.36701 17.4841 5.44813C17.5844 5.52926 17.704 5.58287 17.8313 5.60367C20.1751 5.9857 22.1251 7.55086 22.1251 10.2719C22.1251 13.0563 19.847 14.997 17.0626 14.997H6.09384C3.77353 14.997 1.87509 13.8391 1.87509 11.2844C1.87509 9.01242 3.68775 7.89914 5.37244 7.63054V7.63054Z" stroke="#666666" stroke-width="1.5" stroke-linejoin="round"/>
<path d="M18.0001 17.9979L15.0001 22.4979M6.75015 17.9979L5.25015 20.2479L6.75015 17.9979ZM10.5001 17.9979L7.50015 22.4979L10.5001 17.9979ZM14.2501 17.9979L12.7501 20.2479L14.2501 17.9979Z" stroke="#666666" stroke-width="1.5" stroke-linecap="round" stroke-linejoin="round"/>
</svg>
