<svg width="24" height="24" viewBox="0 0 24 24" fill="none" xmlns="http://www.w3.org/2000/svg">
<path d="M17.0625 15.7488H6.09374C4.71092 15.7488 3.51936 15.3818 2.64702 14.6876C1.65139 13.8944 1.12498 12.7183 1.12498 11.2863C1.12498 10.0366 1.59748 8.95193 2.49092 8.1499C3.2053 7.50865 4.18639 7.06193 5.25655 6.89178C5.25936 6.89178 5.2603 6.89178 5.26077 6.88943C5.56264 5.06131 6.3778 3.51021 7.61905 2.40443C8.82659 1.33345 10.3859 0.744142 12 0.748807C13.417 0.748807 14.7412 1.18896 15.8301 2.0224C16.7821 2.76136 17.5167 3.74379 17.9564 4.86584C19.335 5.09178 20.5214 5.66787 21.3872 6.53178C22.3594 7.50396 22.875 8.79771 22.875 10.2738C22.875 11.8137 22.2595 13.2208 21.1406 14.2357C20.0676 15.2116 18.6187 15.7488 17.0625 15.7488ZM4.3978 20.1748L6.72983 16.6767L7.97792 17.5088L5.64585 21.0069L4.3978 20.1748ZM6.64761 22.4252L10.4797 16.6769L11.7278 17.509L7.89571 23.2572L6.64761 22.4252ZM11.8974 20.1749L14.2295 16.6768L15.4776 17.5089L13.1455 21.007L11.8974 20.1749ZM14.1472 22.4252L17.9794 16.6771L19.2274 17.5091L15.3953 23.2573L14.1472 22.4252Z" fill="#666666"/>
</svg>
