<svg width="24" height="24" viewBox="0 0 24 24" fill="none" xmlns="http://www.w3.org/2000/svg">
<path d="M17.2501 1.49786H6.75006C5.95468 1.49873 5.19212 1.81508 4.6297 2.3775C4.06728 2.93992 3.75093 3.70248 3.75006 4.49786V19.4979C3.75093 20.2932 4.06728 21.0558 4.6297 21.6182C5.19212 22.1806 5.95468 22.497 6.75006 22.4979H17.2501C18.0454 22.497 18.808 22.1806 19.3704 21.6182C19.9328 21.0558 20.2492 20.2932 20.2501 19.4979V4.49786C20.2492 3.70248 19.9328 2.93992 19.3704 2.3775C18.808 1.81508 18.0454 1.49873 17.2501 1.49786ZM12.0001 14.2479H8.25006C8.05115 14.2479 7.86038 14.1688 7.71973 14.0282C7.57908 13.8875 7.50006 13.6968 7.50006 13.4979C7.50006 13.299 7.57908 13.1082 7.71973 12.9675C7.86038 12.8269 8.05115 12.7479 8.25006 12.7479H12.0001C12.199 12.7479 12.3897 12.8269 12.5304 12.9675C12.671 13.1082 12.7501 13.299 12.7501 13.4979C12.7501 13.6968 12.671 13.8875 12.5304 14.0282C12.3897 14.1688 12.199 14.2479 12.0001 14.2479ZM15.7501 10.4979H8.25006C8.05115 10.4979 7.86038 10.4188 7.71973 10.2782C7.57908 10.1375 7.50006 9.94678 7.50006 9.74786C7.50006 9.54895 7.57908 9.35819 7.71973 9.21753C7.86038 9.07688 8.05115 8.99786 8.25006 8.99786H15.7501C15.949 8.99786 16.1397 9.07688 16.2804 9.21753C16.421 9.35819 16.5001 9.54895 16.5001 9.74786C16.5001 9.94678 16.421 10.1375 16.2804 10.2782C16.1397 10.4188 15.949 10.4979 15.7501 10.4979ZM15.7501 6.74786H8.25006C8.05115 6.74786 7.86038 6.66885 7.71973 6.52819C7.57908 6.38754 7.50006 6.19678 7.50006 5.99786C7.50006 5.79895 7.57908 5.60819 7.71973 5.46753C7.86038 5.32688 8.05115 5.24786 8.25006 5.24786H15.7501C15.949 5.24786 16.1397 5.32688 16.2804 5.46753C16.421 5.60819 16.5001 5.79895 16.5001 5.99786C16.5001 6.19678 16.421 6.38754 16.2804 6.52819C16.1397 6.66885 15.949 6.74786 15.7501 6.74786Z" fill="#666666"/>
</svg>
