<svg width="24" height="24" viewBox="0 0 24 24" fill="none" xmlns="http://www.w3.org/2000/svg">
<path d="M3.75 2.06036V21.9354C3.75 22.0845 3.80926 22.2276 3.91475 22.3331C4.02024 22.4386 4.16332 22.4979 4.3125 22.4979H19.6875C19.8367 22.4979 19.9798 22.4386 20.0853 22.3331C20.1907 22.2276 20.25 22.0845 20.25 21.9354V2.06036C20.25 1.91118 20.1907 1.76811 20.0853 1.66262C19.9798 1.55713 19.8367 1.49786 19.6875 1.49786H4.3125C4.16332 1.49786 4.02024 1.55713 3.91475 1.66262C3.80926 1.76811 3.75 1.91118 3.75 2.06036ZM12.75 14.2479H7.5V12.7479H12.75V14.2479ZM16.5 10.4979H7.5V8.99786H16.5V10.4979ZM16.5 6.74786H7.5V5.24786H16.5V6.74786Z" fill="#666666"/>
</svg>
