<svg width="24" height="24" viewBox="0 0 24 24" fill="none" xmlns="http://www.w3.org/2000/svg">
<path d="M21 2.24786L19.5 1.49786L18 2.24786L16.5 1.49786L15 2.24786L13.5 1.49786L12 2.24786L10.5 1.49786L9.00002 2.24786L6.75002 1.49786V13.5002H17.25V19.8729C17.25 21.3227 18.8002 22.4979 20.25 22.4979H20.8125C22.2624 22.4979 23.25 21.3227 23.25 19.8729V1.49786L21 2.24786ZM12.7735 11.2479L12.75 9.74786H20.2266L20.25 11.2479H12.7735ZM9.77346 7.49786L9.75002 5.99786H20.2266L20.25 7.49786H9.77346Z" fill="#666666"/>
<path d="M15.7499 19.8719V14.9969H0.749931V16.4969C0.749931 18.8665 1.02087 19.8541 1.42774 20.6046C2.11821 21.8782 3.36837 22.497 5.24993 22.497H17.2499C17.2499 22.497 15.7499 21.5594 15.7499 19.8719Z" fill="#666666"/>
</svg>
