<svg width="24" height="24" viewBox="0 0 24 24" fill="none" xmlns="http://www.w3.org/2000/svg">
<g clip-path="url(#clip0_32_3023)">
<path d="M7.49998 15.7506V2.25055L8.99999 3.00055L10.5 2.25055L11.9972 3.00055L13.5145 2.25055L15 3.00055L16.4901 2.25055L17.9869 3.00055L19.5 2.25055L21.0005 3.00055L22.5 2.25055V12.7506" stroke="#666666" stroke-width="1.5" stroke-linejoin="round"/>
<path d="M22.5001 12.7479V17.9979C22.5001 18.9924 22.105 19.9463 21.4017 20.6495C20.6985 21.3528 19.7446 21.7479 18.7501 21.7479V21.7479C17.7555 21.7479 16.8017 21.3528 16.0984 20.6495C15.3952 19.9463 15.0001 18.9924 15.0001 17.9979V15.7479H2.25007C2.15133 15.747 2.05341 15.7658 1.96202 15.8032C1.87063 15.8406 1.78761 15.8958 1.71779 15.9656C1.64797 16.0354 1.59276 16.1184 1.55537 16.2098C1.51799 16.3012 1.49919 16.3991 1.50007 16.4979C1.50007 19.4979 1.816 21.7479 5.25007 21.7479H18.7501" stroke="#666666" stroke-width="1.5" stroke-linejoin="round"/>
<path d="M13.5 10.4988H19.5M10.5 6.74878H19.5H10.5Z" stroke="#666666" stroke-width="1.5" stroke-linecap="round" stroke-linejoin="round"/>
</g>
<defs>
<clipPath id="clip0_32_3023">
<rect width="24" height="24" fill="white" transform="translate(0.00012207 -0.00390625)"/>
</clipPath>
</defs>
</svg>
