<svg width="24" height="24" viewBox="0 0 24 24" fill="none" xmlns="http://www.w3.org/2000/svg">
<path d="M22.6789 1.51926C22.5014 1.47705 22.3147 1.49983 22.1525 1.58348L20.9999 2.1591L19.8374 1.57785C19.7332 1.52579 19.6184 1.49868 19.502 1.49868C19.3855 1.49868 19.2707 1.52579 19.1666 1.57785L17.9895 2.15957L16.828 1.57785C16.7235 1.52541 16.6083 1.4981 16.4914 1.4981C16.3746 1.4981 16.2593 1.52541 16.1549 1.57785L14.9999 2.1577L13.8538 1.57926C13.7496 1.52646 13.6346 1.4987 13.5178 1.49821C13.401 1.49773 13.2857 1.52452 13.1811 1.57645L11.9999 2.16004L10.8374 1.57739C10.733 1.52535 10.6181 1.49826 10.5015 1.49826C10.3849 1.49826 10.27 1.52535 10.1656 1.57739L8.99986 2.1591L7.83549 1.57739C7.68538 1.50214 7.51436 1.47944 7.34983 1.51293C7.18529 1.54642 7.03675 1.63415 6.92799 1.76207C6.81076 1.90179 6.74756 2.07893 6.74986 2.26129V13.4982L6.7522 13.5005H15.7499C16.1477 13.5005 16.5292 13.6585 16.8105 13.9399C17.0918 14.2212 17.2499 14.6027 17.2499 15.0005V19.8732C17.2499 21.323 18.8 22.4982 20.2499 22.4982H20.8124C21.4588 22.4982 22.0788 22.2414 22.5359 21.7842C22.9931 21.3271 23.2499 20.7071 23.2499 20.0607V2.24817C23.25 2.0803 23.1938 1.91725 23.0903 1.78509C22.9868 1.65294 22.8419 1.55934 22.6789 1.51926ZM19.4999 11.2482H13.5233C13.1183 11.2482 12.7686 10.9369 12.7508 10.5319C12.7462 10.4307 12.7622 10.3296 12.7978 10.2348C12.8334 10.1399 12.8878 10.0532 12.9578 9.97997C13.0278 9.90673 13.112 9.84842 13.2051 9.80858C13.2983 9.76874 13.3985 9.74819 13.4999 9.74817H19.4764C19.8814 9.74817 20.2311 10.0594 20.2489 10.4644C20.2535 10.5656 20.2375 10.6667 20.2019 10.7616C20.1663 10.8565 20.1119 10.9431 20.0419 11.0164C19.9719 11.0896 19.8878 11.1479 19.7946 11.1878C19.7014 11.2276 19.6012 11.2481 19.4999 11.2482ZM19.4999 7.49817H10.5233C10.1183 7.49817 9.76861 7.18692 9.7508 6.78192C9.74624 6.6807 9.76223 6.57961 9.79782 6.48475C9.83341 6.38989 9.88784 6.30322 9.95785 6.22997C10.0278 6.15673 10.112 6.09842 10.2051 6.05858C10.2983 6.01874 10.3985 5.99819 10.4999 5.99817H19.4764C19.8814 5.99817 20.2311 6.30942 20.2489 6.71442C20.2535 6.81563 20.2375 6.91672 20.2019 7.01159C20.1663 7.10645 20.1119 7.19312 20.0419 7.26636C19.9719 7.33961 19.8878 7.39791 19.7946 7.43775C19.7014 7.47759 19.6012 7.49814 19.4999 7.49817Z" fill="#666666"/>
<path d="M15.75 19.8719V15.7469C15.75 15.548 15.671 15.3573 15.5303 15.2166C15.3897 15.076 15.1989 14.9969 15 14.9969H2.24999C1.85214 14.9982 1.47098 15.1569 1.18988 15.4385C0.908771 15.72 0.750612 16.1014 0.749994 16.4993C0.749994 18.8688 1.02093 19.8541 1.42781 20.6041C2.11828 21.8777 3.36843 22.497 5.25 22.497H16.7662C16.8032 22.497 16.8394 22.4861 16.8702 22.4656C16.901 22.4451 16.9251 22.416 16.9394 22.3818C16.9536 22.3477 16.9575 22.3101 16.9505 22.2738C16.9434 22.2375 16.9258 22.2041 16.8998 22.1777C16.4564 21.7329 15.75 21.1376 15.75 19.8719Z" fill="#666666"/>
</svg>
