<svg width="24" height="24" viewBox="0 0 24 24" fill="none" xmlns="http://www.w3.org/2000/svg">
<path d="M17.8496 6.75083C15.0793 6.82817 12.8284 9.08099 12.7501 11.8513C12.7105 13.237 13.2223 14.5818 14.1732 15.5905C14.1855 15.6036 14.1938 15.6199 14.1971 15.6375C14.2005 15.6551 14.1987 15.6733 14.1919 15.6899C14.1852 15.7066 14.1739 15.7209 14.1593 15.7313C14.1447 15.7417 14.1274 15.7476 14.1095 15.7485H9.89071C9.87248 15.7483 9.8547 15.7429 9.83953 15.7328C9.82436 15.7227 9.81246 15.7083 9.8053 15.6916C9.79814 15.6748 9.79602 15.6563 9.7992 15.6384C9.80238 15.6204 9.81072 15.6038 9.82321 15.5905C10.7755 14.5824 11.2887 13.2375 11.2501 11.8513C11.1737 9.08099 8.92274 6.82817 6.15243 6.75083C5.45252 6.73127 4.75576 6.85177 4.10307 7.10524C3.45038 7.35871 2.85491 7.74004 2.35165 8.22685C1.84838 8.71365 1.44746 9.29611 1.17243 9.94001C0.897401 10.5839 0.753808 11.2763 0.750085 11.9765C0.738366 14.894 3.14071 17.2485 6.05821 17.2485H17.942C20.8595 17.2485 23.2618 14.894 23.2501 11.9765C23.2464 11.2764 23.1028 10.5842 22.8279 9.94046C22.553 9.29668 22.1522 8.71431 21.6492 8.22753C21.1461 7.74075 20.5509 7.35938 19.8984 7.10579C19.2459 6.85221 18.5494 6.73153 17.8496 6.75083Z" fill="#666666"/>
</svg>
