<svg width="24" height="24" viewBox="0 0 24 24" fill="none" xmlns="http://www.w3.org/2000/svg">
<path d="M18.0001 6.4693C16.9565 6.46865 15.934 6.76344 15.0509 7.31957C14.1678 7.8757 13.4602 8.67045 13.0099 9.61191C12.5595 10.5534 12.3849 11.6031 12.5062 12.6396C12.6274 13.6762 13.0397 14.6572 13.6951 15.4693H10.3051C11.0917 14.4923 11.5229 13.2769 11.5279 12.0226C11.5329 10.7683 11.1115 9.54957 10.3327 8.56631C9.55391 7.58305 8.46406 6.89368 7.24195 6.6113C6.01984 6.32892 4.73804 6.4703 3.60685 7.01224C2.47565 7.55419 1.56225 8.46452 1.01649 9.59388C0.470734 10.7232 0.325031 12.0046 0.603287 13.2276C0.881544 14.4507 1.56724 15.5428 2.54787 16.3249C3.5285 17.107 4.74583 17.5326 6.00014 17.5318H18.0001C19.4671 17.5318 20.874 16.9491 21.9113 15.9117C22.9486 14.8744 23.5314 13.4675 23.5314 12.0006C23.5314 10.5336 22.9486 9.12668 21.9113 8.08937C20.874 7.05206 19.4671 6.4693 18.0001 6.4693ZM2.53139 12.0006C2.53139 11.3145 2.73483 10.6439 3.11598 10.0734C3.49713 9.50299 4.03887 9.05839 4.67271 8.79585C5.30654 8.53331 6.00399 8.46461 6.67686 8.59846C7.34973 8.7323 7.9678 9.06266 8.45292 9.54778C8.93803 10.0329 9.2684 10.651 9.40224 11.3238C9.53608 11.9967 9.46739 12.6942 9.20485 13.328C8.9423 13.9618 8.49771 14.5036 7.92727 14.8847C7.35684 15.2659 6.68619 15.4693 6.00014 15.4693C5.08051 15.4682 4.19887 15.1024 3.5486 14.4521C2.89832 13.8018 2.53251 12.9202 2.53139 12.0006ZM18.0001 15.4693C17.3141 15.4693 16.6434 15.2659 16.073 14.8847C15.5026 14.5036 15.058 13.9618 14.7954 13.328C14.5329 12.6942 14.4642 11.9967 14.598 11.3238C14.7319 10.651 15.0623 10.0329 15.5474 9.54778C16.0325 9.06266 16.6506 8.7323 17.3234 8.59846C17.9963 8.46461 18.6937 8.53331 19.3276 8.79585C19.9614 9.05839 20.5032 9.50299 20.8843 10.0734C21.2655 10.6439 21.4689 11.3145 21.4689 12.0006C21.4678 12.9202 21.102 13.8018 20.4517 14.4521C19.8014 15.1024 18.9198 15.4682 18.0001 15.4693Z" fill="#666666"/>
</svg>
