<svg width="24" height="24" viewBox="0 0 24 24" fill="none" xmlns="http://www.w3.org/2000/svg">
<path d="M15 6.83893C15 6.83893 16.1419 6.27643 12 6.27643C10.5167 6.27643 9.06661 6.7163 7.83324 7.54041C6.59987 8.36452 5.63858 9.53586 5.07092 10.9063C4.50326 12.2767 4.35474 13.7847 4.64413 15.2396C4.93352 16.6945 5.64782 18.0308 6.69672 19.0797C7.74561 20.1286 9.08198 20.8429 10.5368 21.1323C11.9917 21.4217 13.4997 21.2732 14.8701 20.7055C16.2406 20.1379 17.4119 19.1766 18.236 17.9432C19.0602 16.7098 19.5 15.2598 19.5 13.7764" stroke="#666666" stroke-width="1.5" stroke-miterlimit="10" stroke-linecap="square"/>
<path d="M12 2.7157L15.75 6.4657L12 10.2157" stroke="#666666" stroke-width="1.5" stroke-miterlimit="10" stroke-linecap="square"/>
</svg>
