<svg width="24" height="24" viewBox="0 0 24 24" fill="none" xmlns="http://www.w3.org/2000/svg">
<path d="M15.0001 6.83893C15.0001 6.83893 16.142 6.27643 12.0001 6.27643C10.5167 6.27643 9.06669 6.7163 7.83332 7.54041C6.59995 8.36452 5.63866 9.53586 5.071 10.9063C4.50334 12.2767 4.35482 13.7847 4.64421 15.2396C4.93359 16.6945 5.6479 18.0308 6.69679 19.0797C7.74569 20.1286 9.08206 20.8429 10.5369 21.1323C11.9918 21.4217 13.4998 21.2732 14.8702 20.7055C16.2407 20.1379 17.412 19.1766 18.2361 17.9432C19.0602 16.7098 19.5001 15.2598 19.5001 13.7764" stroke="#666666" stroke-width="1.5" stroke-miterlimit="10" stroke-linecap="round"/>
<path d="M12 2.7157L15.75 6.4657L12 10.2157" stroke="#666666" stroke-width="1.5" stroke-linecap="round" stroke-linejoin="round"/>
</svg>
