<svg width="24" height="24" viewBox="0 0 24 24" fill="none" xmlns="http://www.w3.org/2000/svg">
<path d="M11.9999 2.25146C6.62385 2.25146 2.24995 6.62584 2.24995 12.0015C2.24995 17.3855 6.61588 21.7515 11.9999 21.7515C17.376 21.7515 21.7499 17.3776 21.7499 12.0015C21.7499 6.61693 17.3845 2.25146 11.9999 2.25146ZM11.9999 16.9233C10.8313 16.9233 9.71059 16.4591 8.88426 15.6328C8.05793 14.8064 7.5937 13.6857 7.5937 12.5171C7.5937 11.3485 8.05793 10.2277 8.88426 9.4014C9.71059 8.57507 10.8313 8.11084 11.9999 8.11084H12.1973L11.5359 7.4499C11.4128 7.32683 11.3437 7.1599 11.3437 6.98584C11.3437 6.81178 11.4128 6.64486 11.5359 6.52178C11.659 6.3987 11.8259 6.32956 11.9999 6.32956C12.174 6.32956 12.3409 6.3987 12.464 6.52178L14.339 8.39678C14.4 8.45772 14.4483 8.53006 14.4813 8.60969C14.5143 8.68931 14.5312 8.77465 14.5312 8.86084C14.5312 8.94703 14.5143 9.03237 14.4813 9.11199C14.4483 9.19162 14.4 9.26396 14.339 9.3249L12.464 11.1999C12.3409 11.323 12.174 11.3921 11.9999 11.3921C11.8259 11.3921 11.659 11.323 11.5359 11.1999C11.4128 11.0768 11.3437 10.9099 11.3437 10.7358C11.3437 10.5618 11.4128 10.3949 11.5359 10.2718L12.3796 9.42803C12.2681 9.42334 12.1406 9.42334 11.9999 9.42334C11.3881 9.42334 10.7899 9.60479 10.2812 9.94473C9.77239 10.2847 9.37585 10.7679 9.1417 11.3332C8.90754 11.8985 8.84627 12.5205 8.96564 13.1207C9.08502 13.7208 9.37967 14.272 9.81234 14.7047C10.245 15.1374 10.7963 15.432 11.3964 15.5514C11.9965 15.6708 12.6186 15.6095 13.1839 15.3753C13.7492 15.1412 14.2324 14.7447 14.5723 14.2359C14.9123 13.7271 15.0937 13.129 15.0937 12.5171C15.0937 12.343 15.1628 12.1761 15.2859 12.0531C15.409 11.93 15.5759 11.8608 15.7499 11.8608C15.924 11.8608 16.0909 11.93 16.214 12.0531C16.3371 12.1761 16.4062 12.343 16.4062 12.5171C16.4048 13.6853 15.9402 14.8052 15.1141 15.6313C14.2881 16.4573 13.1681 16.922 11.9999 16.9233Z" fill="#666666"/>
</svg>
