<svg width="24" height="24" viewBox="0 0 24 24" fill="none" xmlns="http://www.w3.org/2000/svg">
<path d="M12.0001 2.25055C6.62398 2.25055 2.25008 6.62492 2.25008 12.0006C2.25008 17.3846 6.61601 21.7506 12.0001 21.7506C17.3762 21.7506 21.7501 17.3766 21.7501 12.0006C21.7501 6.61602 17.3846 2.25055 12.0001 2.25055ZM16.4063 12.5162C16.4063 13.3876 16.1479 14.2396 15.6637 14.9642C15.1796 15.6888 14.4914 16.2535 13.6863 16.587C12.8811 16.9205 11.9952 17.0078 11.1405 16.8378C10.2857 16.6677 9.50061 16.2481 8.88439 15.6319C8.26816 15.0156 7.84851 14.2305 7.67849 13.3758C7.50848 12.5211 7.59573 11.6351 7.92923 10.83C8.26273 10.0248 8.82749 9.33668 9.5521 8.85251C10.2767 8.36835 11.1286 8.10992 12.0001 8.10992H12.1974L11.0724 6.98492L12.0001 6.0568L14.8032 8.85992L12.0001 11.6631L11.072 10.7349L12.3807 9.42618C12.2682 9.42242 12.1407 9.42242 12.0001 9.42242C11.3882 9.42242 10.79 9.60387 10.2813 9.94382C9.77252 10.2838 9.37598 10.7669 9.14182 11.3322C8.90767 11.8976 8.8464 12.5196 8.96577 13.1197C9.08515 13.7199 9.3798 14.2711 9.81247 14.7038C10.2451 15.1365 10.7964 15.4311 11.3965 15.5505C11.9966 15.6699 12.6187 15.6086 13.184 15.3744C13.7493 15.1403 14.2325 14.7437 14.5724 14.235C14.9124 13.7262 15.0938 13.1281 15.0938 12.5162V11.8599H16.4063V12.5162Z" fill="#666666"/>
</svg>
