<svg width="24" height="24" viewBox="0 0 24 24" fill="none" xmlns="http://www.w3.org/2000/svg">
<path d="M13.5 9.04474C13.5 9.04474 14.0709 8.76349 12 8.76349C11.2583 8.76349 10.5333 8.98342 9.91658 9.39548C9.29989 9.80753 8.81924 10.3932 8.53542 11.0784C8.25159 11.7636 8.17732 12.5176 8.32202 13.2451C8.46671 13.9725 8.82387 14.6407 9.34831 15.1651C9.87276 15.6896 10.5409 16.0467 11.2684 16.1914C11.9958 16.3361 12.7498 16.2619 13.435 15.978C14.1203 15.6942 14.7059 15.2136 15.118 14.5969C15.53 13.9802 15.75 13.2552 15.75 12.5135" stroke="#666666" stroke-width="1.3125" stroke-miterlimit="10" stroke-linecap="round"/>
<path d="M12 6.98315L13.875 8.85815L12 10.7332" stroke="#666666" stroke-width="1.3125" stroke-linecap="round" stroke-linejoin="round"/>
<path d="M12 2.99878C7.0313 2.99878 3.00005 7.03003 3.00005 11.9988C3.00005 16.9675 7.0313 20.9988 12 20.9988C16.9688 20.9988 21 16.9675 21 11.9988C21 7.03003 16.9688 2.99878 12 2.99878Z" stroke="#666666" stroke-width="1.5" stroke-miterlimit="10"/>
</svg>
