<svg width="24" height="24" viewBox="0 0 24 24" fill="none" xmlns="http://www.w3.org/2000/svg">
<path d="M12 2.25146C6.62394 2.25146 2.25003 6.62537 2.25003 12.0015C2.25003 17.3776 6.62394 21.7515 12 21.7515C17.3761 21.7515 21.75 17.3776 21.75 12.0015C21.75 6.62537 17.3761 2.25146 12 2.25146ZM17.625 10.7897C17.625 10.8969 17.5825 10.9997 17.5067 11.0755C17.4309 11.1512 17.3281 11.1938 17.221 11.1938H14.43C14.3501 11.1939 14.2719 11.1703 14.2054 11.1259C14.1389 11.0816 14.0871 11.0185 14.0565 10.9446C14.0259 10.8707 14.018 10.7895 14.0336 10.7111C14.0493 10.6327 14.0879 10.5607 14.1446 10.5043L15.1838 9.46506L14.9213 9.1599C14.4517 8.67246 13.8687 8.30896 13.2244 8.1019C12.58 7.89485 11.8944 7.8507 11.2288 7.97339C10.5632 8.09609 9.93839 8.38181 9.41021 8.80501C8.88203 9.2282 8.46695 9.77569 8.20208 10.3985C7.93721 11.0213 7.83081 11.7001 7.89238 12.3741C7.95395 13.0481 8.18159 13.6963 8.55493 14.2609C8.92827 14.8254 9.43568 15.2886 10.0318 15.6091C10.6279 15.9296 11.2942 16.0973 11.971 16.0974C12.818 16.0966 13.644 15.8338 14.3357 15.3449C15.0274 14.856 15.5509 14.1651 15.8344 13.3669C15.8673 13.274 15.9181 13.1884 15.984 13.1151C16.0499 13.0418 16.1296 12.9822 16.2186 12.9397C16.3075 12.8972 16.404 12.8726 16.5024 12.8674C16.6008 12.8621 16.6993 12.8764 16.7923 12.9092C16.8853 12.942 16.9708 12.9929 17.0441 13.0588C17.1174 13.1247 17.177 13.2044 17.2196 13.2933C17.2621 13.3823 17.2866 13.4787 17.2919 13.5772C17.2971 13.6756 17.2829 13.7741 17.25 13.8671C16.9082 14.8345 16.307 15.6894 15.5121 16.3382C14.7173 16.987 13.7594 17.4048 12.7431 17.546C11.7268 17.6872 10.6912 17.5463 9.74962 17.1387C8.808 16.7312 7.99655 16.0726 7.40394 15.235C6.81133 14.3974 6.46038 13.413 6.38944 12.3894C6.3185 11.3658 6.5303 10.3424 7.0017 9.43103C7.47309 8.51968 8.18594 7.75545 9.06233 7.22187C9.93872 6.68829 10.9449 6.40588 11.971 6.40553C12.7282 6.40263 13.478 6.55481 14.1742 6.85269C14.8704 7.15057 15.4983 7.58784 16.0191 8.13756L16.0453 8.16662L16.2474 8.401L16.9355 7.71287C16.9722 7.67538 17.0159 7.64555 17.0642 7.62511C17.1125 7.60467 17.1643 7.59403 17.2168 7.59381C17.2701 7.59338 17.323 7.60352 17.3724 7.62367C17.4218 7.64382 17.4668 7.67356 17.5046 7.71118C17.5424 7.7488 17.5724 7.79355 17.5929 7.84284C17.6133 7.89213 17.6238 7.94498 17.6236 7.99834L17.625 10.7897Z" fill="#666666"/>
</svg>
