<svg width="24" height="24" viewBox="0 0 24 24" fill="none" xmlns="http://www.w3.org/2000/svg">
<path d="M12.0001 2.25146C6.62402 2.25146 2.25011 6.62537 2.25011 12.0015C2.25011 17.3776 6.62402 21.7515 12.0001 21.7515C17.3762 21.7515 21.7501 17.3776 21.7501 12.0015C21.7501 6.62537 17.3762 2.25146 12.0001 2.25146ZM17.6251 11.1938H13.4532L15.182 9.46506L14.9195 9.1599C14.45 8.67246 13.8669 8.30896 13.2226 8.1019C12.5782 7.89485 11.8926 7.8507 11.227 7.97339C10.5614 8.09609 9.93659 8.38181 9.40841 8.80501C8.88023 9.2282 8.46515 9.77569 8.20028 10.3985C7.93541 11.0213 7.82901 11.7001 7.89058 12.3741C7.95216 13.0481 8.17979 13.6963 8.55313 14.2609C8.92647 14.8254 9.43388 15.2886 10.03 15.6091C10.6261 15.9296 11.2924 16.0973 11.9692 16.0974C12.8162 16.0966 13.6422 15.8338 14.3339 15.3449C15.0256 14.856 15.5491 14.1651 15.8326 13.3669L16.0843 12.6577L17.4986 13.1579L17.2501 13.8671C16.9083 14.8345 16.3071 15.6894 15.5122 16.3382C14.7174 16.987 13.7594 17.4048 12.7431 17.546C11.7269 17.6872 10.6913 17.5463 9.7497 17.1387C8.80808 16.7312 7.99663 16.0726 7.40402 15.235C6.81141 14.3974 6.46046 13.413 6.38952 12.3894C6.31858 11.3658 6.53038 10.3424 7.00177 9.43103C7.47317 8.51968 8.18602 7.75545 9.06241 7.22187C9.9388 6.68829 10.945 6.40588 11.9711 6.40553C12.7283 6.40263 13.4781 6.55481 14.1743 6.85269C14.8705 7.15057 15.4984 7.58784 16.0192 8.13756L16.0454 8.16662L16.2475 8.401L17.6251 7.02381V11.1938Z" fill="#666666"/>
</svg>
