<svg width="24" height="24" viewBox="0 0 24 24" fill="none" xmlns="http://www.w3.org/2000/svg">
<path d="M21.0001 11.9997C21.0001 7.03095 16.9688 2.99969 12.0001 2.99969C7.03133 2.99969 3.00008 7.03095 3.00008 11.9997C3.00008 16.9684 7.03133 20.9997 12.0001 20.9997C16.9688 20.9997 21.0001 16.9684 21.0001 11.9997Z" stroke="#666666" stroke-width="1.5" stroke-miterlimit="10"/>
<path d="M16.0096 9.27428L15.4766 8.65412C14.7478 7.891 13.7897 7.38668 12.7481 7.2178C11.7064 7.04891 10.6381 7.2247 9.70547 7.71844C8.77285 8.21219 8.0269 8.9969 7.58099 9.95332C7.13508 10.9097 7.01359 11.9856 7.23497 13.0174C7.45636 14.0491 8.00852 14.9804 8.80755 15.6697C9.60658 16.359 10.6088 16.7686 11.6619 16.8363C12.715 16.904 13.7614 16.626 14.642 16.0447C15.5227 15.4633 16.1896 14.6103 16.5412 13.6154" stroke="#666666" stroke-width="1.5" stroke-miterlimit="10" stroke-linecap="round"/>
<path d="M17.2181 7.59348C17.1656 7.5937 17.1138 7.60434 17.0655 7.62478C17.0172 7.64522 16.9735 7.67505 16.9368 7.71254L14.1459 10.5035C14.0892 10.5599 14.0506 10.6319 14.035 10.7103C14.0193 10.7887 14.0272 10.8699 14.0578 10.9438C14.0884 11.0177 14.1402 11.0808 14.2067 11.1252C14.2732 11.1695 14.3514 11.1931 14.4314 11.193H17.2223C17.3295 11.193 17.4322 11.1504 17.508 11.0747C17.5838 10.9989 17.6264 10.8961 17.6264 10.7889V7.99707C17.6265 7.94372 17.616 7.89087 17.5956 7.84158C17.5752 7.79229 17.5452 7.74754 17.5073 7.70992C17.4695 7.6723 17.4246 7.64255 17.3752 7.62241C17.3257 7.60226 17.2728 7.59211 17.2195 7.59254L17.2181 7.59348Z" fill="#666666"/>
</svg>
