<svg width="24" height="24" viewBox="0 0 24 24" fill="none" xmlns="http://www.w3.org/2000/svg">
<path d="M18.75 6.9372L17.76 5.78548C16.9206 4.90384 15.9105 4.20221 14.7914 3.7233C13.6722 3.24438 12.4673 2.99819 11.25 2.9997C6.2812 2.9997 2.24995 7.03095 2.24995 11.9997C2.24995 16.9685 6.2812 20.9997 11.25 20.9997C13.1114 20.9996 14.927 20.4226 16.447 19.3481C17.9669 18.2736 19.1166 16.7545 19.7376 14.9997" stroke="#666666" stroke-width="1.5" stroke-miterlimit="10" stroke-linecap="round"/>
<path d="M21.75 4.5677V9.75114C21.75 9.95005 21.671 10.1408 21.5304 10.2815C21.3897 10.4221 21.199 10.5011 21 10.5011H15.8166C15.1482 10.5011 14.8135 9.69348 15.286 9.22098L20.4699 4.03707C20.9424 3.56364 21.75 3.89926 21.75 4.5677Z" fill="#666666"/>
</svg>
