<svg width="24" height="24" viewBox="0 0 24 24" fill="none" xmlns="http://www.w3.org/2000/svg">
<path d="M18.75 6.9372L17.76 5.78548C16.9206 4.90384 15.9106 4.20221 14.7914 3.7233C13.6723 3.24438 12.4673 2.99819 11.25 2.9997C6.28127 2.9997 2.25002 7.03095 2.25002 11.9997C2.25002 16.9685 6.28127 20.9997 11.25 20.9997C13.1114 20.9996 14.9271 20.4226 16.447 19.3481C17.967 18.2736 19.1166 16.7545 19.7377 14.9997" stroke="#666666" stroke-width="1.5" stroke-miterlimit="10" stroke-linecap="square"/>
<path d="M21.7501 3.20535V10.3093C21.7501 10.359 21.7303 10.4067 21.6952 10.4418C21.66 10.477 21.6123 10.4968 21.5626 10.4968H14.4587C14.4216 10.4968 14.3853 10.4858 14.3544 10.4652C14.3236 10.4446 14.2995 10.4153 14.2853 10.381C14.2711 10.3467 14.2674 10.309 14.2746 10.2726C14.2819 10.2362 14.2998 10.2028 14.326 10.1766L21.4299 3.07269C21.4562 3.04644 21.4896 3.02856 21.526 3.02131C21.5624 3.01406 21.6001 3.01778 21.6344 3.03198C21.6686 3.04618 21.6979 3.07024 21.7185 3.1011C21.7391 3.13196 21.7501 3.16824 21.7501 3.20535Z" fill="#666666"/>
</svg>
