<svg width="24" height="24" viewBox="0 0 24 24" fill="none" xmlns="http://www.w3.org/2000/svg">
<path d="M12.0001 2.24786C6.62398 2.24786 2.25007 6.62177 2.25007 11.9979C2.25007 17.374 6.62398 21.7479 12.0001 21.7479C17.3762 21.7479 21.7501 17.374 21.7501 11.9979C21.7501 6.62177 17.3762 2.24786 12.0001 2.24786ZM15.7501 12.7479H8.25007C8.05116 12.7479 7.86039 12.6688 7.71974 12.5282C7.57909 12.3875 7.50007 12.1968 7.50007 11.9979C7.50007 11.799 7.57909 11.6082 7.71974 11.4675C7.86039 11.3269 8.05116 11.2479 8.25007 11.2479H15.7501C15.949 11.2479 16.1397 11.3269 16.2804 11.4675C16.4211 11.6082 16.5001 11.799 16.5001 11.9979C16.5001 12.1968 16.4211 12.3875 16.2804 12.5282C16.1397 12.6688 15.949 12.7479 15.7501 12.7479Z" fill="#666666"/>
</svg>
