<svg width="24" height="24" viewBox="0 0 24 24" fill="none" xmlns="http://www.w3.org/2000/svg">
<g clip-path="url(#clip0_32_3124)">
<path d="M2.69485 2.23615L19.965 19.5063C20.2927 19.834 20.4768 20.2785 20.4768 20.7419C20.4768 21.2054 20.2927 21.6498 19.965 21.9776V21.9776C19.6372 22.3051 19.1928 22.4891 18.7294 22.4891C18.266 22.4891 17.8215 22.3051 17.4938 21.9776L13.275 17.6861C12.9989 17.4058 12.844 17.0282 12.8438 16.6347V16.3755C12.8438 16.1769 12.8044 15.9802 12.7278 15.7968C12.6512 15.6135 12.5389 15.4473 12.3975 15.3077L11.8528 14.8047C11.6679 14.6341 11.4431 14.5128 11.199 14.4518C10.9549 14.3909 10.6993 14.3923 10.4559 14.456V14.456C10.0721 14.5562 9.66876 14.5542 9.28592 14.4504C8.90307 14.3465 8.55403 14.1444 8.27344 13.864L4.26891 9.85896C1.89328 7.48333 1.01907 3.89599 2.69485 2.23615Z" stroke="#666666" stroke-width="1.5" stroke-linejoin="round"/>
<path d="M9.375 17.247L4.70062 21.9476C4.34901 22.2991 3.87218 22.4966 3.375 22.4966C2.87781 22.4966 2.40099 22.2991 2.04937 21.9476V21.9476C1.69786 21.596 1.5004 21.1192 1.5004 20.622C1.5004 20.1248 1.69786 19.648 2.04937 19.2964L6 15.372M18.75 1.49701L15.1289 5.1181C14.8503 5.39669 14.6292 5.72744 14.4784 6.09146C14.3276 6.45548 14.25 6.84564 14.25 7.23967V7.93623C14.25 8.03478 14.2306 8.13237 14.1929 8.22342C14.1552 8.31447 14.0999 8.39719 14.0302 8.46685L13.5 8.99701L18.75 1.49701ZM15 10.497L15.5302 9.96685C15.5998 9.89714 15.6825 9.84185 15.7736 9.80412C15.8646 9.7664 15.9622 9.74699 16.0608 9.74701H16.7573C17.1514 9.74701 17.5415 9.6694 17.9055 9.51859C18.2696 9.36779 18.6003 9.14675 18.8789 8.8681L22.5 5.24701L15 10.497ZM20.625 3.37201L16.875 7.12201L20.625 3.37201Z" stroke="#666666" stroke-width="1.5" stroke-linecap="round" stroke-linejoin="round"/>
</g>
<defs>
<clipPath id="clip0_32_3124">
<rect width="24" height="24" fill="white"/>
</clipPath>
</defs>
</svg>
