<svg width="24" height="24" viewBox="0 0 24 24" fill="none" xmlns="http://www.w3.org/2000/svg">
<g clip-path="url(#clip0_32_3127)">
<path d="M16.0641 10.496H16.7611C17.2539 10.4973 17.742 10.4009 18.1973 10.2123C18.6525 10.0237 19.0658 9.74666 19.4133 9.39722L23.25 5.53003L22.2084 4.48003L18.2906 8.39784L17.4764 7.58362L21.3942 3.66534L20.3161 2.61956L16.4128 6.52237L15.6009 5.70816L19.5187 1.78987L18.4687 0.748779L14.6015 4.5855C14.2521 4.93302 13.975 5.34641 13.7864 5.80175C13.5978 6.25708 13.5014 6.74531 13.5028 7.23816V7.93472L11.4811 9.95644L2.24998 0.748779C0.174359 3.32081 1.40014 8.04769 3.73686 10.3849L7.74467 14.3927C8.9892 15.6372 9.23624 15.7483 10.6481 15.1802C10.9523 15.0578 11.063 15.0714 11.3465 15.3546L11.9559 15.9232C12.0933 16.0638 12.0965 16.105 12.0965 16.3741V16.6338C12.0965 17.6219 12.7284 18.19 13.1447 18.6138L18 23.2488L21.375 19.8738L14.0423 12.5177L16.0641 10.496Z" fill="#666666"/>
<path d="M10.658 16.6216C9.26017 16.908 8.40283 17.1719 6.76361 15.5327C6.73736 15.5065 6.71017 15.4811 6.68392 15.4549L5.76986 14.5408L0.750015 19.5002L4.50002 23.2502L11.25 16.5002L10.658 16.6216Z" fill="#666666"/>
</g>
<defs>
<clipPath id="clip0_32_3127">
<rect width="24" height="24" fill="white"/>
</clipPath>
</defs>
</svg>
