<svg width="24" height="24" viewBox="0 0 24 24" fill="none" xmlns="http://www.w3.org/2000/svg">
<path d="M16.7611 10.496C17.2539 10.4973 17.742 10.4009 18.1973 10.2123C18.6525 10.0237 19.0658 9.74667 19.4133 9.39723L23.0227 5.7902C23.3081 5.50473 23.3344 5.0402 23.0625 4.74067C22.9943 4.66541 22.9114 4.60481 22.819 4.56254C22.7267 4.52026 22.6267 4.4972 22.5251 4.49474C22.4235 4.49229 22.3225 4.51049 22.2282 4.54826C22.1339 4.58602 22.0482 4.64255 21.9764 4.71442L18.7594 7.9291C18.6514 8.03699 18.5049 8.09759 18.3523 8.09759C18.1996 8.09759 18.0532 8.03699 17.9452 7.9291C17.7206 7.70504 17.7328 7.32629 17.9569 7.10223L21.1599 3.89926C21.2316 3.82746 21.2881 3.74183 21.3258 3.64755C21.3636 3.55328 21.3817 3.45233 21.3793 3.35082C21.3768 3.24932 21.3538 3.14936 21.3116 3.05702C21.2693 2.96468 21.2088 2.88188 21.1336 2.81363C20.9979 2.69052 20.8209 2.62278 20.6377 2.62379C20.43 2.62393 20.2309 2.70655 20.0841 2.85348L16.8839 6.05317C16.7759 6.16105 16.6295 6.22165 16.4768 6.22165C16.3241 6.22165 16.1777 6.16105 16.0697 6.05317C15.8456 5.8291 15.8574 5.45035 16.0814 5.22629L19.2844 2.02426C19.3562 1.95246 19.4126 1.86683 19.4504 1.77255C19.4881 1.67828 19.5063 1.57733 19.5038 1.47582C19.5014 1.37432 19.4783 1.27436 19.4361 1.18202C19.3939 1.08968 19.3333 1.00688 19.2581 0.938634C19.1224 0.815522 18.9454 0.747782 18.7622 0.74879C18.5545 0.749036 18.3554 0.831638 18.2086 0.978478L14.6016 4.58551C14.2521 4.93303 13.975 5.34642 13.7864 5.80176C13.5978 6.25709 13.5014 6.74532 13.5028 7.23817V7.62395C13.5029 7.72258 13.4835 7.82026 13.4458 7.91139C13.4081 8.00252 13.3527 8.08532 13.283 8.15504L11.6138 9.82473C11.5963 9.84216 11.5757 9.85599 11.5529 9.86543C11.5301 9.87486 11.5057 9.87972 11.4811 9.87972C11.4565 9.87972 11.4321 9.87486 11.4093 9.86543C11.3865 9.85599 11.3659 9.84216 11.3484 9.82473L3.22594 1.70176C3.08575 1.56141 2.89567 1.48232 2.6973 1.48179C2.49894 1.48126 2.30844 1.55935 2.1675 1.69895C1.45735 2.40254 1.07813 3.39582 1.07813 4.57098C1.07344 6.5116 2.09344 8.74285 3.74016 10.3872L7.74563 14.3927C8.31493 14.9608 9.08634 15.28 9.89063 15.28C10.147 15.2801 10.4024 15.2474 10.6505 15.1825C10.7128 15.1662 10.7769 15.1579 10.8413 15.1577C11.0295 15.1577 11.2109 15.2289 11.3489 15.3569L11.8828 15.85C12.0205 15.9907 12.0979 16.1796 12.0984 16.3765V16.6361C12.0971 17.2265 12.3291 17.7934 12.7439 18.2135L16.965 22.5058L16.9692 22.5105C17.4377 22.979 18.0731 23.2421 18.7356 23.2421C19.3982 23.242 20.0335 22.9788 20.502 22.5103C20.9704 22.0418 21.2335 21.4064 21.2335 20.7439C21.2335 20.0813 20.9702 19.446 20.5017 18.9775L14.1745 12.6504C14.1571 12.6329 14.1433 12.6123 14.1338 12.5895C14.1244 12.5667 14.1195 12.5423 14.1195 12.5177C14.1195 12.4931 14.1244 12.4687 14.1338 12.4459C14.1433 12.4231 14.1571 12.4025 14.1745 12.385L15.8438 10.7158C15.9134 10.6461 15.9961 10.5908 16.0872 10.5531C16.1782 10.5154 16.2758 10.496 16.3744 10.496H16.7611Z" fill="#666666"/>
<path d="M9.89066 16.7775C8.68988 16.775 7.5385 16.2992 6.68628 15.4533L6.0366 14.8036C5.9663 14.7335 5.87105 14.6941 5.77175 14.6941C5.67245 14.6941 5.57721 14.7335 5.50691 14.8036L1.52253 18.7674C0.812377 19.4775 0.558783 20.5228 0.910346 21.5466C0.930022 21.6043 0.953351 21.6606 0.980189 21.7153C1.45316 22.6838 2.37097 23.2463 3.37503 23.2463C3.72033 23.2471 4.06237 23.1794 4.38132 23.0472C4.70028 22.9149 4.98981 22.7206 5.23316 22.4756L10.5469 17.1366C10.5693 17.1138 10.5864 17.0863 10.5971 17.0562C10.6078 17.0261 10.6118 16.994 10.6088 16.9622V16.95C10.6067 16.9208 10.5987 16.8923 10.5853 16.8662C10.5719 16.8402 10.5534 16.8171 10.5308 16.7984C10.5083 16.7797 10.4822 16.7657 10.4541 16.7574C10.426 16.7491 10.3965 16.7465 10.3674 16.7499C10.2091 16.7674 10.0499 16.7766 9.89066 16.7775Z" fill="#666666"/>
</svg>
