<svg width="24" height="24" viewBox="0 0 24 24" fill="none" xmlns="http://www.w3.org/2000/svg">
<g clip-path="url(#clip0_32_3169)">
<path d="M12 13.4979C15.3137 13.4979 18 10.8116 18 7.49787C18 4.18416 15.3137 1.49786 12 1.49786C8.68633 1.49786 6.00004 4.18416 6.00004 7.49787C6.00004 10.8116 8.68633 13.4979 12 13.4979Z" stroke="#666666" stroke-width="1.5" stroke-linecap="round" stroke-linejoin="round"/>
<path d="M6.73363 10.6791L2.25003 18.75L6.3216 18.7303C6.45205 18.7297 6.58042 18.763 6.69403 18.8272C6.80764 18.8913 6.90255 18.9839 6.96941 19.096L9.00004 22.5L13.1405 13.3913" stroke="#666666" stroke-width="1.5" stroke-linecap="round" stroke-linejoin="round"/>
<path d="M17.1817 10.4988L21.7501 18.7488L17.6786 18.7291C17.5481 18.7284 17.4197 18.7618 17.3061 18.8259C17.1925 18.8901 17.0976 18.9827 17.0307 19.0947L15.0001 22.4988L12.0001 15.8988" stroke="#666666" stroke-width="1.5" stroke-linecap="round" stroke-linejoin="round"/>
<path d="M12 10.4997C13.6569 10.4997 15 9.15655 15 7.4997C15 5.84284 13.6569 4.49969 12 4.49969C10.3432 4.49969 9.00001 5.84284 9.00001 7.4997C9.00001 9.15655 10.3432 10.4997 12 10.4997Z" stroke="#666666" stroke-width="1.5" stroke-linecap="round" stroke-linejoin="round"/>
</g>
<defs>
<clipPath id="clip0_32_3169">
<rect width="24" height="24" fill="white" transform="translate(0 -0.00390625)"/>
</clipPath>
</defs>
</svg>
