<svg width="24" height="24" viewBox="0 0 24 24" fill="none" xmlns="http://www.w3.org/2000/svg">
<g clip-path="url(#clip0_32_3174)">
<path d="M12 15.7466C11.7553 15.7466 11.5125 15.7353 11.273 15.7142C10.037 15.6038 8.8419 15.2161 7.77642 14.5801C6.71094 13.9441 5.80254 13.0761 5.11876 12.0406L0.937511 19.4966H6.32814L9.04689 23.9966L12.9155 15.6955C12.6115 15.7293 12.3059 15.7464 12 15.7466ZM18.8906 12.0312C17.9004 13.5309 16.4498 14.6683 14.7572 15.2722L12.8297 19.4731L14.9531 23.9966L17.6719 19.4966H23.0625L18.8906 12.0312Z" fill="#666666"/>
<path d="M12.0009 9.74786C13.2436 9.74786 14.2509 8.7405 14.2509 7.49786C14.2509 6.25522 13.2436 5.24786 12.0009 5.24786C10.7583 5.24786 9.75095 6.25522 9.75095 7.49786C9.75095 8.7405 10.7583 9.74786 12.0009 9.74786Z" fill="#666666"/>
<path d="M12.0001 0.749695C8.27819 0.749695 5.25007 3.77782 5.25007 7.4997C5.25007 11.2216 8.27819 14.2497 12.0001 14.2497C15.7219 14.2497 18.7501 11.2216 18.7501 7.4997C18.7501 3.77782 15.7219 0.749695 12.0001 0.749695ZM12.0001 11.2497C11.2584 11.2497 10.5334 11.0298 9.91668 10.6177C9.3 10.2057 8.81935 9.61998 8.53552 8.93476C8.25169 8.24954 8.17743 7.49554 8.32212 6.76811C8.46682 6.04068 8.82397 5.37249 9.34842 4.84804C9.87287 4.3236 10.5411 3.96645 11.2685 3.82175C11.9959 3.67706 12.7499 3.75132 13.4351 4.03515C14.1204 4.31898 14.706 4.79962 15.1181 5.41631C15.5301 6.03299 15.7501 6.75802 15.7501 7.4997C15.749 8.49392 15.3535 9.44709 14.6505 10.1501C13.9475 10.8531 12.9943 11.2486 12.0001 11.2497Z" fill="#666666"/>
</g>
<defs>
<clipPath id="clip0_32_3174">
<rect width="24" height="24" fill="white" transform="translate(0 -0.00390625)"/>
</clipPath>
</defs>
</svg>
