<svg width="24" height="24" viewBox="0 0 24 24" fill="none" xmlns="http://www.w3.org/2000/svg">
<g clip-path="url(#clip0_32_3178)">
<path d="M12.6094 15.7287C12.4116 15.7434 12.2119 15.7507 12.0104 15.7507C11.7652 15.7507 11.5229 15.7395 11.2834 15.7184C10.0984 15.6133 8.95011 15.2534 7.91719 14.6633C6.88426 14.0732 5.99108 13.2668 5.29882 12.2993C5.28059 12.2733 5.25604 12.2523 5.2275 12.2384C5.19895 12.2245 5.16733 12.218 5.13561 12.2197C5.10389 12.2213 5.0731 12.231 5.04614 12.2478C5.01918 12.2646 4.99693 12.288 4.98148 12.3157L1.60648 18.3813C1.47804 18.6157 1.45788 18.897 1.59335 19.1257C1.66387 19.2391 1.76211 19.3327 1.87881 19.3977C1.99551 19.4626 2.12683 19.4968 2.26038 19.497H5.91663C6.044 19.4923 6.17031 19.5216 6.28254 19.582C6.39477 19.6424 6.48885 19.7317 6.55507 19.8406L8.36726 22.872C8.43357 22.9844 8.52767 23.078 8.64053 23.1437C8.75339 23.2093 8.88123 23.2449 9.01179 23.247C9.29023 23.2315 9.57851 23.0506 9.69429 22.797L12.7932 15.9931C12.8066 15.9635 12.8121 15.931 12.8091 15.8987C12.8061 15.8664 12.7949 15.8354 12.7763 15.8087C12.7578 15.7821 12.7327 15.7607 12.7035 15.7467C12.6742 15.7326 12.6418 15.7264 12.6094 15.7287ZM22.3895 18.3663L19.0365 12.3115C19.021 12.284 18.9988 12.2609 18.972 12.2443C18.9452 12.2276 18.9146 12.218 18.8831 12.2163C18.8516 12.2146 18.8202 12.2209 18.7918 12.2346C18.7634 12.2483 18.7389 12.2689 18.7205 12.2946C17.7985 13.5866 16.5242 14.586 15.0498 15.1737C14.8687 15.245 14.7223 15.3836 14.641 15.5604L12.9132 19.362C12.891 19.4105 12.8794 19.4633 12.8794 19.5167C12.8794 19.57 12.891 19.6228 12.9132 19.6713L14.3321 22.7927C14.4469 23.0463 14.7348 23.2315 15.0127 23.247C15.1434 23.2437 15.271 23.2071 15.3835 23.1404C15.4959 23.0738 15.5894 22.9794 15.6549 22.8663L17.461 19.8391C17.5965 19.6118 17.8421 19.4956 18.1069 19.497H21.7993C22.1119 19.497 22.3487 19.3338 22.4555 19.0282C22.4931 18.9197 22.5066 18.8043 22.4952 18.69C22.4838 18.5757 22.4477 18.4653 22.3895 18.3663Z" fill="#666666"/>
<path d="M12.0122 9.74786C13.2551 9.74786 14.2626 8.7405 14.2626 7.49786C14.2626 6.25522 13.2551 5.24786 12.0122 5.24786C10.7693 5.24786 9.76171 6.25522 9.76171 7.49786C9.76171 8.7405 10.7693 9.74786 12.0122 9.74786Z" fill="#666666"/>
<path d="M12.0121 0.749695C8.28929 0.749695 5.2621 3.77735 5.2621 7.4997C5.2621 11.222 8.29069 14.2497 12.0121 14.2497C15.7335 14.2497 18.7621 11.2216 18.7621 7.4997C18.7621 3.77782 15.7344 0.749695 12.0121 0.749695ZM12.0121 11.2497C11.2704 11.2497 10.5454 11.0298 9.92871 10.6177C9.31203 10.2057 8.83138 9.61998 8.54755 8.93476C8.26372 8.24954 8.18946 7.49554 8.33416 6.76811C8.47885 6.04068 8.836 5.37249 9.36045 4.84804C9.8849 4.3236 10.5531 3.96645 11.2805 3.82175C12.0079 3.67706 12.7619 3.75132 13.4472 4.03515C14.1324 4.31898 14.7181 4.79962 15.1301 5.41631C15.5422 6.03299 15.7621 6.75802 15.7621 7.4997C15.7609 8.49388 15.3654 9.44698 14.6624 10.15C13.9594 10.853 13.0063 11.2485 12.0121 11.2497Z" fill="#666666"/>
</g>
<defs>
<clipPath id="clip0_32_3178">
<rect width="24" height="24" fill="white" transform="translate(0.00012207 -0.00390625)"/>
</clipPath>
</defs>
</svg>
