<svg width="24" height="24" viewBox="0 0 24 24" fill="none" xmlns="http://www.w3.org/2000/svg">
<path d="M22.3894 1.7925C22.3809 1.75105 22.3607 1.71289 22.3312 1.6825C22.3017 1.65212 22.2642 1.63076 22.223 1.62094C19.4775 0.949691 13.1339 3.34172 9.69707 6.77719C9.08408 7.38523 8.52524 8.04554 8.02692 8.75063C6.96707 8.65688 5.90723 8.73516 5.00395 9.12891C2.45535 10.2506 1.71332 13.1775 1.5066 14.4366C1.49488 14.5055 1.4993 14.5762 1.51952 14.6431C1.53974 14.71 1.57522 14.7713 1.62315 14.8222C1.67108 14.8731 1.73016 14.9122 1.79575 14.9363C1.86134 14.9605 1.93164 14.9692 2.00113 14.9616L6.09379 14.5102C6.09671 14.8187 6.11533 15.1269 6.14957 15.4336C6.17017 15.6466 6.2647 15.8456 6.41676 15.9961L8.0016 17.5772C8.15226 17.7291 8.3512 17.8236 8.5641 17.8444C8.86906 17.8785 9.17554 17.8971 9.48238 17.9002L9.03332 21.9877C9.02583 22.0571 9.03453 22.1274 9.05875 22.1929C9.08297 22.2585 9.12204 22.3175 9.1729 22.3654C9.22376 22.4133 9.28503 22.4488 9.3519 22.4691C9.41877 22.4893 9.48942 22.4938 9.55832 22.4822C10.815 22.2806 13.7471 21.5386 14.8622 18.99C15.256 18.0867 15.3366 17.032 15.2457 15.9773C15.9525 15.479 16.6145 14.92 17.2243 14.3067C20.6719 10.8764 23.0504 4.67438 22.3894 1.7925ZM13.7846 10.2145C13.4698 9.89993 13.2553 9.49902 13.1684 9.06252C13.0814 8.62602 13.1259 8.17355 13.2962 7.76233C13.4664 7.35111 13.7548 6.99962 14.1249 6.75232C14.4949 6.50502 14.93 6.37302 15.375 6.37302C15.8201 6.37302 16.2552 6.50502 16.6252 6.75232C16.9953 6.99962 17.2837 7.35111 17.4539 7.76233C17.6242 8.17355 17.6686 8.62602 17.5817 9.06252C17.4948 9.49902 17.2803 9.89993 16.9655 10.2145C16.7568 10.4236 16.5088 10.5894 16.2359 10.7026C15.963 10.8158 15.6705 10.874 15.375 10.874C15.0796 10.874 14.7871 10.8158 14.5142 10.7026C14.2413 10.5894 13.9933 10.4236 13.7846 10.2145Z" fill="#666666"/>
<path d="M7.8937 18.7194C7.63682 18.9767 7.22479 19.077 6.72885 19.1628C5.61463 19.3527 4.63073 18.3898 4.83088 17.2634C4.90729 16.8364 5.13323 16.2378 5.27385 16.0972C5.30459 16.067 5.32505 16.028 5.33232 15.9856C5.3396 15.9431 5.33332 15.8995 5.31438 15.8608C5.29544 15.8222 5.2648 15.7904 5.22681 15.7702C5.18882 15.7499 5.14542 15.7422 5.10276 15.748C4.47968 15.8242 3.90001 16.1067 3.45604 16.5505C2.35401 17.6534 2.24995 21.7461 2.24995 21.7461C2.24995 21.7461 6.34495 21.642 7.44698 20.5391C7.89213 20.0955 8.17498 19.5149 8.24995 18.8909C8.26729 18.695 8.0287 18.5783 7.8937 18.7194Z" fill="#666666"/>
</svg>
