<svg width="24" height="24" viewBox="0 0 24 24" fill="none" xmlns="http://www.w3.org/2000/svg">
<path d="M21.6474 2.51911C21.6394 2.48064 21.6206 2.44525 21.5932 2.4171C21.5658 2.38895 21.5309 2.36921 21.4927 2.36021C18.9436 1.73677 13.0552 3.95817 9.8616 7.14943C9.29243 7.71392 8.77344 8.32686 8.3105 8.9813C7.32613 8.89224 6.34175 8.96724 5.50363 9.33286C3.13691 10.3735 2.44832 13.0913 2.25613 14.258C2.24572 14.3219 2.25016 14.3874 2.26913 14.4494C2.28809 14.5113 2.32106 14.568 2.36548 14.6152C2.4099 14.6623 2.46458 14.6986 2.52528 14.7212C2.58598 14.7438 2.65107 14.7521 2.7155 14.7455L6.51566 14.3283C6.51829 14.615 6.5355 14.9013 6.56722 15.1861C6.58706 15.383 6.67491 15.5669 6.81566 15.706L8.28707 17.1774C8.4263 17.3182 8.61031 17.4061 8.80738 17.4258C9.09054 17.4574 9.37513 17.4746 9.66004 17.4774L9.24332 21.2743C9.23681 21.3386 9.24519 21.4036 9.2678 21.4642C9.29042 21.5248 9.32666 21.5794 9.37374 21.6237C9.42081 21.6681 9.47746 21.701 9.53929 21.72C9.60113 21.739 9.6665 21.7435 9.73035 21.7332C10.8975 21.5457 13.621 20.8571 14.6555 18.4908C15.0211 17.6518 15.0961 16.6726 15.0118 15.6929C15.6681 15.2304 16.2828 14.7113 16.8488 14.1418C20.0541 10.9543 22.2614 5.19521 21.6474 2.51911ZM13.9997 10.0126C13.7198 9.73265 13.5291 9.376 13.4518 8.98772C13.3745 8.59945 13.4142 8.19698 13.5656 7.83121C13.7171 7.46545 13.9737 7.15282 14.3028 6.93286C14.632 6.71291 15.019 6.59551 15.4149 6.59551C15.8108 6.59551 16.1978 6.71291 16.5269 6.93286C16.8561 7.15282 17.1126 7.46545 17.2641 7.83121C17.4156 8.19698 17.4552 8.59945 17.378 8.98772C17.3007 9.376 17.11 9.73265 16.83 10.0126C16.6443 10.1986 16.4238 10.3463 16.1809 10.447C15.9381 10.5478 15.6778 10.5996 15.4149 10.5996C15.152 10.5996 14.8917 10.5478 14.6488 10.447C14.406 10.3463 14.1854 10.1986 13.9997 10.0126V10.0126Z" stroke="#666666" stroke-width="1.5" stroke-linecap="round" stroke-linejoin="round"/>
<path d="M5.13948 16.4979C4.67219 16.5553 4.23746 16.7671 3.90433 17.0998C3.07839 17.9285 3.00011 20.9979 3.00011 20.9979C3.00011 20.9979 6.07136 20.9196 6.89776 20.0928C7.23178 19.7602 7.44398 19.3247 7.50011 18.8567" stroke="#666666" stroke-width="1.5" stroke-linecap="round" stroke-linejoin="round"/>
</svg>
