<svg width="24" height="24" viewBox="0 0 24 24" fill="none" xmlns="http://www.w3.org/2000/svg">
<path d="M15.4148 7.34918C15.1254 7.34934 14.8449 7.44985 14.6213 7.63359C14.3977 7.81733 14.2446 8.07292 14.1883 8.35683C14.132 8.64073 14.1759 8.93538 14.3124 9.19058C14.449 9.44577 14.6698 9.64572 14.9373 9.75636C15.2047 9.867 15.5023 9.88148 15.7792 9.79734C16.0561 9.71319 16.2953 9.53563 16.456 9.2949C16.6167 9.05418 16.689 8.76518 16.6605 8.47714C16.632 8.18911 16.5046 7.91986 16.2998 7.71528C16.1837 7.59894 16.0457 7.5067 15.8939 7.44387C15.742 7.38104 15.5792 7.34886 15.4148 7.34918Z" fill="#666666"/>
<path d="M22.38 2.34524C22.3798 2.34384 22.3798 2.34241 22.38 2.34102C22.3404 2.16726 22.253 2.00804 22.1277 1.88131C22.0024 1.75459 21.8441 1.66541 21.6708 1.62383C20.274 1.28305 18.0765 1.64633 15.6413 2.62133C13.1869 3.60571 10.8872 5.05883 9.33285 6.61602C8.83464 7.11159 8.37179 7.64148 7.9477 8.2018C6.90098 8.15492 5.97895 8.30399 5.20223 8.64289C2.49567 9.83399 1.7227 12.8823 1.51692 14.1338C1.48714 14.3117 1.4988 14.494 1.55099 14.6666C1.60317 14.8391 1.69448 14.9974 1.81781 15.1289C1.94113 15.2604 2.09315 15.3617 2.26202 15.4249C2.43089 15.4881 2.61207 15.5115 2.79145 15.4932H2.79754L5.81254 15.1641C5.81629 15.2026 5.82051 15.2377 5.82379 15.2701C5.86251 15.6375 6.02636 15.9804 6.28785 16.2413L7.75926 17.7137C8.01982 17.9755 8.36266 18.1396 8.73004 18.1782L8.83082 18.189L8.5027 21.2002V21.2063C8.48593 21.3685 8.50319 21.5324 8.55337 21.6875C8.60354 21.8427 8.68554 21.9856 8.79412 22.1072C8.90269 22.2289 9.03545 22.3265 9.18391 22.3939C9.33237 22.4613 9.49326 22.497 9.65629 22.4987C9.72146 22.4987 9.78653 22.4934 9.85082 22.4827C11.1094 22.2802 14.1563 21.5166 15.3441 18.7956C15.6802 18.024 15.8288 17.1057 15.7871 16.0609C16.3499 15.6377 16.8817 15.1748 17.3785 14.6757C18.9455 13.1166 20.4033 10.8357 21.3774 8.41696C22.3472 6.00946 22.7124 3.79555 22.38 2.34524ZM17.3616 10.5427C16.9764 10.9283 16.4856 11.191 15.9511 11.2975C15.4167 11.404 14.8626 11.3496 14.3591 11.1412C13.8555 10.9328 13.4251 10.5797 13.1223 10.1266C12.8194 9.6735 12.6578 9.14076 12.6578 8.59578C12.6578 8.05081 12.8194 7.51807 13.1223 7.06498C13.4251 6.61188 13.8555 6.25879 14.3591 6.05036C14.8626 5.84194 15.4167 5.78755 15.9511 5.89408C16.4856 6.00061 16.9764 6.26327 17.3616 6.64883C17.6198 6.90311 17.8248 7.20619 17.9647 7.54044C18.1046 7.87469 18.1767 8.23343 18.1767 8.59578C18.1767 8.95814 18.1046 9.31688 17.9647 9.65113C17.8248 9.98538 17.6198 10.2885 17.3616 10.5427Z" fill="#666666"/>
<path d="M7.59044 18.1114C7.40906 18.0889 7.2257 18.1334 7.07482 18.2365C6.77528 18.4414 6.47435 18.6439 6.1706 18.8412C5.55607 19.2406 4.82107 18.5393 5.18622 17.9037L5.75575 16.9193C5.83718 16.8002 5.88252 16.6602 5.88633 16.5159C5.89015 16.3717 5.85229 16.2294 5.77728 16.1062C5.70227 15.9829 5.5933 15.8839 5.46344 15.8211C5.33357 15.7582 5.18833 15.7341 5.04513 15.7517C4.41302 15.8316 3.82546 16.1196 3.37497 16.5701C3.20341 16.7422 2.68169 17.2643 2.40091 19.2542C2.32099 19.8257 2.27061 20.401 2.24997 20.9778C2.24741 21.0779 2.26491 21.1775 2.30145 21.2707C2.33799 21.3639 2.39283 21.4489 2.46273 21.5206C2.53263 21.5923 2.61618 21.6492 2.70845 21.6881C2.80072 21.727 2.89984 21.747 2.99997 21.747H3.01872C3.59591 21.7266 4.17167 21.6765 4.74372 21.597C6.7345 21.3158 7.25669 20.7936 7.42825 20.622C7.88092 20.1713 8.16815 19.581 8.24341 18.9467C8.26751 18.7493 8.21227 18.5505 8.08983 18.3939C7.96739 18.2372 7.78777 18.1356 7.59044 18.1114Z" fill="#666666"/>
</svg>
