<svg width="24" height="24" viewBox="0 0 24 24" fill="none" xmlns="http://www.w3.org/2000/svg">
<g clip-path="url(#clip0_32_3192)">
<path d="M19.5 6.00153C18.6141 6.20074 17.775 6.42059 16.9829 6.65543C15.0844 7.21793 13.4438 7.92809 12.0422 8.60778C11.1375 9.047 10.8141 9.24106 9.62816 9.93106C6.89066 11.5103 5.25004 13.5592 5.25004 16.6253C5.25004 20.0898 7.85629 22.5015 12 22.5015C16.1438 22.5015 18.75 19.8854 18.75 16.4209C18.75 12.9564 15.8907 10.5597 19.5 6.00153Z" stroke="#666666" stroke-width="1.5" stroke-linecap="round" stroke-linejoin="round"/>
<path d="M12.375 8.44702C11.452 7.18139 10.5844 6.63342 9.9047 6.26311C7.62189 5.02092 4.50002 4.50061 4.50002 4.50061C6.44533 6.54905 6.24377 8.72405 6.00002 10.5006C6.00002 10.5006 5.81861 12.0419 6.08955 13.2386" stroke="#666666" stroke-width="1.5" stroke-linecap="round" stroke-linejoin="round"/>
<path d="M11.8819 4.10362C10.3711 2.14612 8.24998 1.49878 8.24998 1.49878C7.53279 2.47378 6.90045 3.91659 6.61545 4.9755M17.4375 6.52144C16.7133 4.80815 15.75 2.99878 15.75 2.99878C15.75 2.99878 12.7819 2.99878 9.38951 5.99878L17.4375 6.52144Z" stroke="#666666" stroke-width="1.5" stroke-linecap="round" stroke-linejoin="round"/>
</g>
<defs>
<clipPath id="clip0_32_3192">
<rect width="24" height="24" fill="white" transform="translate(0.00012207 -0.00390625)"/>
</clipPath>
</defs>
</svg>
