<svg width="24" height="24" viewBox="0 0 24 24" fill="none" xmlns="http://www.w3.org/2000/svg">
<g clip-path="url(#clip0_32_3198)">
<path d="M20.1352 5.59707C20.0527 5.46571 19.9314 5.36316 19.7882 5.30355C19.645 5.24395 19.4868 5.23022 19.3355 5.26426C18.4617 5.46067 17.5983 5.68614 16.77 5.93082C15.1266 6.41785 13.5202 7.05207 11.7145 7.92723C10.8417 8.35145 10.4958 8.55301 9.46454 9.15207L9.2536 9.27723C7.70907 10.1679 6.57751 11.1522 5.7947 12.2908C4.93548 13.5377 4.50001 14.996 4.50001 16.6197C4.50001 18.5294 5.23642 20.2338 6.57376 21.4183C7.92189 22.6141 9.7997 23.246 12 23.246C14.1919 23.246 16.073 22.5743 17.4375 21.304C18.7664 20.0688 19.5 18.3325 19.5 16.4154C19.5 15.2435 19.2099 14.2122 18.9295 13.2175C18.3394 11.1227 17.8299 9.31332 20.0878 6.46145C20.1841 6.33993 20.2403 6.19157 20.2488 6.03678C20.2573 5.88199 20.2176 5.72838 20.1352 5.59707ZM10.2656 5.59989C7.89657 4.31223 4.75595 3.77832 4.62329 3.75629C4.45069 3.72798 4.27363 3.76088 4.12272 3.8493C3.97182 3.93772 3.85656 4.0761 3.79688 4.24051C3.75057 4.37564 3.74265 4.52097 3.77402 4.66034C3.80538 4.7997 3.8748 4.92763 3.97454 5.02989C5.46704 6.61332 5.51485 8.25442 5.31751 9.93442C5.31237 9.97769 5.32091 10.0215 5.34192 10.0596C5.36294 10.0978 5.39538 10.1284 5.4347 10.1472C5.47384 10.1659 5.51782 10.1718 5.56052 10.1643C5.60321 10.1567 5.64247 10.136 5.67282 10.105C6.4411 9.33114 7.37767 8.62754 8.50407 7.97739L8.71407 7.85551C9.75001 7.25223 10.1358 7.02723 11.0625 6.5777L11.1886 6.51676C11.2178 6.50276 11.2429 6.48145 11.2614 6.45488C11.2799 6.42832 11.2912 6.39741 11.2942 6.36517C11.2973 6.33294 11.2919 6.30047 11.2786 6.27093C11.2654 6.24139 11.2447 6.21578 11.2186 6.1966C10.9147 5.97657 10.5963 5.77721 10.2656 5.59989ZM10.9809 4.2827C11.1422 4.37035 11.3133 4.4702 11.4919 4.57754C11.9872 4.88117 12.4514 5.2327 12.878 5.62707C12.9044 5.65172 12.9374 5.6682 12.973 5.67452C13.0086 5.68084 13.0453 5.67673 13.0786 5.6627C14.1445 5.2124 15.2345 4.82118 16.3434 4.49082C16.5622 4.42613 16.7822 4.36363 17.0034 4.30332C17.0301 4.29601 17.0547 4.28291 17.0757 4.26496C17.0966 4.24702 17.1134 4.22466 17.1247 4.1995C17.136 4.17434 17.1417 4.14698 17.1412 4.11939C17.1408 4.0918 17.1342 4.06465 17.122 4.03988C16.7344 3.25098 16.4344 2.6852 16.4119 2.64348C16.348 2.52344 16.2526 2.42304 16.136 2.35302C16.0194 2.283 15.886 2.246 15.75 2.24598C15.6605 2.24598 14.19 2.26285 12.1467 3.24442C11.7224 3.4487 11.3095 3.67575 10.9097 3.92457C10.8816 3.94188 10.8585 3.96632 10.8428 3.9954C10.8272 4.02449 10.8195 4.0572 10.8205 4.09022C10.8216 4.12324 10.8313 4.15539 10.8488 4.18343C10.8663 4.21147 10.8908 4.23439 10.92 4.24988L10.9809 4.2827ZM9.81235 2.84551C10.1545 2.62192 10.5033 2.41332 10.8553 2.2216C10.8691 2.21409 10.8808 2.20322 10.8894 2.18999C10.8979 2.17677 10.9029 2.16162 10.904 2.14593C10.9052 2.13024 10.9023 2.11453 10.8958 2.10023C10.8892 2.08593 10.8792 2.07351 10.8666 2.0641C9.64782 1.14676 8.53548 0.798478 8.46892 0.77879C8.32036 0.733426 8.16137 0.735308 8.01393 0.784177C7.86648 0.833045 7.73785 0.926489 7.64579 1.0516C7.30122 1.53046 6.99884 2.0383 6.74204 2.56942C6.73597 2.58188 6.73274 2.59553 6.73258 2.60939C6.73243 2.62325 6.73534 2.63698 6.74113 2.64957C6.74691 2.66217 6.75542 2.67333 6.76603 2.68225C6.77664 2.69116 6.7891 2.69761 6.80251 2.70113C7.44048 2.86848 8.18063 3.08973 8.94048 3.37098C8.95422 3.37609 8.96897 3.3779 8.98355 3.37627C8.99812 3.37464 9.01211 3.36962 9.02439 3.3616L9.81235 2.84551Z" fill="#666666"/>
</g>
<defs>
<clipPath id="clip0_32_3198">
<rect width="24" height="24" fill="white" transform="translate(0 -0.00390625)"/>
</clipPath>
</defs>
</svg>
