<svg width="24" height="24" viewBox="0 0 24 24" fill="none" xmlns="http://www.w3.org/2000/svg">
<g clip-path="url(#clip0_32_3196)">
<path d="M21.0001 5.24609C21.0001 5.24609 20.1741 5.24609 19.5699 5.31125C18.6793 5.405 17.5983 5.68625 16.7701 5.93094C15.1266 6.41797 13.5202 7.05219 11.7146 7.92735C10.8418 8.35156 10.4958 8.55313 9.46458 9.15219L9.25364 9.27735C7.70911 10.168 6.57755 11.1523 5.79473 12.2914C4.93552 13.5378 4.50005 14.9961 4.50005 16.6198C4.50005 18.5295 5.23645 20.2339 6.5738 21.4184C7.92192 22.6142 9.79974 23.2461 12 23.2461C14.1919 23.2461 16.073 22.5749 17.4376 21.3041C18.7665 20.0689 19.5001 18.3327 19.5001 16.4155C19.5001 15.2436 19.2099 14.2123 18.9296 13.2177C18.3394 11.1228 17.8299 9.31344 20.0879 6.46156C20.2852 6.21266 21.0001 5.24609 21.0001 5.24609ZM10.2657 5.6C7.89708 4.31234 4.9088 3.74609 3.75005 3.74609C3.75005 3.74609 4.83895 5.0675 5.11645 6.34297C5.39395 7.61844 5.42301 8.62156 5.25286 10.4961C6.0938 9.5361 7.15552 8.75469 8.50223 7.9775L8.71223 7.85563C9.75005 7.25235 10.1358 7.02735 11.0625 6.57781C11.1975 6.51219 11.3316 6.44844 11.4647 6.38516C11.0893 6.08811 10.688 5.82534 10.2657 5.6ZM16.1836 2.24609C16.1836 2.24609 14.19 2.26297 12.1468 3.24453C11.6242 3.49631 11.1189 3.7824 10.6341 4.10094C10.7507 4.16 10.8663 4.22063 10.981 4.28281C11.1422 4.37047 11.3133 4.47031 11.4919 4.57766C12.0217 4.90259 12.516 5.28216 12.9666 5.71016C14.1183 5.22219 16.3885 4.48672 17.2215 4.24391C16.8465 3.34625 16.1836 2.24609 16.1836 2.24609ZM8.25005 0.746094C7.50005 1.25375 6.69192 2.67266 6.69192 2.67266C7.46814 2.87112 8.23355 3.10973 8.98505 3.3875L9.81239 2.84563C10.1958 2.59484 10.5882 2.36328 10.9843 2.15328C10.9833 2.15234 9.49645 1.12906 8.25005 0.746094Z" fill="#666666"/>
</g>
<defs>
<clipPath id="clip0_32_3196">
<rect width="24" height="24" fill="white" transform="translate(0 -0.00390625)"/>
</clipPath>
</defs>
</svg>
