<svg width="24" height="24" viewBox="0 0 24 24" fill="none" xmlns="http://www.w3.org/2000/svg">
<path d="M8.62503 11.997C9.24635 11.997 9.75003 11.4933 9.75003 10.872C9.75003 10.2507 9.24635 9.74701 8.62503 9.74701C8.00371 9.74701 7.50003 10.2507 7.50003 10.872C7.50003 11.4933 8.00371 11.997 8.62503 11.997Z" fill="#666666"/>
<path d="M12 13.497C14.1291 13.497 15.9197 14.8812 16.4864 16.7703C16.5024 16.8267 16.5048 16.8861 16.4937 16.9436C16.4825 17.0011 16.458 17.0552 16.4221 17.1016C16.3862 17.1479 16.34 17.1852 16.2871 17.2105C16.2342 17.2358 16.1761 17.2483 16.1175 17.247H7.88207C7.82367 17.2479 7.76587 17.2351 7.71328 17.2097C7.66069 17.1843 7.61476 17.1469 7.57916 17.1006C7.54356 17.0543 7.51926 17.0004 7.50821 16.943C7.49716 16.8856 7.49966 16.8265 7.51551 16.7703C8.07754 14.8812 9.86864 13.497 12 13.497Z" fill="#666666"/>
<path d="M15.375 11.997C15.9963 11.997 16.5 11.4933 16.5 10.872C16.5 10.2507 15.9963 9.74701 15.375 9.74701C14.7537 9.74701 14.25 10.2507 14.25 10.872C14.25 11.4933 14.7537 11.997 15.375 11.997Z" fill="#666666"/>
<path d="M12.0001 21.747C17.3849 21.747 21.7501 17.3818 21.7501 11.997C21.7501 6.61223 17.3849 2.24701 12.0001 2.24701C6.61534 2.24701 2.25011 6.61223 2.25011 11.997C2.25011 17.3818 6.61534 21.747 12.0001 21.747Z" stroke="#666666" stroke-width="1.5" stroke-miterlimit="10"/>
</svg>
