<svg width="24" height="24" viewBox="0 0 24 24" fill="none" xmlns="http://www.w3.org/2000/svg">
<path d="M19.4246 4.57479C18.4513 3.59189 17.2935 2.81099 16.0175 2.27693C14.7415 1.74288 13.3726 1.4662 11.9894 1.4628C10.6061 1.4594 9.23588 1.72933 7.95729 2.2571C6.6787 2.78486 5.517 3.56006 4.53891 4.53815C3.56081 5.51624 2.78562 6.67795 2.25785 7.95654C1.73009 9.23512 1.46015 10.6054 1.46356 11.9886C1.46696 13.3718 1.74364 14.7408 2.27769 16.0167C2.81174 17.2927 3.59265 18.4506 4.57554 19.4239C5.54881 20.4067 6.70669 21.1877 7.98266 21.7217C9.25863 22.2558 10.6276 22.5324 12.0108 22.5358C13.394 22.5392 14.7643 22.2693 16.0429 21.7415C17.3214 21.2138 18.4832 20.4386 19.4612 19.4605C20.4393 18.4824 21.2145 17.3207 21.7423 16.0421C22.2701 14.7635 22.54 13.3932 22.5366 12.01C22.5332 10.6268 22.2565 9.25788 21.7225 7.9819C21.1884 6.70593 20.4075 5.54805 19.4246 4.57479ZM15.3751 9.74932C15.5976 9.74932 15.8151 9.8153 16.0001 9.93892C16.1851 10.0625 16.3293 10.2382 16.4144 10.4438C16.4996 10.6494 16.5219 10.8756 16.4785 11.0938C16.4351 11.312 16.3279 11.5125 16.1706 11.6698C16.0132 11.8271 15.8128 11.9343 15.5946 11.9777C15.3763 12.0211 15.1501 11.9988 14.9446 11.9137C14.739 11.8285 14.5633 11.6843 14.4397 11.4993C14.3161 11.3143 14.2501 11.0968 14.2501 10.8743C14.2497 10.7265 14.2786 10.58 14.335 10.4434C14.3914 10.3067 14.4742 10.1825 14.5788 10.078C14.6833 9.97346 14.8075 9.8906 14.9441 9.8342C15.0808 9.77779 15.2272 9.74895 15.3751 9.74932ZM8.62508 9.74932C8.84758 9.74932 9.06509 9.8153 9.25009 9.93892C9.4351 10.0625 9.57929 10.2382 9.66444 10.4438C9.74959 10.6494 9.77187 10.8756 9.72846 11.0938C9.68505 11.312 9.5779 11.5125 9.42057 11.6698C9.26324 11.8271 9.06278 11.9343 8.84455 11.9777C8.62632 12.0211 8.40012 11.9988 8.19456 11.9137C7.98899 11.8285 7.81329 11.6843 7.68967 11.4993C7.56605 11.3143 7.50008 11.0968 7.50008 10.8743C7.4997 10.7265 7.52855 10.58 7.58496 10.4434C7.64136 10.3067 7.72421 10.1825 7.82875 10.078C7.93329 9.97346 8.05746 9.8906 8.19412 9.8342C8.33078 9.77779 8.47723 9.74895 8.62508 9.74932ZM12.0001 13.4993C14.1291 13.4993 15.9259 14.8817 16.487 16.7726C16.5338 16.9376 16.5962 17.2493 16.5962 17.2493H7.40632C7.40632 17.2493 7.46773 16.9357 7.51554 16.7726C8.06773 14.8807 9.86867 13.4993 12.0001 13.4993Z" fill="#666666"/>
</svg>
