<svg width="24" height="24" viewBox="0 0 24 24" fill="none" xmlns="http://www.w3.org/2000/svg">
<path d="M19.4245 4.57479C18.4513 3.59189 17.2934 2.81099 16.0174 2.27693C14.7414 1.74288 13.3725 1.4662 11.9893 1.4628C10.6061 1.4594 9.2358 1.72933 7.95721 2.2571C6.67863 2.78486 5.51692 3.56006 4.53883 4.53815C3.56074 5.51624 2.78554 6.67795 2.25778 7.95654C1.73001 9.23512 1.46007 10.6054 1.46348 11.9886C1.46688 13.3718 1.74356 14.7408 2.27761 16.0167C2.81167 17.2927 3.59257 18.4506 4.57546 19.4239C5.54873 20.4067 6.70661 21.1877 7.98258 21.7217C9.25856 22.2558 10.6275 22.5324 12.0107 22.5358C13.3939 22.5392 14.7642 22.2693 16.0428 21.7415C17.3214 21.2138 18.4831 20.4386 19.4612 19.4605C20.4393 18.4824 21.2145 17.3207 21.7422 16.0421C22.27 14.7635 22.5399 13.3932 22.5365 12.01C22.5331 10.6268 22.2564 9.25788 21.7224 7.9819C21.1883 6.70593 20.4074 5.54805 19.4245 4.57479ZM8.625 9.74932C8.8475 9.74932 9.06501 9.8153 9.25001 9.93892C9.43502 10.0625 9.57921 10.2382 9.66436 10.4438C9.74951 10.6494 9.77179 10.8756 9.72838 11.0938C9.68497 11.312 9.57783 11.5125 9.42049 11.6698C9.26316 11.8271 9.0627 11.9343 8.84447 11.9777C8.62625 12.0211 8.40005 11.9988 8.19448 11.9137C7.98891 11.8285 7.81321 11.6843 7.68959 11.4993C7.56598 11.3143 7.5 11.0968 7.5 10.8743C7.49963 10.7265 7.52847 10.58 7.58488 10.4434C7.64128 10.3067 7.72413 10.1825 7.82867 10.078C7.93321 9.97346 8.05738 9.8906 8.19404 9.8342C8.3307 9.77779 8.47716 9.74895 8.625 9.74932ZM7.51547 16.7726C8.07797 14.8835 9.86859 13.4993 11.9977 13.4993C14.1267 13.4993 15.9173 14.8835 16.4841 16.7726C16.4999 16.8288 16.5024 16.888 16.4914 16.9453C16.4803 17.0027 16.456 17.0566 16.4204 17.1029C16.3848 17.1493 16.3389 17.1866 16.2863 17.212C16.2337 17.2374 16.1759 17.2502 16.1175 17.2493H7.88203C7.82363 17.2502 7.76583 17.2374 7.71324 17.212C7.66065 17.1866 7.61472 17.1493 7.57912 17.1029C7.54351 17.0566 7.51922 17.0027 7.50817 16.9453C7.49712 16.888 7.49962 16.8288 7.51547 16.7726ZM15.375 11.9993C15.1525 11.9993 14.935 11.9333 14.75 11.8097C14.565 11.6861 14.4208 11.5104 14.3356 11.3048C14.2505 11.0993 14.2282 10.8731 14.2716 10.6548C14.315 10.4366 14.4222 10.2362 14.5795 10.0788C14.7368 9.92149 14.9373 9.81434 15.1555 9.77094C15.3738 9.72753 15.6 9.74981 15.8055 9.83495C16.0111 9.9201 16.1868 10.0643 16.3104 10.2493C16.434 10.4343 16.5 10.6518 16.5 10.8743C16.5004 11.0222 16.4715 11.1686 16.4151 11.3053C16.3587 11.4419 16.2759 11.5661 16.1713 11.6706C16.0668 11.7752 15.9426 11.858 15.806 11.9144C15.6693 11.9708 15.5228 11.9997 15.375 11.9993Z" fill="#666666"/>
</svg>
