<svg width="24" height="24" viewBox="0 0 24 24" fill="none" xmlns="http://www.w3.org/2000/svg">
<path d="M17.8561 2.68623C17.7168 2.54695 17.5514 2.43647 17.3694 2.36111C17.1874 2.28575 16.9923 2.24698 16.7953 2.24701H4.41658C4.13204 2.24695 3.85028 2.30295 3.5874 2.4118C3.32451 2.52066 3.08565 2.68025 2.88445 2.88144C2.68325 3.08264 2.52367 3.3215 2.41481 3.58439C2.30595 3.84728 2.24995 4.12904 2.25002 4.41357V19.5804C2.24995 19.865 2.30595 20.1467 2.41481 20.4096C2.52367 20.6725 2.68325 20.9114 2.88445 21.1126C3.08565 21.3138 3.32451 21.4734 3.5874 21.5822C3.85028 21.6911 4.13204 21.7471 4.41658 21.747H19.5835C20.1575 21.7453 20.7076 21.5165 21.1135 21.1105C21.5195 20.7046 21.7483 20.1545 21.75 19.5804V7.2017C21.75 7.0047 21.7113 6.80963 21.6359 6.62762C21.5606 6.44561 21.4501 6.28023 21.3108 6.14092L17.8561 2.68623ZM12 19.497C11.4067 19.497 10.8267 19.3211 10.3333 18.9914C9.83996 18.6618 9.45544 18.1932 9.22838 17.6451C9.00131 17.0969 8.9419 16.4937 9.05766 15.9117C9.17342 15.3298 9.45914 14.7952 9.8787 14.3757C10.2983 13.9561 10.8328 13.6704 11.4147 13.5547C11.9967 13.4389 12.5999 13.4983 13.1481 13.7254C13.6962 13.9524 14.1648 14.337 14.4944 14.8303C14.8241 15.3236 15 15.9037 15 16.497C15.0005 16.8911 14.9233 17.2814 14.7727 17.6456C14.6221 18.0098 14.4011 18.3408 14.1224 18.6194C13.8438 18.8981 13.5128 19.1191 13.1486 19.2697C12.7845 19.4202 12.3941 19.4975 12 19.497V19.497ZM14.25 8.99701H5.25002C5.0511 8.99701 4.86034 8.91799 4.71969 8.77734C4.57903 8.63669 4.50002 8.44592 4.50002 8.24701V5.24701C4.50002 5.0481 4.57903 4.85733 4.71969 4.71668C4.86034 4.57603 5.0511 4.49701 5.25002 4.49701H14.25C14.4489 4.49701 14.6397 4.57603 14.7803 4.71668C14.921 4.85733 15 5.0481 15 5.24701V8.24701C15 8.44592 14.921 8.63669 14.7803 8.77734C14.6397 8.91799 14.4489 8.99701 14.25 8.99701Z" stroke="#666666" stroke-width="1.5" stroke-linecap="round" stroke-linejoin="round"/>
</svg>
