<svg width="24" height="24" viewBox="0 0 24 24" fill="none" xmlns="http://www.w3.org/2000/svg">
<path d="M17.833 1.49878H2.99991C2.60208 1.49878 2.22055 1.65681 1.93925 1.93812C1.65794 2.21942 1.49991 2.60095 1.49991 2.99878V20.9988C1.49991 21.3966 1.65794 21.7781 1.93925 22.0594C2.22055 22.3407 2.60208 22.4988 2.99991 22.4988H20.9999C21.3974 22.4977 21.7783 22.3393 22.0593 22.0582C22.3404 21.7771 22.4988 21.3963 22.4999 20.9988V6.16565L17.833 1.49878ZM5.24991 8.24878V5.24878H14.2499V8.24878H5.24991ZM15.7457 16.675C15.7116 17.4009 15.4672 18.1013 15.0425 18.6909C14.6177 19.2805 14.0307 19.734 13.353 19.9962C12.6753 20.2585 11.9359 20.3181 11.2249 20.1679C10.5139 20.0178 9.86184 19.6643 9.34802 19.1504C8.8342 18.6365 8.48076 17.9844 8.33068 17.2734C8.18059 16.5623 8.24034 15.823 8.50264 15.1453C8.76495 14.4676 9.21852 13.8807 9.80819 13.456C10.3979 13.0313 11.0982 12.787 11.8241 12.753C12.3453 12.7301 12.8655 12.8158 13.3517 13.0048C13.8379 13.1938 14.2794 13.4819 14.6483 13.8508C15.0171 14.2196 15.3052 14.6612 15.4941 15.1474C15.683 15.6337 15.7687 16.1539 15.7457 16.675Z" fill="#666666"/>
</svg>
