<svg width="24" height="24" viewBox="0 0 24 24" fill="none" xmlns="http://www.w3.org/2000/svg">
<path d="M21.8409 5.61352L18.3862 2.15883C18.1777 1.94922 17.9298 1.78305 17.6567 1.66992C17.3836 1.55679 17.0908 1.49896 16.7952 1.49976H4.49992C3.70427 1.49976 2.94121 1.81583 2.3786 2.37844C1.81599 2.94105 1.49992 3.70412 1.49992 4.49976V19.4998C1.49992 20.2954 1.81599 21.0585 2.3786 21.6211C2.94121 22.1837 3.70427 22.4998 4.49992 22.4998H19.4999C20.2956 22.4998 21.0586 22.1837 21.6212 21.6211C22.1838 21.0585 22.4999 20.2954 22.4999 19.4998V7.20445C22.5007 6.90886 22.4429 6.61605 22.3298 6.34296C22.2166 6.06987 22.0505 5.82194 21.8409 5.61352ZM5.62492 5.24976H13.8749C13.9744 5.24976 14.0698 5.28927 14.1401 5.3596C14.2104 5.42993 14.2499 5.52531 14.2499 5.62476V7.87477C14.2499 7.97422 14.2104 8.06961 14.1401 8.13993C14.0698 8.21026 13.9744 8.24977 13.8749 8.24977H5.62492C5.52546 8.24977 5.43008 8.21026 5.35975 8.13993C5.28943 8.06961 5.24992 7.97422 5.24992 7.87477V5.62476C5.24992 5.52531 5.28943 5.42993 5.35975 5.3596C5.43008 5.28927 5.52546 5.24976 5.62492 5.24976ZM12.1757 20.2456C11.4199 20.281 10.671 20.087 10.0274 19.6891C9.38387 19.2911 8.87577 18.7077 8.56989 18.0156C8.26401 17.3235 8.17465 16.5551 8.31355 15.8113C8.45246 15.0675 8.81313 14.3831 9.34818 13.848C9.88322 13.313 10.5676 12.9523 11.3114 12.8134C12.0552 12.6745 12.8237 12.7639 13.5158 13.0697C14.2078 13.3756 14.7912 13.8837 15.1892 14.5273C15.5872 15.1708 15.7812 15.9197 15.7457 16.6755C15.7013 17.608 15.3109 18.4905 14.6508 19.1506C13.9907 19.8107 13.1082 20.2011 12.1757 20.2456Z" fill="#666666"/>
<path d="M12.0001 18.7506C13.2427 18.7506 14.2501 17.7433 14.2501 16.5006C14.2501 15.258 13.2427 14.2506 12.0001 14.2506C10.7574 14.2506 9.75008 15.258 9.75008 16.5006C9.75008 17.7433 10.7574 18.7506 12.0001 18.7506Z" fill="#666666"/>
</svg>
