<svg width="24" height="24" viewBox="0 0 24 24" fill="none" xmlns="http://www.w3.org/2000/svg">
<path d="M17.25 1.49976H6.74996C5.35803 1.50124 4.02354 2.05485 3.0393 3.03909C2.05505 4.02333 1.50145 5.35783 1.49996 6.74976V17.2498C1.50145 18.6417 2.05505 19.9762 3.0393 20.9604C4.02354 21.9447 5.35803 22.4983 6.74996 22.4998H17.25C18.6419 22.4983 19.9764 21.9447 20.9606 20.9604C21.9449 19.9762 22.4985 18.6417 22.5 17.2498V6.74976C22.4985 5.35783 21.9449 4.02333 20.9606 3.03909C19.9764 2.05485 18.6419 1.50124 17.25 1.49976ZM18.9473 9.84351L17.3854 11.6815C17.2019 11.8992 16.973 12.0742 16.7148 12.1943C16.4566 12.3145 16.1754 12.3769 15.8906 12.3771C15.5213 12.3766 15.1594 12.273 14.8457 12.078C14.1792 11.6665 13.1442 11.1757 12.0009 11.1757C10.8576 11.1757 9.82262 11.6665 9.15606 12.078C8.75576 12.3288 8.27844 12.4268 7.81173 12.3539C7.34503 12.2811 6.92026 12.0423 6.61543 11.6815L5.05262 9.84351C4.65174 9.37522 4.44942 8.76898 4.48873 8.1538C4.52804 7.53861 4.80586 6.96305 5.26309 6.5496C6.56809 5.36132 8.79606 3.94476 12 3.94476C15.2039 3.94476 17.4318 5.36132 18.7368 6.5496C19.1941 6.96305 19.4719 7.53861 19.5112 8.1538C19.5505 8.76898 19.3482 9.37522 18.9473 9.84351Z" fill="#666666"/>
</svg>
