<svg width="24" height="24" viewBox="0 0 24 24" fill="none" xmlns="http://www.w3.org/2000/svg">
<path d="M17.25 2.24792H6.75001C4.26473 2.24792 2.25001 4.26264 2.25001 6.74793V17.2479C2.25001 19.7332 4.26473 21.7479 6.75001 21.7479H17.25C19.7353 21.7479 21.75 19.7332 21.75 17.2479V6.74793C21.75 4.26264 19.7353 2.24792 17.25 2.24792Z" stroke="#666666" stroke-width="1.5" stroke-linejoin="round"/>
<path d="M18.2316 7.10469C17.085 6.06031 15.0103 4.69531 12 4.69531C8.98972 4.69531 6.91503 6.06031 5.76847 7.10469C5.45699 7.38843 5.26791 7.78208 5.24115 8.20257C5.21439 8.62306 5.35203 9.0375 5.62503 9.35844L7.18691 11.1964C7.37678 11.4188 7.64012 11.5658 7.92911 11.6106C8.21811 11.6554 8.51359 11.5951 8.76191 11.4406C9.50816 10.9798 10.6796 10.4263 12.001 10.4263C13.3224 10.4263 14.4938 10.9798 15.24 11.4406C15.4883 11.5951 15.7838 11.6554 16.0728 11.6106C16.3618 11.5658 16.6252 11.4188 16.815 11.1964L18.375 9.35844C18.648 9.0375 18.7857 8.62306 18.7589 8.20257C18.7322 7.78208 18.5431 7.38843 18.2316 7.10469V7.10469Z" stroke="#666666" stroke-width="1.5" stroke-linejoin="round"/>
</svg>
