<svg width="24" height="24" viewBox="0 0 24 24" fill="none" xmlns="http://www.w3.org/2000/svg">
<path d="M20.25 1.49976H3.75004C3.15349 1.50038 2.58156 1.73763 2.15973 2.15945C1.73791 2.58127 1.50066 3.15321 1.50004 3.74976V20.2498C1.50066 20.8463 1.73791 21.4182 2.15973 21.8401C2.58156 22.2619 3.15349 22.4991 3.75004 22.4998H20.25C20.8466 22.4991 21.4185 22.2619 21.8403 21.8401C22.2622 21.4182 22.4994 20.8463 22.5 20.2498V3.74976C22.4994 3.15321 22.2622 2.58127 21.8403 2.15945C21.4185 1.73763 20.8466 1.50038 20.25 1.49976ZM19.4668 9.23413L17.0077 12.1277C16.7954 12.3803 16.4954 12.5431 16.1679 12.5833C15.8404 12.6234 15.5099 12.5381 15.2429 12.3443C14.6335 11.9088 13.4021 11.1776 12 11.1776C10.598 11.1776 9.3666 11.9088 8.75723 12.3443C8.49016 12.5379 8.15965 12.6233 7.83221 12.5831C7.50478 12.5429 7.20471 12.3802 6.99238 12.1277L4.53332 9.23413C4.29971 8.95827 4.17316 8.60756 4.17677 8.24609C4.18039 7.88462 4.31393 7.53652 4.55301 7.26538C5.44035 6.26648 7.94207 3.94335 12 3.94335C16.058 3.94335 18.5597 6.26788 19.4471 7.26538C19.6861 7.53652 19.8197 7.88462 19.8233 8.24609C19.8269 8.60756 19.7004 8.95827 19.4668 9.23413Z" fill="#666666"/>
</svg>
