<svg width="24" height="24" viewBox="0 0 24 24" fill="none" xmlns="http://www.w3.org/2000/svg">
<path d="M18.1875 21.8452H15V19.7827H18.1875C18.6102 19.7827 19.0155 19.6148 19.3144 19.3159C19.6133 19.017 19.7812 18.6117 19.7812 18.189V15.0015H21.8437V18.189C21.8426 19.1583 21.457 20.0877 20.7716 20.7731C20.0862 21.4585 19.1568 21.8441 18.1875 21.8452ZM21.8437 9.00147H19.7812V5.81397C19.7812 5.39128 19.6133 4.9859 19.3144 4.68701C19.0155 4.38813 18.6102 4.22022 18.1875 4.22022H15V2.15771H18.1875C19.1568 2.15883 20.0862 2.5444 20.7716 3.22984C21.457 3.91528 21.8426 4.84461 21.8437 5.81397V9.00147ZM8.99996 21.8452H5.81246C4.84311 21.8441 3.91377 21.4585 3.22834 20.7731C2.5429 20.0877 2.15733 19.1583 2.15621 18.189V15.0015H4.21871V18.189C4.21871 18.6117 4.38662 19.017 4.68551 19.3159C4.9844 19.6148 5.38977 19.7827 5.81246 19.7827H8.99996V21.8452ZM4.21871 9.00147H2.15621V5.81397C2.15733 4.84461 2.5429 3.91528 3.22834 3.22984C3.91377 2.5444 4.84311 2.15883 5.81246 2.15771H8.99996V4.22022H5.81246C5.38977 4.22022 4.9844 4.38813 4.68551 4.68701C4.38662 4.9859 4.21871 5.39128 4.21871 5.81397V9.00147Z" fill="#666666"/>
</svg>
