<svg width="24" height="24" viewBox="0 0 24 24" fill="none" xmlns="http://www.w3.org/2000/svg">
<path d="M12 2.24792C6.62394 2.24792 2.25003 6.62183 2.25003 11.9979C2.25003 17.374 6.62394 21.7479 12 21.7479C17.3761 21.7479 21.75 17.374 21.75 11.9979C21.75 6.62183 17.3761 2.24792 12 2.24792ZM10.125 17.2479H8.81253C8.26572 17.2473 7.74147 17.0298 7.35481 16.6431C6.96815 16.2565 6.75066 15.7322 6.75003 15.1854V13.8729C6.75003 13.674 6.82905 13.4832 6.9697 13.3426C7.11036 13.2019 7.30112 13.1229 7.50003 13.1229C7.69895 13.1229 7.88971 13.2019 8.03036 13.3426C8.17102 13.4832 8.25003 13.674 8.25003 13.8729V15.1854C8.25003 15.3346 8.3093 15.4777 8.41479 15.5832C8.52028 15.6887 8.66335 15.7479 8.81253 15.7479H10.125C10.3239 15.7479 10.5147 15.8269 10.6554 15.9676C10.796 16.1082 10.875 16.299 10.875 16.4979C10.875 16.6968 10.796 16.8876 10.6554 17.0283C10.5147 17.1689 10.3239 17.2479 10.125 17.2479ZM10.125 8.24793H8.81253C8.66335 8.24793 8.52028 8.30719 8.41479 8.41268C8.3093 8.51817 8.25003 8.66124 8.25003 8.81043V10.1229C8.25003 10.3218 8.17102 10.5126 8.03036 10.6533C7.88971 10.7939 7.69895 10.8729 7.50003 10.8729C7.30112 10.8729 7.11036 10.7939 6.9697 10.6533C6.82905 10.5126 6.75003 10.3218 6.75003 10.1229V8.81043C6.75066 8.26361 6.96815 7.73936 7.35481 7.3527C7.74147 6.96604 8.26572 6.74855 8.81253 6.74793H10.125C10.3239 6.74793 10.5147 6.82694 10.6554 6.9676C10.796 7.10825 10.875 7.29901 10.875 7.49793C10.875 7.69684 10.796 7.8876 10.6554 8.02825C10.5147 8.16891 10.3239 8.24793 10.125 8.24793ZM17.25 15.1854C17.2494 15.7322 17.0319 16.2565 16.6453 16.6431C16.2586 17.0298 15.7344 17.2473 15.1875 17.2479H13.875C13.6761 17.2479 13.4854 17.1689 13.3447 17.0283C13.2041 16.8876 13.125 16.6968 13.125 16.4979C13.125 16.299 13.2041 16.1082 13.3447 15.9676C13.4854 15.8269 13.6761 15.7479 13.875 15.7479H15.1875C15.3367 15.7479 15.4798 15.6887 15.5853 15.5832C15.6908 15.4777 15.75 15.3346 15.75 15.1854V13.8729C15.75 13.674 15.8291 13.4832 15.9697 13.3426C16.1104 13.2019 16.3011 13.1229 16.5 13.1229C16.6989 13.1229 16.8897 13.2019 17.0304 13.3426C17.171 13.4832 17.25 13.674 17.25 13.8729V15.1854ZM17.25 10.1229C17.25 10.3218 17.171 10.5126 17.0304 10.6533C16.8897 10.7939 16.6989 10.8729 16.5 10.8729C16.3011 10.8729 16.1104 10.7939 15.9697 10.6533C15.8291 10.5126 15.75 10.3218 15.75 10.1229V8.81043C15.75 8.66124 15.6908 8.51817 15.5853 8.41268C15.4798 8.30719 15.3367 8.24793 15.1875 8.24793H13.875C13.6761 8.24793 13.4854 8.16891 13.3447 8.02825C13.2041 7.8876 13.125 7.69684 13.125 7.49793C13.125 7.29901 13.2041 7.10825 13.3447 6.9676C13.4854 6.82694 13.6761 6.74793 13.875 6.74793H15.1875C15.7344 6.74855 16.2586 6.96604 16.6453 7.3527C17.0319 7.73936 17.2494 8.26361 17.25 8.81043V10.1229Z" fill="#666666"/>
</svg>
