<svg width="24" height="24" viewBox="0 0 24 24" fill="none" xmlns="http://www.w3.org/2000/svg">
<path d="M21.0001 11.9961C21.0001 7.02734 16.9688 2.99609 12.0001 2.99609C7.03133 2.99609 3.00008 7.02734 3.00008 11.9961C3.00008 16.9648 7.03133 20.9961 12.0001 20.9961C16.9688 20.9961 21.0001 16.9648 21.0001 11.9961Z" stroke="#666666" stroke-width="1.5" stroke-miterlimit="10"/>
<path d="M7.50011 10.1238V8.81128C7.50011 8.46318 7.63839 8.12934 7.88453 7.8832C8.13067 7.63706 8.46451 7.49878 8.81261 7.49878H10.1251M13.8751 16.4988H15.1876C15.5357 16.4988 15.8695 16.3605 16.1157 16.1144C16.3618 15.8682 16.5001 15.5344 16.5001 15.1863V13.8738L13.8751 16.4988ZM16.5001 10.1238V8.81128C16.5001 8.46318 16.3618 8.12934 16.1157 7.8832C15.8695 7.63706 15.5357 7.49878 15.1876 7.49878H13.8751L16.5001 10.1238ZM10.1251 16.4988H8.81261C8.46451 16.4988 8.13067 16.3605 7.88453 16.1144C7.63839 15.8682 7.50011 15.5344 7.50011 15.1863V13.8738L10.1251 16.4988Z" stroke="#666666" stroke-width="1.5" stroke-linecap="round" stroke-linejoin="round"/>
</svg>
