<svg width="24" height="24" viewBox="0 0 24 24" fill="none" xmlns="http://www.w3.org/2000/svg">
<path d="M16.0313 20.8104H18.1876C18.8838 20.8104 19.5515 20.5339 20.0437 20.0416C20.536 19.5493 20.8126 18.8816 20.8126 18.1854V16.0292M20.8126 7.96668V5.81043C20.8126 5.11423 20.536 4.44655 20.0437 3.95427C19.5515 3.46199 18.8838 3.18542 18.1876 3.18542H16.0313M7.96883 20.8104H5.81258C5.11639 20.8104 4.44871 20.5339 3.95643 20.0416C3.46415 19.5493 3.18758 18.8816 3.18758 18.1854V16.0292M3.18758 7.96668V5.81043C3.18758 5.11423 3.46415 4.44655 3.95643 3.95427C4.44871 3.46199 5.11639 3.18542 5.81258 3.18542H7.96883" stroke="#666666" stroke-width="2.0625" stroke-linecap="round" stroke-linejoin="round"/>
</svg>
