<svg width="24" height="24" viewBox="0 0 24 24" fill="none" xmlns="http://www.w3.org/2000/svg">
<path d="M12.0001 2.24792C6.62402 2.24792 2.25011 6.62183 2.25011 11.9979C2.25011 17.374 6.62402 21.7479 12.0001 21.7479C17.3762 21.7479 21.7501 17.374 21.7501 11.9979C21.7501 6.62183 17.3762 2.24792 12.0001 2.24792ZM10.8751 17.2479H8.81261C8.2658 17.2473 7.74155 17.0298 7.35489 16.6431C6.96823 16.2565 6.75073 15.7322 6.75011 15.1854V13.1229H8.25011V15.1854C8.25011 15.3346 8.30938 15.4777 8.41487 15.5832C8.52036 15.6887 8.66343 15.7479 8.81261 15.7479H10.8751V17.2479ZM10.8751 8.24793H8.81261C8.66343 8.24793 8.52036 8.30719 8.41487 8.41268C8.30938 8.51817 8.25011 8.66124 8.25011 8.81043V10.8729H6.75011V8.81043C6.75073 8.26361 6.96823 7.73936 7.35489 7.3527C7.74155 6.96604 8.2658 6.74855 8.81261 6.74793H10.8751V8.24793ZM17.2501 15.1854C17.2495 15.7322 17.032 16.2565 16.6453 16.6431C16.2587 17.0298 15.7344 17.2473 15.1876 17.2479H13.1251V15.7479H15.1876C15.3368 15.7479 15.4799 15.6887 15.5854 15.5832C15.6909 15.4777 15.7501 15.3346 15.7501 15.1854V13.1229H17.2501V15.1854ZM17.2501 10.8729H15.7501V8.81043C15.7501 8.66124 15.6909 8.51817 15.5854 8.41268C15.4799 8.30719 15.3368 8.24793 15.1876 8.24793H13.1251V6.74793H15.1876C15.7344 6.74855 16.2587 6.96604 16.6453 7.3527C17.032 7.73936 17.2495 8.26361 17.2501 8.81043V10.8729Z" fill="#666666"/>
</svg>
