<svg width="24" height="24" viewBox="0 0 24 24" fill="none" xmlns="http://www.w3.org/2000/svg">
<path d="M15.75 20.9961H18.375C19.0712 20.9961 19.7389 20.7195 20.2311 20.2273C20.7234 19.735 21 19.0673 21 18.3711V15.7461M21 8.24609V5.62109C21 4.9249 20.7234 4.25722 20.2311 3.76494C19.7389 3.27266 19.0712 2.99609 18.375 2.99609H15.75M8.24999 20.9961H5.62498C4.92879 20.9961 4.26111 20.7195 3.76883 20.2273C3.27655 19.735 2.99998 19.0673 2.99998 18.3711V15.7461M2.99998 8.24609V5.62109C2.99998 4.9249 3.27655 4.25722 3.76883 3.76494C4.26111 3.27266 4.92879 2.99609 5.62498 2.99609H8.24999" stroke="#666666" stroke-width="1.5" stroke-linecap="round" stroke-linejoin="round"/>
</svg>
