<svg width="24" height="24" viewBox="0 0 24 24" fill="none" xmlns="http://www.w3.org/2000/svg">
<g clip-path="url(#clip0_32_3242)">
<path d="M12 17.2471C11.8695 17.2471 11.7412 17.213 11.6278 17.1482L5.06252 13.3958C5.00547 13.3629 4.94075 13.3456 4.87488 13.3456C4.809 13.3456 4.7443 13.363 4.68728 13.396C4.63025 13.4289 4.58292 13.4764 4.55005 13.5334C4.51718 13.5905 4.49992 13.6553 4.50002 13.7211V17.2471C4.4999 17.3809 4.53562 17.5124 4.60346 17.6278C4.6713 17.7432 4.76878 17.8383 4.8858 17.9033L11.6358 21.6533C11.7472 21.7152 11.8726 21.7477 12 21.7477C12.1275 21.7477 12.2528 21.7152 12.3642 21.6533L19.1142 17.9033C19.2313 17.8383 19.3287 17.7432 19.3966 17.6278C19.4644 17.5124 19.5001 17.3809 19.5 17.2471V13.7211C19.5001 13.6553 19.4829 13.5905 19.45 13.5334C19.4171 13.4764 19.3698 13.4289 19.3128 13.396C19.2557 13.363 19.191 13.3456 19.1252 13.3456C19.0593 13.3456 18.9946 13.3629 18.9375 13.3958L12.3722 17.1482C12.2589 17.213 12.1306 17.2471 12 17.2471Z" fill="#666666"/>
<path d="M23.2463 8.92843V8.92327C23.2342 8.80439 23.1938 8.69012 23.1286 8.59C23.0633 8.48987 22.9751 8.40678 22.8713 8.34765L12.3713 2.34764C12.2579 2.28286 12.1297 2.24878 11.9991 2.24878C11.8685 2.24878 11.7403 2.28286 11.6269 2.34764L1.12691 8.34765C1.01215 8.41326 0.916776 8.50803 0.850441 8.62237C0.784106 8.73671 0.749168 8.86655 0.749168 8.99874C0.749168 9.13093 0.784106 9.26077 0.850441 9.37511C0.916776 9.48945 1.01215 9.58422 1.12691 9.64983L11.6269 15.6498C11.7403 15.7146 11.8685 15.7487 11.9991 15.7487C12.1297 15.7487 12.2579 15.7146 12.3713 15.6498L21.6094 10.3712C21.6237 10.363 21.6399 10.3587 21.6564 10.3587C21.6729 10.3587 21.6891 10.3631 21.7033 10.3713C21.7176 10.3796 21.7294 10.3915 21.7376 10.4058C21.7458 10.4201 21.7501 10.4363 21.75 10.4528V17.2276C21.75 17.6312 22.0604 17.9776 22.4639 17.9978C22.5654 18.0027 22.6667 17.9869 22.7618 17.9515C22.857 17.9161 22.9439 17.8617 23.0174 17.7916C23.0909 17.7216 23.1494 17.6374 23.1894 17.5441C23.2294 17.4507 23.25 17.3503 23.25 17.2487V8.99874C23.25 8.97525 23.2487 8.95179 23.2463 8.92843Z" fill="#666666"/>
</g>
<defs>
<clipPath id="clip0_32_3242">
<rect width="24" height="24" fill="white"/>
</clipPath>
</defs>
</svg>
