<svg width="24" height="24" viewBox="0 0 24 24" fill="none" xmlns="http://www.w3.org/2000/svg">
<path d="M12 2.99695C7.03735 2.99695 3 7.03429 3 11.9969C3 16.9596 7.03735 20.997 12 20.997C16.9627 20.997 21 16.9596 21 11.9969C21 7.03429 16.9627 2.99695 12 2.99695ZM16.2802 16.2771C16.1395 16.4177 15.9488 16.4966 15.75 16.4966C15.5512 16.4966 15.3605 16.4177 15.2198 16.2771L13.2117 14.2694C12.3634 14.8532 11.3275 15.0989 10.3073 14.9582C9.28713 14.8176 8.35635 14.3007 7.69763 13.5092C7.0389 12.7176 6.69976 11.7084 6.74678 10.6797C6.7938 9.65093 7.22357 8.6769 7.95176 7.94871C8.67995 7.22052 9.65398 6.79075 10.6827 6.74373C11.7115 6.69671 12.7206 7.03584 13.5122 7.69457C14.3038 8.3533 14.8206 9.28407 14.9613 10.3042C15.1019 11.3244 14.8563 12.3603 14.2725 13.2087L16.2802 15.2168C16.4207 15.3574 16.4997 15.5481 16.4997 15.7469C16.4997 15.9458 16.4207 16.1365 16.2802 16.2771Z" fill="#666666"/>
<path d="M10.8751 13.4979C12.3248 13.4979 13.5001 12.3227 13.5001 10.8729C13.5001 9.42318 12.3248 8.24792 10.8751 8.24792C9.42531 8.24792 8.25006 9.42318 8.25006 10.8729C8.25006 12.3227 9.42531 13.4979 10.8751 13.4979Z" fill="#666666"/>
</svg>
