<svg width="24" height="24" viewBox="0 0 24 24" fill="none" xmlns="http://www.w3.org/2000/svg">
<path d="M12.0001 2.99695C7.03742 2.99695 3.00008 7.03429 3.00008 11.9969C3.00008 16.9596 7.03742 20.997 12.0001 20.997C16.9627 20.997 21.0001 16.9596 21.0001 11.9969C21.0001 7.03429 16.9627 2.99695 12.0001 2.99695ZM15.7501 16.8077L13.2118 14.2694C12.3634 14.8532 11.3275 15.0989 10.3074 14.9582C9.28721 14.8176 8.35643 14.3007 7.6977 13.5092C7.03897 12.7176 6.69984 11.7084 6.74686 10.6797C6.79388 9.65093 7.22365 8.6769 7.95184 7.94871C8.68003 7.22052 9.65406 6.79075 10.6828 6.74373C11.7115 6.69671 12.7207 7.03584 13.5123 7.69457C14.3039 8.3533 14.8207 9.28407 14.9614 10.3042C15.102 11.3244 14.8564 12.3603 14.2726 13.2087L16.8109 15.7469L15.7501 16.8077Z" fill="#666666"/>
<path d="M10.875 13.4979C12.3247 13.4979 13.5 12.3227 13.5 10.8729C13.5 9.42318 12.3247 8.24792 10.875 8.24792C9.42525 8.24792 8.25 9.42318 8.25 10.8729C8.25 12.3227 9.42525 13.4979 10.875 13.4979Z" fill="#666666"/>
</svg>
