<svg width="24" height="24" viewBox="0 0 24 24" fill="none" xmlns="http://www.w3.org/2000/svg">
<path d="M10.3637 2.99695C8.90728 2.99695 7.4836 3.42882 6.27267 4.23794C5.06173 5.04706 4.11792 6.1971 3.56059 7.54262C3.00325 8.88814 2.85743 10.3687 3.14156 11.7971C3.42568 13.2255 4.127 14.5376 5.15681 15.5674C6.18663 16.5972 7.4987 17.2985 8.9271 17.5826C10.3555 17.8668 11.8361 17.7209 13.1816 17.1636C14.5271 16.6063 15.6771 15.6625 16.4863 14.4515C17.2954 13.2406 17.7273 11.8169 17.7273 10.3605C17.7271 8.40763 16.9513 6.53475 15.5704 5.15383C14.1895 3.77292 12.3166 2.99707 10.3637 2.99695V2.99695Z" stroke="#666666" stroke-width="1.5" stroke-miterlimit="10"/>
<path d="M15.8573 15.8561L21 20.9987" stroke="#666666" stroke-width="1.5" stroke-miterlimit="10" stroke-linecap="round"/>
</svg>
