<svg width="24" height="24" viewBox="0 0 24 24" fill="none" xmlns="http://www.w3.org/2000/svg">
<path d="M21.75 20.0613L15.9337 14.2441C16.871 12.956 17.3752 11.4037 17.3737 9.81066C17.3737 5.64112 13.9814 2.24878 9.81183 2.24878C5.6423 2.24878 2.24995 5.64112 2.24995 9.81066C2.24995 13.9802 5.6423 17.3725 9.81183 17.3725C11.4048 17.3741 12.9572 16.8698 14.2453 15.9325L20.0625 21.7488L21.75 20.0613ZM9.81183 14.9842C8.78846 14.9843 7.78804 14.681 6.9371 14.1125C6.08616 13.544 5.42291 12.7359 5.03124 11.7904C4.63957 10.845 4.53707 9.80461 4.73669 8.80089C4.93632 7.79718 5.42911 6.87521 6.15275 6.15157C6.87638 5.42794 7.79835 4.93515 8.80207 4.73552C9.80578 4.53589 10.8462 4.63839 11.7916 5.03007C12.7371 5.42174 13.5451 6.08498 14.1136 6.93592C14.6821 7.78687 14.9855 8.78728 14.9854 9.81066C14.9838 11.1823 14.4382 12.4973 13.4683 13.4672C12.4984 14.437 11.1835 14.9826 9.81183 14.9842Z" fill="#666666"/>
</svg>
