<svg width="24" height="24" viewBox="0 0 24 24" fill="none" xmlns="http://www.w3.org/2000/svg">
<path d="M12.0001 3.74976C10.3684 3.74976 8.7733 4.23361 7.4166 5.14013C6.05989 6.04665 5.00247 7.33513 4.37804 8.84262C3.75362 10.3501 3.59024 12.0089 3.90857 13.6093C4.2269 15.2096 5.01264 16.6796 6.16642 17.8334C7.3202 18.9872 8.79021 19.7729 10.3906 20.0912C11.9909 20.4096 13.6497 20.2462 15.1572 19.6218C16.6647 18.9973 17.9532 17.9399 18.8597 16.5832C19.7662 15.2265 20.2501 13.6315 20.2501 11.9998C20.2501 9.81172 19.3809 7.7133 17.8337 6.16613C16.2865 4.61895 14.1881 3.74976 12.0001 3.74976Z" stroke="#666666" stroke-width="1.5" stroke-miterlimit="10"/>
<path d="M10.875 7.49976C10.2075 7.49976 9.55501 7.6977 9 8.06855C8.44498 8.4394 8.0124 8.9665 7.75695 9.5832C7.50151 10.1999 7.43467 10.8785 7.5649 11.5332C7.69512 12.1879 8.01656 12.7892 8.48856 13.2612C8.96056 13.7332 9.56193 14.0547 10.2166 14.1849C10.8713 14.3151 11.5499 14.2483 12.1666 13.9929C12.7833 13.7374 13.3104 13.3048 13.6813 12.7498C14.0521 12.1948 14.25 11.5423 14.25 10.8748C14.25 10.4315 14.1628 9.99267 13.9931 9.5832C13.8235 9.17373 13.5749 8.80167 13.2615 8.48827C12.9481 8.17487 12.5761 7.92627 12.1666 7.75666C11.7571 7.58705 11.3183 7.49976 10.875 7.49976V7.49976Z" stroke="#666666" stroke-width="1.5" stroke-miterlimit="10"/>
<path d="M13.2956 13.296L15.75 15.7504" stroke="#666666" stroke-width="1.5" stroke-miterlimit="10" stroke-linecap="round"/>
</svg>
