<svg width="24" height="24" viewBox="0 0 24 24" fill="none" xmlns="http://www.w3.org/2000/svg">
<path d="M21.4074 19.7514L16.9969 15.341C18.0587 13.9274 18.632 12.2068 18.63 10.4388C18.63 5.92284 14.956 2.24878 10.44 2.24878C5.92408 2.24878 2.25002 5.92284 2.25002 10.4388C2.25002 14.9547 5.92408 18.6288 10.44 18.6288C12.208 18.6307 13.9286 18.0575 15.3422 16.9957L19.7527 21.4061C19.9759 21.6057 20.2671 21.7122 20.5665 21.7039C20.8658 21.6955 21.1506 21.5728 21.3623 21.3611C21.5741 21.1493 21.6967 20.8646 21.7051 20.5652C21.7135 20.2659 21.6069 19.9747 21.4074 19.7514ZM4.59002 10.4388C4.59002 9.28176 4.93311 8.15072 5.57592 7.18869C6.21873 6.22667 7.13237 5.47686 8.20132 5.03408C9.27027 4.59131 10.4465 4.47546 11.5813 4.70119C12.7161 4.92691 13.7585 5.48407 14.5766 6.30221C15.3947 7.12034 15.9519 8.16271 16.1776 9.2975C16.4033 10.4323 16.2875 11.6085 15.8447 12.6775C15.4019 13.7464 14.6521 14.6601 13.6901 15.3029C12.7281 15.9457 11.597 16.2888 10.44 16.2888C8.88907 16.2869 7.40218 15.67 6.3055 14.5733C5.20881 13.4766 4.59188 11.9897 4.59002 10.4388Z" fill="#666666"/>
</svg>
