<svg width="24" height="24" viewBox="0 0 24 24" fill="none" xmlns="http://www.w3.org/2000/svg">
<path d="M22.0452 12.7073L2.02303 20.9648C1.96741 20.9909 1.9061 21.0027 1.84475 20.999C1.7834 20.9953 1.72396 20.9762 1.67189 20.9435C1.61982 20.9109 1.57679 20.8657 1.54674 20.812C1.51669 20.7584 1.50059 20.6981 1.49991 20.6367V15.3253C1.49991 15.2379 1.53039 15.1533 1.5861 15.0861C1.64181 15.0188 1.71925 14.9731 1.80506 14.9568L13.4123 12.7537C14.226 12.5995 14.226 11.4342 13.4123 11.2799L1.8046 9.07682C1.71895 9.06047 1.64168 9.01479 1.58607 8.94763C1.53047 8.88047 1.5 8.79604 1.49991 8.70885V3.39978C1.49991 3.13072 1.77553 2.91885 2.02303 3.02478L22.0452 11.3296C22.1798 11.3876 22.2945 11.4837 22.375 11.6062C22.4556 11.7286 22.4985 11.8719 22.4985 12.0185C22.4985 12.165 22.4556 12.3083 22.375 12.4308C22.2945 12.5532 22.1798 12.6493 22.0452 12.7073Z" stroke="#666666" stroke-width="1.5" stroke-linecap="round" stroke-linejoin="round"/>
</svg>
