<svg width="24" height="24" viewBox="0 0 24 24" fill="none" xmlns="http://www.w3.org/2000/svg">
<g clip-path="url(#clip0_32_3266)">
<path d="M22.3401 10.6421L22.3326 10.6388L2.31323 2.33539C2.14484 2.26491 1.96162 2.23727 1.77993 2.25494C1.59825 2.27261 1.42378 2.33504 1.27213 2.43664C1.11191 2.54163 0.980306 2.6848 0.889154 2.85327C0.798002 3.02175 0.750165 3.21024 0.749947 3.4018V8.71227C0.750036 8.97413 0.841474 9.22777 1.0085 9.42945C1.17553 9.63113 1.40768 9.76823 1.66495 9.81711L12.5835 11.836C12.6264 11.8442 12.6652 11.867 12.693 11.9006C12.7209 11.9343 12.7361 11.9766 12.7361 12.0202C12.7361 12.0639 12.7209 12.1062 12.693 12.1398C12.6652 12.1735 12.6264 12.1963 12.5835 12.2045L1.66542 14.2234C1.40822 14.2721 1.17608 14.409 1.00898 14.6105C0.841879 14.812 0.750275 15.0655 0.749947 15.3273V20.6387C0.749822 20.8216 0.795113 21.0017 0.881754 21.1628C0.968395 21.3239 1.09368 21.4609 1.24635 21.5616C1.43001 21.6837 1.64554 21.7489 1.86604 21.7491C2.01933 21.749 2.17105 21.7183 2.31229 21.6587L22.3312 13.4026L22.3401 13.3984C22.6096 13.2826 22.8392 13.0903 23.0005 12.8453C23.1619 12.6004 23.2478 12.3135 23.2478 12.0202C23.2478 11.7269 23.1619 11.4401 23.0005 11.1951C22.8392 10.9502 22.6096 10.7579 22.3401 10.6421Z" fill="#666666"/>
</g>
<defs>
<clipPath id="clip0_32_3266">
<rect width="24" height="24" fill="white" transform="translate(-0.00012207 -0.00390625)"/>
</clipPath>
</defs>
</svg>
