<svg width="24" height="24" viewBox="0 0 24 24" fill="none" xmlns="http://www.w3.org/2000/svg">
<path d="M19.192 18.2722C16.9687 19.2158 14.3156 19.7338 12 19.7338C9.68436 19.7338 7.03733 19.2041 4.80749 18.2722C2.57764 17.3404 2.24999 16.5514 2.24999 16.5514V18.3421C2.24999 19.8022 3.09374 20.3877 5.40561 21.3585C7.17796 22.1029 9.52405 22.4971 12 22.4971C14.4759 22.4971 16.822 22.1029 18.5944 21.3585C20.9062 20.3877 21.75 19.8022 21.75 18.3421V16.5514C21.75 16.5514 21.4153 17.3291 19.192 18.2722ZM2.98546 8.11676C3.51186 8.57801 4.28952 9.03035 5.23546 9.42551C7.22671 10.258 9.75655 10.7554 12.0023 10.7554C14.2481 10.7554 16.778 10.258 18.7692 9.42551C19.7128 9.03035 20.4905 8.57801 21.0169 8.11676C21.3009 7.86785 21.5255 7.64238 21.6483 7.51441C21.7152 7.44452 21.7524 7.35147 21.7523 7.25473V6.02848C21.713 4.67895 20.5941 3.47801 18.6019 2.64691C16.8201 1.90535 14.4769 1.49707 12 1.49707C9.52311 1.49707 7.17983 1.90535 5.4028 2.64691C3.41483 3.47613 2.29686 4.67426 2.25233 6.02051V7.25473C2.2521 7.35141 2.28921 7.44444 2.35593 7.51441C2.47686 7.64238 2.70093 7.86785 2.98546 8.11676Z" fill="#666666"/>
<path d="M19.192 10.4023C17.1094 11.2971 14.3156 11.8639 12 11.8639C9.68436 11.8639 6.89671 11.2887 4.80796 10.4023C2.71921 9.51589 2.24999 8.68152 2.24999 8.68152V10.9015C2.25374 11.254 2.5078 11.6609 2.98546 12.0795C3.51233 12.5407 4.28952 12.9935 5.23546 13.3882C7.22436 14.2212 9.75421 14.719 12 14.719C14.2458 14.719 16.7756 14.2221 18.7669 13.3892C19.7105 12.9945 20.4881 12.5417 21.0145 12.0804C21.495 11.6585 21.7495 11.2503 21.75 10.8959V8.68152C21.75 8.68152 21.2751 9.50746 19.192 10.4023Z" fill="#666666"/>
<path d="M19.192 14.3596C16.9687 15.2793 14.3156 15.8211 12 15.8211C9.68436 15.8211 6.84983 15.2211 4.80796 14.3596C2.76608 13.498 2.24999 12.6388 2.24999 12.6388V14.8068C2.24999 15.1607 2.50499 15.5699 2.98546 15.9908C3.51186 16.4521 4.28905 16.9049 5.23546 17.2996C7.22671 18.1325 9.75608 18.6294 12.0023 18.6294C14.2486 18.6294 16.778 18.1325 18.7692 17.2996C19.7128 16.9044 20.4905 16.4521 21.0169 15.9908C21.4945 15.5722 21.7486 15.1654 21.7523 14.8129V12.6388C21.7523 12.6388 21.4158 13.4399 19.192 14.3596Z" fill="#666666"/>
</svg>
