<svg width="24" height="24" viewBox="0 0 24 24" fill="none" xmlns="http://www.w3.org/2000/svg">
<path d="M12.0001 20.0596C9.54615 20.0596 6.77865 19.5154 4.59708 18.6064C3.79693 18.2694 3.11161 17.7243 2.55146 17.2939C2.52367 17.2727 2.49049 17.2596 2.45568 17.2563C2.42086 17.2529 2.38579 17.2593 2.35443 17.2748C2.32308 17.2903 2.29668 17.3143 2.27824 17.344C2.25979 17.3737 2.25003 17.408 2.25005 17.443V18.0327C2.25005 19.3485 3.35115 20.5274 5.35036 21.3524C7.13865 22.0907 9.50021 22.4971 12.0001 22.4971C14.4999 22.4971 16.861 22.0907 18.6497 21.3524C20.649 20.5283 21.7501 19.3485 21.7501 18.0327V17.443C21.7501 17.408 21.7403 17.3737 21.7219 17.344C21.7034 17.3143 21.677 17.2903 21.6457 17.2748C21.6143 17.2593 21.5792 17.2529 21.5444 17.2563C21.5096 17.2596 21.4764 17.2727 21.4486 17.2939C20.8885 17.7238 20.2032 18.2694 19.4026 18.6064C17.221 19.5154 14.454 20.0596 12.0001 20.0596ZM21.7501 5.92723C21.7121 4.63113 20.6166 3.47098 18.6563 2.65301C16.8629 1.9077 14.5004 1.49707 12.0001 1.49707C9.49974 1.49707 7.13724 1.9077 5.34802 2.65301C3.38958 3.4691 2.29411 4.62691 2.25427 5.91973L2.25005 6.74707C2.25005 7.04754 2.4938 7.51957 2.93583 7.90629C3.45755 8.36238 4.23193 8.81238 5.17552 9.20613C7.18318 10.0452 9.73458 10.5439 12.0001 10.5439C14.2655 10.5439 16.8169 10.0433 18.8246 9.20426C19.7682 8.81051 20.5426 8.36051 21.0643 7.90441C21.5063 7.52004 21.7501 7.04801 21.7501 6.74707V5.92723Z" fill="#666666"/>
<path d="M19.4026 10.5914C17.2215 11.5022 14.454 12.0446 12.0001 12.0446C9.54616 12.0446 6.77866 11.5022 4.59709 10.5914C3.79694 10.2563 3.11162 9.71065 2.55147 9.27893C2.52356 9.25758 2.4902 9.2445 2.45522 9.24119C2.42023 9.23788 2.38502 9.24447 2.35359 9.2602C2.32217 9.27594 2.2958 9.30019 2.2775 9.33019C2.25919 9.36019 2.24969 9.39473 2.25006 9.42987V10.8727C2.25006 11.1731 2.49381 11.5514 2.93584 11.9381C3.45756 12.3947 4.23194 12.8442 5.17553 13.2385C7.18319 14.0761 9.73459 14.5758 12.0001 14.5758C14.2655 14.5758 16.8169 14.0752 18.8246 13.2366C19.7682 12.8424 20.5426 12.3928 21.0643 11.9363C21.5063 11.551 21.7501 11.1731 21.7501 10.8727V9.42987C21.7501 9.39489 21.7403 9.36059 21.7219 9.33087C21.7034 9.30115 21.677 9.27718 21.6457 9.26167C21.6143 9.24616 21.5793 9.23974 21.5444 9.24312C21.5096 9.2465 21.4764 9.25955 21.4487 9.2808C20.8885 9.71065 20.2032 10.2563 19.4026 10.5914Z" fill="#666666"/>
<path d="M19.4026 14.6255C17.221 15.5353 14.454 16.0786 12.0001 16.0786C9.54615 16.0786 6.77865 15.5353 4.59709 14.6255C3.79693 14.2894 3.11162 13.7438 2.55146 13.313C2.52361 13.2917 2.49035 13.2786 2.45544 13.2753C2.42054 13.2719 2.3854 13.2784 2.35401 13.2941C2.32262 13.3097 2.29624 13.3338 2.27787 13.3636C2.25949 13.3935 2.24985 13.4279 2.25005 13.463V14.8599C2.25005 15.1603 2.4938 15.5381 2.93537 15.9244C3.45709 16.3809 4.23193 16.8305 5.17552 17.2247C7.18318 18.0624 9.73412 18.563 12.0001 18.563C14.266 18.563 16.8169 18.0624 18.8246 17.2238C19.7682 16.8295 20.5426 16.38 21.0643 15.9235C21.5063 15.5367 21.7501 15.1585 21.7501 14.8599V13.463C21.7501 13.428 21.7403 13.3937 21.7219 13.364C21.7034 13.3343 21.677 13.3103 21.6457 13.2948C21.6143 13.2793 21.5792 13.2728 21.5444 13.2762C21.5096 13.2796 21.4764 13.2927 21.4487 13.3139C20.8885 13.7438 20.2032 14.2894 19.4026 14.6255Z" fill="#666666"/>
</svg>
