<svg width="24" height="24" viewBox="0 0 24 24" fill="none" xmlns="http://www.w3.org/2000/svg">
<path d="M12 9.74976C16.9705 9.74976 21 8.07083 21 5.99976C21 3.92869 16.9705 2.24976 12 2.24976C7.02939 2.24976 2.99995 3.92869 2.99995 5.99976C2.99995 8.07083 7.02939 9.74976 12 9.74976Z" stroke="#666666" stroke-width="1.5" stroke-miterlimit="10" stroke-linecap="round"/>
<path d="M21 14.0604C21 16.1314 16.9687 17.8104 12 17.8104C7.0312 17.8104 2.99995 16.1314 2.99995 14.0604M21 10.0292C21 12.1001 16.9687 13.7792 12 13.7792C7.0312 13.7792 2.99995 12.1001 2.99995 10.0292H21Z" stroke="#666666" stroke-width="1.5" stroke-miterlimit="10" stroke-linecap="round"/>
<path d="M2.99995 5.95911V18.0304C2.99995 20.0816 7.0312 21.7447 12 21.7447C16.9687 21.7447 21 20.0816 21 18.0304V5.95911" stroke="#666666" stroke-width="1.5" stroke-miterlimit="10" stroke-linecap="round"/>
</svg>
