<svg width="24" height="24" viewBox="0 0 24 24" fill="none" xmlns="http://www.w3.org/2000/svg">
<path d="M12.0001 8.24878C11.2584 8.24878 10.5334 8.46871 9.91669 8.88077C9.30001 9.29282 8.81936 9.87849 8.53553 10.5637C8.25171 11.2489 8.17744 12.0029 8.32214 12.7304C8.46683 13.4578 8.82399 14.126 9.34843 14.6504C9.87288 15.1749 10.5411 15.532 11.2685 15.6767C11.9959 15.8214 12.7499 15.7472 13.4351 15.4633C14.1204 15.1795 14.706 14.6989 15.1181 14.0822C15.5302 13.4655 15.7501 12.7405 15.7501 11.9988C15.7471 11.0051 15.3511 10.053 14.6485 9.35041C13.9458 8.64779 12.9937 8.25175 12.0001 8.24878ZM20.0963 11.9988C20.0944 12.3492 20.0687 12.699 20.0195 13.046L22.3018 14.8328C22.4012 14.9149 22.4682 15.0297 22.4908 15.1566C22.5134 15.2835 22.4901 15.4143 22.4251 15.5257L20.266 19.2532C20.2004 19.3635 20.0979 19.4472 19.9767 19.4894C19.8555 19.5317 19.7232 19.5299 19.6032 19.4842L16.9196 18.4061C16.3608 18.8364 15.7493 19.1935 15.0999 19.4688L14.6987 22.3178C14.6762 22.4455 14.6101 22.5613 14.5117 22.6456C14.4133 22.7299 14.2887 22.7774 14.1591 22.78H9.84102C9.71383 22.7776 9.59123 22.732 9.49324 22.6509C9.39524 22.5698 9.32765 22.4578 9.30149 22.3333L8.90024 19.4842C8.24908 19.2122 7.63713 18.8545 7.08055 18.4207L4.39696 19.4988C4.277 19.5444 4.14478 19.5463 4.02355 19.5042C3.90233 19.462 3.79985 19.3784 3.73414 19.2682L1.57508 15.5411C1.51009 15.4298 1.48681 15.299 1.5094 15.1721C1.53198 15.0451 1.59896 14.9304 1.69836 14.8483L3.98071 13.0614C3.93203 12.7093 3.90635 12.3543 3.90383 11.9988C3.90578 11.6484 3.93147 11.2985 3.98071 10.9516L1.69836 9.16472C1.59896 9.08264 1.53198 8.96789 1.5094 8.84097C1.48681 8.71405 1.51009 8.58324 1.57508 8.4719L3.73414 4.7444C3.79978 4.63406 3.90222 4.55039 4.02346 4.50812C4.14469 4.46585 4.27695 4.46769 4.39696 4.51331L7.08055 5.59144C7.63936 5.16113 8.25088 4.80402 8.90024 4.52878L9.30149 1.67972C9.32395 1.5521 9.39003 1.43624 9.48843 1.35194C9.58684 1.26764 9.71147 1.22013 9.84102 1.21753H14.1591C14.2863 1.22001 14.4089 1.26553 14.5069 1.34666C14.6049 1.42779 14.6725 1.53975 14.6987 1.66425L15.0999 4.51331C15.7519 4.78517 16.3647 5.14286 16.922 5.5769L19.6032 4.49878C19.7232 4.45312 19.8554 4.45121 19.9766 4.49339C20.0978 4.53557 20.2003 4.61914 20.266 4.7294L22.4251 8.4569C22.4901 8.56824 22.5134 8.69905 22.4908 8.82597C22.4682 8.95289 22.4012 9.06764 22.3018 9.14972L20.0195 10.9366C20.0681 11.2886 20.0938 11.6434 20.0963 11.9988Z" fill="#666666"/>
</svg>
