<svg width="24" height="24" viewBox="0 0 24 24" fill="none" xmlns="http://www.w3.org/2000/svg">
<path d="M12.2949 9.0116C11.6794 8.95081 11.0601 9.08176 10.5219 9.38652C9.98367 9.69128 9.5528 10.155 9.28827 10.7141C9.02375 11.2731 8.9385 11.9003 9.0442 12.5098C9.14991 13.1192 9.44139 13.681 9.87875 14.1184C10.3161 14.5558 10.878 14.8472 11.4874 14.9529C12.0968 15.0586 12.724 14.9734 13.2831 14.7089C13.8422 14.4443 14.3059 14.0135 14.6106 13.4752C14.9154 12.937 15.0463 12.3178 14.9855 11.7022C14.9162 11.0122 14.6105 10.3674 14.1201 9.87702C13.6298 9.38665 12.9849 9.08091 12.2949 9.0116V9.0116ZM19.5184 11.9971C19.5164 12.3232 19.4925 12.6487 19.4466 12.9716L21.5659 14.6338C21.6581 14.7103 21.7203 14.817 21.7413 14.935C21.7624 15.053 21.7409 15.1747 21.6807 15.2783L19.6759 18.7471C19.615 18.8497 19.5198 18.9276 19.4071 18.967C19.2944 19.0063 19.1715 19.0047 19.0599 18.9622L16.9552 18.1147C16.8392 18.0685 16.7135 18.0518 16.5893 18.0661C16.4652 18.0805 16.3466 18.1253 16.2441 18.1968C15.9229 18.418 15.5854 18.6145 15.2345 18.7846C15.1241 18.8382 15.0287 18.9182 14.9566 19.0174C14.8845 19.1167 14.8379 19.2321 14.821 19.3536L14.5055 21.5985C14.4848 21.717 14.4236 21.8247 14.3323 21.9031C14.241 21.9815 14.1252 22.0258 14.0049 22.0283H9.99523C9.87689 22.0263 9.76278 21.984 9.67169 21.9084C9.58061 21.8328 9.51798 21.7285 9.49414 21.6125L9.17914 19.371C9.16145 19.2481 9.11368 19.1316 9.04008 19.0316C8.96648 18.9317 8.86933 18.8515 8.75726 18.7982C8.40674 18.629 8.07035 18.4319 7.75133 18.2089C7.64918 18.1379 7.53096 18.0933 7.40732 18.0793C7.28367 18.0654 7.15849 18.0823 7.04305 18.1288L4.93883 18.9758C4.82731 19.0183 4.70439 19.02 4.59172 18.9808C4.47905 18.9415 4.38385 18.8637 4.32289 18.7611L2.31804 15.2924C2.25777 15.1887 2.23623 15.0671 2.25726 14.9491C2.27829 14.831 2.34053 14.7243 2.43289 14.6479L4.22398 13.2416C4.32211 13.1637 4.39923 13.0625 4.44834 12.9473C4.49746 12.832 4.51701 12.7063 4.50523 12.5816C4.48836 12.3861 4.47804 12.1911 4.47804 11.9957C4.47804 11.8002 4.48789 11.608 4.50523 11.4168C4.51572 11.2928 4.49521 11.1682 4.44554 11.0541C4.39587 10.94 4.3186 10.8401 4.2207 10.7633L2.43054 9.35707C2.33968 9.28024 2.27876 9.17388 2.25845 9.05664C2.23813 8.93939 2.25973 8.81874 2.31945 8.71582L4.32429 5.24707C4.38518 5.14441 4.48035 5.06654 4.59303 5.02717C4.70571 4.98781 4.82867 4.98949 4.94023 5.03191L7.04492 5.87941C7.16098 5.92563 7.2867 5.94232 7.4108 5.92801C7.53491 5.91369 7.65352 5.86881 7.75601 5.79738C8.07723 5.57619 8.41476 5.37969 8.7657 5.20957C8.87603 5.15595 8.97147 5.07598 9.04357 4.97673C9.11568 4.87749 9.16224 4.76201 9.17914 4.64051L9.49461 2.39566C9.51533 2.27711 9.57658 2.16943 9.66789 2.09103C9.7592 2.01262 9.87491 1.96837 9.99523 1.96582H14.0049C14.1233 1.96787 14.2374 2.01016 14.3285 2.08574C14.4195 2.16132 14.4822 2.26567 14.506 2.3816L14.821 4.62316C14.8387 4.74601 14.8865 4.86258 14.9601 4.96251C15.0337 5.06244 15.1308 5.14264 15.2429 5.19598C15.5934 5.36518 15.9298 5.56221 16.2488 5.7852C16.351 5.85626 16.4692 5.9008 16.5928 5.9148C16.7165 5.92879 16.8417 5.9118 16.9571 5.86535L19.0613 5.01832C19.1728 4.97586 19.2958 4.97411 19.4084 5.01338C19.5211 5.05265 19.6163 5.13043 19.6773 5.23301L21.6821 8.70176C21.7424 8.80539 21.7639 8.92706 21.7429 9.04509C21.7219 9.16312 21.6596 9.26985 21.5673 9.34629L19.7762 10.7525C19.6776 10.8302 19.6 10.9312 19.5505 11.0465C19.501 11.1618 19.4811 11.2876 19.4926 11.4125C19.508 11.6066 19.5184 11.8016 19.5184 11.9971Z" stroke="#666666" stroke-width="1.5" stroke-linecap="round" stroke-linejoin="round"/>
</svg>
