<svg width="24" height="24" viewBox="0 0 24 24" fill="none" xmlns="http://www.w3.org/2000/svg">
<path d="M12.0001 14.2498C13.2427 14.2498 14.2501 13.2424 14.2501 11.9998C14.2501 10.7571 13.2427 9.74976 12.0001 9.74976C10.7575 9.74976 9.7501 10.7571 9.7501 11.9998C9.7501 13.2424 10.7575 14.2498 12.0001 14.2498Z" fill="#666666"/>
<path d="M22.0495 14.0613L22.0275 14.0435L20.5481 12.8833C20.4544 12.8092 20.3796 12.7139 20.3299 12.6053C20.2802 12.4967 20.257 12.3778 20.2621 12.2585V11.7166C20.2574 11.598 20.281 11.48 20.3307 11.3723C20.3805 11.2645 20.4552 11.1702 20.5485 11.0969L22.0275 9.93628L22.0495 9.91847C22.2776 9.72847 22.4306 9.46353 22.4813 9.17103C22.532 8.87853 22.4769 8.57755 22.326 8.3219L20.324 4.85784C20.3217 4.85457 20.3197 4.85112 20.3179 4.84753C20.1662 4.59542 19.931 4.4044 19.6532 4.30764C19.3753 4.21088 19.0723 4.21449 18.7968 4.31784L18.7804 4.32394L17.0414 5.02378C16.9316 5.06816 16.8129 5.08582 16.6949 5.07531C16.577 5.06479 16.4633 5.02641 16.3631 4.96331C16.2093 4.86644 16.0531 4.77487 15.8943 4.68862C15.7914 4.63281 15.703 4.55359 15.6363 4.45734C15.5697 4.3611 15.5265 4.25054 15.5104 4.13456L15.2484 2.27878L15.2428 2.24503C15.1857 1.95759 15.0315 1.69855 14.8059 1.51143C14.5804 1.32432 14.2974 1.22054 14.0043 1.21753H9.99558C9.69842 1.21848 9.41113 1.32427 9.18432 1.51627C8.95751 1.70826 8.80574 1.97414 8.75573 2.26706L8.75151 2.29331L8.49042 4.15284C8.4744 4.26848 8.43161 4.37879 8.36545 4.47498C8.29929 4.57117 8.21159 4.65058 8.10933 4.7069C7.95012 4.79266 7.79378 4.88364 7.64058 4.97972C7.54057 5.04243 7.42712 5.08052 7.30954 5.09087C7.19195 5.10122 7.07359 5.08353 6.96417 5.03925L5.2237 4.33612L5.20729 4.32956C4.93142 4.22609 4.628 4.22262 4.34982 4.31974C4.07165 4.41686 3.83632 4.60843 3.68479 4.86112L3.6787 4.87144L1.67386 8.33784C1.52275 8.59375 1.46759 8.89507 1.51826 9.18791C1.56893 9.48075 1.72211 9.74602 1.95042 9.93628L1.97245 9.95409L3.45183 11.1142C3.54551 11.1884 3.62028 11.2836 3.66998 11.3923C3.71969 11.5009 3.74292 11.6197 3.73776 11.7391V12.281C3.74246 12.3996 3.71894 12.5176 3.66915 12.6253C3.61936 12.733 3.54472 12.8274 3.45136 12.9007L1.97245 14.0613L1.95042 14.0791C1.72234 14.2691 1.56928 14.534 1.51861 14.8265C1.46794 15.119 1.52297 15.42 1.67386 15.6757L3.67589 19.1397C3.67819 19.143 3.68023 19.1464 3.68198 19.15C3.83368 19.4021 4.06888 19.5932 4.34675 19.6899C4.62462 19.7867 4.92759 19.7831 5.20308 19.6797L5.21948 19.6736L6.95714 18.9738C7.0669 18.9294 7.18564 18.9117 7.30357 18.9223C7.4215 18.9328 7.53524 18.9712 7.63542 19.0342C7.78917 19.1314 7.94542 19.223 8.10417 19.3089C8.2071 19.3648 8.29547 19.444 8.36215 19.5402C8.42884 19.6365 8.47197 19.747 8.48808 19.863L8.7487 21.7188L8.75433 21.7525C8.81147 22.0404 8.96613 22.2998 9.19223 22.487C9.41834 22.6742 9.70206 22.7777 9.99558 22.78H14.0043C14.3015 22.7791 14.5888 22.6733 14.8156 22.4813C15.0424 22.2893 15.1942 22.0234 15.2442 21.7305L15.2484 21.7042L15.5095 19.8447C15.5258 19.7289 15.5689 19.6184 15.6355 19.5222C15.7021 19.426 15.7902 19.3467 15.8929 19.2907C16.0532 19.2044 16.2098 19.113 16.3617 19.0178C16.4617 18.9551 16.5751 18.917 16.6927 18.9067C16.8103 18.8963 16.9287 18.914 17.0381 18.9583L18.7785 19.6591L18.795 19.6657C19.0708 19.7693 19.3743 19.7729 19.6525 19.6757C19.9307 19.5786 20.1661 19.3869 20.3175 19.1341C20.3193 19.1306 20.3213 19.1271 20.3235 19.1238L22.3256 15.6602C22.477 15.4043 22.5323 15.1029 22.4817 14.8099C22.4311 14.517 22.2779 14.2516 22.0495 14.0613ZM15.7457 12.175C15.7116 12.9009 15.4673 13.6013 15.0425 14.1909C14.6177 14.7805 14.0308 15.234 13.353 15.4962C12.6753 15.7585 11.936 15.8181 11.225 15.6679C10.514 15.5178 9.86189 15.1643 9.34806 14.6504C8.83424 14.1365 8.4808 13.4844 8.33072 12.7733C8.18064 12.0623 8.24038 11.323 8.50269 10.6453C8.76499 9.96759 9.21856 9.38069 9.80823 8.95599C10.3979 8.53128 11.0983 8.28705 11.8242 8.253C12.3453 8.23005 12.8655 8.3158 13.3517 8.50479C13.8379 8.69378 14.2795 8.98187 14.6483 9.35075C15.0172 9.71963 15.3052 10.1612 15.4941 10.6474C15.6831 11.1337 15.7687 11.6539 15.7457 12.175Z" fill="#666666"/>
</svg>
