<svg width="24" height="24" viewBox="0 0 24 24" fill="none" xmlns="http://www.w3.org/2000/svg">
<path d="M15.75 15.7484H1.50001C1.36908 15.7487 1.24036 15.7147 1.12664 15.6498C1.01293 15.5849 0.918178 15.4914 0.851816 15.3785C0.785455 15.2657 0.749794 15.1374 0.748381 15.0065C0.746967 14.8756 0.779849 14.7466 0.843758 14.6323L7.96876 1.8823C8.03383 1.76576 8.12883 1.66869 8.24394 1.60112C8.35906 1.53355 8.49012 1.49792 8.6236 1.49792C8.75708 1.49792 8.88815 1.53355 9.00326 1.60112C9.11838 1.66869 9.21337 1.76576 9.27845 1.8823L16.4034 14.6323C16.4672 14.7464 16.5001 14.8751 16.4988 15.0058C16.4975 15.1365 16.4621 15.2646 16.3961 15.3773C16.3301 15.4901 16.2357 15.5837 16.1224 15.6488C16.0091 15.7139 15.8807 15.7482 15.75 15.7484Z" fill="#666666"/>
<path d="M15.75 7.49707C15.2371 7.49696 14.7256 7.5491 14.2233 7.6527L17.714 13.8997C17.9053 14.2422 18.0038 14.6287 17.9996 15.0209C17.9955 15.4131 17.8889 15.7974 17.6904 16.1357C17.4919 16.474 17.2084 16.7546 16.868 16.9495C16.5276 17.1445 16.1422 17.247 15.75 17.2471H8.59357C9.0094 18.5693 9.78352 19.7505 10.83 20.6594C11.8765 21.5684 13.1544 22.1695 14.5218 22.3961C15.8893 22.6228 17.2928 22.466 18.5765 21.9433C19.8603 21.4206 20.9741 20.5523 21.7943 19.4349C22.6144 18.3175 23.1089 16.9946 23.2228 15.6132C23.3366 14.2318 23.0655 12.8458 22.4393 11.6092C21.8132 10.3726 20.8566 9.33366 19.6758 8.60776C18.495 7.88187 17.1361 7.49741 15.75 7.49707Z" fill="#666666"/>
</svg>
