<svg width="24" height="24" viewBox="0 0 24 24" fill="none" xmlns="http://www.w3.org/2000/svg">
<g clip-path="url(#clip0_32_3287)">
<path d="M12.4369 9.11741C13.7288 8.38961 15.2244 8.10745 16.6926 8.31452C18.1609 8.52159 19.5201 9.20637 20.5604 10.2631C21.6006 11.3198 22.2639 12.6896 22.4479 14.161C22.6318 15.6323 22.3262 17.1233 21.5781 18.4036C20.8301 19.6839 19.6813 20.6822 18.3092 21.2444C16.9371 21.8066 15.4181 21.9014 13.9868 21.514C12.5555 21.1267 11.2915 20.2788 10.3902 19.1014C9.48885 17.924 9.0003 16.4826 8.99999 14.9998M15.75 14.9998H1.49999L8.62499 2.24976L15.75 14.9998Z" stroke="#666666" stroke-width="1.5" stroke-linejoin="round"/>
</g>
<defs>
<clipPath id="clip0_32_3287">
<rect width="24" height="24" fill="white" transform="translate(0.00012207 -0.00390625)"/>
</clipPath>
</defs>
</svg>
