<svg width="24" height="24" viewBox="0 0 24 24" fill="none" xmlns="http://www.w3.org/2000/svg">
<path d="M17.7188 15.1864C16.8631 15.1862 16.0414 15.5212 15.4299 16.1197L9.46876 12.7682C9.59125 12.2627 9.59125 11.7352 9.46876 11.2297L15.428 7.87816C15.9847 8.41969 16.716 8.74539 17.4909 8.79695C18.2659 8.84851 19.0339 8.62256 19.6574 8.15955C20.281 7.69654 20.7194 7.02671 20.8942 6.26997C21.0689 5.51323 20.9686 4.71899 20.6112 4.02944C20.2539 3.3399 19.6627 2.80007 18.9436 2.5066C18.2246 2.21312 17.4245 2.18517 16.6867 2.42775C15.9489 2.67032 15.3215 3.16758 14.9169 3.8305C14.5122 4.49343 14.3568 5.27873 14.4783 6.04582L8.37844 9.47707C7.89932 9.07788 7.31636 8.8235 6.69785 8.74372C6.07935 8.66394 5.45092 8.76207 4.88618 9.02661C4.32144 9.29116 3.84379 9.71116 3.50917 10.2374C3.17456 10.7637 2.99684 11.3744 2.99684 11.998C2.99684 12.6216 3.17456 13.2324 3.50917 13.7586C3.84379 14.2849 4.32144 14.7049 4.88618 14.9694C5.45092 15.2339 6.07935 15.3321 6.69785 15.2523C7.31636 15.1725 7.89932 14.9181 8.37844 14.5189L14.4783 17.9521C14.3728 18.6148 14.4731 19.2939 14.7656 19.8978C15.058 20.5018 15.5286 21.0015 16.1139 21.3297C16.6992 21.6579 17.3711 21.7988 18.0389 21.7333C18.7068 21.6678 19.3385 21.3992 19.8489 20.9635C20.3593 20.5279 20.7239 19.9463 20.8935 19.297C21.0631 18.6478 21.0296 17.9621 20.7974 17.3325C20.5653 16.7029 20.1457 16.1597 19.5952 15.7759C19.0447 15.3922 18.3898 15.1864 17.7188 15.1864Z" fill="#666666"/>
</svg>
