<svg width="24" height="24" viewBox="0 0 24 24" fill="none" xmlns="http://www.w3.org/2000/svg">
<path d="M18 15.7499C17.596 15.7497 17.1961 15.8315 16.8245 15.9902C16.453 16.1489 16.1174 16.3813 15.8382 16.6733L8.90067 12.77C9.03505 12.2654 9.03505 11.7344 8.90067 11.2297L15.8382 7.32645C16.3433 7.8502 17.0222 8.1718 17.7474 8.23099C18.4727 8.29017 19.1947 8.0829 19.7781 7.64798C20.3615 7.21306 20.7663 6.58035 20.9167 5.86838C21.0671 5.15641 20.9528 4.41403 20.5951 3.78031C20.2374 3.1466 19.661 2.66503 18.9737 2.42583C18.2865 2.18663 17.5356 2.20621 16.8618 2.48091C16.1879 2.7556 15.6373 3.26655 15.3132 3.91805C14.989 4.56954 14.9135 5.31687 15.1008 6.02004L8.16332 9.92332C7.74892 9.49124 7.21473 9.19304 6.62945 9.06706C6.04417 8.94108 5.43459 8.99309 4.87912 9.21641C4.32365 9.43973 3.8477 9.82413 3.5125 10.3202C3.17729 10.8162 2.99817 11.4012 2.99817 11.9999C2.99817 12.5986 3.17729 13.1836 3.5125 13.6796C3.8477 14.1756 4.32365 14.56 4.87912 14.7834C5.43459 15.0067 6.04417 15.0587 6.62945 14.9327C7.21473 14.8067 7.74892 14.5085 8.16332 14.0764L15.1008 17.9797C14.94 18.5853 14.9728 19.226 15.1946 19.812C15.4164 20.398 15.8161 20.8998 16.3377 21.247C16.8592 21.5943 17.4764 21.7695 18.1026 21.7481C18.7288 21.7268 19.3326 21.5099 19.8292 21.1279C20.3259 20.7459 20.6905 20.218 20.8719 19.6183C21.0532 19.0185 21.0423 18.377 20.8405 17.7839C20.6387 17.1907 20.2563 16.6755 19.7469 16.3108C19.2375 15.946 18.6266 15.7498 18 15.7499Z" fill="#666666"/>
</svg>
