<svg width="24" height="24" viewBox="0 0 24 24" fill="none" xmlns="http://www.w3.org/2000/svg">
<path d="M12.75 8.24584V15.7927H11.25V8.24584H4.31248C4.1633 8.24584 4.02023 8.3051 3.91474 8.41059C3.80925 8.51608 3.74998 8.65916 3.74998 8.80834V21.9333C3.74998 22.0825 3.80925 22.2256 3.91474 22.3311C4.02023 22.4366 4.1633 22.4958 4.31248 22.4958H19.6875C19.8367 22.4958 19.9797 22.4366 20.0852 22.3311C20.1907 22.2256 20.25 22.0825 20.25 21.9333V8.80834C20.25 8.65916 20.1907 8.51608 20.0852 8.41059C19.9797 8.3051 19.8367 8.24584 19.6875 8.24584H12.75ZM12.75 4.33787L15.75 7.33787L16.8108 6.27709L12 1.46631L7.1892 6.27709L8.24999 7.33787L11.25 4.33787V8.24584H12.75V4.33787Z" fill="#666666"/>
</svg>
