<svg width="24" height="24" viewBox="0 0 24 24" fill="none" xmlns="http://www.w3.org/2000/svg">
<path d="M15.7501 5.99609L12.0001 2.24609M12.0001 2.24609L8.25009 5.99609M12.0001 2.24609V15.043M15.7501 8.99609H17.6251C18.1224 8.99609 18.5993 9.19364 18.9509 9.54527C19.3026 9.8969 19.5001 10.3738 19.5001 10.8711V19.8711C19.5001 20.3684 19.3026 20.8453 18.9509 21.1969C18.5993 21.5486 18.1224 21.7461 17.6251 21.7461H6.37509C5.87781 21.7461 5.4009 21.5486 5.04927 21.1969C4.69764 20.8453 4.50009 20.3684 4.50009 19.8711V10.8711C4.50009 10.3738 4.69764 9.8969 5.04927 9.54527C5.4009 9.19364 5.87781 8.99609 6.37509 8.99609H8.25009H15.7501Z" stroke="#666666" stroke-width="1.5" stroke-linecap="round" stroke-linejoin="round"/>
</svg>
