<svg width="24" height="24" viewBox="0 0 24 24" fill="none" xmlns="http://www.w3.org/2000/svg">
<path d="M6.00005 14.2461C7.24269 14.2461 8.25005 13.2387 8.25005 11.9961C8.25005 10.7535 7.24269 9.74609 6.00005 9.74609C4.75741 9.74609 3.75005 10.7535 3.75005 11.9961C3.75005 13.2387 4.75741 14.2461 6.00005 14.2461Z" stroke="#666666" stroke-width="1.5" stroke-linecap="round" stroke-linejoin="round"/>
<path d="M17.9999 7.49878C19.2426 7.49878 20.2499 6.49142 20.2499 5.24878C20.2499 4.00614 19.2426 2.99878 17.9999 2.99878C16.7573 2.99878 15.7499 4.00614 15.7499 5.24878C15.7499 6.49142 16.7573 7.49878 17.9999 7.49878Z" stroke="#666666" stroke-width="1.5" stroke-linecap="round" stroke-linejoin="round"/>
<path d="M17.9999 20.9979C19.2426 20.9979 20.2499 19.9906 20.2499 18.7479C20.2499 17.5053 19.2426 16.4979 17.9999 16.4979C16.7573 16.4979 15.7499 17.5053 15.7499 18.7479C15.7499 19.9906 16.7573 20.9979 17.9999 20.9979Z" stroke="#666666" stroke-width="1.5" stroke-linecap="round" stroke-linejoin="round"/>
<path d="M16.0392 6.35217L7.96077 10.8962M7.96077 13.1022L16.0392 17.6462L7.96077 13.1022Z" stroke="#666666" stroke-width="1.5" stroke-linecap="round" stroke-linejoin="round"/>
</svg>
