<svg width="24" height="24" viewBox="0 0 24 24" fill="none" xmlns="http://www.w3.org/2000/svg">
<path d="M17.6251 8.24758H12.7501V15.0445C12.7501 15.2434 12.6711 15.4341 12.5304 15.5748C12.3898 15.7154 12.199 15.7945 12.0001 15.7945C11.8012 15.7945 11.6104 15.7154 11.4698 15.5748C11.3291 15.4341 11.2501 15.2434 11.2501 15.0445V8.24758H6.37509C5.67913 8.24832 5.01188 8.52513 4.51976 9.01725C4.02764 9.50937 3.75084 10.1766 3.75009 10.8726V19.8726C3.75084 20.5686 4.02764 21.2358 4.51976 21.7279C5.01188 22.22 5.67913 22.4968 6.37509 22.4976H17.6251C18.3211 22.4968 18.9883 22.22 19.4804 21.7279C19.9726 21.2358 20.2494 20.5686 20.2501 19.8726V10.8726C20.2494 10.1766 19.9726 9.50937 19.4804 9.01725C18.9883 8.52513 18.3211 8.24832 17.6251 8.24758ZM12.7501 4.05836L15.2199 6.52774C15.3617 6.66245 15.5505 6.73644 15.7461 6.73394C15.9417 6.73144 16.1285 6.65263 16.2668 6.51433C16.4051 6.37603 16.484 6.18917 16.4865 5.9936C16.489 5.79803 16.415 5.60922 16.2803 5.46742L12.5302 1.71742C12.3896 1.57687 12.1989 1.49792 12.0001 1.49792C11.8013 1.49792 11.6106 1.57687 11.4699 1.71742L7.71994 5.46742C7.58522 5.60922 7.51123 5.79803 7.51373 5.9936C7.51624 6.18917 7.59504 6.37603 7.73334 6.51433C7.87164 6.65263 8.0585 6.73144 8.25407 6.73394C8.44964 6.73644 8.63845 6.66245 8.78025 6.52774L11.2501 4.05836V8.24758H12.7501V4.05836Z" fill="#666666"/>
</svg>
