<svg width="24" height="24" viewBox="0 0 24 24" fill="none" xmlns="http://www.w3.org/2000/svg">
<path d="M22.4564 5.21793C22.4458 5.05039 22.3793 4.89125 22.2675 4.76598C22.1558 4.64072 22.0052 4.55656 21.84 4.527C17.7853 3.7995 16.0926 3.27356 12.3089 1.56449C12.2118 1.52062 12.1065 1.49792 12 1.49792C11.8935 1.49792 11.7882 1.52062 11.6911 1.56449C7.90733 3.27356 6.21468 3.7995 2.15999 4.527C1.99474 4.55656 1.84419 4.64072 1.73243 4.76598C1.62068 4.89125 1.55418 5.05039 1.54358 5.21793C1.36311 8.08246 1.74796 10.7515 2.68874 13.1511C3.45914 15.1083 4.59928 16.8989 6.04686 18.425C8.55327 21.0842 11.2144 22.2392 11.722 22.4436C11.9024 22.5165 12.1041 22.5165 12.2845 22.4436C12.7922 22.2392 15.4533 21.0842 17.9597 18.425C19.4049 16.8983 20.5428 15.1078 21.3112 13.1511C22.252 10.7515 22.6369 8.08246 22.4564 5.21793ZM16.3158 8.73872L11.122 14.7387C11.0552 14.8161 10.9733 14.879 10.8814 14.9236C10.7894 14.9681 10.6893 14.9935 10.5872 14.9979H10.5562C10.3599 14.998 10.1715 14.9211 10.0312 14.7837L7.72499 12.5243C7.65463 12.4554 7.59854 12.3733 7.55992 12.2826C7.5213 12.192 7.50091 12.0947 7.4999 11.9962C7.49788 11.7972 7.57497 11.6057 7.71421 11.4636C7.85345 11.3215 8.04343 11.2405 8.24237 11.2385C8.4413 11.2365 8.63289 11.3135 8.77499 11.4528L10.5094 13.1539L15.1828 7.75715C15.2473 7.68267 15.3257 7.62161 15.4138 7.57746C15.5018 7.53331 15.5977 7.50693 15.696 7.49984C15.7942 7.49274 15.8929 7.50507 15.9864 7.53611C16.0798 7.56715 16.1663 7.6163 16.2408 7.68075C16.3153 7.7452 16.3763 7.82369 16.4205 7.91173C16.4646 7.99978 16.491 8.09566 16.4981 8.19391C16.5052 8.29215 16.4929 8.39082 16.4618 8.4843C16.4308 8.57778 16.3816 8.66423 16.3172 8.73872H16.3158Z" fill="#666666"/>
</svg>
