<svg width="24" height="24" viewBox="0 0 24 24" fill="none" xmlns="http://www.w3.org/2000/svg">
<path d="M22.4565 5.21533L22.4194 4.62798L21.8401 4.52439C17.7854 3.79689 16.0927 3.27095 12.309 1.56189L12.0001 1.42126L11.6912 1.56189C7.90741 3.27095 6.21475 3.79689 2.16007 4.52439L1.58069 4.62798L1.54366 5.21533C1.36319 8.07986 1.74803 10.7489 2.68882 13.1485C3.45922 15.1057 4.59935 16.8963 6.04694 18.4224C8.55335 21.0816 11.2144 22.2366 11.7221 22.441L12.0033 22.5539L12.2846 22.441C12.7923 22.2366 15.4533 21.0816 17.9598 18.4224C19.405 16.8957 20.5429 15.1052 21.3113 13.1485C22.2521 10.7489 22.6369 8.07986 22.4565 5.21533ZM10.6013 15.3403L7.18928 11.9953L8.23928 10.9238L10.5113 13.1499L15.6737 7.18736L16.808 8.16892L10.6013 15.3403Z" fill="#666666"/>
</svg>
