<svg width="24" height="24" viewBox="0 0 24 24" fill="none" xmlns="http://www.w3.org/2000/svg">
<path d="M12 1.49878C8.15623 3.23597 5.68966 4.05159 1.49998 4.49878C1.49998 8.13581 1.74701 10.75 2.68545 13.1477C3.4528 15.1028 4.58961 16.8918 6.03373 18.4169C8.35873 20.8853 10.9167 22.1857 12 22.4988C13.0833 22.1857 15.6412 20.8853 17.9662 18.4169C19.4104 16.8918 20.5472 15.1028 21.3145 13.1477C22.2529 10.75 22.5 8.13581 22.5 4.49878C18.3103 4.05159 15.8437 3.23597 12 1.49878ZM19.5689 12.4642C18.8884 14.1959 17.8808 15.7804 16.6012 17.1311C14.8125 19.03 12.9679 20.0758 12 20.5V3.5519C13.8164 4.34878 15.2217 4.87847 16.5904 5.28112C17.9055 5.66578 19.2465 5.95589 20.6029 6.14925C20.5223 8.97206 20.2111 10.8222 19.5689 12.4642Z" fill="#666666"/>
</svg>
