<svg width="24" height="24" viewBox="0 0 24 24" fill="none" xmlns="http://www.w3.org/2000/svg">
<path d="M22.4564 5.21779C22.4459 5.05016 22.3794 4.89092 22.2677 4.76555C22.1559 4.64019 22.0053 4.55597 21.84 4.52638C17.8073 3.80357 16.1104 3.23825 12.4687 1.5995C12.105 1.46404 11.8795 1.46638 11.5312 1.5995C7.88949 3.24013 6.19261 3.80263 2.15995 4.52638C1.99463 4.55597 1.84402 4.64019 1.73226 4.76555C1.62049 4.89092 1.55404 5.05016 1.54355 5.21779C1.36308 8.08185 1.74699 10.749 2.68542 13.1467C3.45278 15.1018 4.58958 16.8908 6.0337 18.4159C8.12761 20.6392 10.4493 21.9372 11.6465 22.4284C11.8735 22.521 12.1278 22.521 12.3548 22.4284C13.6204 21.9165 15.8559 20.6556 17.9662 18.415C19.4102 16.8902 20.547 15.1015 21.3145 13.1467C22.2529 10.7495 22.6368 8.08185 22.4564 5.21779Z" fill="#666666"/>
</svg>
