<svg width="24" height="24" viewBox="0 0 24 24" fill="none" xmlns="http://www.w3.org/2000/svg">
<g clip-path="url(#clip0_32_3336)">
<path d="M12 4.49878C13.5506 4.49878 14.8458 3.29034 15 1.78003C15.0141 1.6394 14.8594 1.49878 14.7187 1.49878C14.6427 1.49885 14.5673 1.51316 14.4966 1.54097C14.4872 1.54472 13.5075 1.92065 12 1.92065C10.4925 1.92065 9.51093 1.54565 9.50343 1.54097C9.42354 1.51317 9.33957 1.49892 9.25499 1.49878H9.25218C9.21713 1.50064 9.1828 1.50939 9.15115 1.52454C9.11949 1.53969 9.09114 1.56094 9.06771 1.58706C9.04428 1.61319 9.02624 1.64369 9.01462 1.6768C9.003 1.70991 8.99803 1.74499 8.99999 1.78003C9.15702 3.28753 10.4531 4.49878 12 4.49878Z" fill="#666666"/>
<path d="M22.7481 4.21351L16.6876 2.09195C16.6617 2.0829 16.6341 2.07966 16.6067 2.08246C16.5794 2.08526 16.553 2.09404 16.5294 2.10817C16.5059 2.12231 16.4857 2.14145 16.4703 2.16424C16.455 2.18703 16.4448 2.21292 16.4406 2.24007C16.2653 3.29057 15.723 4.24483 14.9103 4.93315C14.0976 5.62146 13.067 5.99921 12.002 5.99921C10.937 5.99921 9.90646 5.62146 9.09373 4.93315C8.28101 4.24483 7.73876 3.29057 7.56341 2.24007C7.5593 2.21247 7.54908 2.18613 7.53349 2.16298C7.5179 2.13983 7.49734 2.12045 7.47331 2.10626C7.44928 2.09206 7.42239 2.08341 7.39459 2.08094C7.36679 2.07846 7.33879 2.08222 7.31263 2.09195L1.25216 4.21351C1.08253 4.27289 0.939865 4.39121 0.850133 4.54693C0.760401 4.70265 0.72957 4.88541 0.763252 5.06195L1.54278 9.18695C1.57278 9.34418 1.6523 9.48768 1.7697 9.59648C1.8871 9.70528 2.03623 9.77367 2.19528 9.79164L4.48653 10.0504C4.58007 10.0609 4.66621 10.1063 4.72787 10.1774C4.78952 10.2485 4.82218 10.3402 4.81935 10.4343L4.47575 21.7265C4.4712 21.872 4.50911 22.0157 4.58485 22.1401C4.6606 22.2645 4.77091 22.3641 4.90232 22.4268C5.01155 22.4762 5.13027 22.501 5.25013 22.4995H18.7501C18.87 22.501 18.9887 22.4762 19.0979 22.4268C19.2294 22.3641 19.3397 22.2645 19.4154 22.1401C19.4912 22.0157 19.5291 21.872 19.5245 21.7265L19.1809 10.4343C19.1781 10.3402 19.2107 10.2485 19.2724 10.1774C19.3341 10.1063 19.4202 10.0609 19.5137 10.0504L21.805 9.79164C21.964 9.77367 22.1132 9.70528 22.2306 9.59648C22.348 9.48768 22.4275 9.34418 22.4575 9.18695L23.237 5.06195C23.2707 4.88541 23.2399 4.70265 23.1501 4.54693C23.0604 4.39121 22.9177 4.27289 22.7481 4.21351Z" fill="#666666"/>
</g>
<defs>
<clipPath id="clip0_32_3336">
<rect width="24" height="24" fill="white" transform="translate(0.00012207 -0.00390625)"/>
</clipPath>
</defs>
</svg>
