<svg width="24" height="24" viewBox="0 0 24 24" fill="none" xmlns="http://www.w3.org/2000/svg">
<path d="M15.6239 2.46551C15.4114 3.26433 14.9408 3.97055 14.2855 4.47433C13.6301 4.97812 12.8266 5.25124 12 5.25124C11.1734 5.25124 10.3699 4.97812 9.71456 4.47433C9.0592 3.97055 8.58865 3.26433 8.3761 2.46551M14.745 2.24707C14.745 2.24707 13.6772 2.62207 12 2.62207C10.3228 2.62207 9.25501 2.24707 9.25501 2.24707C9.08628 2.24708 8.91876 2.2756 8.75954 2.33145L1.50001 4.87207L2.27954 8.99707L4.57079 9.25582C4.85138 9.28758 5.10977 9.42369 5.29465 9.63714C5.47953 9.85059 5.57737 10.1258 5.56876 10.408L5.25001 21.7471H18.75L18.4313 10.408C18.4226 10.1258 18.5205 9.85059 18.7054 9.63714C18.8902 9.42369 19.1486 9.28758 19.4292 9.25582L21.7205 8.99707L22.5 4.87207L15.2405 2.33145C15.0813 2.2756 14.9137 2.24708 14.745 2.24707V2.24707Z" stroke="#666666" stroke-width="1.5" stroke-linecap="round" stroke-linejoin="round"/>
</svg>
