<svg width="24" height="24" viewBox="0 0 24 24" fill="none" xmlns="http://www.w3.org/2000/svg">
<path d="M12.0001 1.96753C10.4119 1.96753 9.00007 1.49878 9.00007 1.49878V1.59253C9.00007 2.38818 9.31614 3.15124 9.87875 3.71385C10.4414 4.27646 11.2044 4.59253 12.0001 4.59253C12.7957 4.59253 13.5588 4.27646 14.1214 3.71385C14.684 3.15124 15.0001 2.38818 15.0001 1.59253V1.49878C15.0001 1.49878 13.5882 1.96753 12.0001 1.96753Z" fill="#666666"/>
<path d="M16.5 2.06226C16.2427 4.30101 14.3068 6.04663 12 6.04663C9.69333 6.04663 7.75739 4.30101 7.50004 2.06226L0.750042 4.40601L1.59379 9.74976L4.48645 10.0976C4.81832 10.1398 4.81926 10.1398 4.81926 10.4815L4.50004 22.4998H19.5L19.1808 10.4815C19.171 10.1534 19.171 10.1534 19.5136 10.0976L22.4063 9.74976L23.25 4.40601L16.5 2.06226Z" fill="#666666"/>
</svg>
