<svg width="24" height="24" viewBox="0 0 24 24" fill="none" xmlns="http://www.w3.org/2000/svg">
<path d="M3.00011 16.4988H6.99339C7.61069 16.4988 8.21845 16.3464 8.76272 16.0551C9.30699 15.7638 9.77094 15.3427 10.1134 14.8291L12.0001 11.9988M18.7501 14.2488L21.0001 16.4988L18.7501 18.7488V14.2488ZM18.7501 5.24878L21.0001 7.49878L18.7501 9.74878V5.24878Z" stroke="#666666" stroke-width="1.5" stroke-linecap="round" stroke-linejoin="round"/>
<path d="M3.00011 7.49792H6.99339C7.6107 7.49794 8.21845 7.65034 8.76272 7.94161C9.30699 8.23288 9.77094 8.654 10.1134 9.16761L13.8868 14.8282C14.2293 15.3418 14.6932 15.763 15.2375 16.0542C15.7818 16.3455 16.3895 16.4979 17.0068 16.4979H19.5001M19.5001 7.49792H17.0068C16.3895 7.49794 15.7818 7.65034 15.2375 7.94161C14.6932 8.23288 14.2293 8.654 13.8868 9.16761L13.5001 9.74793" stroke="#666666" stroke-width="1.5" stroke-linecap="round" stroke-linejoin="round"/>
</svg>
