<svg width="24" height="24" viewBox="0 0 24 24" fill="none" xmlns="http://www.w3.org/2000/svg">
<path d="M3.00004 16.4998H6.99332C7.61063 16.4997 8.21838 16.3473 8.76265 16.0561C9.30692 15.7648 9.77087 15.3437 10.1133 14.8301L12 11.9998M18.75 14.2498L21 16.4998L18.75 18.7498V14.2498ZM18.75 5.24976L21 7.49976L18.75 9.74976V5.24976Z" stroke="#666666" stroke-width="1.5" stroke-linecap="round" stroke-linejoin="round"/>
<path d="M3.00004 7.49878H6.99332C7.61063 7.49879 8.21838 7.65119 8.76265 7.94246C9.30692 8.23373 9.77087 8.65486 10.1133 9.16847L13.8868 14.8291C14.2292 15.3427 14.6932 15.7638 15.2374 16.0551C15.7817 16.3464 16.3895 16.4988 17.0068 16.4988H19.5M19.5 7.49878H17.0068C16.3895 7.49879 15.7817 7.65119 15.2374 7.94246C14.6932 8.23373 14.2292 8.65486 13.8868 9.16847L13.5 9.74878" stroke="#666666" stroke-width="1.5" stroke-linecap="round" stroke-linejoin="round"/>
</svg>
