<svg width="24" height="24" viewBox="0 0 24 24" fill="none" xmlns="http://www.w3.org/2000/svg">
<path d="M12 0.74707C6.6239 0.74707 2.24999 5.12098 2.24999 10.4971V17.7547L6.09374 19.2927L6.88499 23.2471H8.99999V20.2471H10.5V23.2471H11.25V20.2471H12.75V23.2471H13.5V20.2471H15V23.2471H17.115L17.9062 19.2927L21.75 17.7547V10.4971C21.75 5.12098 17.3761 0.74707 12 0.74707ZM7.87499 15.7471C7.35581 15.7471 6.8483 15.5931 6.41662 15.3047C5.98494 15.0162 5.64849 14.6063 5.44981 14.1266C5.25113 13.647 5.19914 13.1192 5.30043 12.61C5.40171 12.1008 5.65172 11.633 6.01883 11.2659C6.38595 10.8988 6.85368 10.6488 7.36288 10.5475C7.87208 10.4462 8.39988 10.4982 8.87953 10.6969C9.35919 10.8956 9.76916 11.232 10.0576 11.6637C10.346 12.0954 10.5 12.6029 10.5 13.1221C10.4992 13.818 10.2224 14.4853 9.73032 14.9774C9.2382 15.4695 8.57095 15.7463 7.87499 15.7471ZM10.2895 18.7471L11.4375 14.9971H12.5625L13.7105 18.7471H10.2895ZM16.125 15.7471C15.6058 15.7471 15.0983 15.5931 14.6666 15.3047C14.2349 15.0162 13.8985 14.6063 13.6998 14.1266C13.5011 13.647 13.4491 13.1192 13.5504 12.61C13.6517 12.1008 13.9017 11.633 14.2688 11.2659C14.6359 10.8988 15.1037 10.6488 15.6129 10.5475C16.1221 10.4462 16.6499 10.4982 17.1295 10.6969C17.6092 10.8956 18.0192 11.232 18.3076 11.6637C18.596 12.0954 18.75 12.6029 18.75 13.1221C18.7492 13.818 18.4724 14.4853 17.9803 14.9774C17.4882 15.4695 16.821 15.7463 16.125 15.7471Z" fill="#666666"/>
</svg>
