<svg width="24" height="24" viewBox="0 0 24 24" fill="none" xmlns="http://www.w3.org/2000/svg">
<path d="M18.8438 3.60363C16.9974 1.76098 14.5679 0.74707 12.0001 0.74707H11.9827C9.39988 0.751665 6.92438 1.78092 5.09965 3.6089C3.27492 5.43689 2.25008 7.91421 2.25008 10.4971V15.216C2.24717 15.9664 2.47056 16.7003 2.89108 17.3219C3.31161 17.9434 3.90975 18.4238 4.60742 18.7002L5.71883 19.1418C5.83488 19.1878 5.93754 19.2622 6.01738 19.3582C6.09723 19.4542 6.15172 19.5686 6.17586 19.6911L6.64461 22.041C6.71329 22.3806 6.89713 22.6861 7.16505 22.9059C7.43298 23.1257 7.76856 23.2462 8.11508 23.2471H8.62508C8.72454 23.2471 8.81992 23.2076 8.89025 23.1372C8.96057 23.0669 9.00008 22.9715 9.00008 22.8721V21.0182C9.00008 20.6146 9.31039 20.2682 9.71399 20.248C9.81539 20.2431 9.91674 20.2589 10.0119 20.2943C10.107 20.3298 10.194 20.3841 10.2675 20.4542C10.341 20.5242 10.3995 20.6084 10.4395 20.7018C10.4794 20.7951 10.5001 20.8955 10.5001 20.9971V22.8721C10.5001 22.9715 10.5396 23.0669 10.6099 23.1372C10.6802 23.2076 10.7756 23.2471 10.8751 23.2471C10.9745 23.2471 11.0699 23.2076 11.1402 23.1372C11.2106 23.0669 11.2501 22.9715 11.2501 22.8721V21.0182C11.2501 20.6146 11.5604 20.2682 11.964 20.248C12.0654 20.2431 12.1667 20.2589 12.2619 20.2943C12.357 20.3298 12.444 20.3841 12.5175 20.4542C12.591 20.5242 12.6495 20.6084 12.6895 20.7018C12.7294 20.7951 12.7501 20.8955 12.7501 20.9971V22.8721C12.7501 22.9715 12.7896 23.0669 12.8599 23.1372C12.9302 23.2076 13.0256 23.2471 13.1251 23.2471C13.2245 23.2471 13.3199 23.2076 13.3902 23.1372C13.4606 23.0669 13.5001 22.9715 13.5001 22.8721V21.0182C13.5001 20.6146 13.8104 20.2682 14.214 20.248C14.3154 20.2431 14.4167 20.2589 14.5119 20.2943C14.607 20.3298 14.694 20.3841 14.7675 20.4542C14.841 20.5242 14.8995 20.6084 14.9395 20.7018C14.9795 20.7951 15.0001 20.8955 15.0001 20.9971V22.8721C15.0001 22.9715 15.0396 23.0669 15.1099 23.1372C15.1802 23.2076 15.2756 23.2471 15.3751 23.2471H15.8851C16.2316 23.2463 16.5673 23.1259 16.8353 22.9062C17.1033 22.6866 17.2872 22.3811 17.356 22.0415L17.8248 19.6911C17.8492 19.5688 17.9037 19.4545 17.9834 19.3586C18.0632 19.2627 18.1656 19.1881 18.2813 19.1418L19.3927 18.7002C20.0904 18.4238 20.6885 17.9434 21.1091 17.3219C21.5296 16.7003 21.753 15.9664 21.7501 15.216V10.5754C21.7501 7.95035 20.7188 5.47488 18.8438 3.60363ZM8.04664 15.7414C7.51398 15.7763 6.98333 15.648 6.52548 15.3736C6.06762 15.0991 5.70432 14.6916 5.48403 14.2054C5.26373 13.7191 5.19691 13.1773 5.29248 12.6521C5.38804 12.1269 5.64145 11.6434 6.01891 11.2659C6.39637 10.8884 6.87994 10.635 7.40512 10.5395C7.93031 10.4439 8.47214 10.5107 8.95837 10.731C9.4446 10.9513 9.85212 11.3146 10.1266 11.7725C10.401 12.2303 10.5293 12.761 10.4945 13.2936C10.4528 13.9292 10.1816 14.5279 9.73122 14.9782C9.28088 15.4286 8.68217 15.6998 8.04664 15.7414ZM13.172 18.6182C13.043 18.7042 12.891 18.7491 12.736 18.7471H11.2641C11.1095 18.7489 10.9578 18.704 10.8291 18.6182C10.7034 18.533 10.6066 18.4116 10.5513 18.2702C10.4961 18.1287 10.4851 17.9738 10.5198 17.826L11.2655 15.5947C11.3907 15.2783 11.5899 15.0439 11.9063 15.0032C12.2935 14.9563 12.5626 15.1377 12.7318 15.576L13.4818 17.826C13.5164 17.9739 13.5054 18.1288 13.45 18.2702C13.3947 18.4117 13.2977 18.533 13.172 18.6182ZM16.2976 15.7414C15.7649 15.7763 15.2343 15.648 14.7764 15.3736C14.3186 15.0991 13.9553 14.6916 13.735 14.2054C13.5147 13.7191 13.4478 13.1773 13.5434 12.6521C13.639 12.1269 13.8924 11.6434 14.2699 11.2659C14.6473 10.8884 15.1309 10.635 15.6561 10.5395C16.1812 10.4439 16.7231 10.5107 17.2093 10.731C17.6955 10.9513 18.1031 11.3146 18.3775 11.7725C18.6519 12.2303 18.7803 12.761 18.7454 13.2936C18.7037 13.9293 18.4324 14.5281 17.9818 14.9785C17.5313 15.4289 16.9323 15.7 16.2966 15.7414H16.2976Z" fill="#666666"/>
</svg>
