<svg width="24" height="24" viewBox="0 0 24 24" fill="none" xmlns="http://www.w3.org/2000/svg">
<path d="M21 10.5766V15.2173C20.9999 15.8168 20.8203 16.4026 20.4841 16.8991C20.148 17.3955 19.6708 17.7799 19.1142 18.0026L18.0042 18.4465C17.7724 18.5393 17.5674 18.6886 17.4078 18.8807C17.2483 19.0728 17.1392 19.3017 17.0906 19.5466L16.6218 21.897C16.5878 22.0672 16.4957 22.2203 16.3613 22.3303C16.2269 22.4402 16.0586 22.5001 15.885 22.4998H8.11495C7.94158 22.4998 7.77356 22.4397 7.63947 22.3298C7.50538 22.2199 7.41351 22.067 7.37949 21.897L6.90933 19.5466C6.86045 19.302 6.7513 19.0734 6.59178 18.8815C6.43225 18.6896 6.22739 18.5406 5.99574 18.4479L4.88574 18.004C4.32907 17.7813 3.8519 17.397 3.51577 16.9005C3.17964 16.404 2.99997 15.8182 2.99995 15.2187V10.4998C2.99995 5.53477 7.02042 1.50868 11.9835 1.49977C16.9467 1.49086 21 5.61774 21 10.5766Z" stroke="#666666" stroke-width="1.5" stroke-miterlimit="10" stroke-linecap="round"/>
<path d="M7.87493 14.9988C8.91047 14.9988 9.74993 14.1593 9.74993 13.1238C9.74993 12.0882 8.91047 11.2488 7.87493 11.2488C6.8394 11.2488 5.99993 12.0882 5.99993 13.1238C5.99993 14.1593 6.8394 14.9988 7.87493 14.9988Z" stroke="#666666" stroke-width="1.5" stroke-miterlimit="10" stroke-linecap="round"/>
<path d="M16.125 14.9988C17.1605 14.9988 18 14.1593 18 13.1238C18 12.0882 17.1605 11.2488 16.125 11.2488C15.0894 11.2488 14.25 12.0882 14.25 13.1238C14.25 14.1593 15.0894 14.9988 16.125 14.9988Z" stroke="#666666" stroke-width="1.5" stroke-miterlimit="10" stroke-linecap="round"/>
<path d="M14.2501 20.9971V22.4971M12.0001 15.7471L11.2501 17.9971H12.7501L12.0001 15.7471ZM12.0001 20.9971V22.4971V20.9971ZM9.75007 20.9971V22.4971V20.9971Z" stroke="#666666" stroke-width="1.5" stroke-linecap="round" stroke-linejoin="round"/>
</svg>
