<svg width="24" height="24" viewBox="0 0 24 24" fill="none" xmlns="http://www.w3.org/2000/svg">
<path d="M20.9944 14.6816L21.8967 14.1829L20.8992 12.3777L19.9969 12.8764C19.305 13.2593 18.692 13.7699 18.1903 14.3811L14.0625 11.9971L18.1908 9.61301C18.6924 10.2243 19.3055 10.7349 19.9974 11.1177L20.8997 11.6164L21.8972 9.81129L20.9949 9.31254C20.6325 9.11244 20.3019 8.85969 20.0138 8.56254L22.5 7.12442L21.4688 5.34082L18.9844 6.77426C18.8704 6.37588 18.8164 5.96276 18.8241 5.54848L18.8433 4.51723L16.7808 4.47879L16.7616 5.51004C16.747 6.29995 16.8821 7.08548 17.1595 7.8252L13.0313 10.2107V5.44301C13.8113 5.31399 14.5598 5.03835 15.2372 4.63066L16.1203 4.09863L15.0558 2.33191L14.1727 2.86395C13.8177 3.0774 13.433 3.2371 13.0313 3.33785V0.74707H10.9688V3.33785C10.567 3.2371 10.1823 3.0774 9.82735 2.86395L8.94422 2.33191L7.87969 4.09863L8.76282 4.63066C9.44022 5.03835 10.1887 5.31399 10.9688 5.44301V10.2107L6.84047 7.8252C7.11883 7.08502 7.2545 6.29883 7.24032 5.50817L7.2211 4.47691L5.1586 4.51535L5.17782 5.5466C5.1855 5.96089 5.13147 6.37401 5.01751 6.77238L2.53126 5.34082L1.50001 7.12676L3.98672 8.56301C3.69859 8.86016 3.36796 9.11291 3.00563 9.31301L2.10329 9.81129L3.10079 11.6164L4.00313 11.1177C4.69503 10.7349 5.30805 10.2243 5.80969 9.61301L9.93751 11.9971L5.80922 14.3811C5.30758 13.7699 4.69456 13.2593 4.00266 12.8764L3.10079 12.3777L2.10329 14.1829L3.00563 14.6816C3.36796 14.8817 3.69859 15.1345 3.98672 15.4316L1.50001 16.8721L2.53126 18.658L5.01797 17.2222C5.13194 17.6206 5.18597 18.0337 5.17829 18.448L5.15907 19.4793L7.22157 19.5177L7.24079 18.4865C7.25488 17.6956 7.11905 16.9092 6.84047 16.1689L10.9688 13.7835V18.5511C10.1887 18.6802 9.44022 18.9558 8.76282 19.3635L7.87969 19.8955L8.94422 21.6622L9.82735 21.1302C10.1823 20.9167 10.567 20.757 10.9688 20.6563V23.2471H13.0313V20.6563C13.433 20.757 13.8177 20.9167 14.1727 21.1302L15.0558 21.6622L16.1203 19.8955L15.2372 19.3635C14.5598 18.9558 13.8113 18.6802 13.0313 18.5511V13.7835L17.1595 16.1689C16.8812 16.9091 16.7455 17.6953 16.7597 18.486L16.7789 19.5172L18.8414 19.4788L18.8222 18.4475C18.8149 18.0325 18.8696 17.6188 18.9844 17.2199L21.4688 18.6557L22.5 16.8721L20.0156 15.4335C20.3029 15.1359 20.6328 14.8825 20.9944 14.6816Z" fill="#666666"/>
</svg>
