<svg width="24" height="24" viewBox="0 0 24 24" fill="none" xmlns="http://www.w3.org/2000/svg">
<path d="M21.6094 16.3564L20.0156 15.4358C20.304 15.1388 20.6348 14.886 20.9972 14.6858C21.2341 14.5522 21.4087 14.3305 21.4829 14.0688C21.5571 13.8072 21.5249 13.5268 21.3933 13.2887C21.2618 13.0507 21.0415 12.8742 20.7805 12.7978C20.5195 12.7214 20.2389 12.7512 19.9997 12.8807C19.3078 13.2636 18.6946 13.7742 18.1927 14.3854L14.0625 11.9971L18.1917 9.61301C18.6935 10.2243 19.3067 10.7349 19.9988 11.1177C20.1174 11.1846 20.2481 11.2273 20.3833 11.2434C20.5185 11.2595 20.6555 11.2487 20.7866 11.2115C20.9176 11.1744 21.0399 11.1117 21.1465 11.027C21.2532 10.9423 21.342 10.8373 21.4078 10.7182C21.4737 10.599 21.5153 10.4679 21.5302 10.3326C21.5452 10.1972 21.5332 10.0603 21.4949 9.92959C21.4567 9.79891 21.3929 9.6771 21.3073 9.57119C21.2217 9.46529 21.116 9.37738 20.9963 9.31254C20.634 9.11221 20.3032 8.85948 20.0147 8.56254L21.6084 7.64192C21.7304 7.57674 21.8379 7.48772 21.9247 7.38014C22.0116 7.27257 22.0759 7.14863 22.1138 7.01571C22.1518 6.88279 22.1626 6.74359 22.1457 6.60639C22.1288 6.46919 22.0845 6.33679 22.0154 6.21706C21.9463 6.09733 21.8539 5.99271 21.7435 5.90942C21.6332 5.82613 21.5073 5.76588 21.3732 5.73224C21.2391 5.6986 21.0996 5.69226 20.963 5.71359C20.8265 5.73493 20.6956 5.78351 20.5781 5.85645L18.9844 6.7766C18.8709 6.37813 18.8169 5.96508 18.8241 5.55082C18.8271 5.41516 18.8032 5.28023 18.754 5.15379C18.7047 5.02735 18.631 4.91187 18.537 4.81398C18.443 4.71609 18.3307 4.6377 18.2063 4.58332C18.082 4.52894 17.9482 4.49963 17.8125 4.49707H17.7933C17.5231 4.49702 17.2637 4.60303 17.0708 4.79229C16.8779 4.98155 16.7671 5.23894 16.762 5.5091C16.7475 6.29936 16.8827 7.08522 17.1605 7.8252L13.0313 10.2107V5.44301C13.8115 5.31407 14.5601 5.03842 15.2377 4.63066C15.472 4.4895 15.6406 4.26105 15.7064 3.99557C15.7722 3.73009 15.7299 3.44932 15.5888 3.21504C15.4476 2.98076 15.2191 2.81215 14.9537 2.74631C14.6882 2.68046 14.4074 2.72278 14.1731 2.86395C13.818 3.0774 13.4332 3.2371 13.0313 3.33785V1.77832C13.0313 1.50482 12.9226 1.24251 12.7292 1.04912C12.5358 0.85572 12.2735 0.74707 12 0.74707C11.7265 0.74707 11.4642 0.85572 11.2708 1.04912C11.0774 1.24251 10.9688 1.50482 10.9688 1.77832V3.33785C10.5668 3.2371 10.182 3.0774 9.82689 2.86395C9.5926 2.72278 9.31184 2.68046 9.04636 2.74631C8.78088 2.81215 8.55243 2.98076 8.41126 3.21504C8.2701 3.44932 8.22778 3.73009 8.29362 3.99557C8.35947 4.26105 8.52807 4.4895 8.76235 4.63066C9.43989 5.03842 10.1886 5.31407 10.9688 5.44301V10.2107L6.83954 7.8252C7.11775 7.08499 7.25326 6.2988 7.23892 5.50817C7.23388 5.23801 7.12301 4.98061 6.93016 4.79135C6.73731 4.60209 6.47787 4.49609 6.20767 4.49613H6.18751C6.05208 4.49863 5.91847 4.52779 5.7943 4.58194C5.67014 4.63609 5.55786 4.71417 5.46388 4.81172C5.3699 4.90927 5.29606 5.02438 5.24658 5.15047C5.19709 5.27656 5.17293 5.41117 5.17548 5.5466C5.18304 5.96147 5.12917 6.37516 5.01564 6.77426L3.42189 5.85645C3.30452 5.78644 3.17442 5.74045 3.03913 5.72117C2.90384 5.70188 2.76606 5.70968 2.63381 5.7441C2.50156 5.77852 2.37747 5.83889 2.26875 5.92169C2.16004 6.00449 2.06886 6.10807 2.00053 6.22642C1.93219 6.34476 1.88806 6.47551 1.87069 6.61106C1.85333 6.74661 1.86308 6.88426 1.89938 7.01601C1.93568 7.14776 1.9978 7.27098 2.08213 7.37851C2.16647 7.48604 2.27133 7.57574 2.39064 7.64238L3.98439 8.56301C3.69589 8.85995 3.36514 9.11267 3.00282 9.31301C2.88308 9.37785 2.77737 9.46576 2.69178 9.57166C2.60619 9.67757 2.54243 9.79938 2.50416 9.93006C2.4659 10.0607 2.45389 10.1977 2.46884 10.333C2.48378 10.4684 2.52539 10.5994 2.59125 10.7186C2.6571 10.8378 2.74591 10.9428 2.85255 11.0274C2.95918 11.1121 3.08153 11.1748 3.21253 11.212C3.34354 11.2491 3.4806 11.26 3.61581 11.2439C3.75102 11.2278 3.88171 11.185 4.00032 11.1182C4.69226 10.7352 5.30541 10.2246 5.80735 9.61348L9.93751 11.9971L5.80829 14.3811C5.30635 13.77 4.6932 13.2594 4.00126 12.8764C3.88265 12.8096 3.75196 12.7669 3.61675 12.7507C3.48154 12.7346 3.34448 12.7455 3.21347 12.7826C3.08247 12.8198 2.96012 12.8825 2.85349 12.9672C2.74685 13.0519 2.65804 13.1568 2.59218 13.276C2.52632 13.3952 2.48472 13.5262 2.46978 13.6616C2.45483 13.7969 2.46683 13.9339 2.5051 14.0646C2.54336 14.1952 2.60713 14.317 2.69272 14.423C2.77831 14.5289 2.88402 14.6168 3.00376 14.6816C3.36607 14.8819 3.69683 15.1347 3.98532 15.4316L2.39064 16.3564C2.27133 16.4231 2.16647 16.5128 2.08213 16.6203C1.9978 16.7279 1.93568 16.8511 1.89938 16.9828C1.86308 17.1146 1.85333 17.2522 1.87069 17.3878C1.88806 17.5233 1.93219 17.6541 2.00053 17.7724C2.06886 17.8908 2.16004 17.9943 2.26875 18.0771C2.37747 18.1599 2.50156 18.2203 2.63381 18.2547C2.76606 18.2892 2.90384 18.297 3.03913 18.2777C3.17442 18.2584 3.30452 18.2124 3.42189 18.1424L5.01564 17.2222C5.12915 17.6207 5.18317 18.0338 5.17595 18.448C5.17118 18.7212 5.27503 18.9851 5.46469 19.1818C5.65435 19.3785 5.91432 19.4919 6.18751 19.4971H6.20673C6.47694 19.4971 6.73637 19.3911 6.92922 19.2019C7.12208 19.0126 7.23294 18.7552 7.23798 18.485C7.2525 17.6948 7.11731 16.9089 6.83954 16.1689L10.9688 13.7835V18.5511C10.1886 18.6801 9.43989 18.9557 8.76235 19.3635C8.52807 19.5046 8.35947 19.7331 8.29362 19.9986C8.22778 20.2641 8.2701 20.5448 8.41126 20.7791C8.55243 21.0134 8.78088 21.182 9.04636 21.2478C9.31184 21.3137 9.5926 21.2714 9.82689 21.1302C10.182 20.9167 10.5668 20.757 10.9688 20.6563V22.2158C10.9688 22.4893 11.0774 22.7516 11.2708 22.945C11.4642 23.1384 11.7265 23.2471 12 23.2471C12.2735 23.2471 12.5358 23.1384 12.7292 22.945C12.9226 22.7516 13.0313 22.4893 13.0313 22.2158V20.6563C13.4332 20.757 13.818 20.9167 14.1731 21.1302C14.4074 21.2714 14.6882 21.3137 14.9537 21.2478C15.2191 21.182 15.4476 21.0134 15.5888 20.7791C15.7299 20.5448 15.7722 20.2641 15.7064 19.9986C15.6406 19.7331 15.472 19.5046 15.2377 19.3635C14.5601 18.9557 13.8115 18.6801 13.0313 18.5511V13.7835L17.1605 16.1689C16.8823 16.9092 16.7468 17.6954 16.7611 18.486C16.7661 18.7561 16.877 19.0135 17.0699 19.2028C17.2627 19.3921 17.5221 19.4981 17.7924 19.498H17.8125C17.9479 19.4955 18.0816 19.4664 18.2057 19.4122C18.3299 19.3581 18.4422 19.28 18.5361 19.1824C18.6301 19.0849 18.704 18.9698 18.7534 18.8437C18.8029 18.7176 18.8271 18.583 18.8245 18.4475C18.817 18.0327 18.8708 17.619 18.9844 17.2199L20.5781 18.14C20.6955 18.2154 20.8269 18.2662 20.9645 18.2893C21.102 18.3124 21.2428 18.3074 21.3783 18.2745C21.5139 18.2416 21.6413 18.1816 21.753 18.0981C21.8647 18.0145 21.9583 17.9092 22.0281 17.7885C22.0979 17.6677 22.1425 17.5341 22.1592 17.3956C22.1759 17.2571 22.1643 17.1167 22.1251 16.9829C22.086 16.849 22.0201 16.7245 21.9315 16.6168C21.8428 16.5091 21.7332 16.4206 21.6094 16.3564Z" fill="#666666"/>
</svg>
