<svg width="24" height="24" viewBox="0 0 24 24" fill="none" xmlns="http://www.w3.org/2000/svg">
<path d="M20.4971 13.781C19.6633 14.2434 18.9711 14.9239 18.4945 15.7497C18.018 16.5754 17.7751 17.5153 17.7919 18.4685M12 1.49976V22.4998V1.49976ZM14.7057 3.74976C13.8891 4.24192 12.9535 4.50128 12 4.49976C11.0466 4.50128 10.111 4.24192 9.29442 3.74976H14.7057ZM9.29442 20.2498C10.1116 19.759 11.0468 19.4997 12 19.4997C12.9532 19.4997 13.8885 19.759 14.7057 20.2498H9.29442ZM21.0933 6.74976L2.90676 17.2498L21.0933 6.74976ZM20.4971 10.2185C19.6633 9.75612 18.9711 9.07559 18.4945 8.24985C18.018 7.4241 17.7751 6.48425 17.7919 5.53101L20.4971 10.2185ZM3.50301 13.781C4.33677 14.2434 5.029 14.9239 5.50554 15.7497C5.98208 16.5754 6.22497 17.5153 6.20817 18.4685L3.50301 13.781ZM2.90676 6.74976L21.0933 17.2498L2.90676 6.74976ZM3.50301 10.2185C4.33677 9.75612 5.029 9.07559 5.50554 8.24985C5.98208 7.4241 6.22497 6.48425 6.20817 5.53101L3.50301 10.2185Z" stroke="#666666" stroke-width="1.5" stroke-linecap="round" stroke-linejoin="round"/>
</svg>
