<svg width="24" height="24" viewBox="0 0 24 24" fill="none" xmlns="http://www.w3.org/2000/svg">
<g clip-path="url(#clip0_32_3367)">
<path d="M9.75005 23.9996C9.51303 24.0008 9.28128 23.9297 9.08578 23.7957C8.89028 23.6616 8.74034 23.4711 8.65599 23.2496L6.78849 18.3934C6.75066 18.2955 6.6928 18.2066 6.61862 18.1325C6.54443 18.0583 6.45556 18.0004 6.35771 17.9626L1.50005 16.0937C1.27877 16.0088 1.08845 15.8587 0.954197 15.6634C0.819945 15.4681 0.748077 15.2366 0.748077 14.9996C0.748077 14.7626 0.819945 14.5312 0.954197 14.3358C1.08845 14.1405 1.27877 13.9905 1.50005 13.9056L6.3563 12.0381C6.45416 12.0002 6.54303 11.9424 6.61721 11.8682C6.6914 11.794 6.74926 11.7051 6.78708 11.6073L8.65599 6.74963C8.74091 6.52835 8.89094 6.33803 9.08626 6.20378C9.28159 6.06952 9.51303 5.99765 9.75005 5.99765C9.98706 5.99765 10.2185 6.06952 10.4138 6.20378C10.6092 6.33803 10.7592 6.52835 10.8441 6.74963L12.7116 11.6059C12.7494 11.7037 12.8073 11.7926 12.8815 11.8668C12.9557 11.941 13.0445 11.9988 13.1424 12.0367L17.9705 13.8943C18.2008 13.9797 18.3992 14.1339 18.5387 14.3361C18.6782 14.5382 18.752 14.7784 18.75 15.024C18.7465 15.2569 18.6731 15.4833 18.5394 15.6741C18.4056 15.8648 18.2178 16.011 18 16.0937L13.1438 17.9612C13.0459 17.999 12.9571 18.0569 12.8829 18.1311C12.8087 18.2052 12.7508 18.2941 12.713 18.392L10.8441 23.2496C10.7598 23.4711 10.6098 23.6616 10.4143 23.7957C10.2188 23.9297 9.98707 24.0008 9.75005 23.9996ZM4.12505 8.24963C3.98609 8.24962 3.85039 8.20752 3.73584 8.12886C3.62129 8.0502 3.53325 7.93869 3.48333 7.809L2.69302 5.754C2.67589 5.70906 2.64945 5.66824 2.61544 5.63423C2.58143 5.60022 2.54062 5.57379 2.49567 5.55666L0.440674 4.76635C0.311008 4.71641 0.19951 4.62837 0.12087 4.51382C0.0422301 4.39926 0.000137329 4.26358 0.000137329 4.12463C0.000137329 3.98568 0.0422301 3.84999 0.12087 3.73544C0.19951 3.62088 0.311008 3.53284 0.440674 3.48291L2.49567 2.6926C2.54057 2.67539 2.58135 2.64893 2.61535 2.61493C2.64935 2.58093 2.67581 2.54015 2.69302 2.49525L3.4763 0.458533C3.52047 0.338627 3.59649 0.233027 3.69617 0.153081C3.79586 0.0731342 3.91544 0.0218648 4.04208 0.00478247C4.19412 -0.0137002 4.34798 0.0191022 4.47925 0.0979884C4.61053 0.176875 4.71172 0.297329 4.76677 0.440251L5.55708 2.49525C5.57429 2.54015 5.60075 2.58093 5.63475 2.61493C5.66875 2.64893 5.70953 2.67539 5.75442 2.6926L7.80942 3.48291C7.93909 3.53284 8.05059 3.62088 8.12923 3.73544C8.20787 3.84999 8.24996 3.98568 8.24996 4.12463C8.24996 4.26358 8.20787 4.39926 8.12923 4.51382C8.05059 4.62837 7.93909 4.71641 7.80942 4.76635L5.75442 5.55666C5.70948 5.57379 5.66867 5.60022 5.63466 5.63423C5.60065 5.66824 5.57421 5.70906 5.55708 5.754L4.76677 7.809C4.71685 7.93869 4.62881 8.0502 4.51426 8.12886C4.3997 8.20752 4.26401 8.24962 4.12505 8.24963ZM18.75 11.9996C18.5985 11.9996 18.4504 11.9536 18.3255 11.8677C18.2006 11.7819 18.1046 11.6602 18.0502 11.5187L16.9796 8.73572C16.9607 8.68668 16.9318 8.64215 16.8947 8.605C16.8575 8.56786 16.813 8.53893 16.764 8.5201L13.981 7.44947C13.8396 7.39499 13.718 7.29897 13.6323 7.17404C13.5465 7.04911 13.5007 6.90115 13.5007 6.74963C13.5007 6.59811 13.5465 6.45014 13.6323 6.32522C13.718 6.20029 13.8396 6.10426 13.981 6.04978L16.764 4.97916C16.813 4.96033 16.8575 4.9314 16.8947 4.89425C16.9318 4.85711 16.9607 4.81257 16.9796 4.76353L18.0422 2.00025C18.0907 1.86958 18.1738 1.7545 18.2825 1.66725C18.3912 1.58001 18.5215 1.52386 18.6596 1.50478C18.8255 1.4847 18.9934 1.5206 19.1365 1.6068C19.2797 1.693 19.39 1.82454 19.4499 1.98056L20.5205 4.76353C20.5394 4.81257 20.5683 4.85711 20.6054 4.89425C20.6426 4.9314 20.6871 4.96033 20.7361 4.97916L23.5191 6.04978C23.6605 6.10426 23.7821 6.20029 23.8678 6.32522C23.9536 6.45014 23.9994 6.59811 23.9994 6.74963C23.9994 6.90115 23.9536 7.04911 23.8678 7.17404C23.7821 7.29897 23.6605 7.39499 23.5191 7.44947L20.7361 8.5201C20.6871 8.53893 20.6426 8.56786 20.6054 8.605C20.5683 8.64215 20.5394 8.68668 20.5205 8.73572L19.4499 11.5187C19.3955 11.6602 19.2995 11.7819 19.1746 11.8677C19.0497 11.9536 18.9016 11.9996 18.75 11.9996Z" fill="#666666"/>
</g>
<defs>
<clipPath id="clip0_32_3367">
<rect width="24" height="24" fill="white"/>
</clipPath>
</defs>
</svg>
