<svg width="24" height="24" viewBox="0 0 24 24" fill="none" xmlns="http://www.w3.org/2000/svg">
<g clip-path="url(#clip0_32_3363)">
<path d="M12.1837 12.321L10.1437 7.01754C10.1131 6.93795 10.0591 6.86951 9.9888 6.82124C9.91851 6.77296 9.83524 6.74712 9.74996 6.74712C9.66469 6.74712 9.58142 6.77296 9.51113 6.82124C9.44084 6.86951 9.38683 6.93795 9.35621 7.01754L7.31621 12.321C7.29502 12.3761 7.2625 12.4261 7.22076 12.4679C7.17901 12.5096 7.12897 12.5421 7.07387 12.5633L1.77043 14.6033C1.69084 14.6339 1.6224 14.6879 1.57413 14.7582C1.52585 14.8285 1.50001 14.9118 1.50001 14.9971C1.50001 15.0823 1.52585 15.1656 1.57413 15.2359C1.6224 15.3062 1.69084 15.3602 1.77043 15.3908L7.07387 17.4308C7.12897 17.452 7.17901 17.4845 7.22076 17.5263C7.2625 17.568 7.29502 17.6181 7.31621 17.6732L9.35621 22.9766C9.38683 23.0562 9.44084 23.1246 9.51113 23.1729C9.58142 23.2212 9.66469 23.247 9.74996 23.247C9.83524 23.247 9.91851 23.2212 9.9888 23.1729C10.0591 23.1246 10.1131 23.0562 10.1437 22.9766L12.1837 17.6732C12.2049 17.6181 12.2374 17.568 12.2792 17.5263C12.3209 17.4845 12.371 17.452 12.4261 17.4308L17.7295 15.3908C17.8091 15.3602 17.8775 15.3062 17.9258 15.2359C17.9741 15.1656 17.9999 15.0823 17.9999 14.9971C17.9999 14.9118 17.9741 14.8285 17.9258 14.7582C17.8775 14.6879 17.8091 14.6339 17.7295 14.6033L12.4261 12.5633C12.371 12.5421 12.3209 12.5096 12.2792 12.4679C12.2374 12.4261 12.2049 12.3761 12.1837 12.321ZM5.06246 3.18457L4.12496 0.74707L3.18746 3.18457L0.749962 4.12207L3.18746 5.05957L4.12496 7.49707L5.06246 5.05957L7.49996 4.12207L5.06246 3.18457ZM20.0001 5.49691L18.75 2.24707L17.4998 5.49691L14.25 6.74707L17.4998 7.99723L18.75 11.2471L20.0001 7.99723L23.25 6.74707L20.0001 5.49691Z" stroke="#666666" stroke-width="1.5" stroke-linecap="round" stroke-linejoin="round"/>
</g>
<defs>
<clipPath id="clip0_32_3363">
<rect width="24" height="24" fill="white"/>
</clipPath>
</defs>
</svg>
