<svg width="24" height="24" viewBox="0 0 24 24" fill="none" xmlns="http://www.w3.org/2000/svg">
<g clip-path="url(#clip0_32_3369)">
<path d="M15.2859 10.8698L13.0594 14.4089C12.9683 14.5351 12.8575 14.6459 12.7312 14.737C12.4265 14.9496 12.0501 15.0335 11.6839 14.9704C11.3177 14.9072 10.9912 14.7022 10.7752 14.3998C10.5592 14.0974 10.4712 13.7221 10.5302 13.3552C10.5893 12.9883 10.7906 12.6595 11.0906 12.4401L14.6297 10.2136C14.7101 10.1575 14.8058 10.1274 14.9039 10.1274C15.002 10.1274 15.0977 10.1575 15.1781 10.2136C15.2792 10.2865 15.3472 10.3965 15.3674 10.5195C15.3876 10.6424 15.3583 10.7684 15.2859 10.8698Z" fill="#666666"/>
<path d="M12 2.99707C6.20155 2.99707 1.49999 7.69395 1.49999 13.4924C1.49643 16.0578 2.43563 18.5351 4.13905 20.4533C4.19061 20.5096 4.23749 20.5658 4.28905 20.6174C4.39998 20.7375 4.53463 20.8332 4.68448 20.8986C4.83434 20.9639 4.99613 20.9974 5.15961 20.997C5.32309 20.9965 5.4847 20.9622 5.6342 20.896C5.7837 20.8299 5.91784 20.7334 6.02811 20.6127C6.78819 19.7867 7.71137 19.1273 8.73928 18.6763C9.76719 18.2253 10.8775 17.9925 12 17.9925C13.1225 17.9925 14.2328 18.2253 15.2607 18.6763C16.2886 19.1273 17.2118 19.7867 17.9719 20.6127C18.0821 20.7334 18.2163 20.8299 18.3658 20.896C18.5153 20.9622 18.6769 20.9965 18.8404 20.997C19.0038 20.9974 19.1656 20.9639 19.3155 20.8986C19.4653 20.8332 19.6 20.7375 19.7109 20.6174L19.8609 20.4533C21.5644 18.5351 22.5035 16.0578 22.5 13.4924C22.5 7.69395 17.7984 2.99707 12 2.99707Z" stroke="#666666" stroke-width="1.5" stroke-linecap="round" stroke-linejoin="round"/>
<path d="M16.2428 9.25612L17.3035 8.19534M12.0001 5.99878V7.49878V5.99878ZM19.5001 13.4988H18.0001H19.5001ZM6.00009 13.4988H4.50009H6.00009ZM7.75744 9.25612L6.69665 8.19534L7.75744 9.25612Z" stroke="#666666" stroke-width="1.5" stroke-miterlimit="10" stroke-linecap="round"/>
</g>
<defs>
<clipPath id="clip0_32_3369">
<rect width="24" height="24" fill="white"/>
</clipPath>
</defs>
</svg>
