<svg width="24" height="24" viewBox="0 0 24 24" fill="none" xmlns="http://www.w3.org/2000/svg">
<g clip-path="url(#clip0_32_3373)">
<path d="M12 2.24878C5.78723 2.24878 0.750041 7.33706 0.750041 13.6188C0.744158 16.3926 1.74938 19.0735 3.57754 21.1596C3.63285 21.2205 3.68301 21.2814 3.73832 21.3372C4.18129 21.7488 4.31582 21.7488 4.66739 21.7488C5.01895 21.7488 5.25004 21.7488 5.6016 21.3325C7.12504 19.5288 9.46879 18.7488 12 18.7488C14.5313 18.7488 16.8783 19.5321 18.3985 21.3325C18.75 21.7488 18.976 21.7488 19.3327 21.7488C19.6894 21.7488 19.8624 21.7488 20.2618 21.3372C20.3189 21.2786 20.3672 21.2205 20.4225 21.1596C22.2507 19.0735 23.2559 16.3926 23.25 13.6188C23.25 7.33706 18.2129 2.24878 12 2.24878ZM11.25 5.24878H12.75V8.24878H11.25V5.24878ZM6.75004 14.2488H3.75004V12.7488H6.75004V14.2488ZM7.75739 10.3169L5.63629 8.19534L6.6966 7.13503L8.81817 9.25612L7.75739 10.3169ZM13.0594 14.4082C12.9683 14.5344 12.8575 14.6452 12.7313 14.7363C12.4265 14.9489 12.0502 15.0327 11.684 14.9696C11.3178 14.9065 10.9912 14.7015 10.7752 14.3991C10.5592 14.0967 10.4712 13.7213 10.5303 13.3544C10.5893 12.9875 10.7907 12.6587 11.0907 12.4394L15 10.4988L13.0594 14.4082ZM15.1819 9.25612L17.3035 7.13503L18.3638 8.19534L16.2427 10.3169L15.1819 9.25612ZM20.25 14.2488H17.25V12.7488H20.25V14.2488Z" fill="#666666"/>
</g>
<defs>
<clipPath id="clip0_32_3373">
<rect width="24" height="24" fill="white"/>
</clipPath>
</defs>
</svg>
