<svg width="24" height="24" viewBox="0 0 24 24" fill="none" xmlns="http://www.w3.org/2000/svg">
<path d="M19.9547 5.54262C17.8847 3.48503 15.0962 2.31243 12.1778 2.27242C9.25948 2.23241 6.4398 3.32813 4.31423 5.3282C2.18865 7.32827 0.923555 10.0761 0.78609 12.9915C0.648626 15.9069 1.64955 18.7616 3.5775 20.9528L3.58594 20.9622C3.60141 20.9786 3.61594 20.9954 3.63282 21.0114C3.6675 21.0507 3.70688 21.0953 3.75329 21.1417C3.93528 21.3351 4.15524 21.4889 4.39941 21.5934C4.64357 21.698 4.90668 21.7509 5.17227 21.7491C5.43786 21.7472 5.7002 21.6906 5.94289 21.5827C6.18558 21.4748 6.40338 21.3179 6.58266 21.122C7.2725 20.3723 8.11038 19.7738 9.04333 19.3644C9.97628 18.9551 10.984 18.7437 12.0028 18.7437C13.0216 18.7437 14.0294 18.9551 14.9623 19.3644C15.8953 19.7738 16.7331 20.3723 17.423 21.122C17.6036 21.319 17.8231 21.4763 18.0677 21.584C18.3123 21.6918 18.5766 21.7475 18.8438 21.7478C19.1111 21.748 19.3755 21.6928 19.6203 21.5856C19.8651 21.4783 20.0849 21.3214 20.2659 21.1248L20.4164 20.9607L20.4249 20.9514C22.3245 18.8063 23.3338 16.0171 23.2466 13.1531C23.1595 10.2891 21.9826 7.56639 19.9561 5.54074L19.9547 5.54262ZM11.25 5.99965C11.25 5.80074 11.329 5.60997 11.4697 5.46932C11.6103 5.32867 11.8011 5.24965 12 5.24965C12.1989 5.24965 12.3897 5.32867 12.5303 5.46932C12.671 5.60997 12.75 5.80074 12.75 5.99965V7.49965C12.75 7.69856 12.671 7.88933 12.5303 8.02998C12.3897 8.17063 12.1989 8.24965 12 8.24965C11.8011 8.24965 11.6103 8.17063 11.4697 8.02998C11.329 7.88933 11.25 7.69856 11.25 7.49965V5.99965ZM6 14.2497H4.5C4.30109 14.2497 4.11033 14.1706 3.96967 14.03C3.82902 13.8893 3.75 13.6986 3.75 13.4997C3.75 13.3007 3.82902 13.11 3.96967 12.9693C4.11033 12.8287 4.30109 12.7497 4.5 12.7497H6C6.19892 12.7497 6.38968 12.8287 6.53033 12.9693C6.67099 13.11 6.75 13.3007 6.75 13.4997C6.75 13.6986 6.67099 13.8893 6.53033 14.03C6.38968 14.1706 6.19892 14.2497 6 14.2497ZM8.28751 9.78715C8.14687 9.9277 7.95618 10.0066 7.75735 10.0066C7.55852 10.0066 7.36783 9.9277 7.22719 9.78715L6.16641 8.72684C6.02574 8.58617 5.94672 8.39538 5.94672 8.19645C5.94672 7.99751 6.02574 7.80673 6.16641 7.66606C6.30708 7.52539 6.49787 7.44636 6.6968 7.44636C6.89574 7.44636 7.08652 7.52539 7.22719 7.66606L8.28751 8.72684C8.42805 8.86748 8.507 9.05817 8.507 9.257C8.507 9.45582 8.42805 9.64651 8.28751 9.78715ZM15.2859 10.87L13.0594 14.409C12.9683 14.5353 12.8575 14.6461 12.7313 14.7372C12.4265 14.9498 12.0502 15.0336 11.6839 14.9705C11.3177 14.9074 10.9912 14.7023 10.7752 14.4C10.5592 14.0976 10.4712 13.7222 10.5302 13.3553C10.5893 12.9884 10.7907 12.6596 11.0906 12.4403L14.6297 10.2137C14.7101 10.1576 14.8059 10.1276 14.9039 10.1276C15.002 10.1276 15.0977 10.1576 15.1781 10.2137C15.2792 10.2867 15.3472 10.3966 15.3674 10.5196C15.3876 10.6426 15.3583 10.7685 15.2859 10.87ZM16.7728 9.78715C16.631 9.92187 16.4422 9.99586 16.2466 9.99336C16.0511 9.99085 15.8642 9.91205 15.7259 9.77375C15.5876 9.63545 15.5088 9.44859 15.5063 9.25302C15.5038 9.05745 15.5778 8.86864 15.7125 8.72684L16.7728 7.66606C16.9135 7.52539 17.1043 7.44636 17.3032 7.44636C17.5021 7.44636 17.6929 7.52539 17.8336 7.66606C17.9743 7.80673 18.0533 7.99751 18.0533 8.19645C18.0533 8.39538 17.9743 8.58617 17.8336 8.72684L16.7728 9.78715ZM19.5 14.2497H18C17.8011 14.2497 17.6103 14.1706 17.4697 14.03C17.329 13.8893 17.25 13.6986 17.25 13.4997C17.25 13.3007 17.329 13.11 17.4697 12.9693C17.6103 12.8287 17.8011 12.7497 18 12.7497H19.5C19.6989 12.7497 19.8897 12.8287 20.0303 12.9693C20.171 13.11 20.25 13.3007 20.25 13.4997C20.25 13.6986 20.171 13.8893 20.0303 14.03C19.8897 14.1706 19.6989 14.2497 19.5 14.2497Z" fill="#666666"/>
</svg>
