<svg width="24" height="24" viewBox="0 0 24 24" fill="none" xmlns="http://www.w3.org/2000/svg">
<g clip-path="url(#clip0_32_3395)">
<path d="M18.4688 22.4978C18.3109 22.4984 18.1569 22.4492 18.0286 22.3572L12 17.9865L5.97142 22.3572C5.84262 22.4506 5.68745 22.5006 5.52835 22.5C5.36924 22.4995 5.21444 22.4483 5.08633 22.3539C4.95821 22.2596 4.86342 22.1269 4.81566 21.9752C4.7679 21.8234 4.76964 21.6604 4.82064 21.5097L7.17189 14.5454L1.07814 10.3665C0.946143 10.2761 0.846521 10.1459 0.793828 9.99479C0.741134 9.84373 0.73813 9.67977 0.785256 9.52687C0.832381 9.37398 0.927165 9.24016 1.05576 9.14497C1.18435 9.04978 1.34002 8.99821 1.50001 8.99779H9.01783L11.2866 2.01575C11.3355 1.86502 11.4308 1.73363 11.559 1.64045C11.6872 1.54726 11.8416 1.49707 12 1.49707C12.1585 1.49707 12.3129 1.54726 12.441 1.64045C12.5692 1.73363 12.6646 1.86502 12.7135 2.01575L14.9822 9.00013H22.5C22.6602 9.00005 22.8162 9.05127 22.9452 9.14627C23.0742 9.24128 23.1693 9.37509 23.2168 9.5281C23.2642 9.68111 23.2614 9.84529 23.2087 9.99659C23.1561 10.1479 23.0564 10.2783 22.9242 10.3689L16.8281 14.5454L19.178 21.5078C19.2161 21.6205 19.2268 21.7407 19.2092 21.8583C19.1917 21.976 19.1464 22.0878 19.0771 22.1846C19.0078 22.2813 18.9165 22.3601 18.8107 22.4146C18.705 22.4691 18.5877 22.4976 18.4688 22.4978Z" fill="#666666"/>
</g>
<defs>
<clipPath id="clip0_32_3395">
<rect width="24" height="24" fill="white"/>
</clipPath>
</defs>
</svg>
