<svg width="24" height="24" viewBox="0 0 24 24" fill="none" xmlns="http://www.w3.org/2000/svg">
<path d="M4.87511 23.2489H3.37511C3.07675 23.2489 2.7906 23.1304 2.57962 22.9194C2.36864 22.7084 2.25011 22.4223 2.25011 22.1239V15.3739C2.25011 15.0755 2.36864 14.7894 2.57962 14.5784C2.7906 14.3674 3.07675 14.2489 3.37511 14.2489H4.87511C5.17348 14.2489 5.45963 14.3674 5.67061 14.5784C5.88159 14.7894 6.00011 15.0755 6.00011 15.3739V22.1239C6.00011 22.4223 5.88159 22.7084 5.67061 22.9194C5.45963 23.1304 5.17348 23.2489 4.87511 23.2489ZM15.3751 23.2489H13.8751C13.5767 23.2489 13.2906 23.1304 13.0796 22.9194C12.8686 22.7084 12.7501 22.4223 12.7501 22.1239V10.8739C12.7501 10.5755 12.8686 10.2894 13.0796 10.0784C13.2906 9.86743 13.5767 9.7489 13.8751 9.7489H15.3751C15.6735 9.7489 15.9596 9.86743 16.1706 10.0784C16.3816 10.2894 16.5001 10.5755 16.5001 10.8739V22.1239C16.5001 22.4223 16.3816 22.7084 16.1706 22.9194C15.9596 23.1304 15.6735 23.2489 15.3751 23.2489ZM20.6251 23.2489H19.1251C18.8267 23.2489 18.5406 23.1304 18.3296 22.9194C18.1186 22.7084 18.0001 22.4223 18.0001 22.1239V5.6239C18.0001 5.32553 18.1186 5.03939 18.3296 4.82841C18.5406 4.61743 18.8267 4.4989 19.1251 4.4989H20.6251C20.9235 4.4989 21.2096 4.61743 21.4206 4.82841C21.6316 5.03939 21.7501 5.32553 21.7501 5.6239V22.1239C21.7501 22.4223 21.6316 22.7084 21.4206 22.9194C21.2096 23.1304 20.9235 23.2489 20.6251 23.2489ZM10.1251 23.2489H8.62511C8.32675 23.2489 8.0406 23.1304 7.82962 22.9194C7.61864 22.7084 7.50011 22.4223 7.50011 22.1239V1.8739C7.50011 1.57553 7.61864 1.28938 7.82962 1.07841C8.0406 0.867428 8.32675 0.748901 8.62511 0.748901H10.1251C10.4235 0.748901 10.7096 0.867428 10.9206 1.07841C11.1316 1.28938 11.2501 1.57553 11.2501 1.8739V22.1239C11.2501 22.4223 11.1316 22.7084 10.9206 22.9194C10.7096 23.1304 10.4235 23.2489 10.1251 23.2489Z" fill="#666666"/>
</svg>
