<svg width="24" height="24" viewBox="0 0 24 24" fill="none" xmlns="http://www.w3.org/2000/svg">
<path d="M4.87502 15.0006H3.37502C3.16791 15.0006 3.00002 15.1685 3.00002 15.3756V22.1256C3.00002 22.3327 3.16791 22.5006 3.37502 22.5006H4.87502C5.08213 22.5006 5.25002 22.3327 5.25002 22.1256V15.3756C5.25002 15.1685 5.08213 15.0006 4.87502 15.0006Z" stroke="#666666" stroke-width="1.5" stroke-linecap="round" stroke-linejoin="round"/>
<path d="M15.375 10.4979H13.875C13.6679 10.4979 13.5 10.6658 13.5 10.8729V22.1229C13.5 22.33 13.6679 22.4979 13.875 22.4979H15.375C15.5821 22.4979 15.75 22.33 15.75 22.1229V10.8729C15.75 10.6658 15.5821 10.4979 15.375 10.4979Z" stroke="#666666" stroke-width="1.5" stroke-linecap="round" stroke-linejoin="round"/>
<path d="M20.6249 5.24707H19.1249C18.9178 5.24707 18.7499 5.41496 18.7499 5.62207V22.1221C18.7499 22.3292 18.9178 22.4971 19.1249 22.4971H20.6249C20.832 22.4971 20.9999 22.3292 20.9999 22.1221V5.62207C20.9999 5.41496 20.832 5.24707 20.6249 5.24707Z" stroke="#666666" stroke-width="1.5" stroke-linecap="round" stroke-linejoin="round"/>
<path d="M10.1251 1.49707H8.62508C8.41797 1.49707 8.25008 1.66496 8.25008 1.87207V22.1221C8.25008 22.3292 8.41797 22.4971 8.62508 22.4971H10.1251C10.3322 22.4971 10.5001 22.3292 10.5001 22.1221V1.87207C10.5001 1.66496 10.3322 1.49707 10.1251 1.49707Z" stroke="#666666" stroke-width="1.5" stroke-linecap="round" stroke-linejoin="round"/>
</svg>
