<svg width="24" height="24" viewBox="0 0 24 24" fill="none" xmlns="http://www.w3.org/2000/svg">
<path d="M21.0001 11.9979C21.0001 7.02918 16.9688 2.99792 12.0001 2.99792C7.03131 2.99792 3.00006 7.02918 3.00006 11.9979C3.00006 16.9667 7.03131 20.9979 12.0001 20.9979C16.9688 20.9979 21.0001 16.9667 21.0001 11.9979Z" stroke="#666666" stroke-width="1.5" stroke-miterlimit="10"/>
<path d="M14.5501 15.7489H9.45012C9.13194 15.7487 8.82686 15.6221 8.60187 15.3972C8.37688 15.1722 8.25037 14.8671 8.25012 14.5489V9.4489C8.25037 9.13072 8.37688 8.82564 8.60187 8.60065C8.82686 8.37566 9.13194 8.24915 9.45012 8.2489H14.5501C14.8683 8.24915 15.1734 8.37566 15.3984 8.60065C15.6234 8.82564 15.7499 9.13072 15.7501 9.4489V14.5489C15.7499 14.8671 15.6234 15.1722 15.3984 15.3972C15.1734 15.6221 14.8683 15.7487 14.5501 15.7489Z" fill="#666666"/>
</svg>
