<svg width="24" height="24" viewBox="0 0 24 24" fill="none" xmlns="http://www.w3.org/2000/svg">
<path d="M12 2.24976C6.62392 2.24976 2.25002 6.62366 2.25002 11.9998C2.25002 17.3759 6.62392 21.7498 12 21.7498C17.3761 21.7498 21.75 17.3759 21.75 11.9998C21.75 6.62366 17.3761 2.24976 12 2.24976ZM15.75 14.5498C15.7498 14.8679 15.6233 15.173 15.3983 15.398C15.1733 15.623 14.8682 15.7495 14.55 15.7498H9.45002C9.13183 15.7495 8.82675 15.623 8.60176 15.398C8.37677 15.173 8.25026 14.8679 8.25002 14.5498V9.44976C8.25026 9.13157 8.37677 8.82649 8.60176 8.6015C8.82675 8.37651 9.13183 8.25 9.45002 8.24976H14.55C14.8682 8.25 15.1733 8.37651 15.3983 8.6015C15.6233 8.82649 15.7498 9.13157 15.75 9.44976V14.5498Z" fill="#666666"/>
</svg>
