<svg width="24" height="24" viewBox="0 0 24 24" fill="none" xmlns="http://www.w3.org/2000/svg">
<path d="M13.125 3.82092V2.25061H10.875V3.82092C9.45435 3.99927 8.09718 4.51575 6.91737 5.32702L5.62502 4.03186L4.03127 5.62561L5.23081 6.82514C3.79096 8.46305 2.99782 10.5698 3.00002 12.7506C3.00002 17.7133 7.03737 21.7506 12 21.7506C16.9627 21.7506 21 17.7133 21 12.7506C21 8.16905 17.5585 4.37592 13.125 3.82092ZM12 15.0006C11.4694 15.0005 10.9559 14.8128 10.5502 14.4707C10.1445 14.1286 9.87281 13.6541 9.78307 13.1311C9.69333 12.6081 9.79134 12.0702 10.0598 11.6125C10.3282 11.1547 10.7498 10.8066 11.25 10.6295V6.37561H12.75V10.6295C13.2503 10.8066 13.6719 11.1547 13.9403 11.6125C14.2087 12.0702 14.3067 12.6081 14.217 13.1311C14.1272 13.6541 13.8555 14.1286 13.4499 14.4707C13.0442 14.8128 12.5307 15.0005 12 15.0006Z" fill="#666666"/>
</svg>
