<svg width="24" height="24" viewBox="0 0 24 24" fill="none" xmlns="http://www.w3.org/2000/svg">
<path d="M12 10.8729V7.12292" stroke="#666666" stroke-width="1.5" stroke-linecap="round" stroke-linejoin="round"/>
<path d="M6.18748 6.18543L5.62498 5.62293M12 4.12292V3.37292V4.12292Z" stroke="#666666" stroke-width="2.25" stroke-linecap="round" stroke-linejoin="round"/>
<path d="M12 14.2471C12.8284 14.2471 13.5 13.5755 13.5 12.7471C13.5 11.9186 12.8284 11.2471 12 11.2471C11.1715 11.2471 10.5 11.9186 10.5 12.7471C10.5 13.5755 11.1715 14.2471 12 14.2471Z" stroke="#666666" stroke-width="1.5" stroke-miterlimit="10"/>
<path d="M12 4.49976C10.3683 4.49976 8.77324 4.98361 7.41653 5.89013C6.05983 6.79665 5.00241 8.08513 4.37798 9.59262C3.75356 11.1001 3.59018 12.7589 3.90851 14.3593C4.22684 15.9596 5.01257 17.4296 6.16636 18.5834C7.32014 19.7372 8.79015 20.5229 10.3905 20.8412C11.9908 21.1596 13.6496 20.9962 15.1571 20.3718C16.6646 19.7473 17.9531 18.6899 18.8596 17.3332C19.7661 15.9765 20.25 14.3815 20.25 12.7498C20.25 10.5617 19.3808 8.4633 17.8336 6.91613C16.2864 5.36895 14.188 4.49976 12 4.49976Z" stroke="#666666" stroke-width="1.5" stroke-miterlimit="10"/>
</svg>
