<svg width="24" height="24" viewBox="0 0 24 24" fill="none" xmlns="http://www.w3.org/2000/svg">
<path d="M12 13.4998C12.4142 13.4998 12.75 13.164 12.75 12.7498C12.75 12.3355 12.4142 11.9998 12 11.9998C11.5858 11.9998 11.25 12.3355 11.25 12.7498C11.25 13.164 11.5858 13.4998 12 13.4998Z" fill="#666666"/>
<path d="M13.1251 3.82092V3.37561C13.1251 3.07724 13.0066 2.79109 12.7956 2.58012C12.5846 2.36914 12.2985 2.25061 12.0001 2.25061C11.7017 2.25061 11.4156 2.36914 11.2046 2.58012C10.9936 2.79109 10.8751 3.07724 10.8751 3.37561V3.82092C9.45441 3.99927 8.09724 4.51575 6.91743 5.32702L6.42196 4.82874C6.21061 4.61739 5.92397 4.49866 5.62508 4.49866C5.3262 4.49866 5.03955 4.61739 4.82821 4.82874C4.61686 5.04008 4.49813 5.32672 4.49813 5.62561C4.49813 5.9245 4.61686 6.21114 4.82821 6.42249L5.23133 6.82561C3.79143 8.46333 2.99813 10.5699 3.00008 12.7506C3.00008 17.7133 7.03743 21.7506 12.0001 21.7506C16.9627 21.7506 21.0001 17.7133 21.0001 12.7506C21.0001 8.16905 17.5585 4.37592 13.1251 3.82092ZM12.0001 15.0006C11.4694 15.0005 10.9559 14.8128 10.5502 14.4707C10.1446 14.1286 9.87287 13.6541 9.78313 13.1311C9.69339 12.6081 9.7914 12.0702 10.0598 11.6125C10.3283 11.1547 10.7498 10.8066 11.2501 10.6295V7.12561C11.2501 6.9267 11.3291 6.73593 11.4698 6.59528C11.6104 6.45463 11.8012 6.37561 12.0001 6.37561C12.199 6.37561 12.3898 6.45463 12.5304 6.59528C12.6711 6.73593 12.7501 6.9267 12.7501 7.12561V10.6295C13.2503 10.8066 13.6719 11.1547 13.9403 11.6125C14.2088 12.0702 14.3068 12.6081 14.217 13.1311C14.1273 13.6541 13.8556 14.1286 13.4499 14.4707C13.0443 14.8128 12.5307 15.0005 12.0001 15.0006Z" fill="#666666"/>
</svg>
