<svg width="24" height="24" viewBox="0 0 24 24" fill="none" xmlns="http://www.w3.org/2000/svg">
<path d="M13.4999 21.7506V14.6256C13.4999 14.3272 13.6185 14.0411 13.8295 13.8301C14.0404 13.6191 14.3266 13.5006 14.6249 13.5006H17.6249C17.9233 13.5006 18.2095 13.6191 18.4204 13.8301C18.6314 14.0411 18.7499 14.3272 18.7499 14.6256V21.7506M20.9999 21.0006V11.2506V21.0006ZM2.99994 11.2506V21.0006V11.2506ZM17.9282 2.25061H6.07166C5.05026 2.25061 4.12776 2.81311 3.73119 3.67842L1.70151 8.10999C1.01807 9.60108 2.15291 11.2905 3.91354 11.3444H4.00729C5.47916 11.3444 6.67213 10.164 6.67213 8.89608C6.67213 10.1617 7.86557 11.3444 9.33744 11.3444C10.8093 11.3444 11.9999 10.2484 11.9999 8.89608C11.9999 10.1617 13.1929 11.3444 14.6648 11.3444C16.1367 11.3444 17.3301 10.2484 17.3301 8.89608C17.3301 10.2484 18.5231 11.3444 19.9949 11.3444H20.0864C21.847 11.2895 22.9818 9.60014 22.2984 8.10999L20.2687 3.67842C19.8721 2.81311 18.9496 2.25061 17.9282 2.25061ZM1.49994 21.7506H22.4999H1.49994ZM6.37494 13.5006H10.1249C10.4233 13.5006 10.7095 13.6191 10.9204 13.8301C11.1314 14.0411 11.2499 14.3272 11.2499 14.6256V18.7506H5.24994V14.6256C5.24994 14.3272 5.36847 14.0411 5.57945 13.8301C5.79043 13.6191 6.07658 13.5006 6.37494 13.5006Z" stroke="#666666" stroke-width="1.5" stroke-linecap="round" stroke-linejoin="round"/>
</svg>
