<svg width="24" height="24" viewBox="0 0 24 24" fill="none" xmlns="http://www.w3.org/2000/svg">
<path d="M22.5 20.9979H21.9375C21.8878 20.9979 21.8401 20.9782 21.8049 20.943C21.7698 20.9078 21.75 20.8602 21.75 20.8104V12.8187C21.7504 12.7889 21.7437 12.7594 21.7305 12.7327C21.7172 12.7059 21.6978 12.6828 21.6737 12.6651C21.6497 12.6474 21.6218 12.6357 21.5924 12.6309C21.5629 12.6262 21.5327 12.6285 21.5044 12.6378C21.0742 12.773 20.6276 12.8483 20.1769 12.8618C20.1216 12.8618 20.0691 12.8642 20.0175 12.8642C19.1507 12.8662 18.2978 12.6461 17.5402 12.2248C17.4828 12.1929 17.4183 12.1762 17.3527 12.1762C17.287 12.1762 17.2225 12.1929 17.1652 12.2248C16.4077 12.6461 15.555 12.8662 14.6883 12.8642C13.8264 12.8654 12.9791 12.6426 12.2292 12.2178C12.1714 12.185 12.1061 12.1678 12.0396 12.1678C11.9732 12.1678 11.9078 12.185 11.85 12.2178C11.0889 12.6442 10.2306 12.8671 9.35813 12.8646C8.49049 12.8652 7.63778 12.639 6.88453 12.2084C6.82625 12.1752 6.76034 12.1578 6.69328 12.1578C6.62622 12.1578 6.56032 12.1752 6.50203 12.2084C5.74879 12.639 4.89607 12.8652 4.02844 12.8646C3.97735 12.8646 3.92578 12.8646 3.87047 12.8623H3.86766C3.40115 12.8483 2.93902 12.768 2.49516 12.6237C2.46705 12.6146 2.43719 12.6123 2.40802 12.617C2.37885 12.6216 2.35119 12.6331 2.32729 12.6504C2.30339 12.6678 2.28393 12.6906 2.2705 12.7169C2.25707 12.7432 2.25005 12.7723 2.25 12.8018V20.8104C2.25 20.8602 2.23025 20.9078 2.19508 20.943C2.15992 20.9782 2.11223 20.9979 2.0625 20.9979H1.52344C1.11844 20.9979 0.768752 21.3092 0.750939 21.7142C0.74638 21.8154 0.762375 21.9165 0.797961 22.0113C0.833546 22.1062 0.887983 22.1929 0.957987 22.2661C1.02799 22.3394 1.11211 22.3977 1.20526 22.4375C1.29842 22.4774 1.39868 22.4979 1.5 22.4979H22.4766C22.8816 22.4979 23.2313 22.1867 23.2491 21.7817C23.2536 21.6805 23.2376 21.5794 23.202 21.4845C23.1665 21.3896 23.112 21.303 23.042 21.2297C22.972 21.1565 22.8879 21.0982 22.7947 21.0583C22.7016 21.0185 22.6013 20.9979 22.5 20.9979ZM10.5 17.8104C10.5 17.8602 10.4802 17.9078 10.4451 17.943C10.4099 17.9782 10.3622 17.9979 10.3125 17.9979H6.1875C6.13777 17.9979 6.09008 17.9782 6.05492 17.943C6.01976 17.9078 6 17.8602 6 17.8104V14.8104C6 14.6612 6.05927 14.5182 6.16476 14.4127C6.27024 14.3072 6.41332 14.2479 6.5625 14.2479H9.9375C10.0867 14.2479 10.2298 14.3072 10.3353 14.4127C10.4407 14.5182 10.5 14.6612 10.5 14.8104V17.8104ZM17.8125 20.9979H14.4375C14.3878 20.9979 14.3401 20.9782 14.3049 20.943C14.2698 20.9078 14.25 20.8602 14.25 20.8104V14.8104C14.25 14.6612 14.3093 14.5182 14.4148 14.4127C14.5202 14.3072 14.6633 14.2479 14.8125 14.2479H17.4375C17.5867 14.2479 17.7298 14.3072 17.8353 14.4127C17.9407 14.5182 18 14.6612 18 14.8104V20.8104C18 20.8602 17.9803 20.9078 17.9451 20.943C17.9099 20.9782 17.8622 20.9979 17.8125 20.9979ZM23.0892 7.9798L21.0773 3.36308C20.5505 2.23011 19.3472 1.49792 18.0117 1.49792H5.98594C4.65047 1.49792 3.44719 2.23011 2.92031 3.36308L0.908439 7.9798C0.486564 8.88964 1.04391 9.82386 1.04438 9.82433L1.0575 9.84543C1.08047 9.88199 1.12125 9.93918 1.1461 9.97574C1.14844 9.97855 1.15031 9.98183 1.15266 9.98511L1.38703 10.2687C1.3958 10.2794 1.40519 10.2896 1.41516 10.2992L1.64953 10.5256L1.66922 10.5425C1.80686 10.6604 1.95409 10.7667 2.10938 10.8603V10.8626C2.61952 11.1716 3.20073 11.3439 3.79688 11.3628H3.91266C4.81466 11.3644 5.68379 11.0243 6.345 10.4107L6.36047 10.3962C6.42953 10.3311 6.52082 10.2949 6.61571 10.2949C6.71059 10.2949 6.80188 10.3311 6.87094 10.3962L6.88641 10.4107C7.55466 11.0232 8.42821 11.363 9.33469 11.363C10.2412 11.363 11.1147 11.0232 11.783 10.4107C11.8523 10.3466 11.9433 10.3109 12.0377 10.3109C12.1322 10.3109 12.2232 10.3466 12.2925 10.4107C12.9588 11.0213 13.8291 11.3609 14.7328 11.3629C15.6365 11.3649 16.5084 11.0291 17.1773 10.4215C17.2456 10.3583 17.3353 10.3231 17.4284 10.3231C17.5214 10.3231 17.6111 10.3583 17.6794 10.4215C18.349 11.0328 19.2247 11.369 20.1314 11.3628H20.2481C20.8293 11.3411 21.3948 11.1682 21.8888 10.8612C21.9333 10.8345 21.9759 10.8064 22.0191 10.7782C22.3522 10.5536 22.6422 10.2708 22.875 9.94339L22.9566 9.82011C22.9647 9.80761 22.9722 9.79449 22.9791 9.78074C23.0569 9.6223 23.4741 8.80761 23.0892 7.9798Z" fill="#666666"/>
</svg>
