<svg width="24" height="24" viewBox="0 0 24 24" fill="none" xmlns="http://www.w3.org/2000/svg">
<path d="M21.75 20.9979V12.5534C21.246 12.7417 20.7146 12.8459 20.1769 12.8618C20.1215 12.8618 20.069 12.8642 20.0175 12.8642C19.0766 12.8667 18.1537 12.607 17.3522 12.1142C16.5508 12.6069 15.628 12.8666 14.6873 12.8642C13.7505 12.8654 12.8323 12.6022 12.0384 12.1048C11.2335 12.6041 10.3044 12.8673 9.35717 12.8642C8.41388 12.8654 7.48968 12.5985 6.69232 12.0945C5.89497 12.5985 4.97076 12.8654 4.02748 12.8642C3.97639 12.8642 3.92482 12.8642 3.86951 12.8618H3.8667C3.3133 12.8454 2.76667 12.7354 2.24998 12.5365V20.9979H0.749979V22.4979H23.25V20.9979H21.75ZM10.5 17.9979H5.99998V14.4354C5.99998 14.3857 6.01973 14.338 6.0549 14.3028C6.09006 14.2677 6.13775 14.2479 6.18748 14.2479H10.3125C10.3622 14.2479 10.4099 14.2677 10.4451 14.3028C10.4802 14.338 10.5 14.3857 10.5 14.4354V17.9979ZM18 20.9979H14.25V14.4354C14.25 14.3857 14.2697 14.338 14.3049 14.3028C14.3401 14.2677 14.3878 14.2479 14.4375 14.2479H17.8125C17.8622 14.2479 17.9099 14.2677 17.9451 14.3028C17.9802 14.338 18 14.3857 18 14.4354V20.9979ZM23.0892 7.9798L20.9011 2.99792C20.25 1.49792 20.25 1.49792 18.75 1.49792H5.24998C3.74998 1.49792 3.74998 1.49792 3.09654 2.99792L0.908417 7.9798C0.486541 8.88964 1.04389 9.82386 1.04435 9.82433L1.06357 9.85527C1.08326 9.88621 1.11654 9.9373 1.13951 9.96636C1.1442 9.97246 1.14842 9.97902 1.15264 9.98511L1.39826 10.2846L1.64717 10.5256L1.66685 10.5425C1.80524 10.6605 1.95326 10.7668 2.10935 10.8603V10.8626C2.6195 11.1716 3.20071 11.3439 3.79685 11.3628H3.91264C4.81464 11.3644 5.68377 11.0243 6.34498 10.4107C6.44046 10.3223 6.53076 10.2283 6.61545 10.1295C6.70042 10.2282 6.79088 10.3221 6.88639 10.4107C7.5476 11.0243 8.41673 11.3644 9.31873 11.3628C10.41 11.3628 11.3845 10.894 12.0201 10.1646C12.0211 10.1638 12.0223 10.1633 12.0237 10.1633C12.025 10.1633 12.0262 10.1638 12.0272 10.1646L12.2925 10.4112C12.9538 11.0248 13.8231 11.365 14.7253 11.3632C15.817 11.3632 16.793 10.8945 17.4281 10.1628C18.0637 10.8945 19.0392 11.3632 20.1314 11.3632H20.2481C20.8293 11.3415 21.3948 11.1687 21.8887 10.8617C21.9333 10.835 21.9759 10.8068 22.019 10.7787C22.3522 10.554 22.6422 10.271 22.875 9.94339L22.9687 9.80277C23.0109 9.70714 23.4942 8.85121 23.0892 7.9798Z" fill="#666666"/>
</svg>
