<svg width="24" height="24" viewBox="0 0 24 24" fill="none" xmlns="http://www.w3.org/2000/svg">
<g clip-path="url(#clip0_32_3444)">
<path d="M16.5 0.746094H7.50003C6.70465 0.746962 5.94209 1.06331 5.37967 1.62573C4.81725 2.18815 4.5009 2.95071 4.50003 3.74609V15.7461C4.5009 16.5415 4.81725 17.304 5.37967 17.8665C5.94209 18.4289 6.70465 18.7452 7.50003 18.7461H16.5C17.2954 18.7452 18.058 18.4289 18.6204 17.8665C19.1828 17.304 19.4992 16.5415 19.5 15.7461V3.74609C19.4992 2.95071 19.1828 2.18815 18.6204 1.62573C18.058 1.06331 17.2954 0.746962 16.5 0.746094ZM9.75003 2.99609H14.25C14.4489 2.99609 14.6397 3.07511 14.7804 3.21576C14.921 3.35642 15 3.54718 15 3.74609C15 3.94501 14.921 4.13577 14.7804 4.27642C14.6397 4.41708 14.4489 4.49609 14.25 4.49609H9.75003C9.55112 4.49609 9.36035 4.41708 9.2197 4.27642C9.07905 4.13577 9.00003 3.94501 9.00003 3.74609C9.00003 3.54718 9.07905 3.35642 9.2197 3.21576C9.36035 3.07511 9.55112 2.99609 9.75003 2.99609ZM8.25003 16.4961C7.95336 16.4961 7.66335 16.4081 7.41668 16.2433C7.17 16.0785 6.97774 15.8442 6.86421 15.5701C6.75068 15.296 6.72098 14.9944 6.77885 14.7035C6.83673 14.4125 6.97959 14.1452 7.18937 13.9354C7.39915 13.7257 7.66642 13.5828 7.9574 13.5249C8.24837 13.467 8.54997 13.4967 8.82406 13.6103C9.09815 13.7238 9.33241 13.9161 9.49724 14.1627C9.66206 14.4094 9.75003 14.6994 9.75003 14.9961C9.75003 15.3939 9.592 15.7755 9.31069 16.0568C9.02939 16.3381 8.64786 16.4961 8.25003 16.4961ZM15.75 16.4961C15.4534 16.4961 15.1634 16.4081 14.9167 16.2433C14.67 16.0785 14.4777 15.8442 14.3642 15.5701C14.2507 15.296 14.221 14.9944 14.2789 14.7035C14.3367 14.4125 14.4796 14.1452 14.6894 13.9354C14.8992 13.7257 15.1664 13.5828 15.4574 13.5249C15.7484 13.467 16.05 13.4967 16.3241 13.6103C16.5981 13.7238 16.8324 13.9161 16.9972 14.1627C17.1621 14.4094 17.25 14.6994 17.25 14.9961C17.25 15.3939 17.092 15.7755 16.8107 16.0568C16.5294 16.3381 16.1479 16.4961 15.75 16.4961ZM18 8.9961C18 9.19501 17.921 9.38577 17.7804 9.52643C17.6397 9.66708 17.4489 9.7461 17.25 9.7461H6.75003C6.55112 9.7461 6.36035 9.66708 6.2197 9.52643C6.07905 9.38577 6.00003 9.19501 6.00003 8.9961V7.4961C6.00003 7.29718 6.07905 7.10642 6.2197 6.96577C6.36035 6.82511 6.55112 6.7461 6.75003 6.7461H17.25C17.4489 6.7461 17.6397 6.82511 17.7804 6.96577C17.921 7.10642 18 7.29718 18 7.4961V8.9961ZM16.2802 19.7159C16.1384 19.5812 15.9496 19.5072 15.754 19.5097C15.5584 19.5122 15.3716 19.591 15.2333 19.7293C15.095 19.8676 15.0162 20.0545 15.0137 20.2501C15.0112 20.4456 15.0852 20.6345 15.2199 20.7763L15.4393 20.9961H8.56081L8.78019 20.7763C8.9149 20.6345 8.9889 20.4456 8.98639 20.2501C8.98389 20.0545 8.90509 19.8676 8.76678 19.7293C8.62848 19.591 8.44163 19.5122 8.24606 19.5097C8.05048 19.5072 7.86167 19.5812 7.71988 19.7159L5.46987 21.9659C5.3973 22.0349 5.33926 22.1177 5.29918 22.2094C5.2591 22.3011 5.2378 22.4 5.23651 22.5001C5.23523 22.6002 5.254 22.6995 5.29172 22.7922C5.32944 22.885 5.38534 22.9692 5.45612 23.04C5.52691 23.1108 5.61115 23.1667 5.70388 23.2044C5.79661 23.2421 5.89596 23.2609 5.99605 23.2596C6.09615 23.2583 6.19498 23.237 6.28672 23.1969C6.37845 23.1569 6.46124 23.0988 6.53019 23.0263L7.06081 22.4961H16.9393L17.4699 23.0263C17.6117 23.161 17.8005 23.235 17.9961 23.2325C18.1916 23.23 18.3785 23.1512 18.5168 23.0129C18.6551 22.8745 18.7339 22.6877 18.7364 22.4921C18.7389 22.2966 18.6649 22.1077 18.5302 21.9659L16.2802 19.7159Z" fill="#666666"/>
</g>
<defs>
<clipPath id="clip0_32_3444">
<rect width="24" height="24" fill="white" transform="translate(0 -0.00390625)"/>
</clipPath>
</defs>
</svg>
