<svg width="24" height="24" viewBox="0 0 24 24" fill="none" xmlns="http://www.w3.org/2000/svg">
<g clip-path="url(#clip0_32_3435)">
<path d="M16.5001 1.49792H7.50013C6.25749 1.49792 5.25013 2.50528 5.25013 3.74793V15.7479C5.25013 16.9906 6.25749 17.9979 7.50013 17.9979H16.5001C17.7428 17.9979 18.7501 16.9906 18.7501 15.7479V3.74793C18.7501 2.50528 17.7428 1.49792 16.5001 1.49792Z" stroke="#666666" stroke-width="1.5" stroke-miterlimit="10"/>
<path d="M9.75002 3.74707H14.25" stroke="#666666" stroke-width="1.5" stroke-linecap="round" stroke-linejoin="round"/>
<path d="M17.2501 5.99609H6.75013C5.9217 5.99609 5.25013 6.66767 5.25013 7.49609V8.99609C5.25013 9.82452 5.9217 10.4961 6.75013 10.4961H17.2501C18.0786 10.4961 18.7501 9.82452 18.7501 8.99609V7.49609C18.7501 6.66767 18.0786 5.99609 17.2501 5.99609Z" stroke="#666666" stroke-width="1.5" stroke-linecap="round" stroke-linejoin="round"/>
<path d="M8.25008 15.7489C8.66429 15.7489 9.00008 15.4131 9.00008 14.9989C9.00008 14.5847 8.66429 14.2489 8.25008 14.2489C7.83586 14.2489 7.50008 14.5847 7.50008 14.9989C7.50008 15.4131 7.83586 15.7489 8.25008 15.7489Z" stroke="#666666" stroke-width="1.5" stroke-linejoin="round"/>
<path d="M15.7501 15.7489C16.1643 15.7489 16.5001 15.4131 16.5001 14.9989C16.5001 14.5847 16.1643 14.2489 15.7501 14.2489C15.3359 14.2489 15.0001 14.5847 15.0001 14.9989C15.0001 15.4131 15.3359 15.7489 15.7501 15.7489Z" stroke="#666666" stroke-width="1.5" stroke-linejoin="round"/>
<path d="M8.25016 20.2479L6.00016 22.4979M6.75016 21.7479H17.2502H6.75016ZM15.7502 20.2479L18.0002 22.4979L15.7502 20.2479Z" stroke="#666666" stroke-width="1.5" stroke-linecap="round" stroke-linejoin="round"/>
</g>
<defs>
<clipPath id="clip0_32_3435">
<rect width="24" height="24" fill="white" transform="translate(0.00012207 -0.00390625)"/>
</clipPath>
</defs>
</svg>
