<svg width="24" height="24" viewBox="0 0 24 24" fill="none" xmlns="http://www.w3.org/2000/svg">
<g clip-path="url(#clip0_32_3442)">
<path d="M18.3751 0.749756H5.62509C5.32672 0.749756 5.04058 0.868282 4.8296 1.07926C4.61862 1.29024 4.50009 1.57639 4.50009 1.87476V17.6248C4.50009 17.9231 4.61862 18.2093 4.8296 18.4203C5.04058 18.6312 5.32672 18.7498 5.62509 18.7498H18.3751C18.6735 18.7498 18.9596 18.6312 19.1706 18.4203C19.3816 18.2093 19.5001 17.9231 19.5001 17.6248V1.87476C19.5001 1.57639 19.3816 1.29024 19.1706 1.07926C18.9596 0.868282 18.6735 0.749756 18.3751 0.749756ZM9.75009 2.99976H14.229C14.6326 2.99976 14.979 3.31007 14.9992 3.71366C15.004 3.81507 14.9883 3.91641 14.9529 4.01155C14.9174 4.10669 14.863 4.19364 14.793 4.26714C14.723 4.34064 14.6387 4.39916 14.5454 4.43914C14.4521 4.47913 14.3516 4.49975 14.2501 4.49976H9.77119C9.36759 4.49976 9.02119 4.18944 9.00103 3.78585C8.99615 3.68444 9.0119 3.5831 9.04734 3.48796C9.08278 3.39282 9.13716 3.30587 9.2072 3.23237C9.27723 3.15887 9.36146 3.10036 9.45478 3.06037C9.5481 3.02039 9.64857 2.99977 9.75009 2.99976ZM8.41275 16.4913C8.10404 16.5249 7.79251 16.4619 7.52115 16.3109C7.24979 16.1599 7.03198 15.9284 6.89777 15.6484C6.76357 15.3684 6.71959 15.0536 6.77189 14.7475C6.8242 14.4414 6.97022 14.159 7.1898 13.9395C7.40938 13.7199 7.6917 13.5739 7.9978 13.5216C8.3039 13.4693 8.61868 13.5132 8.89872 13.6474C9.17876 13.7816 9.41024 13.9995 9.56123 14.2708C9.71221 14.5422 9.77525 14.8537 9.74166 15.1624C9.70468 15.5022 9.55279 15.8191 9.31112 16.0608C9.06946 16.3025 8.75251 16.4543 8.41275 16.4913ZM15.9128 16.4913C15.604 16.5249 15.2925 16.4619 15.0212 16.3109C14.7498 16.1599 14.532 15.9284 14.3978 15.6484C14.2636 15.3684 14.2196 15.0536 14.2719 14.7475C14.3242 14.4414 14.4702 14.159 14.6898 13.9395C14.9094 13.7199 15.1917 13.5739 15.4978 13.5216C15.8039 13.4693 16.1187 13.5132 16.3987 13.6474C16.6788 13.7816 16.9102 13.9995 17.0612 14.2708C17.2122 14.5422 17.2753 14.8537 17.2417 15.1624C17.2047 15.5022 17.0528 15.8191 16.8111 16.0608C16.5695 16.3025 16.2525 16.4543 15.9128 16.4913ZM18.0001 6.74976V9.74976H6.00009V6.74976H18.0001ZM13.9688 19.4998L15.4393 20.9998H8.56087L10.0313 19.4998H7.96884L4.19212 23.2498H6.31087L7.06087 22.4998H16.9393L17.6893 23.2498H19.8128L16.0782 19.4998H13.9688Z" fill="#666666"/>
</g>
<defs>
<clipPath id="clip0_32_3442">
<rect width="24" height="24" fill="white" transform="translate(0 -0.00390625)"/>
</clipPath>
</defs>
</svg>
