<svg width="24" height="24" viewBox="0 0 24 24" fill="none" xmlns="http://www.w3.org/2000/svg">
<path d="M10.9688 1.21936H13.0313V5.53186H10.9688V1.21936ZM10.9688 18.4694H13.0313V22.7819H10.9688V18.4694ZM15.8449 6.69703L18.8943 3.64763L20.3528 5.10605L17.3034 8.15545L15.8449 6.69703ZM3.64759 18.8947L6.697 15.8453L8.15542 17.3037L5.10602 20.3531L3.64759 18.8947ZM18.4688 10.9694H22.7813V13.0319H18.4688V10.9694ZM1.21877 10.9694H5.53127V13.0319H1.21877V10.9694ZM15.8451 17.304L17.3035 15.8456L20.3529 18.895L18.8945 20.3534L15.8451 17.304ZM3.64698 5.10624L5.10541 3.64781L8.15481 6.69722L6.69639 8.15559L3.64698 5.10624ZM12 16.7819C11.0544 16.7819 10.13 16.5014 9.34369 15.9761C8.55742 15.4507 7.9446 14.704 7.58272 13.8303C7.22083 12.9567 7.12615 11.9953 7.31064 11.0678C7.49512 10.1404 7.95049 9.28843 8.61916 8.61976C9.28783 7.95109 10.1398 7.49572 11.0672 7.31123C11.9947 7.12675 12.9561 7.22143 13.8297 7.58331C14.7034 7.94519 15.4501 8.55802 15.9755 9.34429C16.5008 10.1306 16.7813 11.055 16.7813 12.0006C16.7798 13.2682 16.2756 14.4835 15.3792 15.3798C14.4829 16.2762 13.2676 16.7804 12 16.7819Z" fill="#666666"/>
</svg>
