<svg width="24" height="24" viewBox="0 0 24 24" fill="none" xmlns="http://www.w3.org/2000/svg">
<path d="M12.0001 5.53186C11.7266 5.53186 11.4643 5.42321 11.2709 5.22981C11.0775 5.03642 10.9688 4.77411 10.9688 4.50061V2.25061C10.9688 1.97711 11.0775 1.7148 11.2709 1.52141C11.4643 1.32801 11.7266 1.21936 12.0001 1.21936C12.2736 1.21936 12.5359 1.32801 12.7293 1.52141C12.9227 1.7148 13.0313 1.97711 13.0313 2.25061V4.50061C13.0313 4.77411 12.9227 5.03642 12.7293 5.22981C12.5359 5.42321 12.2736 5.53186 12.0001 5.53186ZM12.0001 22.7819C11.7266 22.7819 11.4643 22.6732 11.2709 22.4798C11.0775 22.2864 10.9688 22.0241 10.9688 21.7506V19.5006C10.9688 19.2271 11.0775 18.9648 11.2709 18.7714C11.4643 18.578 11.7266 18.4694 12.0001 18.4694C12.2736 18.4694 12.5359 18.578 12.7293 18.7714C12.9227 18.9648 13.0313 19.2271 13.0313 19.5006V21.7506C13.0313 22.0241 12.9227 22.2864 12.7293 22.4798C12.5359 22.6732 12.2736 22.7819 12.0001 22.7819ZM17.3035 7.72842C17.0996 7.7284 16.9003 7.66792 16.7307 7.55463C16.5612 7.44134 16.429 7.28033 16.3509 7.09195C16.2729 6.90357 16.2524 6.69627 16.2921 6.49626C16.3319 6.29626 16.43 6.11252 16.5741 5.96827L18.1651 4.37733C18.3593 4.18814 18.6203 4.08306 18.8914 4.08485C19.1625 4.08663 19.4221 4.19514 19.6138 4.38687C19.8055 4.5786 19.9141 4.83814 19.9158 5.10928C19.9176 5.38043 19.8125 5.64137 19.6234 5.83561L18.0324 7.42655C17.9368 7.52239 17.8232 7.59839 17.6981 7.6502C17.573 7.702 17.4389 7.72859 17.3035 7.72842ZM5.1057 19.9262C4.90173 19.9262 4.70234 19.8657 4.53276 19.7524C4.36318 19.639 4.23103 19.4779 4.153 19.2895C4.07498 19.101 4.0546 18.8936 4.09443 18.6936C4.13426 18.4935 4.23253 18.3098 4.37679 18.1656L5.96773 16.5747C6.06302 16.4768 6.17679 16.3989 6.30244 16.3454C6.42809 16.2919 6.56312 16.2639 6.69968 16.263C6.83625 16.2621 6.97163 16.2883 7.09798 16.3402C7.22432 16.392 7.33911 16.4684 7.43568 16.565C7.53225 16.6616 7.60867 16.7764 7.66052 16.9027C7.71236 17.0291 7.7386 17.1644 7.7377 17.301C7.7368 17.4376 7.70879 17.5726 7.65528 17.6982C7.60177 17.8239 7.52384 17.9377 7.42601 18.033L5.83507 19.6239C5.73941 19.7199 5.62573 19.796 5.50056 19.8478C5.37539 19.8997 5.2412 19.9264 5.1057 19.9262ZM21.7501 13.0319H19.5001C19.2266 13.0319 18.9643 12.9232 18.7709 12.7298C18.5775 12.5364 18.4688 12.2741 18.4688 12.0006C18.4688 11.7271 18.5775 11.4648 18.7709 11.2714C18.9643 11.078 19.2266 10.9694 19.5001 10.9694H21.7501C22.0236 10.9694 22.2859 11.078 22.4793 11.2714C22.6727 11.4648 22.7813 11.7271 22.7813 12.0006C22.7813 12.2741 22.6727 12.5364 22.4793 12.7298C22.2859 12.9232 22.0236 13.0319 21.7501 13.0319ZM4.50007 13.0319H2.25007C1.97657 13.0319 1.71427 12.9232 1.52087 12.7298C1.32747 12.5364 1.21882 12.2741 1.21882 12.0006C1.21882 11.7271 1.32747 11.4648 1.52087 11.2714C1.71427 11.078 1.97657 10.9694 2.25007 10.9694H4.50007C4.77358 10.9694 5.03588 11.078 5.22928 11.2714C5.42267 11.4648 5.53132 11.7271 5.53132 12.0006C5.53132 12.2741 5.42267 12.5364 5.22928 12.7298C5.03588 12.9232 4.77358 13.0319 4.50007 13.0319ZM18.8944 19.9262C18.7589 19.9264 18.6248 19.8997 18.4996 19.8478C18.3744 19.796 18.2607 19.7199 18.1651 19.6239L16.5741 18.033C16.3849 17.8387 16.2799 17.5778 16.2817 17.3066C16.2834 17.0355 16.3919 16.7759 16.5837 16.5842C16.7754 16.3925 17.0349 16.284 17.3061 16.2822C17.5772 16.2804 17.8382 16.3855 18.0324 16.5747L19.6234 18.1656C19.7676 18.3098 19.8659 18.4935 19.9057 18.6936C19.9455 18.8936 19.9252 19.101 19.8471 19.2895C19.7691 19.4779 19.637 19.639 19.4674 19.7524C19.2978 19.8657 19.0984 19.9262 18.8944 19.9262ZM6.69664 7.72842C6.56123 7.72869 6.42711 7.70215 6.30201 7.65034C6.17691 7.59853 6.0633 7.52247 5.96773 7.42655L4.37679 5.83561C4.1876 5.64137 4.08252 5.38043 4.08431 5.10928C4.08609 4.83814 4.1946 4.5786 4.38633 4.38687C4.57807 4.19514 4.8376 4.08663 5.10874 4.08485C5.37989 4.08306 5.64083 4.18814 5.83507 4.37733L7.42601 5.96827C7.57014 6.11252 7.66827 6.29626 7.708 6.49626C7.74773 6.69627 7.72727 6.90357 7.6492 7.09195C7.57114 7.28033 7.43898 7.44134 7.26943 7.55463C7.09988 7.66792 6.90055 7.7284 6.69664 7.72842ZM12.0001 16.7819C11.0544 16.7819 10.13 16.5014 9.34375 15.9761C8.55748 15.4507 7.94465 14.704 7.58277 13.8303C7.22089 12.9567 7.12621 11.9953 7.31069 11.0678C7.49518 10.1404 7.95055 9.28843 8.61922 8.61976C9.28789 7.95109 10.1398 7.49572 11.0673 7.31123C11.9948 7.12675 12.9561 7.22143 13.8298 7.58331C14.7034 7.94519 15.4502 8.55802 15.9755 9.34429C16.5009 10.1306 16.7813 11.055 16.7813 12.0006C16.7798 13.2682 16.2756 14.4835 15.3793 15.3798C14.4829 16.2762 13.2677 16.7804 12.0001 16.7819Z" fill="#666666"/>
</svg>
