<svg width="24" height="24" viewBox="0 0 24 24" fill="none" xmlns="http://www.w3.org/2000/svg">
<path d="M6.69657 6.69363L5.10563 5.1027M12 2.24707V4.49707V2.24707ZM12 19.4971V21.7471V19.4971ZM18.8944 5.1027L17.3034 6.69363L18.8944 5.1027ZM6.69657 17.3005L5.10563 18.8914L6.69657 17.3005ZM21.75 11.9971H19.5H21.75ZM4.50001 11.9971H2.25001H4.50001ZM18.8944 18.8914L17.3034 17.3005L18.8944 18.8914Z" stroke="#666666" stroke-width="1.5" stroke-miterlimit="10" stroke-linecap="round"/>
<path d="M12 15.7461C14.071 15.7461 15.75 14.0672 15.75 11.9961C15.75 9.92503 14.071 8.24609 12 8.24609C9.92889 8.24609 8.24995 9.92503 8.24995 11.9961C8.24995 14.0672 9.92889 15.7461 12 15.7461Z" stroke="#666666" stroke-width="1.5" stroke-miterlimit="10" stroke-linecap="round"/>
</svg>
