<svg width="24" height="24" viewBox="0 0 24 24" fill="none" xmlns="http://www.w3.org/2000/svg">
<path d="M21 11.9962C21 7.02747 16.9687 2.99622 12 2.99622C7.03122 2.99622 2.99997 7.02747 2.99997 11.9962C2.99997 16.965 7.03122 20.9962 12 20.9962C16.9687 20.9962 21 16.965 21 11.9962Z" stroke="#666666" stroke-width="1.5" stroke-miterlimit="10"/>
<path d="M16.4915 12.7407V11.9907C16.4884 11.0797 16.2094 10.1911 15.6911 9.44187C15.1729 8.69268 14.4397 8.11812 13.5884 7.79394C12.7371 7.46976 11.8075 7.41117 10.9221 7.6259C10.0368 7.84062 9.23738 8.31858 8.62916 8.99678M7.49479 11.2547V12.0047C7.49798 12.9167 7.77756 13.8063 8.29667 14.5562C8.81577 15.3061 9.54999 15.8809 10.4025 16.205C11.255 16.529 12.1857 16.587 13.0718 16.3713C13.9579 16.1556 14.7579 15.6764 15.366 14.9968" stroke="#666666" stroke-width="1.5" stroke-linecap="round" stroke-linejoin="round"/>
<path d="M17.6312 11.9991L16.5254 13.1053L15.369 11.9991M6.36897 11.9991L7.47475 10.8928L8.63116 11.9991H6.36897Z" stroke="#666666" stroke-width="1.5" stroke-linecap="round" stroke-linejoin="round"/>
</svg>
