<svg width="24" height="24" viewBox="0 0 24 24" fill="none" xmlns="http://www.w3.org/2000/svg">
<path d="M12.0001 2.24792C6.61554 2.24792 2.25007 6.61339 2.25007 11.9979C2.25007 17.3825 6.61554 21.7479 12.0001 21.7479C17.3846 21.7479 21.7501 17.3825 21.7501 11.9979C21.7501 6.61339 17.3846 2.24792 12.0001 2.24792ZM15.923 15.4971C15.2486 16.2498 14.3716 16.7923 13.397 17.0597C12.4224 17.3271 11.3914 17.3082 10.4272 17.0051C9.46312 16.7021 8.60666 16.1278 7.9603 15.3509C7.31393 14.574 6.905 13.6273 6.78241 12.6242C6.62732 12.7268 6.43964 12.7681 6.25578 12.7402C6.07192 12.7122 5.90501 12.617 5.78744 12.4729C5.66987 12.3288 5.61002 12.1461 5.61952 11.9604C5.62901 11.7747 5.70717 11.5991 5.83882 11.4678L6.94507 10.3615C7.08367 10.2229 7.271 10.1441 7.46698 10.1419C7.66296 10.1397 7.852 10.2144 7.99366 10.3498L9.15007 11.4561C9.27992 11.5793 9.36141 11.7449 9.37982 11.923C9.39822 12.101 9.35233 12.2798 9.25043 12.427C9.14854 12.5742 8.99736 12.68 8.82421 12.7255C8.65106 12.7709 8.46737 12.753 8.30632 12.6748C8.43478 13.366 8.75437 14.0074 9.22885 14.5262C9.70333 15.045 10.3137 15.4204 10.9907 15.6099C11.6677 15.7995 12.3843 15.7954 13.0592 15.5984C13.7341 15.4013 14.3402 15.019 14.8088 14.495C14.9433 14.3527 15.1281 14.2687 15.3237 14.2608C15.5193 14.253 15.7103 14.3219 15.8557 14.453C16.0012 14.584 16.0897 14.7667 16.1022 14.9621C16.1148 15.1574 16.0505 15.35 15.923 15.4986V15.4971ZM18.1618 12.5281L17.0555 13.6343C16.9169 13.7729 16.7296 13.8517 16.5336 13.8539C16.3377 13.8561 16.1486 13.7815 16.0069 13.6461L14.8505 12.5398C14.7232 12.4172 14.6432 12.2536 14.6248 12.0778C14.6063 11.902 14.6505 11.7253 14.7496 11.5789C14.8487 11.4326 14.9964 11.3259 15.1665 11.2778C15.3366 11.2297 15.5182 11.2432 15.6793 11.3159C15.5505 10.6262 15.2312 9.98638 14.7575 9.46879C14.2839 8.9512 13.6748 8.57654 12.9992 8.38722C12.3237 8.1979 11.6086 8.20148 10.935 8.39756C10.2613 8.59363 9.65601 8.97437 9.18757 9.49668C9.1218 9.56999 9.04223 9.62963 8.9534 9.67219C8.86458 9.71476 8.76824 9.73941 8.66989 9.74474C8.57154 9.75007 8.4731 9.73598 8.3802 9.70327C8.28729 9.67056 8.20174 9.61987 8.12843 9.5541C8.05511 9.48832 7.99547 9.40875 7.95291 9.31993C7.91035 9.23111 7.88569 9.13477 7.88036 9.03642C7.87503 8.93807 7.88912 8.83963 7.92183 8.74673C7.95454 8.65382 8.00523 8.56827 8.07101 8.49496C8.746 7.74237 9.62364 7.20032 10.5988 6.93375C11.574 6.66718 12.6053 6.68738 13.5693 6.99193C14.5333 7.29649 15.389 7.87249 16.034 8.65093C16.679 9.42938 17.0859 10.3773 17.206 11.3811C17.36 11.276 17.5477 11.2321 17.7323 11.2579C17.9169 11.2838 18.0853 11.3774 18.2047 11.5206C18.324 11.6638 18.3857 11.8464 18.3778 12.0326C18.3699 12.2189 18.2929 12.3955 18.1618 12.5281Z" fill="#666666"/>
</svg>
