<svg width="24" height="24" viewBox="0 0 24 24" fill="none" xmlns="http://www.w3.org/2000/svg">
<path d="M12 2.24792C6.61548 2.24792 2.25001 6.61339 2.25001 11.9979C2.25001 17.3825 6.61548 21.7479 12 21.7479C17.3845 21.7479 21.75 17.3825 21.75 11.9979C21.75 6.61339 17.3845 2.24792 12 2.24792ZM12 17.2479C10.719 17.2474 9.4822 16.7793 8.52185 15.9315C7.5615 15.0837 6.94363 13.9145 6.78423 12.6434L6.36891 13.0587L5.30813 11.9979L7.46438 9.84168L9.69329 11.9736L8.65641 13.0573L8.31891 12.7348C8.45799 13.4185 8.78447 14.0501 9.26186 14.559C9.73925 15.0679 10.3488 15.4339 11.0222 15.6163C11.6957 15.7987 12.4067 15.7902 13.0756 15.5917C13.7445 15.3933 14.3451 15.0128 14.8102 14.4926L15.9244 15.4962C15.4293 16.0466 14.8242 16.4869 14.1482 16.7887C13.4721 17.0904 12.7403 17.2469 12 17.2479ZM16.537 14.1542L14.3081 12.0214L15.345 10.9376L15.6666 11.2446C15.5254 10.5637 15.1982 9.93516 14.7212 9.42906C14.2441 8.92297 13.6361 8.55911 12.9646 8.37796C12.2932 8.19681 11.5846 8.20547 10.9178 8.40297C10.251 8.60047 9.65201 8.97908 9.18751 9.49668L8.07095 8.49496C8.74514 7.74387 9.62124 7.20267 10.5947 6.93598C11.5681 6.66928 12.5977 6.68836 13.5605 6.99093C14.5234 7.2935 15.3789 7.86678 16.0248 8.64233C16.6707 9.41788 17.0797 10.3629 17.2031 11.3646L17.6302 10.9371L18.6919 11.9979L16.537 14.1542Z" fill="#666666"/>
</svg>
