<svg width="24" height="24" viewBox="0 0 24 24" fill="none" xmlns="http://www.w3.org/2000/svg">
<g clip-path="url(#clip0_32_3491)">
<path d="M20.1562 -0.000244141H3.84372C3.61994 -0.000244141 3.40533 0.0886507 3.2471 0.246885C3.08886 0.405118 2.99997 0.61973 2.99997 0.843506V23.156C2.99997 23.3798 3.08886 23.5944 3.2471 23.7526C3.40533 23.9109 3.61994 23.9998 3.84372 23.9998H20.1562C20.38 23.9998 20.5946 23.9109 20.7528 23.7526C20.9111 23.5944 21 23.3798 21 23.156V0.843506C21 0.61973 20.9111 0.405118 20.7528 0.246885C20.5946 0.0886507 20.38 -0.000244141 20.1562 -0.000244141V-0.000244141ZM4.68747 20.9998V2.99976H19.3125V20.9998H4.68747Z" fill="#666666"/>
</g>
<defs>
<clipPath id="clip0_32_3491">
<rect width="24" height="24" fill="white"/>
</clipPath>
</defs>
</svg>
