<svg width="24" height="24" viewBox="0 0 24 24" fill="none" xmlns="http://www.w3.org/2000/svg">
<g clip-path="url(#clip0_32_3493)">
<path d="M18 23.9998H6.00004C5.20466 23.9989 4.4421 23.6825 3.87968 23.1201C3.31726 22.5577 3.00091 21.7951 3.00004 20.9998V2.99976C3.00091 2.20437 3.31726 1.44182 3.87968 0.879395C4.4421 0.316974 5.20466 0.000624385 6.00004 -0.000244141L18 -0.000244141C18.7954 0.000624385 19.558 0.316974 20.1204 0.879395C20.6828 1.44182 20.9992 2.20437 21 2.99976V20.9998C20.9992 21.7951 20.6828 22.5577 20.1204 23.1201C19.558 23.6825 18.7954 23.9989 18 23.9998ZM6.00004 1.49976C5.60221 1.49976 5.22068 1.65779 4.93938 1.9391C4.65807 2.2204 4.50004 2.60193 4.50004 2.99976V20.9998C4.50004 21.3976 4.65807 21.7791 4.93938 22.0604C5.22068 22.3417 5.60221 22.4998 6.00004 22.4998H18C18.3979 22.4998 18.7794 22.3417 19.0607 22.0604C19.342 21.7791 19.5 21.3976 19.5 20.9998V2.99976C19.5 2.60193 19.342 2.2204 19.0607 1.9391C18.7794 1.65779 18.3979 1.49976 18 1.49976H6.00004Z" fill="#666666"/>
<path d="M18 -0.000244141C18.7954 0.000624385 19.558 0.316974 20.1204 0.879395C20.6828 1.44182 20.9992 2.20437 21 2.99976V20.9998C20.9992 21.7951 20.6828 22.5577 20.1204 23.1201C19.558 23.6825 18.7954 23.9989 18 23.9998H6.00004C5.20466 23.9989 4.4421 23.6825 3.87968 23.1201C3.31726 22.5577 3.00091 21.7951 3.00004 20.9998V2.99976C3.00091 2.20437 3.31726 1.44182 3.87968 0.879395C4.4421 0.316974 5.20466 0.000624385 6.00004 -0.000244141L18 -0.000244141ZM6.00004 22.4998H18C18.3979 22.4998 18.7794 22.3417 19.0607 22.0604C19.342 21.7791 19.5 21.3976 19.5 20.9998V2.99976C19.5 2.60193 19.342 2.2204 19.0607 1.9391C18.7794 1.65779 18.3979 1.49976 18 1.49976H6.00004C5.60221 1.49976 5.22068 1.65779 4.93938 1.9391C4.65807 2.2204 4.50004 2.60193 4.50004 2.99976V20.9998C4.50004 21.3976 4.65807 21.7791 4.93938 22.0604C5.22068 22.3417 5.60221 22.4998 6.00004 22.4998ZM6.00004 21.7498C5.80113 21.7498 5.61036 21.6707 5.46971 21.5301C5.32906 21.3894 5.25004 21.1987 5.25004 20.9998V2.99976C5.25004 2.80084 5.32906 2.61008 5.46971 2.46943C5.61036 2.32877 5.80113 2.24976 6.00004 2.24976H18C18.199 2.24976 18.3897 2.32877 18.5304 2.46943C18.671 2.61008 18.75 2.80084 18.75 2.99976V20.9998C18.75 21.1987 18.671 21.3894 18.5304 21.5301C18.3897 21.6707 18.199 21.7498 18 21.7498H6.00004Z" fill="#666666"/>
</g>
<defs>
<clipPath id="clip0_32_3493">
<rect width="24" height="24" fill="white"/>
</clipPath>
</defs>
</svg>
