<svg width="24" height="24" viewBox="0 0 24 24" fill="none" xmlns="http://www.w3.org/2000/svg">
<g clip-path="url(#clip0_32_3486)">
<path d="M24.0001 5.99622V17.9962C23.9992 18.7916 23.6829 19.5542 23.1204 20.1166C22.558 20.679 21.7955 20.9953 21.0001 20.9962H3.00008C2.20469 20.9953 1.44214 20.679 0.879715 20.1166C0.317294 19.5542 0.00094482 18.7916 7.62939e-05 17.9962L7.62939e-05 5.99622C0.00094482 5.20083 0.317294 4.43828 0.879715 3.87585C1.44214 3.31343 2.20469 2.99708 3.00008 2.99622H21.0001C21.7955 2.99708 22.558 3.31343 23.1204 3.87585C23.6829 4.43828 23.9992 5.20083 24.0001 5.99622ZM1.50008 17.9962C1.50008 18.394 1.65811 18.7756 1.93942 19.0569C2.22072 19.3382 2.60225 19.4962 3.00008 19.4962H21.0001C21.3979 19.4962 21.7794 19.3382 22.0607 19.0569C22.342 18.7756 22.5001 18.394 22.5001 17.9962V5.99622C22.5001 5.59839 22.342 5.21686 22.0607 4.93556C21.7794 4.65425 21.3979 4.49622 21.0001 4.49622H3.00008C2.60225 4.49622 2.22072 4.65425 1.93942 4.93556C1.65811 5.21686 1.50008 5.59839 1.50008 5.99622V17.9962Z" fill="#666666"/>
<path d="M7.62939e-05 5.99622C0.00094482 5.20083 0.317294 4.43828 0.879715 3.87585C1.44214 3.31343 2.20469 2.99708 3.00008 2.99622H21.0001C21.7955 2.99708 22.558 3.31343 23.1204 3.87585C23.6829 4.43828 23.9992 5.20083 24.0001 5.99622V17.9962C23.9992 18.7916 23.6829 19.5542 23.1204 20.1166C22.558 20.679 21.7955 20.9953 21.0001 20.9962H3.00008C2.20469 20.9953 1.44214 20.679 0.879715 20.1166C0.317294 19.5542 0.00094482 18.7916 7.62939e-05 17.9962L7.62939e-05 5.99622ZM22.5001 17.9962V5.99622C22.5001 5.59839 22.342 5.21686 22.0607 4.93556C21.7794 4.65425 21.3979 4.49622 21.0001 4.49622H3.00008C2.60225 4.49622 2.22072 4.65425 1.93942 4.93556C1.65811 5.21686 1.50008 5.59839 1.50008 5.99622V17.9962C1.50008 18.394 1.65811 18.7756 1.93942 19.0569C2.22072 19.3382 2.60225 19.4962 3.00008 19.4962H21.0001C21.3979 19.4962 21.7794 19.3382 22.0607 19.0569C22.342 18.7756 22.5001 18.394 22.5001 17.9962ZM21.7501 17.9962C21.7501 18.1951 21.6711 18.3859 21.5304 18.5265C21.3898 18.6672 21.199 18.7462 21.0001 18.7462H3.00008C2.80116 18.7462 2.6104 18.6672 2.46975 18.5265C2.32909 18.3859 2.25008 18.1951 2.25008 17.9962V5.99622C2.25008 5.7973 2.32909 5.60654 2.46975 5.46589C2.6104 5.32523 2.80116 5.24622 3.00008 5.24622H21.0001C21.199 5.24622 21.3898 5.32523 21.5304 5.46589C21.6711 5.60654 21.7501 5.7973 21.7501 5.99622V17.9962Z" fill="#666666"/>
</g>
<defs>
<clipPath id="clip0_32_3486">
<rect width="24" height="24" fill="white"/>
</clipPath>
</defs>
</svg>
