<svg width="24" height="24" viewBox="0 0 24 24" fill="none" xmlns="http://www.w3.org/2000/svg">
<g clip-path="url(#clip0_32_3484)">
<path d="M1.14441e-05 3.83997V20.1525C1.14441e-05 20.3762 0.0889063 20.5909 0.24714 20.7491C0.405374 20.9073 0.619985 20.9962 0.843762 20.9962H23.1563C23.38 20.9962 23.5947 20.9073 23.7529 20.7491C23.9111 20.5909 24 20.3762 24 20.1525V3.83997C24 3.61619 23.9111 3.40158 23.7529 3.24334C23.5947 3.08511 23.38 2.99622 23.1563 2.99622H0.843762C0.619985 2.99622 0.405374 3.08511 0.24714 3.24334C0.0889063 3.40158 1.14441e-05 3.61619 1.14441e-05 3.83997H1.14441e-05ZM21 19.3087H3.00001V4.68372H21V19.3087Z" fill="#666666"/>
</g>
<defs>
<clipPath id="clip0_32_3484">
<rect width="24" height="24" fill="white"/>
</clipPath>
</defs>
</svg>
