<svg width="24" height="24" viewBox="0 0 24 24" fill="none" xmlns="http://www.w3.org/2000/svg">
<path d="M5.04191 11.715C4.94248 11.5428 4.77873 11.4171 4.58667 11.3656C4.3946 11.3141 4.18995 11.3409 4.01769 11.4403L1.68753 12.7842C1.4694 12.9092 1.27885 13.0771 1.12739 13.2778C0.975932 13.4785 0.866699 13.7078 0.806281 13.9518C0.690022 14.4358 0.766506 14.9459 1.01956 15.3745L1.22394 15.7279C1.47274 16.1582 1.88217 16.472 2.36225 16.6005C2.84234 16.729 3.3538 16.6617 3.78425 16.4132L6.11253 15.0712C6.1979 15.022 6.27275 14.9565 6.33278 14.8784C6.39282 14.8002 6.43687 14.711 6.46242 14.6159C6.48798 14.5207 6.49453 14.4215 6.48171 14.3238C6.46888 14.2261 6.43693 14.1319 6.38769 14.0465L5.04191 11.715Z" fill="#666666"/>
<path d="M17.9457 20.6581L13.5338 11.9019C13.5231 11.8805 13.5209 11.8558 13.5278 11.8329C13.5347 11.8099 13.5501 11.7905 13.5708 11.7786L13.9599 11.554C14.0452 11.5048 14.12 11.4392 14.18 11.3611C14.24 11.283 14.284 11.1938 14.3095 11.0986C14.335 11.0034 14.3415 10.9042 14.3287 10.8065C14.3158 10.7088 14.2838 10.6147 14.2346 10.5294L12.0066 6.67013C11.9574 6.58476 11.8919 6.50992 11.8137 6.44988C11.7356 6.38985 11.6464 6.34579 11.5513 6.32024C11.4561 6.29469 11.3568 6.28814 11.2592 6.30096C11.1615 6.31378 11.0673 6.34573 10.9819 6.39498L6.93285 8.72935C6.7191 8.85181 6.53177 9.01546 6.38171 9.21082C6.23165 9.40619 6.12183 9.62938 6.05863 9.86748C6.01564 10.0162 5.99402 10.1702 5.99441 10.325C5.99723 10.6812 6.42566 11.389 6.84379 12.1194C7.29332 12.9045 7.74566 13.7075 8.07848 13.9076C8.29035 14.0351 8.66441 14.1373 8.97895 14.1373H9.01832L5.30019 22.1811C5.25877 22.2705 5.23538 22.3672 5.23135 22.4657C5.22733 22.5642 5.24275 22.6625 5.27675 22.755C5.31074 22.8475 5.36263 22.9324 5.42945 23.0048C5.49628 23.0773 5.57673 23.1358 5.6662 23.1772C5.75567 23.2185 5.85241 23.2418 5.95089 23.2457C6.04937 23.2496 6.14765 23.2341 6.24013 23.2C6.3326 23.1659 6.41745 23.114 6.48982 23.0471C6.5622 22.9802 6.62067 22.8996 6.66191 22.8101L11.0532 13.3109C11.0855 13.2406 11.1389 13.1821 11.206 13.1436L12.1064 12.6242C12.1175 12.6179 12.1297 12.6139 12.1424 12.6124C12.1551 12.611 12.1679 12.6122 12.1801 12.6159C12.1923 12.6195 12.2036 12.6257 12.2133 12.6339C12.2231 12.6421 12.231 12.6522 12.2368 12.6636L16.606 21.3354C16.6503 21.4234 16.7115 21.5018 16.7861 21.5661C16.8607 21.6304 16.9473 21.6794 17.0408 21.7102C17.1344 21.7411 17.2331 21.7532 17.3313 21.746C17.4295 21.7387 17.5254 21.7121 17.6133 21.6678C17.7013 21.6235 17.7797 21.5623 17.844 21.4876C17.9083 21.413 17.9573 21.3265 17.9881 21.233C18.019 21.1394 18.0311 21.0407 18.0238 20.9425C18.0165 20.8442 17.99 20.7484 17.9457 20.6604V20.6581ZM22.9786 5.42091L20.8168 1.6831C20.5673 1.25351 20.1578 0.940228 19.6778 0.811796C19.1979 0.683365 18.6867 0.750239 18.256 0.997788L13.8807 3.51873C13.6669 3.6411 13.4795 3.80473 13.3294 4.0001C13.1793 4.19548 13.0696 4.41871 13.0064 4.65685C12.9443 4.85763 12.924 5.06902 12.9469 5.27795C13.0285 5.86951 13.5563 6.70295 14.1849 7.80404C14.8214 8.91638 15.54 10.1703 15.916 10.4417C16.2338 10.6663 16.6134 10.787 17.0025 10.7872C17.3304 10.7873 17.6525 10.7009 17.9363 10.5369L22.3125 8.01451C22.5302 7.88978 22.7205 7.72234 22.8718 7.52225C23.0232 7.32216 23.1325 7.09355 23.1933 6.85013C23.3104 6.36394 23.2334 5.85124 22.9786 5.42091Z" fill="#666666"/>
</svg>
