<svg width="24" height="24" viewBox="0 0 24 24" fill="none" xmlns="http://www.w3.org/2000/svg">
<path d="M0.0661049 13.7265L2.16704 17.3345L6.76736 14.6917L4.67064 11.0649L0.0661049 13.7265Z" fill="#666666"/>
<path d="M13.494 11.8252L14.6035 11.1779L11.6307 6.02162L5.40006 9.63099C6.26959 11.1301 8.25006 14.528 8.25006 14.528L8.97803 14.138C8.98928 14.1319 9.00381 14.138 9.01693 14.138L4.81178 23.2468H6.4599L11.1029 13.2038L12.1922 12.5757L16.7813 21.7468H18.4688L13.494 11.8252ZM12.2851 4.49677C13.448 6.4763 15.1093 9.38349 16.3351 11.4699L23.9433 7.0749L19.8783 0.0628662L12.2851 4.49677Z" fill="#666666"/>
</svg>
