<svg width="24" height="24" viewBox="0 0 24 24" fill="none" xmlns="http://www.w3.org/2000/svg">
<g clip-path="url(#clip0_32_3496)">
<path d="M1.8717 15.3547L1.65092 14.9736C1.57701 14.8456 1.52902 14.7044 1.5097 14.5579C1.49038 14.4114 1.5001 14.2626 1.53832 14.1198C1.57654 13.9771 1.6425 13.8433 1.73244 13.726C1.82238 13.6088 1.93453 13.5104 2.06249 13.4366L6.13452 11.0895C6.21989 11.04 6.31419 11.0079 6.41201 10.9949C6.50983 10.9819 6.60925 10.9884 6.70457 11.0139C6.79989 11.0394 6.88924 11.0835 6.9675 11.1436C7.04575 11.2037 7.11138 11.2787 7.16061 11.3642L7.75639 12.3955C7.85574 12.5677 7.88261 12.7724 7.8311 12.9644C7.77959 13.1565 7.65392 13.3203 7.48171 13.4197L3.41061 15.7667C3.15182 15.9158 2.84446 15.9561 2.55596 15.8789C2.26747 15.8016 2.02138 15.6131 1.8717 15.3547V15.3547Z" stroke="#666666" stroke-width="1.5" stroke-linecap="round" stroke-linejoin="round"/>
<path d="M12.7406 12.0013L17.2758 21.0004M8.00062 12.831L6.89624 10.9223C6.74719 10.6638 6.70691 10.3567 6.78427 10.0685C6.86162 9.78038 7.05028 9.53475 7.30874 9.38569L13.1428 6.02241C13.2282 5.97292 13.3225 5.94077 13.4203 5.9278C13.5181 5.91482 13.6175 5.92128 13.7129 5.9468C13.8082 5.97231 13.8975 6.01639 13.9758 6.0765C14.054 6.13661 14.1197 6.21158 14.1689 6.2971L15.6487 8.856C15.748 9.0281 15.775 9.23256 15.7236 9.4245C15.6723 9.61644 15.5469 9.78017 15.375 9.87975L9.53952 13.2426C9.4115 13.3168 9.2701 13.365 9.12341 13.3845C8.97672 13.404 8.82763 13.3943 8.68468 13.3561C8.54173 13.3178 8.40773 13.2518 8.29034 13.1617C8.17296 13.0716 8.07451 12.9592 8.00062 12.831ZM16.0242 9.47897L13.8441 5.70881C13.695 5.45035 13.6547 5.14326 13.7321 4.8551C13.8094 4.56694 13.9981 4.32131 14.2566 4.17225L18.6295 1.65131C18.8883 1.50217 19.1957 1.46175 19.4843 1.5389C19.7729 1.61605 20.0191 1.80448 20.1689 2.06288L22.3491 5.83303C22.4229 5.96103 22.4709 6.10233 22.4901 6.24886C22.5094 6.39539 22.4996 6.54428 22.4613 6.68701C22.423 6.82975 22.3569 6.96354 22.2669 7.08074C22.1768 7.19794 22.0646 7.29626 21.9366 7.37006L17.5636 9.891C17.3048 10.0402 16.9973 10.0807 16.7087 10.0034C16.4201 9.92616 16.1739 9.73754 16.0242 9.47897V9.47897ZM5.98077 22.5004L10.4873 12.7508L5.98077 22.5004Z" stroke="#666666" stroke-width="1.5" stroke-linecap="round" stroke-linejoin="round"/>
</g>
<defs>
<clipPath id="clip0_32_3496">
<rect width="24" height="24" fill="white"/>
</clipPath>
</defs>
</svg>
