<svg width="24" height="24" viewBox="0 0 24 24" fill="none" xmlns="http://www.w3.org/2000/svg">
<path d="M11.55 22.4956C11.6231 22.142 11.6735 21.7841 11.7009 21.4241C11.7174 21.208 11.7258 20.9877 11.7258 20.7678C11.7258 16.0803 7.91298 12.2684 3.22641 12.2684C2.6464 12.2687 2.06793 12.3282 1.50001 12.4461C1.61274 15.0753 2.70778 17.5665 4.56866 19.4273C6.42953 21.2881 8.9208 22.383 11.55 22.4956Z" fill="#666666"/>
<path d="M13.3422 10.6539C12.3635 9.6801 11.5877 8.52187 11.0596 7.24625C10.5315 5.97062 10.2617 4.60293 10.2658 3.22232C10.2657 2.68217 10.3068 2.1428 10.3886 1.60889C8.1846 1.95201 6.14675 2.98684 4.56936 4.56389C2.99197 6.14094 1.95671 8.17858 1.61311 10.3825C2.14708 10.3013 2.68645 10.2609 3.22655 10.2615C4.60728 10.2577 5.97505 10.5279 7.25069 11.0562C8.52632 11.5846 9.68448 12.3608 10.6581 13.3398C11.6366 14.3134 12.4123 15.4713 12.9403 16.7466C13.4684 18.0219 13.7383 19.3892 13.7345 20.7695C13.7345 21.0386 13.7242 21.3104 13.7041 21.5772C13.6839 21.8439 13.652 22.1167 13.6103 22.3834C15.8146 22.0405 17.8528 21.0057 19.4304 19.4285C21.0081 17.8514 22.0435 15.8135 22.3872 13.6094C21.8532 13.6905 21.3138 13.731 20.7737 13.7303C19.3931 13.7343 18.0254 13.4645 16.7498 12.9365C15.4742 12.4084 14.316 11.6326 13.3422 10.6539Z" fill="#666666"/>
<path d="M20.7736 11.7264C21.3536 11.7266 21.932 11.6675 22.5 11.5501C22.3873 8.92102 21.2923 6.42986 19.4315 4.56909C17.5707 2.70831 15.0796 1.61334 12.4505 1.50061C12.3331 2.06858 12.274 2.64705 12.2742 3.22702C12.2742 7.91358 16.087 11.7264 20.7736 11.7264Z" fill="#666666"/>
</svg>
