<svg width="24" height="24" viewBox="0 0 24 24" fill="none" xmlns="http://www.w3.org/2000/svg">
<path d="M12.0001 21.7489C17.3849 21.7489 21.7501 17.3837 21.7501 11.9989C21.7501 6.61413 17.3849 2.2489 12.0001 2.2489C6.61534 2.2489 2.25011 6.61413 2.25011 11.9989C2.25011 17.3837 6.61534 21.7489 12.0001 21.7489Z" stroke="#666666" stroke-width="1.5" stroke-linecap="round" stroke-linejoin="round"/>
<path d="M21.6295 12.7235C21.3909 12.7409 21.2432 12.7498 21 12.7498C15.615 12.7498 11.25 8.38476 11.25 2.99976C11.25 2.74804 11.2593 2.59241 11.2781 2.34351M2.3273 11.276C2.3273 11.276 2.75808 11.2498 2.99996 11.2498C8.38496 11.2498 12.75 15.6148 12.75 20.9998C12.75 21.2519 12.7214 21.656 12.7214 21.656" stroke="#666666" stroke-width="1.5" stroke-linecap="round" stroke-linejoin="round"/>
</svg>
