<svg width="24" height="24" viewBox="0 0 24 24" fill="none" xmlns="http://www.w3.org/2000/svg">
<path d="M20.9999 12.0006C21.5026 12.0006 22.0043 11.9586 22.4999 11.875C22.4673 9.13366 21.3638 6.5138 19.4253 4.57525C17.4867 2.6367 14.8669 1.53322 12.1256 1.50061C12.042 1.99624 12 2.49798 11.9999 3.00061C11.9999 7.96327 16.0373 12.0006 20.9999 12.0006ZM11.8757 22.5006C11.9198 22.2348 11.9531 21.9662 11.9737 21.6953C11.991 21.4665 11.9999 21.2331 11.9999 21.002C11.9999 16.0394 7.96258 12.002 2.99993 12.002C2.4973 12.0021 1.99556 12.0441 1.49993 12.1276C1.53291 14.869 2.63674 17.4887 4.57555 19.427C6.51437 21.3653 9.13438 22.4684 11.8757 22.5006Z" fill="#666666"/>
<path d="M13.5755 10.4216C12.5974 9.44888 11.8219 8.29182 11.294 7.0174C10.7661 5.74297 10.4962 4.3765 10.5 2.99707C10.5 2.52676 10.5313 2.05697 10.5937 1.59082C8.3154 1.89935 6.2012 2.94683 4.57547 4.57256C2.94974 6.19829 1.90227 8.31249 1.59373 10.5908C2.05989 10.5284 2.52967 10.4971 2.99998 10.4971C4.37941 10.4933 5.74589 10.7632 7.02031 11.2911C8.29474 11.819 9.4518 12.5945 10.4245 13.5725C11.4026 14.5453 12.178 15.7023 12.7059 16.9767C13.2339 18.2512 13.5037 19.6176 13.5 20.9971C13.5 21.2661 13.4897 21.5375 13.4695 21.8043C13.4539 22.0049 13.4326 22.2047 13.4058 22.4038C15.6842 22.0952 17.7985 21.0476 19.4243 19.4218C21.0501 17.796 22.0976 15.6818 22.4062 13.4033C21.9401 13.4657 21.4703 13.4971 21 13.4971C19.6206 13.5008 18.2541 13.2309 16.9797 12.703C15.7052 12.1751 14.5482 11.3997 13.5755 10.4216Z" fill="#666666"/>
</svg>
