<svg width="24" height="24" viewBox="0 0 24 24" fill="none" xmlns="http://www.w3.org/2000/svg">
<path d="M20.25 1.49707H3.75003C2.95465 1.49794 2.19209 1.81429 1.62967 2.37671C1.06725 2.93913 0.750899 3.70169 0.750031 4.49707V19.4971C0.750899 20.2925 1.06725 21.055 1.62967 21.6174C2.19209 22.1799 2.95465 22.4962 3.75003 22.4971H20.25C21.0454 22.4962 21.808 22.1799 22.3704 21.6174C22.9328 21.055 23.2492 20.2925 23.25 19.4971V4.49707C23.2492 3.70169 22.9328 2.93913 22.3704 2.37671C21.808 1.81429 21.0454 1.49794 20.25 1.49707ZM4.50003 11.9971C4.34464 11.9971 4.19309 11.9488 4.06632 11.859C3.93955 11.7691 3.84382 11.6421 3.79236 11.4955C3.7409 11.3488 3.73624 11.1899 3.77904 11.0405C3.82184 10.8911 3.90998 10.7587 4.03128 10.6616L7.04956 8.24707L4.03128 5.83254C3.95433 5.77098 3.89027 5.69487 3.84273 5.60855C3.7952 5.52224 3.76514 5.4274 3.75425 5.32947C3.74337 5.23153 3.75189 5.13241 3.77931 5.03776C3.80674 4.94312 3.85254 4.8548 3.91409 4.77785C3.97565 4.70091 4.05176 4.63684 4.13808 4.5893C4.2244 4.54177 4.31923 4.51171 4.41717 4.50082C4.5151 4.48994 4.61423 4.49846 4.70887 4.52588C4.80352 4.55331 4.89184 4.59911 4.96878 4.66066L8.71878 7.66067C8.80672 7.73092 8.87771 7.82007 8.9265 7.9215C8.97529 8.02294 9.00062 8.13405 9.00062 8.2466C9.00062 8.35916 8.97529 8.47027 8.9265 8.5717C8.87771 8.67313 8.80672 8.76228 8.71878 8.83254L4.96878 11.8325C4.83576 11.939 4.67044 11.9971 4.50003 11.9971ZM12 11.9971H9.00003C8.80112 11.9971 8.61035 11.9181 8.4697 11.7774C8.32905 11.6367 8.25003 11.446 8.25003 11.2471C8.25003 11.0482 8.32905 10.8574 8.4697 10.7167C8.61035 10.5761 8.80112 10.4971 9.00003 10.4971H12C12.1989 10.4971 12.3897 10.5761 12.5304 10.7167C12.671 10.8574 12.75 11.0482 12.75 11.2471C12.75 11.446 12.671 11.6367 12.5304 11.7774C12.3897 11.9181 12.1989 11.9971 12 11.9971Z" fill="#666666"/>
</svg>
