<svg width="24" height="24" viewBox="0 0 24 24" fill="none" xmlns="http://www.w3.org/2000/svg">
<path d="M0.750023 2.06311V21.9381C0.750023 22.0873 0.809286 22.2304 0.914775 22.3359C1.02026 22.4413 1.16334 22.5006 1.31252 22.5006H22.6875C22.8367 22.5006 22.9798 22.4413 23.0853 22.3359C23.1908 22.2304 23.25 22.0873 23.25 21.9381V2.06311C23.25 1.91393 23.1908 1.77085 23.0853 1.66536C22.9798 1.55987 22.8367 1.50061 22.6875 1.50061H1.31252C1.16334 1.50061 1.02026 1.55987 0.914775 1.66536C0.809286 1.77085 0.750023 1.91393 0.750023 2.06311ZM3.4458 11.1334L7.04956 8.25061L3.4458 5.3678L4.38331 4.19592L9.45049 8.25061L4.38284 12.3048L3.4458 11.1334ZM12.75 12.0006H8.25002V10.5006H12.75V12.0006Z" fill="#666666"/>
</svg>
