<svg width="24" height="24" viewBox="0 0 24 24" fill="none" xmlns="http://www.w3.org/2000/svg">
<g clip-path="url(#clip0_32_3525)">
<path d="M18.9573 7.96399C17.0246 7.96399 15.2978 9.0918 14.5581 10.8374L14.2501 11.5509L16.1406 12.3562L16.4481 11.6427C16.8653 10.6584 17.8501 10.0232 18.9573 10.0232C20.5768 10.0232 21.6648 11.114 21.6648 12.7377V12.8456C20.6279 12.8732 19.3843 12.9416 18.2771 13.0724C15.7215 13.3738 14.1962 14.7707 14.1962 16.8093C14.1962 17.8949 14.6049 18.8718 15.3474 19.5557C16.0445 20.1984 16.9946 20.5265 18.024 20.5265C19.4706 20.5265 20.7193 20.1829 21.6648 19.4652V20.5265H23.7189V12.7377C23.7189 9.97165 21.7164 7.96399 18.9573 7.96399ZM18.024 18.5142C17.2056 18.5142 16.2498 18.0529 16.2498 16.8093C16.2498 16.3101 16.4289 15.9604 16.8301 15.6754C17.221 15.3979 17.8201 15.1996 18.5176 15.1176C19.5385 14.9971 20.6884 14.9324 21.6582 14.9057C21.557 17.3193 20.3659 18.5142 18.024 18.5142ZM4.37119 15.2704H10.254L12.2317 20.5265H14.4376L7.26573 2.24524L0.187599 20.5265H2.39354L4.37119 15.2704ZM7.3126 7.52852L9.48057 13.214H5.14463L7.3126 7.52852Z" fill="#666666"/>
</g>
<defs>
<clipPath id="clip0_32_3525">
<rect width="24" height="24" fill="white" transform="translate(0.00012207 -0.00390625)"/>
</clipPath>
</defs>
</svg>
