<svg width="24" height="24" viewBox="0 0 24 24" fill="none" xmlns="http://www.w3.org/2000/svg">
<path d="M13.7156 19.1135L8.09056 4.11346C8.01686 3.91688 7.88492 3.74747 7.71237 3.62788C7.53982 3.50829 7.33487 3.44421 7.12493 3.44421C6.91499 3.44421 6.71005 3.50829 6.5375 3.62788C6.36494 3.74747 6.233 3.91688 6.15931 4.11346L0.534305 19.1135C0.441271 19.3689 0.452859 19.6507 0.566549 19.8977C0.68024 20.1446 0.886834 20.3367 1.14139 20.4321C1.39595 20.5275 1.67789 20.5185 1.92586 20.4071C2.17384 20.2957 2.3678 20.0909 2.46556 19.8372L4.16056 15.3175C4.16723 15.2997 4.1792 15.2843 4.19486 15.2734C4.21053 15.2625 4.22914 15.2566 4.24821 15.2566H10.0017C10.0207 15.2566 10.0393 15.2625 10.055 15.2734C10.0707 15.2843 10.0826 15.2997 10.0893 15.3175L11.7843 19.8372C11.8821 20.0909 12.076 20.2957 12.324 20.4071C12.572 20.5185 12.8539 20.5275 13.1085 20.4321C13.363 20.3367 13.5696 20.1446 13.6833 19.8977C13.797 19.6507 13.8086 19.3689 13.7156 19.1135ZM5.00431 13.0666L7.03728 7.64549C7.04402 7.62771 7.05602 7.61239 7.07168 7.60159C7.08733 7.59078 7.10591 7.58499 7.12493 7.58499C7.14396 7.58499 7.16253 7.59078 7.17819 7.60159C7.19384 7.61239 7.20584 7.62771 7.21259 7.64549L9.24556 13.0675C9.25085 13.0817 9.25264 13.0969 9.25077 13.1119C9.24889 13.127 9.24342 13.1413 9.23481 13.1537C9.2262 13.1662 9.2147 13.1763 9.20131 13.1833C9.18792 13.1904 9.17303 13.1941 9.1579 13.1941H5.09196C5.07684 13.1941 5.06194 13.1904 5.04855 13.1833C5.03516 13.1763 5.02367 13.1662 5.01506 13.1537C5.00644 13.1413 5.00097 13.127 4.9991 13.1119C4.99722 13.0969 4.99901 13.0817 5.00431 13.0675V13.0666ZM18.786 7.94409C16.8304 7.93003 15.0792 9.063 14.3329 10.8222C14.226 11.074 14.2235 11.3579 14.3259 11.6115C14.4283 11.8651 14.6272 12.0676 14.879 12.1746C15.1307 12.2815 15.4147 12.284 15.6683 12.1816C15.9219 12.0792 16.1244 11.8802 16.2313 11.6285C16.6476 10.6492 17.6268 10.0141 18.7307 10.0066C20.2457 9.99628 21.4687 11.2488 21.4687 12.7652C21.4687 12.7834 21.4616 12.801 21.4489 12.8141C21.4362 12.8272 21.419 12.8349 21.4007 12.8355C20.3732 12.8641 19.1545 12.9325 18.067 13.0605C15.5006 13.3624 13.9687 14.7616 13.9687 16.8035C13.9687 17.8905 14.3793 18.866 15.1251 19.5541C15.8249 20.1986 16.7812 20.5535 17.8124 20.5535C19.2656 20.5535 20.5167 20.1785 21.4659 19.465H21.4687C21.4681 19.6005 21.4942 19.7347 21.5455 19.86C21.5968 19.9854 21.6722 20.0994 21.7676 20.1955C21.8629 20.2917 21.9763 20.3682 22.1012 20.4205C22.2261 20.4729 22.3601 20.5001 22.4955 20.5007C22.6309 20.5013 22.7651 20.4752 22.8905 20.4239C23.0158 20.3727 23.1298 20.2972 23.226 20.2018C23.3222 20.1065 23.3986 19.9931 23.451 19.8682C23.5033 19.7433 23.5306 19.6094 23.5312 19.4739V12.7708C23.5312 10.1374 21.4218 7.96331 18.786 7.94409ZM17.8124 18.491C16.9907 18.491 16.0312 18.0489 16.0312 16.8035C16.0312 16.3033 16.2107 15.9532 16.6138 15.6677C17.0062 15.3897 17.6076 15.1914 18.3079 15.1089C19.2979 14.9922 20.4088 14.928 21.3613 14.8994C21.3741 14.8994 21.3866 14.902 21.3983 14.907C21.41 14.912 21.4206 14.9193 21.4293 14.9285C21.4381 14.9377 21.4449 14.9486 21.4493 14.9605C21.4538 14.9724 21.4557 14.9851 21.4551 14.9978C21.3281 17.3472 20.1309 18.491 17.8124 18.491Z" fill="#666666"/>
</svg>
