<svg width="24" height="24" viewBox="0 0 24 24" fill="none" xmlns="http://www.w3.org/2000/svg">
<g clip-path="url(#clip0_32_3532)">
<path d="M15 13.6508V3.7489C15 2.95325 14.6839 2.19019 14.1213 1.62758C13.5587 1.06497 12.7957 0.748901 12 0.748901C11.2044 0.748901 10.4413 1.06497 9.87868 1.62758C9.31608 2.19019 9.00001 2.95325 9.00001 3.7489V13.6508C8.30392 14.1421 7.73615 14.7936 7.34457 15.5504C6.95299 16.3071 6.74907 17.1469 6.75001 17.9989C6.75001 19.3913 7.30313 20.7267 8.28769 21.7112C9.27226 22.6958 10.6076 23.2489 12 23.2489C13.3924 23.2489 14.7277 22.6958 15.7123 21.7112C16.6969 20.7267 17.25 19.3913 17.25 17.9989C17.2509 17.1469 17.047 16.3071 16.6554 15.5504C16.2639 14.7936 15.6961 14.1421 15 13.6508ZM12 20.2489C11.4691 20.2491 10.9553 20.0615 10.5493 19.7194C10.1434 19.3773 9.87149 18.9026 9.78172 18.3794C9.69195 17.8561 9.79009 17.318 10.0588 16.8601C10.3275 16.4023 10.7494 16.0541 11.25 15.8773V4.4989H12.75V15.8773C13.2506 16.0541 13.6725 16.4023 13.9412 16.8601C14.2099 17.318 14.3081 17.8561 14.2183 18.3794C14.1285 18.9026 13.8566 19.3773 13.4507 19.7194C13.0447 20.0615 12.5309 20.2491 12 20.2489Z" fill="#666666"/>
</g>
<defs>
<clipPath id="clip0_32_3532">
<rect width="24" height="24" fill="white" transform="translate(0 -0.00390625)"/>
</clipPath>
</defs>
</svg>
