<svg width="24" height="24" viewBox="0 0 24 24" fill="none" xmlns="http://www.w3.org/2000/svg">
<g clip-path="url(#clip0_32_3534)">
<path d="M15.0001 13.4584V3.79374C15.0001 2.14749 13.6927 0.774055 12.0469 0.749211C11.6492 0.7435 11.2543 0.816852 10.8851 0.965011C10.5159 1.11317 10.1798 1.33318 9.89637 1.61228C9.61291 1.89138 9.38772 2.224 9.23385 2.59083C9.07999 2.95767 9.00052 3.35141 9.00007 3.74921V13.4584C8.99996 13.5163 8.98645 13.5734 8.96058 13.6252C8.93472 13.677 8.89722 13.7221 8.85101 13.757C8.1974 14.2537 7.66762 14.8949 7.30314 15.6305C6.93866 16.366 6.74936 17.176 6.75007 17.9969C6.75007 19.3893 7.30319 20.7246 8.28776 21.7092C9.27232 22.6937 10.6077 23.2469 12.0001 23.2469C13.3925 23.2469 14.7278 22.6937 15.7124 21.7092C16.6969 20.7246 17.2501 19.3893 17.2501 17.9969C17.2508 17.176 17.0615 16.366 16.697 15.6305C16.3325 14.8949 15.8027 14.2537 15.1491 13.757C15.1029 13.7221 15.0654 13.677 15.0396 13.6252C15.0137 13.5734 15.0002 13.5163 15.0001 13.4584ZM11.9096 20.2469C11.4226 20.2268 10.9552 20.049 10.5779 19.7404C10.2006 19.4318 9.9337 19.009 9.81739 18.5356C9.70108 18.0623 9.74165 17.5639 9.93299 17.1156C10.1243 16.6673 10.4561 16.2932 10.8783 16.0497C10.9923 15.9839 11.0869 15.8894 11.1527 15.7755C11.2185 15.6616 11.2532 15.5325 11.2533 15.4009V5.26796C11.2533 4.86437 11.5637 4.51796 11.9673 4.49781C12.0684 4.49338 12.1694 4.50947 12.2641 4.54511C12.3589 4.58076 12.4454 4.63521 12.5186 4.7052C12.5917 4.7752 12.6499 4.85927 12.6897 4.95236C12.7295 5.04545 12.75 5.14563 12.7501 5.24687V15.3991C12.7509 15.5319 12.7867 15.6622 12.8537 15.7768C12.9208 15.8915 13.0168 15.9866 13.1321 16.0525C13.5672 16.3048 13.9051 16.6957 14.0921 17.1626C14.279 17.6295 14.3041 18.1456 14.1634 18.6284C14.0226 19.1113 13.7242 19.533 13.3157 19.8264C12.9071 20.1198 12.4121 20.2678 11.9096 20.2469Z" fill="#666666"/>
</g>
<defs>
<clipPath id="clip0_32_3534">
<rect width="24" height="24" fill="white" transform="translate(0 -0.00390625)"/>
</clipPath>
</defs>
</svg>
