<svg width="24" height="24" viewBox="0 0 24 24" fill="none" xmlns="http://www.w3.org/2000/svg">
<g clip-path="url(#clip0_32_3529)">
<path d="M12 5.24707V17.9971M14.4244 14.166C14.371 14.1322 14.3271 14.0855 14.2966 14.0302C14.2661 13.9748 14.2501 13.9127 14.25 13.8496V3.74707C14.25 3.15033 14.013 2.57804 13.591 2.15608C13.169 1.73412 12.5967 1.49707 12 1.49707C11.4033 1.49707 10.831 1.73412 10.409 2.15608C9.98706 2.57804 9.75001 3.15033 9.75001 3.74707V13.8496C9.74991 13.9126 9.73392 13.9746 9.70353 14.0298C9.67313 14.085 9.6293 14.1317 9.5761 14.1655C8.90964 14.5996 8.368 15.2002 8.00472 15.9077C7.64144 16.6153 7.46908 17.4055 7.50469 18.2C7.55833 19.3743 8.06932 20.481 8.92837 21.2833C9.78742 22.0857 10.9263 22.5201 12.1015 22.4936C13.2767 22.4671 14.3949 21.9817 15.2169 21.1414C16.0388 20.3011 16.4994 19.1726 16.5 17.9971C16.5003 17.2362 16.3107 16.4872 15.9482 15.8182C15.5857 15.1492 15.062 14.5813 14.4244 14.166V14.166Z" stroke="#666666" stroke-width="1.5" stroke-miterlimit="10" stroke-linecap="round"/>
<path d="M12.0001 20.2489C13.2427 20.2489 14.2501 19.2415 14.2501 17.9989C14.2501 16.7563 13.2427 15.7489 12.0001 15.7489C10.7574 15.7489 9.75005 16.7563 9.75005 17.9989C9.75005 19.2415 10.7574 20.2489 12.0001 20.2489Z" fill="#666666"/>
</g>
<defs>
<clipPath id="clip0_32_3529">
<rect width="24" height="24" fill="white" transform="translate(0 -0.00390625)"/>
</clipPath>
</defs>
</svg>
