<svg width="24" height="24" viewBox="0 0 24 24" fill="none" xmlns="http://www.w3.org/2000/svg">
<g clip-path="url(#clip0_32_3551)">
<path d="M21.375 8.99715L14.0624 8.43465L15.1406 4.24403C15.4218 2.99715 15.104 2.28137 14.0873 1.9659L12.4612 1.50418C12.4227 1.49398 12.382 1.4963 12.3449 1.51079C12.3078 1.52529 12.2763 1.55121 12.2549 1.58481L6.20807 11.0695C6.17454 11.124 6.12759 11.1691 6.07172 11.2004C6.01584 11.2316 5.95288 11.248 5.88885 11.2481H0.749947V20.9972H6.26292C6.50476 20.9971 6.74503 21.036 6.97448 21.1125L10.551 22.3045C10.9334 22.432 11.3339 22.4971 11.737 22.4972H20.0775C20.9681 22.4972 21.554 21.8634 21.7289 20.9897L23.25 14.3212V10.8722C23.25 9.83809 22.4062 9.0909 21.375 8.99715Z" fill="#666666"/>
</g>
<defs>
<clipPath id="clip0_32_3551">
<rect width="24" height="24" fill="white" transform="translate(-0.00012207 -0.00390625)"/>
</clipPath>
</defs>
</svg>
