<svg width="24" height="24" viewBox="0 0 24 24" fill="none" xmlns="http://www.w3.org/2000/svg">
<path d="M1.87221 8.34082L8.62971 8.6277C8.84581 8.64457 9.75002 8.68489 9.75002 9.84082C9.75002 10.9564 8.8519 11.0282 8.61846 11.0539L1.87221 11.3408C1.2783 11.3347 0.750023 10.6639 0.750023 9.84082C0.750023 9.0177 1.2783 8.34692 1.87221 8.34082ZM8.50268 14.5124L3.49924 14.9033C2.90627 14.9033 2.25002 14.121 2.25002 13.3152V13.2997C2.25002 12.5343 2.77221 11.9108 3.41627 11.9033L8.49987 11.9839C9.75002 12.1377 9.75002 12.8952 9.75002 13.2214C9.75002 14.2939 8.72815 14.4936 8.50268 14.5124ZM4.2258 1.49707L8.41502 1.91566C9.56252 1.95926 9.75002 2.72426 9.75002 3.20332C9.75002 4.06535 9.12143 4.35645 8.49987 4.35645L4.23424 4.49707C3.55221 4.48676 3.00002 3.81785 3.00002 2.99707C3.00002 2.17629 3.54752 1.51301 4.2258 1.49707ZM2.61518 4.84863L8.54018 5.1402C8.98034 5.16973 9.75002 5.28082 9.75002 6.37582C9.75002 6.93832 9.54612 7.57676 8.57815 7.66629L2.61518 7.84863C1.99924 7.8416 1.50002 7.21582 1.50002 6.37582C1.50002 5.53582 1.99924 4.85567 2.61518 4.84863Z" fill="#666666"/>
<path d="M17.4686 13.0839L17.4216 13.1778C17.4895 13.0339 17.6005 12.9149 17.7393 12.8372C17.6306 12.8965 17.5377 12.9812 17.4686 13.0839Z" fill="#666666"/>
<path d="M9.18469 21.5305C9.62672 22.1535 10.3594 22.4971 11.25 22.4971C11.3893 22.497 11.5259 22.4582 11.6443 22.3849C11.7628 22.3117 11.8585 22.2068 11.9208 22.0822C12.0614 21.7982 12.6356 20.9572 13.2422 20.0713C14.0859 18.8371 15.1336 17.3019 15.8311 16.0958L15.8372 16.0855C16.7972 14.4219 17.2598 13.5102 17.4225 13.1793L17.4694 13.0855C17.5389 12.9832 17.632 12.8992 17.7408 12.8404C17.8489 12.7805 17.9702 12.7485 18.0938 12.7471H19.2806C20.3335 12.7468 21.3431 12.3284 22.0875 11.5839C22.8318 10.8393 23.25 9.82959 23.25 8.77676V6.96738C23.25 5.91447 22.8318 4.90468 22.0873 4.16011C21.3428 3.41555 20.3331 2.99719 19.2802 2.99707H16.9931C16.8334 2.99669 16.6773 2.9496 16.5441 2.8616C15.4688 2.15941 13.4372 1.49707 11.25 1.49707C10.9008 1.49707 10.5848 1.50363 10.2998 1.51488C10.2319 1.5173 10.166 1.53812 10.109 1.57511C10.052 1.61211 10.0061 1.66389 9.9763 1.72492C9.94646 1.78596 9.93376 1.85395 9.93956 1.92165C9.94535 1.98934 9.96943 2.05419 10.0092 2.10926L10.0139 2.11582C10.4156 2.6966 10.5 3.3252 10.5 3.74707C10.5007 4.14683 10.4179 4.54233 10.2567 4.90816C10.2108 5.01196 10.1871 5.1242 10.1871 5.2377C10.1871 5.35119 10.2108 5.46343 10.2567 5.56723C10.4171 5.94032 10.4998 6.34215 10.4998 6.74824C10.4998 7.15433 10.4171 7.55617 10.2567 7.92926C10.2111 8.03262 10.1875 8.14438 10.1875 8.25738C10.1875 8.37039 10.2111 8.48215 10.2567 8.58551C10.4163 8.95214 10.4986 9.3477 10.4986 9.74754C10.4986 10.1474 10.4163 10.5429 10.2567 10.9096C10.2087 11.0179 10.184 11.1351 10.184 11.2536C10.184 11.3721 10.2087 11.4893 10.2567 11.5977C10.4238 11.974 10.5068 12.3823 10.5 12.7939C10.5 13.1783 10.4063 13.7924 10.125 14.2555C10.0682 14.3511 10.0339 14.4584 10.0246 14.5693C10.0154 14.6801 10.0314 14.7916 10.0716 14.8954C10.0894 14.9422 10.1072 14.9919 10.1245 15.0439C10.1807 15.219 10.1945 15.4049 10.1648 15.5863C10.0242 16.4933 9.71157 17.2879 9.38016 18.125C9.23579 18.4897 9.08625 18.8666 8.94797 19.2627C8.66016 20.0858 8.74641 20.9127 9.18469 21.5305Z" fill="#666666"/>
</svg>
