<svg width="24" height="24" viewBox="0 0 24 24" fill="none" xmlns="http://www.w3.org/2000/svg">
<path d="M8.9999 2.51899C8.9999 2.51899 9.7499 2.24524 11.9999 2.24524C14.2499 2.24524 15.4687 2.99524 16.4999 3.74524H19.4999C20.2956 3.74524 21.0586 4.06131 21.6212 4.62392C22.1838 5.18653 22.4999 5.94959 22.4999 6.74524V8.99524C22.4999 9.79089 22.1838 10.554 21.6212 11.1166C21.0586 11.6792 20.2956 11.9952 19.4999 11.9952H18.0937C17.8361 11.9967 17.5831 12.0637 17.3587 12.19C17.1342 12.3163 16.9456 12.4977 16.8107 12.7171C16.8107 12.7171 16.4062 13.5979 15.1874 15.7087C13.9687 17.8195 11.6249 20.9952 11.2499 21.7452C9.89053 21.7452 9.23428 20.714 9.65615 19.5088C10.138 18.1312 10.7676 16.9598 10.9433 15.4265C10.9687 15.2024 10.7962 14.864 10.5683 14.864L4.4999 14.3859" stroke="#666666" stroke-width="1.5" stroke-linecap="round" stroke-linejoin="round"/>
<path d="M4.49993 11.2921L8.24993 11.3859C9.18743 11.4721 9.74993 11.9671 9.74993 12.7921C9.74993 13.6171 9.09368 14.144 8.24993 14.1984L4.49993 14.3859C3.67493 14.3859 2.99993 13.6171 2.99993 12.7921V12.7841C3.00203 12.3877 3.161 12.0082 3.44208 11.7286C3.72315 11.4491 4.10348 11.2921 4.49993 11.2921V11.2921ZM2.99993 8.24524L8.24993 8.33899C9.09368 8.37837 9.74993 8.92071 9.74993 9.74524C9.74993 10.5707 9.09368 11.0981 8.24993 11.1515L2.99993 11.2452C2.60248 11.244 2.22167 11.0856 1.94063 10.8045C1.6596 10.5235 1.50116 10.1427 1.49993 9.74524V9.74524C1.50116 9.3478 1.6596 8.96698 1.94063 8.68595C2.22167 8.40491 2.60248 8.24648 2.99993 8.24524ZM5.24993 2.24524L8.24993 2.38586C9.2343 2.47211 9.74993 2.92024 9.74993 3.74524C9.74993 4.57024 9.07493 5.15149 8.24993 5.15149L5.24993 5.24524C4.85245 5.24413 4.47156 5.08573 4.1905 4.80467C3.90943 4.52361 3.75104 4.14272 3.74993 3.74524V3.74524C3.75104 3.34776 3.90943 2.96687 4.1905 2.68581C4.47156 2.40475 4.85245 2.24635 5.24993 2.24524V2.24524ZM3.74993 5.24524L8.24993 5.33899C9.14055 5.37836 9.74993 5.92024 9.74993 6.74524C9.74993 7.57024 9.14055 8.09712 8.24993 8.15149L3.74993 8.24524C3.35245 8.24413 2.97156 8.08573 2.6905 7.80467C2.40943 7.52361 2.25104 7.14272 2.24993 6.74524V6.74524C2.25104 6.34776 2.40943 5.96687 2.6905 5.68581C2.97156 5.40475 3.35245 5.24635 3.74993 5.24524V5.24524Z" stroke="#666666" stroke-width="1.5" stroke-miterlimit="10"/>
</svg>
