<svg width="24" height="24" viewBox="0 0 24 24" fill="none" xmlns="http://www.w3.org/2000/svg">
<g clip-path="url(#clip0_32_3539)">
<path d="M2.62496 14.9971L9.93981 15.5596L8.86168 19.7502C8.57668 20.9971 8.8945 21.7129 9.91121 22.0293L11.5373 22.491C11.5758 22.5012 11.6165 22.4989 11.6536 22.4844C11.6907 22.4699 11.7222 22.4439 11.7436 22.4104L17.7904 12.9257C17.824 12.8711 17.8709 12.8261 17.9268 12.7948C17.9827 12.7635 18.0456 12.7471 18.1097 12.7471H23.25V2.99707H17.737C17.4952 2.99712 17.2549 2.95819 17.0254 2.88176L13.4489 1.68973C13.0665 1.56219 12.666 1.49713 12.2629 1.49707H3.92246C3.03184 1.49707 2.4459 2.13082 2.27106 3.00457L0.749962 9.67301V13.1221C0.749962 14.1561 1.59371 14.9033 2.62496 14.9971Z" fill="#666666"/>
<path d="M17.4685 13.0839L17.4216 13.1778C17.4894 13.0339 17.6005 12.9149 17.7392 12.8372C17.6305 12.8965 17.5377 12.9812 17.4685 13.0839Z" fill="#666666"/>
</g>
<defs>
<clipPath id="clip0_32_3539">
<rect width="24" height="24" fill="white" transform="translate(0.00012207 -0.00390625)"/>
</clipPath>
</defs>
</svg>
