<svg width="24" height="24" viewBox="0 0 24 24" fill="none" xmlns="http://www.w3.org/2000/svg">
<path d="M14.9999 21.4725C14.9999 21.4725 14.2499 21.7462 11.9999 21.7462C9.74992 21.7462 8.53117 20.9962 7.49992 20.2462H4.49992C3.70427 20.2462 2.94121 19.9301 2.3786 19.3675C1.81599 18.8049 1.49992 18.0419 1.49992 17.2462V14.9962C1.49992 14.2006 1.81599 13.4375 2.3786 12.8749C2.94121 12.3123 3.70427 11.9962 4.49992 11.9962H5.90617C6.16373 11.9948 6.41668 11.9278 6.64116 11.8015C6.86563 11.6752 7.05422 11.4937 7.18914 11.2743C7.18914 11.2743 7.59367 10.3936 8.81242 8.28278C10.0312 6.172 12.3749 2.99622 12.7499 2.24622C14.1093 2.24622 14.7655 3.27747 14.3437 4.48262C13.8618 5.86028 13.2323 7.03169 13.0565 8.56497C13.0312 8.78903 13.2037 9.12747 13.4291 9.12747L19.4999 9.60559" stroke="#666666" stroke-width="1.5" stroke-linecap="round" stroke-linejoin="round"/>
<path d="M19.5 12.7002L15.75 12.6064C14.8125 12.5202 14.25 12.0252 14.25 11.2002C14.25 10.3752 14.9062 9.84832 15.75 9.79395L19.5 9.60645C20.325 9.60645 21 10.3752 21 11.2002V11.2082C20.9979 11.6046 20.8389 11.9841 20.5578 12.2637C20.2768 12.5433 19.8964 12.7002 19.5 12.7002ZM21 15.7471L15.75 15.6533C14.9062 15.6139 14.25 15.0716 14.25 14.2471C14.25 13.4216 14.9062 12.8943 15.75 12.8408L21 12.7471C21.3974 12.7483 21.7782 12.9067 22.0593 13.1878C22.3403 13.4688 22.4987 13.8496 22.5 14.2471V14.2471C22.4987 14.6445 22.3403 15.0253 22.0593 15.3064C21.7782 15.5874 21.3974 15.7458 21 15.7471V15.7471ZM18.75 21.7471L15.75 21.6064C14.7656 21.5202 14.25 21.0721 14.25 20.2471C14.25 19.4221 14.925 18.8408 15.75 18.8408L18.75 18.7471C19.1475 18.7482 19.5283 18.9066 19.8094 19.1876C20.0905 19.4687 20.2489 19.8496 20.25 20.2471V20.2471C20.2489 20.6446 20.0905 21.0254 19.8094 21.3065C19.5283 21.5876 19.1475 21.746 18.75 21.7471V21.7471ZM20.25 18.7471L15.75 18.6533C14.8594 18.6139 14.25 18.0721 14.25 17.2471C14.25 16.4221 14.8594 15.8952 15.75 15.8408L20.25 15.7471C20.6475 15.7482 21.0283 15.9066 21.3094 16.1876C21.5905 16.4687 21.7489 16.8496 21.75 17.2471V17.2471C21.7489 17.6446 21.5905 18.0254 21.3094 18.3065C21.0283 18.5876 20.6475 18.746 20.25 18.7471Z" stroke="#666666" stroke-width="1.5" stroke-miterlimit="10"/>
</svg>
