<svg width="24" height="24" viewBox="0 0 24 24" fill="none" xmlns="http://www.w3.org/2000/svg">
<g clip-path="url(#clip0_32_3553)">
<path d="M22.1278 15.6552L15.3703 15.3678C15.1542 15.3509 14.25 15.3111 14.25 14.1552C14.25 13.0391 15.1481 12.9678 15.3815 12.942L22.1278 12.6552C22.7217 12.6612 23.25 13.3316 23.25 14.1552C23.25 14.9787 22.7217 15.6491 22.1278 15.6552ZM15.4973 9.48312L20.5007 9.09265C21.0937 9.09265 21.75 9.87453 21.75 10.6808V10.6962C21.75 11.4612 21.2278 12.0847 20.5837 12.0927L15.5001 12.0116C14.25 11.8583 14.25 11.1003 14.25 10.7745C14.25 9.70203 15.2718 9.50187 15.4973 9.48312ZM19.7742 22.4989L15.585 22.0803C14.4375 22.0367 14.25 21.2717 14.25 20.7922C14.25 19.9306 14.8786 19.6391 15.5001 19.6391L19.7657 19.4984C20.4473 19.5092 20.9995 20.1781 20.9995 20.9984C20.9995 21.8187 20.4525 22.483 19.7742 22.4989ZM21.3848 19.1473L15.4598 18.8562C15.0196 18.8267 14.25 18.7156 14.25 17.6202C14.25 17.0577 14.4539 16.4197 15.4218 16.3297L21.3839 16.1478C22.0007 16.1544 22.5 16.7802 22.5 17.6197C22.5 18.4592 22.0007 19.1398 21.3848 19.1469V19.1473Z" fill="#666666"/>
<path d="M6.53176 10.9127L6.57867 10.8188C6.51079 10.9625 6.39976 11.0814 6.26106 11.159C6.36985 11.0999 6.46272 11.0154 6.53176 10.9127Z" fill="#666666"/>
<path d="M14.8153 2.46449C14.3733 1.84105 13.6406 1.49792 12.75 1.49792C12.6108 1.49791 12.4743 1.53667 12.3558 1.60986C12.2373 1.68304 12.1416 1.78777 12.0792 1.9123C11.9386 2.19683 11.3644 3.0373 10.7578 3.92371C9.91408 5.15793 8.86642 6.69261 8.16892 7.89871L8.16283 7.90949C7.20283 9.57308 6.74017 10.4843 6.57752 10.8157L6.53064 10.9095C6.46122 11.0117 6.36811 11.0957 6.25923 11.1542C6.15123 11.2144 6.0299 11.2466 5.90627 11.2479H4.71986C4.19853 11.2479 3.68231 11.3506 3.20067 11.5501C2.71902 11.7496 2.28139 12.042 1.91276 12.4107C1.16827 13.1552 0.750015 14.1649 0.750015 15.2178V17.0276C0.749954 17.549 0.852591 18.0653 1.05207 18.547C1.25154 19.0286 1.54395 19.4663 1.91259 19.835C2.28123 20.2037 2.71888 20.4962 3.20056 20.6957C3.68223 20.8952 4.19849 20.9979 4.71986 20.9979H7.00689C7.16655 20.9985 7.32258 21.0456 7.45595 21.1334C8.53127 21.8356 10.5628 22.4979 12.75 22.4979C13.0992 22.4979 13.4152 22.4914 13.7002 22.4801C13.7681 22.4777 13.834 22.4569 13.891 22.4199C13.948 22.3829 13.9939 22.3311 14.0237 22.2701C14.0536 22.209 14.0663 22.141 14.0605 22.0733C14.0547 22.0057 14.0306 21.9408 13.9908 21.8857L13.9861 21.8792C13.5844 21.2984 13.5 20.6698 13.5 20.2479C13.4993 19.8482 13.5822 19.4527 13.7433 19.0868C13.7892 18.9831 13.8129 18.871 13.8129 18.7575C13.8129 18.6441 13.7892 18.532 13.7433 18.4282C13.583 18.0551 13.5003 17.6533 13.5003 17.2472C13.5003 16.8411 13.583 16.4393 13.7433 16.0662C13.789 15.9628 13.8126 15.8511 13.8126 15.7381C13.8126 15.6251 13.789 15.5133 13.7433 15.41C13.5837 15.0432 13.5014 14.6476 13.5014 14.2477C13.5014 13.8478 13.5837 13.4521 13.7433 13.0854C13.7913 12.9771 13.8161 12.8599 13.8161 12.7414C13.8161 12.6229 13.7913 12.5057 13.7433 12.3973C13.5761 12.021 13.4931 11.6128 13.5 11.2011C13.5 10.8167 13.5938 10.2026 13.875 9.73902C13.9318 9.64348 13.9662 9.53627 13.9754 9.42549C13.9847 9.31472 13.9686 9.20329 13.9285 9.09964C13.9106 9.05277 13.8928 9.00261 13.8755 8.95105C13.8194 8.77584 13.8055 8.58982 13.8352 8.40824C13.9758 7.50168 14.2885 6.70714 14.6199 5.86949C14.7642 5.5048 14.9138 5.12793 15.052 4.7323C15.3399 3.90871 15.2536 3.0823 14.8153 2.46449Z" fill="#666666"/>
</g>
<defs>
<clipPath id="clip0_32_3553">
<rect width="24" height="24" fill="white" transform="translate(0.00012207 -0.00390625)"/>
</clipPath>
</defs>
</svg>
