<svg width="24" height="24" viewBox="0 0 24 24" fill="none" xmlns="http://www.w3.org/2000/svg">
<g clip-path="url(#clip0_32_3563)">
<path d="M4.49991 19.4998C4.37208 19.4997 4.24639 19.467 4.13477 19.4047C4.02315 19.3424 3.92931 19.2526 3.86215 19.1438C3.795 19.0351 3.75675 18.911 3.75106 18.7832C3.74536 18.6555 3.77239 18.5285 3.8296 18.4142L4.9546 16.1642C5.04361 15.9863 5.19965 15.851 5.38839 15.7882C5.57713 15.7253 5.7831 15.74 5.96101 15.829C6.13891 15.918 6.27416 16.0741 6.33702 16.2628C6.39987 16.4516 6.38518 16.6575 6.29616 16.8354L5.17116 19.0854C5.10881 19.21 5.01298 19.3148 4.89442 19.388C4.77585 19.4612 4.63925 19.4999 4.49991 19.4998ZM5.62491 22.4998C5.49708 22.4998 5.37139 22.467 5.25977 22.4047C5.14815 22.3424 5.05431 22.2526 4.98716 22.1438C4.92 22.0351 4.88175 21.911 4.87606 21.7832C4.87036 21.6555 4.8974 21.5285 4.9546 21.4142L5.7046 19.9142C5.79361 19.7363 5.94965 19.601 6.13839 19.5382C6.23184 19.5071 6.33051 19.4946 6.42876 19.5017C6.52701 19.5087 6.62292 19.535 6.71101 19.579C6.79909 19.6231 6.87764 19.6841 6.94215 19.7585C7.00667 19.833 7.0559 19.9194 7.08702 20.0128C7.11814 20.1063 7.13055 20.2049 7.12354 20.3032C7.11653 20.4014 7.09024 20.4974 7.04616 20.5854L6.29616 22.0854C6.23381 22.21 6.13798 22.3148 6.01942 22.388C5.90085 22.4612 5.76425 22.4999 5.62491 22.4998ZM17.6249 19.4998C17.4971 19.4997 17.3714 19.467 17.2598 19.4047C17.1482 19.3424 17.0543 19.2526 16.9872 19.1438C16.92 19.0351 16.8818 18.911 16.8761 18.7832C16.8704 18.6555 16.8974 18.5285 16.9546 18.4142L18.0796 16.1642C18.1686 15.9863 18.3247 15.851 18.5134 15.7882C18.7021 15.7253 18.9081 15.74 19.086 15.829C19.2639 15.918 19.3992 16.0741 19.462 16.2628C19.5249 16.4516 19.5102 16.6575 19.4212 16.8354L18.2962 19.0854C18.2338 19.21 18.138 19.3148 18.0194 19.388C17.9009 19.4612 17.7642 19.4999 17.6249 19.4998ZM18.7499 22.4998C18.6221 22.4998 18.4964 22.467 18.3848 22.4047C18.2732 22.3424 18.1793 22.2526 18.1122 22.1438C18.045 22.0351 18.0068 21.911 18.0011 21.7832C17.9954 21.6555 18.0224 21.5285 18.0796 21.4142L18.8296 19.9142C18.9186 19.7363 19.0747 19.601 19.2634 19.5382C19.4521 19.4753 19.6581 19.49 19.836 19.579C20.0139 19.6681 20.1492 19.8241 20.212 20.0128C20.2749 20.2016 20.2602 20.4075 20.1712 20.5854L19.4212 22.0854C19.3588 22.21 19.263 22.3148 19.1444 22.388C19.0259 22.4612 18.8892 22.4999 18.7499 22.4998Z" fill="#666666"/>
<path d="M19.0238 6.41554C18.7103 4.92995 17.9282 3.58424 16.7926 2.57647C15.9503 1.82299 14.9419 1.27921 13.8496 0.989472C12.7572 0.699732 11.6119 0.672232 10.5069 0.909213C9.40191 1.14619 8.36857 1.64095 7.49111 2.35314C6.61366 3.06533 5.91692 3.97481 5.45771 5.00741C2.83599 5.1621 0.750057 7.34132 0.750057 9.99819C0.750057 12.7554 2.99584 14.9984 5.75631 14.9984H8.86459L8.26037 18.6251C8.24247 18.7325 8.24818 18.8425 8.27711 18.9475C8.30603 19.0525 8.35748 19.15 8.42787 19.2331C8.49827 19.3162 8.58592 19.383 8.68473 19.4288C8.78354 19.4746 8.89114 19.4983 9.00006 19.4984H10.5001V22.4984C10.5003 22.657 10.5509 22.8115 10.6445 22.9396C10.7381 23.0677 10.87 23.1628 11.021 23.2112C11.1721 23.2597 11.3347 23.259 11.4853 23.2092C11.636 23.1595 11.7669 23.0632 11.8594 22.9343L15.6094 17.6843C15.6895 17.5722 15.7371 17.4403 15.7472 17.3029C15.7572 17.1655 15.7292 17.0281 15.6662 16.9056C15.6033 16.7831 15.5078 16.6803 15.3903 16.6084C15.2728 16.5366 15.1378 16.4985 15.0001 16.4984H13.7105L14.0855 14.9984H18.953C20.0822 14.9938 21.1641 14.5445 21.9642 13.7477C22.7643 12.951 23.2182 11.871 23.2275 10.7419C23.2368 9.61278 22.8008 8.52548 22.0139 7.71565C21.227 6.90581 20.1527 6.4387 19.0238 6.41554Z" fill="#666666"/>
</g>
<defs>
<clipPath id="clip0_32_3563">
<rect width="24" height="24" fill="white" transform="translate(0 -0.00390625)"/>
</clipPath>
</defs>
</svg>
