<svg width="24" height="24" viewBox="0 0 24 24" fill="none" xmlns="http://www.w3.org/2000/svg">
<g clip-path="url(#clip0_32_3560)">
<path d="M19.0237 6.41554C18.7103 4.92995 17.9281 3.58424 16.7925 2.57647C15.9502 1.82299 14.9418 1.27921 13.8495 0.989472C12.7572 0.699732 11.6118 0.672232 10.5068 0.909213C9.40184 1.14619 8.3685 1.64095 7.49105 2.35314C6.61359 3.06533 5.91686 3.97481 5.45765 5.00741C2.83593 5.1621 0.749994 7.34132 0.749994 9.99819C0.749994 12.7554 2.99578 14.9983 5.75625 14.9983H9.14578L8.25 19.4984H10.5V23.2484L15.75 16.4983H13.7105L14.0855 14.9983H18.953C20.0821 14.9938 21.164 14.5445 21.9641 13.7477C22.7642 12.951 23.2181 11.871 23.2274 10.7419C23.2368 9.61278 22.8007 8.52548 22.0139 7.71564C21.227 6.90581 20.1527 6.4387 19.0237 6.41554Z" fill="#666666"/>
<path d="M3.49362 19.0846L5.28987 15.4929L6.63143 16.1638L4.83518 19.7555L3.49362 19.0846ZM4.61815 22.0851L6.03931 19.2435L7.38087 19.9144L5.95976 22.7561L4.61815 22.0851ZM16.6191 19.0851L18.4154 15.4934L19.757 16.1644L17.9607 19.7561L16.6191 19.0851ZM17.7442 22.0857L19.1653 19.244L20.5069 19.915L19.0857 22.7566L17.7442 22.0857Z" fill="#666666"/>
</g>
<defs>
<clipPath id="clip0_32_3560">
<rect width="24" height="24" fill="white" transform="translate(0 -0.00390625)"/>
</clipPath>
</defs>
</svg>
