<svg width="24" height="24" viewBox="0 0 24 24" fill="none" xmlns="http://www.w3.org/2000/svg">
<g clip-path="url(#clip0_32_3558)">
<path d="M5.62496 16.4979L4.49996 18.7479L5.62496 16.4979ZM6.37496 20.2479L5.62496 21.7479L6.37496 20.2479ZM18.75 16.4979L17.625 18.7479L18.75 16.4979ZM19.5 20.2479L18.75 21.7479L19.5 20.2479ZM9.74996 14.2479L8.99996 18.7479H11.25V22.4979L15 17.2479H12.75L13.5 14.2479H9.74996ZM18.9529 7.16465H18.3843C18.0332 3.97527 15.2878 1.49793 12 1.49793C10.679 1.49666 9.39006 1.90459 8.31037 2.66566C7.23068 3.42672 6.41324 4.50355 5.97043 5.74808H5.75621C3.41527 5.74808 1.49996 7.66058 1.49996 9.99777C1.49996 12.3354 3.41527 14.2479 5.75621 14.2479H18.9529C20.9062 14.2479 22.5 12.6542 22.5 10.7061C22.5 8.7584 20.9062 7.16465 18.9529 7.16465Z" stroke="#666666" stroke-width="1.5" stroke-linecap="round" stroke-linejoin="round"/>
</g>
<defs>
<clipPath id="clip0_32_3558">
<rect width="24" height="24" fill="white" transform="translate(0 -0.00390625)"/>
</clipPath>
</defs>
</svg>
