<svg width="24" height="24" viewBox="0 0 24 24" fill="none" xmlns="http://www.w3.org/2000/svg">
<g clip-path="url(#clip0_32_3566)">
<path d="M17.1585 6.84161C16.7686 6.45153 16.5403 5.92861 16.5192 5.37744C16.4982 4.82627 16.686 4.28747 17.0451 3.8688C17.0748 3.83398 17.0902 3.78922 17.0883 3.7435C17.0864 3.69777 17.0673 3.65446 17.0348 3.62224L14.9662 1.5513C14.932 1.51712 14.8856 1.49792 14.8373 1.49792C14.7889 1.49792 14.7426 1.51712 14.7084 1.5513L11.4112 4.84849C11.2895 4.97011 11.1979 5.11841 11.1435 5.28161V5.28161C11.0894 5.4452 10.9979 5.59391 10.8762 5.71596C10.7546 5.83801 10.6062 5.93004 10.4428 5.98474V5.98474C10.2794 6.03916 10.131 6.13079 10.0092 6.2524L1.55338 14.7063C1.51921 14.7405 1.50001 14.7869 1.50001 14.8352C1.50001 14.8836 1.51921 14.9299 1.55338 14.9641L3.62198 17.0327C3.65419 17.0652 3.69751 17.0843 3.74323 17.0862C3.78896 17.0882 3.83372 17.0727 3.86854 17.043C4.28712 16.6835 4.82603 16.4954 5.3774 16.5163C5.92876 16.5372 6.45188 16.7656 6.84203 17.1558C7.23218 17.5459 7.46057 18.0691 7.48148 18.6204C7.50239 19.1718 7.31427 19.7107 6.95479 20.1293C6.92509 20.1641 6.90965 20.2088 6.91156 20.2546C6.91347 20.3003 6.9326 20.3436 6.9651 20.3758L9.0337 22.4444C9.06789 22.4786 9.11426 22.4978 9.1626 22.4978C9.21095 22.4978 9.25731 22.4786 9.29151 22.4444L17.7478 13.9886C17.8694 13.8668 17.961 13.7184 18.0154 13.5551V13.5551C18.0696 13.3915 18.1611 13.2428 18.2827 13.1207C18.4044 12.9987 18.5528 12.9066 18.7162 12.8519V12.8519C18.8794 12.7976 19.0277 12.7059 19.1493 12.5843L22.4465 9.28708C22.4807 9.25289 22.4999 9.20652 22.4999 9.15818C22.4999 9.10983 22.4807 9.06346 22.4465 9.02927L20.3779 6.96068C20.3457 6.92817 20.3024 6.90905 20.2567 6.90714C20.2109 6.90522 20.1662 6.92066 20.1314 6.95036C19.7133 7.31007 19.1748 7.4987 18.6236 7.47854C18.0725 7.45838 17.5492 7.23091 17.1585 6.84161V6.84161Z" stroke="#666666" stroke-width="1.5" stroke-miterlimit="10"/>
<path d="M18.1909 13.0294L17.417 12.2555M11.7423 6.58079L10.9684 5.80688L11.7423 6.58079ZM13.8057 8.64423L13.2896 8.1286L13.8057 8.64423ZM15.8692 10.7081L15.3535 10.192L15.8692 10.7081Z" stroke="#666666" stroke-width="1.5" stroke-miterlimit="10" stroke-linecap="round"/>
</g>
<defs>
<clipPath id="clip0_32_3566">
<rect width="24" height="24" fill="white" transform="translate(0 -0.00390625)"/>
</clipPath>
</defs>
</svg>
