<svg width="24" height="24" viewBox="0 0 24 24" fill="none" xmlns="http://www.w3.org/2000/svg">
<g clip-path="url(#clip0_32_3569)">
<path d="M19.98 5.98663L19.4672 6.49944C19.2062 6.76052 18.8521 6.90719 18.4829 6.90719C18.1136 6.90719 17.7596 6.76052 17.4985 6.49944C17.2374 6.23837 17.0907 5.88428 17.0907 5.51507C17.0907 5.14586 17.2374 4.79177 17.4985 4.53069L18.0113 4.01788L14.7432 0.749756L10.6182 4.87476L10.4307 5.44148L9.86395 5.62898L0.750042 14.7429L4.02004 18.0129L4.53286 17.5001C4.79393 17.239 5.14802 17.0923 5.51723 17.0923C5.88644 17.0923 6.24053 17.239 6.50161 17.5001C6.76268 17.7611 6.90935 18.1152 6.90935 18.4844C6.90935 18.8537 6.76268 19.2078 6.50161 19.4688L5.98879 19.9816L9.25692 23.2498L18.3694 14.1373L18.5569 13.5705L19.1236 13.383L23.2486 9.25804L19.98 5.98663ZM10.2038 6.24116L11.229 5.21601L12.7758 6.76288L11.7502 7.78804L10.2038 6.24116ZM12.2194 8.25679L13.245 7.23116L14.7694 8.75554L13.7438 9.78116L12.2194 8.25679ZM14.2144 10.2518L15.24 9.22616L16.7644 10.7505L15.7407 11.7785L14.2144 10.2518ZM17.7568 13.7937L16.2099 12.2468L17.235 11.2212L18.7819 12.768L17.7568 13.7937Z" fill="#666666"/>
</g>
<defs>
<clipPath id="clip0_32_3569">
<rect width="24" height="24" fill="white" transform="translate(0 -0.00390625)"/>
</clipPath>
</defs>
</svg>
