<svg width="24" height="24" viewBox="0 0 24 24" fill="none" xmlns="http://www.w3.org/2000/svg">
<g clip-path="url(#clip0_32_3571)">
<path d="M22.9772 8.50279L20.9086 6.4342C20.7417 6.26955 20.5192 6.17341 20.2849 6.16473C20.0506 6.15606 19.8216 6.23547 19.643 6.38732C19.3672 6.62204 19.0133 6.7446 18.6515 6.73071C18.2896 6.71682 17.9462 6.56749 17.6892 6.31232C17.4342 6.05539 17.2849 5.71205 17.2711 5.3503C17.2572 4.98854 17.3796 4.63477 17.6142 4.35904C17.7661 4.18042 17.8455 3.95139 17.8368 3.71711C17.8281 3.48284 17.732 3.26031 17.5674 3.09341L15.4969 1.02248C15.3219 0.847838 15.0848 0.749756 14.8376 0.749756C14.5904 0.749756 14.3533 0.847838 14.1783 1.02248L10.8806 4.31966C10.677 4.52399 10.5235 4.77267 10.432 5.04623C10.4142 5.09882 10.3845 5.14661 10.3453 5.18587C10.306 5.22513 10.2582 5.25482 10.2056 5.27263C9.93196 5.36409 9.68325 5.51781 9.47907 5.7217L1.02282 14.1779C0.848181 14.3529 0.750099 14.59 0.750099 14.8372C0.750099 15.0845 0.848181 15.3216 1.02282 15.4965L3.09376 17.5651C3.26065 17.7298 3.48318 17.8259 3.71746 17.8346C3.95174 17.8433 4.18076 17.7639 4.35938 17.612C4.63448 17.3754 4.98884 17.2515 5.35145 17.2651C5.71406 17.2787 6.05813 17.4288 6.31471 17.6854C6.57129 17.942 6.72144 18.2861 6.73505 18.6487C6.74867 19.0113 6.62475 19.3657 6.38813 19.6408C6.23628 19.8194 6.15687 20.0484 6.16554 20.2827C6.17422 20.517 6.27036 20.7395 6.43501 20.9064L8.5036 22.975C8.67857 23.1496 8.91569 23.2477 9.1629 23.2477C9.41011 23.2477 9.64722 23.1496 9.82219 22.975L18.2784 14.5187C18.4822 14.3146 18.6359 14.0661 18.7275 13.7926C18.7452 13.7399 18.7749 13.6919 18.8143 13.6526C18.8537 13.6132 18.9016 13.5835 18.9544 13.5658C19.2278 13.4743 19.4763 13.3207 19.6805 13.1172L22.9777 9.81951C23.1517 9.64455 23.2493 9.40781 23.2492 9.16105C23.2491 8.9143 23.1513 8.67762 22.9772 8.50279ZM12.2724 7.11295C12.2027 7.18261 12.12 7.23787 12.029 7.27557C11.938 7.31327 11.8405 7.33268 11.742 7.33268C11.6435 7.33268 11.5459 7.31327 11.4549 7.27557C11.3639 7.23787 11.2812 7.18261 11.2116 7.11295L10.672 6.57341C10.5348 6.43205 10.4587 6.24237 10.4602 6.04536C10.4617 5.84836 10.5406 5.65984 10.68 5.52056C10.8193 5.38128 11.0079 5.30242 11.2049 5.30103C11.4019 5.29963 11.5915 5.37581 11.7328 5.5131L12.2724 6.05216C12.342 6.12181 12.3973 6.2045 12.435 6.2955C12.4727 6.38651 12.4921 6.48405 12.4921 6.58255C12.4921 6.68106 12.4727 6.7786 12.435 6.86961C12.3973 6.96061 12.342 7.0433 12.2724 7.11295ZM14.3349 9.17545C14.1942 9.31599 14.0035 9.39494 13.8047 9.39494C13.6059 9.39494 13.4152 9.31599 13.2745 9.17545L12.7589 8.65982C12.6893 8.59017 12.634 8.50748 12.5963 8.41648C12.5586 8.32547 12.5392 8.22793 12.5392 8.12943C12.5392 8.03093 12.5586 7.93339 12.5963 7.84239C12.634 7.75138 12.6893 7.66869 12.7589 7.59904C12.8996 7.45837 13.0904 7.37934 13.2893 7.37934C13.3878 7.37934 13.4853 7.39875 13.5763 7.43644C13.6674 7.47414 13.75 7.52939 13.8197 7.59904L14.3353 8.11466C14.4052 8.18431 14.4607 8.26706 14.4986 8.35817C14.5364 8.44929 14.5559 8.54699 14.556 8.64566C14.556 8.74433 14.5366 8.84205 14.4988 8.9332C14.461 9.02435 14.4056 9.10715 14.3358 9.17685L14.3349 9.17545ZM16.3974 11.2379C16.3277 11.3076 16.245 11.3629 16.154 11.4006C16.063 11.4383 15.9655 11.4577 15.867 11.4577C15.7685 11.4577 15.6709 11.4383 15.5799 11.4006C15.4889 11.3629 15.4062 11.3076 15.3366 11.2379L14.8209 10.7223C14.6837 10.581 14.6076 10.3913 14.6091 10.1943C14.6106 9.99726 14.6895 9.80875 14.8289 9.66947C14.9682 9.53019 15.1568 9.45133 15.3538 9.44994C15.5508 9.44854 15.7404 9.52472 15.8817 9.66201L16.3974 10.1776C16.4674 10.2472 16.5231 10.3298 16.5612 10.4209C16.5993 10.512 16.619 10.6097 16.6192 10.7085C16.6194 10.8072 16.6001 10.905 16.5625 10.9963C16.5248 11.0875 16.4695 11.1705 16.3997 11.2403L16.3974 11.2379ZM18.48 13.3258C18.4104 13.3954 18.3277 13.4507 18.2367 13.4884C18.1457 13.5261 18.0481 13.5455 17.9496 13.5455C17.8511 13.5455 17.7536 13.5261 17.6626 13.4884C17.5716 13.4507 17.4889 13.3954 17.4192 13.3258L16.883 12.7867C16.8119 12.7173 16.7552 12.6344 16.7164 12.5429C16.6776 12.4513 16.6574 12.353 16.6569 12.2536C16.6564 12.1542 16.6757 12.0557 16.7137 11.9639C16.7516 11.872 16.8074 11.7885 16.8779 11.7184C16.9483 11.6483 17.032 11.5929 17.1241 11.5554C17.2162 11.5179 17.3147 11.4991 17.4141 11.5001C17.5135 11.501 17.6118 11.5218 17.7031 11.561C17.7944 11.6003 17.877 11.6573 17.9461 11.7287L18.4828 12.2673C18.5525 12.337 18.6077 12.4197 18.6453 12.5107C18.683 12.6018 18.7024 12.6993 18.7023 12.7978C18.7023 12.8963 18.6828 12.9938 18.6451 13.0848C18.6073 13.1758 18.552 13.2585 18.4824 13.3281L18.48 13.3258Z" fill="#666666"/>
</g>
<defs>
<clipPath id="clip0_32_3571">
<rect width="24" height="24" fill="white" transform="translate(0.00012207 -0.00390625)"/>
</clipPath>
</defs>
</svg>
