<svg width="24" height="24" viewBox="0 0 24 24" fill="none" xmlns="http://www.w3.org/2000/svg">
<path d="M5.2926 5.99535C3.83723 7.6208 3.0224 9.71992 2.99995 11.9016C2.94463 16.8868 7.01479 20.986 11.9999 20.9953C16.9781 21.0047 21 16.9721 21 11.9953C21 7.09503 17.0835 3.10738 12.2109 2.99534C12.1835 2.99446 12.1561 2.99911 12.1305 3.00902C12.105 3.01892 12.0816 3.03388 12.0619 3.053C12.0423 3.07211 12.0266 3.095 12.016 3.12029C12.0053 3.14557 11.9999 3.17275 11.9999 3.20019V7.12035" stroke="#666666" stroke-width="1.5" stroke-linecap="round" stroke-linejoin="round"/>
<path d="M10.9397 13.056L7.23661 7.75914C7.18538 7.68575 7.16161 7.59667 7.16947 7.50752C7.17734 7.41836 7.21633 7.33482 7.27962 7.27153C7.34291 7.20825 7.42645 7.16925 7.51561 7.16139C7.60476 7.15352 7.69384 7.17729 7.76723 7.22852L13.0641 10.9316C13.389 11.1656 13.6087 11.5181 13.6757 11.9129C13.7427 12.3076 13.6517 12.7129 13.4222 13.041C13.1927 13.3691 12.8433 13.5936 12.4495 13.6661C12.0557 13.7386 11.6493 13.6531 11.318 13.4282C11.1715 13.3267 11.0436 13.2008 10.9397 13.056Z" fill="#666666"/>
</svg>
