<svg width="24" height="24" viewBox="0 0 24 24" fill="none" xmlns="http://www.w3.org/2000/svg">
<path d="M11.9999 2.24707C6.61542 2.24707 2.24995 6.61254 2.24995 11.9971C2.24995 17.3732 6.62432 21.7471 11.9999 21.7471C17.384 21.7471 21.7499 17.3811 21.7499 11.9971C21.7499 6.62098 17.376 2.24707 11.9999 2.24707ZM17.0624 13.4971H11.4374C11.3877 13.4971 11.34 13.4773 11.3049 13.4422C11.2697 13.407 11.2499 13.3593 11.2499 13.3096V5.43457C11.2499 5.38484 11.2697 5.33715 11.3049 5.30199C11.34 5.26682 11.3877 5.24707 11.4374 5.24707H12.5624C12.6122 5.24707 12.6599 5.26682 12.695 5.30199C12.7302 5.33715 12.7499 5.38484 12.7499 5.43457V11.9971H17.0624C17.1122 11.9971 17.1599 12.0168 17.195 12.052C17.2302 12.0872 17.2499 12.1348 17.2499 12.1846V13.3096C17.2499 13.3593 17.2302 13.407 17.195 13.4422C17.1599 13.4773 17.1122 13.4971 17.0624 13.4971Z" fill="#666666"/>
</svg>
