<svg width="24" height="24" viewBox="0 0 24 24" fill="none" xmlns="http://www.w3.org/2000/svg">
<path d="M12.0001 2.24707C6.61505 2.24707 2.25005 6.61207 2.25005 11.9971C2.25005 17.3821 6.61505 21.7471 12.0001 21.7471C17.3851 21.7471 21.7501 17.3821 21.7501 11.9971C21.7501 6.61207 17.3851 2.24707 12.0001 2.24707ZM8.14083 7.60676L13.0627 10.9349C13.3876 11.1689 13.6073 11.5214 13.6743 11.9161C13.7413 12.3109 13.6503 12.7161 13.4208 13.0442C13.1913 13.3723 12.8419 13.5969 12.4481 13.6694C12.0543 13.7418 11.6479 13.6564 11.3166 13.4314C11.1711 13.3288 11.0442 13.202 10.9416 13.0564L7.61349 8.13457C7.56226 8.06118 7.53849 7.9721 7.54636 7.88295C7.55422 7.79379 7.59322 7.71025 7.6565 7.64696C7.71979 7.58367 7.80333 7.54468 7.89249 7.53681C7.98165 7.52895 8.07073 7.55271 8.14411 7.60395L8.14083 7.60676ZM12.0001 20.2471C7.45318 20.2471 3.75005 16.5463 3.75005 11.9971C3.74619 10.8875 3.96805 9.78871 4.40216 8.76755C4.83626 7.7464 5.47353 6.82421 6.27521 6.05707C6.33755 5.99492 6.41165 5.94579 6.49318 5.91257C6.5747 5.87934 6.66203 5.86268 6.75006 5.86355C6.83809 5.86442 6.92507 5.88281 7.00592 5.91764C7.08677 5.95247 7.15988 6.00305 7.22099 6.06643C7.28209 6.1298 7.32997 6.20471 7.36182 6.28678C7.39368 6.36885 7.40889 6.45644 7.40654 6.54444C7.4042 6.63245 7.38437 6.7191 7.34819 6.79936C7.31201 6.87962 7.26022 6.95188 7.19583 7.01191C6.52311 7.65581 5.98834 8.42977 5.62403 9.28676C5.25972 10.1437 5.07347 11.0659 5.07661 11.9971C5.07661 15.8146 8.18255 18.9205 12.0001 18.9205C15.8176 18.9205 18.9235 15.8146 18.9235 11.9971C18.9235 8.40316 16.171 5.4402 12.6633 5.10645V7.68457C12.6633 7.86048 12.5935 8.02919 12.4691 8.15358C12.3447 8.27797 12.176 8.34785 12.0001 8.34785C11.8241 8.34785 11.6554 8.27797 11.531 8.15358C11.4067 8.02919 11.3368 7.86048 11.3368 7.68457V4.41035C11.3368 4.23444 11.4067 4.06573 11.531 3.94134C11.6554 3.81695 11.8241 3.74707 12.0001 3.74707C16.5493 3.74707 20.2501 7.4502 20.2501 11.9971C20.2501 16.5439 16.5493 20.2471 12.0001 20.2471Z" fill="#666666"/>
</svg>
