<svg width="24" height="24" viewBox="0 0 24 24" fill="none" xmlns="http://www.w3.org/2000/svg">
<path d="M12 2.24707C6.61548 2.24707 2.25001 6.61254 2.25001 11.9971C2.25001 17.3816 6.61548 21.7471 12 21.7471C17.3845 21.7471 21.75 17.3816 21.75 11.9971C21.75 6.61254 17.3845 2.24707 12 2.24707ZM16.5 13.4971H12C11.8011 13.4971 11.6103 13.4181 11.4697 13.2774C11.329 13.1367 11.25 12.946 11.25 12.7471V5.99707C11.25 5.79816 11.329 5.60739 11.4697 5.46674C11.6103 5.32609 11.8011 5.24707 12 5.24707C12.1989 5.24707 12.3897 5.32609 12.5303 5.46674C12.671 5.60739 12.75 5.79816 12.75 5.99707V11.9971H16.5C16.6989 11.9971 16.8897 12.0761 17.0303 12.2167C17.171 12.3574 17.25 12.5482 17.25 12.7471C17.25 12.946 17.171 13.1367 17.0303 13.2774C16.8897 13.4181 16.6989 13.4971 16.5 13.4971Z" fill="#666666"/>
</svg>
