<svg width="24" height="24" viewBox="0 0 24 24" fill="none" xmlns="http://www.w3.org/2000/svg">
<path d="M12 2.24707C6.61499 2.24707 2.24999 6.61207 2.24999 11.9971C2.24999 17.3821 6.61499 21.7471 12 21.7471C17.385 21.7471 21.75 17.3821 21.75 11.9971C21.75 6.61207 17.385 2.24707 12 2.24707ZM12 20.2471C7.45311 20.2471 3.74999 16.5463 3.74999 11.9971C3.74613 10.8875 3.96799 9.78871 4.40209 8.76755C4.8362 7.7464 5.47346 6.82421 6.27515 6.05707L13.0781 10.9189L12.1875 12.3252L6.32811 8.05957C5.71874 9.1377 5.07655 10.2158 5.07655 11.9971C5.07655 15.8146 8.18249 18.9205 12 18.9205C15.8175 18.9205 18.9234 15.8146 18.9234 11.9971C18.9234 8.40316 16.1709 5.4402 12.6633 5.10645V7.68457H11.3367V3.74191C11.5355 3.7452 11.7558 3.74707 12 3.74707C16.5492 3.74707 20.25 7.4502 20.25 11.9971C20.25 16.5439 16.5492 20.2471 12 20.2471Z" fill="#666666"/>
</svg>
