<svg width="24" height="24" viewBox="0 0 24 24" fill="none" xmlns="http://www.w3.org/2000/svg">
<path d="M19.4999 2.99883H18.7499V2.26993C18.7499 1.86633 18.4396 1.51993 18.036 1.49977C17.9346 1.49488 17.8333 1.51064 17.7381 1.54608C17.643 1.58151 17.556 1.6359 17.4825 1.70594C17.409 1.77597 17.3505 1.8602 17.3105 1.95352C17.2706 2.04684 17.2499 2.14731 17.2499 2.24883V2.99883H6.74993V2.26993C6.74993 1.86633 6.43962 1.51993 6.03602 1.49977C5.93461 1.49488 5.83327 1.51064 5.73813 1.54608C5.64299 1.58151 5.55604 1.6359 5.48254 1.70594C5.40904 1.77597 5.35053 1.8602 5.31054 1.95352C5.27056 2.04684 5.24994 2.14731 5.24993 2.24883V2.99883H4.49993C3.70428 2.99883 2.94122 3.3149 2.37861 3.87751C1.816 4.44012 1.49993 5.20318 1.49993 5.99883V6.56133C1.49993 6.61106 1.51968 6.65875 1.55485 6.69392C1.59001 6.72908 1.6377 6.74883 1.68743 6.74883H22.3124C22.3622 6.74883 22.4098 6.72908 22.445 6.69392C22.4802 6.65875 22.4999 6.61106 22.4999 6.56133V5.99883C22.4999 5.20318 22.1839 4.44012 21.6212 3.87751C21.0586 3.3149 20.2956 2.99883 19.4999 2.99883ZM22.3593 8.24883H1.64055C1.60326 8.24883 1.56749 8.26365 1.54112 8.29002C1.51474 8.31639 1.49993 8.35216 1.49993 8.38946V19.4988C1.49993 20.2945 1.816 21.0575 2.37861 21.6202C2.94122 22.1828 3.70428 22.4988 4.49993 22.4988H19.4999C20.2956 22.4988 21.0586 22.1828 21.6212 21.6202C22.1839 21.0575 22.4999 20.2945 22.4999 19.4988V8.38946C22.4999 8.35216 22.4851 8.31639 22.4587 8.29002C22.4324 8.26365 22.3966 8.24883 22.3593 8.24883ZM10.4999 14.4096C10.4999 14.7648 10.3588 15.1054 10.1077 15.3566C9.85653 15.6077 9.51589 15.7488 9.16071 15.7488H5.83915C5.48396 15.7488 5.14333 15.6077 4.89218 15.3566C4.64102 15.1054 4.49993 14.7648 4.49993 14.4096V11.0881C4.49993 10.7329 4.64102 10.3922 4.89218 10.1411C5.14333 9.88993 5.48396 9.74883 5.83915 9.74883H9.16071C9.51589 9.74883 9.85653 9.88993 10.1077 10.1411C10.3588 10.3922 10.4999 10.7329 10.4999 11.0881V14.4096Z" fill="#666666"/>
</svg>
