<svg width="24" height="24" viewBox="0 0 24 24" fill="none" xmlns="http://www.w3.org/2000/svg">
<path d="M1.50001 21.3739C1.50001 21.6723 1.61853 21.9584 1.82951 22.1694C2.04049 22.3804 2.32664 22.4989 2.62501 22.4989H21.375C21.6734 22.4989 21.9595 22.3804 22.1705 22.1694C22.3815 21.9584 22.5 21.6723 22.5 21.3739V8.2489H1.50001V21.3739ZM5.25001 10.1773C5.25001 10.0637 5.29515 9.95474 5.37549 9.87439C5.45584 9.79404 5.56482 9.7489 5.67844 9.7489H10.8216C10.9352 9.7489 11.0442 9.79404 11.1245 9.87439C11.2049 9.95474 11.25 10.0637 11.25 10.1773V15.3205C11.25 15.4341 11.2049 15.5431 11.1245 15.6234C11.0442 15.7038 10.9352 15.7489 10.8216 15.7489H5.67844C5.56482 15.7489 5.45584 15.7038 5.37549 15.6234C5.29515 15.5431 5.25001 15.4341 5.25001 15.3205V10.1773ZM21.375 2.9989H18.7538V1.4989H16.5038V2.9989H7.49626V1.4989H5.24626V2.9989H2.62501C2.47783 2.99766 2.33187 3.02556 2.19552 3.08098C2.05917 3.13641 1.93514 3.21826 1.83057 3.32183C1.726 3.4254 1.64295 3.54864 1.58622 3.68445C1.52949 3.82025 1.50019 3.96594 1.50001 4.11312V6.7489H22.5V4.11312C22.4998 3.96594 22.4705 3.82025 22.4138 3.68445C22.3571 3.54864 22.274 3.4254 22.1694 3.32183C22.0649 3.21826 21.9408 3.13641 21.8045 3.08098C21.6681 3.02556 21.5222 2.99766 21.375 2.9989Z" fill="#666666"/>
</svg>
