<svg width="24" height="24" viewBox="0 0 24 24" fill="none" xmlns="http://www.w3.org/2000/svg">
<path d="M19.5001 3.74792H4.50011C3.25747 3.74792 2.25011 4.75528 2.25011 5.99793V19.4979C2.25011 20.7406 3.25747 21.7479 4.50011 21.7479H19.5001C20.7428 21.7479 21.7501 20.7406 21.7501 19.4979V5.99793C21.7501 4.75528 20.7428 3.74792 19.5001 3.74792Z" stroke="#666666" stroke-width="1.5" stroke-linejoin="round"/>
<path d="M18 2.24707V3.74707M5.99997 2.24707V3.74707V2.24707Z" stroke="#666666" stroke-width="1.5" stroke-linecap="round" stroke-linejoin="round"/>
<path d="M9.14071 10.4998H5.85946C5.52291 10.4998 5.25009 10.7726 5.25009 11.1091V14.3904C5.25009 14.7269 5.52291 14.9998 5.85946 14.9998H9.14071C9.47726 14.9998 9.75009 14.7269 9.75009 14.3904V11.1091C9.75009 10.7726 9.47726 10.4998 9.14071 10.4998Z" stroke="#666666" stroke-width="1.5" stroke-linecap="round" stroke-linejoin="round"/>
<path d="M21.7501 7.49792H2.25011" stroke="#666666" stroke-width="1.5" stroke-linecap="round" stroke-linejoin="round"/>
</svg>
