<svg width="24" height="24" viewBox="0 0 24 24" fill="none" xmlns="http://www.w3.org/2000/svg">
<g clip-path="url(#clip0_32_3596)">
<path d="M17.2501 17.9971C20.5638 17.9971 23.2501 15.3108 23.2501 11.9971C23.2501 8.68336 20.5638 5.99707 17.2501 5.99707C13.9364 5.99707 11.2501 8.68336 11.2501 11.9971C11.2501 15.3108 13.9364 17.9971 17.2501 17.9971Z" stroke="#666666" stroke-width="1.5" stroke-linejoin="round"/>
<path d="M17.25 5.99707H6.74996C3.43625 5.99707 0.749962 8.68336 0.749962 11.9971C0.749962 15.3108 3.43625 17.9971 6.74996 17.9971H17.25C20.5637 17.9971 23.25 15.3108 23.25 11.9971C23.25 8.68336 20.5637 5.99707 17.25 5.99707Z" stroke="#666666" stroke-width="1.5" stroke-linejoin="round"/>
</g>
<defs>
<clipPath id="clip0_32_3596">
<rect width="24" height="24" fill="white" transform="translate(0.00012207 -0.00390625)"/>
</clipPath>
</defs>
</svg>
