<svg width="24" height="24" viewBox="0 0 24 24" fill="none" xmlns="http://www.w3.org/2000/svg">
<g clip-path="url(#clip0_32_3599)">
<path d="M17.2501 5.2489H6.75014C4.95993 5.2489 3.24304 5.96006 1.97717 7.22593C0.711296 8.4918 0.000137329 10.2087 0.000137329 11.9989C0.000137329 13.7891 0.711296 15.506 1.97717 16.7719C3.24304 18.0377 4.95993 18.7489 6.75014 18.7489H17.2501C19.0404 18.7489 20.7572 18.0377 22.0231 16.7719C23.289 15.506 24.0001 13.7891 24.0001 11.9989C24.0001 10.2087 23.289 8.4918 22.0231 7.22593C20.7572 5.96006 19.0404 5.2489 17.2501 5.2489ZM17.2501 16.0302C16.4528 16.0302 15.6734 15.7937 15.0105 15.3508C14.3476 14.9078 13.8309 14.2782 13.5258 13.5416C13.2206 12.805 13.1408 11.9944 13.2963 11.2124C13.4519 10.4305 13.8358 9.71216 14.3996 9.14838C14.9634 8.5846 15.6817 8.20066 16.4637 8.04511C17.2457 7.88956 18.0562 7.9694 18.7928 8.27451C19.5294 8.57963 20.159 9.09632 20.602 9.75926C21.045 10.4222 21.2814 11.2016 21.2814 11.9989C21.2821 12.5285 21.1784 13.053 20.976 13.5425C20.7737 14.0319 20.4768 14.4766 20.1023 14.8511C19.7278 15.2256 19.2831 15.5225 18.7937 15.7248C18.3043 15.9271 17.7797 16.0309 17.2501 16.0302Z" fill="#666666"/>
</g>
<defs>
<clipPath id="clip0_32_3599">
<rect width="24" height="24" fill="white" transform="translate(0 -0.00390625)"/>
</clipPath>
</defs>
</svg>
