<svg width="24" height="24" viewBox="0 0 24 24" fill="none" xmlns="http://www.w3.org/2000/svg">
<path d="M17.25 5.24524H6.75C3.02813 5.24524 0 8.27336 0 11.9952C0 15.7171 3.02813 18.7452 6.75 18.7452H17.25C20.9719 18.7452 24 15.7171 24 11.9952C24 8.27336 20.9719 5.24524 17.25 5.24524ZM17.25 17.2452C16.2117 17.2452 15.1966 16.9373 14.3333 16.3605C13.4699 15.7836 12.797 14.9636 12.3996 14.0043C12.0023 13.045 11.8983 11.9894 12.1009 10.971C12.3035 9.95262 12.8035 9.01716 13.5377 8.28293C14.2719 7.5487 15.2074 7.04869 16.2258 6.84612C17.2442 6.64354 18.2998 6.74751 19.2591 7.14487C20.2184 7.54223 21.0383 8.21514 21.6152 9.0785C22.1921 9.94185 22.5 10.9569 22.5 11.9952C22.4985 13.3872 21.9449 14.7217 20.9607 15.7059C19.9764 16.6902 18.6419 17.2438 17.25 17.2452Z" fill="#666666"/>
</svg>
