<svg width="24" height="24" viewBox="0 0 24 24" fill="none" xmlns="http://www.w3.org/2000/svg">
<g clip-path="url(#clip0_32_3603)">
<path d="M12 18.748V21.748V18.748ZM12 9.74805V12.748V9.74805ZM12 2.24805V3.74805V2.24805ZM19.5 9.74805H4.81076C4.71221 9.74806 4.61462 9.72866 4.52357 9.69093C4.43252 9.65321 4.3498 9.59791 4.28013 9.5282L1.49998 6.74805L4.28013 3.96789C4.3498 3.89818 4.43252 3.84288 4.52357 3.80516C4.61462 3.76744 4.71221 3.74803 4.81076 3.74805H19.5C19.6989 3.74805 19.8897 3.82706 20.0303 3.96772C20.171 4.10837 20.25 4.29913 20.25 4.49805V8.99805C20.25 9.19696 20.171 9.38773 20.0303 9.52838C19.8897 9.66903 19.6989 9.74805 19.5 9.74805ZM4.49998 18.748H19.1892C19.2878 18.7481 19.3853 18.7287 19.4764 18.6909C19.5674 18.6532 19.6502 18.5979 19.7198 18.5282L22.5 15.748L19.7198 12.9679C19.6502 12.8982 19.5674 12.8429 19.4764 12.8052C19.3853 12.7674 19.2878 12.748 19.1892 12.748H4.49998C4.30106 12.748 4.1103 12.8271 3.96965 12.9677C3.829 13.1084 3.74998 13.2991 3.74998 13.498V17.998C3.74998 18.197 3.829 18.3877 3.96965 18.5284C4.1103 18.669 4.30106 18.748 4.49998 18.748Z" stroke="#666666" stroke-width="1.5" stroke-linecap="round" stroke-linejoin="round"/>
</g>
<defs>
<clipPath id="clip0_32_3603">
<rect width="24" height="24" fill="white"/>
</clipPath>
</defs>
</svg>
