<svg width="24" height="24" viewBox="0 0 24 24" fill="none" xmlns="http://www.w3.org/2000/svg">
<path d="M17.9999 1.50159H14.9999C14.9999 1.30267 14.9209 1.11191 14.7803 0.971257C14.6396 0.830605 14.4488 0.751587 14.2499 0.751587H9.74992C9.55101 0.751587 9.36024 0.830605 9.21959 0.971257C9.07894 1.11191 8.99992 1.30267 8.99992 1.50159H5.99992C5.24992 1.50159 4.49992 2.25159 4.49992 3.00159V16.5016C4.49992 17.6228 11.9999 20.2516 11.9999 20.2516C11.9999 20.2516 19.4999 17.5919 19.4999 16.5016V3.00159C19.4999 2.25159 18.7499 1.50159 17.9999 1.50159ZM11.9999 16.5016C11.5549 16.5016 11.1199 16.3696 10.7499 16.1224C10.3799 15.8752 10.0915 15.5238 9.92119 15.1126C9.75089 14.7015 9.70633 14.2491 9.79315 13.8126C9.87997 13.3762 10.0943 12.9753 10.4089 12.6606C10.7236 12.3459 11.1245 12.1316 11.561 12.0448C11.9974 11.958 12.4498 12.0026 12.861 12.1729C13.2721 12.3432 13.6235 12.6315 13.8707 13.0016C14.118 13.3716 14.2499 13.8066 14.2499 14.2516C14.2499 14.8483 14.0129 15.4206 13.5909 15.8426C13.169 16.2645 12.5967 16.5016 11.9999 16.5016ZM17.2499 9.37659C17.2499 9.47604 17.2104 9.57143 17.1401 9.64175C17.0698 9.71208 16.9744 9.75159 16.8749 9.75159H7.12492C7.02546 9.75159 6.93008 9.71208 6.85975 9.64175C6.78943 9.57143 6.74992 9.47604 6.74992 9.37659V5.62659C6.74992 5.52713 6.78943 5.43175 6.85975 5.36142C6.93008 5.2911 7.02546 5.25159 7.12492 5.25159H16.8749C16.9744 5.25159 17.0698 5.2911 17.1401 5.36142C17.2104 5.43175 17.2499 5.52713 17.2499 5.62659V9.37659Z" fill="#666666"/>
<path d="M14.7187 20.2498L15.4368 20.9998H8.55837L9.28119 20.2498L7.78119 19.6404L4.18962 23.2498H6.30837L7.05837 22.4998H16.9368L17.6868 23.2498H19.8102L16.2309 19.6052L14.7187 20.2498Z" fill="#666666"/>
</svg>
