<svg width="24" height="24" viewBox="0 0 24 24" fill="none" xmlns="http://www.w3.org/2000/svg">
<path d="M13.0589 15.3058C13.6456 14.7191 13.6472 13.7695 13.0625 13.1848C12.4778 12.6001 11.5282 12.6017 10.9415 13.1884C10.3548 13.7751 10.3532 14.7247 10.9379 15.3094C11.5226 15.8941 12.4722 15.8925 13.0589 15.3058Z" fill="#666666"/>
<path d="M16.5001 1.50159H15.797C15.7261 1.50187 15.6561 1.48607 15.5922 1.45538C15.5283 1.42469 15.4722 1.37991 15.4281 1.3244C15.288 1.14589 15.1091 1.00157 14.9051 0.902337C14.701 0.803103 14.477 0.751554 14.2501 0.751587H9.75012C9.51031 0.751696 9.27402 0.8093 9.06107 0.919569C8.84812 1.02984 8.6647 1.18956 8.52622 1.38534C8.49999 1.42153 8.46552 1.45096 8.42566 1.47118C8.3858 1.49139 8.34169 1.50182 8.297 1.50159H7.50012C5.77465 1.50159 4.50012 2.85346 4.50012 4.50159V16.4547C4.50012 17.5455 5.70012 18.4263 8.39075 19.3113C9.52702 19.6778 10.6812 19.9865 11.8487 20.2361C11.9486 20.2567 12.0516 20.2567 12.1515 20.2361C13.3191 19.9865 14.4732 19.6778 15.6095 19.3113C18.3001 18.4263 19.5001 17.5455 19.5001 16.4547V4.50159C19.5001 3.70594 19.1841 2.94288 18.6214 2.38027C18.0588 1.81766 17.2958 1.50159 16.5001 1.50159ZM8.62512 6.00159H15.3751C15.4746 6.00159 15.57 6.0411 15.6403 6.11142C15.7106 6.18175 15.7501 6.27713 15.7501 6.37659V8.62659C15.7501 8.72604 15.7106 8.82143 15.6403 8.89175C15.57 8.96208 15.4746 9.00159 15.3751 9.00159H8.62512C8.52566 9.00159 8.43028 8.96208 8.35996 8.89175C8.28963 8.82143 8.25012 8.72604 8.25012 8.62659V6.37659C8.25012 6.27713 8.28963 6.18175 8.35996 6.11142C8.43028 6.0411 8.52566 6.00159 8.62512 6.00159ZM12.1961 17.2455C11.5873 17.2853 10.9809 17.1385 10.4577 16.8249C9.93455 16.5112 9.51942 16.0454 9.26771 15.4897C9.016 14.9341 8.93967 14.3149 9.0489 13.7147C9.15813 13.1145 9.44774 12.5619 9.87909 12.1306C10.3104 11.6992 10.8631 11.4096 11.4632 11.3004C12.0634 11.1911 12.6826 11.2675 13.2383 11.5192C13.794 11.7709 14.2597 12.186 14.5734 12.7092C14.8871 13.2324 15.0338 13.8388 14.994 14.4475C14.9459 15.1738 14.6356 15.8578 14.121 16.3724C13.6063 16.8871 12.9223 17.1973 12.1961 17.2455Z" fill="#666666"/>
<path d="M18.5302 21.9672L16.2952 19.7317C16.0098 19.4458 15.5452 19.4195 15.2462 19.6914C15.171 19.7597 15.1104 19.8425 15.0682 19.9348C15.026 20.0271 15.0029 20.1271 15.0005 20.2286C14.998 20.3301 15.0162 20.4311 15.0539 20.5253C15.0916 20.6196 15.1481 20.7052 15.2199 20.777L15.4393 20.9969H8.56085L8.76522 20.792C9.05116 20.5066 9.07741 20.042 8.80553 19.743C8.73729 19.6678 8.65448 19.6072 8.56214 19.565C8.46981 19.5228 8.36985 19.4997 8.26834 19.4973C8.16684 19.4948 8.06589 19.513 7.97161 19.5507C7.87734 19.5885 7.79171 19.6449 7.71991 19.7167L5.46991 21.9667C5.39733 22.0357 5.33929 22.1185 5.29922 22.2102C5.25914 22.3019 5.23783 22.4008 5.23655 22.5008C5.23527 22.6009 5.25404 22.7003 5.29175 22.793C5.32947 22.8858 5.38537 22.97 5.45616 23.0408C5.52694 23.1116 5.61118 23.1675 5.70392 23.2052C5.79665 23.2429 5.89599 23.2617 5.99609 23.2604C6.09619 23.2591 6.19502 23.2378 6.28675 23.1977C6.37849 23.1576 6.46127 23.0996 6.53022 23.027L7.06085 22.4973H16.9393L17.4699 23.0275C17.6117 23.1622 17.8005 23.2362 17.9961 23.2337C18.1917 23.2312 18.3785 23.1524 18.5168 23.0141C18.6551 22.8758 18.7339 22.6889 18.7364 22.4934C18.7389 22.2978 18.6649 22.109 18.5302 21.9672Z" fill="#666666"/>
</svg>
