<svg width="24" height="24" viewBox="0 0 24 24" fill="none" xmlns="http://www.w3.org/2000/svg">
<path d="M23.0302 15.2196L20.25 12.439C20.111 12.2993 19.9457 12.1885 19.7636 12.1131C19.5815 12.0377 19.3863 11.9992 19.1892 11.9998H12.75V10.4998H19.5C19.8978 10.4998 20.2794 10.3417 20.5607 10.0604C20.842 9.77911 21 9.39758 21 8.99976V4.49976C21 4.10193 20.842 3.7204 20.5607 3.4391C20.2794 3.15779 19.8978 2.99976 19.5 2.99976H12.75V2.24976C12.75 2.05084 12.671 1.86008 12.5303 1.71943C12.3897 1.57877 12.1989 1.49976 12 1.49976C11.8011 1.49976 11.6103 1.57877 11.4697 1.71943C11.329 1.86008 11.25 2.05084 11.25 2.24976V2.99976H4.81079C4.61372 2.99921 4.4185 3.03775 4.23641 3.11314C4.05433 3.18853 3.88901 3.29928 3.75001 3.43897L0.969851 6.2196C0.829305 6.36024 0.750355 6.55093 0.750355 6.74976C0.750355 6.94858 0.829305 7.13927 0.969851 7.27991L3.75001 10.0605C3.88901 10.2002 4.05433 10.311 4.23641 10.3864C4.4185 10.4618 4.61372 10.5003 4.81079 10.4998H11.25V11.9998H4.50001C4.10218 11.9998 3.72065 12.1578 3.43935 12.4391C3.15804 12.7204 3.00001 13.1019 3.00001 13.4998V17.9998C3.00001 18.3976 3.15804 18.7791 3.43935 19.0604C3.72065 19.3417 4.10218 19.4998 4.50001 19.4998H11.25V21.7498C11.25 21.9487 11.329 22.1394 11.4697 22.2801C11.6103 22.4207 11.8011 22.4998 12 22.4998C12.1989 22.4998 12.3897 22.4207 12.5303 22.2801C12.671 22.1394 12.75 21.9487 12.75 21.7498V19.4998H19.1892C19.3863 19.5003 19.5815 19.4618 19.7636 19.3864C19.9457 19.311 20.111 19.2002 20.25 19.0605L23.0302 16.2799C23.1707 16.1393 23.2497 15.9486 23.2497 15.7498C23.2497 15.5509 23.1707 15.3602 23.0302 15.2196Z" fill="#666666"/>
</svg>
