<svg width="24" height="24" viewBox="0 0 24 24" fill="none" xmlns="http://www.w3.org/2000/svg">
<path d="M8.25003 20.2498L6.00002 22.4998M16.125 2.24976H15C15 2.05084 14.921 1.86008 14.7804 1.71943C14.6397 1.57877 14.4489 1.49976 14.25 1.49976H9.75003C9.55111 1.49976 9.36035 1.57877 9.2197 1.71943C9.07904 1.86008 9.00003 2.05084 9.00003 2.24976H7.87503C7.17944 2.25173 6.51291 2.52893 6.02106 3.02079C5.5292 3.51264 5.252 4.17917 5.25002 4.87476V16.4529C5.25002 18.1076 12 19.4998 12 19.4998C12 19.4998 18.75 18.1076 18.75 16.4529V4.87476C18.75 4.17856 18.4735 3.51088 17.9812 3.0186C17.4889 2.52632 16.8212 2.24976 16.125 2.24976V2.24976ZM12 16.4998C11.555 16.4998 11.12 16.3678 10.75 16.1206C10.38 15.8733 10.0916 15.5219 9.9213 15.1108C9.751 14.6997 9.70644 14.2473 9.79326 13.8108C9.88008 13.3743 10.0944 12.9734 10.409 12.6588C10.7237 12.3441 11.1246 12.1298 11.5611 12.043C11.9975 11.9562 12.4499 12.0007 12.8611 12.171C13.2722 12.3413 13.6236 12.6297 13.8708 12.9997C14.1181 13.3697 14.25 13.8047 14.25 14.2498C14.25 14.8465 14.013 15.4188 13.591 15.8407C13.1691 16.2627 12.5968 16.4998 12 16.4998ZM16.5 8.99976C16.5 9.19867 16.421 9.38943 16.2804 9.53009C16.1397 9.67074 15.9489 9.74976 15.75 9.74976H8.25003C8.05111 9.74976 7.86035 9.67074 7.7197 9.53009C7.57904 9.38943 7.50003 9.19867 7.50003 8.99976V5.99976C7.50003 5.80084 7.57904 5.61008 7.7197 5.46943C7.86035 5.32877 8.05111 5.24976 8.25003 5.24976H15.75C15.9489 5.24976 16.1397 5.32877 16.2804 5.46943C16.421 5.61008 16.5 5.80084 16.5 5.99976V8.99976ZM6.75003 21.7498H17.25H6.75003ZM15.75 20.2498L18 22.4998L15.75 20.2498Z" stroke="#666666" stroke-width="1.5" stroke-linecap="round" stroke-linejoin="round"/>
</svg>
