<svg width="24" height="24" viewBox="0 0 24 24" fill="none" xmlns="http://www.w3.org/2000/svg">
<path d="M21.4687 1.49976H18.2812C18.0077 1.49976 17.7454 1.60841 17.552 1.8018C17.3586 1.9952 17.2499 2.2575 17.2499 2.53101C17.2499 2.80451 17.3586 3.06681 17.552 3.26021C17.7454 3.45361 18.0077 3.56226 18.2812 3.56226H18.9791L16.1868 6.3546C14.9764 5.45458 13.5082 4.96855 11.9999 4.96855C10.4916 4.96855 9.02341 5.45458 7.81303 6.3546L7.45819 5.99976L8.69803 4.76038C8.79382 4.6646 8.8698 4.55089 8.92163 4.42574C8.97347 4.30059 9.00015 4.16646 9.00015 4.03101C9.00015 3.89555 8.97347 3.76142 8.92163 3.63627C8.8698 3.51112 8.79382 3.39741 8.69803 3.30163C8.60225 3.20585 8.48854 3.12987 8.36339 3.07803C8.23825 3.02619 8.10412 2.99951 7.96866 2.99951C7.69509 2.99951 7.43273 3.10819 7.23928 3.30163L5.99991 4.54148L5.02069 3.56226H5.71866C5.99216 3.56226 6.25447 3.45361 6.44786 3.26021C6.64126 3.06681 6.74991 2.80451 6.74991 2.53101C6.74991 2.2575 6.64126 1.9952 6.44786 1.8018C6.25447 1.60841 5.99216 1.49976 5.71866 1.49976H2.53116C2.25765 1.49976 1.99535 1.60841 1.80195 1.8018C1.60856 1.9952 1.49991 2.2575 1.49991 2.53101V5.71851C1.49991 5.99201 1.60856 6.25431 1.80195 6.44771C1.99535 6.64111 2.25765 6.74976 2.53116 6.74976C2.80466 6.74976 3.06697 6.64111 3.26036 6.44771C3.45376 6.25431 3.56241 5.99201 3.56241 5.71851V5.02054L4.54163 5.99976L3.30319 7.23819C3.20536 7.33348 3.12743 7.44725 3.07392 7.5729C3.02041 7.69855 2.9924 7.83358 2.9915 7.97015C2.9906 8.10671 3.01683 8.2421 3.06868 8.36844C3.12053 8.49479 3.19695 8.60957 3.29352 8.70614C3.39009 8.80271 3.50488 8.87914 3.63122 8.93098C3.75757 8.98283 3.89295 9.00907 4.02952 9.00817C4.16608 9.00727 4.30111 8.97925 4.42676 8.92575C4.55241 8.87224 4.66618 8.79431 4.76147 8.69648L5.99991 7.45804L6.35475 7.81288C5.45322 9.02247 4.967 10.4912 4.96866 11.9998C4.96866 15.8768 8.12288 19.031 11.9999 19.031C13.5113 19.0327 14.9825 18.5448 16.1933 17.6402L17.2968 18.7451L16.0527 19.9891C15.8593 20.1826 15.7506 20.4449 15.7506 20.7185C15.7506 20.9921 15.8593 21.2544 16.0527 21.4479C16.2462 21.6413 16.5085 21.75 16.7821 21.75C17.0557 21.75 17.318 21.6413 17.5115 21.4479L18.7532 20.2057L20.7393 22.1969C20.9325 22.3906 21.1947 22.4996 21.4683 22.5C21.7418 22.5004 22.0043 22.392 22.198 22.1988C22.3917 22.0056 22.5007 21.7434 22.5011 21.4698C22.5014 21.1963 22.3931 20.9338 22.1999 20.7401L20.211 18.7498L21.448 17.5127C21.6415 17.3193 21.7502 17.0569 21.7502 16.7834C21.7502 16.5098 21.6415 16.2474 21.448 16.054C21.2546 15.8605 20.9922 15.7519 20.7187 15.7519C20.4451 15.7519 20.1827 15.8605 19.9893 16.054L18.7541 17.2891L17.6502 16.1819C18.5479 14.9717 19.0321 13.5046 19.0312 11.9977C19.0303 10.4909 18.5443 9.02438 17.6451 7.81523L20.4374 5.02054V5.71851C20.4374 5.99201 20.5461 6.25431 20.7395 6.44771C20.9329 6.64111 21.1952 6.74976 21.4687 6.74976C21.7422 6.74976 22.0045 6.64111 22.1979 6.44771C22.3913 6.25431 22.4999 5.99201 22.4999 5.71851V2.53101C22.4999 2.2575 22.3913 1.9952 22.1979 1.8018C22.0045 1.60841 21.7422 1.49976 21.4687 1.49976ZM7.03116 11.9998C7.03116 11.017 7.32257 10.0564 7.86854 9.23927C8.41452 8.42216 9.19053 7.7853 10.0985 7.40923C11.0064 7.03316 12.0054 6.93476 12.9693 7.12648C13.9331 7.3182 14.8185 7.79143 15.5133 8.48632C16.2082 9.18121 16.6815 10.0666 16.8732 11.0304C17.0649 11.9942 16.9665 12.9933 16.5904 13.9012C16.2144 14.8091 15.5775 15.5851 14.7604 16.1311C13.9433 16.6771 12.9826 16.9685 11.9999 16.9685C10.6826 16.967 9.41962 16.443 8.48812 15.5116C7.55662 14.5801 7.03265 13.3171 7.03116 11.9998Z" fill="#666666"/>
</svg>
