<svg width="24" height="24" viewBox="0 0 24 24" fill="none" xmlns="http://www.w3.org/2000/svg">
<path d="M12 17.998C15.3137 17.998 18 15.3118 18 11.998C18 8.68434 15.3137 5.99805 12 5.99805C8.68625 5.99805 5.99996 8.68434 5.99996 11.998C5.99996 15.3118 8.68625 17.998 12 17.998Z" stroke="#666666" stroke-width="1.5" stroke-linecap="round" stroke-linejoin="round"/>
<path d="M21.75 21.748L16.2492 16.2341M21 16.498L16.5 20.998L21 16.498ZM8.24995 3.74805L3.75089 8.24711L8.24995 3.74805ZM21.75 5.99805V2.24805H18L21.75 5.99805ZM2.24995 5.99805V2.24805H5.99995L2.24995 5.99805ZM21.75 2.24805L16.2421 7.75586L21.75 2.24805ZM2.24995 2.24805L7.7573 7.75539L2.24995 2.24805Z" stroke="#666666" stroke-width="1.5" stroke-linecap="round" stroke-linejoin="round"/>
</svg>
