<svg width="24" height="24" viewBox="0 0 24 24" fill="none" xmlns="http://www.w3.org/2000/svg">
<path d="M22.5 21.0438L20.2059 18.7432L21.75 17.1991L20.2922 15.7409L18.75 17.283L17.6461 16.1763C18.5437 14.9664 19.0279 13.4996 19.0271 11.9931C19.0262 10.4866 18.5404 9.02039 17.6414 7.81147L20.4328 5.0196V6.74976H22.4953V1.49976H17.2453V3.56226H18.9736L16.1822 6.35366C14.9721 5.45391 13.5044 4.96802 11.9965 4.96802C10.4886 4.96802 9.02082 5.45391 7.81077 6.35366L7.45687 5.99976L9.00374 4.45288L7.54687 2.99413L5.99999 4.54101L5.01984 3.56226H6.74999V1.49976H1.49999V6.74976H3.56249V5.0196L4.54077 5.99976L2.9939 7.54663L4.45312 9.0021L5.99999 7.45522L6.35437 7.81007C5.45297 9.0197 4.96691 10.4884 4.96874 11.9969C4.96874 15.873 8.12202 19.0282 12 19.0282C13.5111 19.03 14.9821 18.542 16.1925 17.6374L17.2945 18.7427L15.7411 20.2919L17.1994 21.7498L18.7462 20.2029L21.0384 22.4998L22.5 21.0438ZM7.03124 11.9969C7.03124 11.0142 7.32266 10.0536 7.86863 9.23645C8.4146 8.41935 9.19061 7.78249 10.0985 7.40642C11.0065 7.03034 12.0055 6.93195 12.9693 7.12367C13.9332 7.31539 14.8185 7.78861 15.5134 8.48351C16.2083 9.1784 16.6815 10.0637 16.8733 11.0276C17.065 11.9914 16.9666 12.9905 16.5905 13.8984C16.2144 14.8063 15.5776 15.5823 14.7605 16.1283C13.9434 16.6743 12.9827 16.9657 12 16.9657C10.6825 16.9646 9.41937 16.4407 8.48779 15.5091C7.55621 14.5776 7.03236 13.3144 7.03124 11.9969Z" fill="#666666"/>
</svg>
