<svg width="24" height="24" viewBox="0 0 24 24" fill="none" xmlns="http://www.w3.org/2000/svg">
<path d="M20.25 6.74707L18.9061 19.6724C18.8631 20.0373 18.6877 20.3738 18.4131 20.618C18.1385 20.8622 17.7839 20.9971 17.4164 20.9971H6.58406C6.2166 20.9971 5.86193 20.8622 5.58733 20.618C5.31273 20.3738 5.13732 20.0373 5.09438 19.6724L3.75 6.74707" stroke="#666666" stroke-width="1.5" stroke-linecap="round" stroke-linejoin="round"/>
<path d="M21.7499 2.99707H2.24992C1.8357 2.99707 1.49992 3.33286 1.49992 3.74707V5.99707C1.49992 6.41128 1.8357 6.74707 2.24992 6.74707H21.7499C22.1641 6.74707 22.4999 6.41128 22.4999 5.99707V3.74707C22.4999 3.33286 22.1641 2.99707 21.7499 2.99707Z" stroke="#666666" stroke-width="1.5" stroke-linecap="round" stroke-linejoin="round"/>
<path d="M14.625 16.4998L9.375 11.2498M14.625 11.2498L9.375 16.4998L14.625 11.2498Z" stroke="#666666" stroke-width="1.5" stroke-linecap="round" stroke-linejoin="round"/>
</svg>
