<svg width="24" height="24" viewBox="0 0 24 24" fill="none" xmlns="http://www.w3.org/2000/svg">
<path d="M5.24996 5.24622L6.18746 20.2462C6.23199 21.1129 6.86246 21.7462 7.68746 21.7462H16.3125C17.1407 21.7462 17.7595 21.1129 17.8125 20.2462L18.75 5.24622" stroke="#666666" stroke-width="1.5" stroke-linecap="round" stroke-linejoin="round"/>
<path d="M3.75005 5.24622H20.25H3.75005Z" fill="#666666"/>
<path d="M3.75005 5.24622H20.25" stroke="#666666" stroke-width="1.5" stroke-miterlimit="10" stroke-linecap="round"/>
<path d="M15.375 8.24891L15 18.7489M9.00002 5.24891V3.37391C8.99959 3.22605 9.02839 3.07956 9.08477 2.94288C9.14116 2.80619 9.22401 2.682 9.32856 2.57745C9.43311 2.47289 9.5573 2.39004 9.69399 2.33366C9.83068 2.27728 9.97716 2.24847 10.125 2.24891H13.875C14.0229 2.24847 14.1694 2.27728 14.3061 2.33366C14.4427 2.39004 14.5669 2.47289 14.6715 2.57745C14.776 2.682 14.8589 2.80619 14.9153 2.94288C14.9716 3.07956 15.0005 3.22605 15 3.37391V5.24891H9.00002ZM12 8.24891V18.7489V8.24891ZM8.62502 8.24891L9.00002 18.7489L8.62502 8.24891Z" stroke="#666666" stroke-width="1.5" stroke-linecap="round" stroke-linejoin="round"/>
</svg>
