<svg width="24" height="24" viewBox="0 0 24 24" fill="none" xmlns="http://www.w3.org/2000/svg">
<path d="M3.00004 7.49976L4.3941 20.7424C4.42318 21.0189 4.5536 21.2748 4.76021 21.4608C4.96682 21.6469 5.235 21.7498 5.51301 21.7498H18.4871C18.7651 21.7498 19.0333 21.6469 19.2399 21.4608C19.4465 21.2748 19.5769 21.0189 19.606 20.7424L21 7.49976H3.00004ZM14.625 17.6932L12 15.0682L9.37504 17.6932L8.1816 16.4998L10.8066 13.8748L8.1816 11.2498L9.37504 10.0563L12 12.6813L14.625 10.0563L15.8185 11.2498L13.1935 13.8748L15.8185 16.4998L14.625 17.6932Z" fill="#666666"/>
<path d="M21.9375 2.2489H2.06248C1.75182 2.2489 1.49998 2.50074 1.49998 2.8114V5.4364C1.49998 5.74706 1.75182 5.9989 2.06248 5.9989H21.9375C22.2481 5.9989 22.5 5.74706 22.5 5.4364V2.8114C22.5 2.50074 22.2481 2.2489 21.9375 2.2489Z" fill="#666666"/>
</svg>
