<svg width="24" height="24" viewBox="0 0 24 24" fill="none" xmlns="http://www.w3.org/2000/svg">
<path d="M21 2.2489H3.00004C2.17161 2.2489 1.50004 2.92047 1.50004 3.7489V4.4989C1.50004 5.32733 2.17161 5.9989 3.00004 5.9989H21C21.8285 5.9989 22.5 5.32733 22.5 4.4989V3.7489C22.5 2.92047 21.8285 2.2489 21 2.2489Z" fill="#666666"/>
<path d="M3.4898 7.49976C3.4371 7.49948 3.38494 7.5103 3.33671 7.53153C3.28847 7.55276 3.24526 7.58392 3.20987 7.62297C3.17449 7.66203 3.14774 7.7081 3.13136 7.75819C3.11497 7.80828 3.10933 7.86125 3.1148 7.91367L4.34808 19.7524C4.34783 19.7559 4.34783 19.7593 4.34808 19.7627C4.41252 20.3103 4.67578 20.8152 5.08787 21.1815C5.49996 21.5477 6.0322 21.75 6.58355 21.7498H17.4159C17.9671 21.7498 18.4991 21.5474 18.911 21.1811C19.3229 20.8149 19.586 20.3101 19.6504 19.7627V19.7529L20.8818 7.91367C20.8873 7.86125 20.8817 7.80828 20.8653 7.75819C20.8489 7.7081 20.8221 7.66203 20.7868 7.62297C20.7514 7.58392 20.7082 7.55276 20.6599 7.53153C20.6117 7.5103 20.5595 7.49948 20.5068 7.49976H3.4898ZM15.1551 15.9696C15.2264 16.0389 15.2832 16.1216 15.3223 16.2131C15.3613 16.3045 15.3818 16.4028 15.3825 16.5022C15.3832 16.6016 15.3641 16.7002 15.3264 16.7921C15.2886 16.8841 15.233 16.9677 15.1627 17.038C15.0924 17.1082 15.0088 17.1638 14.9168 17.2015C14.8248 17.2392 14.7262 17.2582 14.6268 17.2575C14.5274 17.2567 14.4291 17.2362 14.3377 17.1972C14.2463 17.1581 14.1636 17.1012 14.0943 17.0299L12 14.9355L9.90512 17.0299C9.76382 17.1672 9.57417 17.2434 9.37716 17.242C9.18015 17.2406 8.9916 17.1617 8.85226 17.0225C8.71292 16.8832 8.63398 16.6947 8.63249 16.4977C8.63101 16.3006 8.70711 16.111 8.84433 15.9696L10.9392 13.8748L8.84433 11.7799C8.70711 11.6386 8.63101 11.4489 8.63249 11.2519C8.63398 11.0549 8.71292 10.8663 8.85226 10.7271C8.9916 10.5878 9.18015 10.5089 9.37716 10.5075C9.57417 10.5061 9.76382 10.5823 9.90512 10.7196L12 12.814L14.0943 10.7196C14.2356 10.5823 14.4253 10.5061 14.6223 10.5075C14.8193 10.5089 15.0079 10.5878 15.1472 10.7271C15.2865 10.8663 15.3655 11.0549 15.367 11.2519C15.3684 11.4489 15.2923 11.6386 15.1551 11.7799L13.0603 13.8748L15.1551 15.9696Z" fill="#666666"/>
</svg>
