<svg width="24" height="24" viewBox="0 0 24 24" fill="none" xmlns="http://www.w3.org/2000/svg">
<path d="M20.979 4.50073H15.7501V2.25073C15.7501 2.05182 15.6711 1.86105 15.5304 1.7204C15.3898 1.57975 15.199 1.50073 15.0001 1.50073H9.00008C8.80117 1.50073 8.6104 1.57975 8.46975 1.7204C8.3291 1.86105 8.25008 2.05182 8.25008 2.25073V4.50073H3.02117L3.00008 6.37573H4.54696L5.48867 21.0945C5.51251 21.4751 5.68043 21.8324 5.95829 22.0936C6.23615 22.3548 6.60308 22.5004 6.98446 22.5007H17.0157C17.3969 22.5007 17.7637 22.3555 18.0417 22.0948C18.3197 21.834 18.488 21.4772 18.5124 21.0968L19.4532 6.37573H21.0001L20.979 4.50073ZM8.25008 19.5007L7.82821 7.50073H9.37508L9.79696 19.5007H8.25008ZM12.7501 19.5007H11.2501V7.50073H12.7501V19.5007ZM13.8751 4.50073H10.1251V3.18823C10.1251 3.1385 10.1448 3.09081 10.18 3.05565C10.2152 3.02049 10.2629 3.00073 10.3126 3.00073H13.6876C13.7373 3.00073 13.785 3.02049 13.8202 3.05565C13.8553 3.09081 13.8751 3.1385 13.8751 3.18823V4.50073ZM15.7501 19.5007H14.2032L14.6251 7.50073H16.172L15.7501 19.5007Z" fill="#666666"/>
</svg>
