<svg width="24" height="24" viewBox="0 0 24 24" fill="none" xmlns="http://www.w3.org/2000/svg">
<path d="M20.25 4.50073H15.75V3.37573C15.75 2.87845 15.5525 2.40154 15.2008 2.04991C14.8492 1.69828 14.3723 1.50073 13.875 1.50073H10.125C9.62772 1.50073 9.15081 1.69828 8.79918 2.04991C8.44755 2.40154 8.25 2.87845 8.25 3.37573V4.50073H3.75C3.55109 4.50073 3.36032 4.57975 3.21967 4.7204C3.07902 4.86106 3 5.05182 3 5.25073C3 5.44965 3.07902 5.64041 3.21967 5.78106C3.36032 5.92171 3.55109 6.00073 3.75 6.00073H4.54688L5.4375 20.2939C5.50406 21.5525 6.46875 22.5007 7.6875 22.5007H16.3125C17.5373 22.5007 18.4828 21.5735 18.5625 20.2976L19.4531 6.00073H20.25C20.4489 6.00073 20.6397 5.92171 20.7803 5.78106C20.921 5.64041 21 5.44965 21 5.25073C21 5.05182 20.921 4.86106 20.7803 4.7204C20.6397 4.57975 20.4489 4.50073 20.25 4.50073ZM9.02672 19.5007H9C8.80563 19.5009 8.61881 19.4255 8.4789 19.2906C8.33899 19.1557 8.25693 18.9717 8.25 18.7775L7.875 8.27745C7.86792 8.07854 7.94014 7.88496 8.07578 7.7393C8.21142 7.59363 8.39937 7.50782 8.59828 7.50073C8.79719 7.49365 8.99078 7.56587 9.13644 7.70151C9.2821 7.83715 9.36792 8.0251 9.375 8.22401L9.75 18.724C9.75357 18.8225 9.73769 18.9208 9.70327 19.0131C9.66884 19.1055 9.61654 19.1902 9.54937 19.2623C9.48219 19.3344 9.40146 19.3926 9.31178 19.4335C9.2221 19.4745 9.12523 19.4973 9.02672 19.5007ZM12.75 18.7507C12.75 18.9496 12.671 19.1404 12.5303 19.2811C12.3897 19.4217 12.1989 19.5007 12 19.5007C11.8011 19.5007 11.6103 19.4217 11.4697 19.2811C11.329 19.1404 11.25 18.9496 11.25 18.7507V8.25073C11.25 8.05182 11.329 7.86106 11.4697 7.7204C11.6103 7.57975 11.8011 7.50073 12 7.50073C12.1989 7.50073 12.3897 7.57975 12.5303 7.7204C12.671 7.86106 12.75 8.05182 12.75 8.25073V18.7507ZM14.25 4.50073H9.75V3.37573C9.74944 3.32633 9.75875 3.27731 9.7774 3.23156C9.79604 3.18581 9.82364 3.14424 9.85858 3.10931C9.89351 3.07437 9.93508 3.04677 9.98083 3.02813C10.0266 3.00948 10.0756 3.00017 10.125 3.00073H13.875C13.9244 3.00017 13.9734 3.00948 14.0192 3.02813C14.0649 3.04677 14.1065 3.07437 14.1414 3.10931C14.1764 3.14424 14.204 3.18581 14.2226 3.23156C14.2413 3.27731 14.2506 3.32633 14.25 3.37573V4.50073ZM15.75 18.7775C15.7431 18.9717 15.661 19.1557 15.5211 19.2906C15.3812 19.4255 15.1944 19.5009 15 19.5007H14.9728C14.8743 19.4972 14.7775 19.4743 14.6879 19.4334C14.5983 19.3925 14.5176 19.3343 14.4505 19.2621C14.3833 19.19 14.3311 19.1054 14.2967 19.013C14.2623 18.9207 14.2464 18.8225 14.25 18.724L14.625 8.22401C14.6285 8.12552 14.6514 8.02869 14.6923 7.93904C14.7333 7.84938 14.7914 7.76867 14.8636 7.70151C14.9357 7.63435 15.0203 7.58205 15.1127 7.5476C15.205 7.51315 15.3032 7.49722 15.4017 7.50073C15.5002 7.50424 15.597 7.52711 15.6867 7.56805C15.7764 7.60898 15.8571 7.66717 15.9242 7.7393C15.9914 7.81142 16.0437 7.89607 16.0781 7.98841C16.1126 8.08074 16.1285 8.17896 16.125 8.27745L15.75 18.7775Z" fill="#666666"/>
</svg>
