<svg width="24" height="24" viewBox="0 0 24 24" fill="none" xmlns="http://www.w3.org/2000/svg">
<path d="M16.5001 6.74707H21.7501V11.9971" stroke="#666666" stroke-width="1.5" stroke-linecap="round" stroke-linejoin="round"/>
<path d="M2.25008 17.2498L7.9393 11.5605C8.07859 11.4212 8.24396 11.3107 8.42597 11.2353C8.60798 11.1599 8.80307 11.1211 9.00008 11.1211C9.19709 11.1211 9.39217 11.1599 9.57418 11.2353C9.75619 11.3107 9.92157 11.4212 10.0609 11.5605L12.4393 13.939C12.5786 14.0783 12.744 14.1888 12.926 14.2642C13.108 14.3396 13.3031 14.3784 13.5001 14.3784C13.6971 14.3784 13.8922 14.3396 14.0742 14.2642C14.2562 14.1888 14.4216 14.0783 14.5609 13.939L21.0001 7.49976" stroke="#666666" stroke-width="1.5" stroke-linecap="round" stroke-linejoin="round"/>
</svg>
