<svg width="24" height="24" viewBox="0 0 24 24" fill="none" xmlns="http://www.w3.org/2000/svg">
<path d="M16.5 6.74805H21.75V11.998" stroke="#666666" stroke-width="1.5" stroke-linecap="round" stroke-linejoin="round"/>
<path d="M2.25001 17.2462L7.93923 11.557C8.07852 11.4177 8.24389 11.3072 8.4259 11.2318C8.60791 11.1563 8.803 11.1175 9.00001 11.1175C9.19702 11.1175 9.3921 11.1563 9.57411 11.2318C9.75612 11.3072 9.9215 11.4177 10.0608 11.557L12.4392 13.9354C12.5785 14.0748 12.7439 14.1853 12.9259 14.2607C13.1079 14.3361 13.303 14.3749 13.5 14.3749C13.697 14.3749 13.8921 14.3361 14.0741 14.2607C14.2561 14.1853 14.4215 14.0748 14.5608 13.9354L21 7.49622" stroke="#666666" stroke-width="1.5" stroke-linecap="round" stroke-linejoin="round"/>
</svg>
