<svg width="24" height="24" viewBox="0 0 24 24" fill="none" xmlns="http://www.w3.org/2000/svg">
<path d="M16.5002 17.248H21.7502V11.998" stroke="#666666" stroke-width="1.5" stroke-linecap="round" stroke-linejoin="round"/>
<path d="M2.25003 6.74707L7.93925 12.4363C8.07855 12.5756 8.24392 12.6861 8.42593 12.7615C8.60794 12.8369 8.80302 12.8758 9.00003 12.8758C9.19705 12.8758 9.39213 12.8369 9.57414 12.7615C9.75615 12.6861 9.92152 12.5756 10.0608 12.4363L12.4393 10.0579C12.5785 9.91853 12.7439 9.80801 12.9259 9.7326C13.1079 9.6572 13.303 9.61839 13.5 9.61839C13.697 9.61839 13.8921 9.6572 14.0741 9.7326C14.2562 9.80801 14.4215 9.91853 14.5608 10.0579L21 16.4971" stroke="#666666" stroke-width="1.5" stroke-linecap="round" stroke-linejoin="round"/>
</svg>
