<svg width="24" height="24" viewBox="0 0 24 24" fill="none" xmlns="http://www.w3.org/2000/svg">
<path d="M21.7499 21.7499H2.24993C2.12 21.7499 1.9923 21.7161 1.87934 21.6519C1.76638 21.5877 1.67203 21.4953 1.60554 21.3837C1.53905 21.2721 1.50269 21.1451 1.50004 21.0152C1.49738 20.8853 1.52852 20.7569 1.5904 20.6427L11.3404 2.64266C11.4047 2.52383 11.5 2.42459 11.6161 2.35543C11.7322 2.28627 11.8648 2.24976 11.9999 2.24976C12.1351 2.24976 12.2677 2.28627 12.3838 2.35543C12.4999 2.42459 12.5951 2.52383 12.6595 2.64266L22.4095 20.6427C22.4713 20.7569 22.5025 20.8853 22.4998 21.0152C22.4972 21.1451 22.4608 21.2721 22.3943 21.3837C22.3278 21.4953 22.2335 21.5877 22.1205 21.6519C22.0076 21.7161 21.8799 21.7499 21.7499 21.7499Z" fill="#666666"/>
</svg>
