<svg width="24" height="24" viewBox="0 0 24 24" fill="none" xmlns="http://www.w3.org/2000/svg">
<path d="M22.875 18.0007H1.12502C1.02557 18.0007 0.930184 17.9612 0.859858 17.8909C0.789532 17.8206 0.750023 17.7252 0.750023 17.6257V4.12573C0.750023 4.02628 0.789532 3.93089 0.859858 3.86057C0.930184 3.79024 1.02557 3.75073 1.12502 3.75073H22.875C22.9745 3.75073 23.0699 3.79024 23.1402 3.86057C23.2105 3.93089 23.25 4.02628 23.25 4.12573V17.6257C23.25 17.7252 23.2105 17.8206 23.1402 17.8909C23.0699 17.9612 22.9745 18.0007 22.875 18.0007Z" fill="#666666"/>
<path d="M18.5626 18.7462H5.43755C5.334 18.7462 5.25005 18.8302 5.25005 18.9337V20.0587C5.25005 20.1623 5.334 20.2462 5.43755 20.2462H18.5626C18.6661 20.2462 18.7501 20.1623 18.7501 20.0587V18.9337C18.7501 18.8302 18.6661 18.7462 18.5626 18.7462Z" fill="#666666"/>
</svg>
