<svg width="24" height="24" viewBox="0 0 24 24" fill="none" xmlns="http://www.w3.org/2000/svg">
<path d="M20.9935 17.9971H3.00659C2.40834 17.9963 1.83481 17.7583 1.41178 17.3353C0.988758 16.9123 0.750775 16.3388 0.750031 15.7405V6.00363C0.750775 5.40538 0.988758 4.83185 1.41178 4.40882C1.83481 3.9858 2.40834 3.74781 3.00659 3.74707H20.9935C21.5917 3.74781 22.1653 3.9858 22.5883 4.40882C23.0113 4.83185 23.2493 5.40538 23.25 6.00363V15.7405C23.2493 16.3388 23.0113 16.9123 22.5883 17.3353C22.1653 17.7583 21.5917 17.9963 20.9935 17.9971Z" fill="#666666"/>
<path d="M6.00008 19.4998H18.0001H6.00008Z" fill="#666666"/>
<path d="M6.00008 19.4998H18.0001" stroke="#666666" stroke-width="1.5" stroke-miterlimit="10" stroke-linecap="round"/>
</svg>
