<svg width="24" height="24" viewBox="0 0 24 24" fill="none" xmlns="http://www.w3.org/2000/svg">
<path d="M12 12.7507V20.2507C12 20.6486 11.842 21.0301 11.5607 21.3114C11.2794 21.5927 10.8978 21.7507 10.5 21.7507C10.1022 21.7507 9.72065 21.5927 9.43935 21.3114C9.15804 21.0301 9.00001 20.6486 9.00001 20.2507M12 12.7507L11.5458 12.41C10.8392 11.8801 9.96525 11.6229 9.08431 11.6855C8.20337 11.7481 7.37456 12.1263 6.75001 12.7507C6.45454 12.4552 6.10376 12.2209 5.71771 12.0609C5.33165 11.901 4.91788 11.8187 4.50001 11.8187C4.08214 11.8187 3.66836 11.901 3.28231 12.0609C2.89625 12.2209 2.54547 12.4552 2.25001 12.7507C2.25001 7.36573 6.61501 3.00073 12 3.00073M12 12.7507L12.4542 12.41C13.1608 11.8801 14.0348 11.6229 14.9157 11.6855C15.7966 11.7481 16.6255 12.1263 17.25 12.7507C17.5455 12.4552 17.8963 12.2209 18.2823 12.0609C18.6684 11.901 19.0821 11.8187 19.5 11.8187C19.9179 11.8187 20.3317 11.901 20.7177 12.0609C21.1038 12.2209 21.4545 12.4552 21.75 12.7507C21.75 7.36573 17.385 3.00073 12 3.00073M12 3.00073V2.25073" stroke="#666666" stroke-width="1.5" stroke-linecap="round" stroke-linejoin="round"/>
</svg>
