<svg width="24" height="24" viewBox="0 0 24 24" fill="none" xmlns="http://www.w3.org/2000/svg">
<path d="M6.0435 13.1219L6.03132 13.1078C5.98913 13.0731 5.94554 13.0408 5.90147 13.0094L6.0435 13.1219ZM17.9568 13.1219L18.0796 13.0225C18.0426 13.0497 18.006 13.0774 17.9699 13.1064L17.9568 13.1219Z" fill="#666666"/>
<path d="M21.7097 8.73742C20.9618 6.93576 19.728 5.37737 18.1459 4.23619C16.5638 3.09502 14.6957 2.41594 12.7501 2.27477V1.49805H11.2501V2.27477C8.60019 2.45987 6.11948 3.64428 4.30951 5.58851C2.49955 7.53275 1.49538 10.0917 1.50005 12.748V13.8037L2.07427 13.2782C2.57242 12.7834 3.23141 12.4835 3.93171 12.433C4.632 12.3824 5.32723 12.5845 5.8913 13.0026L5.90162 13.0105C5.94568 13.042 5.98927 13.0743 6.03146 13.109C6.09677 13.1618 6.15927 13.2182 6.21896 13.2782L6.75006 13.8088L7.28021 13.2782C7.77867 12.7841 8.43773 12.4851 9.1378 12.4354C9.83787 12.3857 10.5326 12.5886 11.0958 13.0073L11.2501 13.123V20.248C11.2501 20.447 11.171 20.6377 11.0304 20.7784C10.8897 20.919 10.699 20.998 10.5001 20.998C10.3011 20.998 10.1104 20.919 9.96973 20.7784C9.82907 20.6377 9.75006 20.447 9.75006 20.248V19.498H8.25006V20.248C8.25006 20.8448 8.48711 21.4171 8.90907 21.839C9.33102 22.261 9.90332 22.498 10.5001 22.498C11.0968 22.498 11.6691 22.261 12.091 21.839C12.513 21.4171 12.7501 20.8448 12.7501 20.248V13.123L12.9043 13.0073C13.4675 12.5886 14.1622 12.3857 14.8623 12.4354C15.5624 12.4851 16.2214 12.7841 16.7199 13.2782L17.2501 13.8088L17.7802 13.2782C17.8412 13.2176 17.9044 13.1607 17.9701 13.1076C18.0061 13.0785 18.0427 13.0509 18.0797 13.0237L18.0919 13.0138C19.2465 12.148 20.9044 12.2577 21.9268 13.2782L22.5001 13.8032V12.748C22.5024 11.3723 22.2338 10.0095 21.7097 8.73742Z" fill="#666666"/>
</svg>
