<svg width="24" height="24" viewBox="0 0 24 24" fill="none" xmlns="http://www.w3.org/2000/svg">
<path d="M19.4246 5.32321C17.7122 3.6007 15.4518 2.5306 13.0341 2.2979C12.9605 2.29024 12.8908 2.26122 12.8335 2.21441C12.7762 2.1676 12.7338 2.10505 12.7116 2.03446C12.6674 1.8799 12.574 1.74395 12.4456 1.64717C12.3172 1.55039 12.1608 1.49805 12.0001 1.49805C11.8393 1.49805 11.6829 1.55039 11.5545 1.64717C11.4261 1.74395 11.3328 1.8799 11.2885 2.03446C11.2663 2.10505 11.2239 2.1676 11.1666 2.21441C11.1093 2.26122 11.0396 2.29024 10.966 2.2979C8.37662 2.55415 5.97462 3.76271 4.22567 5.6893C2.47672 7.61588 1.50542 10.1232 1.50006 12.7252C1.49803 12.8533 1.52801 12.9798 1.58727 13.0934C1.64654 13.2069 1.73321 13.3039 1.83943 13.3754C1.9836 13.4696 2.15581 13.5114 2.32713 13.4936C2.49845 13.4759 2.65844 13.3997 2.78021 13.2779C3.23585 12.8224 3.85358 12.5663 4.49784 12.5658C5.14209 12.5653 5.76024 12.8204 6.21662 13.2751C6.28559 13.3453 6.36776 13.4013 6.45841 13.4397C6.54906 13.4781 6.6464 13.4982 6.74485 13.4988C6.84329 13.4995 6.94089 13.4807 7.03205 13.4435C7.1232 13.4063 7.2061 13.3514 7.276 13.2821C7.77418 12.7863 8.43379 12.4858 9.13483 12.4353C9.83587 12.3848 10.5317 12.5877 11.0958 13.007C11.1437 13.043 11.1826 13.0896 11.2094 13.1432C11.2362 13.1968 11.2501 13.2559 11.2501 13.3159V20.2262C11.2501 20.6293 10.9407 20.9762 10.538 20.9968C10.4365 21.002 10.3349 20.9864 10.2396 20.9511C10.1442 20.9158 10.057 20.8614 9.98332 20.7914C9.90962 20.7213 9.85093 20.637 9.81083 20.5435C9.77073 20.4501 9.75006 20.3494 9.75006 20.2477C9.75008 20.1481 9.73024 20.0494 9.6917 19.9576C9.65316 19.8657 9.5967 19.7824 9.52561 19.7126C9.45452 19.6427 9.37022 19.5878 9.27766 19.5509C9.18509 19.514 9.0861 19.4959 8.98647 19.4977C8.56459 19.5052 8.24115 19.8779 8.25053 20.2993C8.26453 20.8818 8.50365 21.4361 8.91767 21.8461C9.3317 22.256 9.88843 22.4895 10.471 22.4977C11.731 22.5137 12.7501 21.4698 12.7501 20.2098V13.3159C12.75 13.2559 12.764 13.1968 12.7907 13.1432C12.8175 13.0896 12.8564 13.043 12.9043 13.007C13.4676 12.5883 14.1622 12.3854 14.8623 12.4351C15.5624 12.4848 16.2214 12.7838 16.7199 13.2779C16.8605 13.4184 17.0512 13.4974 17.2501 13.4974C17.4489 13.4974 17.6396 13.4184 17.7802 13.2779C18.2365 12.822 18.8551 12.566 19.5001 12.566C20.145 12.566 20.7636 12.822 21.2199 13.2779C21.3381 13.3961 21.4925 13.4715 21.6584 13.4919C21.8244 13.5124 21.9924 13.4768 22.1358 13.3909C22.249 13.3209 22.3421 13.2227 22.4059 13.1059C22.4698 12.9892 22.5022 12.8578 22.5001 12.7248C22.5008 11.3492 22.2294 9.9871 21.7016 8.71683C21.1737 7.44656 20.3999 6.29323 19.4246 5.32321Z" fill="#666666"/>
</svg>
