<svg width="24" height="24" viewBox="0 0 24 24" fill="none" xmlns="http://www.w3.org/2000/svg">
<path d="M14.6527 7.49707H17.25C18.4435 7.49707 19.5881 7.97118 20.432 8.81509C21.2759 9.659 21.75 10.8036 21.75 11.9971C21.75 13.1905 21.2759 14.3351 20.432 15.1791C19.5881 16.023 18.4435 16.4971 17.25 16.4971H14.5941M9.40597 16.4971H6.75003C5.55656 16.4971 4.41197 16.023 3.56805 15.1791C2.72414 14.3351 2.25003 13.1905 2.25003 11.9971C2.25003 10.8036 2.72414 9.659 3.56805 8.81509C4.41197 7.97118 5.55656 7.49707 6.75003 7.49707H9.34738L9.40597 16.4971Z" stroke="#666666" stroke-width="2.25" stroke-linecap="round" stroke-linejoin="round"/>
</svg>
