<svg width="24" height="24" viewBox="0 0 24 24" fill="none" xmlns="http://www.w3.org/2000/svg">
<path d="M14.6528 7.49707H17.2501C18.4436 7.49707 19.5882 7.97118 20.4321 8.81509C21.276 9.659 21.7501 10.8036 21.7501 11.9971C21.7501 13.1905 21.276 14.3351 20.4321 15.1791C19.5882 16.023 18.4436 16.4971 17.2501 16.4971H14.5942M9.40605 16.4971H6.75011C5.55664 16.4971 4.41205 16.023 3.56813 15.1791C2.72422 14.3351 2.25011 13.1905 2.25011 11.9971C2.25011 10.8036 2.72422 9.659 3.56813 8.81509C4.41205 7.97118 5.55664 7.49707 6.75011 7.49707H9.34746L9.40605 16.4971Z" stroke="#666666" stroke-width="2.25" stroke-linecap="square" stroke-linejoin="round"/>
</svg>
