<svg width="24" height="24" viewBox="0 0 24 24" fill="none" xmlns="http://www.w3.org/2000/svg">
<g clip-path="url(#clip0_32_3704)">
<path d="M2.68946 3.74851L3.7501 2.68787L20.5609 19.4986L19.5002 20.5593L2.68946 3.74851ZM1.49996 5.2486C1.30105 5.2486 1.11028 5.32762 0.969632 5.46827C0.828979 5.60892 0.749962 5.79969 0.749962 5.9986V17.9986C0.749962 18.1975 0.828979 18.3883 0.969632 18.5289C1.11028 18.6696 1.30105 18.7486 1.49996 18.7486H15C15.1571 18.7491 15.3103 18.6999 15.4378 18.608L2.0784 5.2486H1.49996ZM15.75 9.7486V5.9986C15.75 5.79969 15.6709 5.60892 15.5303 5.46827C15.3896 5.32762 15.1989 5.2486 15 5.2486H8.42012L19.9251 16.7536L23.25 18.7486V5.2486L15.75 9.7486Z" fill="#666666"/>
</g>
<defs>
<clipPath id="clip0_32_3704">
<rect width="24" height="24" fill="white"/>
</clipPath>
</defs>
</svg>
