<svg width="24" height="24" viewBox="0 0 24 24" fill="none" xmlns="http://www.w3.org/2000/svg">
<path d="M17.5684 14.4727L21.4454 17.2018C21.5596 17.2525 21.6847 17.274 21.8092 17.2641C21.9338 17.2543 22.054 17.2134 22.1587 17.1453C22.2635 17.0773 22.3496 16.9841 22.4093 16.8742C22.4689 16.7644 22.5001 16.6414 22.5001 16.5165V7.48083C22.5001 7.35586 22.4689 7.23288 22.4093 7.12305C22.3496 7.01322 22.2635 6.92003 22.1587 6.85194C22.054 6.78385 21.9338 6.74302 21.8092 6.73317C21.6847 6.72332 21.5596 6.74475 21.4454 6.79551L17.5684 9.52458C17.4701 9.59378 17.3898 9.68561 17.3344 9.79231C17.2791 9.89902 17.2501 10.0175 17.2501 10.1377V13.8596C17.2501 13.9798 17.2791 14.0983 17.3344 14.205C17.3898 14.3117 17.4701 14.4035 17.5684 14.4727V14.4727Z" stroke="#666666" stroke-width="1.5" stroke-linecap="round" stroke-linejoin="round"/>
<path d="M19.4999 19.4971L3.74993 3.74707M2.35258 6.58629C2.08551 6.8146 1.87102 7.09801 1.72384 7.41705C1.57665 7.73609 1.50027 8.08321 1.49993 8.43457V15.5596C1.50178 16.2055 1.75919 16.8244 2.2159 17.2811C2.67262 17.7378 3.29153 17.9952 3.93743 17.9971H12.5624C12.9189 17.9974 13.2711 17.919 13.5937 17.7674L2.35258 6.58629ZM9.74993 5.99707H12.5849C13.2248 5.99905 13.8379 6.25412 14.2904 6.70659C14.7429 7.15907 14.998 7.77218 14.9999 8.41207V11.6221L9.74993 5.99707Z" stroke="#666666" stroke-width="1.5" stroke-miterlimit="10" stroke-linecap="round"/>
</svg>
