<svg width="24" height="24" viewBox="0 0 24 24" fill="none" xmlns="http://www.w3.org/2000/svg">
<path d="M15.75 8.41305C15.75 7.57364 15.4166 6.76861 14.823 6.17505C14.2295 5.5815 13.4244 5.24805 12.585 5.24805H8.87253C8.83546 5.24811 8.79924 5.25916 8.76845 5.27979C8.73766 5.30043 8.71368 5.32973 8.69954 5.36399C8.68539 5.39825 8.68172 5.43593 8.68898 5.47228C8.69624 5.50863 8.71411 5.54201 8.74034 5.5682L15.4299 12.2577C15.4561 12.284 15.4894 12.3018 15.5258 12.3091C15.5621 12.3164 15.5998 12.3127 15.6341 12.2985C15.6683 12.2844 15.6976 12.2604 15.7183 12.2296C15.7389 12.1988 15.75 12.1626 15.75 12.1255V8.41305ZM0.750023 8.43555V15.5606C0.750023 16.4059 1.08585 17.2167 1.68362 17.8145C2.28139 18.4122 3.09215 18.7481 3.93752 18.7481H12.5625C13.2943 18.7487 14.0037 18.4963 14.5707 18.0337C14.5916 18.0172 14.6088 17.9965 14.6211 17.9728C14.6334 17.9492 14.6405 17.9232 14.642 17.8966C14.6435 17.8699 14.6392 17.8433 14.6296 17.8185C14.62 17.7936 14.6051 17.7711 14.5861 17.7524L2.55049 5.7168C2.52108 5.68727 2.48267 5.66839 2.44133 5.66313C2.4 5.65786 2.35808 5.66652 2.32221 5.68773C1.84351 5.96913 1.44663 6.3707 1.17087 6.85266C0.895109 7.33463 0.750037 7.88027 0.750023 8.43555ZM21.75 18.0163C21.5401 18.0162 21.3325 17.9719 21.1407 17.8865C21.096 17.8667 21.0535 17.8425 21.0136 17.8143L17.1366 15.0852C16.94 14.9468 16.7795 14.7632 16.6687 14.5498C16.5579 14.3364 16.5001 14.0994 16.5 13.859V10.1371C16.5001 9.89666 16.5579 9.65974 16.6687 9.44633C16.7795 9.23292 16.94 9.04927 17.1366 8.91086L21.0136 6.1818C21.0535 6.1536 21.096 6.12942 21.1407 6.10961C21.369 6.00808 21.6192 5.96522 21.8683 5.98492C22.1175 6.00463 22.3577 6.08628 22.5673 6.22246C22.7769 6.35864 22.9491 6.54502 23.0683 6.76468C23.1876 6.98434 23.25 7.2303 23.25 7.48024V16.5159C23.25 16.9137 23.092 17.2952 22.8107 17.5765C22.5294 17.8578 22.1479 18.0159 21.75 18.0159V18.0163Z" fill="#666666"/>
<path d="M19.5 19.4971L3.74999 3.74707" stroke="#666666" stroke-width="1.5" stroke-miterlimit="10" stroke-linecap="round"/>
</svg>
