<svg width="24" height="24" viewBox="0 0 24 24" fill="none" xmlns="http://www.w3.org/2000/svg">
<path d="M17.5684 14.4737L21.4454 17.2027C21.5596 17.2535 21.6847 17.2749 21.8092 17.2651C21.9338 17.2552 22.0539 17.2144 22.1587 17.1463C22.2635 17.0782 22.3496 16.985 22.4092 16.8752C22.4689 16.7654 22.5001 16.6424 22.5001 16.5174V7.4818C22.5001 7.35684 22.4689 7.23385 22.4092 7.12402C22.3496 7.0142 22.2635 6.921 22.1587 6.85292C22.0539 6.78483 21.9338 6.744 21.8092 6.73415C21.6847 6.72429 21.5596 6.74572 21.4454 6.79649L17.5684 9.52555C17.4701 9.59476 17.3898 9.68658 17.3344 9.79329C17.279 9.89999 17.2501 10.0185 17.2501 10.1387V13.8606C17.2501 13.9808 17.279 14.0992 17.3344 14.2059C17.3898 14.3126 17.4701 14.4045 17.5684 14.4737V14.4737Z" stroke="#666666" stroke-width="1.5" stroke-linecap="round" stroke-linejoin="round"/>
<path d="M12.5624 17.9971H3.93742C3.29152 17.9952 2.67261 17.7378 2.21589 17.2811C1.75917 16.8244 1.50177 16.2055 1.49992 15.5596V8.43457C1.50177 7.78868 1.75917 7.16977 2.21589 6.71305C2.67261 6.25633 3.29152 5.99893 3.93742 5.99707H12.5849C13.2248 5.99905 13.8379 6.25412 14.2904 6.70659C14.7429 7.15907 14.9979 7.77218 14.9999 8.41207V15.5596C14.9981 16.2055 14.7407 16.8244 14.2839 17.2811C13.8272 17.7378 13.2083 17.9952 12.5624 17.9971Z" stroke="#666666" stroke-width="1.5" stroke-miterlimit="10"/>
</svg>
