<svg width="24" height="24" viewBox="0 0 24 24" fill="none" xmlns="http://www.w3.org/2000/svg">
<g clip-path="url(#clip0_32_3714)">
<path d="M21.75 18.0172C21.54 18.017 21.3324 17.9728 21.1406 17.8873C21.096 17.8675 21.0535 17.8434 21.0136 17.8152L17.1366 15.0861C16.94 14.9477 16.7795 14.764 16.6687 14.5506C16.5579 14.3372 16.5001 14.1003 16.5 13.8598V10.138C16.5001 9.89751 16.5579 9.6606 16.6687 9.44719C16.7795 9.23378 16.94 9.05012 17.1366 8.91171L21.0136 6.18265C21.0535 6.15445 21.096 6.13027 21.1406 6.11046C21.369 6.00893 21.6192 5.96607 21.8683 5.98578C22.1175 6.00549 22.3577 6.08714 22.5673 6.22331C22.7769 6.35949 22.9491 6.54587 23.0683 6.76553C23.1876 6.98519 23.25 7.23116 23.25 7.48109V16.5167C23.25 16.9145 23.092 17.2961 22.8107 17.5774C22.5294 17.8587 22.1478 18.0167 21.75 18.0167V18.0172ZM12.5625 18.7489H3.93752C3.0924 18.748 2.28216 18.4119 1.68457 17.8143C1.08699 17.2168 0.750884 16.4065 0.750015 15.5614V8.4364C0.750884 7.59129 1.08699 6.78104 1.68457 6.18346C2.28216 5.58587 3.0924 5.24977 3.93752 5.2489H12.585C13.4241 5.24989 14.2286 5.58367 14.8219 6.177C15.4153 6.77034 15.749 7.5748 15.75 8.4139V15.5614C15.7492 16.4065 15.413 17.2168 14.8155 17.8143C14.2179 18.4119 13.4076 18.748 12.5625 18.7489Z" fill="#666666"/>
</g>
<defs>
<clipPath id="clip0_32_3714">
<rect width="24" height="24" fill="white" transform="translate(0.00012207 -0.00390625)"/>
</clipPath>
</defs>
</svg>
