<svg width="24" height="24" viewBox="0 0 24 24" fill="none" xmlns="http://www.w3.org/2000/svg">
<g clip-path="url(#clip0_32_3712)">
<path d="M15.75 9.7489V5.9989C15.75 5.79999 15.6709 5.60922 15.5303 5.46857C15.3896 5.32792 15.1989 5.2489 15 5.2489H1.49995C1.30103 5.2489 1.11027 5.32792 0.969617 5.46857C0.828964 5.60922 0.749947 5.79999 0.749947 5.9989V17.9989C0.749947 18.1978 0.828964 18.3886 0.969617 18.5292C1.11027 18.6699 1.30103 18.7489 1.49995 18.7489H15C15.1989 18.7489 15.3896 18.6699 15.5303 18.5292C15.6709 18.3886 15.75 18.1978 15.75 17.9989V14.2489L23.25 18.7489V5.2489L15.75 9.7489Z" fill="#666666"/>
</g>
<defs>
<clipPath id="clip0_32_3712">
<rect width="24" height="24" fill="white" transform="translate(-0.00012207 -0.00390625)"/>
</clipPath>
</defs>
</svg>
