<svg width="24" height="24" viewBox="0 0 24 24" fill="none" xmlns="http://www.w3.org/2000/svg">
<path d="M16.5 14.9976C16.9566 14.0878 17.25 13.0847 17.25 11.9976C17.25 10.8956 16.9687 9.91637 16.5 8.99762M18.75 17.2476C19.6631 15.6539 20.25 14.2476 20.25 11.9976C20.25 9.74762 19.6875 8.35544 18.75 6.74762M7.38984 8.99762H4.12499C4.02554 8.99762 3.93015 9.03713 3.85983 9.10746C3.7895 9.17778 3.74999 9.27317 3.74999 9.37262V14.6226C3.74999 14.7221 3.7895 14.8175 3.85983 14.8878C3.93015 14.9581 4.02554 14.9976 4.12499 14.9976H7.38984C7.56318 14.9977 7.73114 15.0578 7.86515 15.1678L12.1528 18.6834C12.2087 18.7245 12.2749 18.7493 12.3441 18.755C12.4133 18.7608 12.4827 18.7472 12.5446 18.7158C12.6065 18.6844 12.6585 18.6364 12.6947 18.5773C12.731 18.5181 12.7501 18.45 12.75 18.3806V5.61465C12.75 5.54533 12.7307 5.47737 12.6944 5.41833C12.658 5.35929 12.606 5.31147 12.5442 5.2802C12.4823 5.24892 12.413 5.23541 12.3439 5.24116C12.2748 5.24691 12.2087 5.2717 12.1528 5.31278L7.86515 8.82841C7.73101 8.93801 7.56306 8.9978 7.38984 8.99762Z" stroke="#666666" stroke-width="1.5" stroke-linecap="round" stroke-linejoin="round"/>
</svg>
