<svg width="24" height="24" viewBox="0 0 24 24" fill="none" xmlns="http://www.w3.org/2000/svg">
<path d="M19.5 20.2489L2.99995 3.7489" stroke="#666666" stroke-width="1.5" stroke-miterlimit="10" stroke-linecap="round"/>
<path d="M10.5 6.41549V7.99986C10.5001 8.04944 10.5198 8.09697 10.5549 8.13205L11.6799 9.25705C11.7061 9.28328 11.7395 9.30115 11.7758 9.30841C11.8122 9.31567 11.8498 9.312 11.8841 9.29785C11.9184 9.28371 11.9477 9.25972 11.9683 9.22893C11.9889 9.19814 12 9.16193 12 9.12486V5.64908C12.0021 5.44158 11.948 5.23738 11.8435 5.05813C11.7389 4.87889 11.5878 4.73128 11.4061 4.63096C11.2189 4.53019 11.0069 4.48475 10.7948 4.49993C10.5828 4.51512 10.3794 4.59032 10.2085 4.71674C10.1978 4.72418 10.1874 4.73216 10.1775 4.74064L8.68035 5.96643C8.66013 5.98303 8.6436 6.00369 8.63184 6.02707C8.62008 6.05044 8.61334 6.07603 8.61206 6.10216C8.61078 6.1283 8.61498 6.15442 8.6244 6.17883C8.63382 6.20325 8.64825 6.22542 8.66676 6.24393L9.46598 7.04361C9.49892 7.07655 9.54295 7.09605 9.58948 7.0983C9.63602 7.10056 9.68172 7.08541 9.7177 7.0558L10.5 6.41549ZM10.5 17.5792L6.84051 14.583C6.57184 14.3648 6.23599 14.2462 5.88988 14.2474H3.00004V9.74736H5.37754C5.4146 9.7473 5.45082 9.73625 5.48161 9.71562C5.5124 9.69498 5.53638 9.66568 5.55053 9.63142C5.56467 9.59716 5.56835 9.55948 5.56108 9.52313C5.55382 9.48678 5.53595 9.4534 5.50973 9.42721L4.38473 8.30221C4.34965 8.26717 4.30212 8.24745 4.25254 8.24736H2.62504C2.32667 8.24736 2.04052 8.36589 1.82954 8.57687C1.61856 8.78785 1.50004 9.074 1.50004 9.37236V14.6224C1.50004 14.9207 1.61856 15.2069 1.82954 15.4179C2.04052 15.6288 2.32667 15.7474 2.62504 15.7474H5.89504L10.1775 19.2536C10.1874 19.2621 10.1978 19.2701 10.2085 19.2775C10.3815 19.4056 10.5878 19.4812 10.8027 19.4953C11.0176 19.5093 11.2319 19.4612 11.4202 19.3567C11.5982 19.2554 11.7458 19.1083 11.8477 18.9307C11.9497 18.753 12.0023 18.5514 12 18.3466V15.9949C12 15.9453 11.9802 15.8978 11.9452 15.8627L10.8202 14.7377C10.794 14.7115 10.7606 14.6936 10.7243 14.6863C10.6879 14.6791 10.6502 14.6827 10.616 14.6969C10.5817 14.711 10.5524 14.735 10.5318 14.7658C10.5111 14.7966 10.5001 14.8328 10.5 14.8699V17.5792ZM16.5 11.9974C16.5 10.8461 16.2277 9.75299 15.668 8.65658C15.5755 8.48315 15.4186 8.35296 15.2311 8.29402C15.0436 8.23508 14.8405 8.25211 14.6654 8.34143C14.4903 8.43075 14.3573 8.58524 14.295 8.77164C14.2326 8.95804 14.2459 9.16147 14.3321 9.33815C14.7816 10.2189 15 11.0889 15 11.9974C15 12.1224 14.9952 12.2494 14.9855 12.3785C14.9815 12.4322 14.9891 12.4863 15.0079 12.5368C15.0267 12.5874 15.0561 12.6333 15.0943 12.6714L16.0158 13.5935C16.0397 13.6174 16.0696 13.6345 16.1024 13.6429C16.1351 13.6512 16.1696 13.6506 16.202 13.641C16.2344 13.6314 16.2637 13.6132 16.2866 13.5883C16.3095 13.5634 16.3253 13.5328 16.3322 13.4997C16.4431 13.0066 16.4994 12.5028 16.5 11.9974ZM19.5 11.9974C19.5 9.59783 18.8869 8.06502 17.8979 6.36955C17.7963 6.20051 17.6322 6.07829 17.4412 6.02933C17.2501 5.98038 17.0475 6.00864 16.8771 6.10799C16.7068 6.20734 16.5824 6.36979 16.531 6.56017C16.4795 6.75055 16.5051 6.95353 16.6022 7.12518C17.4877 8.64299 18 9.9269 18 11.9974C18 13.1144 17.8458 14.0074 17.5608 14.8403C17.5379 14.9067 17.5341 14.9782 17.5499 15.0467C17.5656 15.1151 17.6003 15.1778 17.6499 15.2275L18.436 16.0131C18.4577 16.0349 18.4844 16.0511 18.5139 16.0601C18.5433 16.0691 18.5745 16.0707 18.6047 16.0649C18.6349 16.059 18.6632 16.0457 18.687 16.0263C18.7109 16.0069 18.7297 15.982 18.7416 15.9536C19.223 14.8042 19.5 13.5869 19.5 11.9974Z" fill="#666666"/>
<path d="M22.5 11.9995C22.5 8.51853 21.5536 6.32243 20.1324 4.09587C20.0253 3.92804 19.856 3.8096 19.6616 3.76661C19.4673 3.72363 19.2638 3.75961 19.096 3.86665C18.9281 3.97369 18.8097 4.14302 18.7667 4.33738C18.7237 4.53175 18.7597 4.73523 18.8668 4.90306C20.1478 6.9079 21 8.88228 21 11.9995C21 14.2237 20.5828 15.8488 19.8943 17.2963C19.8775 17.3313 19.872 17.3705 19.8784 17.4087C19.8849 17.4469 19.903 17.4822 19.9303 17.5096L20.7657 18.3459C20.7865 18.3669 20.8121 18.3827 20.8403 18.3919C20.8684 18.4011 20.8983 18.4035 20.9276 18.399C20.9569 18.3944 20.9847 18.383 21.0087 18.3656C21.0326 18.3482 21.0522 18.3254 21.0657 18.299C22.0725 16.3223 22.5 14.3901 22.5 11.9995Z" fill="#666666"/>
</svg>
