<svg width="24" height="24" viewBox="0 0 24 24" fill="none" xmlns="http://www.w3.org/2000/svg">
<path d="M18.0002 14.9976C18.4567 14.0878 18.7502 13.0847 18.7502 11.9976C18.7502 10.8956 18.4689 9.91637 18.0002 8.99762M8.88999 8.99762H5.62515C5.52569 8.99762 5.43031 9.03713 5.35998 9.10746C5.28966 9.17778 5.25015 9.27317 5.25015 9.37262V14.6226C5.25015 14.7221 5.28966 14.8175 5.35998 14.8878C5.43031 14.9581 5.52569 14.9976 5.62515 14.9976H8.88999C9.06333 14.9977 9.23129 15.0578 9.36531 15.1678L13.653 18.6834C13.7089 18.7245 13.7751 18.7493 13.8443 18.755C13.9134 18.7608 13.9828 18.7472 14.0447 18.7158C14.1066 18.6844 14.1586 18.6364 14.1949 18.5773C14.2312 18.5181 14.2503 18.45 14.2502 18.3806V5.61465C14.2501 5.54533 14.2309 5.47737 14.1945 5.41833C14.1582 5.35929 14.1062 5.31147 14.0443 5.2802C13.9825 5.24892 13.9131 5.23541 13.844 5.24116C13.775 5.24691 13.7088 5.2717 13.653 5.31278L9.36531 8.82841C9.23116 8.93801 9.06322 8.9978 8.88999 8.99762V8.99762Z" stroke="#666666" stroke-width="1.5" stroke-linecap="round" stroke-linejoin="round"/>
</svg>
