<svg width="24" height="24" viewBox="0 0 24 24" fill="none" xmlns="http://www.w3.org/2000/svg">
<path d="M19.5001 20.2489L3.00008 3.7489" stroke="#666666" stroke-width="1.5" stroke-miterlimit="10" stroke-linecap="round"/>
<path d="M11.4061 4.63132C11.219 4.53038 11.007 4.48479 10.7949 4.4999C10.5828 4.51501 10.3794 4.59018 10.2085 4.71664L10.1775 4.74054L8.84065 5.83507C8.80009 5.86826 8.76694 5.90957 8.74333 5.95635C8.71971 6.00313 8.70617 6.05434 8.70356 6.10667C8.70096 6.15901 8.70935 6.21131 8.7282 6.2602C8.74705 6.3091 8.77593 6.3535 8.81299 6.39054L11.3597 8.93726C11.4122 8.98977 11.479 9.02553 11.5518 9.04002C11.6246 9.05452 11.7 9.04709 11.7686 9.01868C11.8371 8.99028 11.8957 8.94217 11.9369 8.88044C11.9781 8.81872 12.0001 8.74616 12 8.67195V5.64898C12.0021 5.44154 11.948 5.23739 11.8435 5.05822C11.7389 4.87905 11.5878 4.73153 11.4061 4.63132ZM11.7811 15.714L4.53237 8.46711C4.39179 8.32643 4.20109 8.24736 4.00221 8.24726H2.62502C2.32665 8.24726 2.04051 8.36579 1.82953 8.57677C1.61855 8.78775 1.50002 9.07389 1.50002 9.37226V14.6223C1.50002 14.9206 1.61855 15.2068 1.82953 15.4178C2.04051 15.6287 2.32665 15.7473 2.62502 15.7473H5.89502L10.2075 19.2774C10.3806 19.4059 10.5871 19.4817 10.8022 19.4957C11.0173 19.5098 11.2319 19.4615 11.4202 19.3566C11.5981 19.2552 11.7457 19.1081 11.8476 18.9305C11.9495 18.7529 12.0022 18.5513 12 18.3465V16.2437C12.0001 16.0451 11.9213 15.8546 11.7811 15.714ZM16.5 11.9973C16.5 10.846 16.2277 9.75336 15.668 8.65648C15.6236 8.56807 15.5622 8.48932 15.4872 8.42475C15.4123 8.36018 15.3253 8.31108 15.2313 8.28026C15.1373 8.24945 15.0382 8.23753 14.9395 8.24521C14.8409 8.25288 14.7448 8.27998 14.6567 8.32496C14.5686 8.36994 14.4902 8.43191 14.4262 8.50729C14.3621 8.58267 14.3136 8.66998 14.2834 8.76418C14.2533 8.85839 14.242 8.95764 14.2504 9.0562C14.2587 9.15477 14.2865 9.25072 14.3321 9.33851C14.7816 10.2188 15 11.0888 15 11.9973C15 12.1223 14.9952 12.2493 14.9855 12.3784C14.9815 12.4321 14.9891 12.4862 15.0079 12.5367C15.0267 12.5873 15.0561 12.6332 15.0942 12.6713L15.7674 13.3444C15.816 13.3932 15.8771 13.4276 15.944 13.4439C16.0108 13.4602 16.0809 13.4578 16.1465 13.4369C16.2121 13.4161 16.2707 13.3776 16.3158 13.3256C16.361 13.2737 16.391 13.2103 16.4025 13.1424C16.4671 12.7641 16.4997 12.381 16.5 11.9973ZM19.5 11.9973C19.5 9.5982 18.8869 8.06492 17.8978 6.36945C17.7963 6.20041 17.6322 6.07819 17.4412 6.02923C17.2501 5.98028 17.0475 6.00854 16.8771 6.10789C16.7068 6.20724 16.5824 6.36969 16.531 6.56007C16.4795 6.75045 16.5051 6.95343 16.6022 7.12508C17.4877 8.64289 18 9.92679 18 11.9973C18 13.1143 17.8458 14.0073 17.5608 14.8402C17.5379 14.9066 17.5341 14.9781 17.5498 15.0466C17.5656 15.115 17.6003 15.1777 17.6499 15.2274L18.2344 15.8129C18.2786 15.8571 18.3331 15.8896 18.3931 15.9074C18.453 15.9252 18.5165 15.9277 18.5777 15.9147C18.6388 15.9017 18.6958 15.8736 18.7433 15.833C18.7909 15.7924 18.8275 15.7405 18.8499 15.6821C19.2656 14.611 19.5 13.4626 19.5 11.9973Z" fill="#666666"/>
<path d="M22.5 11.9995C22.5 8.519 21.5536 6.32243 20.1324 4.09587C20.0253 3.92804 19.856 3.8096 19.6616 3.76661C19.4673 3.72363 19.2638 3.75961 19.096 3.86665C18.9281 3.97369 18.8097 4.14302 18.7667 4.33738C18.7237 4.53175 18.7597 4.73523 18.8667 4.90306C20.1478 6.9079 21 8.88228 21 11.9995C21 14.1646 20.6049 15.7621 19.9486 17.1806C19.9165 17.2501 19.9064 17.3278 19.9197 17.4032C19.933 17.4786 19.9691 17.5481 20.0231 17.6024L20.5819 18.1612C20.6241 18.2041 20.6761 18.2362 20.7334 18.2549C20.7907 18.2735 20.8516 18.278 20.911 18.268C20.9704 18.2581 21.0266 18.234 21.0747 18.1978C21.1228 18.1616 21.1615 18.1143 21.1875 18.0599C22.1063 16.1667 22.5 14.2963 22.5 11.9995Z" fill="#666666"/>
</svg>
