<svg width="24" height="24" viewBox="0 0 24 24" fill="none" xmlns="http://www.w3.org/2000/svg">
<path d="M11.1399 8.9986H7.87503C7.77557 8.9986 7.68019 9.03811 7.60987 9.10844C7.53954 9.17876 7.50003 9.27414 7.50003 9.3736V14.6236C7.50003 14.7231 7.53954 14.8184 7.60987 14.8888C7.68019 14.9591 7.77557 14.9986 7.87503 14.9986H11.1399C11.3132 14.9987 11.4812 15.0588 11.6152 15.1688L15.9028 18.6844C15.9588 18.7255 16.025 18.7503 16.0942 18.756C16.1633 18.7617 16.2327 18.7481 16.2946 18.7168C16.3565 18.6854 16.4085 18.6374 16.4448 18.5782C16.481 18.5191 16.5002 18.451 16.5 18.3816V5.61563C16.5 5.5463 16.4807 5.47835 16.4444 5.4193C16.4081 5.36026 16.3561 5.31245 16.2942 5.28117C16.2323 5.2499 16.163 5.23639 16.0939 5.24214C16.0248 5.24789 15.9587 5.27268 15.9028 5.31376L11.6152 8.82938C11.481 8.93899 11.3131 8.99878 11.1399 8.9986V8.9986Z" stroke="#666666" stroke-width="1.5" stroke-linecap="round" stroke-linejoin="round"/>
</svg>
