<svg width="24" height="24" viewBox="0 0 24 24" fill="none" xmlns="http://www.w3.org/2000/svg">
<path d="M15 14.9962C15.4566 14.0878 15.75 13.0818 15.75 11.9962C15.75 10.8956 15.4687 9.91403 15 8.99622M17.25 17.2462C18.1631 15.6562 18.75 14.2434 18.75 11.9962C18.75 9.74903 18.1875 8.35215 17.25 6.74622M19.5 19.4962C20.9062 17.34 21.75 15.2104 21.75 11.9962C21.75 8.782 20.9062 6.69934 19.5 4.49622M5.90624 8.99622H2.62499C2.52553 8.99622 2.43015 9.03573 2.35982 9.10605C2.2895 9.17638 2.24999 9.27176 2.24999 9.37122V14.6212C2.24999 14.7207 2.2895 14.8161 2.35982 14.8864C2.43015 14.9567 2.52553 14.9962 2.62499 14.9962H5.88983C6.0627 14.9948 6.23069 15.0535 6.36514 15.1622L10.6528 18.6726C10.7086 18.7137 10.7747 18.7385 10.8438 18.7442C10.9128 18.75 10.9821 18.7365 11.044 18.7053C11.1058 18.6741 11.1578 18.6264 11.1942 18.5674C11.2305 18.5084 11.2499 18.4405 11.25 18.3712V5.62122C11.2499 5.55193 11.2305 5.48403 11.1942 5.42506C11.1578 5.36608 11.1058 5.31834 11.044 5.28712C10.9821 5.2559 10.9128 5.24243 10.8438 5.2482C10.7747 5.25397 10.7086 5.27876 10.6528 5.31981L6.36514 8.83028C6.23689 8.9386 6.07411 8.99746 5.90624 8.99622Z" stroke="#666666" stroke-width="1.5" stroke-linecap="round" stroke-linejoin="round"/>
</svg>
