<svg width="24" height="24" viewBox="0 0 24 24" fill="none" xmlns="http://www.w3.org/2000/svg">
<path d="M19.5 20.2489L3.00002 3.7489" stroke="#666666" stroke-width="1.5" stroke-miterlimit="10" stroke-linecap="square"/>
<path d="M16.5 11.9986C16.5 10.8474 16.2277 9.75427 15.668 8.65787L15.3282 7.98943L13.9913 8.67052L14.3321 9.33849C14.7816 10.2202 15 11.0902 15 11.9986C14.9997 12.1825 14.9899 12.3662 14.9705 12.549L16.2511 13.8296C16.4149 13.233 16.4986 12.6173 16.5 11.9986ZM19.5 11.9986C19.5 9.59912 18.8869 8.0663 17.8978 6.37084L17.52 5.72302L16.2244 6.47865L16.6022 7.12646C17.4877 8.64427 18 9.92818 18 11.9986C18 13.2141 17.8177 14.1647 17.4844 15.061L18.6328 16.2099C19.1808 14.9837 19.5 13.7058 19.5 11.9986Z" fill="#666666"/>
<path d="M22.5 11.9999C22.5 8.51894 21.5536 6.32285 20.1323 4.09628L19.7287 3.46394L18.4631 4.27113L18.8667 4.90347C20.1478 6.90832 21 8.88269 21 11.9999C21 14.2855 20.5593 15.9374 19.8365 17.4163L20.9475 18.5272C22.0387 16.4713 22.5 14.4843 22.5 11.9999ZM12 3.37488L8.54996 6.13019L12 9.57972V3.37488ZM1.49996 8.25457V15.7452H5.88981L12 20.6249V15.92L4.33449 8.25457H1.49996Z" fill="#666666"/>
</svg>
