<svg width="24" height="24" viewBox="0 0 24 24" fill="none" xmlns="http://www.w3.org/2000/svg">
<path d="M13.8751 19.5092C13.6353 19.5091 13.4018 19.432 13.209 19.2894L13.1781 19.2655L8.89089 15.7498H5.62511C5.32674 15.7498 5.04059 15.6313 4.82961 15.4203C4.61863 15.2094 4.50011 14.9232 4.50011 14.6248V9.37531C4.50011 9.07694 4.61863 8.79079 4.82961 8.57982C5.04059 8.36884 5.32674 8.25031 5.62511 8.25031H8.88995L13.1771 4.73468L13.2081 4.71078C13.3757 4.58737 13.5742 4.51288 13.7817 4.49559C13.9891 4.4783 14.1972 4.51889 14.3829 4.61284C14.5687 4.7068 14.7247 4.85043 14.8336 5.02777C14.9426 5.20511 15.0002 5.4092 15.0001 5.61734V18.3833C15.0001 18.6817 14.8816 18.9678 14.6706 19.1788C14.4596 19.3898 14.1735 19.5083 13.8751 19.5083V19.5092ZM18.0001 15.7503C17.8722 15.7502 17.7464 15.7175 17.6347 15.6551C17.5231 15.5927 17.4292 15.5028 17.3621 15.3939C17.2949 15.285 17.2568 15.1608 17.2512 15.033C17.2457 14.9052 17.2729 14.7781 17.3303 14.6637C17.7751 13.7778 18.0006 12.8825 18.0006 12.0003C18.0006 11.0928 17.7821 10.2228 17.3326 9.34109C17.2465 9.16441 17.2332 8.96099 17.2955 8.77459C17.3578 8.58818 17.4909 8.4337 17.6659 8.34438C17.841 8.25505 18.0442 8.23803 18.2317 8.29697C18.4192 8.35591 18.5761 8.4861 18.6685 8.65953C19.2282 9.75781 19.5001 10.8505 19.5001 12.0003C19.5001 13.1173 19.2189 14.24 18.6704 15.3369C18.608 15.4612 18.5123 15.5656 18.3939 15.6387C18.2755 15.7117 18.1392 15.7503 18.0001 15.7503Z" fill="#666666"/>
</svg>
