<svg width="24" height="24" viewBox="0 0 24 24" fill="none" xmlns="http://www.w3.org/2000/svg">
<path d="M10.8749 19.5001C10.6353 19.5001 10.402 19.4232 10.2093 19.2807C10.1986 19.2733 10.1883 19.2653 10.1784 19.2568L5.89495 15.7501H2.62494C2.32658 15.7501 2.04043 15.6316 1.82945 15.4206C1.61847 15.2096 1.49994 14.9235 1.49994 14.6251V9.37509C1.49994 9.07672 1.61847 8.79058 1.82945 8.5796C2.04043 8.36862 2.32658 8.25009 2.62494 8.25009H5.89448L10.1774 4.74337C10.1874 4.73489 10.1977 4.72691 10.2084 4.71947C10.3759 4.59624 10.5743 4.52187 10.7816 4.50461C10.9889 4.48736 11.1969 4.52789 11.3825 4.62172C11.5681 4.71554 11.7241 4.85899 11.8331 5.03611C11.9421 5.21324 11.9998 5.41711 11.9999 5.62509V18.3751C11.9999 18.6735 11.8814 18.9596 11.6704 19.1706C11.4595 19.3816 11.1733 19.5001 10.8749 19.5001ZM14.9999 15.7501C14.872 15.7501 14.7461 15.7173 14.6344 15.6549C14.5227 15.5925 14.4287 15.5025 14.3616 15.3935C14.2945 15.2846 14.2563 15.1603 14.2508 15.0324C14.2453 14.9045 14.2726 14.7774 14.3301 14.6631C14.7749 13.7785 15.0004 12.8818 15.0004 12.0001C15.0004 11.0917 14.782 10.2217 14.3324 9.34087C14.2463 9.1642 14.233 8.96077 14.2953 8.77437C14.3577 8.58796 14.4907 8.43348 14.6658 8.34416C14.8409 8.25483 15.044 8.23781 15.2315 8.29675C15.419 8.35569 15.5759 8.48588 15.6684 8.65931C16.2276 9.75572 16.4999 10.8488 16.4999 12.0001C16.4999 13.1185 16.2187 14.2412 15.6703 15.3371C15.6078 15.4613 15.512 15.5657 15.3936 15.6386C15.2753 15.7116 15.139 15.7501 14.9999 15.7501Z" fill="#666666"/>
<path d="M17.25 17.9976C17.1183 17.9976 16.989 17.963 16.8749 17.8972C16.7609 17.8314 16.6662 17.7367 16.6003 17.6227C16.5345 17.5087 16.4998 17.3793 16.4998 17.2477C16.4998 17.116 16.5345 16.9866 16.6003 16.8726C17.4867 15.33 18 14.0371 18 11.9976C18 9.92714 17.4876 8.64324 16.6022 7.12542C16.5051 6.95378 16.4795 6.7508 16.5309 6.56042C16.5824 6.37004 16.7067 6.20759 16.8771 6.10824C17.0474 6.00888 17.2501 5.98063 17.4411 6.02958C17.6321 6.07854 17.7962 6.20076 17.8978 6.3698C18.8869 8.06527 19.5 9.59808 19.5 11.9976C19.5 14.3615 18.8878 15.9018 17.9001 17.6226C17.8343 17.7367 17.7395 17.8315 17.6253 17.8973C17.5112 17.9631 17.3817 17.9977 17.25 17.9976Z" fill="#666666"/>
<path d="M19.5 20.2486C19.3649 20.2485 19.2324 20.2119 19.1164 20.1428C19.0004 20.0736 18.9052 19.9744 18.841 19.8556C18.7767 19.7368 18.7456 19.6029 18.7512 19.4679C18.7567 19.333 18.7985 19.2021 18.8723 19.0889C20.1492 17.13 21 15.1749 21 11.9986C21 8.88142 20.1478 6.90704 18.8676 4.9022C18.8146 4.8191 18.7785 4.72637 18.7614 4.62931C18.7442 4.53225 18.7463 4.43276 18.7676 4.33652C18.7889 4.24029 18.8289 4.14918 18.8854 4.06841C18.9419 3.98764 19.0138 3.91879 19.0969 3.86579C19.18 3.81279 19.2727 3.77668 19.3697 3.75952C19.4668 3.74235 19.5663 3.74447 19.6625 3.76576C19.7588 3.78704 19.8499 3.82707 19.9306 3.88357C20.0114 3.94006 20.0803 4.01191 20.1333 4.09501C21.5536 6.32158 22.5 8.51767 22.5 11.9986C22.5 15.0338 21.8128 17.325 20.1281 19.9083C20.06 20.0128 19.9668 20.0986 19.8572 20.158C19.7475 20.2175 19.6247 20.2486 19.5 20.2486Z" fill="#666666"/>
</svg>
