<svg width="24" height="24" viewBox="0 0 24 24" fill="none" xmlns="http://www.w3.org/2000/svg">
<path d="M16.125 19.4977C15.8852 19.4976 15.6517 19.4205 15.4589 19.2779C15.4481 19.2704 15.4383 19.2624 15.428 19.254L11.1408 15.743H7.87498C7.57662 15.743 7.29047 15.6245 7.07949 15.4135C6.86851 15.2025 6.74998 14.9164 6.74998 14.618V9.37599C6.74998 9.07763 6.86851 8.79148 7.07949 8.5805C7.29047 8.36952 7.57662 8.25099 7.87498 8.25099H11.1398L15.427 4.74006C15.4373 4.73162 15.4472 4.72365 15.458 4.71615C15.6256 4.59274 15.8241 4.51825 16.0315 4.50096C16.2389 4.48367 16.4471 4.52426 16.6328 4.61821C16.8185 4.71217 16.9746 4.85581 17.0835 5.03315C17.1925 5.21049 17.2501 5.41457 17.25 5.62271V18.3727C17.25 18.6711 17.1315 18.9572 16.9205 19.1682C16.7095 19.3792 16.4234 19.4977 16.125 19.4977Z" fill="#666666"/>
</svg>
