<svg width="24" height="24" viewBox="0 0 24 24" fill="none" xmlns="http://www.w3.org/2000/svg">
<path d="M12.375 19.5057C12.1352 19.5055 11.9018 19.4285 11.7089 19.2858L11.678 19.2619L7.39082 15.7463H4.12504C3.82667 15.7463 3.54052 15.6278 3.32954 15.4168C3.11856 15.2058 3.00004 14.9197 3.00004 14.6213V9.37177C3.00004 9.0734 3.11856 8.78725 3.32954 8.57628C3.54052 8.3653 3.82667 8.24677 4.12504 8.24677H7.38988L11.6771 4.73114L11.708 4.70724C11.8756 4.58383 12.0742 4.50934 12.2816 4.49205C12.489 4.47476 12.6972 4.51535 12.8829 4.6093C13.0686 4.70326 13.2246 4.84689 13.3336 5.02423C13.4425 5.20157 13.5002 5.40566 13.5 5.6138V18.3797C13.5 18.6781 13.3815 18.9643 13.1705 19.1752C12.9596 19.3862 12.6734 19.5047 12.375 19.5047V19.5057ZM16.5 15.7468C16.3721 15.7467 16.2463 15.7139 16.1347 15.6515C16.023 15.5892 15.9291 15.4992 15.862 15.3904C15.7949 15.2815 15.7567 15.1572 15.7512 15.0294C15.7456 14.9016 15.7728 14.7745 15.8302 14.6602C16.275 13.7743 16.5005 12.879 16.5005 11.9968C16.5005 11.0893 16.2821 10.2193 15.8325 9.33755C15.7464 9.16087 15.7331 8.95745 15.7954 8.77105C15.8578 8.58464 15.9908 8.43016 16.1659 8.34084C16.341 8.25151 16.5441 8.23449 16.7316 8.29343C16.9191 8.35237 17.076 8.48256 17.1685 8.65599C17.7282 9.75427 18 10.8469 18 11.9968C18 13.1138 17.7188 14.2365 17.1704 15.3333C17.1079 15.4576 17.0122 15.5621 16.8938 15.6351C16.7755 15.7081 16.6391 15.7468 16.5 15.7468Z" fill="#666666"/>
<path d="M18.75 17.996C18.6183 17.9961 18.4889 17.9616 18.3748 17.8958C18.2606 17.83 18.1659 17.7353 18.1 17.6213C18.0341 17.5073 17.9994 17.3779 17.9993 17.2462C17.9993 17.1145 18.034 16.9851 18.0998 16.871C18.9843 15.3265 19.5 14.0328 19.5 11.996C19.5 9.92791 18.9872 8.64353 18.1017 7.12337C18.0103 6.95197 17.989 6.75179 18.0422 6.56498C18.0954 6.37817 18.2191 6.2193 18.3871 6.12181C18.5551 6.02432 18.7544 5.99582 18.943 6.0423C19.1316 6.08879 19.2948 6.20663 19.3983 6.37103C20.3868 8.06603 21 9.59978 21 11.996C21 14.3567 20.3878 15.8979 19.4006 17.621C19.3347 17.7352 19.2398 17.83 19.1256 17.8958C19.0114 17.9617 18.8818 17.9962 18.75 17.996Z" fill="#666666"/>
</svg>
