<svg width="24" height="24" viewBox="0 0 24 24" fill="none" xmlns="http://www.w3.org/2000/svg">
<path d="M14.6508 22.4958L12.0062 17.1521L9.9146 14.4802C9.60514 13.9564 9.44227 13.3589 9.44303 12.7505V6.73364H10.1719C10.6692 6.73364 11.1461 6.93119 11.4978 7.28282C11.8494 7.63445 12.0469 8.11136 12.0469 8.60864V17.1497" fill="#666666"/>
<path d="M14.6508 22.4958L12.0062 17.1521L9.9146 14.4802C9.60514 13.9564 9.44227 13.3589 9.44303 12.7505V6.73364H10.1719C10.6692 6.73364 11.1461 6.93119 11.4978 7.28282C11.8494 7.63445 12.0469 8.11136 12.0469 8.60864V17.1497" stroke="#666666" stroke-width="1.5" stroke-linecap="round" stroke-linejoin="round"/>
<path d="M5.97093 13.6777V10.2057C5.97093 10.2057 7.70531 6.73364 9.44296 6.73364" stroke="#666666" stroke-width="1.5" stroke-linecap="round" stroke-linejoin="round"/>
<path d="M17.2543 13.674C17.0831 13.6739 16.9157 13.6232 16.7733 13.5282L13.9547 11.7155C13.8153 11.6256 13.7006 11.5022 13.6212 11.3565C13.5418 11.2108 13.5001 11.0476 13.5 10.8816V9.77069C13.5 9.72317 13.5127 9.67651 13.5369 9.6356C13.561 9.59469 13.5958 9.56104 13.6374 9.53817C13.6791 9.5153 13.7261 9.50407 13.7736 9.50564C13.8211 9.50721 13.8673 9.52153 13.9074 9.5471L17.7347 12.0835C17.8898 12.1869 18.0075 12.3375 18.0704 12.5129C18.1333 12.6884 18.1381 12.8794 18.084 13.0578C18.0299 13.2362 17.9198 13.3924 17.77 13.5034C17.6203 13.6143 17.4388 13.6742 17.2524 13.674H17.2543ZM8.05831 23.1282C7.92341 23.1284 7.79033 23.097 7.66965 23.0367C7.54897 22.9764 7.44402 22.8888 7.36315 22.7808C7.07534 22.3974 7.17565 21.9755 7.53659 21.5659L10.3467 18.0662C10.3854 18.0372 10.4297 18.0166 10.4768 18.0057C10.5239 17.9949 10.5728 17.994 10.6203 18.003C10.6677 18.0121 10.7128 18.031 10.7525 18.0585C10.7923 18.086 10.8259 18.1215 10.8511 18.1627C10.9242 18.2818 11.0096 18.4276 11.0944 18.5888C11.34 19.0552 11.3757 19.344 11.0157 19.7935C10.6407 20.2623 8.57815 22.9548 8.57815 22.9548C8.45534 23.0944 8.23925 23.1282 8.05831 23.1282Z" fill="#666666"/>
<path d="M12.0468 4.99582C13.0057 4.99582 13.783 4.21847 13.783 3.25957C13.783 2.30066 13.0057 1.52332 12.0468 1.52332C11.0879 1.52332 10.3105 2.30066 10.3105 3.25957C10.3105 4.21847 11.0879 4.99582 12.0468 4.99582Z" fill="#666666" stroke="#666666" stroke-width="0.75" stroke-linecap="round" stroke-linejoin="round"/>
</svg>
