<svg width="24" height="24" viewBox="0 0 24 24" fill="none" xmlns="http://www.w3.org/2000/svg">
<path d="M14.7699 22.5646L12.1004 17.1683L9.99098 14.4702C9.67927 13.9424 9.51481 13.3408 9.51472 12.7278V6.65613H10.2521C10.7529 6.657 11.233 6.85644 11.587 7.21074C11.9411 7.56504 12.1402 8.04526 12.1407 8.54613V16.1643" fill="#666666"/>
<path d="M14.7699 22.5646L12.1004 17.1683L9.99098 14.4702C9.67927 13.9424 9.51481 13.3408 9.51472 12.7278V6.65613H10.2521C10.7529 6.657 11.233 6.85644 11.587 7.21074C11.9411 7.56504 12.1402 8.04526 12.1407 8.54613V16.1643" stroke="#666666" stroke-width="1.5" stroke-linecap="square" stroke-linejoin="round"/>
<path d="M6.00853 13.6632V10.1584L9.05306 7.10681" stroke="#666666" stroke-width="1.5" stroke-linecap="square" stroke-linejoin="round"/>
<path d="M17.6415 13.8586L13.7063 11.2158V9.12146L18.6132 12.541L17.6415 13.8586ZM8.2093 23.3672L7.20477 22.1058L10.9702 18.2836L11.6982 19.7869L8.2093 23.3672Z" fill="#666666"/>
<path d="M12.1416 4.90049C13.1093 4.90049 13.8938 4.11601 13.8938 3.14831C13.8938 2.1806 13.1093 1.39612 12.1416 1.39612C11.1739 1.39612 10.3894 2.1806 10.3894 3.14831C10.3894 4.11601 11.1739 4.90049 12.1416 4.90049Z" fill="#666666" stroke="#666666" stroke-width="0.75" stroke-linecap="square" stroke-linejoin="round"/>
</svg>
