<svg width="24" height="24" viewBox="0 0 24 24" fill="none" xmlns="http://www.w3.org/2000/svg">
<path d="M9.48849 6.74622V12.7997C9.4885 13.4106 9.65248 14.0104 9.96334 14.5364L12.0676 17.2265L14.7287 22.605L12.1088 17.2265V8.63153C12.1088 8.38391 12.06 8.13871 11.9653 7.90994C11.8705 7.68117 11.7316 7.47332 11.5564 7.29825C11.3813 7.12317 11.1734 6.98431 10.9446 6.88959C10.7159 6.79487 10.4706 6.74615 10.223 6.74622H9.48849ZM9.48849 6.74622C7.74193 6.74622 5.99537 10.2398 5.99537 10.2398V13.7329M17.3485 12.8597L14.2501 10.8243M7.99365 22.4193L10.5001 18.7462" stroke="#666666" stroke-width="1.5" stroke-linecap="round" stroke-linejoin="round"/>
<path d="M12.1089 5.00191C13.0735 5.00191 13.8554 4.21995 13.8554 3.25535C13.8554 2.29075 13.0735 1.50879 12.1089 1.50879C11.1443 1.50879 10.3623 2.29075 10.3623 3.25535C10.3623 4.21995 11.1443 5.00191 12.1089 5.00191Z" stroke="#666666" stroke-width="1.5" stroke-linecap="round" stroke-linejoin="round"/>
</svg>
