<svg width="24" height="24" viewBox="0 0 24 24" fill="none" xmlns="http://www.w3.org/2000/svg">
<path d="M19.5 6.74707H4.50001C3.25737 6.74707 2.25001 7.75443 2.25001 8.99707V17.9971C2.25001 19.2397 3.25737 20.2471 4.50001 20.2471H19.5C20.7426 20.2471 21.75 19.2397 21.75 17.9971V8.99707C21.75 7.75443 20.7426 6.74707 19.5 6.74707Z" stroke="#666666" stroke-width="1.5" stroke-linejoin="round"/>
<path d="M19.2825 6.75083V5.34458C19.2824 4.99968 19.2062 4.65905 19.0593 4.347C18.9123 4.03495 18.6984 3.75918 18.4326 3.53934C18.1668 3.31951 17.8558 3.16105 17.5218 3.07525C17.1877 2.98946 16.8388 2.97845 16.5 3.04302L4.15501 5.15005C3.61891 5.25222 3.13527 5.53826 2.7875 5.95885C2.43973 6.37944 2.24964 6.90821 2.25001 7.45396V9.75083" stroke="#666666" stroke-width="1.5" stroke-linejoin="round"/>
<path d="M17.25 14.998C16.9533 14.998 16.6633 14.9101 16.4166 14.7453C16.1699 14.5804 15.9777 14.3462 15.8641 14.0721C15.7506 13.798 15.7209 13.4964 15.7788 13.2054C15.8367 12.9144 15.9795 12.6472 16.1893 12.4374C16.3991 12.2276 16.6663 12.0847 16.9573 12.0269C17.2483 11.969 17.5499 11.9987 17.824 12.1122C18.0981 12.2258 18.3323 12.418 18.4972 12.6647C18.662 12.9114 18.75 13.2014 18.75 13.498C18.75 13.8959 18.5919 14.2774 18.3106 14.5587C18.0293 14.84 17.6478 14.998 17.25 14.998Z" fill="#666666"/>
</svg>
