<svg width="24" height="24" viewBox="0 0 24 24" fill="none" xmlns="http://www.w3.org/2000/svg">
<path d="M2.22652 4.87302H20.25V2.41302C20.25 2.30204 20.2253 2.19244 20.1779 2.09213C20.1304 1.99182 20.0613 1.9033 19.9754 1.83294C19.8896 1.76259 19.7892 1.71215 19.6816 1.68528C19.5739 1.65841 19.4616 1.65577 19.3528 1.67755L2.10277 4.51255C1.97432 4.53812 1.8548 4.59688 1.75612 4.68298C1.65743 4.76909 1.58301 4.87953 1.54027 5.00333C1.75874 4.91696 1.99159 4.87274 2.22652 4.87302ZM21.7265 5.99802H2.22652C2.0276 5.99802 1.83684 6.07704 1.69619 6.21769C1.55553 6.35834 1.47652 6.54911 1.47652 6.74802V20.248C1.47652 20.4469 1.55553 20.6377 1.69619 20.7784C1.83684 20.919 2.0276 20.998 2.22652 20.998H21.7265C21.9254 20.998 22.1162 20.919 22.2568 20.7784C22.3975 20.6377 22.4765 20.4469 22.4765 20.248V6.74802C22.4765 6.54911 22.3975 6.35834 22.2568 6.21769C22.1162 6.07704 21.9254 5.99802 21.7265 5.99802ZM17.25 14.998C16.9533 14.998 16.6633 14.91 16.4166 14.7452C16.1699 14.5804 15.9777 14.3461 15.8641 14.072C15.7506 13.798 15.7209 13.4964 15.7788 13.2054C15.8367 12.9144 15.9795 12.6471 16.1893 12.4374C16.3991 12.2276 16.6663 12.0847 16.9573 12.0268C17.2483 11.969 17.5499 11.9987 17.824 12.1122C18.0981 12.2257 18.3323 12.418 18.4972 12.6647C18.662 12.9113 18.75 13.2013 18.75 13.498C18.75 13.8958 18.5919 14.2774 18.3106 14.5587C18.0293 14.84 17.6478 14.998 17.25 14.998Z" fill="#666666"/>
<path d="M1.46863 12.1639V5.43738C1.46863 4.85941 1.73675 4.57113 2.19144 4.49988C3.84144 4.24066 7.28113 4.10144 7.28113 4.10144C7.28113 4.10144 6.89066 4.85144 6.00004 4.85144V5.99988C6.86722 5.99988 7.46863 7.10144 7.46863 7.10144L3.97644 11.0624L1.46863 12.1639Z" fill="#666666"/>
</svg>
