<svg width="24" height="24" viewBox="0 0 24 24" fill="none" xmlns="http://www.w3.org/2000/svg">
<path d="M4.47658 4.87304H19.4766C19.6518 4.87296 19.8268 4.88408 20.0006 4.90632C19.9417 4.49278 19.7997 4.09545 19.5831 3.73829C19.3664 3.38113 19.0797 3.07153 18.7402 2.82817C18.4007 2.58481 18.0154 2.41272 17.6076 2.32228C17.1998 2.23184 16.7779 2.22493 16.3674 2.30195L4.03127 4.40804H4.01721C3.24287 4.55612 2.55427 4.99423 2.09205 5.63289C2.78842 5.13757 3.62202 4.87194 4.47658 4.87304ZM19.4766 5.99804H4.47658C3.6812 5.99891 2.91864 6.31526 2.35622 6.87768C1.7938 7.4401 1.47745 8.20266 1.47658 8.99804V17.998C1.47745 18.7934 1.7938 19.556 2.35622 20.1184C2.91864 20.6808 3.6812 20.9972 4.47658 20.998H19.4766C20.272 20.9972 21.0345 20.6808 21.5969 20.1184C22.1594 19.556 22.4757 18.7934 22.4766 17.998V8.99804C22.4757 8.20266 22.1594 7.4401 21.5969 6.87768C21.0345 6.31526 20.272 5.99891 19.4766 5.99804ZM17.25 14.998C16.9533 14.998 16.6633 14.9101 16.4167 14.7452C16.17 14.5804 15.9777 14.3462 15.8642 14.0721C15.7507 13.798 15.721 13.4964 15.7788 13.2054C15.8367 12.9144 15.9796 12.6472 16.1894 12.4374C16.3991 12.2276 16.6664 12.0847 16.9574 12.0269C17.2484 11.969 17.55 11.9987 17.824 12.1122C18.0981 12.2258 18.3324 12.418 18.4972 12.6647C18.662 12.9114 18.75 13.2014 18.75 13.498C18.75 13.8959 18.592 14.2774 18.3107 14.5587C18.0294 14.84 17.6478 14.998 17.25 14.998Z" fill="#666666"/>
<path d="M1.49996 12.1639V7.49988C1.49996 6.4841 2.06246 4.78113 4.01481 4.41222C5.67184 4.10144 7.31246 4.10144 7.31246 4.10144C7.31246 4.10144 8.39059 4.85144 7.49996 4.85144C6.60934 4.85144 6.63278 5.99988 7.49996 5.99988C8.36715 5.99988 7.49996 7.10144 7.49996 7.10144L4.00777 11.0624L1.49996 12.1639Z" fill="#666666"/>
</svg>
