<svg width="24" height="24" viewBox="0 0 24 24" fill="none" xmlns="http://www.w3.org/2000/svg">
<path d="M21.0503 18.7031L13.0614 3.86715C12.4951 2.81528 10.9867 2.81528 10.42 3.86715L2.43155 18.7031C2.30861 18.9314 2.24697 19.1878 2.25265 19.4471C2.25833 19.7063 2.33115 19.9597 2.46398 20.1825C2.59682 20.4052 2.78514 20.5897 3.01056 20.718C3.23598 20.8462 3.4908 20.9138 3.75015 20.9142H19.7294C19.9889 20.9142 20.244 20.8469 20.4698 20.7188C20.6955 20.5908 20.8842 20.4063 21.0173 20.1835C21.1504 19.9607 21.2234 19.7071 21.2292 19.4476C21.235 19.1882 21.1733 18.9316 21.0503 18.7031ZM11.7409 18.6173C11.5555 18.6173 11.3743 18.5623 11.2201 18.4593C11.0659 18.3563 10.9457 18.2099 10.8748 18.0386C10.8038 17.8673 10.7853 17.6788 10.8214 17.4969C10.8576 17.3151 10.9469 17.148 11.078 17.0169C11.2091 16.8858 11.3762 16.7965 11.558 16.7603C11.7399 16.7242 11.9284 16.7427 12.0997 16.8137C12.271 16.8846 12.4174 17.0048 12.5204 17.159C12.6234 17.3131 12.6784 17.4944 12.6784 17.6798C12.6784 17.9285 12.5797 18.1669 12.4038 18.3427C12.228 18.5185 11.9896 18.6173 11.7409 18.6173ZM12.7591 9.18841L12.49 14.9072C12.49 15.1061 12.411 15.2968 12.2703 15.4375C12.1297 15.5781 11.9389 15.6572 11.74 15.6572C11.5411 15.6572 11.3503 15.5781 11.2097 15.4375C11.069 15.2968 10.99 15.1061 10.99 14.9072L10.7209 9.19075C10.7149 9.05415 10.7364 8.91773 10.7842 8.78963C10.832 8.66152 10.9051 8.54435 10.9991 8.4451C11.0932 8.34584 11.2063 8.26654 11.3316 8.21192C11.457 8.1573 11.592 8.12847 11.7287 8.12715H11.7386C11.8762 8.12708 12.0125 8.1549 12.1391 8.20894C12.2657 8.26297 12.3801 8.34209 12.4753 8.44153C12.5704 8.54097 12.6445 8.65867 12.693 8.78752C12.7414 8.91636 12.7633 9.05369 12.7572 9.19122L12.7591 9.18841Z" fill="#666666"/>
</svg>
