<svg width="24" height="24" viewBox="0 0 24 24" fill="none" xmlns="http://www.w3.org/2000/svg">
<path d="M22.4531 20.9878L12.5826 2.65362C12.5505 2.59397 12.5029 2.54413 12.4447 2.50939C12.3866 2.47464 12.3201 2.4563 12.2524 2.4563C12.1846 2.4563 12.1182 2.47464 12.06 2.50939C12.0019 2.54413 11.9542 2.59397 11.9221 2.65362L2.04979 20.9878C2.01905 21.045 2.00366 21.1091 2.00513 21.174C2.0066 21.2389 2.02488 21.3023 2.05819 21.358C2.09149 21.4136 2.13867 21.4597 2.19512 21.4917C2.25158 21.5237 2.31537 21.5405 2.38026 21.5405H22.1249C22.1896 21.5401 22.2531 21.523 22.3093 21.4909C22.3654 21.4587 22.4122 21.4126 22.4453 21.3569C22.4783 21.3013 22.4964 21.2381 22.4977 21.1734C22.4991 21.1087 22.4837 21.0448 22.4531 20.9878ZM13.1896 19.2867H11.3146V17.4117H13.1896V19.2867ZM13.0021 16.2905H11.5021L11.2209 8.79049H13.2834L13.0021 16.2905Z" fill="#666666"/>
</svg>
