<svg width="24" height="24" viewBox="0 0 24 24" fill="none" xmlns="http://www.w3.org/2000/svg">
<path d="M4.01106 20.9142H19.9889C20.2484 20.9141 20.5034 20.8468 20.7291 20.7187C20.9548 20.5905 21.1434 20.4061 21.2764 20.1833C21.4095 19.9605 21.4825 19.707 21.4882 19.4475C21.494 19.1881 21.4324 18.9316 21.3093 18.7031L13.3209 3.86715C12.7542 2.81528 11.2458 2.81528 10.679 3.86715L2.69059 18.7031C2.56757 18.9316 2.50593 19.1881 2.5117 19.4475C2.51747 19.707 2.59045 19.9605 2.7235 20.1833C2.85656 20.4061 3.04514 20.5905 3.27082 20.7187C3.4965 20.8468 3.75156 20.9141 4.01106 20.9142V20.9142Z" stroke="#666666" stroke-width="1.5" stroke-linecap="round" stroke-linejoin="round"/>
<path d="M11.731 9.15795L12.0001 14.8767L12.2687 9.16029C12.2703 9.12375 12.2645 9.08725 12.2516 9.05303C12.2387 9.0188 12.2189 8.98758 12.1935 8.96125C12.1681 8.93493 12.1376 8.91406 12.1039 8.89993C12.0701 8.88579 12.0338 8.87868 11.9973 8.87904V8.87904C11.9613 8.87939 11.9258 8.88694 11.8928 8.90124C11.8599 8.91554 11.8301 8.9363 11.8053 8.9623C11.7805 8.9883 11.7611 9.01901 11.7483 9.05261C11.7356 9.08621 11.7297 9.12203 11.731 9.15795V9.15795Z" stroke="#666666" stroke-width="1.5" stroke-linecap="round" stroke-linejoin="round"/>
<path d="M12 18.6191C11.8146 18.6191 11.6333 18.5642 11.4792 18.4611C11.325 18.3581 11.2048 18.2117 11.1339 18.0404C11.0629 17.8691 11.0443 17.6806 11.0805 17.4987C11.1167 17.3169 11.206 17.1498 11.3371 17.0187C11.4682 16.8876 11.6352 16.7983 11.8171 16.7622C11.999 16.726 12.1875 16.7445 12.3588 16.8155C12.5301 16.8865 12.6765 17.0066 12.7795 17.1608C12.8825 17.315 12.9375 17.4962 12.9375 17.6816C12.9375 17.9303 12.8387 18.1687 12.6629 18.3446C12.4871 18.5204 12.2486 18.6191 12 18.6191Z" fill="#666666"/>
</svg>
