<svg width="24" height="24" viewBox="0 0 24 24" fill="none" xmlns="http://www.w3.org/2000/svg">
<path d="M17.25 6.37305H6.74996C6.54286 6.37305 6.37496 6.54094 6.37496 6.74805V17.248C6.37496 17.4552 6.54286 17.623 6.74996 17.623H17.25C17.4571 17.623 17.625 17.4552 17.625 17.248V6.74805C17.625 6.54094 17.4571 6.37305 17.25 6.37305Z" fill="#666666"/>
<path d="M18.0001 4.49805H15.7501V0.748047H8.25011V4.49805H6.00011C5.60228 4.49805 5.22075 4.65608 4.93945 4.93739C4.65814 5.21869 4.50011 5.60022 4.50011 5.99805V17.9981C4.50011 18.3959 4.65814 18.7774 4.93945 19.0587C5.22075 19.34 5.60228 19.4981 6.00011 19.4981H8.25011V23.2481H15.7501V19.4981H18.0001C18.3979 19.4981 18.7795 19.34 19.0608 19.0587C19.3421 18.7774 19.5001 18.3959 19.5001 17.9981V5.99805C19.5001 5.60022 19.3421 5.21869 19.0608 4.93739C18.7795 4.65608 18.3979 4.49805 18.0001 4.49805ZM18.3751 17.2481C18.3751 17.5464 18.2566 17.8326 18.0456 18.0435C17.8346 18.2545 17.5485 18.3731 17.2501 18.3731H6.75011C6.45174 18.3731 6.16559 18.2545 5.95461 18.0435C5.74363 17.8326 5.62511 17.5464 5.62511 17.2481V6.74805C5.62511 6.44968 5.74363 6.16353 5.95461 5.95255C6.16559 5.74157 6.45174 5.62305 6.75011 5.62305H17.2501C17.5485 5.62305 17.8346 5.74157 18.0456 5.95255C18.2566 6.16353 18.3751 6.44968 18.3751 6.74805V17.2481Z" fill="#666666"/>
</svg>
