<svg width="24" height="24" viewBox="0 0 24 24" fill="none" xmlns="http://www.w3.org/2000/svg">
<path d="M15.7501 5.24622H8.25007C6.59321 5.24622 5.25007 6.58936 5.25007 8.24622V15.7462C5.25007 17.4031 6.59321 18.7462 8.25007 18.7462H15.7501C17.4069 18.7462 18.7501 17.4031 18.7501 15.7462V8.24622C18.7501 6.58936 17.4069 5.24622 15.7501 5.24622Z" stroke="#666666" stroke-width="1.5" stroke-linejoin="round"/>
<path d="M15.75 18.7462V22.1212C15.75 22.2207 15.7105 22.3161 15.6402 22.3864C15.5699 22.4567 15.4745 22.4962 15.375 22.4962H8.62504C8.52559 22.4962 8.4302 22.4567 8.35988 22.3864C8.28955 22.3161 8.25004 22.2207 8.25004 22.1212V18.7462M8.25004 5.24622V1.87122C8.25004 1.77176 8.28955 1.67638 8.35988 1.60605C8.4302 1.53572 8.52559 1.49622 8.62504 1.49622H15.375C15.4745 1.49622 15.5699 1.53572 15.6402 1.60605C15.7105 1.67638 15.75 1.77176 15.75 1.87122V5.24622H8.25004Z" stroke="#666666" stroke-width="1.5" stroke-linejoin="round"/>
</svg>
