<svg width="24" height="24" viewBox="0 0 24 24" fill="none" xmlns="http://www.w3.org/2000/svg">
<path d="M15.0002 6.37305H9.00017C7.55042 6.37305 6.37517 7.5483 6.37517 8.99805V14.998C6.37517 16.4478 7.55042 17.623 9.00017 17.623H15.0002C16.4499 17.623 17.6252 16.4478 17.6252 14.998V8.99805C17.6252 7.5483 16.4499 6.37305 15.0002 6.37305Z" fill="#666666"/>
<path d="M15.75 4.49805V1.49805C15.75 1.29913 15.671 1.10837 15.5304 0.967717C15.3897 0.827064 15.1989 0.748047 15 0.748047H9.00002C8.80111 0.748047 8.61035 0.827064 8.46969 0.967717C8.32904 1.10837 8.25002 1.29913 8.25002 1.49805V4.49805C7.2558 4.49916 6.30263 4.89461 5.59961 5.59763C4.89659 6.30065 4.50114 7.25383 4.50002 8.24805V15.7481C4.50114 16.7423 4.89659 17.6954 5.59961 18.3985C6.30263 19.1015 7.2558 19.4969 8.25002 19.4981V22.4981C8.25002 22.697 8.32904 22.8877 8.46969 23.0284C8.61035 23.169 8.80111 23.2481 9.00002 23.2481H15C15.1989 23.2481 15.3897 23.169 15.5304 23.0284C15.671 22.8877 15.75 22.697 15.75 22.4981V19.4981C16.7442 19.4969 17.6974 19.1015 18.4004 18.3985C19.1035 17.6954 19.4989 16.7423 19.5 15.7481V8.24805C19.4989 7.25383 19.1035 6.30065 18.4004 5.59763C17.6974 4.89461 16.7442 4.49916 15.75 4.49805ZM18.375 14.9981C18.374 15.8929 18.0181 16.7507 17.3854 17.3834C16.7527 18.0162 15.8948 18.3721 15 18.3731H9.00002C8.10522 18.3721 7.24735 18.0162 6.61463 17.3834C5.98191 16.7507 5.62602 15.8929 5.62502 14.9981V8.99805C5.62602 8.10325 5.98191 7.24538 6.61463 6.61266C7.24735 5.97994 8.10522 5.62404 9.00002 5.62305H15C15.8948 5.62404 16.7527 5.97994 17.3854 6.61266C18.0181 7.24538 18.374 8.10325 18.375 8.99805V14.9981Z" fill="#666666"/>
</svg>
