<svg width="24" height="24" viewBox="0 0 24 24" fill="none" xmlns="http://www.w3.org/2000/svg">
<path d="M12.4275 2.81603C12.3747 2.75436 12.3092 2.70485 12.2354 2.67091C12.1617 2.63696 12.0815 2.61938 12.0003 2.61938C11.9191 2.61938 11.8389 2.63696 11.7651 2.67091C11.6913 2.70485 11.6258 2.75436 11.573 2.81603C10.0889 4.55181 5.25004 10.5527 5.25004 14.9979C5.25004 19.1403 7.85816 21.7479 12 21.7479C16.1419 21.7479 18.75 19.1403 18.75 14.9979C18.75 10.5527 13.9111 4.55181 12.4275 2.81603ZM12.75 19.3104C12.6599 19.3106 12.5711 19.2892 12.491 19.2479C12.411 19.2066 12.342 19.1467 12.2899 19.0732C12.2378 18.9997 12.2041 18.9147 12.1917 18.8255C12.1793 18.7363 12.1884 18.6453 12.2185 18.5604C12.2568 18.4496 12.3292 18.3537 12.4252 18.2863C12.5212 18.219 12.6361 18.1837 12.7533 18.1854C13.4979 18.1838 14.2115 17.8873 14.738 17.3608C15.2644 16.8343 15.5609 16.1207 15.5625 15.3762C15.5608 15.2589 15.5961 15.1441 15.6635 15.0481C15.7308 14.952 15.8267 14.8797 15.9375 14.8413C16.0225 14.8113 16.1134 14.8021 16.2026 14.8145C16.2919 14.827 16.3768 14.8607 16.4503 14.9128C16.5238 14.9648 16.5837 15.0338 16.625 15.1139C16.6663 15.194 16.6877 15.2828 16.6875 15.3729C16.6864 16.4169 16.2712 17.4177 15.533 18.1559C14.7949 18.8941 13.794 19.3093 12.75 19.3104Z" fill="#666666"/>
</svg>
