<svg width="24" height="24" viewBox="0 0 24 24" fill="none" xmlns="http://www.w3.org/2000/svg">
<path d="M18.7501 14.9979C18.7501 19.1403 16.1424 21.7479 12.0001 21.7479C7.85772 21.7479 5.25006 19.1403 5.25006 14.9979C5.25006 10.5527 10.089 4.55181 11.573 2.81603C11.6258 2.75436 11.6914 2.70485 11.7651 2.67091C11.8389 2.63696 11.9191 2.61938 12.0003 2.61938C12.0815 2.61938 12.1617 2.63696 12.2355 2.67091C12.3092 2.70485 12.3748 2.75436 12.4276 2.81603C13.9112 4.55181 18.7501 10.5527 18.7501 14.9979Z" stroke="#666666" stroke-width="1.5" stroke-miterlimit="10"/>
<path d="M16.1251 15.3704C16.1251 16.2655 15.7695 17.1239 15.1365 17.7568C14.5036 18.3898 13.6452 18.7454 12.7501 18.7454" stroke="#666666" stroke-width="1.5" stroke-linecap="round" stroke-linejoin="round"/>
</svg>
