<svg width="24" height="24" viewBox="0 0 24 24" fill="none" xmlns="http://www.w3.org/2000/svg">
<path d="M20.9869 8.53339C18.5134 6.32686 15.3146 5.10742 12 5.10742C8.68536 5.10742 5.48658 6.32686 3.01312 8.53339M15.5817 14.5559C14.595 13.6788 13.3207 13.1943 12.0005 13.1943C10.6803 13.1943 9.40596 13.6788 8.41921 14.5559H15.5817ZM18.4434 11.6942C16.6958 10.06 14.3926 9.15095 12 9.15095C9.60739 9.15095 7.30416 10.06 5.55656 11.6942H18.4434Z" stroke="#666666" stroke-width="1.5" stroke-linecap="round" stroke-linejoin="round"/>
<path d="M12 19.4971C11.7033 19.4971 11.4133 19.4091 11.1667 19.2443C10.92 19.0795 10.7277 18.8452 10.6142 18.5711C10.5007 18.297 10.471 17.9954 10.5288 17.7044C10.5867 17.4135 10.7296 17.1462 10.9394 16.9364C11.1491 16.7266 11.4164 16.5838 11.7074 16.5259C11.9984 16.468 12.3 16.4977 12.574 16.6113C12.8481 16.7248 13.0824 16.917 13.2472 17.1637C13.412 17.4104 13.5 17.7004 13.5 17.9971C13.5 18.3949 13.342 18.7764 13.0607 19.0577C12.7794 19.339 12.3978 19.4971 12 19.4971Z" fill="#666666"/>
</svg>
