<svg width="24" height="24" viewBox="0 0 24 24" fill="none" xmlns="http://www.w3.org/2000/svg">
<path d="M16.2492 14.2628C15.0823 13.2255 13.5752 12.6525 12.0138 12.6525C10.4525 12.6525 8.94541 13.2255 7.77845 14.2628C7.67985 14.3481 7.59917 14.4522 7.54112 14.569C7.48307 14.6857 7.4488 14.8129 7.44029 14.943C7.43179 15.0731 7.44922 15.2036 7.49158 15.3269C7.53394 15.4503 7.60037 15.5639 7.68704 15.6614C7.7737 15.7588 7.87885 15.8381 7.9964 15.8945C8.11394 15.951 8.24153 15.9835 8.37176 15.9902C8.50198 15.997 8.63225 15.9778 8.75498 15.9337C8.87772 15.8897 8.99049 15.8217 9.08674 15.7337C9.89327 15.0169 10.9348 14.621 12.0138 14.621C13.0929 14.621 14.1344 15.0169 14.941 15.7337C15.1361 15.9072 15.3922 15.9961 15.6529 15.9807C15.9136 15.9654 16.1575 15.8471 16.331 15.6519C16.5045 15.4568 16.5934 15.2006 16.578 14.94C16.5627 14.6793 16.4444 14.4353 16.2492 14.2619V14.2628Z" fill="#666666"/>
<path d="M12.0131 8.60951C9.37019 8.60586 6.82537 9.61038 4.8975 11.4183C4.79989 11.5057 4.72072 11.6117 4.66464 11.7302C4.60855 11.8486 4.57668 11.977 4.57088 12.108C4.56509 12.2389 4.58549 12.3696 4.6309 12.4926C4.6763 12.6155 4.7458 12.7281 4.8353 12.8238C4.92481 12.9195 5.03252 12.9964 5.15213 13.05C5.27174 13.1035 5.40083 13.1326 5.53184 13.1356C5.66285 13.1386 5.79314 13.1154 5.91507 13.0674C6.03699 13.0193 6.1481 12.9474 6.24188 12.8559C7.80725 11.3924 9.87018 10.5783 12.0131 10.5783C14.1561 10.5783 16.219 11.3924 17.7844 12.8559C17.8782 12.9474 17.9893 13.0193 18.1112 13.0674C18.2331 13.1154 18.3634 13.1386 18.4944 13.1356C18.6254 13.1326 18.7545 13.1035 18.8741 13.05C18.9937 12.9964 19.1014 12.9195 19.191 12.8238C19.2805 12.7281 19.35 12.6155 19.3954 12.4926C19.4408 12.3696 19.4612 12.2389 19.4554 12.108C19.4496 11.977 19.4177 11.8486 19.3616 11.7302C19.3055 11.6117 19.2264 11.5057 19.1288 11.4183C17.2009 9.61038 14.6561 8.60586 12.0131 8.60951Z" fill="#666666"/>
<path d="M21.6563 8.24316C19.0024 5.87521 15.5699 4.56653 12.0132 4.56653C8.45642 4.56653 5.02399 5.87521 2.37006 8.24316C2.27031 8.32836 2.18861 8.43264 2.12973 8.54987C2.07086 8.66709 2.03602 8.7949 2.02724 8.92579C2.01846 9.05667 2.03594 9.18799 2.07863 9.31203C2.12133 9.43606 2.18838 9.55031 2.27586 9.64807C2.36333 9.74582 2.46946 9.8251 2.58801 9.88126C2.70656 9.93742 2.83514 9.96931 2.96619 9.97507C3.09725 9.98083 3.22813 9.96033 3.35115 9.91479C3.47417 9.86926 3.58684 9.79959 3.68256 9.70988C5.97551 7.6649 8.94056 6.53478 12.0129 6.53478C15.0853 6.53478 18.0504 7.6649 20.3433 9.70988C20.538 9.88393 20.7938 9.97354 21.0544 9.95899C21.3151 9.94444 21.5594 9.82693 21.7334 9.6323C21.9075 9.43768 21.9971 9.18189 21.9825 8.9212C21.968 8.66051 21.8505 8.41627 21.6558 8.24223L21.6563 8.24316Z" fill="#666666"/>
<path d="M12.0131 19.9388C12.8415 19.9388 13.5131 19.2673 13.5131 18.4388C13.5131 17.6104 12.8415 16.9388 12.0131 16.9388C11.1847 16.9388 10.5131 17.6104 10.5131 18.4388C10.5131 19.2673 11.1847 19.9388 12.0131 19.9388Z" fill="#666666"/>
</svg>
