<svg width="24" height="24" viewBox="0 0 24 24" fill="none" xmlns="http://www.w3.org/2000/svg">
<path d="M15.5949 14.9975C14.6081 14.1205 13.3338 13.636 12.0136 13.636C10.6934 13.636 9.41912 14.1205 8.43237 14.9975M18.4566 12.1382C16.709 10.504 14.4058 9.59494 12.0132 9.59494C9.62055 9.59494 7.31732 10.504 5.56972 12.1382M21 8.97504C18.5266 6.76851 15.3278 5.54907 12.0132 5.54907C8.69852 5.54907 5.49974 6.76851 3.02628 8.97504" stroke="#666666" stroke-width="1.96875" stroke-linecap="square" stroke-linejoin="round"/>
<path d="M14.094 18.0004L12 20.2973L9.92161 18.0004C10.1706 17.6863 10.4874 17.4325 10.8483 17.258C11.2092 17.0835 11.6048 16.9929 12.0057 16.9929C12.4065 16.9929 12.8022 17.0835 13.1631 17.258C13.524 17.4325 13.8408 17.6863 14.0897 18.0004H14.094Z" fill="#666666"/>
</svg>
