<svg width="24" height="24" viewBox="0 0 24 24" fill="none" xmlns="http://www.w3.org/2000/svg">
<path d="M19.4325 4.44742V3.74805C19.4325 3.54913 19.3535 3.35837 19.2128 3.21772C19.0722 3.07706 18.8814 2.99805 18.6825 2.99805H5.31749C5.11858 2.99805 4.92781 3.07706 4.78716 3.21772C4.64651 3.35837 4.56749 3.54913 4.56749 3.74805V4.44742C4.49905 4.98039 4.11514 8.70086 6.29858 11.2298C7.46436 12.5798 9.12796 13.3321 11.25 13.4732V19.498H7.49999C7.30108 19.498 7.11031 19.5771 6.96966 19.7177C6.82901 19.8584 6.74999 20.0491 6.74999 20.248C6.74999 20.447 6.82901 20.6377 6.96966 20.7784C7.11031 20.919 7.30108 20.998 7.49999 20.998H16.5C16.6989 20.998 16.8897 20.919 17.0303 20.7784C17.171 20.6377 17.25 20.447 17.25 20.248C17.25 20.0491 17.171 19.8584 17.0303 19.7177C16.8897 19.5771 16.6989 19.498 16.5 19.498H12.75V13.4732C14.872 13.3326 16.5356 12.5798 17.7014 11.2298C19.8848 8.70086 19.5 4.98039 19.4325 4.44742ZM6.05905 4.60727C6.06467 4.57113 6.0675 4.53462 6.06749 4.49805H17.9325C17.9325 4.53462 17.9353 4.57113 17.9409 4.60727C18.0219 5.31856 18.0219 6.03675 17.9409 6.74805H6.06186C5.98092 6.0368 5.97997 5.31872 6.05905 4.60727Z" fill="#666666"/>
</svg>
