<svg width="24" height="24" viewBox="0 0 24 24" fill="none" xmlns="http://www.w3.org/2000/svg">
<g clip-path="url(#clip0_32_3823)">
<path d="M9.75016 17.2499V22.1249C9.74846 22.2731 9.7764 22.4201 9.83234 22.5574C9.88827 22.6947 9.97108 22.8193 10.0759 22.9242C10.1807 23.029 10.3054 23.1118 10.4426 23.1677C10.5799 23.2236 10.7269 23.2516 10.8752 23.2499V23.2499C11.0234 23.2516 11.1704 23.2236 11.3077 23.1677C11.4449 23.1118 11.5696 23.029 11.6744 22.9242C11.7792 22.8193 11.862 22.6947 11.918 22.5574C11.9739 22.4201 12.0019 22.2731 12.0002 22.1249" stroke="#666666" stroke-width="1.5" stroke-miterlimit="10" stroke-linecap="round"/>
<path d="M8.57823 12.8418C8.53769 12.9844 8.46906 13.1174 8.37638 13.2331C8.28369 13.3488 8.16881 13.4448 8.0385 13.5154C7.90819 13.5861 7.76507 13.63 7.61755 13.6446C7.47003 13.6591 7.32109 13.6441 7.17948 13.6002C7.0369 13.5597 6.90387 13.4911 6.7882 13.3984C6.67253 13.3057 6.57657 13.1908 6.50595 13.0605C6.43533 12.9301 6.39148 12.787 6.37698 12.6395C6.36248 12.492 6.37762 12.3431 6.42151 12.2015L7.59339 8.25086C7.7226 7.81655 7.98869 7.43561 8.35199 7.16481C8.71528 6.894 9.15636 6.74782 9.60948 6.74805H14.3907C14.8439 6.74798 15.285 6.89435 15.6482 7.16532C16.0114 7.4363 16.2773 7.81739 16.4064 8.2518L17.5782 12.2024C17.6221 12.344 17.6373 12.4929 17.6228 12.6404C17.6083 12.788 17.5644 12.9311 17.4938 13.0614C17.4232 13.1917 17.3272 13.3066 17.2115 13.3993C17.0959 13.492 16.9628 13.5606 16.8203 13.6012V13.6012C16.6788 13.6445 16.53 13.6592 16.3828 13.6444C16.2355 13.6296 16.0927 13.5855 15.9627 13.5148C15.8327 13.4441 15.7182 13.3481 15.6257 13.2326C15.5333 13.117 15.4648 12.9842 15.4243 12.8418M12.0001 17.248V22.123C11.9984 22.2713 12.0263 22.4183 12.0823 22.5556C12.1382 22.6928 12.221 22.8175 12.3258 22.9223C12.4306 23.0271 12.5553 23.1099 12.6926 23.1659C12.8298 23.2218 12.9769 23.2497 13.1251 23.248C13.2733 23.2497 13.4204 23.2218 13.5576 23.1659C13.6949 23.1099 13.8196 23.0271 13.9244 22.9223C14.0292 22.8175 14.112 22.6928 14.1679 22.5556C14.2239 22.4183 14.2518 22.2713 14.2501 22.123V17.248H12.0001Z" stroke="#666666" stroke-width="1.5" stroke-miterlimit="10" stroke-linecap="round"/>
<path d="M12.0002 4.4989C13.0357 4.4989 13.8752 3.65944 13.8752 2.6239C13.8752 1.58837 13.0357 0.748901 12.0002 0.748901C10.9646 0.748901 10.1252 1.58837 10.1252 2.6239C10.1252 3.65944 10.9646 4.4989 12.0002 4.4989Z" stroke="#666666" stroke-width="1.5" stroke-miterlimit="10" stroke-linecap="round"/>
<path d="M9.75 8.99707L7.5 16.4971H16.5L14.25 8.99707" stroke="#666666" stroke-width="1.5" stroke-linecap="round" stroke-linejoin="round"/>
</g>
<defs>
<clipPath id="clip0_32_3823">
<rect width="24" height="24" fill="white"/>
</clipPath>
</defs>
</svg>
