<svg width="24" height="24" viewBox="0 0 24 24" fill="none" xmlns="http://www.w3.org/2000/svg">
<g clip-path="url(#clip0_32_3828)">
<path d="M11.9883 5.24719C13.4381 5.24719 14.6133 4.07194 14.6133 2.62219C14.6133 1.17245 13.4381 -0.00280762 11.9883 -0.00280762C10.5386 -0.00280762 9.36331 1.17245 9.36331 2.62219C9.36331 4.07194 10.5386 5.24719 11.9883 5.24719Z" fill="#666666"/>
<path d="M14.5444 8.96856H14.5467L14.9058 8.86075L16.6303 14.6076L18.7866 13.9607L18.0267 11.422C18.0267 11.4164 18.0267 11.4107 18.0235 11.4051L17.2341 8.7745L17.0133 8.03669L16.9711 7.89606H16.9688L16.8511 7.49997C16.7222 7.06552 16.4562 6.68439 16.093 6.4134C15.7298 6.14241 15.2887 5.99608 14.8355 5.99622H9.1519C8.69872 5.99608 8.25763 6.14241 7.89439 6.4134C7.53116 6.68439 7.26524 7.06552 7.13628 7.49997L7.01862 7.89606H7.01581L6.97362 8.03669L6.75284 8.7745L5.96347 11.4051C5.96347 11.4107 5.96347 11.4164 5.96018 11.422L5.20034 13.9607L7.35659 14.6076L9.07972 8.86075L9.43315 8.96669L6.94925 17.2467H9.36331V23.9967H11.8008V17.2467H12.1758V23.9967H14.6133V17.2467H17.0278L14.5444 8.96856Z" fill="#666666"/>
</g>
<defs>
<clipPath id="clip0_32_3828">
<rect width="24" height="24" fill="white" transform="translate(0 -0.00390625)"/>
</clipPath>
</defs>
</svg>
