<svg width="24" height="24" viewBox="0 0 24 24" fill="none" xmlns="http://www.w3.org/2000/svg">
<g clip-path="url(#clip0_32_3831)">
<path d="M11.9882 5.24719C13.438 5.24719 14.6132 4.07194 14.6132 2.62219C14.6132 1.17245 13.438 -0.00280762 11.9882 -0.00280762C10.5385 -0.00280762 9.36324 1.17245 9.36324 2.62219C9.36324 4.07194 10.5385 5.24719 11.9882 5.24719Z" fill="#666666"/>
<path d="M18.4984 13.0232L18.0141 11.4103V11.4051L16.9613 7.89606H16.959L16.8413 7.49997C16.7122 7.06564 16.4462 6.68463 16.083 6.41368C15.7198 6.14272 15.2788 5.9963 14.8257 5.99622H9.20069C8.74751 5.99608 8.30642 6.14241 7.94318 6.4134C7.57995 6.68439 7.31403 7.06552 7.18507 7.49997L7.06741 7.89606H7.0646L6.01179 11.4051V11.4103L5.52569 13.0232C5.37944 13.5103 5.6335 14.0386 6.11491 14.2017C6.23417 14.2423 6.36039 14.2584 6.48603 14.2492C6.61167 14.2399 6.73416 14.2054 6.84617 14.1477C6.95818 14.0901 7.05741 14.0104 7.13795 13.9135C7.21849 13.8166 7.27867 13.7045 7.31491 13.5839L8.51397 9.58778L8.61569 9.24887C8.6454 9.16605 8.70328 9.0963 8.77921 9.05185C8.85515 9.00739 8.9443 8.99105 9.03106 9.00569C9.11783 9.02032 9.19668 9.06501 9.25383 9.13192C9.31098 9.19883 9.34278 9.2837 9.34366 9.37169C9.34364 9.39705 9.34097 9.42234 9.33569 9.44715L7.28585 16.2811C7.25224 16.393 7.24527 16.5113 7.2655 16.6265C7.28573 16.7416 7.3326 16.8504 7.40237 16.9443C7.47213 17.0381 7.56287 17.1143 7.66732 17.1668C7.77178 17.2193 7.88706 17.2467 8.00397 17.2467H9.36335V22.6228C9.36335 23.3943 9.85694 23.9967 10.4884 23.9967C11.1198 23.9967 11.6134 23.3943 11.6134 22.6228V17.2467H12.3634V22.6228C12.3634 23.3943 12.8569 23.9967 13.4884 23.9967C14.1198 23.9967 14.6134 23.3943 14.6134 22.6228V17.2467H16.0196C16.1366 17.2467 16.2519 17.2194 16.3564 17.1669C16.4609 17.1145 16.5517 17.0383 16.6215 16.9444C16.6914 16.8506 16.7383 16.7418 16.7585 16.6266C16.7788 16.5114 16.7718 16.3931 16.7382 16.2811L14.6879 9.44622C14.6827 9.42171 14.6802 9.39673 14.6804 9.37169C14.6809 9.28343 14.7125 9.19817 14.7696 9.13091C14.8267 9.06365 14.9058 9.0187 14.9928 9.00397C15.0798 8.98925 15.1692 9.00568 15.2453 9.05039C15.3214 9.0951 15.3793 9.16522 15.4088 9.2484L15.5105 9.58731L16.7091 13.5834C16.7455 13.7039 16.8058 13.8158 16.8864 13.9125C16.9669 14.0092 17.0662 14.0886 17.1781 14.1462C17.29 14.2037 17.4124 14.2381 17.5379 14.2473C17.6634 14.2565 17.7895 14.2404 17.9087 14.1998C18.3901 14.0386 18.6441 13.5103 18.4984 13.0232Z" fill="#666666"/>
</g>
<defs>
<clipPath id="clip0_32_3831">
<rect width="24" height="24" fill="white" transform="translate(-0.00012207 -0.00390625)"/>
</clipPath>
</defs>
</svg>
